solid OpenSCAD_Model
  facet normal 0 0 -1
    outer loop
      vertex 16.4 0 0
      vertex 16.3851 0.51618 0
      vertex 16.4 0.51618 0
    endloop
  endfacet
  facet normal 0 0 -1
    outer loop
      vertex 16.4 0 0
      vertex 15.3635 0.645244 0
      vertex 16.3851 0.51618 0
    endloop
  endfacet
  facet normal 0 0 -1
    outer loop
      vertex 16.4 0 0
      vertex 14.3661 0.901336 0
      vertex 15.3635 0.645244 0
    endloop
  endfacet
  facet normal 0 0 -1
    outer loop
      vertex 2.03394 0.901336 0
      vertex 14.3661 0.901336 0
      vertex 16.4 0 0
    endloop
  endfacet
  facet normal 0 0 -1
    outer loop
      vertex 8.76466 7.67227 0
      vertex 7.7 8.7 0
      vertex 8.7 8.7 0
    endloop
  endfacet
  facet normal 0 0 -1
    outer loop
      vertex 7.63534 7.67227 0
      vertex 8.76466 7.67227 0
      vertex 8.95762 6.66074 0
    endloop
  endfacet
  facet normal 0 0 -1
    outer loop
      vertex 7.44238 6.66074 0
      vertex 8.95762 6.66074 0
      vertex 9.27583 5.68138 0
    endloop
  endfacet
  facet normal 0 0 -1
    outer loop
      vertex 7.12417 5.68138 0
      vertex 9.27583 5.68138 0
      vertex 9.71428 4.74962 0
    endloop
  endfacet
  facet normal 0 0 -1
    outer loop
      vertex 8.76466 7.67227 0
      vertex 7.63534 7.67227 0
      vertex 7.7 8.7 0
    endloop
  endfacet
  facet normal 0 0 -1
    outer loop
      vertex 6.68571 4.74962 0
      vertex 9.71428 4.74962 0
      vertex 10.2661 3.88016 0
    endloop
  endfacet
  facet normal 0 0 -1
    outer loop
      vertex 8.95762 6.66074 0
      vertex 7.44238 6.66074 0
      vertex 7.63534 7.67227 0
    endloop
  endfacet
  facet normal 0 0 -1
    outer loop
      vertex 6.13394 3.88016 0
      vertex 10.2661 3.88016 0
      vertex 10.9225 3.08671 0
    endloop
  endfacet
  facet normal 0 0 -1
    outer loop
      vertex 9.27583 5.68138 0
      vertex 7.12417 5.68138 0
      vertex 7.44238 6.66074 0
    endloop
  endfacet
  facet normal 0 0 -1
    outer loop
      vertex 5.47754 3.08671 0
      vertex 10.9225 3.08671 0
      vertex 11.6731 2.38179 0
    endloop
  endfacet
  facet normal 0 0 -1
    outer loop
      vertex 4.72688 2.38179 0
      vertex 11.6731 2.38179 0
      vertex 12.5062 1.77651 0
    endloop
  endfacet
  facet normal 0 0 -1
    outer loop
      vertex 9.71428 4.74962 0
      vertex 6.68571 4.74962 0
      vertex 7.12417 5.68138 0
    endloop
  endfacet
  facet normal 0 0 -1
    outer loop
      vertex 3.89378 1.77651 0
      vertex 12.5062 1.77651 0
      vertex 13.4086 1.28042 0
    endloop
  endfacet
  facet normal 0 0 -1
    outer loop
      vertex 10.2661 3.88016 0
      vertex 6.13394 3.88016 0
      vertex 6.68571 4.74962 0
    endloop
  endfacet
  facet normal 0 0 -1
    outer loop
      vertex 14.3661 0.901336 0
      vertex 2.03394 0.901336 0
      vertex 13.4086 1.28042 0
    endloop
  endfacet
  facet normal 0 0 -1
    outer loop
      vertex 10.9225 3.08671 0
      vertex 5.47754 3.08671 0
      vertex 6.13394 3.88016 0
    endloop
  endfacet
  facet normal 0 0 -1
    outer loop
      vertex 11.6731 2.38179 0
      vertex 4.72688 2.38179 0
      vertex 5.47754 3.08671 0
    endloop
  endfacet
  facet normal 0 0 -1
    outer loop
      vertex 12.5062 1.77651 0
      vertex 3.89378 1.77651 0
      vertex 4.72688 2.38179 0
    endloop
  endfacet
  facet normal 0 0 -1
    outer loop
      vertex 13.4086 1.28042 0
      vertex 2.99139 1.28042 0
      vertex 3.89378 1.77651 0
    endloop
  endfacet
  facet normal -0 0 -1
    outer loop
      vertex 13.4086 1.28042 0
      vertex 2.03394 0.901336 0
      vertex 2.99139 1.28042 0
    endloop
  endfacet
  facet normal 0 0 -1
    outer loop
      vertex 0 0 0
      vertex 2.03394 0.901336 0
      vertex 16.4 0 0
    endloop
  endfacet
  facet normal 0 0 -1
    outer loop
      vertex 2.03394 0.901336 0
      vertex 0 0 0
      vertex 1.03653 0.645244 0
    endloop
  endfacet
  facet normal 0 0 -1
    outer loop
      vertex 1.03653 0.645244 0
      vertex 0 0 0
      vertex 0.0148821 0.51618 0
    endloop
  endfacet
  facet normal -0 0 -1
    outer loop
      vertex 0.0148821 0.51618 0
      vertex 0 0 0
      vertex 0 0.51618 0
    endloop
  endfacet
  facet normal 0 0 -1
    outer loop
      vertex 16.3851 16.8838 0
      vertex 16.4 21 0
      vertex 16.4 16.8838 0
    endloop
  endfacet
  facet normal 0 0 -1
    outer loop
      vertex 15.3635 16.7548 0
      vertex 16.4 21 0
      vertex 16.3851 16.8838 0
    endloop
  endfacet
  facet normal 0 0 -1
    outer loop
      vertex 14.3661 16.4987 0
      vertex 16.4 21 0
      vertex 15.3635 16.7548 0
    endloop
  endfacet
  facet normal 0 0 -1
    outer loop
      vertex 13.4086 16.1196 0
      vertex 16.4 21 0
      vertex 14.3661 16.4987 0
    endloop
  endfacet
  facet normal 0 0 -1
    outer loop
      vertex 12.5062 15.6235 0
      vertex 16.4 21 0
      vertex 13.4086 16.1196 0
    endloop
  endfacet
  facet normal 0 0 -1
    outer loop
      vertex 3.89378 15.6235 0
      vertex 12.5062 15.6235 0
      vertex 11.6731 15.0182 0
    endloop
  endfacet
  facet normal 0 0 -1
    outer loop
      vertex 4.72688 15.0182 0
      vertex 11.6731 15.0182 0
      vertex 10.9225 14.3133 0
    endloop
  endfacet
  facet normal 0 0 -1
    outer loop
      vertex 5.47754 14.3133 0
      vertex 10.9225 14.3133 0
      vertex 10.2661 13.5198 0
    endloop
  endfacet
  facet normal 0 0 -1
    outer loop
      vertex 7.7 8.7 0
      vertex 8.76466 9.72773 0
      vertex 8.7 8.7 0
    endloop
  endfacet
  facet normal 0 0 -1
    outer loop
      vertex 7.63534 9.72773 0
      vertex 8.76466 9.72773 0
      vertex 7.7 8.7 0
    endloop
  endfacet
  facet normal 0 0 -1
    outer loop
      vertex 8.76466 9.72773 0
      vertex 7.63534 9.72773 0
      vertex 8.95762 10.7393 0
    endloop
  endfacet
  facet normal 0 0 -1
    outer loop
      vertex 7.44238 10.7393 0
      vertex 8.95762 10.7393 0
      vertex 7.63534 9.72773 0
    endloop
  endfacet
  facet normal 0 0 -1
    outer loop
      vertex 8.95762 10.7393 0
      vertex 7.44238 10.7393 0
      vertex 9.27583 11.7186 0
    endloop
  endfacet
  facet normal 0 0 -1
    outer loop
      vertex 7.12417 11.7186 0
      vertex 9.27583 11.7186 0
      vertex 7.44238 10.7393 0
    endloop
  endfacet
  facet normal 0 0 -1
    outer loop
      vertex 9.27583 11.7186 0
      vertex 7.12417 11.7186 0
      vertex 9.71428 12.6504 0
    endloop
  endfacet
  facet normal 0 0 -1
    outer loop
      vertex 6.68571 12.6504 0
      vertex 9.71428 12.6504 0
      vertex 7.12417 11.7186 0
    endloop
  endfacet
  facet normal 0 0 -1
    outer loop
      vertex 9.71428 12.6504 0
      vertex 6.68571 12.6504 0
      vertex 10.2661 13.5198 0
    endloop
  endfacet
  facet normal 0 0 -1
    outer loop
      vertex 6.13394 13.5198 0
      vertex 10.2661 13.5198 0
      vertex 6.68571 12.6504 0
    endloop
  endfacet
  facet normal 0 0 -1
    outer loop
      vertex 5.47754 14.3133 0
      vertex 10.2661 13.5198 0
      vertex 6.13394 13.5198 0
    endloop
  endfacet
  facet normal 0 0 -1
    outer loop
      vertex 10.9225 14.3133 0
      vertex 5.47754 14.3133 0
      vertex 4.72688 15.0182 0
    endloop
  endfacet
  facet normal 0 0 -1
    outer loop
      vertex 11.6731 15.0182 0
      vertex 4.72688 15.0182 0
      vertex 3.89378 15.6235 0
    endloop
  endfacet
  facet normal 0 0 -1
    outer loop
      vertex 12.5062 15.6235 0
      vertex 3.89378 15.6235 0
      vertex 16.4 21 0
    endloop
  endfacet
  facet normal 0 0 -1
    outer loop
      vertex 0 21 0
      vertex 3.89378 15.6235 0
      vertex 2.99139 16.1196 0
    endloop
  endfacet
  facet normal 0 0 -1
    outer loop
      vertex 0 21 0
      vertex 2.99139 16.1196 0
      vertex 2.03394 16.4987 0
    endloop
  endfacet
  facet normal 0 0 -1
    outer loop
      vertex 0 21 0
      vertex 2.03394 16.4987 0
      vertex 1.03653 16.7548 0
    endloop
  endfacet
  facet normal 0 0 -1
    outer loop
      vertex 0 21 0
      vertex 1.03653 16.7548 0
      vertex 0.0148821 16.8838 0
    endloop
  endfacet
  facet normal 0 0 -1
    outer loop
      vertex 0 21 0
      vertex 0.0148821 16.8838 0
      vertex 0 16.8838 0
    endloop
  endfacet
  facet normal 0 0 -1
    outer loop
      vertex 3.89378 15.6235 0
      vertex 0 21 0
      vertex 16.4 21 0
    endloop
  endfacet
  facet normal 0 1 -0
    outer loop
      vertex 11.9485 0.5 0.5
      vertex 8.45 0.5 16.756
      vertex 11.9485 0.5 16.756
    endloop
  endfacet
  facet normal 0 1 0
    outer loop
      vertex 8.45 0.5 16.756
      vertex 11.9485 0.5 0.5
      vertex 8.45 0.5 0.5
    endloop
  endfacet
  facet normal 0 1 -0
    outer loop
      vertex 7.95 0.5 0.5
      vertex 4.4515 0.5 16.756
      vertex 7.95 0.5 16.756
    endloop
  endfacet
  facet normal 0 1 0
    outer loop
      vertex 4.4515 0.5 16.756
      vertex 7.95 0.5 0.5
      vertex 4.4515 0.5 0.5
    endloop
  endfacet
  facet normal 0 -1 0
    outer loop
      vertex 0 0 0
      vertex 4.4515 0 0.5
      vertex 0 0 0.5
    endloop
  endfacet
  facet normal 0 -1 -0
    outer loop
      vertex 4.4515 0 0.5
      vertex 0 0 0
      vertex 11.9485 0 0.5
    endloop
  endfacet
  facet normal 0 -1 0
    outer loop
      vertex 16.4 0 0
      vertex 11.9485 0 0.5
      vertex 0 0 0
    endloop
  endfacet
  facet normal 0 -1 0
    outer loop
      vertex 11.9485 0 0.5
      vertex 16.4 0 0
      vertex 16.4 0 0.5
    endloop
  endfacet
  facet normal 0 -1 0
    outer loop
      vertex 4.4515 0 0.5
      vertex 11.9485 0 16.89
      vertex 4.4515 0 16.89
    endloop
  endfacet
  facet normal 0 -1 -0
    outer loop
      vertex 11.9485 0 16.89
      vertex 4.4515 0 0.5
      vertex 11.9485 0 0.5
    endloop
  endfacet
  facet normal -0 0.500002 0.866024
    outer loop
      vertex 4.4515 2.09051 19.5109
      vertex 5.38003 1.6575 19.7609
      vertex 5.38003 2.09051 19.5109
    endloop
  endfacet
  facet normal 0 0.500002 0.866024
    outer loop
      vertex 5.38003 1.6575 19.7609
      vertex 4.4515 2.09051 19.5109
      vertex 4.4515 1.6575 19.7609
    endloop
  endfacet
  facet normal -0 0.500002 0.866024
    outer loop
      vertex 11.02 2.09051 19.5109
      vertex 11.9485 1.6575 19.7609
      vertex 11.9485 2.09051 19.5109
    endloop
  endfacet
  facet normal 0 0.500002 0.866024
    outer loop
      vertex 11.9485 1.6575 19.7609
      vertex 11.02 2.09051 19.5109
      vertex 11.02 1.6575 19.7609
    endloop
  endfacet
  facet normal 0 0.866041 -0.499974
    outer loop
      vertex 11.9485 2.09051 19.5109
      vertex 10.6895 1.68368 18.8062
      vertex 11.02 2.09051 19.5109
    endloop
  endfacet
  facet normal 1.409e-05 0.86603 -0.499992
    outer loop
      vertex 11.9485 0.5 16.756
      vertex 10.6895 1.68368 18.8062
      vertex 11.9485 2.09051 19.5109
    endloop
  endfacet
  facet normal 3.81402e-06 0.866027 -0.499997
    outer loop
      vertex 10.6895 1.68368 18.8062
      vertex 11.9485 0.5 16.756
      vertex 10.5463 1.53155 18.5427
    endloop
  endfacet
  facet normal -8.71356e-05 0.865996 -0.500051
    outer loop
      vertex 10.5463 1.53155 18.5427
      vertex 11.9485 0.5 16.756
      vertex 10.3661 1.3896 18.2969
    endloop
  endfacet
  facet normal 2.28155e-05 0.866045 -0.499966
    outer loop
      vertex 10.3661 1.3896 18.2969
      vertex 11.9485 0.5 16.756
      vertex 10.1518 1.26006 18.0725
    endloop
  endfacet
  facet normal 0 0.866013 -0.500022
    outer loop
      vertex 8.36812 0.840394 17.3456
      vertex 8.45 0.503317 16.7618
      vertex 8.03188 0.840394 17.3456
    endloop
  endfacet
  facet normal 9.02502e-06 0.866013 -0.500021
    outer loop
      vertex 8.70171 0.861465 17.3821
      vertex 8.45 0.503317 16.7618
      vertex 8.36812 0.840394 17.3456
    endloop
  endfacet
  facet normal -2.56707e-05 0.866019 -0.500011
    outer loop
      vertex 9.02739 0.903276 17.4545
      vertex 8.45 0.503317 16.7618
      vertex 8.70171 0.861465 17.3821
    endloop
  endfacet
  facet normal 9.5233e-06 0.866024 -0.500003
    outer loop
      vertex 8.45 0.5 16.756
      vertex 9.02739 0.903276 17.4545
      vertex 9.34002 0.965165 17.5617
    endloop
  endfacet
  facet normal 7.14501e-06 0.866038 -0.499978
    outer loop
      vertex 11.9485 0.5 16.756
      vertex 9.34002 0.965165 17.5617
      vertex 9.63468 1.04616 17.702
    endloop
  endfacet
  facet normal 2.50119e-05 0.866057 -0.499945
    outer loop
      vertex 11.9485 0.5 16.756
      vertex 9.63468 1.04616 17.702
      vertex 9.9067 1.14498 17.8732
    endloop
  endfacet
  facet normal -2.90836e-05 0.866014 -0.500019
    outer loop
      vertex 10.1518 1.26006 18.0725
      vertex 11.9485 0.5 16.756
      vertex 9.9067 1.14498 17.8732
    endloop
  endfacet
  facet normal 0 0.866028 -0.499995
    outer loop
      vertex 9.34002 0.965165 17.5617
      vertex 11.9485 0.5 16.756
      vertex 8.45 0.5 16.756
    endloop
  endfacet
  facet normal -0.00572237 0.868054 -0.496437
    outer loop
      vertex 9.02739 0.903276 17.4545
      vertex 8.45 0.5 16.756
      vertex 8.45 0.503317 16.7618
    endloop
  endfacet
  facet normal 0 0.866041 -0.499974
    outer loop
      vertex 5.71052 1.68368 18.8062
      vertex 4.4515 2.09051 19.5109
      vertex 5.38003 2.09051 19.5109
    endloop
  endfacet
  facet normal -3.81436e-06 0.866027 -0.499997
    outer loop
      vertex 4.4515 0.5 16.756
      vertex 5.71052 1.68368 18.8062
      vertex 5.85369 1.53155 18.5427
    endloop
  endfacet
  facet normal 8.71429e-05 0.865996 -0.500051
    outer loop
      vertex 4.4515 0.5 16.756
      vertex 5.85369 1.53155 18.5427
      vertex 6.03386 1.3896 18.2969
    endloop
  endfacet
  facet normal -2.28142e-05 0.866045 -0.499966
    outer loop
      vertex 4.4515 0.5 16.756
      vertex 6.03386 1.3896 18.2969
      vertex 6.24819 1.26006 18.0725
    endloop
  endfacet
  facet normal 2.90831e-05 0.866014 -0.500019
    outer loop
      vertex 4.4515 0.5 16.756
      vertex 6.24819 1.26006 18.0725
      vertex 6.4933 1.14498 17.8732
    endloop
  endfacet
  facet normal 0 0.866013 -0.500022
    outer loop
      vertex 7.95 0.503317 16.7618
      vertex 8.03188 0.840394 17.3456
      vertex 8.45 0.503317 16.7618
    endloop
  endfacet
  facet normal -9.02502e-06 0.866013 -0.500021
    outer loop
      vertex 8.03188 0.840394 17.3456
      vertex 7.95 0.503317 16.7618
      vertex 7.69829 0.861465 17.3821
    endloop
  endfacet
  facet normal 2.56707e-05 0.866019 -0.500011
    outer loop
      vertex 7.69829 0.861465 17.3821
      vertex 7.95 0.503317 16.7618
      vertex 7.37261 0.903276 17.4545
    endloop
  endfacet
  facet normal 0.00572237 0.868054 -0.496437
    outer loop
      vertex 7.95 0.5 16.756
      vertex 7.37261 0.903276 17.4545
      vertex 7.95 0.503317 16.7618
    endloop
  endfacet
  facet normal -9.5233e-06 0.866024 -0.500003
    outer loop
      vertex 7.37261 0.903276 17.4545
      vertex 7.95 0.5 16.756
      vertex 7.05998 0.965165 17.5617
    endloop
  endfacet
  facet normal 0 0.866028 -0.499995
    outer loop
      vertex 4.4515 0.5 16.756
      vertex 7.05998 0.965165 17.5617
      vertex 7.95 0.5 16.756
    endloop
  endfacet
  facet normal -7.14501e-06 0.866038 -0.499978
    outer loop
      vertex 7.05998 0.965165 17.5617
      vertex 4.4515 0.5 16.756
      vertex 6.76532 1.04616 17.702
    endloop
  endfacet
  facet normal -1.40898e-05 0.86603 -0.499992
    outer loop
      vertex 5.71052 1.68368 18.8062
      vertex 4.4515 0.5 16.756
      vertex 4.4515 2.09051 19.5109
    endloop
  endfacet
  facet normal -2.50119e-05 0.866057 -0.499945
    outer loop
      vertex 6.76532 1.04616 17.702
      vertex 4.4515 0.5 16.756
      vertex 6.4933 1.14498 17.8732
    endloop
  endfacet
  facet normal 0 -0.866035 0.499983
    outer loop
      vertex 4.4515 1.6575 19.7609
      vertex 5.71052 1.25066 19.0562
      vertex 5.38003 1.6575 19.7609
    endloop
  endfacet
  facet normal 1.03731e-05 -0.866027 0.499997
    outer loop
      vertex 4.4515 0 16.89
      vertex 5.71052 1.25066 19.0562
      vertex 4.4515 1.6575 19.7609
    endloop
  endfacet
  facet normal 3.58429e-05 -0.866034 0.499986
    outer loop
      vertex 5.71052 1.25066 19.0562
      vertex 4.4515 0 16.89
      vertex 5.85369 1.09854 18.7927
    endloop
  endfacet
  facet normal -7.97732e-05 -0.865997 0.500049
    outer loop
      vertex 5.85369 1.09854 18.7927
      vertex 4.4515 0 16.89
      vertex 6.03386 0.956592 18.5469
    endloop
  endfacet
  facet normal 2.97769e-05 -0.866042 0.499971
    outer loop
      vertex 6.03386 0.956592 18.5469
      vertex 4.4515 0 16.89
      vertex 6.24819 0.827052 18.3225
    endloop
  endfacet
  facet normal 0 -0.866023 0.500003
    outer loop
      vertex 8.03188 0.407382 17.5956
      vertex 4.4515 0 16.89
      vertex 8.36812 0.407382 17.5956
    endloop
  endfacet
  facet normal 4.12925e-06 -0.866033 0.499988
    outer loop
      vertex 7.69829 0.428453 17.6321
      vertex 4.4515 0 16.89
      vertex 8.03188 0.407382 17.5956
    endloop
  endfacet
  facet normal -1.30853e-05 -0.866 0.500044
    outer loop
      vertex 7.37261 0.470263 17.7045
      vertex 4.4515 0 16.89
      vertex 7.69829 0.428453 17.6321
    endloop
  endfacet
  facet normal 4.25341e-06 -0.866027 0.499997
    outer loop
      vertex 7.05998 0.532153 17.8117
      vertex 4.4515 0 16.89
      vertex 7.37261 0.470263 17.7045
    endloop
  endfacet
  facet normal 1.33362e-05 -0.866038 0.499978
    outer loop
      vertex 6.76532 0.613146 17.952
      vertex 4.4515 0 16.89
      vertex 7.05998 0.532153 17.8117
    endloop
  endfacet
  facet normal 3.13762e-05 -0.866055 0.499949
    outer loop
      vertex 6.4933 0.711965 18.1232
      vertex 4.4515 0 16.89
      vertex 6.76532 0.613146 17.952
    endloop
  endfacet
  facet normal -3.74437e-05 -0.866006 0.500034
    outer loop
      vertex 6.24819 0.827052 18.3225
      vertex 4.4515 0 16.89
      vertex 6.4933 0.711965 18.1232
    endloop
  endfacet
  facet normal 0 -0.866035 0.499983
    outer loop
      vertex 10.6895 1.25066 19.0562
      vertex 11.9485 1.6575 19.7609
      vertex 11.02 1.6575 19.7609
    endloop
  endfacet
  facet normal -3.58395e-05 -0.866034 0.499986
    outer loop
      vertex 11.9485 0 16.89
      vertex 10.6895 1.25066 19.0562
      vertex 10.5463 1.09854 18.7927
    endloop
  endfacet
  facet normal 7.97663e-05 -0.865997 0.500049
    outer loop
      vertex 11.9485 0 16.89
      vertex 10.5463 1.09854 18.7927
      vertex 10.3661 0.956592 18.5469
    endloop
  endfacet
  facet normal -2.97786e-05 -0.866042 0.499971
    outer loop
      vertex 11.9485 0 16.89
      vertex 10.3661 0.956592 18.5469
      vertex 10.1518 0.827052 18.3225
    endloop
  endfacet
  facet normal 3.74444e-05 -0.866006 0.500034
    outer loop
      vertex 11.9485 0 16.89
      vertex 10.1518 0.827052 18.3225
      vertex 9.9067 0.711965 18.1232
    endloop
  endfacet
  facet normal 0 -0.866023 0.500003
    outer loop
      vertex 11.9485 0 16.89
      vertex 8.36812 0.407382 17.5956
      vertex 4.4515 0 16.89
    endloop
  endfacet
  facet normal -1.03733e-05 -0.866027 0.499997
    outer loop
      vertex 10.6895 1.25066 19.0562
      vertex 11.9485 0 16.89
      vertex 11.9485 1.6575 19.7609
    endloop
  endfacet
  facet normal -3.13762e-05 -0.866055 0.499949
    outer loop
      vertex 9.63468 0.613146 17.952
      vertex 11.9485 0 16.89
      vertex 9.9067 0.711965 18.1232
    endloop
  endfacet
  facet normal -1.33362e-05 -0.866038 0.499978
    outer loop
      vertex 9.34002 0.532153 17.8117
      vertex 11.9485 0 16.89
      vertex 9.63468 0.613146 17.952
    endloop
  endfacet
  facet normal -4.25341e-06 -0.866027 0.499997
    outer loop
      vertex 9.02739 0.470263 17.7045
      vertex 11.9485 0 16.89
      vertex 9.34002 0.532153 17.8117
    endloop
  endfacet
  facet normal 1.30853e-05 -0.866 0.500044
    outer loop
      vertex 8.70171 0.428453 17.6321
      vertex 11.9485 0 16.89
      vertex 9.02739 0.470263 17.7045
    endloop
  endfacet
  facet normal -4.12925e-06 -0.866033 0.499988
    outer loop
      vertex 8.36812 0.407382 17.5956
      vertex 11.9485 0 16.89
      vertex 8.70171 0.428453 17.6321
    endloop
  endfacet
  facet normal 0.770544 0.318696 0.551991
    outer loop
      vertex 6.03386 0.956592 18.5469
      vertex 6.24819 1.26006 18.0725
      vertex 6.03386 1.3896 18.2969
    endloop
  endfacet
  facet normal 0.770544 0.318696 0.551991
    outer loop
      vertex 6.24819 1.26006 18.0725
      vertex 6.03386 0.956592 18.5469
      vertex 6.24819 0.827052 18.3225
    endloop
  endfacet
  facet normal 0.926497 0.188152 0.325887
    outer loop
      vertex 5.38003 1.6575 19.7609
      vertex 5.71052 1.68368 18.8062
      vertex 5.38003 2.09051 19.5109
    endloop
  endfacet
  facet normal 0.926498 0.188148 0.325887
    outer loop
      vertex 5.71052 1.68368 18.8062
      vertex 5.38003 1.6575 19.7609
      vertex 5.71052 1.25066 19.0562
    endloop
  endfacet
  facet normal -0.368133 0.464887 0.805207
    outer loop
      vertex 9.02739 0.903276 17.4545
      vertex 9.34002 0.532153 17.8117
      vertex 9.34002 0.965165 17.5617
    endloop
  endfacet
  facet normal -0.368135 0.464886 0.805207
    outer loop
      vertex 9.34002 0.532153 17.8117
      vertex 9.02739 0.903276 17.4545
      vertex 9.02739 0.470263 17.7045
    endloop
  endfacet
  facet normal -0.684507 0.364506 0.631336
    outer loop
      vertex 9.9067 1.14498 17.8732
      vertex 10.1518 0.827052 18.3225
      vertex 10.1518 1.26006 18.0725
    endloop
  endfacet
  facet normal -0.684513 0.364499 0.631334
    outer loop
      vertex 10.1518 0.827052 18.3225
      vertex 9.9067 1.14498 17.8732
      vertex 9.9067 0.711965 18.1232
    endloop
  endfacet
  facet normal -0.481777 0.438146 0.758893
    outer loop
      vertex 9.34002 0.965165 17.5617
      vertex 9.63468 0.613146 17.952
      vertex 9.63468 1.04616 17.702
    endloop
  endfacet
  facet normal -0.481775 0.438148 0.758894
    outer loop
      vertex 9.63468 0.613146 17.952
      vertex 9.34002 0.965165 17.5617
      vertex 9.34002 0.532153 17.8117
    endloop
  endfacet
  facet normal 0.844278 0.267954 0.464107
    outer loop
      vertex 5.85369 1.09854 18.7927
      vertex 6.03386 1.3896 18.2969
      vertex 5.85369 1.53155 18.5427
    endloop
  endfacet
  facet normal 0.844277 0.267956 0.464108
    outer loop
      vertex 6.03386 1.3896 18.2969
      vertex 5.85369 1.09854 18.7927
      vertex 6.03386 0.956592 18.5469
    endloop
  endfacet
  facet normal -0.125343 0.496057 0.859195
    outer loop
      vertex 8.36812 0.840394 17.3456
      vertex 8.70171 0.428453 17.6321
      vertex 8.70171 0.861465 17.3821
    endloop
  endfacet
  facet normal -0.125343 0.496057 0.859195
    outer loop
      vertex 8.70171 0.428453 17.6321
      vertex 8.36812 0.840394 17.3456
      vertex 8.36812 0.407382 17.5956
    endloop
  endfacet
  facet normal -0.844238 0.267986 0.464162
    outer loop
      vertex 10.3661 1.3896 18.2969
      vertex 10.5463 1.09854 18.7927
      vertex 10.5463 1.53155 18.5427
    endloop
  endfacet
  facet normal -0.844237 0.267987 0.464163
    outer loop
      vertex 10.5463 1.09854 18.7927
      vertex 10.3661 1.3896 18.2969
      vertex 10.3661 0.956592 18.5469
    endloop
  endfacet
  facet normal -0.248649 0.484297 0.838827
    outer loop
      vertex 8.70171 0.861465 17.3821
      vertex 9.02739 0.470263 17.7045
      vertex 9.02739 0.903276 17.4545
    endloop
  endfacet
  facet normal -0.248648 0.484298 0.838827
    outer loop
      vertex 9.02739 0.470263 17.7045
      vertex 8.70171 0.861465 17.3821
      vertex 8.70171 0.428453 17.6321
    endloop
  endfacet
  facet normal 0.904833 0.212881 0.368726
    outer loop
      vertex 5.71052 1.25066 19.0562
      vertex 5.85369 1.53155 18.5427
      vertex 5.71052 1.68368 18.8062
    endloop
  endfacet
  facet normal 0.90483 0.212887 0.368729
    outer loop
      vertex 5.85369 1.53155 18.5427
      vertex 5.71052 1.25066 19.0562
      vertex 5.85369 1.09854 18.7927
    endloop
  endfacet
  facet normal 0.125343 0.496057 0.859195
    outer loop
      vertex 7.69829 0.428453 17.6321
      vertex 8.03188 0.840394 17.3456
      vertex 7.69829 0.861465 17.3821
    endloop
  endfacet
  facet normal 0.125343 0.496057 0.859195
    outer loop
      vertex 8.03188 0.840394 17.3456
      vertex 7.69829 0.428453 17.6321
      vertex 8.03188 0.407382 17.5956
    endloop
  endfacet
  facet normal -0 0.500001 0.866025
    outer loop
      vertex 8.03188 0.840394 17.3456
      vertex 8.36812 0.407382 17.5956
      vertex 8.36812 0.840394 17.3456
    endloop
  endfacet
  facet normal 0 0.500001 0.866025
    outer loop
      vertex 8.36812 0.407382 17.5956
      vertex 8.03188 0.840394 17.3456
      vertex 8.03188 0.407382 17.5956
    endloop
  endfacet
  facet normal 0.368133 0.464887 0.805207
    outer loop
      vertex 7.05998 0.532153 17.8117
      vertex 7.37261 0.903276 17.4545
      vertex 7.05998 0.965165 17.5617
    endloop
  endfacet
  facet normal 0.368135 0.464886 0.805207
    outer loop
      vertex 7.37261 0.903276 17.4545
      vertex 7.05998 0.532153 17.8117
      vertex 7.37261 0.470263 17.7045
    endloop
  endfacet
  facet normal 0.587862 0.404479 0.700582
    outer loop
      vertex 6.4933 0.711965 18.1232
      vertex 6.76532 1.04616 17.702
      vertex 6.4933 1.14498 17.8732
    endloop
  endfacet
  facet normal 0.587861 0.40448 0.700582
    outer loop
      vertex 6.76532 1.04616 17.702
      vertex 6.4933 0.711965 18.1232
      vertex 6.76532 0.613146 17.952
    endloop
  endfacet
  facet normal 0.481777 0.438146 0.758893
    outer loop
      vertex 6.76532 0.613146 17.952
      vertex 7.05998 0.965165 17.5617
      vertex 6.76532 1.04616 17.702
    endloop
  endfacet
  facet normal 0.481775 0.438148 0.758894
    outer loop
      vertex 7.05998 0.965165 17.5617
      vertex 6.76532 0.613146 17.952
      vertex 7.05998 0.532153 17.8117
    endloop
  endfacet
  facet normal -0.770588 0.318669 0.551946
    outer loop
      vertex 10.1518 1.26006 18.0725
      vertex 10.3661 0.956592 18.5469
      vertex 10.3661 1.3896 18.2969
    endloop
  endfacet
  facet normal -0.770588 0.318669 0.551946
    outer loop
      vertex 10.3661 0.956592 18.5469
      vertex 10.1518 1.26006 18.0725
      vertex 10.1518 0.827052 18.3225
    endloop
  endfacet
  facet normal -0.926493 0.188157 0.325895
    outer loop
      vertex 10.6895 1.68368 18.8062
      vertex 11.02 1.6575 19.7609
      vertex 11.02 2.09051 19.5109
    endloop
  endfacet
  facet normal -0.926494 0.188152 0.325895
    outer loop
      vertex 11.02 1.6575 19.7609
      vertex 10.6895 1.68368 18.8062
      vertex 10.6895 1.25066 19.0562
    endloop
  endfacet
  facet normal 0.248649 0.484297 0.838827
    outer loop
      vertex 7.37261 0.470263 17.7045
      vertex 7.69829 0.861465 17.3821
      vertex 7.37261 0.903276 17.4545
    endloop
  endfacet
  facet normal 0.248648 0.484298 0.838827
    outer loop
      vertex 7.69829 0.861465 17.3821
      vertex 7.37261 0.470263 17.7045
      vertex 7.69829 0.428453 17.6321
    endloop
  endfacet
  facet normal 0.684492 0.364513 0.631348
    outer loop
      vertex 6.24819 0.827052 18.3225
      vertex 6.4933 1.14498 17.8732
      vertex 6.24819 1.26006 18.0725
    endloop
  endfacet
  facet normal 0.684498 0.364506 0.631346
    outer loop
      vertex 6.4933 1.14498 17.8732
      vertex 6.24819 0.827052 18.3225
      vertex 6.4933 0.711965 18.1232
    endloop
  endfacet
  facet normal -0.587862 0.404479 0.700582
    outer loop
      vertex 9.63468 1.04616 17.702
      vertex 9.9067 0.711965 18.1232
      vertex 9.9067 1.14498 17.8732
    endloop
  endfacet
  facet normal -0.587861 0.40448 0.700582
    outer loop
      vertex 9.9067 0.711965 18.1232
      vertex 9.63468 1.04616 17.702
      vertex 9.63468 0.613146 17.952
    endloop
  endfacet
  facet normal -0.904799 0.212917 0.36879
    outer loop
      vertex 10.5463 1.53155 18.5427
      vertex 10.6895 1.25066 19.0562
      vertex 10.6895 1.68368 18.8062
    endloop
  endfacet
  facet normal -0.904796 0.212924 0.368792
    outer loop
      vertex 10.6895 1.25066 19.0562
      vertex 10.5463 1.53155 18.5427
      vertex 10.5463 1.09854 18.7927
    endloop
  endfacet
  facet normal -0 0.499926 0.866068
    outer loop
      vertex 4.4515 17.1754 0.5
      vertex 7.95 17.09 0.549296
      vertex 7.95 17.1754 0.5
    endloop
  endfacet
  facet normal 0 0.499926 0.866068
    outer loop
      vertex 7.95 17.09 0.549296
      vertex 4.4515 17.1754 0.5
      vertex 4.4515 17.09 0.549296
    endloop
  endfacet
  facet normal -0 0.499926 0.866068
    outer loop
      vertex 8.45 17.1754 0.5
      vertex 11.9485 17.09 0.549296
      vertex 11.9485 17.1754 0.5
    endloop
  endfacet
  facet normal 0 0.499926 0.866068
    outer loop
      vertex 11.9485 17.09 0.549296
      vertex 8.45 17.1754 0.5
      vertex 8.45 17.09 0.549296
    endloop
  endfacet
  facet normal 0 -0.866027 0.499998
    outer loop
      vertex 4.4515 18.3301 0.5
      vertex 11.9485 21 5.12443
      vertex 4.4515 21 5.12443
    endloop
  endfacet
  facet normal 0 -0.866027 0.499998
    outer loop
      vertex 11.9485 21 5.12443
      vertex 4.4515 18.3301 0.5
      vertex 11.9485 18.3301 0.5
    endloop
  endfacet
  facet normal 0 0 1
    outer loop
      vertex 11.9485 18.3301 0.5
      vertex 8.45 17.215 0.5
      vertex 11.9485 17.1754 0.5
    endloop
  endfacet
  facet normal 0 0 1
    outer loop
      vertex 11.9485 18.3301 0.5
      vertex 7.95 17.215 0.5
      vertex 8.45 17.215 0.5
    endloop
  endfacet
  facet normal -0 0 1
    outer loop
      vertex 4.4515 18.3301 0.5
      vertex 7.95 17.215 0.5
      vertex 11.9485 18.3301 0.5
    endloop
  endfacet
  facet normal 0 0 1
    outer loop
      vertex 4.4515 17.1754 0.5
      vertex 7.95 17.215 0.5
      vertex 4.4515 18.3301 0.5
    endloop
  endfacet
  facet normal 0 0 1
    outer loop
      vertex 7.95 17.215 0.5
      vertex 4.4515 17.1754 0.5
      vertex 7.95 17.1754 0.5
    endloop
  endfacet
  facet normal 0 0 1
    outer loop
      vertex 16.4 21 0.5
      vertex 16.3851 16.8838 0.5
      vertex 16.4 16.8838 0.5
    endloop
  endfacet
  facet normal 0 0 1
    outer loop
      vertex 16.4 21 0.5
      vertex 15.3635 16.7548 0.5
      vertex 16.3851 16.8838 0.5
    endloop
  endfacet
  facet normal -0 0 1
    outer loop
      vertex 11.9485 18.3301 0.5
      vertex 15.3635 16.7548 0.5
      vertex 16.4 21 0.5
    endloop
  endfacet
  facet normal 0 0 1
    outer loop
      vertex 15.3635 16.7548 0.5
      vertex 11.9485 18.3301 0.5
      vertex 14.3661 16.4987 0.5
    endloop
  endfacet
  facet normal -0 0 1
    outer loop
      vertex 11.9485 17.1754 0.5
      vertex 14.3661 16.4987 0.5
      vertex 11.9485 18.3301 0.5
    endloop
  endfacet
  facet normal 0 0 1
    outer loop
      vertex 11.9485 18.3301 0.5
      vertex 16.4 21 0.5
      vertex 11.9485 21 0.5
    endloop
  endfacet
  facet normal 0 0 1
    outer loop
      vertex 14.3661 16.4987 0.5
      vertex 11.9485 17.1754 0.5
      vertex 13.4086 16.1196 0.5
    endloop
  endfacet
  facet normal -0 0 1
    outer loop
      vertex 11.9485 17.09 0.5
      vertex 13.4086 16.1196 0.5
      vertex 11.9485 17.1754 0.5
    endloop
  endfacet
  facet normal 0 0 1
    outer loop
      vertex 13.4086 16.1196 0.5
      vertex 11.9485 17.09 0.5
      vertex 12.5062 15.6235 0.5
    endloop
  endfacet
  facet normal 0 0 1
    outer loop
      vertex 11.9485 17.09 0.5
      vertex 11.6731 15.0182 0.5
      vertex 12.5062 15.6235 0.5
    endloop
  endfacet
  facet normal -0 0 1
    outer loop
      vertex 8.45 17.09 0.5
      vertex 11.6731 15.0182 0.5
      vertex 11.9485 17.09 0.5
    endloop
  endfacet
  facet normal 0 0 1
    outer loop
      vertex 11.6731 15.0182 0.5
      vertex 8.45 17.09 0.5
      vertex 10.9225 14.3133 0.5
    endloop
  endfacet
  facet normal 0 0 1
    outer loop
      vertex 10.9225 14.3133 0.5
      vertex 8.45 17.09 0.5
      vertex 10.2661 13.5198 0.5
    endloop
  endfacet
  facet normal 0 0 1
    outer loop
      vertex 8.76466 9.72773 0.5
      vertex 8.45 17.09 0.5
      vertex 8.7 8.7 0.5
    endloop
  endfacet
  facet normal 0 0 1
    outer loop
      vertex 8.95762 10.7393 0.5
      vertex 8.45 17.09 0.5
      vertex 8.76466 9.72773 0.5
    endloop
  endfacet
  facet normal 0 0 1
    outer loop
      vertex 9.27583 11.7186 0.5
      vertex 8.45 17.09 0.5
      vertex 8.95762 10.7393 0.5
    endloop
  endfacet
  facet normal 0 0 1
    outer loop
      vertex 9.71428 12.6504 0.5
      vertex 8.45 17.09 0.5
      vertex 9.27583 11.7186 0.5
    endloop
  endfacet
  facet normal 0 0 1
    outer loop
      vertex 10.2661 13.5198 0.5
      vertex 8.45 17.09 0.5
      vertex 9.71428 12.6504 0.5
    endloop
  endfacet
  facet normal 0 0 1
    outer loop
      vertex 11.6731 2.38179 0.5
      vertex 11.9485 0.5 0.5
      vertex 12.5062 1.77651 0.5
    endloop
  endfacet
  facet normal 0 0 1
    outer loop
      vertex 8.45 0.5 0.5
      vertex 11.6731 2.38179 0.5
      vertex 10.9225 3.08671 0.5
    endloop
  endfacet
  facet normal 0 0 1
    outer loop
      vertex 8.45 0.5 0.5
      vertex 10.9225 3.08671 0.5
      vertex 10.2661 3.88016 0.5
    endloop
  endfacet
  facet normal 0 0 1
    outer loop
      vertex 8.45 0.5 0.5
      vertex 10.2661 3.88016 0.5
      vertex 9.71428 4.74962 0.5
    endloop
  endfacet
  facet normal 0 0 1
    outer loop
      vertex 11.6731 2.38179 0.5
      vertex 8.45 0.5 0.5
      vertex 11.9485 0.5 0.5
    endloop
  endfacet
  facet normal 0 0 1
    outer loop
      vertex 9.27583 5.68138 0.5
      vertex 8.45 0.5 0.5
      vertex 9.71428 4.74962 0.5
    endloop
  endfacet
  facet normal 0 0 1
    outer loop
      vertex 8.95762 6.66074 0.5
      vertex 8.45 0.5 0.5
      vertex 9.27583 5.68138 0.5
    endloop
  endfacet
  facet normal 0 0 1
    outer loop
      vertex 8.76466 7.67227 0.5
      vertex 8.45 0.5 0.5
      vertex 8.95762 6.66074 0.5
    endloop
  endfacet
  facet normal 0 0 1
    outer loop
      vertex 8.7 8.7 0.5
      vertex 8.45 0.5 0.5
      vertex 8.76466 7.67227 0.5
    endloop
  endfacet
  facet normal 0 0 1
    outer loop
      vertex 8.45 0.5 0.5
      vertex 8.7 8.7 0.5
      vertex 8.45 17.09 0.5
    endloop
  endfacet
  facet normal -0 0 1
    outer loop
      vertex 16.3851 0.51618 0.5
      vertex 16.4 0 0.5
      vertex 16.4 0.51618 0.5
    endloop
  endfacet
  facet normal 0 0 1
    outer loop
      vertex 15.3635 0.645244 0.5
      vertex 16.4 0 0.5
      vertex 16.3851 0.51618 0.5
    endloop
  endfacet
  facet normal 0 0 1
    outer loop
      vertex 11.9485 0 0.5
      vertex 15.3635 0.645244 0.5
      vertex 14.3661 0.901336 0.5
    endloop
  endfacet
  facet normal 0 0 1
    outer loop
      vertex 11.9485 0 0.5
      vertex 14.3661 0.901336 0.5
      vertex 13.4086 1.28042 0.5
    endloop
  endfacet
  facet normal 0 0 1
    outer loop
      vertex 11.9485 0.5 0.5
      vertex 13.4086 1.28042 0.5
      vertex 12.5062 1.77651 0.5
    endloop
  endfacet
  facet normal 0 0 1
    outer loop
      vertex 11.9485 0 0.5
      vertex 13.4086 1.28042 0.5
      vertex 11.9485 0.5 0.5
    endloop
  endfacet
  facet normal 0 0 1
    outer loop
      vertex 15.3635 0.645244 0.5
      vertex 11.9485 0 0.5
      vertex 16.4 0 0.5
    endloop
  endfacet
  facet normal -0 0 1
    outer loop
      vertex 0 21 0.5
      vertex 4.4515 18.3301 0.5
      vertex 4.4515 21 0.5
    endloop
  endfacet
  facet normal 0 0 1
    outer loop
      vertex 4.4515 18.3301 0.5
      vertex 2.03394 16.4987 0.5
      vertex 4.4515 17.1754 0.5
    endloop
  endfacet
  facet normal 0 -0 1
    outer loop
      vertex 2.99139 16.1196 0.5
      vertex 4.4515 17.1754 0.5
      vertex 2.03394 16.4987 0.5
    endloop
  endfacet
  facet normal 0 0 1
    outer loop
      vertex 4.4515 17.09 0.5
      vertex 2.99139 16.1196 0.5
      vertex 3.89378 15.6235 0.5
    endloop
  endfacet
  facet normal 0 0 1
    outer loop
      vertex 4.4515 17.1754 0.5
      vertex 2.99139 16.1196 0.5
      vertex 4.4515 17.09 0.5
    endloop
  endfacet
  facet normal 0 0 1
    outer loop
      vertex 4.4515 18.3301 0.5
      vertex 1.03653 16.7548 0.5
      vertex 2.03394 16.4987 0.5
    endloop
  endfacet
  facet normal 0 0 1
    outer loop
      vertex 4.4515 18.3301 0.5
      vertex 0 21 0.5
      vertex 1.03653 16.7548 0.5
    endloop
  endfacet
  facet normal 0 0 1
    outer loop
      vertex 1.03653 16.7548 0.5
      vertex 0 21 0.5
      vertex 0.0148821 16.8838 0.5
    endloop
  endfacet
  facet normal 0 0 1
    outer loop
      vertex 0.0148821 16.8838 0.5
      vertex 0 21 0.5
      vertex 0 16.8838 0.5
    endloop
  endfacet
  facet normal 0 0 1
    outer loop
      vertex 11.9485 17.1754 0.5
      vertex 8.45 17.215 0.5
      vertex 8.45 17.1754 0.5
    endloop
  endfacet
  facet normal 0 0 1
    outer loop
      vertex 7.95 17.09 0.5
      vertex 7.7 8.7 0.5
      vertex 7.95 0.5 0.5
    endloop
  endfacet
  facet normal 0 0 1
    outer loop
      vertex 7.95 17.09 0.5
      vertex 7.63534 9.72773 0.5
      vertex 7.7 8.7 0.5
    endloop
  endfacet
  facet normal 0 0 1
    outer loop
      vertex 7.95 17.09 0.5
      vertex 7.44238 10.7393 0.5
      vertex 7.63534 9.72773 0.5
    endloop
  endfacet
  facet normal 0 0 1
    outer loop
      vertex 7.95 17.09 0.5
      vertex 7.12417 11.7186 0.5
      vertex 7.44238 10.7393 0.5
    endloop
  endfacet
  facet normal 0 0 1
    outer loop
      vertex 7.95 17.09 0.5
      vertex 6.68571 12.6504 0.5
      vertex 7.12417 11.7186 0.5
    endloop
  endfacet
  facet normal 0 0 1
    outer loop
      vertex 7.95 17.09 0.5
      vertex 6.13394 13.5198 0.5
      vertex 6.68571 12.6504 0.5
    endloop
  endfacet
  facet normal 0 0 1
    outer loop
      vertex 7.95 17.09 0.5
      vertex 5.47754 14.3133 0.5
      vertex 6.13394 13.5198 0.5
    endloop
  endfacet
  facet normal 0 0 1
    outer loop
      vertex 7.95 17.09 0.5
      vertex 4.72688 15.0182 0.5
      vertex 5.47754 14.3133 0.5
    endloop
  endfacet
  facet normal -0 0 1
    outer loop
      vertex 4.4515 17.09 0.5
      vertex 4.72688 15.0182 0.5
      vertex 7.95 17.09 0.5
    endloop
  endfacet
  facet normal 0 0 1
    outer loop
      vertex 4.72688 15.0182 0.5
      vertex 4.4515 17.09 0.5
      vertex 3.89378 15.6235 0.5
    endloop
  endfacet
  facet normal -0 0 1
    outer loop
      vertex 7.63534 7.67227 0.5
      vertex 7.95 0.5 0.5
      vertex 7.7 8.7 0.5
    endloop
  endfacet
  facet normal -0 0 1
    outer loop
      vertex 7.44238 6.66074 0.5
      vertex 7.95 0.5 0.5
      vertex 7.63534 7.67227 0.5
    endloop
  endfacet
  facet normal -0 0 1
    outer loop
      vertex 7.12417 5.68138 0.5
      vertex 7.95 0.5 0.5
      vertex 7.44238 6.66074 0.5
    endloop
  endfacet
  facet normal -0 0 1
    outer loop
      vertex 6.68571 4.74962 0.5
      vertex 7.95 0.5 0.5
      vertex 7.12417 5.68138 0.5
    endloop
  endfacet
  facet normal -0 0 1
    outer loop
      vertex 6.13394 3.88016 0.5
      vertex 7.95 0.5 0.5
      vertex 6.68571 4.74962 0.5
    endloop
  endfacet
  facet normal -0 0 1
    outer loop
      vertex 5.47754 3.08671 0.5
      vertex 7.95 0.5 0.5
      vertex 6.13394 3.88016 0.5
    endloop
  endfacet
  facet normal -0 0 1
    outer loop
      vertex 4.72688 2.38179 0.5
      vertex 7.95 0.5 0.5
      vertex 5.47754 3.08671 0.5
    endloop
  endfacet
  facet normal 0 0 1
    outer loop
      vertex 4.72688 2.38179 0.5
      vertex 4.4515 0.5 0.5
      vertex 7.95 0.5 0.5
    endloop
  endfacet
  facet normal -0 0 1
    outer loop
      vertex 3.89378 1.77651 0.5
      vertex 4.4515 0.5 0.5
      vertex 4.72688 2.38179 0.5
    endloop
  endfacet
  facet normal -0 0 1
    outer loop
      vertex 2.99139 1.28042 0.5
      vertex 4.4515 0.5 0.5
      vertex 3.89378 1.77651 0.5
    endloop
  endfacet
  facet normal 0 0 1
    outer loop
      vertex 4.4515 0.5 0.5
      vertex 2.99139 1.28042 0.5
      vertex 4.4515 0 0.5
    endloop
  endfacet
  facet normal -0 0 1
    outer loop
      vertex 2.03394 0.901336 0.5
      vertex 4.4515 0 0.5
      vertex 2.99139 1.28042 0.5
    endloop
  endfacet
  facet normal -0 0 1
    outer loop
      vertex 1.03653 0.645244 0.5
      vertex 4.4515 0 0.5
      vertex 2.03394 0.901336 0.5
    endloop
  endfacet
  facet normal 0 0 1
    outer loop
      vertex 0 0 0.5
      vertex 1.03653 0.645244 0.5
      vertex 0.0148821 0.51618 0.5
    endloop
  endfacet
  facet normal 0 0 1
    outer loop
      vertex 0 0 0.5
      vertex 0.0148821 0.51618 0.5
      vertex 0 0.51618 0.5
    endloop
  endfacet
  facet normal 0 0 1
    outer loop
      vertex 1.03653 0.645244 0.5
      vertex 0 0 0.5
      vertex 4.4515 0 0.5
    endloop
  endfacet
  facet normal 0 -1 0
    outer loop
      vertex 4.4515 17.09 0.5
      vertex 7.95 17.09 0.549296
      vertex 4.4515 17.09 0.549296
    endloop
  endfacet
  facet normal 0 -1 -0
    outer loop
      vertex 7.95 17.09 0.549296
      vertex 4.4515 17.09 0.5
      vertex 7.95 17.09 0.5
    endloop
  endfacet
  facet normal 0 -1 0
    outer loop
      vertex 8.45 17.09 0.5
      vertex 11.9485 17.09 0.549296
      vertex 8.45 17.09 0.549296
    endloop
  endfacet
  facet normal 0 -1 -0
    outer loop
      vertex 11.9485 17.09 0.549296
      vertex 8.45 17.09 0.5
      vertex 11.9485 17.09 0.5
    endloop
  endfacet
  facet normal 1 0 0
    outer loop
      vertex 8.45 17.215 0.5
      vertex 8.45 17.09 0.549296
      vertex 8.45 17.1754 0.5
    endloop
  endfacet
  facet normal 1 0 0
    outer loop
      vertex 8.45 0.503317 16.7618
      vertex 8.45 17.09 0.549296
      vertex 8.45 17.215 0.5
    endloop
  endfacet
  facet normal 1 -0 0
    outer loop
      vertex 8.45 0.5 16.756
      vertex 8.45 17.09 0.549296
      vertex 8.45 0.503317 16.7618
    endloop
  endfacet
  facet normal 1 0 0
    outer loop
      vertex 8.45 0.5 0.5
      vertex 8.45 17.09 0.549296
      vertex 8.45 0.5 16.756
    endloop
  endfacet
  facet normal 1 0 0
    outer loop
      vertex 8.45 17.09 0.549296
      vertex 8.45 0.5 0.5
      vertex 8.45 17.09 0.5
    endloop
  endfacet
  facet normal -0 0.697394 0.716688
    outer loop
      vertex 7.95 17.215 0.5
      vertex 8.45 0.503317 16.7618
      vertex 8.45 17.215 0.5
    endloop
  endfacet
  facet normal 0 0.697394 0.716688
    outer loop
      vertex 8.45 0.503317 16.7618
      vertex 7.95 17.215 0.5
      vertex 7.95 0.503317 16.7618
    endloop
  endfacet
  facet normal -1 0 0
    outer loop
      vertex 7.95 0.5 0.5
      vertex 7.95 17.09 0.549296
      vertex 7.95 17.09 0.5
    endloop
  endfacet
  facet normal -1 -0 0
    outer loop
      vertex 7.95 17.09 0.549296
      vertex 7.95 0.5 0.5
      vertex 7.95 0.5 16.756
    endloop
  endfacet
  facet normal -1 0 0
    outer loop
      vertex 7.95 17.09 0.549296
      vertex 7.95 0.5 16.756
      vertex 7.95 0.503317 16.7618
    endloop
  endfacet
  facet normal -1 0 0
    outer loop
      vertex 7.95 17.09 0.549296
      vertex 7.95 17.215 0.5
      vertex 7.95 17.1754 0.5
    endloop
  endfacet
  facet normal -1 0 0
    outer loop
      vertex 7.95 17.215 0.5
      vertex 7.95 17.09 0.549296
      vertex 7.95 0.503317 16.7618
    endloop
  endfacet
  facet normal 1 0 -0
    outer loop
      vertex 11.9485 21 0.5
      vertex 11.9485 21 5.12443
      vertex 11.9485 18.3301 0.5
    endloop
  endfacet
  facet normal 1 0 0
    outer loop
      vertex 11.9485 1.6575 19.7609
      vertex 11.9485 0.5 16.756
      vertex 11.9485 2.09051 19.5109
    endloop
  endfacet
  facet normal 1 -0 0
    outer loop
      vertex 11.9485 0 16.89
      vertex 11.9485 0.5 16.756
      vertex 11.9485 1.6575 19.7609
    endloop
  endfacet
  facet normal 1 0 0
    outer loop
      vertex 11.9485 0 0.5
      vertex 11.9485 0.5 16.756
      vertex 11.9485 0 16.89
    endloop
  endfacet
  facet normal 1 0 0
    outer loop
      vertex 11.9485 0.5 16.756
      vertex 11.9485 0 0.5
      vertex 11.9485 0.5 0.5
    endloop
  endfacet
  facet normal 1 0 0
    outer loop
      vertex 11.9485 17.1754 0.5
      vertex 11.9485 17.09 0.549296
      vertex 11.9485 17.09 0.5
    endloop
  endfacet
  facet normal -1 0 0
    outer loop
      vertex 4.4515 17.09 0.549296
      vertex 4.4515 17.1754 0.5
      vertex 4.4515 17.09 0.5
    endloop
  endfacet
  facet normal -1 0 0
    outer loop
      vertex 4.4515 0.5 0.5
      vertex 4.4515 0 0.5
      vertex 4.4515 0.5 16.756
    endloop
  endfacet
  facet normal -1 0 0
    outer loop
      vertex 4.4515 0.5 16.756
      vertex 4.4515 1.6575 19.7609
      vertex 4.4515 2.09051 19.5109
    endloop
  endfacet
  facet normal -1 0 0
    outer loop
      vertex 4.4515 0.5 16.756
      vertex 4.4515 0 16.89
      vertex 4.4515 1.6575 19.7609
    endloop
  endfacet
  facet normal -1 0 0
    outer loop
      vertex 4.4515 0 16.89
      vertex 4.4515 0.5 16.756
      vertex 4.4515 0 0.5
    endloop
  endfacet
  facet normal -1 0 -0
    outer loop
      vertex 4.4515 21 5.12443
      vertex 4.4515 21 0.5
      vertex 4.4515 18.3301 0.5
    endloop
  endfacet
  facet normal 1 -0 0
    outer loop
      vertex 16.4 0 0.5
      vertex 16.4 0.51618 0
      vertex 16.4 0.51618 0.5
    endloop
  endfacet
  facet normal 1 0 0
    outer loop
      vertex 16.4 0.51618 0
      vertex 16.4 0 0.5
      vertex 16.4 0 0
    endloop
  endfacet
  facet normal 1 -0 0
    outer loop
      vertex 16.4 16.8838 0.5
      vertex 16.4 21 0
      vertex 16.4 21 0.5
    endloop
  endfacet
  facet normal 1 0 0
    outer loop
      vertex 16.4 21 0
      vertex 16.4 16.8838 0.5
      vertex 16.4 16.8838 0
    endloop
  endfacet
  facet normal -1 0 0
    outer loop
      vertex 0 0 0
      vertex 0 0.51618 0.5
      vertex 0 0.51618 0
    endloop
  endfacet
  facet normal -1 -0 0
    outer loop
      vertex 0 0.51618 0.5
      vertex 0 0 0
      vertex 0 0 0.5
    endloop
  endfacet
  facet normal -1 0 0
    outer loop
      vertex 0 16.8838 0
      vertex 0 21 0.5
      vertex 0 21 0
    endloop
  endfacet
  facet normal -1 -0 0
    outer loop
      vertex 0 21 0.5
      vertex 0 16.8838 0
      vertex 0 16.8838 0.5
    endloop
  endfacet
  facet normal -0.125272 -0.992122 0
    outer loop
      vertex 0.0148821 16.8838 0
      vertex 1.03653 16.7548 0.5
      vertex 0.0148821 16.8838 0.5
    endloop
  endfacet
  facet normal -0.125272 -0.992122 -0
    outer loop
      vertex 1.03653 16.7548 0.5
      vertex 0.0148821 16.8838 0
      vertex 1.03653 16.7548 0
    endloop
  endfacet
  facet normal -0.844314 -0.535849 0
    outer loop
      vertex 6.68571 12.6504 0
      vertex 6.13394 13.5198 0.5
      vertex 6.13394 13.5198 0
    endloop
  endfacet
  facet normal -0.844314 -0.535849 0
    outer loop
      vertex 6.13394 13.5198 0.5
      vertex 6.68571 12.6504 0
      vertex 6.68571 12.6504 0.5
    endloop
  endfacet
  facet normal -0.125333 0.992115 0
    outer loop
      vertex 1.03653 0.645244 0
      vertex 0.0148821 0.51618 0.5
      vertex 1.03653 0.645244 0.5
    endloop
  endfacet
  facet normal -0.125333 0.992115 0
    outer loop
      vertex 0.0148821 0.51618 0.5
      vertex 1.03653 0.645244 0
      vertex 0.0148821 0.51618 0
    endloop
  endfacet
  facet normal -0.998027 -0.0627912 0
    outer loop
      vertex 7.7 8.7 0
      vertex 7.63534 9.72773 0.5
      vertex 7.63534 9.72773 0
    endloop
  endfacet
  facet normal -0.998027 -0.0627912 0
    outer loop
      vertex 7.63534 9.72773 0.5
      vertex 7.7 8.7 0
      vertex 7.7 8.7 0.5
    endloop
  endfacet
  facet normal -0.684549 0.728967 0
    outer loop
      vertex 5.47754 3.08671 0
      vertex 4.72688 2.38179 0.5
      vertex 5.47754 3.08671 0.5
    endloop
  endfacet
  facet normal -0.684549 0.728967 0
    outer loop
      vertex 4.72688 2.38179 0.5
      vertex 5.47754 3.08671 0
      vertex 4.72688 2.38179 0
    endloop
  endfacet
  facet normal -0.481751 0.876308 0
    outer loop
      vertex 3.89378 1.77651 0
      vertex 2.99139 1.28042 0.5
      vertex 3.89378 1.77651 0.5
    endloop
  endfacet
  facet normal -0.481751 0.876308 0
    outer loop
      vertex 2.99139 1.28042 0.5
      vertex 3.89378 1.77651 0
      vertex 2.99139 1.28042 0
    endloop
  endfacet
  facet normal -0.982287 0.187382 0
    outer loop
      vertex 7.44238 6.66074 0
      vertex 7.63534 7.67227 0.5
      vertex 7.63534 7.67227 0
    endloop
  endfacet
  facet normal -0.982287 0.187382 0
    outer loop
      vertex 7.63534 7.67227 0.5
      vertex 7.44238 6.66074 0
      vertex 7.44238 6.66074 0.5
    endloop
  endfacet
  facet normal -0.684539 -0.728977 0
    outer loop
      vertex 4.72688 15.0182 0
      vertex 5.47754 14.3133 0.5
      vertex 4.72688 15.0182 0.5
    endloop
  endfacet
  facet normal -0.684539 -0.728977 -0
    outer loop
      vertex 5.47754 14.3133 0.5
      vertex 4.72688 15.0182 0
      vertex 5.47754 14.3133 0
    endloop
  endfacet
  facet normal -0.982289 -0.187374 0
    outer loop
      vertex 7.63534 9.72773 0
      vertex 7.44238 10.7393 0.5
      vertex 7.44238 10.7393 0
    endloop
  endfacet
  facet normal -0.982289 -0.187374 0
    outer loop
      vertex 7.44238 10.7393 0.5
      vertex 7.63534 9.72773 0
      vertex 7.63534 9.72773 0.5
    endloop
  endfacet
  facet normal -0.951052 -0.309031 0
    outer loop
      vertex 7.44238 10.7393 0
      vertex 7.12417 11.7186 0.5
      vertex 7.12417 11.7186 0
    endloop
  endfacet
  facet normal -0.951052 -0.309031 0
    outer loop
      vertex 7.12417 11.7186 0.5
      vertex 7.44238 10.7393 0
      vertex 7.44238 10.7393 0.5
    endloop
  endfacet
  facet normal -0.36814 -0.92977 0
    outer loop
      vertex 2.03394 16.4987 0
      vertex 2.99139 16.1196 0.5
      vertex 2.03394 16.4987 0.5
    endloop
  endfacet
  facet normal -0.36814 -0.92977 -0
    outer loop
      vertex 2.99139 16.1196 0.5
      vertex 2.03394 16.4987 0
      vertex 2.99139 16.1196 0
    endloop
  endfacet
  facet normal -0.844331 0.535823 0
    outer loop
      vertex 6.13394 3.88016 0
      vertex 6.68571 4.74962 0.5
      vertex 6.68571 4.74962 0
    endloop
  endfacet
  facet normal -0.844331 0.535823 0
    outer loop
      vertex 6.68571 4.74962 0.5
      vertex 6.13394 3.88016 0
      vertex 6.13394 3.88016 0.5
    endloop
  endfacet
  facet normal -0.368127 0.929776 0
    outer loop
      vertex 2.99139 1.28042 0
      vertex 2.03394 0.901336 0.5
      vertex 2.99139 1.28042 0.5
    endloop
  endfacet
  facet normal -0.368127 0.929776 0
    outer loop
      vertex 2.03394 0.901336 0.5
      vertex 2.99139 1.28042 0
      vertex 2.03394 0.901336 0
    endloop
  endfacet
  facet normal -0.904824 0.425785 0
    outer loop
      vertex 6.68571 4.74962 0
      vertex 7.12417 5.68138 0.5
      vertex 7.12417 5.68138 0
    endloop
  endfacet
  facet normal -0.904824 0.425785 0
    outer loop
      vertex 7.12417 5.68138 0.5
      vertex 6.68571 4.74962 0
      vertex 6.68571 4.74962 0.5
    endloop
  endfacet
  facet normal -0.24869 0.968583 0
    outer loop
      vertex 2.03394 0.901336 0
      vertex 1.03653 0.645244 0.5
      vertex 2.03394 0.901336 0.5
    endloop
  endfacet
  facet normal -0.24869 0.968583 0
    outer loop
      vertex 1.03653 0.645244 0.5
      vertex 2.03394 0.901336 0
      vertex 1.03653 0.645244 0
    endloop
  endfacet
  facet normal -0.481759 -0.876304 0
    outer loop
      vertex 2.99139 16.1196 0
      vertex 3.89378 15.6235 0.5
      vertex 2.99139 16.1196 0.5
    endloop
  endfacet
  facet normal -0.481759 -0.876304 -0
    outer loop
      vertex 3.89378 15.6235 0.5
      vertex 2.99139 16.1196 0
      vertex 3.89378 15.6235 0
    endloop
  endfacet
  facet normal -0.770513 0.637425 0
    outer loop
      vertex 5.47754 3.08671 0
      vertex 6.13394 3.88016 0.5
      vertex 6.13394 3.88016 0
    endloop
  endfacet
  facet normal -0.770513 0.637425 0
    outer loop
      vertex 6.13394 3.88016 0.5
      vertex 5.47754 3.08671 0
      vertex 5.47754 3.08671 0.5
    endloop
  endfacet
  facet normal -0.951057 0.309014 0
    outer loop
      vertex 7.12417 5.68138 0
      vertex 7.44238 6.66074 0.5
      vertex 7.44238 6.66074 0
    endloop
  endfacet
  facet normal -0.951057 0.309014 0
    outer loop
      vertex 7.44238 6.66074 0.5
      vertex 7.12417 5.68138 0
      vertex 7.12417 5.68138 0.5
    endloop
  endfacet
  facet normal -0.998027 0.0627912 0
    outer loop
      vertex 7.63534 7.67227 0
      vertex 7.7 8.7 0.5
      vertex 7.7 8.7 0
    endloop
  endfacet
  facet normal -0.998027 0.0627912 0
    outer loop
      vertex 7.7 8.7 0.5
      vertex 7.63534 7.67227 0
      vertex 7.63534 7.67227 0.5
    endloop
  endfacet
  facet normal -0.770532 -0.637401 0
    outer loop
      vertex 6.13394 13.5198 0
      vertex 5.47754 14.3133 0.5
      vertex 5.47754 14.3133 0
    endloop
  endfacet
  facet normal -0.770532 -0.637401 0
    outer loop
      vertex 5.47754 14.3133 0.5
      vertex 6.13394 13.5198 0
      vertex 6.13394 13.5198 0.5
    endloop
  endfacet
  facet normal -0.587796 -0.809009 0
    outer loop
      vertex 3.89378 15.6235 0
      vertex 4.72688 15.0182 0.5
      vertex 3.89378 15.6235 0.5
    endloop
  endfacet
  facet normal -0.587796 -0.809009 -0
    outer loop
      vertex 4.72688 15.0182 0.5
      vertex 3.89378 15.6235 0
      vertex 4.72688 15.0182 0
    endloop
  endfacet
  facet normal -0.904831 -0.42577 0
    outer loop
      vertex 7.12417 11.7186 0
      vertex 6.68571 12.6504 0.5
      vertex 6.68571 12.6504 0
    endloop
  endfacet
  facet normal -0.904831 -0.42577 0
    outer loop
      vertex 6.68571 12.6504 0.5
      vertex 7.12417 11.7186 0
      vertex 7.12417 11.7186 0.5
    endloop
  endfacet
  facet normal -0.248698 -0.968581 0
    outer loop
      vertex 1.03653 16.7548 0
      vertex 2.03394 16.4987 0.5
      vertex 1.03653 16.7548 0.5
    endloop
  endfacet
  facet normal -0.248698 -0.968581 -0
    outer loop
      vertex 2.03394 16.4987 0.5
      vertex 1.03653 16.7548 0
      vertex 2.03394 16.4987 0
    endloop
  endfacet
  facet normal -0.587784 0.809018 0
    outer loop
      vertex 4.72688 2.38179 0
      vertex 3.89378 1.77651 0.5
      vertex 4.72688 2.38179 0.5
    endloop
  endfacet
  facet normal -0.587784 0.809018 0
    outer loop
      vertex 3.89378 1.77651 0.5
      vertex 4.72688 2.38179 0
      vertex 3.89378 1.77651 0
    endloop
  endfacet
  facet normal 0 1 -0
    outer loop
      vertex 0.0148821 0.51618 0
      vertex 0 0.51618 0.5
      vertex 0.0148821 0.51618 0.5
    endloop
  endfacet
  facet normal 0 1 0
    outer loop
      vertex 0 0.51618 0.5
      vertex 0.0148821 0.51618 0
      vertex 0 0.51618 0
    endloop
  endfacet
  facet normal 0 -1 0
    outer loop
      vertex 0 16.8838 0
      vertex 0.0148821 16.8838 0.5
      vertex 0 16.8838 0.5
    endloop
  endfacet
  facet normal 0 -1 -0
    outer loop
      vertex 0.0148821 16.8838 0.5
      vertex 0 16.8838 0
      vertex 0.0148821 16.8838 0
    endloop
  endfacet
  facet normal 0.125278 -0.992122 0
    outer loop
      vertex 15.3635 16.7548 0
      vertex 16.3851 16.8838 0.5
      vertex 15.3635 16.7548 0.5
    endloop
  endfacet
  facet normal 0.125278 -0.992122 0
    outer loop
      vertex 16.3851 16.8838 0.5
      vertex 15.3635 16.7548 0
      vertex 16.3851 16.8838 0
    endloop
  endfacet
  facet normal 0.587796 -0.809009 0
    outer loop
      vertex 11.6731 15.0182 0
      vertex 12.5062 15.6235 0.5
      vertex 11.6731 15.0182 0.5
    endloop
  endfacet
  facet normal 0.587796 -0.809009 0
    outer loop
      vertex 12.5062 15.6235 0.5
      vertex 11.6731 15.0182 0
      vertex 12.5062 15.6235 0
    endloop
  endfacet
  facet normal 0.982287 0.187382 0
    outer loop
      vertex 8.95762 6.66074 0.5
      vertex 8.76466 7.67227 0
      vertex 8.76466 7.67227 0.5
    endloop
  endfacet
  facet normal 0.982287 0.187382 0
    outer loop
      vertex 8.76466 7.67227 0
      vertex 8.95762 6.66074 0.5
      vertex 8.95762 6.66074 0
    endloop
  endfacet
  facet normal 0.2487 -0.968581 0
    outer loop
      vertex 14.3661 16.4987 0
      vertex 15.3635 16.7548 0.5
      vertex 14.3661 16.4987 0.5
    endloop
  endfacet
  facet normal 0.2487 -0.968581 0
    outer loop
      vertex 15.3635 16.7548 0.5
      vertex 14.3661 16.4987 0
      vertex 15.3635 16.7548 0
    endloop
  endfacet
  facet normal 0.844309 0.535857 0
    outer loop
      vertex 10.2661 3.88016 0.5
      vertex 9.71428 4.74962 0
      vertex 9.71428 4.74962 0.5
    endloop
  endfacet
  facet normal 0.844309 0.535857 0
    outer loop
      vertex 9.71428 4.74962 0
      vertex 10.2661 3.88016 0.5
      vertex 10.2661 3.88016 0
    endloop
  endfacet
  facet normal 0.770513 0.637425 0
    outer loop
      vertex 10.9225 3.08671 0.5
      vertex 10.2661 3.88016 0
      vertex 10.2661 3.88016 0.5
    endloop
  endfacet
  facet normal 0.770513 0.637425 0
    outer loop
      vertex 10.2661 3.88016 0
      vertex 10.9225 3.08671 0.5
      vertex 10.9225 3.08671 0
    endloop
  endfacet
  facet normal 0.951057 0.309014 0
    outer loop
      vertex 9.27583 5.68138 0.5
      vertex 8.95762 6.66074 0
      vertex 8.95762 6.66074 0.5
    endloop
  endfacet
  facet normal 0.951057 0.309014 0
    outer loop
      vertex 8.95762 6.66074 0
      vertex 9.27583 5.68138 0.5
      vertex 9.27583 5.68138 0
    endloop
  endfacet
  facet normal 0.481755 -0.876306 0
    outer loop
      vertex 12.5062 15.6235 0
      vertex 13.4086 16.1196 0.5
      vertex 12.5062 15.6235 0.5
    endloop
  endfacet
  facet normal 0.481755 -0.876306 0
    outer loop
      vertex 13.4086 16.1196 0.5
      vertex 12.5062 15.6235 0
      vertex 13.4086 16.1196 0
    endloop
  endfacet
  facet normal 0.248693 0.968582 -0
    outer loop
      vertex 15.3635 0.645244 0
      vertex 14.3661 0.901336 0.5
      vertex 15.3635 0.645244 0.5
    endloop
  endfacet
  facet normal 0.248693 0.968582 0
    outer loop
      vertex 14.3661 0.901336 0.5
      vertex 15.3635 0.645244 0
      vertex 14.3661 0.901336 0
    endloop
  endfacet
  facet normal 0.587784 0.809018 -0
    outer loop
      vertex 12.5062 1.77651 0
      vertex 11.6731 2.38179 0.5
      vertex 12.5062 1.77651 0.5
    endloop
  endfacet
  facet normal 0.587784 0.809018 0
    outer loop
      vertex 11.6731 2.38179 0.5
      vertex 12.5062 1.77651 0
      vertex 11.6731 2.38179 0
    endloop
  endfacet
  facet normal 0.904835 -0.425762 0
    outer loop
      vertex 9.27583 11.7186 0.5
      vertex 9.71428 12.6504 0
      vertex 9.71428 12.6504 0.5
    endloop
  endfacet
  facet normal 0.904835 -0.425762 0
    outer loop
      vertex 9.71428 12.6504 0
      vertex 9.27583 11.7186 0.5
      vertex 9.27583 11.7186 0
    endloop
  endfacet
  facet normal 0.368124 -0.929777 0
    outer loop
      vertex 13.4086 16.1196 0
      vertex 14.3661 16.4987 0.5
      vertex 13.4086 16.1196 0.5
    endloop
  endfacet
  facet normal 0.368124 -0.929777 0
    outer loop
      vertex 14.3661 16.4987 0.5
      vertex 13.4086 16.1196 0
      vertex 14.3661 16.4987 0
    endloop
  endfacet
  facet normal 0.684578 0.72894 -0
    outer loop
      vertex 11.6731 2.38179 0
      vertex 10.9225 3.08671 0.5
      vertex 11.6731 2.38179 0.5
    endloop
  endfacet
  facet normal 0.684578 0.72894 0
    outer loop
      vertex 10.9225 3.08671 0.5
      vertex 11.6731 2.38179 0
      vertex 10.9225 3.08671 0
    endloop
  endfacet
  facet normal 0.904828 0.425777 0
    outer loop
      vertex 9.71428 4.74962 0.5
      vertex 9.27583 5.68138 0
      vertex 9.27583 5.68138 0.5
    endloop
  endfacet
  facet normal 0.904828 0.425777 0
    outer loop
      vertex 9.27583 5.68138 0
      vertex 9.71428 4.74962 0.5
      vertex 9.71428 4.74962 0
    endloop
  endfacet
  facet normal 0.998027 -0.0627912 0
    outer loop
      vertex 8.7 8.7 0.5
      vertex 8.76466 9.72773 0
      vertex 8.76466 9.72773 0.5
    endloop
  endfacet
  facet normal 0.998027 -0.0627912 0
    outer loop
      vertex 8.76466 9.72773 0
      vertex 8.7 8.7 0.5
      vertex 8.7 8.7 0
    endloop
  endfacet
  facet normal 0.982289 -0.187374 0
    outer loop
      vertex 8.76466 9.72773 0.5
      vertex 8.95762 10.7393 0
      vertex 8.95762 10.7393 0.5
    endloop
  endfacet
  facet normal 0.982289 -0.187374 0
    outer loop
      vertex 8.95762 10.7393 0
      vertex 8.76466 9.72773 0.5
      vertex 8.76466 9.72773 0
    endloop
  endfacet
  facet normal 0.844292 -0.535884 0
    outer loop
      vertex 9.71428 12.6504 0.5
      vertex 10.2661 13.5198 0
      vertex 10.2661 13.5198 0.5
    endloop
  endfacet
  facet normal 0.844292 -0.535884 0
    outer loop
      vertex 10.2661 13.5198 0
      vertex 9.71428 12.6504 0.5
      vertex 9.71428 12.6504 0
    endloop
  endfacet
  facet normal 0.684568 -0.728949 0
    outer loop
      vertex 10.9225 14.3133 0
      vertex 11.6731 15.0182 0.5
      vertex 10.9225 14.3133 0.5
    endloop
  endfacet
  facet normal 0.684568 -0.728949 0
    outer loop
      vertex 11.6731 15.0182 0.5
      vertex 10.9225 14.3133 0
      vertex 11.6731 15.0182 0
    endloop
  endfacet
  facet normal 0.951052 -0.309031 0
    outer loop
      vertex 8.95762 10.7393 0.5
      vertex 9.27583 11.7186 0
      vertex 9.27583 11.7186 0.5
    endloop
  endfacet
  facet normal 0.951052 -0.309031 0
    outer loop
      vertex 9.27583 11.7186 0
      vertex 8.95762 10.7393 0.5
      vertex 8.95762 10.7393 0
    endloop
  endfacet
  facet normal 0.770532 -0.637401 0
    outer loop
      vertex 10.2661 13.5198 0.5
      vertex 10.9225 14.3133 0
      vertex 10.9225 14.3133 0.5
    endloop
  endfacet
  facet normal 0.770532 -0.637401 0
    outer loop
      vertex 10.9225 14.3133 0
      vertex 10.2661 13.5198 0.5
      vertex 10.2661 13.5198 0
    endloop
  endfacet
  facet normal 0 -1 0
    outer loop
      vertex 16.3851 16.8838 0
      vertex 16.4 16.8838 0.5
      vertex 16.3851 16.8838 0.5
    endloop
  endfacet
  facet normal 0 -1 -0
    outer loop
      vertex 16.4 16.8838 0.5
      vertex 16.3851 16.8838 0
      vertex 16.4 16.8838 0
    endloop
  endfacet
  facet normal 0.998027 0.0627912 0
    outer loop
      vertex 8.76466 7.67227 0.5
      vertex 8.7 8.7 0
      vertex 8.7 8.7 0.5
    endloop
  endfacet
  facet normal 0.998027 0.0627912 0
    outer loop
      vertex 8.7 8.7 0
      vertex 8.76466 7.67227 0.5
      vertex 8.76466 7.67227 0
    endloop
  endfacet
  facet normal 0 1 -0
    outer loop
      vertex 16.4 0.51618 0
      vertex 16.3851 0.51618 0.5
      vertex 16.4 0.51618 0.5
    endloop
  endfacet
  facet normal 0 1 0
    outer loop
      vertex 16.3851 0.51618 0.5
      vertex 16.4 0.51618 0
      vertex 16.3851 0.51618 0
    endloop
  endfacet
  facet normal 0.125339 0.992114 -0
    outer loop
      vertex 16.3851 0.51618 0
      vertex 15.3635 0.645244 0.5
      vertex 16.3851 0.51618 0.5
    endloop
  endfacet
  facet normal 0.125339 0.992114 0
    outer loop
      vertex 15.3635 0.645244 0.5
      vertex 16.3851 0.51618 0
      vertex 15.3635 0.645244 0
    endloop
  endfacet
  facet normal 0.481747 0.87631 -0
    outer loop
      vertex 13.4086 1.28042 0
      vertex 12.5062 1.77651 0.5
      vertex 13.4086 1.28042 0.5
    endloop
  endfacet
  facet normal 0.481747 0.87631 0
    outer loop
      vertex 12.5062 1.77651 0.5
      vertex 13.4086 1.28042 0
      vertex 12.5062 1.77651 0
    endloop
  endfacet
  facet normal 0.36811 0.929782 -0
    outer loop
      vertex 14.3661 0.901336 0
      vertex 13.4086 1.28042 0.5
      vertex 14.3661 0.901336 0.5
    endloop
  endfacet
  facet normal 0.36811 0.929782 0
    outer loop
      vertex 13.4086 1.28042 0.5
      vertex 14.3661 0.901336 0
      vertex 13.4086 1.28042 0
    endloop
  endfacet
  facet normal 0 1 -0
    outer loop
      vertex 16.4 21 0
      vertex 11.9485 21 0.5
      vertex 16.4 21 0.5
    endloop
  endfacet
  facet normal 0 1 0
    outer loop
      vertex 11.9485 21 0.5
      vertex 16.4 21 0
      vertex 4.4515 21 0.5
    endloop
  endfacet
  facet normal 0 1 0
    outer loop
      vertex 0 21 0
      vertex 4.4515 21 0.5
      vertex 16.4 21 0
    endloop
  endfacet
  facet normal 0 1 0
    outer loop
      vertex 4.4515 21 0.5
      vertex 0 21 0
      vertex 0 21 0.5
    endloop
  endfacet
  facet normal 0 1 -0
    outer loop
      vertex 11.9485 21 0.5
      vertex 4.4515 21 5.12443
      vertex 11.9485 21 5.12443
    endloop
  endfacet
  facet normal 0 1 0
    outer loop
      vertex 4.4515 21 5.12443
      vertex 11.9485 21 0.5
      vertex 4.4515 21 0.5
    endloop
  endfacet
endsolid OpenSCAD_Model
