solid csg_export
	facet normal 0 -1 0
		outer loop
			vertex 0.77999997138977 0.25999999046326 0
			vertex 15.158599853516 0.25999999046326 0.15600000321865
			vertex 0.77999997138977 0.25999999046326 0.15600000321865
		endloop
	endfacet
	facet normal 0 0 -1
		outer loop
			vertex 0.77999997138977 0.25999999046326 0
			vertex 0.77999997138977 2.2620000839233 0
			vertex 15.158599853516 0.25999999046326 0
		endloop
	endfacet
	facet normal 0 -1 0
		outer loop
			vertex 0.77999997138977 0.25999999046326 0.77999997138977
			vertex 0.77999997138977 0.25999999046326 0.6240000128746
			vertex 15.158599853516 0.25999999046326 0.77999997138977
		endloop
	endfacet
	facet normal 0 0 1
		outer loop
			vertex 0.77999997138977 0.25999999046326 0.77999997138977
			vertex 15.158599853516 0.25999999046326 0.77999997138977
			vertex 0.77999997138977 2.2620000839233 0.77999997138977
		endloop
	endfacet
	facet normal -1 0 0
		outer loop
			vertex 0.25999999046326 2.2620000839233 0
			vertex 0.25999999046326 2.2620000839233 0.15600000321865
			vertex 0.25999999046326 14.804697036743 0
		endloop
	endfacet
	facet normal 0 0 -1
		outer loop
			vertex 0.25999999046326 2.2620000839233 0
			vertex 0.25999999046326 14.804697036743 0
			vertex 0.77999997138977 2.2620000839233 0
		endloop
	endfacet
	facet normal 0 0 -1
		outer loop
			vertex 0.77999997138977 2.2620000839233 0
			vertex 0.25999999046326 14.804697036743 0
			vertex 15.158599853516 0.25999999046326 0
		endloop
	endfacet
	facet normal -1 0 0
		outer loop
			vertex 0.25999999046326 2.2620000839233 0.77999997138977
			vertex 0.25999999046326 14.804697036743 0.6240000128746
			vertex 0.25999999046326 2.2620000839233 0.6240000128746
		endloop
	endfacet
	facet normal 0 0 1
		outer loop
			vertex 0.25999999046326 2.2620000839233 0.77999997138977
			vertex 0.77999997138977 2.2620000839233 0.77999997138977
			vertex 0.25999999046326 14.804697036743 0.77999997138977
		endloop
	endfacet
	facet normal -0 -0 1
		outer loop
			vertex 0.77999997138977 2.2620000839233 0.77999997138977
			vertex 15.158599853516 0.25999999046326 0.77999997138977
			vertex 0.25999999046326 14.804697036743 0.77999997138977
		endloop
	endfacet
	facet normal 0 -1 0
		outer loop
			vertex 0.77999997138977 0.25999999046326 0
			vertex 15.158599853516 0.25999999046326 0
			vertex 15.158599853516 0.25999999046326 0.15600000321865
		endloop
	endfacet
	facet normal 0 -1 -0
		outer loop
			vertex 15.158599853516 0.25999999046326 0.77999997138977
			vertex 0.77999997138977 0.25999999046326 0.6240000128746
			vertex 15.158599853516 0.25999999046326 0.6240000128746
		endloop
	endfacet
	facet normal 0.69855703197894 0.71555438163201 -0
		outer loop
			vertex 15.158599853516 0.25999999046326 0
			vertex 0.25999999046326 14.804697036743 0
			vertex 15.158599853516 0.25999999046326 0.15600000321865
		endloop
	endfacet
	facet normal 0.69855703197894 0.71555438163201 0
		outer loop
			vertex 0.25999999046326 14.804697036743 0
			vertex 15.158599853516 0.25999999046326 0.6240000128746
			vertex 15.158599853516 0.25999999046326 0.15600000321865
		endloop
	endfacet
	facet normal 0.69855703197894 0.71555438163201 0
		outer loop
			vertex 15.158599853516 0.25999999046326 0.77999997138977
			vertex 15.158599853516 0.25999999046326 0.6240000128746
			vertex 0.25999999046326 14.804697036743 0
		endloop
	endfacet
	facet normal -1 0 0
		outer loop
			vertex 0.25999999046326 14.804697036743 0
			vertex 0.25999999046326 2.2620000839233 0.15600000321865
			vertex 0.25999999046326 14.804697036743 0.15600000321865
		endloop
	endfacet
	facet normal 0.69855703197894 0.71555438163201 0
		outer loop
			vertex 15.158599853516 0.25999999046326 0.77999997138977
			vertex 0.25999999046326 14.804697036743 0
			vertex 0.25999999046326 14.804697036743 0.15600000321865
		endloop
	endfacet
	facet normal 0.69855703197894 0.71555438163201 0
		outer loop
			vertex 15.158599853516 0.25999999046326 0.77999997138977
			vertex 0.25999999046326 14.804697036743 0.15600000321865
			vertex 0.25999999046326 14.804697036743 0.6240000128746
		endloop
	endfacet
	facet normal -1 0 0
		outer loop
			vertex 0.25999999046326 2.2620000839233 0.77999997138977
			vertex 0.25999999046326 14.804697036743 0.77999997138977
			vertex 0.25999999046326 14.804697036743 0.6240000128746
		endloop
	endfacet
	facet normal 0.69855703197894 0.71555438163201 0
		outer loop
			vertex 15.158599853516 0.25999999046326 0.77999997138977
			vertex 0.25999999046326 14.804697036743 0.6240000128746
			vertex 0.25999999046326 14.804697036743 0.77999997138977
		endloop
	endfacet
	facet normal -1 0 0
		outer loop
			vertex 0.77999997138977 0.25999999046326 0
			vertex 0.77999997138977 0.25999999046326 0.15600000321865
			vertex 0.77999997138977 2.2620000839233 0
		endloop
	endfacet
	facet normal -1 0 0
		outer loop
			vertex 0.77999997138977 2.2620000839233 0
			vertex 0.77999997138977 0.25999999046326 0.15600000321865
			vertex 0.77999997138977 0.25999999046326 0.6240000128746
		endloop
	endfacet
	facet normal 0 -1 -0
		outer loop
			vertex 0.77999997138977 2.2620000839233 0.77999997138977
			vertex 0.25999999046326 2.2620000839233 0
			vertex 0.77999997138977 2.2620000839233 0
		endloop
	endfacet
	facet normal 0 -1 0
		outer loop
			vertex 0.25999999046326 2.2620000839233 0.15600000321865
			vertex 0.25999999046326 2.2620000839233 0
			vertex 0.77999997138977 2.2620000839233 0.77999997138977
		endloop
	endfacet
	facet normal -1 0 0
		outer loop
			vertex 0.77999997138977 0.25999999046326 0.77999997138977
			vertex 0.77999997138977 2.2620000839233 0
			vertex 0.77999997138977 0.25999999046326 0.6240000128746
		endloop
	endfacet
	facet normal 0 -1 0
		outer loop
			vertex 0.77999997138977 2.2620000839233 0.77999997138977
			vertex 0.25999999046326 2.2620000839233 0.6240000128746
			vertex 0.25999999046326 2.2620000839233 0.15600000321865
		endloop
	endfacet
	facet normal -1 0 0
		outer loop
			vertex 0.77999997138977 0.25999999046326 0.77999997138977
			vertex 0.77999997138977 2.2620000839233 0.77999997138977
			vertex 0.77999997138977 2.2620000839233 0
		endloop
	endfacet
	facet normal 0 -1 0
		outer loop
			vertex 0.25999999046326 2.2620000839233 0.77999997138977
			vertex 0.25999999046326 2.2620000839233 0.6240000128746
			vertex 0.77999997138977 2.2620000839233 0.77999997138977
		endloop
	endfacet
	facet normal 0 -1 0
		outer loop
			vertex 0 2.2620000839233 0.77999997138977
			vertex 0 2.2620000839233 0
			vertex 0.25999999046326 2.2620000839233 0.15600000321865
		endloop
	endfacet
	facet normal 0 -1 0
		outer loop
			vertex 0 2.2620000839233 0.77999997138977
			vertex 0.25999999046326 2.2620000839233 0.15600000321865
			vertex 0.25999999046326 2.2620000839233 0.6240000128746
		endloop
	endfacet
	facet normal 0.51449577710904 0 -0.85749291270363
		outer loop
			vertex 0 2.2620000839233 0
			vertex 0.25999999046326 14.804697036743 0.15600000321865
			vertex 0.25999999046326 2.2620000839233 0.15600000321865
		endloop
	endfacet
	facet normal -1 0 0
		outer loop
			vertex 0 2.2620000839233 0.77999997138977
			vertex 0 14.804697036743 0
			vertex 0 2.2620000839233 0
		endloop
	endfacet
	facet normal 0.51449566870145 -0 0.85749297774818
		outer loop
			vertex 0 2.2620000839233 0.77999997138977
			vertex 0.25999999046326 2.2620000839233 0.6240000128746
			vertex 0 14.804697036743 0.77999997138977
		endloop
	endfacet
	facet normal 0.51449577710904 0 -0.85749291270363
		outer loop
			vertex 0 2.2620000839233 0
			vertex 0 14.804697036743 0
			vertex 0.25999999046326 14.804697036743 0.15600000321865
		endloop
	endfacet
	facet normal -1 0 0
		outer loop
			vertex 0 2.2620000839233 0.77999997138977
			vertex 0 14.804697036743 0.77999997138977
			vertex 0 14.804697036743 0
		endloop
	endfacet
	facet normal 0.51449566870145 0 0.85749297774818
		outer loop
			vertex 0 14.804697036743 0.77999997138977
			vertex 0.25999999046326 2.2620000839233 0.6240000128746
			vertex 0.25999999046326 14.804697036743 0.6240000128746
		endloop
	endfacet
	facet normal 0 1 0
		outer loop
			vertex 0 14.804697036743 0.77999997138977
			vertex 0.25999999046326 14.804697036743 0.15600000321865
			vertex 0 14.804697036743 0
		endloop
	endfacet
	facet normal 0 1 0
		outer loop
			vertex 0 14.804697036743 0.77999997138977
			vertex 0.25999999046326 14.804697036743 0.6240000128746
			vertex 0.25999999046326 14.804697036743 0.15600000321865
		endloop
	endfacet
	facet normal -1 0 0
		outer loop
			vertex 0.77999997138977 0 0.77999997138977
			vertex 0.77999997138977 0.25999999046326 0.15600000321865
			vertex 0.77999997138977 0 0
		endloop
	endfacet
	facet normal -1 0 0
		outer loop
			vertex 0.77999997138977 0 0.77999997138977
			vertex 0.77999997138977 0.25999999046326 0.6240000128746
			vertex 0.77999997138977 0.25999999046326 0.15600000321865
		endloop
	endfacet
	facet normal 0 0.51449577710904 -0.85749291270363
		outer loop
			vertex 0.77999997138977 0 0
			vertex 0.77999997138977 0.25999999046326 0.15600000321865
			vertex 15.158599853516 0 0
		endloop
	endfacet
	facet normal 0 -1 0
		outer loop
			vertex 0.77999997138977 0 0.77999997138977
			vertex 0.77999997138977 0 0
			vertex 15.158599853516 0 0.77999997138977
		endloop
	endfacet
	facet normal 0 0.51449566870145 0.85749297774818
		outer loop
			vertex 0.77999997138977 0 0.77999997138977
			vertex 15.158599853516 0.25999999046326 0.6240000128746
			vertex 0.77999997138977 0.25999999046326 0.6240000128746
		endloop
	endfacet
	facet normal 0 0.51449577710904 -0.85749291270363
		outer loop
			vertex 15.158599853516 0 0
			vertex 0.77999997138977 0.25999999046326 0.15600000321865
			vertex 15.158599853516 0.25999999046326 0.15600000321865
		endloop
	endfacet
	facet normal 0 -1 -0
		outer loop
			vertex 15.158599853516 0 0.77999997138977
			vertex 0.77999997138977 0 0
			vertex 15.158599853516 0 0
		endloop
	endfacet
	facet normal -0 0.51449566870145 0.85749297774818
		outer loop
			vertex 0.77999997138977 0 0.77999997138977
			vertex 15.158599853516 0 0.77999997138977
			vertex 15.158599853516 0.25999999046326 0.6240000128746
		endloop
	endfacet
	facet normal 1 0 0
		outer loop
			vertex 15.158599853516 0 0.77999997138977
			vertex 15.158599853516 0 0
			vertex 15.158599853516 0.25999999046326 0.15600000321865
		endloop
	endfacet
	facet normal 1 0 0
		outer loop
			vertex 15.158599853516 0 0.77999997138977
			vertex 15.158599853516 0.25999999046326 0.15600000321865
			vertex 15.158599853516 0.25999999046326 0.6240000128746
		endloop
	endfacet
	facet normal -1 0 0
		outer loop
			vertex 15.45860004425 17.853637695312 0
			vertex 15.45860004425 17.333639144897 0.014060675166547
			vertex 15.45860004425 17.333639144897 0.021364921703935
		endloop
	endfacet
	facet normal -1 0 0
		outer loop
			vertex 15.45860004425 17.853637695312 0
			vertex 15.45860004425 17.333639144897 0.021364921703935
			vertex 15.45860004425 17.742807388306 0.51999998092651
		endloop
	endfacet
	facet normal -1 0 0
		outer loop
			vertex 15.45860004425 17.853637695312 0
			vertex 15.45860004425 17.742807388306 0.51999998092651
			vertex 15.45860004425 17.333639144897 2.5220000743866
		endloop
	endfacet
	facet normal -1 0 0
		outer loop
			vertex 15.45860004425 17.853637695312 0
			vertex 15.45860004425 17.333639144897 2.5220000743866
			vertex 15.45860004425 17.853637695312 0.51999998092651
		endloop
	endfacet
	facet normal -1 0 0
		outer loop
			vertex 15.45860004425 17.742807388306 0.51999998092651
			vertex 15.45860004425 17.333639144897 0.51999998092651
			vertex 15.45860004425 17.333639144897 2.5220000743866
		endloop
	endfacet
	facet normal 0 -1 0
		outer loop
			vertex 15.45860004425 17.333639144897 0.51999998092651
			vertex 19.309600830078 17.333639144897 0.51999998092651
			vertex 15.45860004425 17.333639144897 2.5220000743866
		endloop
	endfacet
	facet normal -0 1 0
		outer loop
			vertex 19.795139312744 17.853637695312 0.24500000476837
			vertex 19.963600158691 17.853637695312 0.24500000476837
			vertex 23.658599853516 17.853637695312 0
		endloop
	endfacet
	facet normal -0 1 0
		outer loop
			vertex 19.963600158691 17.853637695312 0.24500000476837
			vertex 22.861486434937 17.853637695312 0.51999998092651
			vertex 23.658599853516 17.853637695312 0
		endloop
	endfacet
	facet normal 1 0 0
		outer loop
			vertex 23.658599853516 17.853637695312 0
			vertex 23.658599853516 17.438060760498 0.50644594430923
			vertex 23.658599853516 17.333639144897 0
		endloop
	endfacet
	facet normal 0 1 -0
		outer loop
			vertex 19.963600158691 17.853637695312 0.24500000476837
			vertex 19.95524597168 17.853637695312 0.25972697138786
			vertex 22.861486434937 17.853637695312 0.51999998092651
		endloop
	endfacet
	facet normal 1 0 -0
		outer loop
			vertex 23.658599853516 17.853637695312 0
			vertex 23.658599853516 17.853637695312 0.51999998092651
			vertex 23.658599853516 17.438060760498 0.50644594430923
		endloop
	endfacet
	facet normal 0 1 -0
		outer loop
			vertex 23.658599853516 17.853637695312 0
			vertex 22.861486434937 17.853637695312 0.51999998092651
			vertex 23.658599853516 17.853637695312 0.51999998092651
		endloop
	endfacet
	facet normal 0 -1 0
		outer loop
			vertex 19.309600830078 17.333639144897 0.51999998092651
			vertex 19.807600021362 17.333639144897 0.51999998092651
			vertex 15.45860004425 17.333639144897 2.5220000743866
		endloop
	endfacet
	facet normal 0 1 0
		outer loop
			vertex 15.45860004425 17.853637695312 0.51999998092651
			vertex 19.324600219727 17.853637695312 2.5220000743866
			vertex 19.309600830078 17.853637695312 0.51999998092651
		endloop
	endfacet
	facet normal 0 -1 0
		outer loop
			vertex 15.45860004425 17.333639144897 2.5220000743866
			vertex 19.807600021362 17.333639144897 0.51999998092651
			vertex 23.658599853516 17.333639144897 0.51999998092651
		endloop
	endfacet
	facet normal 0 1 0
		outer loop
			vertex 19.309600830078 17.853637695312 0.51999998092651
			vertex 19.324600219727 17.853637695312 2.5220000743866
			vertex 19.324600219727 17.853637695312 0.51999998092651
		endloop
	endfacet
	facet normal 0 1 0
		outer loop
			vertex 19.792600631714 17.853637695312 0.51999998092651
			vertex 19.792600631714 17.853637695312 2.5220000743866
			vertex 19.807600021362 17.853637695312 0.51999998092651
		endloop
	endfacet
	facet normal 0 1 -0
		outer loop
			vertex 19.807600021362 17.853637695312 0.51999998092651
			vertex 19.792600631714 17.853637695312 2.5220000743866
			vertex 22.861486434937 17.853637695312 0.51999998092651
		endloop
	endfacet
	facet normal 1 0 0
		outer loop
			vertex 23.658599853516 17.853637695312 0.51999998092651
			vertex 23.658599853516 17.333639144897 2.5220000743866
			vertex 23.658599853516 17.333639144897 0.51999998092651
		endloop
	endfacet
	facet normal 0 1 0
		outer loop
			vertex 22.861486434937 17.853637695312 0.51999998092651
			vertex 23.658599853516 17.853637695312 2.5220000743866
			vertex 23.658599853516 17.853637695312 0.51999998092651
		endloop
	endfacet
	facet normal -1 0 0
		outer loop
			vertex 15.45860004425 17.853637695312 0.51999998092651
			vertex 15.45860004425 17.333639144897 2.5220000743866
			vertex 15.45860004425 17.853637695312 2.5220000743866
		endloop
	endfacet
	facet normal 0 1 0
		outer loop
			vertex 15.45860004425 17.853637695312 0.51999998092651
			vertex 15.45860004425 17.853637695312 2.5220000743866
			vertex 19.324600219727 17.853637695312 2.5220000743866
		endloop
	endfacet
	facet normal 0 -1 0
		outer loop
			vertex 15.45860004425 17.333639144897 2.5220000743866
			vertex 23.658599853516 17.333639144897 0.51999998092651
			vertex 23.658599853516 17.333639144897 2.5220000743866
		endloop
	endfacet
	facet normal 0 1 -0
		outer loop
			vertex 22.861486434937 17.853637695312 0.51999998092651
			vertex 19.792600631714 17.853637695312 2.5220000743866
			vertex 23.658599853516 17.853637695312 2.5220000743866
		endloop
	endfacet
	facet normal 1 0 -0
		outer loop
			vertex 23.658599853516 17.853637695312 0.51999998092651
			vertex 23.658599853516 17.853637695312 2.5220000743866
			vertex 23.658599853516 17.333639144897 2.5220000743866
		endloop
	endfacet
	facet normal 0 0 1
		outer loop
			vertex 15.45860004425 17.853637695312 2.5220000743866
			vertex 15.45860004425 17.333639144897 2.5220000743866
			vertex 23.658599853516 17.333639144897 2.5220000743866
		endloop
	endfacet
	facet normal -0 0 1
		outer loop
			vertex 15.45860004425 17.853637695312 2.5220000743866
			vertex 23.658599853516 17.333639144897 2.5220000743866
			vertex 19.324600219727 17.853637695312 2.5220000743866
		endloop
	endfacet
	facet normal -0 0 1
		outer loop
			vertex 19.324600219727 17.853637695312 2.5220000743866
			vertex 23.658599853516 17.333639144897 2.5220000743866
			vertex 19.792600631714 17.853637695312 2.5220000743866
		endloop
	endfacet
	facet normal -0 0 1
		outer loop
			vertex 19.792600631714 17.853637695312 2.5220000743866
			vertex 23.658599853516 17.333639144897 2.5220000743866
			vertex 23.658599853516 17.853637695312 2.5220000743866
		endloop
	endfacet
	facet normal 0 0 -1
		outer loop
			vertex 19.168600082397 18.113637924194 0
			vertex 19.792600631714 17.853637695312 0
			vertex 19.324600219727 17.853637695312 0
		endloop
	endfacet
	facet normal 0 0 -1
		outer loop
			vertex 19.168600082397 18.113637924194 0
			vertex 19.948600769043 18.113637924194 0
			vertex 19.792600631714 17.853637695312 0
		endloop
	endfacet
	facet normal 0.85749292571254 -0.51449575542753 0
		outer loop
			vertex 19.792600631714 17.853637695312 0
			vertex 19.948600769043 18.113637924194 0
			vertex 19.792600631714 17.853637695312 0.24500000476837
		endloop
	endfacet
	facet normal 0.85749292571254 -0.51449575542753 0
		outer loop
			vertex 19.948600769043 18.113637924194 0
			vertex 19.792600631714 17.853637695312 0.51999998092651
			vertex 19.792600631714 17.853637695312 0.24500000476837
		endloop
	endfacet
	facet normal -0.85749292571254 -0.51449575542753 0
		outer loop
			vertex 19.168600082397 18.113637924194 0
			vertex 19.324600219727 17.853637695312 0
			vertex 19.168600082397 18.113637924194 2.5220000743866
		endloop
	endfacet
	facet normal 0 1 0
		outer loop
			vertex 19.168600082397 18.113637924194 0
			vertex 19.948600769043 18.113637924194 2.5220000743866
			vertex 19.948600769043 18.113637924194 0
		endloop
	endfacet
	facet normal -0.85749292571254 -0.51449575542753 0
		outer loop
			vertex 19.324600219727 17.853637695312 0
			vertex 19.324600219727 17.853637695312 0.24500000476837
			vertex 19.168600082397 18.113637924194 2.5220000743866
		endloop
	endfacet
	facet normal 0.85749292571254 -0.51449575542753 0
		outer loop
			vertex 19.948600769043 18.113637924194 0
			vertex 19.792600631714 17.853637695312 2.5220000743866
			vertex 19.792600631714 17.853637695312 0.51999998092651
		endloop
	endfacet
	facet normal -0.85749292571254 -0.51449575542753 0
		outer loop
			vertex 19.324600219727 17.853637695312 0.24500000476837
			vertex 19.324600219727 17.853637695312 0.51999998092651
			vertex 19.168600082397 18.113637924194 2.5220000743866
		endloop
	endfacet
	facet normal 0 1 0
		outer loop
			vertex 19.168600082397 18.113637924194 0
			vertex 19.168600082397 18.113637924194 2.5220000743866
			vertex 19.948600769043 18.113637924194 2.5220000743866
		endloop
	endfacet
	facet normal 0.85749292571254 -0.51449575542753 0
		outer loop
			vertex 19.948600769043 18.113637924194 0
			vertex 19.948600769043 18.113637924194 2.5220000743866
			vertex 19.792600631714 17.853637695312 2.5220000743866
		endloop
	endfacet
	facet normal -0.85749292571254 -0.51449575542753 0
		outer loop
			vertex 19.324600219727 17.853637695312 0.51999998092651
			vertex 19.324600219727 17.853637695312 2.5220000743866
			vertex 19.168600082397 18.113637924194 2.5220000743866
		endloop
	endfacet
	facet normal 0 0 1
		outer loop
			vertex 19.168600082397 18.113637924194 2.5220000743866
			vertex 19.324600219727 17.853637695312 2.5220000743866
			vertex 19.792600631714 17.853637695312 2.5220000743866
		endloop
	endfacet
	facet normal -0 0 1
		outer loop
			vertex 19.168600082397 18.113637924194 2.5220000743866
			vertex 19.792600631714 17.853637695312 2.5220000743866
			vertex 19.948600769043 18.113637924194 2.5220000743866
		endloop
	endfacet
	facet normal -1 -0 0
		outer loop
			vertex 15.45860004425 17.333639144897 0.021364921703935
			vertex 15.45860004425 1.9100382328033 0
			vertex 15.45860004425 1.9100382328033 0.51999998092651
		endloop
	endfacet
	facet normal -1 0 0
		outer loop
			vertex 15.45860004425 17.333639144897 0.021364921703935
			vertex 15.45860004425 1.9100382328033 0.51999998092651
			vertex 15.45860004425 2.0493717193604 0.51999998092651
		endloop
	endfacet
	facet normal 1 0 0
		outer loop
			vertex 23.658599853516 2.1700382232666 0.45033320784569
			vertex 23.658599853516 1.9100382328033 0.51999998092651
			vertex 23.658599853516 1.9100382328033 0.51871001720428
		endloop
	endfacet
	facet normal 0 0 1
		outer loop
			vertex 19.309600830078 17.333639144897 0.51999998092651
			vertex 15.45860004425 2.0493717193604 0.51999998092651
			vertex 19.309600830078 2.0493717193604 0.51999998092651
		endloop
	endfacet
	facet normal 0 0 -1
		outer loop
			vertex 15.45860004425 1.9100382328033 0
			vertex 23.658599853516 17.333639144897 0
			vertex 23.658599853516 1.9100382328033 0
		endloop
	endfacet
	facet normal 1 0 0
		outer loop
			vertex 23.658599853516 17.438060760498 0.50644594430923
			vertex 23.658599853516 2.1700382232666 0.45033320784569
			vertex 23.658599853516 1.9100382328033 0
		endloop
	endfacet
	facet normal 0 0 1
		outer loop
			vertex 23.658599853516 17.333639144897 0.51999998092651
			vertex 19.807600021362 2.0493717193604 0.51999998092651
			vertex 23.658599853516 2.0493717193604 0.51999998092651
		endloop
	endfacet
	facet normal 1 0 0
		outer loop
			vertex 23.658599853516 17.438060760498 0.50644594430923
			vertex 23.658599853516 1.9100382328033 0.51999998092651
			vertex 23.658599853516 2.1700382232666 0.45033320784569
		endloop
	endfacet
	facet normal 1 0 0
		outer loop
			vertex 23.658599853516 17.438060760498 0.50644594430923
			vertex 23.658599853516 2.0493717193604 0.51999998092651
			vertex 23.658599853516 1.9100382328033 0.51999998092651
		endloop
	endfacet
	facet normal -1 -0 0
		outer loop
			vertex 15.45860004425 17.333639144897 0.014060675166547
			vertex 15.45860004425 1.9100382328033 0
			vertex 15.45860004425 17.333639144897 0.021364921703935
		endloop
	endfacet
	facet normal -1 0 0
		outer loop
			vertex 15.45860004425 17.853637695312 0
			vertex 15.45860004425 1.9100382328033 0
			vertex 15.45860004425 17.333639144897 0.014060675166547
		endloop
	endfacet
	facet normal 0 0 -1
		outer loop
			vertex 15.45860004425 17.853637695312 0
			vertex 19.324600219727 17.853637695312 0
			vertex 15.45860004425 1.9100382328033 0
		endloop
	endfacet
	facet normal -1 0 0
		outer loop
			vertex 15.45860004425 17.333639144897 0.021364921703935
			vertex 15.45860004425 2.0493717193604 0.51999998092651
			vertex 15.45860004425 17.333639144897 0.51999998092651
		endloop
	endfacet
	facet normal -0 0 1
		outer loop
			vertex 15.45860004425 17.333639144897 0.51999998092651
			vertex 15.45860004425 2.0493717193604 0.51999998092651
			vertex 19.309600830078 17.333639144897 0.51999998092651
		endloop
	endfacet
	facet normal 0 1 0
		outer loop
			vertex 15.45860004425 17.853637695312 0
			vertex 15.45860004425 17.853637695312 0.51999998092651
			vertex 19.153600692749 17.853637695312 0.24500000476837
		endloop
	endfacet
	facet normal -1 0 0
		outer loop
			vertex 15.45860004425 17.333639144897 0.021364921703935
			vertex 15.45860004425 17.333639144897 0.51999998092651
			vertex 15.45860004425 17.742807388306 0.51999998092651
		endloop
	endfacet
	facet normal 0 -0 -1
		outer loop
			vertex 19.324600219727 17.853637695312 0
			vertex 19.792600631714 17.853637695312 0
			vertex 15.45860004425 1.9100382328033 0
		endloop
	endfacet
	facet normal 0 0 -1
		outer loop
			vertex 15.45860004425 1.9100382328033 0
			vertex 19.792600631714 17.853637695312 0
			vertex 23.658599853516 17.853637695312 0
		endloop
	endfacet
	facet normal 0 0 -1
		outer loop
			vertex 15.45860004425 1.9100382328033 0
			vertex 23.658599853516 17.853637695312 0
			vertex 23.658599853516 17.333639144897 0
		endloop
	endfacet
	facet normal 1 0 -0
		outer loop
			vertex 23.658599853516 17.333639144897 0
			vertex 23.658599853516 17.438060760498 0.50644594430923
			vertex 23.658599853516 1.9100382328033 0
		endloop
	endfacet
	facet normal -0 0 1
		outer loop
			vertex 19.807600021362 17.333639144897 0.51999998092651
			vertex 19.807600021362 2.0493717193604 0.51999998092651
			vertex 23.658599853516 17.333639144897 0.51999998092651
		endloop
	endfacet
	facet normal 1 0 0
		outer loop
			vertex 23.658599853516 17.438060760498 0.50644594430923
			vertex 23.658599853516 17.333639144897 0.51999998092651
			vertex 23.658599853516 2.0493717193604 0.51999998092651
		endloop
	endfacet
	facet normal 0 1 0
		outer loop
			vertex 15.45860004425 17.853637695312 0
			vertex 19.153600692749 17.853637695312 0.24500000476837
			vertex 19.324600219727 17.853637695312 0
		endloop
	endfacet
	facet normal 0 1 -0
		outer loop
			vertex 19.324600219727 17.853637695312 0
			vertex 19.153600692749 17.853637695312 0.24500000476837
			vertex 19.324600219727 17.853637695312 0.24500000476837
		endloop
	endfacet
	facet normal 0 1 0
		outer loop
			vertex 19.792600631714 17.853637695312 0
			vertex 19.792600631714 17.853637695312 0.24500000476837
			vertex 19.795139312744 17.853637695312 0.24500000476837
		endloop
	endfacet
	facet normal -0 1 0
		outer loop
			vertex 15.45860004425 17.853637695312 0.51999998092651
			vertex 19.309600830078 17.853637695312 0.51999998092651
			vertex 19.153600692749 17.853637695312 0.24500000476837
		endloop
	endfacet
	facet normal 0 1 0
		outer loop
			vertex 19.792600631714 17.853637695312 0
			vertex 19.795139312744 17.853637695312 0.24500000476837
			vertex 23.658599853516 17.853637695312 0
		endloop
	endfacet
	facet normal 0 1 -0
		outer loop
			vertex 19.95524597168 17.853637695312 0.25972697138786
			vertex 19.807600021362 17.853637695312 0.51999998092651
			vertex 22.861486434937 17.853637695312 0.51999998092651
		endloop
	endfacet
	facet normal 1 0 0
		outer loop
			vertex 23.658599853516 17.853637695312 0.51999998092651
			vertex 23.658599853516 17.333639144897 0.51999998092651
			vertex 23.658599853516 17.438060760498 0.50644594430923
		endloop
	endfacet
	facet normal -2.0885382239392e-08 -0.50000004863839 -0.86602537570305
		outer loop
			vertex 15.45860004425 1.9100382328033 0
			vertex 18.714782714844 1.5683426856995 0.19727796316147
			vertex 18.333568572998 1.3918780088425 0.29915991425514
		endloop
	endfacet
	facet normal -2.37173600907e-08 -0.50000006042313 -0.86602536889912
		outer loop
			vertex 15.45860004425 1.9100382328033 0
			vertex 18.333568572998 1.3918780088425 0.29915991425514
			vertex 17.999429702759 1.1543965339661 0.43626993894577
		endloop
	endfacet
	facet normal -9.683708349632e-09 -0.49999999496046 -0.86602540669402
		outer loop
			vertex 15.45860004425 1.9100382328033 0
			vertex 17.725210189819 0.8650244474411 0.60333895683289
			vertex 15.45860004425 0.25999999046326 0.95265001058578
		endloop
	endfacet
	facet normal 2.3911261549275e-08 -0.49999994031044 -0.86602543824622
		outer loop
			vertex 15.45860004425 1.9100382328033 0
			vertex 17.999429702759 1.1543965339661 0.43626993894577
			vertex 17.725210189819 0.8650244474411 0.60333895683289
		endloop
	endfacet
	facet normal -1 0 0
		outer loop
			vertex 15.45860004425 1.9100382328033 0
			vertex 15.45860004425 0.25999999046326 0.95265001058578
			vertex 15.45860004425 0.51999998092651 1.4029831886292
		endloop
	endfacet
	facet normal -1 0 0
		outer loop
			vertex 15.45860004425 1.9100382328033 0
			vertex 15.45860004425 0.51999998092651 1.4029831886292
			vertex 15.45860004425 1.9100382328033 0.51999998092651
		endloop
	endfacet
	facet normal -1 0 0
		outer loop
			vertex 15.45860004425 2.0493717193604 0.51999998092651
			vertex 15.45860004425 1.9100382328033 0.51999998092651
			vertex 15.45860004425 0.51999998092651 1.4029831886292
		endloop
	endfacet
	facet normal 2.2859900509504e-08 -0.50000008639933 -0.86602535390175
		outer loop
			vertex 15.45860004425 0.25999999046326 0.95265001058578
			vertex 17.725210189819 0.8650244474411 0.60333895683289
			vertex 17.521446228027 0.53488224744797 0.79394668340683
		endloop
	endfacet
	facet normal 0 -0.49999995773572 -0.86602542818573
		outer loop
			vertex 15.45860004425 0.25999999046326 0.95265001058578
			vertex 17.521446228027 0.53488224744797 0.79394668340683
			vertex 17.425161361694 0.25999999046326 0.95265001058578
		endloop
	endfacet
	facet normal -4.7918174957896e-08 0.49999979709243 0.86602552093315
		outer loop
			vertex 15.45860004425 2.0493717193604 0.51999998092651
			vertex 18.333568572998 1.6518779993057 0.74949312210083
			vertex 18.714782714844 1.828342795372 0.64761120080948
		endloop
	endfacet
	facet normal -8.1925800929591e-09 0.50000001258609 0.86602539651786
		outer loop
			vertex 15.45860004425 2.0493717193604 0.51999998092651
			vertex 17.999429702759 1.4143965244293 0.88660311698914
			vertex 18.333568572998 1.6518779993057 0.74949312210083
		endloop
	endfacet
	facet normal -3.6863945359637e-08 0.49999997561613 0.86602541786247
		outer loop
			vertex 15.45860004425 2.0493717193604 0.51999998092651
			vertex 17.521446228027 0.79488223791122 1.2442798614502
			vertex 17.725210189819 1.1250244379044 1.0536721944809
		endloop
	endfacet
	facet normal 5.369511314203e-09 0.50000005328724 0.86602537301903
		outer loop
			vertex 15.45860004425 2.0493717193604 0.51999998092651
			vertex 17.725210189819 1.1250244379044 1.0536721944809
			vertex 17.999429702759 1.4143965244293 0.88660311698914
		endloop
	endfacet
	facet normal 0 -0.86602539637751 0.50000001282918
		outer loop
			vertex 15.45860004425 0.25999999046326 0.95265001058578
			vertex 17.425161361694 0.51999998092651 1.4029831886292
			vertex 15.45860004425 0.51999998092651 1.4029831886292
		endloop
	endfacet
	facet normal 0 0.50000000969449 0.86602539818732
		outer loop
			vertex 15.45860004425 2.0493717193604 0.51999998092651
			vertex 15.45860004425 0.51999998092651 1.4029831886292
			vertex 17.425161361694 0.51999998092651 1.4029831886292
		endloop
	endfacet
	facet normal 0 -0.86602539637751 0.50000001282918
		outer loop
			vertex 15.45860004425 0.25999999046326 0.95265001058578
			vertex 17.425161361694 0.25999999046326 0.95265001058578
			vertex 17.425161361694 0.51999998092651 1.4029831886292
		endloop
	endfacet
	facet normal -4.234258739513e-08 0.49999996885944 0.86602542176345
		outer loop
			vertex 15.45860004425 2.0493717193604 0.51999998092651
			vertex 17.425161361694 0.51999998092651 1.4029831886292
			vertex 17.521446228027 0.79488223791122 1.2442798614502
		endloop
	endfacet
	facet normal -7.4692922535882e-09 -0.49999995275206 -0.86602543106305
		outer loop
			vertex 15.45860004425 1.9100382328033 0
			vertex 19.128425598145 1.6770091056824 0.13453938066959
			vertex 18.714782714844 1.5683426856995 0.19727796316147
		endloop
	endfacet
	facet normal 4.3948148729099e-08 -0.49999934544676 -0.8660257816906
		outer loop
			vertex 15.45860004425 1.9100382328033 0
			vertex 19.558599472046 1.7137013673782 0.11335515230894
			vertex 19.128425598145 1.6770091056824 0.13453938066959
		endloop
	endfacet
	facet normal 0 -0.50000003375643 -0.86602538429515
		outer loop
			vertex 15.45860004425 1.9100382328033 0
			vertex 23.658599853516 1.9100382328033 0
			vertex 19.558599472046 1.7137013673782 0.11335515230894
		endloop
	endfacet
	facet normal -0 0.50000058126795 0.86602506818897
		outer loop
			vertex 15.45860004425 2.0493717193604 0.51999998092651
			vertex 19.128425598145 1.9370092153549 0.58487260341644
			vertex 19.309600830078 2.0493717193604 0.51999998092651
		endloop
	endfacet
	facet normal -1.8944006110469e-08 0.50000011722644 0.86602533610371
		outer loop
			vertex 15.45860004425 2.0493717193604 0.51999998092651
			vertex 18.714782714844 1.828342795372 0.64761120080948
			vertex 19.128425598145 1.9370092153549 0.58487260341644
		endloop
	endfacet
	facet normal -0 0.50000045736291 0.86602513972568
		outer loop
			vertex 19.309600830078 2.0493717193604 0.51999998092651
			vertex 19.558599472046 1.9737013578415 0.56368833780289
			vertex 19.807600021362 2.0493717193604 0.51999998092651
		endloop
	endfacet
	facet normal 3.3695136958131e-08 0.50000054052002 0.86602509171484
		outer loop
			vertex 19.309600830078 2.0493717193604 0.51999998092651
			vertex 19.128425598145 1.9370092153549 0.58487260341644
			vertex 19.558599472046 1.9737013578415 0.56368833780289
		endloop
	endfacet
	facet normal -3.3695080391315e-08 0.50000054052051 0.86602509171455
		outer loop
			vertex 19.807600021362 2.0493717193604 0.51999998092651
			vertex 19.558599472046 1.9737013578415 0.56368833780289
			vertex 19.988773345947 1.9370092153549 0.58487260341644
		endloop
	endfacet
	facet normal 3.1485397881762e-07 0.50000096202055 0.86602484836085
		outer loop
			vertex 19.807600021362 2.0493717193604 0.51999998092651
			vertex 19.988773345947 1.9370092153549 0.58487260341644
			vertex 20.402416229248 1.828342795372 0.64761120080948
		endloop
	endfacet
	facet normal -4.3948142182179e-08 -0.4999993454467 -0.86602578169063
		outer loop
			vertex 23.658599853516 1.9100382328033 0
			vertex 19.988773345947 1.6770091056824 0.13453938066959
			vertex 19.558599472046 1.7137013673782 0.11335515230894
		endloop
	endfacet
	facet normal 7.4692906903909e-09 -0.49999995275207 -0.86602543106304
		outer loop
			vertex 23.658599853516 1.9100382328033 0
			vertex 20.402416229248 1.5683426856995 0.19727796316147
			vertex 19.988773345947 1.6770091056824 0.13453938066959
		endloop
	endfacet
	facet normal 2.0885357941731e-08 -0.50000004863826 -0.86602537570312
		outer loop
			vertex 23.658599853516 1.9100382328033 0
			vertex 20.783632278442 1.3918780088425 0.29915991425514
			vertex 20.402416229248 1.5683426856995 0.19727796316147
		endloop
	endfacet
	facet normal 2.3717366366639e-08 -0.50000006042313 -0.86602536889913
		outer loop
			vertex 23.658599853516 1.9100382328033 0
			vertex 21.117771148682 1.1543965339661 0.43626993894577
			vertex 20.783632278442 1.3918780088425 0.29915991425514
		endloop
	endfacet
	facet normal -0 0.50000032653769 0.86602521525773
		outer loop
			vertex 19.807600021362 2.0493717193604 0.51999998092651
			vertex 20.402416229248 1.828342795372 0.64761120080948
			vertex 23.658599853516 2.0493717193604 0.51999998092651
		endloop
	endfacet
	facet normal -2.2407371884488e-09 -0.49999999496046 -0.86602540669402
		outer loop
			vertex 23.658599853516 1.9100382328033 0
			vertex 23.658599853516 0.25999999046326 0.95265001058578
			vertex 21.117771148682 1.1543965339661 0.43626993894577
		endloop
	endfacet
	facet normal 1 0 0
		outer loop
			vertex 23.658599853516 1.9100382328033 0
			vertex 23.658599853516 2.1700382232666 0.45033320784569
			vertex 23.658599853516 1.9100382328033 0.51871001720428
		endloop
	endfacet
	facet normal 1 0 -0
		outer loop
			vertex 23.658599853516 1.9100382328033 0
			vertex 23.658599853516 1.9100382328033 0.51871001720428
			vertex 23.658599853516 0.25999999046326 0.95265001058578
		endloop
	endfacet
	facet normal 4.7095190905033e-08 -0.49999988984421 -0.8660254673829
		outer loop
			vertex 23.658599853516 0.25999999046326 0.95265001058578
			vertex 21.391990661621 0.8650244474411 0.60333895683289
			vertex 21.117771148682 1.1543965339661 0.43626993894577
		endloop
	endfacet
	facet normal 4.7918132057441e-08 0.49999979709275 0.86602552093296
		outer loop
			vertex 23.658599853516 2.0493717193604 0.51999998092651
			vertex 20.402416229248 1.828342795372 0.64761120080948
			vertex 20.783632278442 1.6518779993057 0.74949312210083
		endloop
	endfacet
	facet normal -2.2859912024949e-08 -0.50000008639934 -0.86602535390175
		outer loop
			vertex 23.658599853516 0.25999999046326 0.95265001058578
			vertex 21.595754623413 0.53488224744797 0.79394668340683
			vertex 21.391990661621 0.8650244474411 0.60333895683289
		endloop
	endfacet
	facet normal -0 -0.49999995773572 -0.86602542818573
		outer loop
			vertex 23.658599853516 0.25999999046326 0.95265001058578
			vertex 21.692039489746 0.25999999046326 0.95265001058578
			vertex 21.595754623413 0.53488224744797 0.79394668340683
		endloop
	endfacet
	facet normal 1 0 -0
		outer loop
			vertex 23.658599853516 1.9100382328033 0.51871001720428
			vertex 23.658599853516 1.9100382328033 0.51999998092651
			vertex 23.658599853516 0.25999999046326 0.95265001058578
		endloop
	endfacet
	facet normal 8.7256411444042e-09 0.50000000969449 0.86602539818732
		outer loop
			vertex 23.658599853516 2.0493717193604 0.51999998092651
			vertex 20.783632278442 1.6518779993057 0.74949312210083
			vertex 23.658599853516 0.51999998092651 1.4029831886292
		endloop
	endfacet
	facet normal 1 0 0
		outer loop
			vertex 23.658599853516 2.0493717193604 0.51999998092651
			vertex 23.658599853516 0.51999998092651 1.4029831886292
			vertex 23.658599853516 1.9100382328033 0.51999998092651
		endloop
	endfacet
	facet normal 4.7128263783306e-08 0.50000009059884 0.86602535147717
		outer loop
			vertex 23.658599853516 0.51999998092651 1.4029831886292
			vertex 21.117771148682 1.4143965244293 0.88660311698914
			vertex 21.391990661621 1.1250244379044 1.0536721944809
		endloop
	endfacet
	facet normal 1.2790551937259e-08 0.50000001743814 0.86602539371653
		outer loop
			vertex 23.658599853516 0.51999998092651 1.4029831886292
			vertex 20.783632278442 1.6518779993057 0.74949312210083
			vertex 21.117771148682 1.4143965244293 0.88660311698914
		endloop
	endfacet
	facet normal 0 -0.86602539637751 0.50000001282918
		outer loop
			vertex 23.658599853516 0.25999999046326 0.95265001058578
			vertex 23.658599853516 0.51999998092651 1.4029831886292
			vertex 21.692039489746 0.25999999046326 0.95265001058578
		endloop
	endfacet
	facet normal 1 0 0
		outer loop
			vertex 23.658599853516 1.9100382328033 0.51999998092651
			vertex 23.658599853516 0.51999998092651 1.4029831886292
			vertex 23.658599853516 0.25999999046326 0.95265001058578
		endloop
	endfacet
	facet normal 0 -0.86602539637751 0.50000001282918
		outer loop
			vertex 23.658599853516 0.51999998092651 1.4029831886292
			vertex 21.692039489746 0.51999998092651 1.4029831886292
			vertex 21.692039489746 0.25999999046326 0.95265001058578
		endloop
	endfacet
	facet normal 1.5798649936261e-10 0.49999995862492 0.86602542767235
		outer loop
			vertex 23.658599853516 0.51999998092651 1.4029831886292
			vertex 21.391990661621 1.1250244379044 1.0536721944809
			vertex 21.595754623413 0.79488223791122 1.2442798614502
		endloop
	endfacet
	facet normal 0 0.49999995773572 0.86602542818573
		outer loop
			vertex 23.658599853516 0.51999998092651 1.4029831886292
			vertex 21.595754623413 0.79488223791122 1.2442798614502
			vertex 21.692039489746 0.51999998092651 1.4029831886292
		endloop
	endfacet
	facet normal 0.86979577853241 0 -0.4934119005934
		outer loop
			vertex 19.309600830078 2.0493717193604 0.51999998092651
			vertex 19.309600830078 1.9201595783234 0.51999998092651
			vertex 19.153600692749 1.7436466217041 0.24500000476837
		endloop
	endfacet
	facet normal 0 0 -1
		outer loop
			vertex 19.309600830078 2.0493717193604 0.51999998092651
			vertex 19.558599472046 1.9484778642654 0.51999998092651
			vertex 19.309600830078 1.9201595783234 0.51999998092651
		endloop
	endfacet
	facet normal 0 0 -1
		outer loop
			vertex 19.309600830078 2.0493717193604 0.51999998092651
			vertex 19.807600021362 2.0493717193604 0.51999998092651
			vertex 19.558599472046 1.9484778642654 0.51999998092651
		endloop
	endfacet
	facet normal 0 -0 -1
		outer loop
			vertex 19.807600021362 2.0493717193604 0.51999998092651
			vertex 19.807600021362 1.9201595783234 0.51999998092651
			vertex 19.558599472046 1.9484778642654 0.51999998092651
		endloop
	endfacet
	facet normal 0 0 1
		outer loop
			vertex 19.153600692749 17.853637695312 0.24500000476837
			vertex 19.153600692749 1.7436466217041 0.24500000476837
			vertex 19.558599472046 1.7897064685822 0.24500000476837
		endloop
	endfacet
	facet normal 0 0 1
		outer loop
			vertex 19.963600158691 17.853637695312 0.24500000476837
			vertex 19.558599472046 1.7897064685822 0.24500000476837
			vertex 19.963600158691 1.7436466217041 0.24500000476837
		endloop
	endfacet
	facet normal 0.86979577853241 0 -0.4934119005934
		outer loop
			vertex 19.153600692749 17.853637695312 0.24500000476837
			vertex 19.309600830078 2.0493717193604 0.51999998092651
			vertex 19.153600692749 1.7436466217041 0.24500000476837
		endloop
	endfacet
	facet normal -0.86979577853241 -0 -0.4934119005934
		outer loop
			vertex 19.963600158691 17.853637695312 0.24500000476837
			vertex 19.963600158691 1.7436466217041 0.24500000476837
			vertex 19.807600021362 1.9201595783234 0.51999998092651
		endloop
	endfacet
	facet normal -0.86979573896866 0 -0.49341197033712
		outer loop
			vertex 19.95524597168 17.853637695312 0.25972697138786
			vertex 19.807600021362 1.9201595783234 0.51999998092651
			vertex 19.807600021362 2.0493717193604 0.51999998092651
		endloop
	endfacet
	facet normal -0 0 1
		outer loop
			vertex 19.153600692749 17.853637695312 0.24500000476837
			vertex 19.558599472046 1.7897064685822 0.24500000476837
			vertex 19.324600219727 17.853637695312 0.24500000476837
		endloop
	endfacet
	facet normal -0 0 1
		outer loop
			vertex 19.324600219727 17.853637695312 0.24500000476837
			vertex 19.558599472046 1.7897064685822 0.24500000476837
			vertex 19.792600631714 17.853637695312 0.24500000476837
		endloop
	endfacet
	facet normal -0 0 1
		outer loop
			vertex 19.792600631714 17.853637695312 0.24500000476837
			vertex 19.558599472046 1.7897064685822 0.24500000476837
			vertex 19.795139312744 17.853637695312 0.24500000476837
		endloop
	endfacet
	facet normal -0 0 1
		outer loop
			vertex 19.795139312744 17.853637695312 0.24500000476837
			vertex 19.558599472046 1.7897064685822 0.24500000476837
			vertex 19.963600158691 17.853637695312 0.24500000476837
		endloop
	endfacet
	facet normal 0.86979577853241 0 -0.4934119005934
		outer loop
			vertex 19.153600692749 17.853637695312 0.24500000476837
			vertex 19.309600830078 17.333639144897 0.51999998092651
			vertex 19.309600830078 2.0493717193604 0.51999998092651
		endloop
	endfacet
	facet normal -0.86979573896866 0 -0.49341197033712
		outer loop
			vertex 19.95524597168 17.853637695312 0.25972697138786
			vertex 19.807600021362 2.0493717193604 0.51999998092651
			vertex 19.807600021362 17.333639144897 0.51999998092651
		endloop
	endfacet
	facet normal -0.86979647775122 2.811957771461e-08 -0.49341066799531
		outer loop
			vertex 19.963600158691 17.853637695312 0.24500000476837
			vertex 19.807600021362 1.9201595783234 0.51999998092651
			vertex 19.95524597168 17.853637695312 0.25972697138786
		endloop
	endfacet
	facet normal 0 -1 0
		outer loop
			vertex 19.324600219727 17.853637695312 0.24500000476837
			vertex 19.792600631714 17.853637695312 0.24500000476837
			vertex 19.324600219727 17.853637695312 0.51999998092651
		endloop
	endfacet
	facet normal 0.86979577853241 0 -0.4934119005934
		outer loop
			vertex 19.153600692749 17.853637695312 0.24500000476837
			vertex 19.309600830078 17.853637695312 0.51999998092651
			vertex 19.309600830078 17.333639144897 0.51999998092651
		endloop
	endfacet
	facet normal -0.86979573896866 0 -0.49341197033712
		outer loop
			vertex 19.95524597168 17.853637695312 0.25972697138786
			vertex 19.807600021362 17.333639144897 0.51999998092651
			vertex 19.807600021362 17.853637695312 0.51999998092651
		endloop
	endfacet
	facet normal 0 -1 0
		outer loop
			vertex 19.324600219727 17.853637695312 0.51999998092651
			vertex 19.792600631714 17.853637695312 0.24500000476837
			vertex 19.792600631714 17.853637695312 0.51999998092651
		endloop
	endfacet
	facet normal 0 0 -1
		outer loop
			vertex 19.309600830078 17.853637695312 0.51999998092651
			vertex 19.807600021362 17.333639144897 0.51999998092651
			vertex 19.309600830078 17.333639144897 0.51999998092651
		endloop
	endfacet
	facet normal 0 0 -1
		outer loop
			vertex 19.309600830078 17.853637695312 0.51999998092651
			vertex 19.324600219727 17.853637695312 0.51999998092651
			vertex 19.807600021362 17.333639144897 0.51999998092651
		endloop
	endfacet
	facet normal 0 0 -1
		outer loop
			vertex 19.324600219727 17.853637695312 0.51999998092651
			vertex 19.792600631714 17.853637695312 0.51999998092651
			vertex 19.807600021362 17.333639144897 0.51999998092651
		endloop
	endfacet
	facet normal 0 0 -1
		outer loop
			vertex 19.792600631714 17.853637695312 0.51999998092651
			vertex 19.807600021362 17.853637695312 0.51999998092651
			vertex 19.807600021362 17.333639144897 0.51999998092651
		endloop
	endfacet
	facet normal 0.88192117991787 -0.40824169616508 0.23569843004258
		outer loop
			vertex 17.725210189819 0.8650244474411 0.60333895683289
			vertex 17.725210189819 1.1250244379044 1.0536721944809
			vertex 17.521446228027 0.53488224744797 0.79394668340683
		endloop
	endfacet
	facet normal 0.95693983136333 -0.25139534260141 0.14514317368946
		outer loop
			vertex 17.521446228027 0.79488223791122 1.2442798614502
			vertex 17.425161361694 0.25999999046326 0.95265001058578
			vertex 17.521446228027 0.53488224744797 0.79394668340683
		endloop
	endfacet
	facet normal 0.88192116459701 -0.40824170747983 0.23569846777143
		outer loop
			vertex 17.521446228027 0.53488224744797 0.79394668340683
			vertex 17.725210189819 1.1250244379044 1.0536721944809
			vertex 17.521446228027 0.79488223791122 1.2442798614502
		endloop
	endfacet
	facet normal 0.95693983136333 -0.25139534260141 0.14514317368946
		outer loop
			vertex 17.425161361694 0.51999998092651 1.4029831886292
			vertex 17.425161361694 0.25999999046326 0.95265001058578
			vertex 17.521446228027 0.79488223791122 1.2442798614502
		endloop
	endfacet
	facet normal 0.29028462353426 -0.8287345732482 0.47847031720129
		outer loop
			vertex 18.714782714844 1.5683426856995 0.19727796316147
			vertex 19.128425598145 1.6770091056824 0.13453938066959
			vertex 19.128425598145 1.9370092153549 0.58487260341644
		endloop
	endfacet
	facet normal 0.098017407034919 -0.86185548658025 0.4975919092687
		outer loop
			vertex 19.128425598145 1.6770091056824 0.13453938066959
			vertex 19.558599472046 1.7137013673782 0.11335515230894
			vertex 19.558599472046 1.7897064685822 0.24500000476837
		endloop
	endfacet
	facet normal 0.098017411534495 -0.86185549262488 0.49759189791274
		outer loop
			vertex 19.153600692749 1.7436466217041 0.24500000476837
			vertex 19.128425598145 1.6770091056824 0.13453938066959
			vertex 19.558599472046 1.7897064685822 0.24500000476837
		endloop
	endfacet
	facet normal -0.098017407034721 -0.86185476782983 0.49759315418038
		outer loop
			vertex 19.963600158691 1.7436466217041 0.24500000476837
			vertex 19.558599472046 1.7137013673782 0.11335515230894
			vertex 19.988773345947 1.6770091056824 0.13453938066959
		endloop
	endfacet
	facet normal -0.098016953632807 -0.86185552525369 0.49759193159679
		outer loop
			vertex 19.558599472046 1.7137013673782 0.11335515230894
			vertex 19.963600158691 1.7436466217041 0.24500000476837
			vertex 19.558599472046 1.7897064685822 0.24500000476837
		endloop
	endfacet
	facet normal 0.47139793264479 -0.76376559671162 0.44096043175999
		outer loop
			vertex 18.333568572998 1.3918780088425 0.29915991425514
			vertex 18.714782714844 1.5683426856995 0.19727796316147
			vertex 18.714782714844 1.828342795372 0.64761120080948
		endloop
	endfacet
	facet normal 0.098013902543464 -0.86185544614988 0.49759266961038
		outer loop
			vertex 19.153600692749 1.7436466217041 0.24500000476837
			vertex 19.128425598145 1.9370092153549 0.58487260341644
			vertex 19.128425598145 1.6770091056824 0.13453938066959
		endloop
	endfacet
	facet normal 0.098016691299039 -0.8618551176392 0.49759268928101
		outer loop
			vertex 19.309600830078 1.9201595783234 0.51999998092651
			vertex 19.128425598145 1.9370092153549 0.58487260341644
			vertex 19.153600692749 1.7436466217041 0.24500000476837
		endloop
	endfacet
	facet normal 0.63439234209385 -0.66944736490834 0.3865056039826
		outer loop
			vertex 18.333568572998 1.3918780088425 0.29915991425514
			vertex 18.333568572998 1.6518779993057 0.74949312210083
			vertex 17.999429702759 1.1543965339661 0.43626993894577
		endloop
	endfacet
	facet normal 0.47139809159556 -0.76376559804294 0.44096025953159
		outer loop
			vertex 18.333568572998 1.3918780088425 0.29915991425514
			vertex 18.714782714844 1.828342795372 0.64761120080948
			vertex 18.333568572998 1.6518779993057 0.74949312210083
		endloop
	endfacet
	facet normal 0.29028463931834 -0.82873457595717 0.47847030293312
		outer loop
			vertex 18.714782714844 1.5683426856995 0.19727796316147
			vertex 19.128425598145 1.9370092153549 0.58487260341644
			vertex 18.714782714844 1.828342795372 0.64761120080948
		endloop
	endfacet
	facet normal -0.098017564469803 -0.86185525383902 0.49759228137652
		outer loop
			vertex 19.963600158691 1.7436466217041 0.24500000476837
			vertex 19.988773345947 1.9370092153549 0.58487260341644
			vertex 19.807600021362 1.9201595783234 0.51999998092651
		endloop
	endfacet
	facet normal -0.29028462353426 -0.82873458010374 0.47847030532714
		outer loop
			vertex 19.988773345947 1.6770091056824 0.13453938066959
			vertex 20.402416229248 1.5683426856995 0.19727796316147
			vertex 20.402416229248 1.828342795372 0.64761120080948
		endloop
	endfacet
	facet normal -0.471396098193 -0.76376652079034 0.44096079228003
		outer loop
			vertex 20.783632278442 1.6518779993057 0.74949312210083
			vertex 20.402416229248 1.5683426856995 0.19727796316147
			vertex 20.783632278442 1.3918780088425 0.29915991425514
		endloop
	endfacet
	facet normal -0.098021257612712 -0.86185481878869 0.49759230740309
		outer loop
			vertex 19.963600158691 1.7436466217041 0.24500000476837
			vertex 19.988773345947 1.6770091056824 0.13453938066959
			vertex 19.988773345947 1.9370092153549 0.58487260341644
		endloop
	endfacet
	facet normal -0.29028463931834 -0.82873456910163 0.47847031480726
		outer loop
			vertex 19.988773345947 1.6770091056824 0.13453938066959
			vertex 20.402416229248 1.828342795372 0.64761120080948
			vertex 19.988773345947 1.9370092153549 0.58487260341644
		endloop
	endfacet
	facet normal 0.098017643653277 -0.86185513517548 0.49759247130992
		outer loop
			vertex 19.558599472046 1.9737013578415 0.56368833780289
			vertex 19.309600830078 1.9201595783234 0.51999998092651
			vertex 19.558599472046 1.9484778642654 0.51999998092651
		endloop
	endfacet
	facet normal -0.098017002299328 -0.86185609767487 0.49759093054526
		outer loop
			vertex 19.807600021362 1.9201595783234 0.51999998092651
			vertex 19.988773345947 1.9370092153549 0.58487260341644
			vertex 19.558599472046 1.9484778642654 0.51999998092651
		endloop
	endfacet
	facet normal 0.098017213170466 -0.86185433428307 0.4975939432909
		outer loop
			vertex 19.309600830078 1.9201595783234 0.51999998092651
			vertex 19.558599472046 1.9737013578415 0.56368833780289
			vertex 19.128425598145 1.9370092153549 0.58487260341644
		endloop
	endfacet
	facet normal -0.09801721317047 -0.86185517189407 0.49759249250942
		outer loop
			vertex 19.558599472046 1.9737013578415 0.56368833780289
			vertex 19.558599472046 1.9484778642654 0.51999998092651
			vertex 19.988773345947 1.9370092153549 0.58487260341644
		endloop
	endfacet
	facet normal -0.47139625714348 -0.76376637230224 0.4409608795476
		outer loop
			vertex 20.783632278442 1.6518779993057 0.74949312210083
			vertex 20.402416229248 1.828342795372 0.64761120080948
			vertex 20.402416229248 1.5683426856995 0.19727796316147
		endloop
	endfacet
	facet normal -0.63439234209385 -0.6694473538326 0.38650562316634
		outer loop
			vertex 21.117771148682 1.4143965244293 0.88660311698914
			vertex 20.783632278442 1.3918780088425 0.29915991425514
			vertex 21.117771148682 1.1543965339661 0.43626993894577
		endloop
	endfacet
	facet normal 0.77301105270188 -0.54940006292081 0.31719628507178
		outer loop
			vertex 17.725210189819 0.8650244474411 0.60333895683289
			vertex 17.999429702759 1.1543965339661 0.43626993894577
			vertex 17.999429702759 1.4143965244293 0.88660311698914
		endloop
	endfacet
	facet normal 0.63439232149464 -0.66944736847302 0.38650563161899
		outer loop
			vertex 17.999429702759 1.1543965339661 0.43626993894577
			vertex 18.333568572998 1.6518779993057 0.74949312210083
			vertex 17.999429702759 1.4143965244293 0.88660311698914
		endloop
	endfacet
	facet normal 0.77301108044952 -0.54940005181913 0.31719623667915
		outer loop
			vertex 17.725210189819 0.8650244474411 0.60333895683289
			vertex 17.999429702759 1.4143965244293 0.88660311698914
			vertex 17.725210189819 1.1250244379044 1.0536721944809
		endloop
	endfacet
	facet normal -0.77301105270188 -0.54940008110001 0.31719625358447
		outer loop
			vertex 21.117771148682 1.1543965339661 0.43626993894577
			vertex 21.391990661621 0.8650244474411 0.60333895683289
			vertex 21.391990661621 1.1250244379044 1.0536721944809
		endloop
	endfacet
	facet normal -0.88192117991787 -0.4082416826567 0.23569845343979
		outer loop
			vertex 21.391990661621 0.8650244474411 0.60333895683289
			vertex 21.595754623413 0.53488224744797 0.79394668340683
			vertex 21.595754623413 0.79488223791122 1.2442798614502
		endloop
	endfacet
	facet normal -0.63439232149464 -0.66944737954875 0.38650561243525
		outer loop
			vertex 20.783632278442 1.6518779993057 0.74949312210083
			vertex 20.783632278442 1.3918780088425 0.29915991425514
			vertex 21.117771148682 1.4143965244293 0.88660311698914
		endloop
	endfacet
	facet normal -0.77301108044952 -0.54940003363992 0.31719626816645
		outer loop
			vertex 21.391990661621 1.1250244379044 1.0536721944809
			vertex 21.117771148682 1.4143965244293 0.88660311698914
			vertex 21.117771148682 1.1543965339661 0.43626993894577
		endloop
	endfacet
	facet normal -0.95693983136333 -0.25139534260141 0.14514317368946
		outer loop
			vertex 21.692039489746 0.25999999046326 0.95265001058578
			vertex 21.692039489746 0.51999998092651 1.4029831886292
			vertex 21.595754623413 0.53488224744797 0.79394668340683
		endloop
	endfacet
	facet normal -0.88192116459701 -0.40824172098822 0.23569844437422
		outer loop
			vertex 21.595754623413 0.79488223791122 1.2442798614502
			vertex 21.391990661621 1.1250244379044 1.0536721944809
			vertex 21.391990661621 0.8650244474411 0.60333895683289
		endloop
	endfacet
	facet normal -0.95693983136333 -0.25139534260141 0.14514317368946
		outer loop
			vertex 21.595754623413 0.79488223791122 1.2442798614502
			vertex 21.595754623413 0.53488224744797 0.79394668340683
			vertex 21.692039489746 0.51999998092651 1.4029831886292
		endloop
	endfacet
endsolid