solid OpenSCAD_Model
  facet normal 1 -0 0
    outer loop
      vertex 16.4 18.9814 0.57
      vertex 16.4 21.693 0
      vertex 16.4 21.693 0.57
    endloop
  endfacet
  facet normal 1 0 0
    outer loop
      vertex 16.4 21.693 0
      vertex 16.4 18.9814 0.57
      vertex 16.4 18.9814 0
    endloop
  endfacet
  facet normal 0 0 1
    outer loop
      vertex 10.3634 21.693 0.57
      vertex 8.2 17.0339 0.57
      vertex 10.3634 17.9221 0.57
    endloop
  endfacet
  facet normal -0 0 1
    outer loop
      vertex 6.0367 21.693 0.57
      vertex 8.2 17.0339 0.57
      vertex 10.3634 21.693 0.57
    endloop
  endfacet
  facet normal -0 0 1
    outer loop
      vertex 6.0367 17.9221 0.57
      vertex 8.2 17.0339 0.57
      vertex 6.0367 21.693 0.57
    endloop
  endfacet
  facet normal 0 0 1
    outer loop
      vertex 8.2 17.0339 0.57
      vertex 6.0367 17.9221 0.57
      vertex 7.63 17.0339 0.57
    endloop
  endfacet
  facet normal -0 0 1
    outer loop
      vertex 5.4667 17.9221 0.57
      vertex 7.63 17.0339 0.57
      vertex 6.0367 17.9221 0.57
    endloop
  endfacet
  facet normal 0 0 1
    outer loop
      vertex 7.63 17.0339 0.57
      vertex 5.4667 17.9221 0.57
      vertex 5.4667 2.7116 0.57
    endloop
  endfacet
  facet normal 0 0 1
    outer loop
      vertex 7.63 17.0339 0.57
      vertex 5.4667 2.7116 0.57
      vertex 7.63 0.57 0.57
    endloop
  endfacet
  facet normal 0 0 1
    outer loop
      vertex 5.4667 2.7116 0.57
      vertex 4.1 0.57 0.57
      vertex 7.63 0.57 0.57
    endloop
  endfacet
  facet normal -0 0 1
    outer loop
      vertex 0 2.7116 0.57
      vertex 4.1 0.57 0.57
      vertex 5.4667 2.7116 0.57
    endloop
  endfacet
  facet normal 0 0 1
    outer loop
      vertex 0 0 0.57
      vertex 4.1 0.57 0.57
      vertex 0 2.7116 0.57
    endloop
  endfacet
  facet normal 0 0 1
    outer loop
      vertex 4.1 0.57 0.57
      vertex 0 0 0.57
      vertex 4.1 0 0.57
    endloop
  endfacet
  facet normal 0 0 1
    outer loop
      vertex 8.2 17.0339 0.57
      vertex 10.9334 17.9221 0.57
      vertex 10.3634 17.9221 0.57
    endloop
  endfacet
  facet normal 0 0 1
    outer loop
      vertex 16.4 2.7116 0.57
      vertex 12.3 0.57 0.57
      vertex 16.4 0 0.57
    endloop
  endfacet
  facet normal -0 0 1
    outer loop
      vertex 10.9334 2.7116 0.57
      vertex 12.3 0.57 0.57
      vertex 16.4 2.7116 0.57
    endloop
  endfacet
  facet normal 0 0 1
    outer loop
      vertex 10.9334 17.9221 0.57
      vertex 8.2 17.0339 0.57
      vertex 10.9334 2.7116 0.57
    endloop
  endfacet
  facet normal 0 0 1
    outer loop
      vertex 10.9334 2.7116 0.57
      vertex 8.2 0.57 0.57
      vertex 12.3 0.57 0.57
    endloop
  endfacet
  facet normal 0 0 1
    outer loop
      vertex 8.2 0.57 0.57
      vertex 10.9334 2.7116 0.57
      vertex 8.2 17.0339 0.57
    endloop
  endfacet
  facet normal 0 0 1
    outer loop
      vertex 16.4 0 0.57
      vertex 12.3 0.57 0.57
      vertex 12.3 0 0.57
    endloop
  endfacet
  facet normal -0 0 1
    outer loop
      vertex 0 21.693 0.57
      vertex 5.4667 18.9814 0.57
      vertex 5.4667 21.693 0.57
    endloop
  endfacet
  facet normal 0 0 1
    outer loop
      vertex 5.4667 18.9814 0.57
      vertex 0 21.693 0.57
      vertex 0 18.9814 0.57
    endloop
  endfacet
  facet normal -0 0 1
    outer loop
      vertex 10.9334 21.693 0.57
      vertex 16.4 18.9814 0.57
      vertex 16.4 21.693 0.57
    endloop
  endfacet
  facet normal 0 0 1
    outer loop
      vertex 16.4 18.9814 0.57
      vertex 10.9334 21.693 0.57
      vertex 10.9334 18.9814 0.57
    endloop
  endfacet
  facet normal 0 0 -1
    outer loop
      vertex 16.4 0 0
      vertex 10.9334 2.7116 0
      vertex 16.4 2.7116 0
    endloop
  endfacet
  facet normal 0 0 -1
    outer loop
      vertex 10.9334 2.7116 0
      vertex 5.4667 2.7116 0
      vertex 10.9334 18.9814 0
    endloop
  endfacet
  facet normal 0 0 -1
    outer loop
      vertex 16.4 0 0
      vertex 5.4667 2.7116 0
      vertex 10.9334 2.7116 0
    endloop
  endfacet
  facet normal 0 0 -1
    outer loop
      vertex 0 0 0
      vertex 5.4667 2.7116 0
      vertex 16.4 0 0
    endloop
  endfacet
  facet normal -0 0 -1
    outer loop
      vertex 5.4667 2.7116 0
      vertex 0 0 0
      vertex 0 2.7116 0
    endloop
  endfacet
  facet normal 0 0 -1
    outer loop
      vertex 10.9334 18.9814 0
      vertex 16.4 21.693 0
      vertex 16.4 18.9814 0
    endloop
  endfacet
  facet normal 0 0 -1
    outer loop
      vertex 5.4667 18.9814 0
      vertex 10.9334 18.9814 0
      vertex 5.4667 2.7116 0
    endloop
  endfacet
  facet normal 0 0 -1
    outer loop
      vertex 5.4667 18.9814 0
      vertex 16.4 21.693 0
      vertex 10.9334 18.9814 0
    endloop
  endfacet
  facet normal 0 0 -1
    outer loop
      vertex 0 21.693 0
      vertex 5.4667 18.9814 0
      vertex 0 18.9814 0
    endloop
  endfacet
  facet normal 0 0 -1
    outer loop
      vertex 5.4667 18.9814 0
      vertex 0 21.693 0
      vertex 16.4 21.693 0
    endloop
  endfacet
  facet normal -1 0 0
    outer loop
      vertex 0 18.9814 0
      vertex 0 21.693 0.57
      vertex 0 21.693 0
    endloop
  endfacet
  facet normal -1 -0 0
    outer loop
      vertex 0 21.693 0.57
      vertex 0 18.9814 0
      vertex 0 18.9814 0.57
    endloop
  endfacet
  facet normal 0 1 -0
    outer loop
      vertex 16.4 21.693 0
      vertex 10.9334 21.693 0.57
      vertex 16.4 21.693 0.57
    endloop
  endfacet
  facet normal 0 1 0
    outer loop
      vertex 10.9334 21.693 0.57
      vertex 16.4 21.693 0
      vertex 10.3634 21.693 0.57
    endloop
  endfacet
  facet normal 0 1 0
    outer loop
      vertex 10.3634 21.693 0.57
      vertex 16.4 21.693 0
      vertex 6.0367 21.693 0.57
    endloop
  endfacet
  facet normal 0 1 0
    outer loop
      vertex 0 21.693 0
      vertex 6.0367 21.693 0.57
      vertex 16.4 21.693 0
    endloop
  endfacet
  facet normal 0 1 0
    outer loop
      vertex 6.0367 21.693 0.57
      vertex 0 21.693 0
      vertex 5.4667 21.693 0.57
    endloop
  endfacet
  facet normal 0 1 0
    outer loop
      vertex 5.4667 21.693 0.57
      vertex 0 21.693 0
      vertex 0 21.693 0.57
    endloop
  endfacet
  facet normal 0 1 -0
    outer loop
      vertex 10.9334 21.693 0.57
      vertex 10.3634 21.693 7.10139
      vertex 10.9334 21.693 7.10139
    endloop
  endfacet
  facet normal 0 1 0
    outer loop
      vertex 10.3634 21.693 7.10139
      vertex 10.9334 21.693 0.57
      vertex 10.3634 21.693 0.57
    endloop
  endfacet
  facet normal 0 1 -0
    outer loop
      vertex 6.0367 21.693 0.57
      vertex 5.4667 21.693 7.10139
      vertex 6.0367 21.693 7.10139
    endloop
  endfacet
  facet normal 0 1 0
    outer loop
      vertex 5.4667 21.693 7.10139
      vertex 6.0367 21.693 0.57
      vertex 5.4667 21.693 0.57
    endloop
  endfacet
  facet normal 0 -1 0
    outer loop
      vertex 0 18.9814 0
      vertex 5.4667 18.9814 0.57
      vertex 0 18.9814 0.57
    endloop
  endfacet
  facet normal 0 -1 -0
    outer loop
      vertex 5.4667 18.9814 0.57
      vertex 0 18.9814 0
      vertex 5.4667 18.9814 0
    endloop
  endfacet
  facet normal 0 -1 0
    outer loop
      vertex 10.9334 18.9814 0
      vertex 16.4 18.9814 0.57
      vertex 10.9334 18.9814 0.57
    endloop
  endfacet
  facet normal 0 -1 -0
    outer loop
      vertex 16.4 18.9814 0.57
      vertex 10.9334 18.9814 0
      vertex 16.4 18.9814 0
    endloop
  endfacet
  facet normal -1 0 0
    outer loop
      vertex 5.4667 18.9814 0
      vertex 5.4667 17.9221 0.57
      vertex 5.4667 18.9814 0.57
    endloop
  endfacet
  facet normal -1 0 0
    outer loop
      vertex 5.4667 2.7116 0
      vertex 5.4667 17.9221 0.57
      vertex 5.4667 18.9814 0
    endloop
  endfacet
  facet normal -1 -0 0
    outer loop
      vertex 5.4667 17.9221 0.57
      vertex 5.4667 2.7116 0
      vertex 5.4667 2.7116 0.57
    endloop
  endfacet
  facet normal -1 0 0
    outer loop
      vertex 5.4667 18.9814 0.57
      vertex 5.4667 21.693 7.10139
      vertex 5.4667 21.693 0.57
    endloop
  endfacet
  facet normal -1 0 0
    outer loop
      vertex 5.4667 21.693 7.10139
      vertex 5.4667 18.9814 0.57
      vertex 5.4667 17.9221 0.57
    endloop
  endfacet
  facet normal 1 0 0
    outer loop
      vertex 6.0367 21.693 7.10139
      vertex 6.0367 17.9221 0.57
      vertex 6.0367 21.693 0.57
    endloop
  endfacet
  facet normal 0 -0.866025 0.5
    outer loop
      vertex 5.4667 17.9221 0.57
      vertex 6.0367 21.693 7.10139
      vertex 5.4667 21.693 7.10139
    endloop
  endfacet
  facet normal 0 -0.866025 0.5
    outer loop
      vertex 6.0367 21.693 7.10139
      vertex 5.4667 17.9221 0.57
      vertex 6.0367 17.9221 0.57
    endloop
  endfacet
  facet normal -1 0 0
    outer loop
      vertex 10.3634 21.693 0.57
      vertex 10.3634 17.9221 0.57
      vertex 10.3634 21.693 7.10139
    endloop
  endfacet
  facet normal 1 0 0
    outer loop
      vertex 10.9334 21.693 7.10139
      vertex 10.9334 18.9814 0.57
      vertex 10.9334 21.693 0.57
    endloop
  endfacet
  facet normal 1 0 0
    outer loop
      vertex 10.9334 17.9221 0.57
      vertex 10.9334 18.9814 0.57
      vertex 10.9334 21.693 7.10139
    endloop
  endfacet
  facet normal 1 -0 0
    outer loop
      vertex 10.9334 17.9221 0.57
      vertex 10.9334 18.9814 0
      vertex 10.9334 18.9814 0.57
    endloop
  endfacet
  facet normal 1 0 0
    outer loop
      vertex 10.9334 2.7116 0
      vertex 10.9334 17.9221 0.57
      vertex 10.9334 2.7116 0.57
    endloop
  endfacet
  facet normal 1 0 0
    outer loop
      vertex 10.9334 17.9221 0.57
      vertex 10.9334 2.7116 0
      vertex 10.9334 18.9814 0
    endloop
  endfacet
  facet normal 0 -0.866025 0.5
    outer loop
      vertex 10.3634 17.9221 0.57
      vertex 10.9334 21.693 7.10139
      vertex 10.3634 21.693 7.10139
    endloop
  endfacet
  facet normal 0 -0.866025 0.5
    outer loop
      vertex 10.9334 21.693 7.10139
      vertex 10.3634 17.9221 0.57
      vertex 10.9334 17.9221 0.57
    endloop
  endfacet
  facet normal 1 -0 0
    outer loop
      vertex 16.4 0 0.57
      vertex 16.4 2.7116 0
      vertex 16.4 2.7116 0.57
    endloop
  endfacet
  facet normal 1 0 0
    outer loop
      vertex 16.4 2.7116 0
      vertex 16.4 0 0.57
      vertex 16.4 0 0
    endloop
  endfacet
  facet normal -1 0 0
    outer loop
      vertex 0 0 0
      vertex 0 2.7116 0.57
      vertex 0 2.7116 0
    endloop
  endfacet
  facet normal -1 -0 0
    outer loop
      vertex 0 2.7116 0.57
      vertex 0 0 0
      vertex 0 0 0.57
    endloop
  endfacet
  facet normal 0 1 -0
    outer loop
      vertex 5.4667 2.7116 0
      vertex 0 2.7116 0.57
      vertex 5.4667 2.7116 0.57
    endloop
  endfacet
  facet normal 0 1 0
    outer loop
      vertex 0 2.7116 0.57
      vertex 5.4667 2.7116 0
      vertex 0 2.7116 0
    endloop
  endfacet
  facet normal 0 1 -0
    outer loop
      vertex 16.4 2.7116 0
      vertex 10.9334 2.7116 0.57
      vertex 16.4 2.7116 0.57
    endloop
  endfacet
  facet normal 0 1 0
    outer loop
      vertex 10.9334 2.7116 0.57
      vertex 16.4 2.7116 0
      vertex 10.9334 2.7116 0
    endloop
  endfacet
  facet normal 0 -1 0
    outer loop
      vertex 0 0 0
      vertex 4.1 0 0.57
      vertex 0 0 0.57
    endloop
  endfacet
  facet normal 0 -1 -0
    outer loop
      vertex 4.1 0 0.57
      vertex 0 0 0
      vertex 12.3 0 0.57
    endloop
  endfacet
  facet normal 0 -1 0
    outer loop
      vertex 16.4 0 0
      vertex 12.3 0 0.57
      vertex 0 0 0
    endloop
  endfacet
  facet normal 0 -1 0
    outer loop
      vertex 12.3 0 0.57
      vertex 16.4 0 0
      vertex 16.4 0 0.57
    endloop
  endfacet
  facet normal 0 -1 0
    outer loop
      vertex 4.1 0 0.57
      vertex 12.3 0 16.393
      vertex 4.1 0 16.393
    endloop
  endfacet
  facet normal 0 -1 -0
    outer loop
      vertex 12.3 0 16.393
      vertex 4.1 0 0.57
      vertex 12.3 0 0.57
    endloop
  endfacet
  facet normal 1 0 0
    outer loop
      vertex 12.3 1.1042 18.3055
      vertex 12.3 0.57 16.2403
      vertex 12.3 1.59783 18.0205
    endloop
  endfacet
  facet normal 1 -0 0
    outer loop
      vertex 12.3 0 16.393
      vertex 12.3 0.57 16.2403
      vertex 12.3 1.1042 18.3055
    endloop
  endfacet
  facet normal 1 0 0
    outer loop
      vertex 12.3 0 0.57
      vertex 12.3 0.57 16.2403
      vertex 12.3 0 16.393
    endloop
  endfacet
  facet normal 1 0 0
    outer loop
      vertex 12.3 0.57 16.2403
      vertex 12.3 0 0.57
      vertex 12.3 0.57 0.57
    endloop
  endfacet
  facet normal -1 0 0
    outer loop
      vertex 4.1 0.57 0.57
      vertex 4.1 0 0.57
      vertex 4.1 0.57 16.2403
    endloop
  endfacet
  facet normal -1 0 0
    outer loop
      vertex 4.1 0.57 16.2403
      vertex 4.1 1.1042 18.3055
      vertex 4.1 1.59783 18.0205
    endloop
  endfacet
  facet normal -1 0 0
    outer loop
      vertex 4.1 0.57 16.2403
      vertex 4.1 0 16.393
      vertex 4.1 1.1042 18.3055
    endloop
  endfacet
  facet normal -1 0 0
    outer loop
      vertex 4.1 0 16.393
      vertex 4.1 0.57 16.2403
      vertex 4.1 0 0.57
    endloop
  endfacet
  facet normal 0 1 -0
    outer loop
      vertex 12.3 0.57 0.57
      vertex 8.2 0.57 16.2403
      vertex 12.3 0.57 16.2403
    endloop
  endfacet
  facet normal 0 1 0
    outer loop
      vertex 8.2 0.57 16.2403
      vertex 12.3 0.57 0.57
      vertex 8.2 0.57 0.57
    endloop
  endfacet
  facet normal 0 1 -0
    outer loop
      vertex 7.63 0.57 0.57
      vertex 4.1 0.57 16.2403
      vertex 7.63 0.57 16.2403
    endloop
  endfacet
  facet normal 0 1 0
    outer loop
      vertex 4.1 0.57 16.2403
      vertex 7.63 0.57 0.57
      vertex 4.1 0.57 0.57
    endloop
  endfacet
  facet normal 0 -1 0
    outer loop
      vertex 8.03957 0.57 16.354
      vertex 8.2 0.57 16.393
      vertex 7.77211 0.57 16.393
    endloop
  endfacet
  facet normal 0 -1 -0
    outer loop
      vertex 8.2 0.57 16.393
      vertex 8.03957 0.57 16.354
      vertex 8.2 0.57 16.354
    endloop
  endfacet
  facet normal -0 0.500003 0.866023
    outer loop
      vertex 4.1 1.59783 18.0205
      vertex 5.62801 1.1042 18.3055
      vertex 5.62801 1.59783 18.0205
    endloop
  endfacet
  facet normal 0 0.500003 0.866023
    outer loop
      vertex 5.62801 1.1042 18.3055
      vertex 4.1 1.59783 18.0205
      vertex 4.1 1.1042 18.3055
    endloop
  endfacet
  facet normal -0 0.500003 0.866023
    outer loop
      vertex 10.772 1.59783 18.0205
      vertex 12.3 1.1042 18.3055
      vertex 12.3 1.59783 18.0205
    endloop
  endfacet
  facet normal 0 0.500003 0.866023
    outer loop
      vertex 12.3 1.1042 18.3055
      vertex 10.772 1.59783 18.0205
      vertex 10.772 1.1042 18.3055
    endloop
  endfacet
  facet normal 0 0.866021 -0.500007
    outer loop
      vertex 5.96104 1.27878 17.4679
      vertex 4.1 1.59783 18.0205
      vertex 5.62801 1.59783 18.0205
    endloop
  endfacet
  facet normal 1.45857e-05 0.866008 -0.50003
    outer loop
      vertex 4.1 0.57 16.2403
      vertex 5.96104 1.27878 17.4679
      vertex 6.13296 1.14332 17.2333
    endloop
  endfacet
  facet normal -4.18126e-06 0.866025 -0.500001
    outer loop
      vertex 4.1 0.57 16.2403
      vertex 6.13296 1.14332 17.2333
      vertex 6.33748 1.01971 17.0192
    endloop
  endfacet
  facet normal 7.85681e-06 0.86601 -0.500027
    outer loop
      vertex 4.1 0.57 16.2403
      vertex 6.33748 1.01971 17.0192
      vertex 6.57138 0.909888 16.829
    endloop
  endfacet
  facet normal -3.71524e-05 0.866092 -0.499885
    outer loop
      vertex 4.1 0.57 16.2403
      vertex 6.57138 0.909888 16.829
      vertex 6.83096 0.815589 16.6656
    endloop
  endfacet
  facet normal 0 0.866162 -0.499764
    outer loop
      vertex 7.63 0.62671 16.3385
      vertex 7.72124 0.639346 16.3604
      vertex 7.92129 0.62671 16.3385
    endloop
  endfacet
  facet normal 4.08643e-05 0.866088 -0.499891
    outer loop
      vertex 7.63 0.62671 16.3385
      vertex 7.41046 0.679244 16.4295
      vertex 7.72124 0.639346 16.3604
    endloop
  endfacet
  facet normal -7.11452e-05 0.865971 -0.500094
    outer loop
      vertex 7.63 0.57 16.2403
      vertex 7.41046 0.679244 16.4295
      vertex 7.63 0.62671 16.3385
    endloop
  endfacet
  facet normal -4.80984e-05 0.865983 -0.500074
    outer loop
      vertex 7.41046 0.679244 16.4295
      vertex 7.63 0.57 16.2403
      vertex 7.11213 0.738302 16.5318
    endloop
  endfacet
  facet normal 0 0.86602 -0.50001
    outer loop
      vertex 4.1 0.57 16.2403
      vertex 7.11213 0.738302 16.5318
      vertex 7.63 0.57 16.2403
    endloop
  endfacet
  facet normal 1.84851e-05 0.865937 -0.500153
    outer loop
      vertex 7.11213 0.738302 16.5318
      vertex 4.1 0.57 16.2403
      vertex 6.83096 0.815589 16.6656
    endloop
  endfacet
  facet normal -1.58094e-06 0.866019 -0.500011
    outer loop
      vertex 5.96104 1.27878 17.4679
      vertex 4.1 0.57 16.2403
      vertex 4.1 1.59783 18.0205
    endloop
  endfacet
  facet normal 0 0.866021 -0.500007
    outer loop
      vertex 12.3 1.59783 18.0205
      vertex 10.439 1.27878 17.4679
      vertex 10.772 1.59783 18.0205
    endloop
  endfacet
  facet normal 1.58097e-06 0.866019 -0.500011
    outer loop
      vertex 12.3 0.57 16.2403
      vertex 10.439 1.27878 17.4679
      vertex 12.3 1.59783 18.0205
    endloop
  endfacet
  facet normal -1.45837e-05 0.866008 -0.50003
    outer loop
      vertex 10.439 1.27878 17.4679
      vertex 12.3 0.57 16.2403
      vertex 10.267 1.14332 17.2333
    endloop
  endfacet
  facet normal 4.18134e-06 0.866025 -0.500001
    outer loop
      vertex 10.267 1.14332 17.2333
      vertex 12.3 0.57 16.2403
      vertex 10.0625 1.01971 17.0192
    endloop
  endfacet
  facet normal -7.85697e-06 0.86601 -0.500027
    outer loop
      vertex 10.0625 1.01971 17.0192
      vertex 12.3 0.57 16.2403
      vertex 9.82862 0.909888 16.829
    endloop
  endfacet
  facet normal 3.71524e-05 0.866092 -0.499885
    outer loop
      vertex 9.82862 0.909888 16.829
      vertex 12.3 0.57 16.2403
      vertex 9.56904 0.815589 16.6656
    endloop
  endfacet
  facet normal -1.84851e-05 0.865937 -0.500153
    outer loop
      vertex 12.3 0.57 16.2403
      vertex 9.28787 0.738302 16.5318
      vertex 9.56904 0.815589 16.6656
    endloop
  endfacet
  facet normal 4.13748e-06 0.866038 -0.499978
    outer loop
      vertex 12.3 0.57 16.2403
      vertex 8.98954 0.679244 16.4295
      vertex 9.28787 0.738302 16.5318
    endloop
  endfacet
  facet normal 1.77085e-07 0.866008 -0.50003
    outer loop
      vertex 12.3 0.57 16.2403
      vertex 8.67876 0.639346 16.3604
      vertex 8.98954 0.679244 16.4295
    endloop
  endfacet
  facet normal 0 0.866006 -0.500034
    outer loop
      vertex 8.2 0.57 16.2403
      vertex 8.67876 0.639346 16.3604
      vertex 12.3 0.57 16.2403
    endloop
  endfacet
  facet normal -6.46419e-05 0.866118 -0.49984
    outer loop
      vertex 8.67876 0.639346 16.3604
      vertex 8.2 0.57 16.2403
      vertex 8.36043 0.619239 16.3256
    endloop
  endfacet
  facet normal 0 0.866065 -0.499932
    outer loop
      vertex 8.36043 0.619239 16.3256
      vertex 8.2 0.57 16.2403
      vertex 8.2 0.619239 16.3256
    endloop
  endfacet
  facet normal 0 -0.866017 0.500014
    outer loop
      vertex 4.1 1.1042 18.3055
      vertex 5.96104 0.785144 17.7529
      vertex 5.62801 1.1042 18.3055
    endloop
  endfacet
  facet normal -3.32857e-06 -0.866022 0.500006
    outer loop
      vertex 4.1 0 16.393
      vertex 5.96104 0.785144 17.7529
      vertex 4.1 1.1042 18.3055
    endloop
  endfacet
  facet normal -1.52846e-05 -0.866015 0.500018
    outer loop
      vertex 5.96104 0.785144 17.7529
      vertex 4.1 0 16.393
      vertex 6.13296 0.649688 17.5183
    endloop
  endfacet
  facet normal -4.5658e-06 -0.866023 0.500004
    outer loop
      vertex 6.13296 0.649688 17.5183
      vertex 4.1 0 16.393
      vertex 6.33748 0.526075 17.3042
    endloop
  endfacet
  facet normal -1.27865e-05 -0.866015 0.500019
    outer loop
      vertex 6.33748 0.526075 17.3042
      vertex 4.1 0 16.393
      vertex 6.57138 0.416254 17.114
    endloop
  endfacet
  facet normal 0 -0.866071 0.499921
    outer loop
      vertex 8.03957 0.125605 16.6106
      vertex 4.1 0 16.393
      vertex 8.36043 0.125605 16.6106
    endloop
  endfacet
  facet normal -1.77462e-05 -0.865932 0.500162
    outer loop
      vertex 7.72124 0.145712 16.6454
      vertex 4.1 0 16.393
      vertex 8.03957 0.125605 16.6106
    endloop
  endfacet
  facet normal -3.4349e-06 -0.866021 0.500008
    outer loop
      vertex 7.41046 0.185609 16.7145
      vertex 4.1 0 16.393
      vertex 7.72124 0.145712 16.6454
    endloop
  endfacet
  facet normal 1.30273e-06 -0.866042 0.499972
    outer loop
      vertex 7.11213 0.244667 16.8168
      vertex 4.1 0 16.393
      vertex 7.41046 0.185609 16.7145
    endloop
  endfacet
  facet normal -3.01976e-05 -0.865945 0.500139
    outer loop
      vertex 6.83096 0.321955 16.9506
      vertex 4.1 0 16.393
      vertex 7.11213 0.244667 16.8168
    endloop
  endfacet
  facet normal 3.85791e-05 -0.866091 0.499887
    outer loop
      vertex 6.57138 0.416254 17.114
      vertex 4.1 0 16.393
      vertex 6.83096 0.321955 16.9506
    endloop
  endfacet
  facet normal 0 -0.866017 0.500014
    outer loop
      vertex 10.439 0.785144 17.7529
      vertex 12.3 1.1042 18.3055
      vertex 10.772 1.1042 18.3055
    endloop
  endfacet
  facet normal 1.52823e-05 -0.866015 0.500018
    outer loop
      vertex 12.3 0 16.393
      vertex 10.439 0.785144 17.7529
      vertex 10.267 0.649688 17.5183
    endloop
  endfacet
  facet normal 4.56589e-06 -0.866023 0.500004
    outer loop
      vertex 12.3 0 16.393
      vertex 10.267 0.649688 17.5183
      vertex 10.0625 0.526075 17.3042
    endloop
  endfacet
  facet normal 1.27867e-05 -0.866015 0.500019
    outer loop
      vertex 12.3 0 16.393
      vertex 10.0625 0.526075 17.3042
      vertex 9.82862 0.416254 17.114
    endloop
  endfacet
  facet normal -3.85791e-05 -0.866091 0.499887
    outer loop
      vertex 12.3 0 16.393
      vertex 9.82862 0.416254 17.114
      vertex 9.56904 0.321955 16.9506
    endloop
  endfacet
  facet normal 3.32864e-06 -0.866022 0.500006
    outer loop
      vertex 10.439 0.785144 17.7529
      vertex 12.3 0 16.393
      vertex 12.3 1.1042 18.3055
    endloop
  endfacet
  facet normal 3.01976e-05 -0.865945 0.500139
    outer loop
      vertex 9.28787 0.244667 16.8168
      vertex 12.3 0 16.393
      vertex 9.56904 0.321955 16.9506
    endloop
  endfacet
  facet normal -1.30273e-06 -0.866042 0.499972
    outer loop
      vertex 8.98954 0.185609 16.7145
      vertex 12.3 0 16.393
      vertex 9.28787 0.244667 16.8168
    endloop
  endfacet
  facet normal 3.4349e-06 -0.866021 0.500008
    outer loop
      vertex 8.67876 0.145712 16.6454
      vertex 12.3 0 16.393
      vertex 8.98954 0.185609 16.7145
    endloop
  endfacet
  facet normal 1.77462e-05 -0.865932 0.500162
    outer loop
      vertex 8.36043 0.125605 16.6106
      vertex 12.3 0 16.393
      vertex 8.67876 0.145712 16.6454
    endloop
  endfacet
  facet normal 0 -0.866071 0.499921
    outer loop
      vertex 12.3 0 16.393
      vertex 8.36043 0.125605 16.6106
      vertex 4.1 0 16.393
    endloop
  endfacet
  facet normal 0.368141 0.464885 0.805205
    outer loop
      vertex 7.11213 0.244667 16.8168
      vertex 7.41046 0.679244 16.4295
      vertex 7.11213 0.738302 16.5318
    endloop
  endfacet
  facet normal 0.368141 0.464885 0.805205
    outer loop
      vertex 7.41046 0.679244 16.4295
      vertex 7.11213 0.244667 16.8168
      vertex 7.41046 0.185609 16.7145
    endloop
  endfacet
  facet normal 0.844325 0.267915 0.464044
    outer loop
      vertex 5.96104 0.785144 17.7529
      vertex 6.13296 1.14332 17.2333
      vertex 5.96104 1.27878 17.4679
    endloop
  endfacet
  facet normal 0.844323 0.267918 0.464045
    outer loop
      vertex 6.13296 1.14332 17.2333
      vertex 5.96104 0.785144 17.7529
      vertex 6.13296 0.649688 17.5183
    endloop
  endfacet
  facet normal 0.587912 0.404463 0.700549
    outer loop
      vertex 6.57138 0.416254 17.114
      vertex 6.83096 0.815589 16.6656
      vertex 6.57138 0.909888 16.829
    endloop
  endfacet
  facet normal 0.587912 0.404463 0.700549
    outer loop
      vertex 6.83096 0.815589 16.6656
      vertex 6.57138 0.416254 17.114
      vertex 6.83096 0.321955 16.9506
    endloop
  endfacet
  facet normal 0.24868 0.484292 0.83882
    outer loop
      vertex 7.41046 0.185609 16.7145
      vertex 7.72124 0.639346 16.3604
      vertex 7.41046 0.679244 16.4295
    endloop
  endfacet
  facet normal 0.248679 0.484293 0.83882
    outer loop
      vertex 7.72124 0.639346 16.3604
      vertex 7.41046 0.185609 16.7145
      vertex 7.72124 0.145712 16.6454
    endloop
  endfacet
  facet normal 0.684518 0.364498 0.631329
    outer loop
      vertex 6.33748 0.526075 17.3042
      vertex 6.57138 0.909888 16.829
      vertex 6.33748 1.01971 17.0192
    endloop
  endfacet
  facet normal 0.684517 0.364499 0.63133
    outer loop
      vertex 6.57138 0.909888 16.829
      vertex 6.33748 0.526075 17.3042
      vertex 6.57138 0.416254 17.114
    endloop
  endfacet
  facet normal 0.481618 0.438191 0.758968
    outer loop
      vertex 6.83096 0.321955 16.9506
      vertex 7.11213 0.738302 16.5318
      vertex 6.83096 0.815589 16.6656
    endloop
  endfacet
  facet normal 0.481619 0.43819 0.758968
    outer loop
      vertex 7.11213 0.738302 16.5318
      vertex 6.83096 0.321955 16.9506
      vertex 7.11213 0.244667 16.8168
    endloop
  endfacet
  facet normal 0.88652 0.231346 0.4007
    outer loop
      vertex 5.62801 1.1042 18.3055
      vertex 5.96104 1.27878 17.4679
      vertex 5.62801 1.59783 18.0205
    endloop
  endfacet
  facet normal 0.886521 0.231343 0.4007
    outer loop
      vertex 5.96104 1.27878 17.4679
      vertex 5.62801 1.1042 18.3055
      vertex 5.96104 0.785144 17.7529
    endloop
  endfacet
  facet normal 0.770512 0.318714 0.552026
    outer loop
      vertex 6.13296 0.649688 17.5183
      vertex 6.33748 1.01971 17.0192
      vertex 6.13296 1.14332 17.2333
    endloop
  endfacet
  facet normal 0.770514 0.318711 0.552025
    outer loop
      vertex 6.33748 1.01971 17.0192
      vertex 6.13296 0.649688 17.5183
      vertex 6.33748 0.526075 17.3042
    endloop
  endfacet
  facet normal -0.125262 0.496062 0.859204
    outer loop
      vertex 8.36043 0.619239 16.3256
      vertex 8.67876 0.145712 16.6454
      vertex 8.67876 0.639346 16.3604
    endloop
  endfacet
  facet normal -0.125262 0.496062 0.859204
    outer loop
      vertex 8.67876 0.145712 16.6454
      vertex 8.36043 0.619239 16.3256
      vertex 8.36043 0.125605 16.6106
    endloop
  endfacet
  facet normal -0.684549 0.364483 0.631304
    outer loop
      vertex 9.82862 0.909888 16.829
      vertex 10.0625 0.526075 17.3042
      vertex 10.0625 1.01971 17.0192
    endloop
  endfacet
  facet normal -0.684548 0.364484 0.631304
    outer loop
      vertex 10.0625 0.526075 17.3042
      vertex 9.82862 0.909888 16.829
      vertex 9.82862 0.416254 17.114
    endloop
  endfacet
  facet normal -0.886537 0.23133 0.400672
    outer loop
      vertex 10.439 1.27878 17.4679
      vertex 10.772 1.1042 18.3055
      vertex 10.772 1.59783 18.0205
    endloop
  endfacet
  facet normal -0.886538 0.231327 0.400671
    outer loop
      vertex 10.772 1.1042 18.3055
      vertex 10.439 1.27878 17.4679
      vertex 10.439 0.785144 17.7529
    endloop
  endfacet
  facet normal 0.125391 0.495928 0.859263
    outer loop
      vertex 7.92129 0.62671 16.3385
      vertex 7.72124 0.639346 16.3604
      vertex 7.77211 0.57 16.393
    endloop
  endfacet
  facet normal 0.125282 0.496102 0.859178
    outer loop
      vertex 7.77211 0.57 16.393
      vertex 8.03957 0.125605 16.6106
      vertex 8.03957 0.57 16.354
    endloop
  endfacet
  facet normal 0.125606 0.49604 0.859166
    outer loop
      vertex 7.72124 0.145712 16.6454
      vertex 7.77211 0.57 16.393
      vertex 7.72124 0.639346 16.3604
    endloop
  endfacet
  facet normal 0.125262 0.496093 0.859186
    outer loop
      vertex 7.77211 0.57 16.393
      vertex 7.72124 0.145712 16.6454
      vertex 8.03957 0.125605 16.6106
    endloop
  endfacet
  facet normal -0.481618 0.438191 0.758968
    outer loop
      vertex 9.28787 0.738302 16.5318
      vertex 9.56904 0.321955 16.9506
      vertex 9.56904 0.815589 16.6656
    endloop
  endfacet
  facet normal -0.481619 0.43819 0.758968
    outer loop
      vertex 9.56904 0.321955 16.9506
      vertex 9.28787 0.738302 16.5318
      vertex 9.28787 0.244667 16.8168
    endloop
  endfacet
  facet normal 0 0.499629 0.86624
    outer loop
      vertex 8.2 0.57 16.354
      vertex 8.36043 0.619239 16.3256
      vertex 8.2 0.619239 16.3256
    endloop
  endfacet
  facet normal -0.000152107 0.5 0.866025
    outer loop
      vertex 8.36043 0.619239 16.3256
      vertex 8.2 0.57 16.354
      vertex 8.36043 0.125605 16.6106
    endloop
  endfacet
  facet normal 0 0.500042 0.866001
    outer loop
      vertex 8.03957 0.125605 16.6106
      vertex 8.2 0.57 16.354
      vertex 8.03957 0.57 16.354
    endloop
  endfacet
  facet normal 0 0.500042 0.866001
    outer loop
      vertex 8.2 0.57 16.354
      vertex 8.03957 0.125605 16.6106
      vertex 8.36043 0.125605 16.6106
    endloop
  endfacet
  facet normal -0.368141 0.464885 0.805205
    outer loop
      vertex 8.98954 0.679244 16.4295
      vertex 9.28787 0.244667 16.8168
      vertex 9.28787 0.738302 16.5318
    endloop
  endfacet
  facet normal -0.368141 0.464885 0.805205
    outer loop
      vertex 9.28787 0.244667 16.8168
      vertex 8.98954 0.679244 16.4295
      vertex 8.98954 0.185609 16.7145
    endloop
  endfacet
  facet normal -0.24868 0.484292 0.83882
    outer loop
      vertex 8.67876 0.639346 16.3604
      vertex 8.98954 0.185609 16.7145
      vertex 8.98954 0.679244 16.4295
    endloop
  endfacet
  facet normal -0.248679 0.484293 0.83882
    outer loop
      vertex 8.98954 0.185609 16.7145
      vertex 8.67876 0.639346 16.3604
      vertex 8.67876 0.145712 16.6454
    endloop
  endfacet
  facet normal -0.587912 0.404463 0.700549
    outer loop
      vertex 9.56904 0.815589 16.6656
      vertex 9.82862 0.416254 17.114
      vertex 9.82862 0.909888 16.829
    endloop
  endfacet
  facet normal -0.587912 0.404463 0.700549
    outer loop
      vertex 9.82862 0.416254 17.114
      vertex 9.56904 0.815589 16.6656
      vertex 9.56904 0.321955 16.9506
    endloop
  endfacet
  facet normal -0.770542 0.318696 0.551994
    outer loop
      vertex 10.0625 1.01971 17.0192
      vertex 10.267 0.649688 17.5183
      vertex 10.267 1.14332 17.2333
    endloop
  endfacet
  facet normal -0.770544 0.318693 0.551993
    outer loop
      vertex 10.267 0.649688 17.5183
      vertex 10.0625 1.01971 17.0192
      vertex 10.0625 0.526075 17.3042
    endloop
  endfacet
  facet normal -0.844212 0.268004 0.464198
    outer loop
      vertex 10.267 1.14332 17.2333
      vertex 10.439 0.785144 17.7529
      vertex 10.439 1.27878 17.4679
    endloop
  endfacet
  facet normal -0.844211 0.268007 0.464199
    outer loop
      vertex 10.439 0.785144 17.7529
      vertex 10.267 1.14332 17.2333
      vertex 10.267 0.649688 17.5183
    endloop
  endfacet
  facet normal 1 0 0
    outer loop
      vertex 8.2 0.57 16.393
      vertex 8.2 0.619239 16.3256
      vertex 8.2 17.0339 0.57
    endloop
  endfacet
  facet normal 1 0 0
    outer loop
      vertex 8.2 0.619239 16.3256
      vertex 8.2 0.57 16.393
      vertex 8.2 0.57 16.354
    endloop
  endfacet
  facet normal 1 -0 0
    outer loop
      vertex 8.2 0.57 16.2403
      vertex 8.2 17.0339 0.57
      vertex 8.2 0.619239 16.3256
    endloop
  endfacet
  facet normal 1 0 0
    outer loop
      vertex 8.2 17.0339 0.57
      vertex 8.2 0.57 16.2403
      vertex 8.2 0.57 0.57
    endloop
  endfacet
  facet normal 6.25051e-06 0.692934 0.721001
    outer loop
      vertex 8.2 17.0339 0.57
      vertex 7.92129 0.62671 16.3385
      vertex 8.2 0.57 16.393
    endloop
  endfacet
  facet normal -0 0.692934 0.721001
    outer loop
      vertex 7.63 17.0339 0.57
      vertex 7.92129 0.62671 16.3385
      vertex 8.2 17.0339 0.57
    endloop
  endfacet
  facet normal 0 0.692934 0.721001
    outer loop
      vertex 7.92129 0.62671 16.3385
      vertex 7.63 17.0339 0.57
      vertex 7.63 0.62671 16.3385
    endloop
  endfacet
  facet normal 0 0.692918 0.721016
    outer loop
      vertex 8.2 0.57 16.393
      vertex 7.92129 0.62671 16.3385
      vertex 7.77211 0.57 16.393
    endloop
  endfacet
  facet normal -1 0 0
    outer loop
      vertex 7.63 0.57 16.2403
      vertex 7.63 17.0339 0.57
      vertex 7.63 0.57 0.57
    endloop
  endfacet
  facet normal -1 0 0
    outer loop
      vertex 7.63 17.0339 0.57
      vertex 7.63 0.57 16.2403
      vertex 7.63 0.62671 16.3385
    endloop
  endfacet
endsolid OpenSCAD_Model
