solid csg_export
	facet normal 0 -1 0
		outer loop
			vertex 0.43500000238419 0.14499999582767 0
			vertex 6.9493999481201 0.14499999582767 0.086999997496605
			vertex 0.43500000238419 0.14499999582767 0.086999997496605
		endloop
	endfacet
	facet normal 0 0 -1
		outer loop
			vertex 0.43500000238419 0.14499999582767 0
			vertex 0.43500000238419 1.168799996376 0
			vertex 6.9493999481201 0.14499999582767 0
		endloop
	endfacet
	facet normal 0 -1 0
		outer loop
			vertex 0.43500000238419 0.14499999582767 0.34799998998642
			vertex 6.9493999481201 0.14499999582767 0.43500000238419
			vertex 0.43500000238419 0.14499999582767 0.43500000238419
		endloop
	endfacet
	facet normal 0 0 1
		outer loop
			vertex 0.43500000238419 0.14499999582767 0.43500000238419
			vertex 6.9493999481201 0.14499999582767 0.43500000238419
			vertex 0.43500000238419 1.168799996376 0.43500000238419
		endloop
	endfacet
	facet normal -1 0 0
		outer loop
			vertex 0.14499999582767 1.168799996376 0
			vertex 0.14499999582767 1.168799996376 0.086999997496605
			vertex 0.14499999582767 7.3522791862488 0
		endloop
	endfacet
	facet normal 0 0 -1
		outer loop
			vertex 0.14499999582767 1.168799996376 0
			vertex 0.14499999582767 7.3522791862488 0
			vertex 0.43500000238419 1.168799996376 0
		endloop
	endfacet
	facet normal 0 0 -1
		outer loop
			vertex 0.43500000238419 1.168799996376 0
			vertex 0.14499999582767 7.3522791862488 0
			vertex 6.9493999481201 0.14499999582767 0
		endloop
	endfacet
	facet normal -1 0 0
		outer loop
			vertex 0.14499999582767 1.168799996376 0.34799998998642
			vertex 0.14499999582767 1.168799996376 0.43500000238419
			vertex 0.14499999582767 7.3522791862488 0.34799998998642
		endloop
	endfacet
	facet normal 0 0 1
		outer loop
			vertex 0.14499999582767 1.168799996376 0.43500000238419
			vertex 0.43500000238419 1.168799996376 0.43500000238419
			vertex 0.14499999582767 7.3522791862488 0.43500000238419
		endloop
	endfacet
	facet normal -0 -0 1
		outer loop
			vertex 0.43500000238419 1.168799996376 0.43500000238419
			vertex 6.9493999481201 0.14499999582767 0.43500000238419
			vertex 0.14499999582767 7.3522791862488 0.43500000238419
		endloop
	endfacet
	facet normal 0 -1 0
		outer loop
			vertex 0.43500000238419 0.14499999582767 0
			vertex 6.9493999481201 0.14499999582767 0
			vertex 6.9493999481201 0.14499999582767 0.086999997496605
		endloop
	endfacet
	facet normal 0 -1 0
		outer loop
			vertex 0.43500000238419 0.14499999582767 0.34799998998642
			vertex 6.9493999481201 0.14499999582767 0.34799998998642
			vertex 6.9493999481201 0.14499999582767 0.43500000238419
		endloop
	endfacet
	facet normal 0.72713777935711 0.68649155117279 0
		outer loop
			vertex 0.14499999582767 7.3522791862488 0
			vertex 6.9493999481201 0.14499999582767 0.086999997496605
			vertex 6.9493999481201 0.14499999582767 0
		endloop
	endfacet
	facet normal 0.72713777935711 0.68649155117279 0
		outer loop
			vertex 0.14499999582767 7.3522791862488 0
			vertex 6.9493999481201 0.14499999582767 0.34799998998642
			vertex 6.9493999481201 0.14499999582767 0.086999997496605
		endloop
	endfacet
	facet normal 0.72713777935711 0.68649155117279 0
		outer loop
			vertex 0.14499999582767 7.3522791862488 0
			vertex 6.9493999481201 0.14499999582767 0.43500000238419
			vertex 6.9493999481201 0.14499999582767 0.34799998998642
		endloop
	endfacet
	facet normal -1 0 0
		outer loop
			vertex 0.14499999582767 1.168799996376 0.086999997496605
			vertex 0.14499999582767 7.3522791862488 0.086999997496605
			vertex 0.14499999582767 7.3522791862488 0
		endloop
	endfacet
	facet normal 0.72713777935711 0.68649155117279 -0
		outer loop
			vertex 0.14499999582767 7.3522791862488 0
			vertex 0.14499999582767 7.3522791862488 0.086999997496605
			vertex 6.9493999481201 0.14499999582767 0.43500000238419
		endloop
	endfacet
	facet normal 0.72713777935711 0.68649155117279 -0
		outer loop
			vertex 0.14499999582767 7.3522791862488 0.086999997496605
			vertex 0.14499999582767 7.3522791862488 0.34799998998642
			vertex 6.9493999481201 0.14499999582767 0.43500000238419
		endloop
	endfacet
	facet normal -1 0 0
		outer loop
			vertex 0.14499999582767 1.168799996376 0.43500000238419
			vertex 0.14499999582767 7.3522791862488 0.43500000238419
			vertex 0.14499999582767 7.3522791862488 0.34799998998642
		endloop
	endfacet
	facet normal 0.72713777935711 0.68649155117279 -0
		outer loop
			vertex 0.14499999582767 7.3522791862488 0.34799998998642
			vertex 0.14499999582767 7.3522791862488 0.43500000238419
			vertex 6.9493999481201 0.14499999582767 0.43500000238419
		endloop
	endfacet
	facet normal -1 0 0
		outer loop
			vertex 0.43500000238419 0.14499999582767 0
			vertex 0.43500000238419 0.14499999582767 0.086999997496605
			vertex 0.43500000238419 1.168799996376 0
		endloop
	endfacet
	facet normal -1 0 0
		outer loop
			vertex 0.43500000238419 1.168799996376 0
			vertex 0.43500000238419 0.14499999582767 0.086999997496605
			vertex 0.43500000238419 0.14499999582767 0.34799998998642
		endloop
	endfacet
	facet normal 0 -1 0
		outer loop
			vertex 0.14499999582767 1.168799996376 0
			vertex 0.43500000238419 1.168799996376 0
			vertex 0.43500000238419 1.168799996376 0.43500000238419
		endloop
	endfacet
	facet normal -1 0 0
		outer loop
			vertex 0.43500000238419 1.168799996376 0
			vertex 0.43500000238419 0.14499999582767 0.34799998998642
			vertex 0.43500000238419 0.14499999582767 0.43500000238419
		endloop
	endfacet
	facet normal 0 -1 0
		outer loop
			vertex 0.14499999582767 1.168799996376 0
			vertex 0.43500000238419 1.168799996376 0.43500000238419
			vertex 0.14499999582767 1.168799996376 0.086999997496605
		endloop
	endfacet
	facet normal 0 -1 0
		outer loop
			vertex 0.14499999582767 1.168799996376 0.086999997496605
			vertex 0.43500000238419 1.168799996376 0.43500000238419
			vertex 0.14499999582767 1.168799996376 0.34799998998642
		endloop
	endfacet
	facet normal -1 0 0
		outer loop
			vertex 0.43500000238419 1.168799996376 0
			vertex 0.43500000238419 0.14499999582767 0.43500000238419
			vertex 0.43500000238419 1.168799996376 0.43500000238419
		endloop
	endfacet
	facet normal 0 -1 0
		outer loop
			vertex 0.14499999582767 1.168799996376 0.34799998998642
			vertex 0.43500000238419 1.168799996376 0.43500000238419
			vertex 0.14499999582767 1.168799996376 0.43500000238419
		endloop
	endfacet
	facet normal 0 -1 0
		outer loop
			vertex 0 1.168799996376 0
			vertex 0.14499999582767 1.168799996376 0.086999997496605
			vertex 0 1.168799996376 0.43500000238419
		endloop
	endfacet
	facet normal 0 -1 0
		outer loop
			vertex 0.14499999582767 1.168799996376 0.086999997496605
			vertex 0.14499999582767 1.168799996376 0.34799998998642
			vertex 0 1.168799996376 0.43500000238419
		endloop
	endfacet
	facet normal 0.51449575542753 0 -0.85749292571254
		outer loop
			vertex 0 1.168799996376 0
			vertex 0.14499999582767 7.3522791862488 0.086999997496605
			vertex 0.14499999582767 1.168799996376 0.086999997496605
		endloop
	endfacet
	facet normal -1 0 0
		outer loop
			vertex 0 1.168799996376 0
			vertex 0 1.168799996376 0.43500000238419
			vertex 0 7.3522791862488 0
		endloop
	endfacet
	facet normal 0.51449582022286 0 0.85749288683534
		outer loop
			vertex 0.14499999582767 1.168799996376 0.34799998998642
			vertex 0 7.3522791862488 0.43500000238419
			vertex 0 1.168799996376 0.43500000238419
		endloop
	endfacet
	facet normal 0.51449575542753 0 -0.85749292571254
		outer loop
			vertex 0 1.168799996376 0
			vertex 0 7.3522791862488 0
			vertex 0.14499999582767 7.3522791862488 0.086999997496605
		endloop
	endfacet
	facet normal -1 0 0
		outer loop
			vertex 0 1.168799996376 0.43500000238419
			vertex 0 7.3522791862488 0.43500000238419
			vertex 0 7.3522791862488 0
		endloop
	endfacet
	facet normal 0.51449582022286 -0 0.85749288683534
		outer loop
			vertex 0.14499999582767 1.168799996376 0.34799998998642
			vertex 0.14499999582767 7.3522791862488 0.34799998998642
			vertex 0 7.3522791862488 0.43500000238419
		endloop
	endfacet
	facet normal 0 1 0
		outer loop
			vertex 0 7.3522791862488 0
			vertex 0 7.3522791862488 0.43500000238419
			vertex 0.14499999582767 7.3522791862488 0.086999997496605
		endloop
	endfacet
	facet normal 0 1 -0
		outer loop
			vertex 0.14499999582767 7.3522791862488 0.086999997496605
			vertex 0 7.3522791862488 0.43500000238419
			vertex 0.14499999582767 7.3522791862488 0.34799998998642
		endloop
	endfacet
	facet normal -1 0 0
		outer loop
			vertex 0.43500000238419 0 0
			vertex 0.43500000238419 0 0.43500000238419
			vertex 0.43500000238419 0.14499999582767 0.086999997496605
		endloop
	endfacet
	facet normal -1 0 0
		outer loop
			vertex 0.43500000238419 0.14499999582767 0.086999997496605
			vertex 0.43500000238419 0 0.43500000238419
			vertex 0.43500000238419 0.14499999582767 0.34799998998642
		endloop
	endfacet
	facet normal 0 0.51449575542753 -0.85749292571254
		outer loop
			vertex 0.43500000238419 0 0
			vertex 0.43500000238419 0.14499999582767 0.086999997496605
			vertex 6.9493999481201 0 0
		endloop
	endfacet
	facet normal 0 -1 0
		outer loop
			vertex 0.43500000238419 0 0
			vertex 6.9493999481201 0 0.43500000238419
			vertex 0.43500000238419 0 0.43500000238419
		endloop
	endfacet
	facet normal -0 0.51449582022286 0.85749288683534
		outer loop
			vertex 0.43500000238419 0.14499999582767 0.34799998998642
			vertex 0.43500000238419 0 0.43500000238419
			vertex 6.9493999481201 0.14499999582767 0.34799998998642
		endloop
	endfacet
	facet normal 0 0.51449575542753 -0.85749292571254
		outer loop
			vertex 0.43500000238419 0.14499999582767 0.086999997496605
			vertex 6.9493999481201 0.14499999582767 0.086999997496605
			vertex 6.9493999481201 0 0
		endloop
	endfacet
	facet normal 0 -1 0
		outer loop
			vertex 0.43500000238419 0 0
			vertex 6.9493999481201 0 0
			vertex 6.9493999481201 0 0.43500000238419
		endloop
	endfacet
	facet normal -0 0.51449582022286 0.85749288683534
		outer loop
			vertex 0.43500000238419 0 0.43500000238419
			vertex 6.9493999481201 0 0.43500000238419
			vertex 6.9493999481201 0.14499999582767 0.34799998998642
		endloop
	endfacet
	facet normal 1 0 0
		outer loop
			vertex 6.9493999481201 0 0
			vertex 6.9493999481201 0.14499999582767 0.086999997496605
			vertex 6.9493999481201 0 0.43500000238419
		endloop
	endfacet
	facet normal 1 0 -0
		outer loop
			vertex 6.9493999481201 0.14499999582767 0.086999997496605
			vertex 6.9493999481201 0.14499999582767 0.34799998998642
			vertex 6.9493999481201 0 0.43500000238419
		endloop
	endfacet
	facet normal -1 0 0
		outer loop
			vertex 7.249400138855 8.8843603134155 0
			vertex 7.249400138855 8.5943603515625 0
			vertex 7.249400138855 8.5943603515625 0.28999999165535
		endloop
	endfacet
	facet normal -1 0 0
		outer loop
			vertex 7.249400138855 8.8843603134155 0
			vertex 7.249400138855 8.5943603515625 0.28999999165535
			vertex 7.249400138855 8.5943603515625 1.3137999773026
		endloop
	endfacet
	facet normal -1 0 0
		outer loop
			vertex 7.249400138855 8.8843603134155 0
			vertex 7.249400138855 8.5943603515625 1.3137999773026
			vertex 7.249400138855 8.8843603134155 0.28999999165535
		endloop
	endfacet
	facet normal 0 -1 0
		outer loop
			vertex 7.249400138855 8.5943603515625 0.28999999165535
			vertex 9.1539001464844 8.5943603515625 0.28999999165535
			vertex 7.249400138855 8.5943603515625 1.3137999773026
		endloop
	endfacet
	facet normal -0 1 0
		outer loop
			vertex 9.5114688873291 8.8843603134155 0.12999999523163
			vertex 9.5319004058838 8.8843603134155 0.12999999523163
			vertex 11.34939956665 8.8843603134155 0
		endloop
	endfacet
	facet normal -0 1 0
		outer loop
			vertex 9.5319004058838 8.8843603134155 0.12999999523163
			vertex 10.925701141357 8.8843603134155 0.28999999165535
			vertex 11.34939956665 8.8843603134155 0
		endloop
	endfacet
	facet normal 1 0 0
		outer loop
			vertex 11.34939956665 8.8843603134155 0
			vertex 11.34939956665 8.6583728790283 0.28999999165535
			vertex 11.34939956665 8.5943603515625 0
		endloop
	endfacet
	facet normal 0 1 -0
		outer loop
			vertex 9.5319004058838 8.8843603134155 0.12999999523163
			vertex 9.5235147476196 8.8843603134155 0.14542198181152
			vertex 10.925701141357 8.8843603134155 0.28999999165535
		endloop
	endfacet
	facet normal 0 -1 0
		outer loop
			vertex 9.1539001464844 8.5943603515625 0.28999999165535
			vertex 9.444899559021 8.5943603515625 0.28999999165535
			vertex 7.249400138855 8.5943603515625 1.3137999773026
		endloop
	endfacet
	facet normal 0 1 0
		outer loop
			vertex 7.249400138855 8.8843603134155 0.28999999165535
			vertex 9.1688995361328 8.8843603134155 1.3137999773026
			vertex 9.1539001464844 8.8843603134155 0.28999999165535
		endloop
	endfacet
	facet normal 0 1 0
		outer loop
			vertex 9.1539001464844 8.8843603134155 0.28999999165535
			vertex 9.1688995361328 8.8843603134155 1.3137999773026
			vertex 9.1688995361328 8.8843603134155 0.28999999165535
		endloop
	endfacet
	facet normal 0 -1 0
		outer loop
			vertex 7.249400138855 8.5943603515625 1.3137999773026
			vertex 9.444899559021 8.5943603515625 0.28999999165535
			vertex 11.34939956665 8.5943603515625 0.28999999165535
		endloop
	endfacet
	facet normal 0 1 0
		outer loop
			vertex 9.4299001693726 8.8843603134155 0.28999999165535
			vertex 9.4299001693726 8.8843603134155 1.3137999773026
			vertex 9.444899559021 8.8843603134155 0.28999999165535
		endloop
	endfacet
	facet normal 0 1 -0
		outer loop
			vertex 9.444899559021 8.8843603134155 0.28999999165535
			vertex 9.4299001693726 8.8843603134155 1.3137999773026
			vertex 10.925701141357 8.8843603134155 0.28999999165535
		endloop
	endfacet
	facet normal 0 1 -0
		outer loop
			vertex 11.34939956665 8.8843603134155 0
			vertex 10.925701141357 8.8843603134155 0.28999999165535
			vertex 11.34939956665 8.8843603134155 1.3137999773026
		endloop
	endfacet
	facet normal 1 0 -0
		outer loop
			vertex 11.34939956665 8.8843603134155 0
			vertex 11.34939956665 8.8843603134155 1.3137999773026
			vertex 11.34939956665 8.6583728790283 0.28999999165535
		endloop
	endfacet
	facet normal 1 0 0
		outer loop
			vertex 11.34939956665 8.6583728790283 0.28999999165535
			vertex 11.34939956665 8.5943603515625 1.3137999773026
			vertex 11.34939956665 8.5943603515625 0.28999999165535
		endloop
	endfacet
	facet normal -1 0 0
		outer loop
			vertex 7.249400138855 8.8843603134155 0.28999999165535
			vertex 7.249400138855 8.5943603515625 1.3137999773026
			vertex 7.249400138855 8.8843603134155 1.3137999773026
		endloop
	endfacet
	facet normal 0 1 0
		outer loop
			vertex 7.249400138855 8.8843603134155 0.28999999165535
			vertex 7.249400138855 8.8843603134155 1.3137999773026
			vertex 9.1688995361328 8.8843603134155 1.3137999773026
		endloop
	endfacet
	facet normal 0 -1 0
		outer loop
			vertex 7.249400138855 8.5943603515625 1.3137999773026
			vertex 11.34939956665 8.5943603515625 0.28999999165535
			vertex 11.34939956665 8.5943603515625 1.3137999773026
		endloop
	endfacet
	facet normal 0 1 -0
		outer loop
			vertex 10.925701141357 8.8843603134155 0.28999999165535
			vertex 9.4299001693726 8.8843603134155 1.3137999773026
			vertex 11.34939956665 8.8843603134155 1.3137999773026
		endloop
	endfacet
	facet normal 1 0 -0
		outer loop
			vertex 11.34939956665 8.6583728790283 0.28999999165535
			vertex 11.34939956665 8.8843603134155 1.3137999773026
			vertex 11.34939956665 8.5943603515625 1.3137999773026
		endloop
	endfacet
	facet normal 0 0 1
		outer loop
			vertex 7.249400138855 8.8843603134155 1.3137999773026
			vertex 7.249400138855 8.5943603515625 1.3137999773026
			vertex 11.34939956665 8.5943603515625 1.3137999773026
		endloop
	endfacet
	facet normal -0 0 1
		outer loop
			vertex 7.249400138855 8.8843603134155 1.3137999773026
			vertex 11.34939956665 8.5943603515625 1.3137999773026
			vertex 9.1688995361328 8.8843603134155 1.3137999773026
		endloop
	endfacet
	facet normal -0 0 1
		outer loop
			vertex 9.1688995361328 8.8843603134155 1.3137999773026
			vertex 11.34939956665 8.5943603515625 1.3137999773026
			vertex 9.4299001693726 8.8843603134155 1.3137999773026
		endloop
	endfacet
	facet normal -0 0 1
		outer loop
			vertex 9.4299001693726 8.8843603134155 1.3137999773026
			vertex 11.34939956665 8.5943603515625 1.3137999773026
			vertex 11.34939956665 8.8843603134155 1.3137999773026
		endloop
	endfacet
	facet normal 0 0 -1
		outer loop
			vertex 9.0818996429443 9.0293607711792 0
			vertex 9.4299001693726 8.8843603134155 0
			vertex 9.1688995361328 8.8843603134155 0
		endloop
	endfacet
	facet normal 0 0 -1
		outer loop
			vertex 9.0818996429443 9.0293607711792 0
			vertex 9.516900062561 9.0293607711792 0
			vertex 9.4299001693726 8.8843603134155 0
		endloop
	endfacet
	facet normal 0.85749392096532 -0.51449409666927 0
		outer loop
			vertex 9.4299001693726 8.8843603134155 0
			vertex 9.516900062561 9.0293607711792 0
			vertex 9.4299001693726 8.8843603134155 0.12999999523163
		endloop
	endfacet
	facet normal 0.85749392096532 -0.51449409666927 0
		outer loop
			vertex 9.516900062561 9.0293607711792 0
			vertex 9.4299001693726 8.8843603134155 0.28999999165535
			vertex 9.4299001693726 8.8843603134155 0.12999999523163
		endloop
	endfacet
	facet normal -0.85749392096532 -0.51449409666927 0
		outer loop
			vertex 9.0818996429443 9.0293607711792 0
			vertex 9.1688995361328 8.8843603134155 0
			vertex 9.0818996429443 9.0293607711792 1.3137999773026
		endloop
	endfacet
	facet normal -0.85749392096532 -0.51449409666927 0
		outer loop
			vertex 9.1688995361328 8.8843603134155 0
			vertex 9.1688995361328 8.8843603134155 0.12999999523163
			vertex 9.0818996429443 9.0293607711792 1.3137999773026
		endloop
	endfacet
	facet normal 0 1 0
		outer loop
			vertex 9.0818996429443 9.0293607711792 0
			vertex 9.516900062561 9.0293607711792 1.3137999773026
			vertex 9.516900062561 9.0293607711792 0
		endloop
	endfacet
	facet normal -0.85749392096532 -0.51449409666927 0
		outer loop
			vertex 9.1688995361328 8.8843603134155 0.12999999523163
			vertex 9.1688995361328 8.8843603134155 0.28999999165535
			vertex 9.0818996429443 9.0293607711792 1.3137999773026
		endloop
	endfacet
	facet normal 0.85749392096532 -0.51449409666927 0
		outer loop
			vertex 9.516900062561 9.0293607711792 0
			vertex 9.4299001693726 8.8843603134155 1.3137999773026
			vertex 9.4299001693726 8.8843603134155 0.28999999165535
		endloop
	endfacet
	facet normal -0.85749392096532 -0.51449409666927 0
		outer loop
			vertex 9.1688995361328 8.8843603134155 0.28999999165535
			vertex 9.1688995361328 8.8843603134155 1.3137999773026
			vertex 9.0818996429443 9.0293607711792 1.3137999773026
		endloop
	endfacet
	facet normal 0 1 0
		outer loop
			vertex 9.0818996429443 9.0293607711792 0
			vertex 9.0818996429443 9.0293607711792 1.3137999773026
			vertex 9.516900062561 9.0293607711792 1.3137999773026
		endloop
	endfacet
	facet normal 0.85749392096532 -0.51449409666927 0
		outer loop
			vertex 9.516900062561 9.0293607711792 0
			vertex 9.516900062561 9.0293607711792 1.3137999773026
			vertex 9.4299001693726 8.8843603134155 1.3137999773026
		endloop
	endfacet
	facet normal 0 0 1
		outer loop
			vertex 9.0818996429443 9.0293607711792 1.3137999773026
			vertex 9.1688995361328 8.8843603134155 1.3137999773026
			vertex 9.4299001693726 8.8843603134155 1.3137999773026
		endloop
	endfacet
	facet normal -0 0 1
		outer loop
			vertex 9.0818996429443 9.0293607711792 1.3137999773026
			vertex 9.4299001693726 8.8843603134155 1.3137999773026
			vertex 9.516900062561 9.0293607711792 1.3137999773026
		endloop
	endfacet
	facet normal -1 0 0
		outer loop
			vertex 7.249400138855 1.4949604272842 0
			vertex 7.249400138855 1.4949604272842 0.28999999165535
			vertex 7.249400138855 1.5726656913757 0.28999999165535
		endloop
	endfacet
	facet normal -1 0 0
		outer loop
			vertex 7.249400138855 1.4949604272842 0
			vertex 7.249400138855 1.5726656913757 0.28999999165535
			vertex 7.249400138855 7.6522793769836 0.28999999165535
		endloop
	endfacet
	facet normal 1 0 0
		outer loop
			vertex 11.34939956665 1.590914607048 0.27946394681931
			vertex 11.34939956665 1.5726656913757 0.28999999165535
			vertex 11.34939956665 1.5300070047379 0.28999999165535
		endloop
	endfacet
	facet normal 0 0 1
		outer loop
			vertex 9.1539001464844 8.5943603515625 0.28999999165535
			vertex 7.249400138855 1.5726656913757 0.28999999165535
			vertex 9.1539001464844 1.5726656913757 0.28999999165535
		endloop
	endfacet
	facet normal 0 0 -1
		outer loop
			vertex 7.249400138855 1.4949604272842 0
			vertex 11.34939956665 8.5943603515625 0
			vertex 11.34939956665 1.4949604272842 0
		endloop
	endfacet
	facet normal 1 0 0
		outer loop
			vertex 11.34939956665 8.5943603515625 0
			vertex 11.34939956665 1.6399604082108 0.2511473596096
			vertex 11.34939956665 1.4949604272842 0
		endloop
	endfacet
	facet normal 0 0 1
		outer loop
			vertex 11.34939956665 8.5943603515625 0.28999999165535
			vertex 9.444899559021 1.5726656913757 0.28999999165535
			vertex 11.34939956665 1.5726656913757 0.28999999165535
		endloop
	endfacet
	facet normal 1 0 0
		outer loop
			vertex 11.34939956665 8.5943603515625 0.28999999165535
			vertex 11.34939956665 1.5726656913757 0.28999999165535
			vertex 11.34939956665 1.590914607048 0.27946394681931
		endloop
	endfacet
	facet normal 1 0 0
		outer loop
			vertex 11.34939956665 8.6583728790283 0.28999999165535
			vertex 11.34939956665 1.590914607048 0.27946394681931
			vertex 11.34939956665 1.6399604082108 0.2511473596096
		endloop
	endfacet
	facet normal -1 0 0
		outer loop
			vertex 7.249400138855 1.4949604272842 0
			vertex 7.249400138855 7.6522793769836 0.28999999165535
			vertex 7.249400138855 7.6522793769836 0
		endloop
	endfacet
	facet normal 0 0 -1
		outer loop
			vertex 9.1688995361328 8.8843603134155 0
			vertex 7.249400138855 1.4949604272842 0
			vertex 7.249400138855 7.6522793769836 0
		endloop
	endfacet
	facet normal 0 0 1
		outer loop
			vertex 7.249400138855 1.5726656913757 0.28999999165535
			vertex 7.6914081573486 7.6522793769836 0.28999999165535
			vertex 7.249400138855 7.6522793769836 0.28999999165535
		endloop
	endfacet
	facet normal 0 0 1
		outer loop
			vertex 9.1539001464844 8.5943603515625 0.28999999165535
			vertex 7.6914081573486 7.6522793769836 0.28999999165535
			vertex 7.249400138855 1.5726656913757 0.28999999165535
		endloop
	endfacet
	facet normal -1 0 0
		outer loop
			vertex 7.249400138855 8.5943603515625 0
			vertex 7.249400138855 7.9074730873108 0
			vertex 7.249400138855 8.5943603515625 0.28999999165535
		endloop
	endfacet
	facet normal 0 0 -1
		outer loop
			vertex 9.1688995361328 8.8843603134155 0
			vertex 7.249400138855 7.6522793769836 0
			vertex 7.249400138855 7.9074730873108 0
		endloop
	endfacet
	facet normal 0 0 -1
		outer loop
			vertex 7.249400138855 8.5943603515625 0
			vertex 9.1688995361328 8.8843603134155 0
			vertex 7.249400138855 7.9074730873108 0
		endloop
	endfacet
	facet normal -1 -0 0
		outer loop
			vertex 7.249400138855 8.5943603515625 0.28999999165535
			vertex 7.249400138855 7.9074730873108 0
			vertex 7.249400138855 7.9074730873108 0.28999999165535
		endloop
	endfacet
	facet normal 0 0 1
		outer loop
			vertex 9.1539001464844 8.5943603515625 0.28999999165535
			vertex 7.249400138855 7.9074730873108 0.28999999165535
			vertex 7.6914081573486 7.6522793769836 0.28999999165535
		endloop
	endfacet
	facet normal -0 0 1
		outer loop
			vertex 7.249400138855 8.5943603515625 0.28999999165535
			vertex 7.249400138855 7.9074730873108 0.28999999165535
			vertex 9.1539001464844 8.5943603515625 0.28999999165535
		endloop
	endfacet
	facet normal 0 0 -1
		outer loop
			vertex 7.249400138855 8.8843603134155 0
			vertex 9.1688995361328 8.8843603134155 0
			vertex 7.249400138855 8.5943603515625 0
		endloop
	endfacet
	facet normal 0 1 0
		outer loop
			vertex 7.249400138855 8.8843603134155 0
			vertex 9.0669002532959 8.8843603134155 0.12999999523163
			vertex 9.1688995361328 8.8843603134155 0
		endloop
	endfacet
	facet normal 0 1 0
		outer loop
			vertex 7.249400138855 8.8843603134155 0
			vertex 7.249400138855 8.8843603134155 0.28999999165535
			vertex 9.0669002532959 8.8843603134155 0.12999999523163
		endloop
	endfacet
	facet normal -0 1 0
		outer loop
			vertex 7.249400138855 8.8843603134155 0.28999999165535
			vertex 9.1539001464844 8.8843603134155 0.28999999165535
			vertex 9.0669002532959 8.8843603134155 0.12999999523163
		endloop
	endfacet
	facet normal 0 -0 -1
		outer loop
			vertex 9.1688995361328 8.8843603134155 0
			vertex 9.4299001693726 8.8843603134155 0
			vertex 7.249400138855 1.4949604272842 0
		endloop
	endfacet
	facet normal 0 0 -1
		outer loop
			vertex 7.249400138855 1.4949604272842 0
			vertex 9.4299001693726 8.8843603134155 0
			vertex 11.34939956665 8.8843603134155 0
		endloop
	endfacet
	facet normal 0 0 -1
		outer loop
			vertex 7.249400138855 1.4949604272842 0
			vertex 11.34939956665 8.8843603134155 0
			vertex 11.34939956665 8.5943603515625 0
		endloop
	endfacet
	facet normal -0 0 1
		outer loop
			vertex 9.444899559021 8.5943603515625 0.28999999165535
			vertex 9.444899559021 1.5726656913757 0.28999999165535
			vertex 11.34939956665 8.5943603515625 0.28999999165535
		endloop
	endfacet
	facet normal 1 0 -0
		outer loop
			vertex 11.34939956665 8.5943603515625 0
			vertex 11.34939956665 8.6583728790283 0.28999999165535
			vertex 11.34939956665 1.6399604082108 0.2511473596096
		endloop
	endfacet
	facet normal 1 0 0
		outer loop
			vertex 11.34939956665 8.6583728790283 0.28999999165535
			vertex 11.34939956665 8.5943603515625 0.28999999165535
			vertex 11.34939956665 1.590914607048 0.27946394681931
		endloop
	endfacet
	facet normal 0 1 -0
		outer loop
			vertex 9.1688995361328 8.8843603134155 0
			vertex 9.0669002532959 8.8843603134155 0.12999999523163
			vertex 9.1688995361328 8.8843603134155 0.12999999523163
		endloop
	endfacet
	facet normal 0 1 0
		outer loop
			vertex 9.4299001693726 8.8843603134155 0
			vertex 9.4299001693726 8.8843603134155 0.12999999523163
			vertex 9.5114688873291 8.8843603134155 0.12999999523163
		endloop
	endfacet
	facet normal 0 1 0
		outer loop
			vertex 9.4299001693726 8.8843603134155 0
			vertex 9.5114688873291 8.8843603134155 0.12999999523163
			vertex 11.34939956665 8.8843603134155 0
		endloop
	endfacet
	facet normal 0 1 -0
		outer loop
			vertex 9.5235147476196 8.8843603134155 0.14542198181152
			vertex 9.444899559021 8.8843603134155 0.28999999165535
			vertex 10.925701141357 8.8843603134155 0.28999999165535
		endloop
	endfacet
	facet normal 6.2696749773264e-09 -0.49999997322314 -0.86602541924406
		outer loop
			vertex 7.249400138855 1.4949604272842 0
			vertex 8.0230722427368 0.92711561918259 0.32784533500671
			vertex 7.7985973358154 0.69023734331131 0.4646070599556
		endloop
	endfacet
	facet normal -1.513642181893e-08 -0.49999999509703 -0.86602540661517
		outer loop
			vertex 7.249400138855 1.4949604272842 0
			vertex 8.2965955734253 1.12151658535 0.21560788154602
			vertex 8.0230722427368 0.92711561918259 0.32784533500671
		endloop
	endfacet
	facet normal 7.7559352778635e-09 -0.49999986662237 -0.86602548079004
		outer loop
			vertex 7.249400138855 1.4949604272842 0
			vertex 8.9472618103027 1.354923248291 0.08085048943758
			vertex 8.6086559295654 1.2659695148468 0.13220793008804
		endloop
	endfacet
	facet normal -1.4492724319312e-08 -0.50000006893551 -0.8660253639845
		outer loop
			vertex 7.249400138855 1.4949604272842 0
			vertex 9.2994003295898 1.3849592208862 0.063509203493595
			vertex 8.9472618103027 1.354923248291 0.08085048943758
		endloop
	endfacet
	facet normal -2.6444660936107e-08 -0.5000000188796 -0.8660253928843
		outer loop
			vertex 7.249400138855 1.4949604272842 0
			vertex 8.6086559295654 1.2659695148468 0.13220793008804
			vertex 8.2965955734253 1.12151658535 0.21560788154602
		endloop
	endfacet
	facet normal -0 0.49999973063543 0.86602555930209
		outer loop
			vertex 7.249400138855 1.5726656913757 0.28999999165535
			vertex 8.9472618103027 1.4999232292175 0.3319978415966
			vertex 9.1539001464844 1.5726656913757 0.28999999165535
		endloop
	endfacet
	facet normal -8.0328666586696e-08 -0.50000001754854 -0.86602539365278
		outer loop
			vertex 7.249400138855 1.4949604272842 0
			vertex 7.7985973358154 0.69023734331131 0.4646070599556
			vertex 7.6317973136902 0.41998487710953 0.6206374168396
		endloop
	endfacet
	facet normal -1 0 0
		outer loop
			vertex 7.249400138855 1.4949604272842 0
			vertex 7.249400138855 0.28999999165535 1.0305473804474
			vertex 7.249400138855 1.4949604272842 0.28999999165535
		endloop
	endfacet
	facet normal 8.6502275435731e-08 -0.49999997303892 -0.86602541935042
		outer loop
			vertex 7.249400138855 1.4949604272842 0
			vertex 7.6317973136902 0.41998487710953 0.6206374168396
			vertex 7.5354771614075 0.14499999582767 0.77939999103546
		endloop
	endfacet
	facet normal 0 -0.49999998678727 -0.86602541141281
		outer loop
			vertex 7.249400138855 1.4949604272842 0
			vertex 7.5354771614075 0.14499999582767 0.77939999103546
			vertex 7.249400138855 0.14499999582767 0.77939999103546
		endloop
	endfacet
	facet normal -1 0 0
		outer loop
			vertex 7.249400138855 1.5726656913757 0.28999999165535
			vertex 7.249400138855 1.4949604272842 0.28999999165535
			vertex 7.249400138855 0.28999999165535 1.0305473804474
		endloop
	endfacet
	facet normal -9.300511513521e-08 0.4999999405089 0.86602543813163
		outer loop
			vertex 7.249400138855 1.5726656913757 0.28999999165535
			vertex 7.7985973358154 0.83523732423782 0.71575444936752
			vertex 8.0230722427368 1.0721156597137 0.57899272441864
		endloop
	endfacet
	facet normal -1 0 0
		outer loop
			vertex 7.249400138855 1.4949604272842 0
			vertex 7.249400138855 0.14499999582767 0.77939999103546
			vertex 7.249400138855 0.28999999165535 1.0305473804474
		endloop
	endfacet
	facet normal -7.9276340157189e-08 0.49999994817725 0.86602543370431
		outer loop
			vertex 7.249400138855 1.5726656913757 0.28999999165535
			vertex 7.6317973136902 0.56498485803604 0.87178474664688
			vertex 7.7985973358154 0.83523732423782 0.71575444936752
		endloop
	endfacet
	facet normal 3.009918516687e-08 0.50000001295847 0.86602539630286
		outer loop
			vertex 7.249400138855 1.5726656913757 0.28999999165535
			vertex 8.2965955734253 1.2665165662766 0.46675524115562
			vertex 8.6086559295654 1.4109694957733 0.38335528969765
		endloop
	endfacet
	facet normal 8.2634146841135e-09 0.49999987529103 0.86602547578518
		outer loop
			vertex 7.249400138855 1.5726656913757 0.28999999165535
			vertex 8.6086559295654 1.4109694957733 0.38335528969765
			vertex 8.9472618103027 1.4999232292175 0.3319978415966
		endloop
	endfacet
	facet normal 8.0062464307168e-08 0.50000014113453 0.86602532230036
		outer loop
			vertex 7.249400138855 1.5726656913757 0.28999999165535
			vertex 8.0230722427368 1.0721156597137 0.57899272441864
			vertex 8.2965955734253 1.2665165662766 0.46675524115562
		endloop
	endfacet
	facet normal 0 -0.49999986636893 -0.86602548093636
		outer loop
			vertex 7.249400138855 1.4949604272842 0
			vertex 11.34939956665 1.4949604272842 0
			vertex 9.2994003295898 1.3849592208862 0.063509203493595
		endloop
	endfacet
	facet normal -2.6827105634738e-08 0.49999978779094 0.86602552630336
		outer loop
			vertex 9.1539001464844 1.5726656913757 0.28999999165535
			vertex 8.9472618103027 1.4999232292175 0.3319978415966
			vertex 9.2994003295898 1.5299592018127 0.31465658545494
		endloop
	endfacet
	facet normal -0 0.49999985634053 0.86602548672626
		outer loop
			vertex 9.1539001464844 1.5726656913757 0.28999999165535
			vertex 9.2994003295898 1.5299592018127 0.31465658545494
			vertex 9.444899559021 1.5726656913757 0.28999999165535
		endloop
	endfacet
	facet normal 2.6827201522652e-08 0.49999978779115 0.86602552630324
		outer loop
			vertex 9.2994003295898 1.5299592018127 0.31465658545494
			vertex 9.6515378952026 1.4999232292175 0.3319978415966
			vertex 9.444899559021 1.5726656913757 0.28999999165535
		endloop
	endfacet
	facet normal 1.513642181893e-08 -0.49999999509703 -0.86602540661517
		outer loop
			vertex 10.30220413208 1.12151658535 0.21560788154602
			vertex 11.34939956665 1.4949604272842 0
			vertex 10.575727462769 0.92711561918259 0.32784533500671
		endloop
	endfacet
	facet normal -6.2696749773264e-09 -0.49999997322314 -0.86602541924406
		outer loop
			vertex 10.575727462769 0.92711561918259 0.32784533500671
			vertex 11.34939956665 1.4949604272842 0
			vertex 10.80020236969 0.69023734331131 0.4646070599556
		endloop
	endfacet
	facet normal 1.4492743614647e-08 -0.50000006893568 -0.8660253639844
		outer loop
			vertex 9.2994003295898 1.3849592208862 0.063509203493595
			vertex 11.34939956665 1.4949604272842 0
			vertex 9.6515378952026 1.354923248291 0.08085048943758
		endloop
	endfacet
	facet normal -7.7559352778635e-09 -0.49999986662237 -0.86602548079004
		outer loop
			vertex 9.6515378952026 1.354923248291 0.08085048943758
			vertex 11.34939956665 1.4949604272842 0
			vertex 9.9901437759399 1.2659695148468 0.13220793008804
		endloop
	endfacet
	facet normal 2.6444660936107e-08 -0.5000000188796 -0.8660253928843
		outer loop
			vertex 9.9901437759399 1.2659695148468 0.13220793008804
			vertex 11.34939956665 1.4949604272842 0
			vertex 10.30220413208 1.12151658535 0.21560788154602
		endloop
	endfacet
	facet normal -0 0.49999973063543 0.86602555930209
		outer loop
			vertex 9.444899559021 1.5726656913757 0.28999999165535
			vertex 9.6515378952026 1.4999232292175 0.3319978415966
			vertex 11.34939956665 1.5726656913757 0.28999999165535
		endloop
	endfacet
	facet normal 1 0 0
		outer loop
			vertex 11.34939956665 1.4949604272842 0
			vertex 11.34939956665 1.6399604082108 0.2511473596096
			vertex 11.34939956665 1.5300070047379 0.28999999165535
		endloop
	endfacet
	facet normal 1 0 0
		outer loop
			vertex 11.34939956665 1.6399604082108 0.2511473596096
			vertex 11.34939956665 1.590914607048 0.27946394681931
			vertex 11.34939956665 1.5300070047379 0.28999999165535
		endloop
	endfacet
	facet normal 8.0328557533615e-08 -0.50000001754849 -0.86602539365281
		outer loop
			vertex 11.34939956665 1.4949604272842 0
			vertex 10.967002868652 0.41998487710953 0.6206374168396
			vertex 10.80020236969 0.69023734331131 0.4646070599556
		endloop
	endfacet
	facet normal 1 0 -0
		outer loop
			vertex 11.34939956665 1.4949604272842 0
			vertex 11.34939956665 1.5300070047379 0.28999999165535
			vertex 11.34939956665 0.14499999582767 0.77939999103546
		endloop
	endfacet
	facet normal -3.4970747899595e-08 -0.49999998678727 -0.86602541141281
		outer loop
			vertex 11.34939956665 1.4949604272842 0
			vertex 11.34939956665 0.14499999582767 0.77939999103546
			vertex 10.967002868652 0.41998487710953 0.6206374168396
		endloop
	endfacet
	facet normal 9.300511513521e-08 0.4999999405089 0.86602543813163
		outer loop
			vertex 11.34939956665 1.5726656913757 0.28999999165535
			vertex 10.575727462769 1.0721156597137 0.57899272441864
			vertex 10.80020236969 0.83523732423782 0.71575444936752
		endloop
	endfacet
	facet normal 1 0 0
		outer loop
			vertex 11.34939956665 1.5726656913757 0.28999999165535
			vertex 11.34939956665 0.28999999165535 1.0305473804474
			vertex 11.34939956665 1.5300070047379 0.28999999165535
		endloop
	endfacet
	facet normal 7.9276237454176e-08 0.4999999481773 0.86602543370428
		outer loop
			vertex 11.34939956665 1.5726656913757 0.28999999165535
			vertex 10.80020236969 0.83523732423782 0.71575444936752
			vertex 10.967002868652 0.56498485803604 0.87178474664688
		endloop
	endfacet
	facet normal -8.2634146841135e-09 0.49999987529103 0.86602547578518
		outer loop
			vertex 9.6515378952026 1.4999232292175 0.3319978415966
			vertex 9.9901437759399 1.4109694957733 0.38335528969765
			vertex 11.34939956665 1.5726656913757 0.28999999165535
		endloop
	endfacet
	facet normal -3.009918516687e-08 0.50000001295847 0.86602539630286
		outer loop
			vertex 9.9901437759399 1.4109694957733 0.38335528969765
			vertex 10.30220413208 1.2665165662766 0.46675524115562
			vertex 11.34939956665 1.5726656913757 0.28999999165535
		endloop
	endfacet
	facet normal -8.0062464307168e-08 0.50000014113453 0.86602532230036
		outer loop
			vertex 10.30220413208 1.2665165662766 0.46675524115562
			vertex 10.575727462769 1.0721156597137 0.57899272441864
			vertex 11.34939956665 1.5726656913757 0.28999999165535
		endloop
	endfacet
	facet normal 1.0596960375098e-07 0.50000000090043 0.86602540326457
		outer loop
			vertex 7.249400138855 1.5726656913757 0.28999999165535
			vertex 7.249400138855 0.28999999165535 1.0305473804474
			vertex 7.6317973136902 0.56498485803604 0.87178474664688
		endloop
	endfacet
	facet normal 0 -0.86602542925092 0.49999995589076
		outer loop
			vertex 7.249400138855 0.14499999582767 0.77939999103546
			vertex 7.5354771614075 0.14499999582767 0.77939999103546
			vertex 7.5354771614075 0.28999999165535 1.0305473804474
		endloop
	endfacet
	facet normal 0 -0.86602542925092 0.49999995589076
		outer loop
			vertex 7.249400138855 0.14499999582767 0.77939999103546
			vertex 7.5354771614075 0.28999999165535 1.0305473804474
			vertex 7.249400138855 0.28999999165535 1.0305473804474
		endloop
	endfacet
	facet normal 0 0.50000011142235 0.8660253394547
		outer loop
			vertex 7.6317973136902 0.56498485803604 0.87178474664688
			vertex 7.249400138855 0.28999999165535 1.0305473804474
			vertex 7.5354771614075 0.28999999165535 1.0305473804474
		endloop
	endfacet
	facet normal 0 -0.49999995031427 -0.86602543247051
		outer loop
			vertex 10.967002868652 0.41998487710953 0.6206374168396
			vertex 11.34939956665 0.14499999582767 0.77939999103546
			vertex 11.063323020935 0.14499999582767 0.77939999103546
		endloop
	endfacet
	facet normal -2.5703945317324e-07 0.50000004389659 0.86602537844069
		outer loop
			vertex 11.34939956665 1.5726656913757 0.28999999165535
			vertex 10.967002868652 0.56498485803604 0.87178474664688
			vertex 11.063323020935 0.28999999165535 1.0305473804474
		endloop
	endfacet
	facet normal 1 0 0
		outer loop
			vertex 11.34939956665 1.5300070047379 0.28999999165535
			vertex 11.34939956665 0.28999999165535 1.0305473804474
			vertex 11.34939956665 0.14499999582767 0.77939999103546
		endloop
	endfacet
	facet normal 0 0.50000000090044 0.86602540326457
		outer loop
			vertex 11.34939956665 1.5726656913757 0.28999999165535
			vertex 11.063323020935 0.28999999165535 1.0305473804474
			vertex 11.34939956665 0.28999999165535 1.0305473804474
		endloop
	endfacet
	facet normal 0 -0.86602542925092 0.49999995589076
		outer loop
			vertex 11.063323020935 0.14499999582767 0.77939999103546
			vertex 11.34939956665 0.14499999582767 0.77939999103546
			vertex 11.34939956665 0.28999999165535 1.0305473804474
		endloop
	endfacet
	facet normal 0 -0.86602542925092 0.49999995589076
		outer loop
			vertex 11.063323020935 0.14499999582767 0.77939999103546
			vertex 11.34939956665 0.28999999165535 1.0305473804474
			vertex 11.063323020935 0.28999999165535 1.0305473804474
		endloop
	endfacet
	facet normal 0.87852457178309 0 -0.477697160106
		outer loop
			vertex 9.0669002532959 1.3969058990479 0.12999999523163
			vertex 9.1539001464844 1.5726656913757 0.28999999165535
			vertex 9.1539001464844 1.4991762638092 0.28999999165535
		endloop
	endfacet
	facet normal 0 0 -1
		outer loop
			vertex 9.1539001464844 1.5726656913757 0.28999999165535
			vertex 9.2994003295898 1.5157237052917 0.28999999165535
			vertex 9.1539001464844 1.4991762638092 0.28999999165535
		endloop
	endfacet
	facet normal 0 0 -1
		outer loop
			vertex 9.1539001464844 1.5726656913757 0.28999999165535
			vertex 9.444899559021 1.5726656913757 0.28999999165535
			vertex 9.2994003295898 1.5157237052917 0.28999999165535
		endloop
	endfacet
	facet normal 0 0 -1
		outer loop
			vertex 9.2994003295898 1.5157237052917 0.28999999165535
			vertex 9.444899559021 1.5726656913757 0.28999999165535
			vertex 9.444899559021 1.4991762638092 0.28999999165535
		endloop
	endfacet
	facet normal 0 0 1
		outer loop
			vertex 9.0669002532959 8.8843603134155 0.12999999523163
			vertex 9.0669002532959 1.3969058990479 0.12999999523163
			vertex 9.2994003295898 1.4233477115631 0.12999999523163
		endloop
	endfacet
	facet normal 0 0 1
		outer loop
			vertex 9.5319004058838 8.8843603134155 0.12999999523163
			vertex 9.2994003295898 1.4233477115631 0.12999999523163
			vertex 9.5319004058838 1.3969058990479 0.12999999523163
		endloop
	endfacet
	facet normal 0.87852457178309 0 -0.477697160106
		outer loop
			vertex 9.0669002532959 8.8843603134155 0.12999999523163
			vertex 9.1539001464844 1.5726656913757 0.28999999165535
			vertex 9.0669002532959 1.3969058990479 0.12999999523163
		endloop
	endfacet
	facet normal -0.87852237422001 -0 -0.47770120158403
		outer loop
			vertex 9.5319004058838 8.8843603134155 0.12999999523163
			vertex 9.5319004058838 1.3969058990479 0.12999999523163
			vertex 9.444899559021 1.4991762638092 0.28999999165535
		endloop
	endfacet
	facet normal -0.87852204588496 0 -0.47770180541223
		outer loop
			vertex 9.5235147476196 8.8843603134155 0.14542198181152
			vertex 9.444899559021 1.4991762638092 0.28999999165535
			vertex 9.444899559021 1.5726656913757 0.28999999165535
		endloop
	endfacet
	facet normal -0 0 1
		outer loop
			vertex 9.0669002532959 8.8843603134155 0.12999999523163
			vertex 9.2994003295898 1.4233477115631 0.12999999523163
			vertex 9.1688995361328 8.8843603134155 0.12999999523163
		endloop
	endfacet
	facet normal -0 0 1
		outer loop
			vertex 9.1688995361328 8.8843603134155 0.12999999523163
			vertex 9.2994003295898 1.4233477115631 0.12999999523163
			vertex 9.4299001693726 8.8843603134155 0.12999999523163
		endloop
	endfacet
	facet normal -0 0 1
		outer loop
			vertex 9.4299001693726 8.8843603134155 0.12999999523163
			vertex 9.2994003295898 1.4233477115631 0.12999999523163
			vertex 9.5114688873291 8.8843603134155 0.12999999523163
		endloop
	endfacet
	facet normal -0 0 1
		outer loop
			vertex 9.5114688873291 8.8843603134155 0.12999999523163
			vertex 9.2994003295898 1.4233477115631 0.12999999523163
			vertex 9.5319004058838 8.8843603134155 0.12999999523163
		endloop
	endfacet
	facet normal 0.87852457178309 0 -0.477697160106
		outer loop
			vertex 9.0669002532959 8.8843603134155 0.12999999523163
			vertex 9.1539001464844 8.5943603515625 0.28999999165535
			vertex 9.1539001464844 1.5726656913757 0.28999999165535
		endloop
	endfacet
	facet normal -0.87852204588496 0 -0.47770180541223
		outer loop
			vertex 9.5235147476196 8.8843603134155 0.14542198181152
			vertex 9.444899559021 1.5726656913757 0.28999999165535
			vertex 9.444899559021 8.5943603515625 0.28999999165535
		endloop
	endfacet
	facet normal -0.87852545228658 1.5890225921421e-07 -0.47769554078371
		outer loop
			vertex 9.5319004058838 8.8843603134155 0.12999999523163
			vertex 9.444899559021 1.4991762638092 0.28999999165535
			vertex 9.5235147476196 8.8843603134155 0.14542198181152
		endloop
	endfacet
	facet normal 0.87852457178309 0 -0.477697160106
		outer loop
			vertex 9.0669002532959 8.8843603134155 0.12999999523163
			vertex 9.1539001464844 8.8843603134155 0.28999999165535
			vertex 9.1539001464844 8.5943603515625 0.28999999165535
		endloop
	endfacet
	facet normal -0.87852204588496 0 -0.47770180541223
		outer loop
			vertex 9.5235147476196 8.8843603134155 0.14542198181152
			vertex 9.444899559021 8.5943603515625 0.28999999165535
			vertex 9.444899559021 8.8843603134155 0.28999999165535
		endloop
	endfacet
	facet normal 0 -1 0
		outer loop
			vertex 9.1688995361328 8.8843603134155 0.12999999523163
			vertex 9.4299001693726 8.8843603134155 0.12999999523163
			vertex 9.1688995361328 8.8843603134155 0.28999999165535
		endloop
	endfacet
	facet normal 0 -1 0
		outer loop
			vertex 9.1688995361328 8.8843603134155 0.28999999165535
			vertex 9.4299001693726 8.8843603134155 0.12999999523163
			vertex 9.4299001693726 8.8843603134155 0.28999999165535
		endloop
	endfacet
	facet normal 0 0 -1
		outer loop
			vertex 9.1539001464844 8.8843603134155 0.28999999165535
			vertex 9.444899559021 8.5943603515625 0.28999999165535
			vertex 9.1539001464844 8.5943603515625 0.28999999165535
		endloop
	endfacet
	facet normal 0 0 -1
		outer loop
			vertex 9.1539001464844 8.8843603134155 0.28999999165535
			vertex 9.1688995361328 8.8843603134155 0.28999999165535
			vertex 9.444899559021 8.5943603515625 0.28999999165535
		endloop
	endfacet
	facet normal 0 0 -1
		outer loop
			vertex 9.1688995361328 8.8843603134155 0.28999999165535
			vertex 9.4299001693726 8.8843603134155 0.28999999165535
			vertex 9.444899559021 8.5943603515625 0.28999999165535
		endloop
	endfacet
	facet normal 0 0 -1
		outer loop
			vertex 9.4299001693726 8.8843603134155 0.28999999165535
			vertex 9.444899559021 8.8843603134155 0.28999999165535
			vertex 9.444899559021 8.5943603515625 0.28999999165535
		endloop
	endfacet
	facet normal 0.47139705968227 -0.76376608903689 0.44096051224594
		outer loop
			vertex 8.6086559295654 1.2659695148468 0.13220793008804
			vertex 8.6086559295654 1.4109694957733 0.38335528969765
			vertex 8.2965955734253 1.12151658535 0.21560788154602
		endloop
	endfacet
	facet normal 0.63439346259332 -0.66944658021307 0.38650512397624
		outer loop
			vertex 8.0230722427368 0.92711561918259 0.32784533500671
			vertex 8.2965955734253 1.12151658535 0.21560788154602
			vertex 8.2965955734253 1.2665165662766 0.46675524115562
		endloop
	endfacet
	facet normal 0.77301045506186 -0.54940067209368 0.31719668640778
		outer loop
			vertex 8.0230722427368 0.92711561918259 0.32784533500671
			vertex 8.0230722427368 1.0721156597137 0.57899272441864
			vertex 7.7985973358154 0.69023734331131 0.4646070599556
		endloop
	endfacet
	facet normal 0.63439340058639 -0.66944657534634 0.38650523418124
		outer loop
			vertex 8.0230722427368 0.92711561918259 0.32784533500671
			vertex 8.2965955734253 1.2665165662766 0.46675524115562
			vertex 8.0230722427368 1.0721156597137 0.57899272441864
		endloop
	endfacet
	facet normal 0.88192113066357 -0.40824178844427 0.23569845450686
		outer loop
			vertex 7.6317973136902 0.41998487710953 0.6206374168396
			vertex 7.7985973358154 0.69023734331131 0.4646070599556
			vertex 7.7985973358154 0.83523732423782 0.71575444936752
		endloop
	endfacet
	facet normal 0.77301051377274 -0.54940066659876 0.3171965528464
		outer loop
			vertex 7.7985973358154 0.69023734331131 0.4646070599556
			vertex 8.0230722427368 1.0721156597137 0.57899272441864
			vertex 7.7985973358154 0.83523732423782 0.71575444936752
		endloop
	endfacet
	facet normal 0.47139705968227 -0.76376608903689 0.44096051224594
		outer loop
			vertex 8.2965955734253 1.12151658535 0.21560788154602
			vertex 8.6086559295654 1.4109694957733 0.38335528969765
			vertex 8.2965955734253 1.2665165662766 0.46675524115562
		endloop
	endfacet
	facet normal 0.098016976103384 -0.86185518924154 0.49759250916085
		outer loop
			vertex 8.9472618103027 1.354923248291 0.08085048943758
			vertex 9.2994003295898 1.3849592208862 0.063509203493595
			vertex 9.2994003295898 1.4233477115631 0.12999999523163
		endloop
	endfacet
	facet normal 0.09801731556794 -0.86185594631695 0.4975911309971
		outer loop
			vertex 8.9472618103027 1.354923248291 0.08085048943758
			vertex 9.2994003295898 1.4233477115631 0.12999999523163
			vertex 9.0669002532959 1.3969058990479 0.12999999523163
		endloop
	endfacet
	facet normal -0.098017227032967 -0.86185516783824 0.49759249680364
		outer loop
			vertex 9.2994003295898 1.3849592208862 0.063509203493595
			vertex 9.5319004058838 1.3969058990479 0.12999999523163
			vertex 9.2994003295898 1.4233477115631 0.12999999523163
		endloop
	endfacet
	facet normal -0.098017239006922 -0.86185514470295 0.49759253451647
		outer loop
			vertex 9.2994003295898 1.3849592208862 0.063509203493595
			vertex 9.6515378952026 1.354923248291 0.08085048943758
			vertex 9.5319004058838 1.3969058990479 0.12999999523163
		endloop
	endfacet
	facet normal 0.2902845278708 -0.82873469482381 0.47847016466454
		outer loop
			vertex 8.6086559295654 1.2659695148468 0.13220793008804
			vertex 8.9472618103027 1.354923248291 0.08085048943758
			vertex 8.9472618103027 1.4999232292175 0.3319978415966
		endloop
	endfacet
	facet normal 0.098016588474326 -0.86185531735375 0.49759236361998
		outer loop
			vertex 8.9472618103027 1.354923248291 0.08085048943758
			vertex 9.0669002532959 1.3969058990479 0.12999999523163
			vertex 8.9472618103027 1.4999232292175 0.3319978415966
		endloop
	endfacet
	facet normal 0.29028453751176 -0.82873469843742 0.47847015255648
		outer loop
			vertex 8.6086559295654 1.2659695148468 0.13220793008804
			vertex 8.9472618103027 1.4999232292175 0.3319978415966
			vertex 8.6086559295654 1.4109694957733 0.38335528969765
		endloop
	endfacet
	facet normal 0.098016845295085 -0.86185522694612 0.49759246962152
		outer loop
			vertex 9.0669002532959 1.3969058990479 0.12999999523163
			vertex 9.1539001464844 1.4991762638092 0.28999999165535
			vertex 8.9472618103027 1.4999232292175 0.3319978415966
		endloop
	endfacet
	facet normal 0.098016934395492 -0.86185496638209 0.4975929033801
		outer loop
			vertex 9.1539001464844 1.4991762638092 0.28999999165535
			vertex 9.2994003295898 1.5299592018127 0.31465658545494
			vertex 8.9472618103027 1.4999232292175 0.3319978415966
		endloop
	endfacet
	facet normal -0.098017362294024 -0.86185525135009 0.49759232551275
		outer loop
			vertex 9.5319004058838 1.3969058990479 0.12999999523163
			vertex 9.6515378952026 1.354923248291 0.08085048943758
			vertex 9.6515378952026 1.4999232292175 0.3319978415966
		endloop
	endfacet
	facet normal -0.2902845278708 -0.82873470097015 0.47847015401876
		outer loop
			vertex 9.6515378952026 1.354923248291 0.08085048943758
			vertex 9.9901437759399 1.2659695148468 0.13220793008804
			vertex 9.9901437759399 1.4109694957733 0.38335528969765
		endloop
	endfacet
	facet normal -0.098016765057396 -0.86185546159188 0.49759207900843
		outer loop
			vertex 9.5319004058838 1.3969058990479 0.12999999523163
			vertex 9.6515378952026 1.4999232292175 0.3319978415966
			vertex 9.444899559021 1.4991762638092 0.28999999165535
		endloop
	endfacet
	facet normal 0.098017046145123 -0.86185518024748 0.497592510942
		outer loop
			vertex 9.1539001464844 1.4991762638092 0.28999999165535
			vertex 9.2994003295898 1.5157237052917 0.28999999165535
			vertex 9.2994003295898 1.5299592018127 0.31465658545494
		endloop
	endfacet
	facet normal -0.098017682425274 -0.86185512597517 0.49759247960786
		outer loop
			vertex 9.2994003295898 1.5157237052917 0.28999999165535
			vertex 9.444899559021 1.4991762638092 0.28999999165535
			vertex 9.2994003295898 1.5299592018127 0.31465658545494
		endloop
	endfacet
	facet normal -0.098017197298646 -0.86185419754987 0.49759418324512
		outer loop
			vertex 9.2994003295898 1.5299592018127 0.31465658545494
			vertex 9.444899559021 1.4991762638092 0.28999999165535
			vertex 9.6515378952026 1.4999232292175 0.3319978415966
		endloop
	endfacet
	facet normal -0.29028453751176 -0.82873469229107 0.47847016320227
		outer loop
			vertex 9.6515378952026 1.354923248291 0.08085048943758
			vertex 9.9901437759399 1.4109694957733 0.38335528969765
			vertex 9.6515378952026 1.4999232292175 0.3319978415966
		endloop
	endfacet
	facet normal -0.47139705968227 -0.76376608903689 0.44096051224594
		outer loop
			vertex 9.9901437759399 1.2659695148468 0.13220793008804
			vertex 10.30220413208 1.12151658535 0.21560788154602
			vertex 10.30220413208 1.2665165662766 0.46675524115562
		endloop
	endfacet
	facet normal -0.47139705968227 -0.76376608903689 0.44096051224594
		outer loop
			vertex 9.9901437759399 1.2659695148468 0.13220793008804
			vertex 10.30220413208 1.2665165662766 0.46675524115562
			vertex 9.9901437759399 1.4109694957733 0.38335528969765
		endloop
	endfacet
	facet normal -0.63439346259331 -0.66944653127622 0.38650520873734
		outer loop
			vertex 10.30220413208 1.12151658535 0.21560788154602
			vertex 10.575727462769 0.92711561918259 0.32784533500671
			vertex 10.575727462769 1.0721156597137 0.57899272441864
		endloop
	endfacet
	facet normal -0.63439340058638 -0.6694466242832 0.38650514942014
		outer loop
			vertex 10.30220413208 1.12151658535 0.21560788154602
			vertex 10.575727462769 1.0721156597137 0.57899272441864
			vertex 10.30220413208 1.2665165662766 0.46675524115562
		endloop
	endfacet
	facet normal -0.88192057041914 -0.40824267193939 0.23569902053119
		outer loop
			vertex 10.80020236969 0.69023734331131 0.4646070599556
			vertex 10.967002868652 0.41998487710953 0.6206374168396
			vertex 10.967002868652 0.56498485803604 0.87178474664688
		endloop
	endfacet
	facet normal -0.77301045506186 -0.54940072855373 0.3171965886161
		outer loop
			vertex 10.575727462769 0.92711561918259 0.32784533500671
			vertex 10.80020236969 0.69023734331131 0.4646070599556
			vertex 10.80020236969 0.83523732423782 0.71575444936752
		endloop
	endfacet
	facet normal -0.77301051377273 -0.54940061013873 0.31719665063807
		outer loop
			vertex 10.575727462769 0.92711561918259 0.32784533500671
			vertex 10.80020236969 0.83523732423782 0.71575444936752
			vertex 10.575727462769 1.0721156597137 0.57899272441864
		endloop
	endfacet
	facet normal 0.95694038430111 -0.25139376510765 0.14514226041593
		outer loop
			vertex 7.6317973136902 0.41998487710953 0.6206374168396
			vertex 7.6317973136902 0.56498485803604 0.87178474664688
			vertex 7.5354771614075 0.14499999582767 0.77939999103546
		endloop
	endfacet
	facet normal 0.88192111194751 -0.40824179454643 0.23569851396812
		outer loop
			vertex 7.6317973136902 0.41998487710953 0.6206374168396
			vertex 7.7985973358154 0.83523732423782 0.71575444936752
			vertex 7.6317973136902 0.56498485803604 0.87178474664688
		endloop
	endfacet
	facet normal 0.9569403885923 -0.25139376131376 0.14514223869479
		outer loop
			vertex 7.5354771614075 0.14499999582767 0.77939999103546
			vertex 7.6317973136902 0.56498485803604 0.87178474664688
			vertex 7.5354771614075 0.28999999165535 1.0305473804474
		endloop
	endfacet
	facet normal -0.95694038430111 -0.2513937735647 0.14514224576787
		outer loop
			vertex 10.967002868652 0.41998487710953 0.6206374168396
			vertex 11.063323020935 0.14499999582767 0.77939999103546
			vertex 11.063323020935 0.28999999165535 1.0305473804474
		endloop
	endfacet
	facet normal -0.88192055170301 -0.40824272648552 0.23569899608512
		outer loop
			vertex 10.80020236969 0.69023734331131 0.4646070599556
			vertex 10.967002868652 0.56498485803604 0.87178474664688
			vertex 10.80020236969 0.83523732423782 0.71575444936752
		endloop
	endfacet
	facet normal -0.9569403885923 -0.2513937528567 0.14514225334284
		outer loop
			vertex 10.967002868652 0.41998487710953 0.6206374168396
			vertex 11.063323020935 0.28999999165535 1.0305473804474
			vertex 10.967002868652 0.56498485803604 0.87178474664688
		endloop
	endfacet
	facet normal -1 0 0
		outer loop
			vertex 0.14499999582767 7.6522793769836 0
			vertex 0.14499999582767 7.6522793769836 0.086999997496605
			vertex 0.14499999582767 8.12535572052 0.066923074424267
		endloop
	endfacet
	facet normal -1 0 0
		outer loop
			vertex 0.14499999582767 7.6522793769836 0.086999997496605
			vertex 0.14499999582767 9.7022790908813 0.086999997496605
			vertex 0.14499999582767 8.12535572052 0.066923074424267
		endloop
	endfacet
	facet normal -1 0 0
		outer loop
			vertex 0.14499999582767 8.12535572052 0.066923074424267
			vertex 0.14499999582767 9.7022790908813 0.086999997496605
			vertex 0.14499999582767 9.7022790908813 0
		endloop
	endfacet
	facet normal 0 1 0
		outer loop
			vertex 0.14499999582767 9.7022790908813 0
			vertex 0.14499999582767 9.7022790908813 0.086999997496605
			vertex 0.43500000238419 9.7022790908813 0.28999999165535
		endloop
	endfacet
	facet normal 0 1 0
		outer loop
			vertex 0.14499999582767 9.7022790908813 0.086999997496605
			vertex 0.14499999582767 9.7022790908813 0.28999999165535
			vertex 0.43500000238419 9.7022790908813 0.28999999165535
		endloop
	endfacet
	facet normal 0.49999998019804 -0.8660254152171 0
		outer loop
			vertex 0.43500000238419 7.8197107315063 0
			vertex 3.6957042217255 9.7022790908813 0
			vertex 0.43500000238419 7.8197107315063 0.28999999165535
		endloop
	endfacet
	facet normal 0 0 -1
		outer loop
			vertex 0.43500000238419 7.8197107315063 0
			vertex 0.43500000238419 9.7022790908813 0
			vertex 3.6957042217255 9.7022790908813 0
		endloop
	endfacet
	facet normal 0 1 0
		outer loop
			vertex 0.14499999582767 9.7022790908813 0
			vertex 3.6957042217255 9.7022790908813 0.28999999165535
			vertex 0.43500000238419 9.7022790908813 0
		endloop
	endfacet
	facet normal 0 1 0
		outer loop
			vertex 0.43500000238419 9.7022790908813 0
			vertex 3.6957042217255 9.7022790908813 0.28999999165535
			vertex 3.6957042217255 9.7022790908813 0
		endloop
	endfacet
	facet normal 0 0 1
		outer loop
			vertex 0.43500000238419 7.8197107315063 0.28999999165535
			vertex 3.6957042217255 9.7022790908813 0.28999999165535
			vertex 0.43500000238419 9.7022790908813 0.28999999165535
		endloop
	endfacet
	facet normal 0 1 0
		outer loop
			vertex 0.14499999582767 9.7022790908813 0
			vertex 0.43500000238419 9.7022790908813 0.28999999165535
			vertex 3.6957042217255 9.7022790908813 0.28999999165535
		endloop
	endfacet
	facet normal 0.49999998019804 -0.8660254152171 0
		outer loop
			vertex 3.6957042217255 9.7022790908813 0
			vertex 3.6957042217255 9.7022790908813 0.28999999165535
			vertex 0.43500000238419 7.8197107315063 0.28999999165535
		endloop
	endfacet
	facet normal 0 -1 0
		outer loop
			vertex 0.14499999582767 7.6522793769836 0
			vertex 0.43500000238419 7.6522793769836 0
			vertex 0.43500000238419 7.6522793769836 0.43500000238419
		endloop
	endfacet
	facet normal 1 0 0
		outer loop
			vertex 0.43500000238419 7.6522793769836 0
			vertex 0.43500000238419 7.8197107315063 0
			vertex 0.43500000238419 7.8197107315063 0.28999999165535
		endloop
	endfacet
	facet normal 0 0 -1
		outer loop
			vertex 0.14499999582767 7.6522793769836 0
			vertex 0.14499999582767 9.7022790908813 0
			vertex 0.43500000238419 7.6522793769836 0
		endloop
	endfacet
	facet normal 0 0 -1
		outer loop
			vertex 0.43500000238419 7.6522793769836 0
			vertex 0.14499999582767 9.7022790908813 0
			vertex 0.43500000238419 7.8197107315063 0
		endloop
	endfacet
	facet normal 0 -1 0
		outer loop
			vertex 0.14499999582767 7.6522793769836 0
			vertex 0.43500000238419 7.6522793769836 0.43500000238419
			vertex 0.14499999582767 7.6522793769836 0.086999997496605
		endloop
	endfacet
	facet normal 1 0 0
		outer loop
			vertex 0.43500000238419 7.6522793769836 0
			vertex 0.43500000238419 7.8197107315063 0.28999999165535
			vertex 0.43500000238419 7.6522793769836 0.43500000238419
		endloop
	endfacet
	facet normal 0 -1 0
		outer loop
			vertex 0.14499999582767 7.6522793769836 0.086999997496605
			vertex 0.43500000238419 7.6522793769836 0.43500000238419
			vertex 0.14499999582767 7.6522793769836 0.28999999165535
		endloop
	endfacet
	facet normal -1 0 0
		outer loop
			vertex 0.14499999582767 7.6522793769836 0
			vertex 0.14499999582767 8.12535572052 0.066923074424267
			vertex 0.14499999582767 9.7022790908813 0
		endloop
	endfacet
	facet normal 0 0 -1
		outer loop
			vertex 0.43500000238419 7.8197107315063 0
			vertex 0.14499999582767 9.7022790908813 0
			vertex 0.43500000238419 9.7022790908813 0
		endloop
	endfacet
	facet normal 0 -1 0
		outer loop
			vertex 0.14499999582767 7.6522793769836 0.28999999165535
			vertex 0.43500000238419 7.6522793769836 0.43500000238419
			vertex 0.14499999582767 7.6522793769836 0.34799998998642
		endloop
	endfacet
	facet normal 0 -1 0
		outer loop
			vertex 0.14499999582767 7.6522793769836 0.34799998998642
			vertex 0.43500000238419 7.6522793769836 0.43500000238419
			vertex 0.14499999582767 7.6522793769836 0.43500000238419
		endloop
	endfacet
	facet normal -1 0 0
		outer loop
			vertex 0.14499999582767 7.6522793769836 0.34799998998642
			vertex 0.14499999582767 7.6522793769836 0.43500000238419
			vertex 0.14499999582767 9.7022790908813 0.34799998998642
		endloop
	endfacet
	facet normal 1 0 -0
		outer loop
			vertex 0.43500000238419 7.8197107315063 0.28999999165535
			vertex 0.43500000238419 9.7022790908813 0.28999999165535
			vertex 0.43500000238419 7.6522793769836 0.43500000238419
		endloop
	endfacet
	facet normal 0 0 1
		outer loop
			vertex 0.14499999582767 7.6522793769836 0.43500000238419
			vertex 0.43500000238419 7.6522793769836 0.43500000238419
			vertex 0.43500000238419 9.7022790908813 0.43500000238419
		endloop
	endfacet
	facet normal -1 0 0
		outer loop
			vertex 0.14499999582767 7.6522793769836 0.43500000238419
			vertex 0.14499999582767 9.7022790908813 0.43500000238419
			vertex 0.14499999582767 9.7022790908813 0.34799998998642
		endloop
	endfacet
	facet normal 1 0 -0
		outer loop
			vertex 0.43500000238419 9.7022790908813 0.28999999165535
			vertex 0.43500000238419 9.7022790908813 0.43500000238419
			vertex 0.43500000238419 7.6522793769836 0.43500000238419
		endloop
	endfacet
	facet normal 0 0 1
		outer loop
			vertex 0.14499999582767 7.6522793769836 0.43500000238419
			vertex 0.43500000238419 9.7022790908813 0.43500000238419
			vertex 0.14499999582767 9.7022790908813 0.43500000238419
		endloop
	endfacet
	facet normal 0 1 0
		outer loop
			vertex 0.14499999582767 9.7022790908813 0.28999999165535
			vertex 0.43500000238419 9.7022790908813 0.43500000238419
			vertex 0.43500000238419 9.7022790908813 0.28999999165535
		endloop
	endfacet
	facet normal 0 1 0
		outer loop
			vertex 0.14499999582767 9.7022790908813 0.28999999165535
			vertex 0.14499999582767 9.7022790908813 0.34799998998642
			vertex 0.43500000238419 9.7022790908813 0.43500000238419
		endloop
	endfacet
	facet normal 0 1 0
		outer loop
			vertex 0.14499999582767 9.7022790908813 0.34799998998642
			vertex 0.14499999582767 9.7022790908813 0.43500000238419
			vertex 0.43500000238419 9.7022790908813 0.43500000238419
		endloop
	endfacet
	facet normal 0.51449575542752 0 -0.85749292571255
		outer loop
			vertex 0 7.6522793769836 4.4408920985006e-16
			vertex 0.14499999582767 9.7022790908813 0.086999997496605
			vertex 0.14499999582767 7.6522793769836 0.086999997496605
		endloop
	endfacet
	facet normal -1 0 0
		outer loop
			vertex 0 7.6522793769836 4.4408920985006e-16
			vertex 0 7.6522793769836 0.43500000238419
			vertex 0 9.7022790908813 4.4408920985006e-16
		endloop
	endfacet
	facet normal 0 -1 0
		outer loop
			vertex 0 7.6522793769836 4.4408920985006e-16
			vertex 0.14499999582767 7.6522793769836 0.086999997496605
			vertex 0 7.6522793769836 0.43500000238419
		endloop
	endfacet
	facet normal 0 -1 0
		outer loop
			vertex 0.14499999582767 7.6522793769836 0.086999997496605
			vertex 0.14499999582767 7.6522793769836 0.28999999165535
			vertex 0 7.6522793769836 0.43500000238419
		endloop
	endfacet
	facet normal 0.51449575542752 0 -0.85749292571255
		outer loop
			vertex 0 7.6522793769836 4.4408920985006e-16
			vertex 0 9.7022790908813 4.4408920985006e-16
			vertex 0.14499999582767 9.7022790908813 0.086999997496605
		endloop
	endfacet
	facet normal -1 0 0
		outer loop
			vertex 0 9.7022790908813 4.4408920985006e-16
			vertex 0 7.6522793769836 0.43500000238419
			vertex 0 9.7022790908813 0.43500000238419
		endloop
	endfacet
	facet normal 0 1 0
		outer loop
			vertex 0 9.7022790908813 4.4408920985006e-16
			vertex 0 9.7022790908813 0.43500000238419
			vertex 0.14499999582767 9.7022790908813 0.086999997496605
		endloop
	endfacet
	facet normal 0 1 -0
		outer loop
			vertex 0.14499999582767 9.7022790908813 0.086999997496605
			vertex 0 9.7022790908813 0.43500000238419
			vertex 0.14499999582767 9.7022790908813 0.28999999165535
		endloop
	endfacet
	facet normal 0 -1 0
		outer loop
			vertex 0.14499999582767 7.6522793769836 0.28999999165535
			vertex 0.14499999582767 7.6522793769836 0.34799998998642
			vertex 0 7.6522793769836 0.43500000238419
		endloop
	endfacet
	facet normal 0.51449582022286 0 0.85749288683534
		outer loop
			vertex 0.14499999582767 7.6522793769836 0.34799998998642
			vertex 0 9.7022790908813 0.43500000238419
			vertex 0 7.6522793769836 0.43500000238419
		endloop
	endfacet
	facet normal 0.51449582022286 -0 0.85749288683534
		outer loop
			vertex 0.14499999582767 7.6522793769836 0.34799998998642
			vertex 0.14499999582767 9.7022790908813 0.34799998998642
			vertex 0 9.7022790908813 0.43500000238419
		endloop
	endfacet
	facet normal 0 1 -0
		outer loop
			vertex 0.14499999582767 9.7022790908813 0.28999999165535
			vertex 0 9.7022790908813 0.43500000238419
			vertex 0.14499999582767 9.7022790908813 0.34799998998642
		endloop
	endfacet
	facet normal 0 -1 0
		outer loop
			vertex 4.1407041549683 7.6522793769836 0
			vertex 4.4307041168213 7.6522793769836 0.28999999165535
			vertex 4.1407041549683 7.6522793769836 0.086999997496605
		endloop
	endfacet
	facet normal -1 0 0
		outer loop
			vertex 4.1407041549683 7.6522793769836 0
			vertex 4.1407041549683 7.6522793769836 0.086999997496605
			vertex 4.1407041549683 9.2292022705078 0.066923074424267
		endloop
	endfacet
	facet normal 0 -1 0
		outer loop
			vertex 4.1407041549683 7.6522793769836 0.086999997496605
			vertex 4.4307041168213 7.6522793769836 0.28999999165535
			vertex 4.1407041549683 7.6522793769836 0.28999999165535
		endloop
	endfacet
	facet normal -1 0 0
		outer loop
			vertex 4.1407041549683 7.6522793769836 0.086999997496605
			vertex 4.1407041549683 9.7022790908813 0.086999997496605
			vertex 4.1407041549683 9.2292022705078 0.066923074424267
		endloop
	endfacet
	facet normal -1 0 0
		outer loop
			vertex 4.1407041549683 9.7022790908813 0
			vertex 4.1407041549683 9.2292022705078 0.066923074424267
			vertex 4.1407041549683 9.7022790908813 0.086999997496605
		endloop
	endfacet
	facet normal 0 -1 0
		outer loop
			vertex 4.1407041549683 7.6522793769836 0
			vertex 4.4307041168213 7.6522793769836 0
			vertex 7.249400138855 7.6522793769836 0.28999999165535
		endloop
	endfacet
	facet normal 0 0 -1
		outer loop
			vertex 4.4307041168213 7.6522793769836 0
			vertex 4.4307041168213 9.5348472595215 0
			vertex 7.249400138855 7.9074730873108 0
		endloop
	endfacet
	facet normal 0 -1 0
		outer loop
			vertex 4.1407041549683 7.6522793769836 0
			vertex 7.249400138855 7.6522793769836 0.28999999165535
			vertex 4.4307041168213 7.6522793769836 0.28999999165535
		endloop
	endfacet
	facet normal 0 0 1
		outer loop
			vertex 4.4307041168213 7.6522793769836 0.28999999165535
			vertex 7.249400138855 7.6522793769836 0.28999999165535
			vertex 4.4307041168213 9.5348472595215 0.28999999165535
		endloop
	endfacet
	facet normal 0.49999983066111 0.86602550155227 -0
		outer loop
			vertex 4.4307041168213 9.5348472595215 0
			vertex 4.4307041168213 9.5348472595215 0.28999999165535
			vertex 7.249400138855 7.9074730873108 0
		endloop
	endfacet
	facet normal 0 0 -1
		outer loop
			vertex 4.4307041168213 7.6522793769836 0
			vertex 7.249400138855 7.9074730873108 0
			vertex 7.249400138855 7.6522793769836 0
		endloop
	endfacet
	facet normal 0 -1 0
		outer loop
			vertex 4.4307041168213 7.6522793769836 0
			vertex 7.249400138855 7.6522793769836 0
			vertex 7.249400138855 7.6522793769836 0.28999999165535
		endloop
	endfacet
	facet normal 0.49999983066111 0.86602550155227 0
		outer loop
			vertex 4.4307041168213 9.5348472595215 0.28999999165535
			vertex 7.249400138855 7.9074730873108 0.28999999165535
			vertex 7.249400138855 7.9074730873108 0
		endloop
	endfacet
	facet normal 0 -0 1
		outer loop
			vertex 7.249400138855 7.6522793769836 0.28999999165535
			vertex 7.249400138855 7.9074730873108 0.28999999165535
			vertex 4.4307041168213 9.5348472595215 0.28999999165535
		endloop
	endfacet
	facet normal 0 0 1
		outer loop
			vertex 7.249400138855 7.6522793769836 0.28999999165535
			vertex 7.6914081573486 7.6522793769836 0.28999999165535
			vertex 7.249400138855 7.9074730873108 0.28999999165535
		endloop
	endfacet
	facet normal -1 0 0
		outer loop
			vertex 4.1407041549683 7.6522793769836 0
			vertex 4.1407041549683 9.2292022705078 0.066923074424267
			vertex 4.1407041549683 9.7022790908813 0
		endloop
	endfacet
	facet normal 0 0 -1
		outer loop
			vertex 4.1407041549683 7.6522793769836 0
			vertex 4.1407041549683 9.7022790908813 0
			vertex 4.4307041168213 9.7022790908813 0
		endloop
	endfacet
	facet normal 0 1 0
		outer loop
			vertex 4.1407041549683 9.7022790908813 0
			vertex 4.1407041549683 9.7022790908813 0.086999997496605
			vertex 4.4307041168213 9.7022790908813 0.43500000238419
		endloop
	endfacet
	facet normal 0 1 0
		outer loop
			vertex 4.1407041549683 9.7022790908813 0.086999997496605
			vertex 4.1407041549683 9.7022790908813 0.28999999165535
			vertex 4.4307041168213 9.7022790908813 0.43500000238419
		endloop
	endfacet
	facet normal 0 0 -1
		outer loop
			vertex 4.1407041549683 7.6522793769836 0
			vertex 4.4307041168213 9.5348472595215 0
			vertex 4.4307041168213 7.6522793769836 0
		endloop
	endfacet
	facet normal 0 0 -1
		outer loop
			vertex 4.1407041549683 7.6522793769836 0
			vertex 4.4307041168213 9.7022790908813 0
			vertex 4.4307041168213 9.5348472595215 0
		endloop
	endfacet
	facet normal 1 0 0
		outer loop
			vertex 4.4307041168213 9.5348472595215 0
			vertex 4.4307041168213 9.7022790908813 0
			vertex 4.4307041168213 9.5348472595215 0.28999999165535
		endloop
	endfacet
	facet normal 0 1 0
		outer loop
			vertex 4.1407041549683 9.7022790908813 0
			vertex 4.4307041168213 9.7022790908813 0.43500000238419
			vertex 4.4307041168213 9.7022790908813 0
		endloop
	endfacet
	facet normal 1 0 -0
		outer loop
			vertex 4.4307041168213 9.7022790908813 0
			vertex 4.4307041168213 9.7022790908813 0.43500000238419
			vertex 4.4307041168213 9.5348472595215 0.28999999165535
		endloop
	endfacet
	facet normal 0 -1 0
		outer loop
			vertex 4.1407041549683 7.6522793769836 0.28999999165535
			vertex 4.4307041168213 7.6522793769836 0.43500000238419
			vertex 4.1407041549683 7.6522793769836 0.34799998998642
		endloop
	endfacet
	facet normal 0 -1 0
		outer loop
			vertex 4.1407041549683 7.6522793769836 0.34799998998642
			vertex 4.4307041168213 7.6522793769836 0.43500000238419
			vertex 4.1407041549683 7.6522793769836 0.43500000238419
		endloop
	endfacet
	facet normal -1 0 0
		outer loop
			vertex 4.1407041549683 7.6522793769836 0.34799998998642
			vertex 4.1407041549683 7.6522793769836 0.43500000238419
			vertex 4.1407041549683 9.7022790908813 0.43500000238419
		endloop
	endfacet
	facet normal 0 0 1
		outer loop
			vertex 4.1407041549683 7.6522793769836 0.43500000238419
			vertex 4.4307041168213 7.6522793769836 0.43500000238419
			vertex 4.1407041549683 9.7022790908813 0.43500000238419
		endloop
	endfacet
	facet normal -1 0 0
		outer loop
			vertex 4.1407041549683 7.6522793769836 0.34799998998642
			vertex 4.1407041549683 9.7022790908813 0.43500000238419
			vertex 4.1407041549683 9.7022790908813 0.34799998998642
		endloop
	endfacet
	facet normal 0 1 0
		outer loop
			vertex 4.1407041549683 9.7022790908813 0.28999999165535
			vertex 4.1407041549683 9.7022790908813 0.34799998998642
			vertex 4.4307041168213 9.7022790908813 0.43500000238419
		endloop
	endfacet
	facet normal 0 1 0
		outer loop
			vertex 4.1407041549683 9.7022790908813 0.34799998998642
			vertex 4.1407041549683 9.7022790908813 0.43500000238419
			vertex 4.4307041168213 9.7022790908813 0.43500000238419
		endloop
	endfacet
	facet normal 0 -1 0
		outer loop
			vertex 4.1407041549683 7.6522793769836 0.28999999165535
			vertex 4.4307041168213 7.6522793769836 0.28999999165535
			vertex 4.4307041168213 7.6522793769836 0.43500000238419
		endloop
	endfacet
	facet normal 1 0 0
		outer loop
			vertex 4.4307041168213 7.6522793769836 0.28999999165535
			vertex 4.4307041168213 9.7022790908813 0.43500000238419
			vertex 4.4307041168213 7.6522793769836 0.43500000238419
		endloop
	endfacet
	facet normal 1 0 0
		outer loop
			vertex 4.4307041168213 7.6522793769836 0.28999999165535
			vertex 4.4307041168213 9.5348472595215 0.28999999165535
			vertex 4.4307041168213 9.7022790908813 0.43500000238419
		endloop
	endfacet
	facet normal 0 -0 1
		outer loop
			vertex 4.4307041168213 7.6522793769836 0.43500000238419
			vertex 4.4307041168213 9.7022790908813 0.43500000238419
			vertex 4.1407041549683 9.7022790908813 0.43500000238419
		endloop
	endfacet
	facet normal 0.51449579430473 0 -0.85749290238622
		outer loop
			vertex 3.9957041740417 7.6522793769836 0
			vertex 3.9957041740417 9.7022790908813 0
			vertex 4.1407041549683 7.6522793769836 0.086999997496605
		endloop
	endfacet
	facet normal 0 -1 0
		outer loop
			vertex 3.9957041740417 7.6522793769836 0
			vertex 4.1407041549683 7.6522793769836 0.086999997496605
			vertex 3.9957041740417 7.6522793769836 0.43500000238419
		endloop
	endfacet
	facet normal 0 -1 0
		outer loop
			vertex 4.1407041549683 7.6522793769836 0.086999997496605
			vertex 4.1407041549683 7.6522793769836 0.28999999165535
			vertex 3.9957041740417 7.6522793769836 0.43500000238419
		endloop
	endfacet
	facet normal -1 0 0
		outer loop
			vertex 3.9957041740417 7.6522793769836 0
			vertex 3.9957041740417 7.6522793769836 0.43500000238419
			vertex 3.9957041740417 9.7022790908813 0.43500000238419
		endloop
	endfacet
	facet normal 0.51449579430473 0 -0.85749290238622
		outer loop
			vertex 4.1407041549683 7.6522793769836 0.086999997496605
			vertex 3.9957041740417 9.7022790908813 0
			vertex 4.1407041549683 9.7022790908813 0.086999997496605
		endloop
	endfacet
	facet normal -1 0 0
		outer loop
			vertex 3.9957041740417 7.6522793769836 0
			vertex 3.9957041740417 9.7022790908813 0.43500000238419
			vertex 3.9957041740417 9.7022790908813 0
		endloop
	endfacet
	facet normal 0 1 0
		outer loop
			vertex 3.9957041740417 9.7022790908813 0
			vertex 3.9957041740417 9.7022790908813 0.43500000238419
			vertex 4.1407041549683 9.7022790908813 0.086999997496605
		endloop
	endfacet
	facet normal 0 1 -0
		outer loop
			vertex 4.1407041549683 9.7022790908813 0.086999997496605
			vertex 3.9957041740417 9.7022790908813 0.43500000238419
			vertex 4.1407041549683 9.7022790908813 0.28999999165535
		endloop
	endfacet
	facet normal 0 -1 0
		outer loop
			vertex 4.1407041549683 7.6522793769836 0.28999999165535
			vertex 4.1407041549683 7.6522793769836 0.34799998998642
			vertex 3.9957041740417 7.6522793769836 0.43500000238419
		endloop
	endfacet
	facet normal 0.51449585910007 -0 0.85749286350901
		outer loop
			vertex 4.1407041549683 7.6522793769836 0.34799998998642
			vertex 4.1407041549683 9.7022790908813 0.34799998998642
			vertex 3.9957041740417 7.6522793769836 0.43500000238419
		endloop
	endfacet
	facet normal 0.51449585910007 -0 0.85749286350901
		outer loop
			vertex 3.9957041740417 7.6522793769836 0.43500000238419
			vertex 4.1407041549683 9.7022790908813 0.34799998998642
			vertex 3.9957041740417 9.7022790908813 0.43500000238419
		endloop
	endfacet
	facet normal 0 1 -0
		outer loop
			vertex 4.1407041549683 9.7022790908813 0.28999999165535
			vertex 3.9957041740417 9.7022790908813 0.43500000238419
			vertex 4.1407041549683 9.7022790908813 0.34799998998642
		endloop
	endfacet
endsolid