solid csg_export
	facet normal 0 0 1
		outer loop
			vertex 2.7332999706268 1.3137999773026 0.28999999165535
			vertex 2.7332999706268 0.28999999165535 0.28999999165535
			vertex 3.8099999427795 0.28999999165535 0.28999999165535
		endloop
	endfacet
	facet normal 0 0 -1
		outer loop
			vertex 5.4665999412537 0.43794402480125 0
			vertex 2.7332999706268 0.87587201595306 0
			vertex 2.7332999706268 1.3137999773026 0
		endloop
	endfacet
	facet normal -1 -0 0
		outer loop
			vertex 2.7332999706268 8.6274318695068 0.28999999165535
			vertex 2.7332999706268 1.3137999773026 0
			vertex 2.7332999706268 1.3137999773026 0.28999999165535
		endloop
	endfacet
	facet normal -0 0 1
		outer loop
			vertex 2.7332999706268 1.3137999773026 0.28999999165535
			vertex 3.8099999427795 0.28999999165535 0.28999999165535
			vertex 2.7332999706268 8.6274318695068 0.28999999165535
		endloop
	endfacet
	facet normal 0 0 -1
		outer loop
			vertex 2.7332999706268 8.460000038147 0
			vertex 5.4665999412537 0.43794402480125 0
			vertex 2.7332999706268 1.3137999773026 0
		endloop
	endfacet
	facet normal -1 0 0
		outer loop
			vertex 2.7332999706268 8.460000038147 0
			vertex 2.7332999706268 1.3137999773026 0
			vertex 2.7332999706268 9.1962003707886 0.28999999165535
		endloop
	endfacet
	facet normal -1 0 0
		outer loop
			vertex 2.7332999706268 1.3137999773026 0
			vertex 2.7332999706268 8.6274318695068 0.28999999165535
			vertex 2.7332999706268 9.1962003707886 0.28999999165535
		endloop
	endfacet
	facet normal -0 0 1
		outer loop
			vertex 2.7332999706268 8.6274318695068 0.28999999165535
			vertex 3.8099999427795 0.28999999165535 0.28999999165535
			vertex 3.0232999324799 8.6274318695068 0.28999999165535
		endloop
	endfacet
	facet normal 0 0 1
		outer loop
			vertex 3.8099999427795 7.8097457885742 0.28999999165535
			vertex 3.0232999324799 8.6274318695068 0.28999999165535
			vertex 3.8099999427795 0.28999999165535 0.28999999165535
		endloop
	endfacet
	facet normal 0 0 -1
		outer loop
			vertex 5.4665999412537 0.43794402480125 0
			vertex 2.7332999706268 8.460000038147 0
			vertex 2.7332999706268 9.1962003707886 0
		endloop
	endfacet
	facet normal 0 0 -1
		outer loop
			vertex 5.4665999412537 0.43794402480125 0
			vertex 2.7332999706268 9.1962003707886 0
			vertex 2.848709821701 10.066229820251 0
		endloop
	endfacet
	facet normal 0 0 -1
		outer loop
			vertex 2.7332999706268 10.072072029114 0
			vertex 2.848709821701 10.066229820251 0
			vertex 2.7332999706268 9.1962003707886 0
		endloop
	endfacet
	facet normal -0 1 0
		outer loop
			vertex 2.7332999706268 10.510000228882 0.28999999165535
			vertex 3.0232999324799 10.510000228882 0.28999999165535
			vertex 2.7332999706268 10.510000228882 0.14499999582767
		endloop
	endfacet
	facet normal 0 -0 1
		outer loop
			vertex 3.8099999427795 7.8097457885742 0.28999999165535
			vertex 4.0999999046326 7.8097457885742 0.28999999165535
			vertex 3.0232999324799 8.6274318695068 0.28999999165535
		endloop
	endfacet
	facet normal 0 -0 1
		outer loop
			vertex 4.0999999046326 7.8097457885742 0.28999999165535
			vertex 5.1765999794006 8.6274318695068 0.28999999165535
			vertex 3.0232999324799 8.6274318695068 0.28999999165535
		endloop
	endfacet
	facet normal 0 0 1
		outer loop
			vertex 5.1765999794006 8.6274318695068 0.28999999165535
			vertex 3.0232999324799 10.510000228882 0.28999999165535
			vertex 3.0232999324799 8.6274318695068 0.28999999165535
		endloop
	endfacet
	facet normal 0 1 0
		outer loop
			vertex 5.1765999794006 10.510000228882 0.28999999165535
			vertex 2.7332999706268 10.510000228882 0.14499999582767
			vertex 3.0232999324799 10.510000228882 0.28999999165535
		endloop
	endfacet
	facet normal 0 0 1
		outer loop
			vertex 5.3911805152893 0.28999999165535 0.28999999165535
			vertex 5.218101978302 0.95551645755768 0.28999999165535
			vertex 4.0999999046326 0.28999999165535 0.28999999165535
		endloop
	endfacet
	facet normal 0 0 1
		outer loop
			vertex 4.0999999046326 7.8097457885742 0.28999999165535
			vertex 4.0999999046326 0.28999999165535 0.28999999165535
			vertex 5.218101978302 0.95551645755768 0.28999999165535
		endloop
	endfacet
	facet normal 0 0 -1
		outer loop
			vertex 2.848709821701 10.066229820251 0
			vertex 5.4665999412537 1.3137999773026 0
			vertex 5.4665999412537 0.43794402480125 0
		endloop
	endfacet
	facet normal 0 0 1
		outer loop
			vertex 4.0999999046326 7.8097457885742 0.28999999165535
			vertex 5.218101978302 0.95551645755768 0.28999999165535
			vertex 5.4665999412537 1.3137999773026 0.28999999165535
		endloop
	endfacet
	facet normal 1 0 0
		outer loop
			vertex 5.4665999412537 1.3137999773026 0
			vertex 5.4665999412537 8.460000038147 0
			vertex 5.4665999412537 1.3137999773026 0.28999999165535
		endloop
	endfacet
	facet normal 0 0 1
		outer loop
			vertex 5.4665999412537 8.6274318695068 0.28999999165535
			vertex 4.0999999046326 7.8097457885742 0.28999999165535
			vertex 5.4665999412537 1.3137999773026 0.28999999165535
		endloop
	endfacet
	facet normal 0 0 -1
		outer loop
			vertex 5.4665999412537 1.3137999773026 0
			vertex 2.848709821701 10.066229820251 0
			vertex 5.4665999412537 8.460000038147 0
		endloop
	endfacet
	facet normal 1 -0 0
		outer loop
			vertex 5.4665999412537 1.3137999773026 0.28999999165535
			vertex 5.4665999412537 8.460000038147 0
			vertex 5.4665999412537 8.6274318695068 0.28999999165535
		endloop
	endfacet
	facet normal -0 0 1
		outer loop
			vertex 5.1765999794006 8.6274318695068 0.28999999165535
			vertex 4.0999999046326 7.8097457885742 0.28999999165535
			vertex 5.4665999412537 8.6274318695068 0.28999999165535
		endloop
	endfacet
	facet normal 0 0 -1
		outer loop
			vertex 2.848709821701 10.066229820251 0
			vertex 5.4665999412537 9.1962003707886 0
			vertex 5.4665999412537 8.460000038147 0
		endloop
	endfacet
	facet normal 0 0 -1
		outer loop
			vertex 2.848709821701 10.066229820251 0
			vertex 5.4665999412537 9.7110481262207 0
			vertex 5.4665999412537 9.1962003707886 0
		endloop
	endfacet
	facet normal 0 -0 1
		outer loop
			vertex 5.1765999794006 8.6274318695068 0.28999999165535
			vertex 5.1765999794006 10.510000228882 0.28999999165535
			vertex 3.0232999324799 10.510000228882 0.28999999165535
		endloop
	endfacet
	facet normal 0 1 0
		outer loop
			vertex 2.7332999706268 10.510000228882 0.14499999582767
			vertex 5.1765999794006 10.510000228882 0.28999999165535
			vertex 5.4665999412537 10.510000228882 0.28999999165535
		endloop
	endfacet
	facet normal 1 -0 0
		outer loop
			vertex 5.4665999412537 8.6274318695068 0.28999999165535
			vertex 5.4665999412537 8.460000038147 0
			vertex 5.4665999412537 9.1962003707886 0.28999999165535
		endloop
	endfacet
	facet normal 0 -1 0
		outer loop
			vertex 0 9.1962003707886 0
			vertex 2.7332999706268 9.1962003707886 0.28999999165535
			vertex 0 9.1962003707886 0.28999999165535
		endloop
	endfacet
	facet normal -1 0 0
		outer loop
			vertex 0 9.1962003707886 0
			vertex 0 9.1962003707886 0.28999999165535
			vertex 0 10.510000228882 0.28999999165535
		endloop
	endfacet
	facet normal -1 0 0
		outer loop
			vertex 0 9.1962003707886 0
			vertex 0 10.510000228882 0.28999999165535
			vertex 0 10.510000228882 0
		endloop
	endfacet
	facet normal 0 0 -1
		outer loop
			vertex 0 9.1962003707886 0
			vertex 0 10.510000228882 0
			vertex 2.7332999706268 9.1962003707886 0
		endloop
	endfacet
	facet normal 0 0 1
		outer loop
			vertex 0 9.1962003707886 0.28999999165535
			vertex 2.7332999706268 10.510000228882 0.28999999165535
			vertex 0 10.510000228882 0.28999999165535
		endloop
	endfacet
	facet normal 0 1 0
		outer loop
			vertex 0 10.510000228882 0
			vertex 0 10.510000228882 0.28999999165535
			vertex 2.7332999706268 10.510000228882 0.28999999165535
		endloop
	endfacet
	facet normal 0 -1 0
		outer loop
			vertex 0 9.1962003707886 0
			vertex 2.7332999706268 9.1962003707886 0
			vertex 2.7332999706268 9.1962003707886 0.28999999165535
		endloop
	endfacet
	facet normal 0 0 1
		outer loop
			vertex 0 9.1962003707886 0.28999999165535
			vertex 2.7332999706268 9.1962003707886 0.28999999165535
			vertex 2.7332999706268 10.510000228882 0.28999999165535
		endloop
	endfacet
	facet normal 0 0 -1
		outer loop
			vertex 0 10.510000228882 0
			vertex 2.7332999706268 10.072072029114 0
			vertex 2.7332999706268 9.1962003707886 0
		endloop
	endfacet
	facet normal 0 1 0
		outer loop
			vertex 0 10.510000228882 0
			vertex 2.7332999706268 10.510000228882 0.28999999165535
			vertex 2.7332999706268 10.510000228882 0.14499999582767
		endloop
	endfacet
	facet normal 0 0 -1
		outer loop
			vertex 0 10.510000228882 0
			vertex 8.1999998092651 10.510000228882 0
			vertex 2.7332999706268 10.072072029114 0
		endloop
	endfacet
	facet normal 0 1 0
		outer loop
			vertex 0 10.510000228882 0
			vertex 2.7332999706268 10.510000228882 0.14499999582767
			vertex 8.1999998092651 10.510000228882 0.28999999165535
		endloop
	endfacet
	facet normal 0 0 -1
		outer loop
			vertex 8.1999998092651 10.510000228882 0
			vertex 2.848709821701 10.066229820251 0
			vertex 2.7332999706268 10.072072029114 0
		endloop
	endfacet
	facet normal 0 0 -1
		outer loop
			vertex 8.1999998092651 10.510000228882 0
			vertex 5.4665999412537 9.7110481262207 0
			vertex 2.848709821701 10.066229820251 0
		endloop
	endfacet
	facet normal 0 1 0
		outer loop
			vertex 0 10.510000228882 0
			vertex 8.1999998092651 10.510000228882 0.28999999165535
			vertex 8.1999998092651 10.510000228882 0
		endloop
	endfacet
	facet normal 0 1 0
		outer loop
			vertex 8.1999998092651 10.510000228882 0.28999999165535
			vertex 2.7332999706268 10.510000228882 0.14499999582767
			vertex 5.4665999412537 10.510000228882 0.28999999165535
		endloop
	endfacet
	facet normal 0 -1 0
		outer loop
			vertex 5.4665999412537 9.1962003707886 0.28999999165535
			vertex 5.4665999412537 9.1962003707886 0
			vertex 8.1999998092651 9.1962003707886 0.28999999165535
		endloop
	endfacet
	facet normal 0 0 -1
		outer loop
			vertex 8.1999998092651 9.1962003707886 0
			vertex 5.4665999412537 9.1962003707886 0
			vertex 5.4665999412537 9.7110481262207 0
		endloop
	endfacet
	facet normal 0 0 1
		outer loop
			vertex 5.4665999412537 9.1962003707886 0.28999999165535
			vertex 8.1999998092651 10.510000228882 0.28999999165535
			vertex 5.4665999412537 10.510000228882 0.28999999165535
		endloop
	endfacet
	facet normal 0 -1 0
		outer loop
			vertex 8.1999998092651 9.1962003707886 0
			vertex 8.1999998092651 9.1962003707886 0.28999999165535
			vertex 5.4665999412537 9.1962003707886 0
		endloop
	endfacet
	facet normal 0 0 -1
		outer loop
			vertex 8.1999998092651 9.1962003707886 0
			vertex 5.4665999412537 9.7110481262207 0
			vertex 8.1999998092651 10.510000228882 0
		endloop
	endfacet
	facet normal 0 0 1
		outer loop
			vertex 5.4665999412537 9.1962003707886 0.28999999165535
			vertex 8.1999998092651 9.1962003707886 0.28999999165535
			vertex 8.1999998092651 10.510000228882 0.28999999165535
		endloop
	endfacet
	facet normal 1 0 0
		outer loop
			vertex 8.1999998092651 9.1962003707886 0
			vertex 8.1999998092651 10.510000228882 0
			vertex 8.1999998092651 9.1962003707886 0.28999999165535
		endloop
	endfacet
	facet normal 1 -0 0
		outer loop
			vertex 8.1999998092651 9.1962003707886 0.28999999165535
			vertex 8.1999998092651 10.510000228882 0
			vertex 8.1999998092651 10.510000228882 0.28999999165535
		endloop
	endfacet
	facet normal -1 0 -0
		outer loop
			vertex 2.7332999706268 9.1962003707886 0.28999999165535
			vertex 2.7332999706268 9.1962003707886 0
			vertex 2.7332999706268 8.460000038147 0
		endloop
	endfacet
	facet normal -1 0 0
		outer loop
			vertex 2.7332999706268 10.510000228882 3.550704240799
			vertex 2.7332999706268 9.1962003707886 0.28999999165535
			vertex 2.7332999706268 8.6274318695068 0.28999999165535
		endloop
	endfacet
	facet normal 0 -0.86602541719594 0.4999999767706
		outer loop
			vertex 2.7332999706268 10.510000228882 3.550704240799
			vertex 2.7332999706268 8.6274318695068 0.28999999165535
			vertex 3.0232999324799 8.6274318695068 0.28999999165535
		endloop
	endfacet
	facet normal -1 0 0
		outer loop
			vertex 2.7332999706268 9.1962003707886 0.28999999165535
			vertex 2.7332999706268 10.510000228882 3.550704240799
			vertex 2.7332999706268 10.510000228882 0.28999999165535
		endloop
	endfacet
	facet normal 1 0 0
		outer loop
			vertex 3.0232999324799 10.510000228882 3.550704240799
			vertex 3.0232999324799 8.6274318695068 0.28999999165535
			vertex 3.0232999324799 10.510000228882 0.28999999165535
		endloop
	endfacet
	facet normal 0 1 0
		outer loop
			vertex 2.7332999706268 10.510000228882 3.550704240799
			vertex 3.0232999324799 10.510000228882 0.28999999165535
			vertex 2.7332999706268 10.510000228882 0.28999999165535
		endloop
	endfacet
	facet normal 0 -0.86602541719594 0.4999999767706
		outer loop
			vertex 2.7332999706268 10.510000228882 3.550704240799
			vertex 3.0232999324799 8.6274318695068 0.28999999165535
			vertex 3.0232999324799 10.510000228882 3.550704240799
		endloop
	endfacet
	facet normal -0 1 0
		outer loop
			vertex 2.7332999706268 10.510000228882 3.550704240799
			vertex 3.0232999324799 10.510000228882 3.550704240799
			vertex 3.0232999324799 10.510000228882 0.28999999165535
		endloop
	endfacet
	facet normal 1 0 0
		outer loop
			vertex 5.4665999412537 9.1962003707886 0.28999999165535
			vertex 5.4665999412537 8.460000038147 0
			vertex 5.4665999412537 9.1962003707886 0
		endloop
	endfacet
	facet normal 0 -0.86602541719594 0.4999999767706
		outer loop
			vertex 5.1765999794006 10.510000228882 3.550704240799
			vertex 5.1765999794006 8.6274318695068 0.28999999165535
			vertex 5.4665999412537 8.6274318695068 0.28999999165535
		endloop
	endfacet
	facet normal 1 0 -0
		outer loop
			vertex 5.4665999412537 9.1962003707886 0.28999999165535
			vertex 5.4665999412537 10.510000228882 3.550704240799
			vertex 5.4665999412537 8.6274318695068 0.28999999165535
		endloop
	endfacet
	facet normal -1 0 -0
		outer loop
			vertex 5.1765999794006 10.510000228882 3.550704240799
			vertex 5.1765999794006 10.510000228882 0.28999999165535
			vertex 5.1765999794006 8.6274318695068 0.28999999165535
		endloop
	endfacet
	facet normal 0 1 0
		outer loop
			vertex 5.1765999794006 10.510000228882 3.550704240799
			vertex 5.4665999412537 10.510000228882 0.28999999165535
			vertex 5.1765999794006 10.510000228882 0.28999999165535
		endloop
	endfacet
	facet normal 1 0 0
		outer loop
			vertex 5.4665999412537 10.510000228882 3.550704240799
			vertex 5.4665999412537 9.1962003707886 0.28999999165535
			vertex 5.4665999412537 10.510000228882 0.28999999165535
		endloop
	endfacet
	facet normal 0 -0.86602541719594 0.4999999767706
		outer loop
			vertex 5.1765999794006 10.510000228882 3.550704240799
			vertex 5.4665999412537 8.6274318695068 0.28999999165535
			vertex 5.4665999412537 10.510000228882 3.550704240799
		endloop
	endfacet
	facet normal -0 1 0
		outer loop
			vertex 5.1765999794006 10.510000228882 3.550704240799
			vertex 5.4665999412537 10.510000228882 3.550704240799
			vertex 5.4665999412537 10.510000228882 0.28999999165535
		endloop
	endfacet
	facet normal -1 0 0
		outer loop
			vertex 0 0 0
			vertex 0 0 0.28999999165535
			vertex 0 1.3137999773026 0.28999999165535
		endloop
	endfacet
	facet normal -1 0 0
		outer loop
			vertex 0 0 0
			vertex 0 1.3137999773026 0.28999999165535
			vertex 0 1.3137999773026 0
		endloop
	endfacet
	facet normal 0 0 1
		outer loop
			vertex 0 0 0.28999999165535
			vertex 2.0499999523163 0.28999999165535 0.28999999165535
			vertex 0 1.3137999773026 0.28999999165535
		endloop
	endfacet
	facet normal 0 0 -1
		outer loop
			vertex 0 0 0
			vertex 0 1.3137999773026 0
			vertex 2.7332999706268 0.87587201595306 0
		endloop
	endfacet
	facet normal 0 1 0
		outer loop
			vertex 0 1.3137999773026 0
			vertex 0 1.3137999773026 0.28999999165535
			vertex 2.7332999706268 1.3137999773026 0
		endloop
	endfacet
	facet normal 0 0 1
		outer loop
			vertex 0 0 0.28999999165535
			vertex 2.0499999523163 0 0.28999999165535
			vertex 2.0499999523163 0.28999999165535 0.28999999165535
		endloop
	endfacet
	facet normal -0 0 1
		outer loop
			vertex 0 1.3137999773026 0.28999999165535
			vertex 2.0499999523163 0.28999999165535 0.28999999165535
			vertex 2.7332999706268 1.3137999773026 0.28999999165535
		endloop
	endfacet
	facet normal 0 0 -1
		outer loop
			vertex 0 1.3137999773026 0
			vertex 2.7332999706268 1.3137999773026 0
			vertex 2.7332999706268 0.87587201595306 0
		endloop
	endfacet
	facet normal -0 1 0
		outer loop
			vertex 0 1.3137999773026 0.28999999165535
			vertex 2.7332999706268 1.3137999773026 0.28999999165535
			vertex 2.7332999706268 1.3137999773026 0
		endloop
	endfacet
	facet normal 0 0 1
		outer loop
			vertex 2.0499999523163 0.28999999165535 0.28999999165535
			vertex 2.7332999706268 0.28999999165535 0.28999999165535
			vertex 2.7332999706268 1.3137999773026 0.28999999165535
		endloop
	endfacet
	facet normal 0 -1 0
		outer loop
			vertex 0 0 0
			vertex 8.1999998092651 0 0
			vertex 0 0 0.28999999165535
		endloop
	endfacet
	facet normal 0 0 -1
		outer loop
			vertex 0 0 0
			vertex 2.7332999706268 0.87587201595306 0
			vertex 5.4665999412537 0.43794402480125 0
		endloop
	endfacet
	facet normal 0 -1 0
		outer loop
			vertex 0 0 0.28999999165535
			vertex 8.1999998092651 0 0
			vertex 2.0499999523163 0 0.28999999165535
		endloop
	endfacet
	facet normal 0 0 -1
		outer loop
			vertex 0 0 0
			vertex 5.4665999412537 0.43794402480125 0
			vertex 8.1999998092651 0 0
		endloop
	endfacet
	facet normal 0 -1 0
		outer loop
			vertex 2.0499999523163 0 0.28999999165535
			vertex 8.1999998092651 0 0
			vertex 6.1500000953674 0 0.28999999165535
		endloop
	endfacet
	facet normal 0 0 1
		outer loop
			vertex 6.1500000953674 0.28999999165535 0.28999999165535
			vertex 5.218101978302 0.95551645755768 0.28999999165535
			vertex 5.3911805152893 0.28999999165535 0.28999999165535
		endloop
	endfacet
	facet normal -0 -0 1
		outer loop
			vertex 6.1500000953674 0.28999999165535 0.28999999165535
			vertex 8.1999998092651 0 0.28999999165535
			vertex 5.218101978302 0.95551645755768 0.28999999165535
		endloop
	endfacet
	facet normal 0 0 1
		outer loop
			vertex 8.1999998092651 0 0.28999999165535
			vertex 5.4665999412537 1.3137999773026 0.28999999165535
			vertex 5.218101978302 0.95551645755768 0.28999999165535
		endloop
	endfacet
	facet normal -0 0 -1
		outer loop
			vertex 8.1999998092651 1.3137999773026 0
			vertex 5.4665999412537 0.43794402480125 0
			vertex 5.4665999412537 1.3137999773026 0
		endloop
	endfacet
	facet normal 0 0 1
		outer loop
			vertex 6.1500000953674 0 0.28999999165535
			vertex 8.1999998092651 0 0.28999999165535
			vertex 6.1500000953674 0.28999999165535 0.28999999165535
		endloop
	endfacet
	facet normal 0 1 0
		outer loop
			vertex 8.1999998092651 1.3137999773026 0
			vertex 5.4665999412537 1.3137999773026 0
			vertex 5.4665999412537 1.3137999773026 0.28999999165535
		endloop
	endfacet
	facet normal 0 0 -1
		outer loop
			vertex 8.1999998092651 0 0
			vertex 5.4665999412537 0.43794402480125 0
			vertex 8.1999998092651 1.3137999773026 0
		endloop
	endfacet
	facet normal 0 -1 0
		outer loop
			vertex 6.1500000953674 0 0.28999999165535
			vertex 8.1999998092651 0 0
			vertex 8.1999998092651 0 0.28999999165535
		endloop
	endfacet
	facet normal 0 -0 1
		outer loop
			vertex 8.1999998092651 0 0.28999999165535
			vertex 8.1999998092651 1.3137999773026 0.28999999165535
			vertex 5.4665999412537 1.3137999773026 0.28999999165535
		endloop
	endfacet
	facet normal 1 0 0
		outer loop
			vertex 8.1999998092651 0 0
			vertex 8.1999998092651 1.3137999773026 0
			vertex 8.1999998092651 0 0.28999999165535
		endloop
	endfacet
	facet normal 1 -0 0
		outer loop
			vertex 8.1999998092651 0 0.28999999165535
			vertex 8.1999998092651 1.3137999773026 0
			vertex 8.1999998092651 1.3137999773026 0.28999999165535
		endloop
	endfacet
	facet normal 0 1 -0
		outer loop
			vertex 8.1999998092651 1.3137999773026 0
			vertex 5.4665999412537 1.3137999773026 0.28999999165535
			vertex 8.1999998092651 1.3137999773026 0.28999999165535
		endloop
	endfacet
	facet normal -1 0 0
		outer loop
			vertex 2.0499999523163 0 0.28999999165535
			vertex 2.0499999523163 0 7.391900062561
			vertex 2.0499999523163 0.28999999165535 0.28999999165535
		endloop
	endfacet
	facet normal 0 1 0
		outer loop
			vertex 2.0499999523163 0.28999999165535 0.28999999165535
			vertex 2.0499999523163 0.28999999165535 7.3141946792603
			vertex 2.7332999706268 0.28999999165535 0.28999999165535
		endloop
	endfacet
	facet normal 0 1 0
		outer loop
			vertex 2.0499999523163 0.28999999165535 7.3141946792603
			vertex 3.8099999427795 0.28999999165535 0.28999999165535
			vertex 2.7332999706268 0.28999999165535 0.28999999165535
		endloop
	endfacet
	facet normal -1 0 0
		outer loop
			vertex 2.0499999523163 0.28999999165535 0.28999999165535
			vertex 2.0499999523163 0 7.391900062561
			vertex 2.0499999523163 0.28999999165535 7.3141946792603
		endloop
	endfacet
	facet normal -0 1 0
		outer loop
			vertex 2.0499999523163 0.28999999165535 7.3141946792603
			vertex 3.8099999427795 0.28999999165535 7.3141946792603
			vertex 3.8099999427795 0.28999999165535 0.28999999165535
		endloop
	endfacet
	facet normal 0 -1 0
		outer loop
			vertex 2.0499999523163 0 0.28999999165535
			vertex 6.1500000953674 0 7.391900062561
			vertex 2.0499999523163 0 7.391900062561
		endloop
	endfacet
	facet normal -1 0 0
		outer loop
			vertex 2.0499999523163 0.28999999165535 7.3141946792603
			vertex 2.0499999523163 0 7.391900062561
			vertex 2.0499999523163 0.28999999165535 7.391900062561
		endloop
	endfacet
	facet normal 0 1 0
		outer loop
			vertex 4.0999999046326 0.28999999165535 7.3141946792603
			vertex 5.3911805152893 0.28999999165535 0.28999999165535
			vertex 4.0999999046326 0.28999999165535 0.28999999165535
		endloop
	endfacet
	facet normal 0 -1 0
		outer loop
			vertex 2.0499999523163 0 0.28999999165535
			vertex 6.1500000953674 0 0.28999999165535
			vertex 6.1500000953674 0 7.391900062561
		endloop
	endfacet
	facet normal 0 1 0
		outer loop
			vertex 4.0999999046326 0.28999999165535 7.3141946792603
			vertex 6.1500000953674 0.28999999165535 0.28999999165535
			vertex 5.3911805152893 0.28999999165535 0.28999999165535
		endloop
	endfacet
	facet normal 1 0 0
		outer loop
			vertex 6.1500000953674 0 0.28999999165535
			vertex 6.1500000953674 0.28999999165535 0.28999999165535
			vertex 6.1500000953674 0.2511473596096 7.2469000816345
		endloop
	endfacet
	facet normal 0 1 -0
		outer loop
			vertex 6.1500000953674 0.28999999165535 0.28999999165535
			vertex 4.0999999046326 0.28999999165535 7.3141946792603
			vertex 6.1500000953674 0.28999999165535 7.3141946792603
		endloop
	endfacet
	facet normal 1 0 0
		outer loop
			vertex 6.1500000953674 0 0.28999999165535
			vertex 6.1500000953674 0.2511473596096 7.2469000816345
			vertex 6.1500000953674 0 7.391900062561
		endloop
	endfacet
	facet normal 1 0 0
		outer loop
			vertex 6.1500000953674 0.28999999165535 0.28999999165535
			vertex 6.1500000953674 0.28207811713219 7.300473690033
			vertex 6.1500000953674 0.2511473596096 7.2469000816345
		endloop
	endfacet
	facet normal 1 0 -0
		outer loop
			vertex 6.1500000953674 0.28999999165535 0.28999999165535
			vertex 6.1500000953674 0.28999999165535 7.3141946792603
			vertex 6.1500000953674 0.28207811713219 7.300473690033
		endloop
	endfacet
	facet normal 1 0 0
		outer loop
			vertex 6.1500000953674 0.28207811713219 7.300473690033
			vertex 6.1500000953674 0.28999999165535 7.3141946792603
			vertex 6.1500000953674 0.28999999165535 7.352264881134
		endloop
	endfacet
	facet normal 1.3309548158507e-07 0.86602522184605 -0.50000031512639
		outer loop
			vertex 2.0499999523163 0.28999999165535 7.3141946792603
			vertex 2.8236722946167 0.57791018486023 7.8128695487976
			vertex 3.0971956253052 0.46567270159721 7.6184687614441
		endloop
	endfacet
	facet normal 9.6626888809207e-08 -0.86602545643001 0.49999990881518
		outer loop
			vertex 2.0499999523163 0 7.391900062561
			vertex 3.4092564582825 0.13112539052963 7.6190156936646
			vertex 3.0971956253052 0.21452534198761 7.7634687423706
		endloop
	endfacet
	facet normal -6.1637063071299e-08 -0.86602504628525 0.50000061920625
		outer loop
			vertex 2.0499999523163 0 7.391900062561
			vertex 3.7478618621826 0.07976795732975 7.5300621986389
			vertex 3.4092564582825 0.13112539052963 7.6190156936646
		endloop
	endfacet
	facet normal -5.2201216669798e-08 0.86602549798729 -0.49999983683583
		outer loop
			vertex 2.0499999523163 0.28999999165535 7.3141946792603
			vertex 3.0971956253052 0.46567270159721 7.6184687614441
			vertex 3.4092564582825 0.38227275013924 7.474015712738
		endloop
	endfacet
	facet normal 5.5943825297759e-08 0.86602509971981 -0.50000052665501
		outer loop
			vertex 2.0499999523163 0.28999999165535 7.3141946792603
			vertex 3.4092564582825 0.38227275013924 7.474015712738
			vertex 3.7478618621826 0.33091533184052 7.3850622177124
		endloop
	endfacet
	facet normal -1 0 0
		outer loop
			vertex 2.0499999523163 0 7.391900062561
			vertex 2.0499999523163 1.0305473804474 8.5968599319458
			vertex 2.0499999523163 0.28999999165535 7.391900062561
		endloop
	endfacet
	facet normal -1 0 0
		outer loop
			vertex 2.0499999523163 0.28999999165535 7.3141946792603
			vertex 2.0499999523163 0.28999999165535 7.391900062561
			vertex 2.0499999523163 1.0305473804474 8.5968599319458
		endloop
	endfacet
	facet normal -4.240171013291e-07 -0.86602522175626 0.50000031528175
		outer loop
			vertex 2.0499999523163 0 7.391900062561
			vertex 2.8236722946167 0.3267627954483 7.9578700065613
			vertex 2.5991973876953 0.46352455019951 8.1947479248047
		endloop
	endfacet
	facet normal 5.7762846674732e-07 0.86602533555543 -0.50000011817575
		outer loop
			vertex 2.0499999523163 0.28999999165535 7.3141946792603
			vertex 2.4323973655701 0.87070226669312 8.3200006484985
			vertex 2.5991973876953 0.71467190980911 8.0497484207153
		endloop
	endfacet
	facet normal -6.0559830287704e-07 0.86602571810047 -0.4999994555879
		outer loop
			vertex 2.0499999523163 0.28999999165535 7.3141946792603
			vertex 2.5991973876953 0.71467190980911 8.0497484207153
			vertex 2.8236722946167 0.57791018486023 7.8128695487976
		endloop
	endfacet
	facet normal -2.21521012042e-07 -0.86602528173718 0.50000021139195
		outer loop
			vertex 2.0499999523163 0 7.391900062561
			vertex 2.5991973876953 0.46352455019951 8.1947479248047
			vertex 2.4323973655701 0.61955487728119 8.4650001525879
		endloop
	endfacet
	facet normal -1 0 0
		outer loop
			vertex 2.0499999523163 0 7.391900062561
			vertex 2.0499999523163 0.77939999103546 8.7418603897095
			vertex 2.0499999523163 1.0305473804474 8.5968599319458
		endloop
	endfacet
	facet normal 0 -0.86602539468389 0.5000000157626
		outer loop
			vertex 2.0499999523163 0 7.391900062561
			vertex 2.266129732132 0.77939999103546 8.7418603897095
			vertex 2.0499999523163 0.77939999103546 8.7418603897095
		endloop
	endfacet
	facet normal 9.2689373563292e-07 -0.86602545894107 0.49999990446504
		outer loop
			vertex 2.0499999523163 0 7.391900062561
			vertex 2.4323973655701 0.61955487728119 8.4650001525879
			vertex 2.266129732132 0.77939999103546 8.7418603897095
		endloop
	endfacet
	facet normal 6.2469154689548e-07 0.86602532780755 -0.50000013159542
		outer loop
			vertex 2.0499999523163 0.28999999165535 7.3141946792603
			vertex 2.0499999523163 1.0305473804474 8.5968599319458
			vertex 2.4323973655701 0.87070226669312 8.3200006484985
		endloop
	endfacet
	facet normal 0 0.5000011505514 0.86602473951226
		outer loop
			vertex 2.0499999523163 0.77939999103546 8.7418603897095
			vertex 2.266129732132 1.0305473804474 8.5968599319458
			vertex 2.0499999523163 1.0305473804474 8.5968599319458
		endloop
	endfacet
	facet normal 0 0.86602495419445 -0.5000007787119
		outer loop
			vertex 2.0499999523163 1.0305473804474 8.5968599319458
			vertex 2.266129732132 1.0305473804474 8.5968599319458
			vertex 2.4323973655701 0.87070226669312 8.3200006484985
		endloop
	endfacet
	facet normal -0 0.5000011505514 0.86602473951226
		outer loop
			vertex 2.0499999523163 0.77939999103546 8.7418603897095
			vertex 2.266129732132 0.77939999103546 8.7418603897095
			vertex 2.266129732132 1.0305473804474 8.5968599319458
		endloop
	endfacet
	facet normal 2.1359381695378e-07 -0.86602559917214 0.49999966157837
		outer loop
			vertex 2.0499999523163 0 7.391900062561
			vertex 3.0971956253052 0.21452534198761 7.7634687423706
			vertex 2.8236722946167 0.3267627954483 7.9578700065613
		endloop
	endfacet
	facet normal -1.4901969967412e-07 0.86602722605257 -0.4999968437257
		outer loop
			vertex 2.0499999523163 0.28999999165535 7.3141946792603
			vertex 3.7478618621826 0.33091533184052 7.3850622177124
			vertex 3.8099999427795 0.31903257966042 7.3644804954529
		endloop
	endfacet
	facet normal 0 0.86602496760393 -0.50000075548604
		outer loop
			vertex 2.0499999523163 0.28999999165535 7.3141946792603
			vertex 3.8099999427795 0.31903257966042 7.3644804954529
			vertex 3.8099999427795 0.28999999165535 7.3141946792603
		endloop
	endfacet
	facet normal -8.0652399719227e-09 -0.86602533135471 0.50000012545194
		outer loop
			vertex 2.0499999523163 0 7.391900062561
			vertex 4.0999999046326 0.062426671385765 7.5000262260437
			vertex 3.7478618621826 0.07976795732975 7.5300621986389
		endloop
	endfacet
	facet normal 0 0.86602742086586 -0.49999650629621
		outer loop
			vertex 3.8099999427795 0.31903257966042 7.3644804954529
			vertex 3.7478618621826 0.33091533184052 7.3850622177124
			vertex 3.989156961441 0.31903257966042 7.3644804954529
		endloop
	endfacet
	facet normal 0 -0.86602539756737 0.50000001076827
		outer loop
			vertex 2.0499999523163 0 7.391900062561
			vertex 6.1500000953674 0 7.391900062561
			vertex 4.0999999046326 0.062426671385765 7.5000262260437
		endloop
	endfacet
	facet normal 0 0.86602596674718 -0.49999902491866
		outer loop
			vertex 4.0999999046326 0.28999999165535 7.3141946792603
			vertex 4.0999999046326 0.31357404589653 7.3550262451172
			vertex 6.1500000953674 0.28999999165535 7.3141946792603
		endloop
	endfacet
	facet normal -2.5220877529531e-08 0.86602541844681 -0.49999997460403
		outer loop
			vertex 4.0999999046326 0.31357404589653 7.3550262451172
			vertex 4.4521379470825 0.33091533184052 7.3850622177124
			vertex 6.1500000953674 0.28999999165535 7.3141946792603
		endloop
	endfacet
	facet normal 8.0652393923262e-09 -0.86602533135471 0.50000012545195
		outer loop
			vertex 4.0999999046326 0.062426671385765 7.5000262260437
			vertex 6.1500000953674 0 7.391900062561
			vertex 4.4521379470825 0.07976795732975 7.5300621986389
		endloop
	endfacet
	facet normal 6.1637035935057e-08 -0.86602504628535 0.50000061920608
		outer loop
			vertex 4.4521379470825 0.07976795732975 7.5300621986389
			vertex 6.1500000953674 0 7.391900062561
			vertex 4.7907438278198 0.13112539052963 7.6190156936646
		endloop
	endfacet
	facet normal -9.6626940422674e-08 -0.8660254564301 0.49999990881503
		outer loop
			vertex 4.7907438278198 0.13112539052963 7.6190156936646
			vertex 6.1500000953674 0 7.391900062561
			vertex 5.10280418396 0.21452534198761 7.7634687423706
		endloop
	endfacet
	facet normal -5.5943807717985e-08 0.86602509971992 -0.50000052665483
		outer loop
			vertex 4.4521379470825 0.33091533184052 7.3850622177124
			vertex 4.7907438278198 0.38227275013924 7.474015712738
			vertex 6.1500000953674 0.28999999165535 7.3141946792603
		endloop
	endfacet
	facet normal 5.2201240128285e-08 0.86602549798735 -0.49999983683574
		outer loop
			vertex 4.7907438278198 0.38227275013924 7.474015712738
			vertex 5.10280418396 0.46567270159721 7.6184687614441
			vertex 6.1500000953674 0.28999999165535 7.3141946792603
		endloop
	endfacet
	facet normal -1.3309546007609e-07 0.86602522184603 -0.50000031512641
		outer loop
			vertex 5.10280418396 0.46567270159721 7.6184687614441
			vertex 5.3763275146484 0.57791018486023 7.8128695487976
			vertex 6.1500000953674 0.28999999165535 7.3141946792603
		endloop
	endfacet
	facet normal -2.1359378451754e-07 -0.86602559917216 0.49999966157834
		outer loop
			vertex 5.10280418396 0.21452534198761 7.7634687423706
			vertex 6.1500000953674 0 7.391900062561
			vertex 5.3763275146484 0.3267627954483 7.9578700065613
		endloop
	endfacet
	facet normal 4.2401702415891e-07 -0.86602522175622 0.5000003152818
		outer loop
			vertex 5.3763275146484 0.3267627954483 7.9578700065613
			vertex 6.1500000953674 0 7.391900062561
			vertex 5.6008024215698 0.46352455019951 8.1947479248047
		endloop
	endfacet
	facet normal 6.0559818701938e-07 0.86602571810052 -0.49999945558782
		outer loop
			vertex 5.3763275146484 0.57791018486023 7.8128695487976
			vertex 5.6008024215698 0.71467190980911 8.0497484207153
			vertex 6.1500000953674 0.28999999165535 7.3141946792603
		endloop
	endfacet
	facet normal -5.7762832946682e-07 0.8660253355554 -0.50000011817581
		outer loop
			vertex 5.6008024215698 0.71467190980911 8.0497484207153
			vertex 5.7676024436951 0.87070226669312 8.3200006484985
			vertex 6.1500000953674 0.28999999165535 7.3141946792603
		endloop
	endfacet
	facet normal 2.2152096148787e-07 -0.86602528173716 0.50000021139197
		outer loop
			vertex 5.6008024215698 0.46352455019951 8.1947479248047
			vertex 6.1500000953674 0 7.391900062561
			vertex 5.7676024436951 0.61955487728119 8.4650001525879
		endloop
	endfacet
	facet normal -5.1045683133014e-07 -0.86602539468378 0.50000001576254
		outer loop
			vertex 5.7676024436951 0.61955487728119 8.4650001525879
			vertex 6.1500000953674 0 7.391900062561
			vertex 6.1500000953674 0.77939999103546 8.7418603897095
		endloop
	endfacet
	facet normal -1.1219319244294e-06 0.86602524594777 -0.50000027337977
		outer loop
			vertex 5.7676024436951 0.87070226669312 8.3200006484985
			vertex 5.9338703155518 1.0305473804474 8.5968599319458
			vertex 6.1500000953674 0.28999999165535 7.3141946792603
		endloop
	endfacet
	facet normal 0 0.86602532780772 -0.50000013159552
		outer loop
			vertex 5.9338703155518 1.0305473804474 8.5968599319458
			vertex 6.1500000953674 1.0305473804474 8.5968599319458
			vertex 6.1500000953674 0.28999999165535 7.3141946792603
		endloop
	endfacet
	facet normal 0 -0.86602569997505 0.49999948698247
		outer loop
			vertex 5.7676024436951 0.61955487728119 8.4650001525879
			vertex 6.1500000953674 0.77939999103546 8.7418603897095
			vertex 5.9338703155518 0.77939999103546 8.7418603897095
		endloop
	endfacet
	facet normal 0 0.5000011505514 0.86602473951226
		outer loop
			vertex 5.9338703155518 0.77939999103546 8.7418603897095
			vertex 6.1500000953674 1.0305473804474 8.5968599319458
			vertex 5.9338703155518 1.0305473804474 8.5968599319458
		endloop
	endfacet
	facet normal -0 0.5000011505514 0.86602473951226
		outer loop
			vertex 5.9338703155518 0.77939999103546 8.7418603897095
			vertex 6.1500000953674 0.77939999103546 8.7418603897095
			vertex 6.1500000953674 1.0305473804474 8.5968599319458
		endloop
	endfacet
	facet normal 1 0 0
		outer loop
			vertex 6.1500000953674 0.2511473596096 7.2469000816345
			vertex 6.1500000953674 0.28207811713219 7.300473690033
			vertex 6.1500000953674 0.28999999165535 7.352264881134
		endloop
	endfacet
	facet normal 1 0 0
		outer loop
			vertex 6.1500000953674 0.2511473596096 7.2469000816345
			vertex 6.1500000953674 0.28999999165535 7.352264881134
			vertex 6.1500000953674 0.77939999103546 8.7418603897095
		endloop
	endfacet
	facet normal 1 0 -0
		outer loop
			vertex 6.1500000953674 0.2511473596096 7.2469000816345
			vertex 6.1500000953674 0.77939999103546 8.7418603897095
			vertex 6.1500000953674 0 7.391900062561
		endloop
	endfacet
	facet normal 1 0 0
		outer loop
			vertex 6.1500000953674 0.28999999165535 7.3141946792603
			vertex 6.1500000953674 1.0305473804474 8.5968599319458
			vertex 6.1500000953674 0.28999999165535 7.352264881134
		endloop
	endfacet
	facet normal 1 0 0
		outer loop
			vertex 6.1500000953674 0.28999999165535 7.352264881134
			vertex 6.1500000953674 1.0305473804474 8.5968599319458
			vertex 6.1500000953674 0.77939999103546 8.7418603897095
		endloop
	endfacet
	facet normal 0.88192099163645 0.23569802420661 0.40824233721662
		outer loop
			vertex 2.4323973655701 0.61955487728119 8.4650001525879
			vertex 2.5991973876953 0.46352455019951 8.1947479248047
			vertex 2.5991973876953 0.71467190980911 8.0497484207153
		endloop
	endfacet
	facet normal 0.88192100099445 0.23569799447604 0.40824233416554
		outer loop
			vertex 2.4323973655701 0.61955487728119 8.4650001525879
			vertex 2.5991973876953 0.71467190980911 8.0497484207153
			vertex 2.4323973655701 0.87070226669312 8.3200006484985
		endloop
	endfacet
	facet normal 0.88718437475978 0.23070693779504 0.39959754007668
		outer loop
			vertex 2.4323973655701 0.61955487728119 8.4650001525879
			vertex 2.4323973655701 0.87070226669312 8.3200006484985
			vertex 2.266129732132 0.77939999103546 8.7418603897095
		endloop
	endfacet
	facet normal 0.88718388678249 0.23070854495774 0.39959769558519
		outer loop
			vertex 2.266129732132 0.77939999103546 8.7418603897095
			vertex 2.4323973655701 0.87070226669312 8.3200006484985
			vertex 2.266129732132 1.0305473804474 8.5968599319458
		endloop
	endfacet
	facet normal 0.77301104216994 0.31719547681551 0.54940054438553
		outer loop
			vertex 2.5991973876953 0.46352455019951 8.1947479248047
			vertex 2.8236722946167 0.57791018486023 7.8128695487976
			vertex 2.5991973876953 0.71467190980911 8.0497484207153
		endloop
	endfacet
	facet normal 0.77301011974459 0.3171975752417 0.54940063071791
		outer loop
			vertex 2.5991973876953 0.46352455019951 8.1947479248047
			vertex 2.8236722946167 0.3267627954483 7.9578700065613
			vertex 2.8236722946167 0.57791018486023 7.8128695487976
		endloop
	endfacet
	facet normal 0.63439322624416 0.38650613983633 0.66944621767873
		outer loop
			vertex 2.8236722946167 0.3267627954483 7.9578700065613
			vertex 3.0971956253052 0.46567270159721 7.6184687614441
			vertex 2.8236722946167 0.57791018486023 7.8128695487976
		endloop
	endfacet
	facet normal 0.63439389844821 0.38650494512763 0.66944627043816
		outer loop
			vertex 2.8236722946167 0.3267627954483 7.9578700065613
			vertex 3.0971956253052 0.21452534198761 7.7634687423706
			vertex 3.0971956253052 0.46567270159721 7.6184687614441
		endloop
	endfacet
	facet normal 0.47139672636759 0.44096060132618 0.7637662433284
		outer loop
			vertex 3.4092564582825 0.13112539052963 7.6190156936646
			vertex 3.4092564582825 0.38227275013924 7.474015712738
			vertex 3.0971956253052 0.21452534198761 7.7634687423706
		endloop
	endfacet
	facet normal 0.47139672636759 0.44096060132618 0.7637662433284
		outer loop
			vertex 3.0971956253052 0.46567270159721 7.6184687614441
			vertex 3.0971956253052 0.21452534198761 7.7634687423706
			vertex 3.4092564582825 0.38227275013924 7.474015712738
		endloop
	endfacet
	facet normal 0.290284338934 0.47847018267541 0.82873475060493
		outer loop
			vertex 3.4092564582825 0.13112539052963 7.6190156936646
			vertex 3.7478618621826 0.33091533184052 7.3850622177124
			vertex 3.4092564582825 0.38227275013924 7.474015712738
		endloop
	endfacet
	facet normal 0.29028435821594 0.47847015845929 0.82873475783215
		outer loop
			vertex 3.4092564582825 0.13112539052963 7.6190156936646
			vertex 3.7478618621826 0.07976795732975 7.5300621986389
			vertex 3.7478618621826 0.33091533184052 7.3850622177124
		endloop
	endfacet
	facet normal 0.098017168257049 0.49759230185452 0.86185528707666
		outer loop
			vertex 3.7478618621826 0.07976795732975 7.5300621986389
			vertex 3.8954474925995 0.28999999165535 7.391900062561
			vertex 3.7478618621826 0.33091533184052 7.3850622177124
		endloop
	endfacet
	facet normal 0.098017107554975 0.49759233603577 0.86185527424564
		outer loop
			vertex 3.7478618621826 0.07976795732975 7.5300621986389
			vertex 4.0999999046326 0.062426671385765 7.5000262260437
			vertex 3.8954474925995 0.28999999165535 7.391900062561
		endloop
	endfacet
	facet normal 0.098017865249065 0.49759458265531 0.86185389098391
		outer loop
			vertex 3.7478618621826 0.33091533184052 7.3850622177124
			vertex 3.8954474925995 0.28999999165535 7.391900062561
			vertex 3.989156961441 0.31903257966042 7.3644804954529
		endloop
	endfacet
	facet normal 0.098017547777224 0.49759262788095 0.86185505568295
		outer loop
			vertex 3.8954474925995 0.28999999165535 7.391900062561
			vertex 4.0999999046326 0.062426671385765 7.5000262260437
			vertex 4.0999999046326 0.28999999165535 7.3686366081238
		endloop
	endfacet
	facet normal -0.098017107554139 0.49758897709615 0.86185721352155
		outer loop
			vertex 4.0999999046326 0.28999999165535 7.3686366081238
			vertex 4.4521379470825 0.33091533184052 7.3850622177124
			vertex 4.0999999046326 0.31357404589653 7.3550262451172
		endloop
	endfacet
	facet normal -0.098017432211072 0.49759263357211 0.86185506554032
		outer loop
			vertex 4.0999999046326 0.28999999165535 7.3686366081238
			vertex 4.0999999046326 0.062426671385765 7.5000262260437
			vertex 4.4521379470825 0.33091533184052 7.3850622177124
		endloop
	endfacet
	facet normal -0.098017107554974 0.49759230484383 0.86185529225431
		outer loop
			vertex 4.0999999046326 0.062426671385765 7.5000262260437
			vertex 4.4521379470825 0.07976795732975 7.5300621986389
			vertex 4.4521379470825 0.33091533184052 7.3850622177124
		endloop
	endfacet
	facet normal -0.29028396459153 0.47847021816149 0.82873486123942
		outer loop
			vertex 4.4521379470825 0.07976795732975 7.5300621986389
			vertex 4.7907438278198 0.38227275013924 7.474015712738
			vertex 4.4521379470825 0.33091533184052 7.3850622177124
		endloop
	endfacet
	facet normal -0.29028398387346 0.47847023652852 0.82873484388126
		outer loop
			vertex 4.4521379470825 0.07976795732975 7.5300621986389
			vertex 4.7907438278198 0.13112539052963 7.6190156936646
			vertex 4.7907438278198 0.38227275013924 7.474015712738
		endloop
	endfacet
	facet normal -0.47139728661192 0.44096045159766 0.76376598399098
		outer loop
			vertex 4.7907438278198 0.13112539052963 7.6190156936646
			vertex 5.10280418396 0.46567270159721 7.6184687614441
			vertex 4.7907438278198 0.38227275013924 7.474015712738
		endloop
	endfacet
	facet normal -0.47139728661192 0.44096045159766 0.76376598399098
		outer loop
			vertex 4.7907438278198 0.13112539052963 7.6190156936646
			vertex 5.10280418396 0.21452534198761 7.7634687423706
			vertex 5.10280418396 0.46567270159721 7.6184687614441
		endloop
	endfacet
	facet normal -0.63439322624422 0.38650522095959 0.66944674819318
		outer loop
			vertex 5.10280418396 0.46567270159721 7.6184687614441
			vertex 5.10280418396 0.21452534198761 7.7634687423706
			vertex 5.3763275146484 0.57791018486023 7.8128695487976
		endloop
	endfacet
	facet normal -0.63439389844754 0.38650586400396 0.66944573992452
		outer loop
			vertex 5.10280418396 0.21452534198761 7.7634687423706
			vertex 5.3763275146484 0.3267627954483 7.9578700065613
			vertex 5.3763275146484 0.57791018486023 7.8128695487976
		endloop
	endfacet
	facet normal -0.77301104216902 0.31719701325147 0.54939965732526
		outer loop
			vertex 5.3763275146484 0.3267627954483 7.9578700065613
			vertex 5.6008024215698 0.71467190980911 8.0497484207153
			vertex 5.3763275146484 0.57791018486023 7.8128695487976
		endloop
	endfacet
	facet normal -0.77301011974391 0.317196038804 0.54940151778145
		outer loop
			vertex 5.3763275146484 0.3267627954483 7.9578700065613
			vertex 5.6008024215698 0.46352455019951 8.1947479248047
			vertex 5.6008024215698 0.71467190980911 8.0497484207153
		endloop
	endfacet
	facet normal -0.88192099163643 0.23569800322982 0.40824234932758
		outer loop
			vertex 5.6008024215698 0.46352455019951 8.1947479248047
			vertex 5.7676024436951 0.61955487728119 8.4650001525879
			vertex 5.7676024436951 0.87070226669312 8.3200006484985
		endloop
	endfacet
	facet normal -0.88192100099447 0.23569801545283 0.40824232205458
		outer loop
			vertex 5.6008024215698 0.46352455019951 8.1947479248047
			vertex 5.7676024436951 0.87070226669312 8.3200006484985
			vertex 5.6008024215698 0.71467190980911 8.0497484207153
		endloop
	endfacet
	facet normal -0.8871836159303 0.23070766731012 0.3995988036383
		outer loop
			vertex 5.7676024436951 0.61955487728119 8.4650001525879
			vertex 5.9338703155518 1.0305473804474 8.5968599319458
			vertex 5.7676024436951 0.87070226669312 8.3200006484985
		endloop
	endfacet
	facet normal -0.88718410390881 0.23070833621821 0.39959733403883
		outer loop
			vertex 5.7676024436951 0.61955487728119 8.4650001525879
			vertex 5.9338703155518 0.77939999103546 8.7418603897095
			vertex 5.9338703155518 1.0305473804474 8.5968599319458
		endloop
	endfacet
	facet normal -1 0 -0
		outer loop
			vertex 3.8099999427795 0.31903257966042 7.3644804954529
			vertex 3.8099999427795 7.8097457885742 0.28999999165535
			vertex 3.8099999427795 0.28999999165535 0.28999999165535
		endloop
	endfacet
	facet normal -1 0 0
		outer loop
			vertex 3.8099999427795 0.28999999165535 7.3141946792603
			vertex 3.8099999427795 0.31903257966042 7.3644804954529
			vertex 3.8099999427795 0.28999999165535 0.28999999165535
		endloop
	endfacet
	facet normal 0 0.68662221812944 0.7270143943355
		outer loop
			vertex 3.989156961441 0.31903257966042 7.3644804954529
			vertex 3.8954474925995 0.28999999165535 7.391900062561
			vertex 4.0999999046326 0.28999999165535 7.391900062561
		endloop
	endfacet
	facet normal 0 -1 0
		outer loop
			vertex 3.8954474925995 0.28999999165535 7.391900062561
			vertex 4.0999999046326 0.28999999165535 7.3686366081238
			vertex 4.0999999046326 0.28999999165535 7.391900062561
		endloop
	endfacet
	facet normal -0 0.68661932793516 0.72701712394267
		outer loop
			vertex 3.8099999427795 0.31903257966042 7.3644804954529
			vertex 3.989156961441 0.31903257966042 7.3644804954529
			vertex 4.0999999046326 7.8097457885742 0.28999999165535
		endloop
	endfacet
	facet normal -1.4267172384554e-06 0.68661933909312 0.72701711340332
		outer loop
			vertex 3.989156961441 0.31903257966042 7.3644804954529
			vertex 4.0999999046326 0.28999999165535 7.391900062561
			vertex 4.0999999046326 7.8097457885742 0.28999999165535
		endloop
	endfacet
	facet normal 0 0.68661932793516 0.72701712394267
		outer loop
			vertex 3.8099999427795 0.31903257966042 7.3644804954529
			vertex 4.0999999046326 7.8097457885742 0.28999999165535
			vertex 3.8099999427795 7.8097457885742 0.28999999165535
		endloop
	endfacet
	facet normal 1 0 0
		outer loop
			vertex 4.0999999046326 0.28999999165535 7.3141946792603
			vertex 4.0999999046326 0.28999999165535 0.28999999165535
			vertex 4.0999999046326 7.8097457885742 0.28999999165535
		endloop
	endfacet
	facet normal 1 -0 0
		outer loop
			vertex 4.0999999046326 0.28999999165535 7.3686366081238
			vertex 4.0999999046326 0.31357404589653 7.3550262451172
			vertex 4.0999999046326 0.28999999165535 7.391900062561
		endloop
	endfacet
	facet normal 1 -0 0
		outer loop
			vertex 4.0999999046326 0.28999999165535 7.3141946792603
			vertex 4.0999999046326 7.8097457885742 0.28999999165535
			vertex 4.0999999046326 0.31357404589653 7.3550262451172
		endloop
	endfacet
	facet normal 1 -0 -0
		outer loop
			vertex 4.0999999046326 0.31357404589653 7.3550262451172
			vertex 4.0999999046326 7.8097457885742 0.28999999165535
			vertex 4.0999999046326 0.28999999165535 7.391900062561
		endloop
	endfacet
endsolid