solid csg_export
	facet normal -1 0 0
		outer loop
			vertex 0 8.8843603134155 0
			vertex 0 8.5943603515625 0
			vertex 0 8.5943603515625 0.28999999165535
		endloop
	endfacet
	facet normal -1 0 0
		outer loop
			vertex 0 8.8843603134155 0
			vertex 0 8.5943603515625 1.3137999773026
			vertex 0 8.8843603134155 0.28999999165535
		endloop
	endfacet
	facet normal -1 0 0
		outer loop
			vertex 0 8.8843603134155 0
			vertex 0 8.5943603515625 0.28999999165535
			vertex 0 8.5943603515625 1.3137999773026
		endloop
	endfacet
	facet normal 0 -1 0
		outer loop
			vertex 0 8.5943603515625 0.28999999165535
			vertex 1.9045000076294 8.5943603515625 0.28999999165535
			vertex 0 8.5943603515625 1.3137999773026
		endloop
	endfacet
	facet normal 0 1 0
		outer loop
			vertex 0 8.8843603134155 0.28999999165535
			vertex 1.9194999933243 8.8843603134155 1.3137999773026
			vertex 1.9045000076294 8.8843603134155 0.28999999165535
		endloop
	endfacet
	facet normal 0 -1 0
		outer loop
			vertex 1.9045000076294 8.5943603515625 0.28999999165535
			vertex 2.1954998970032 8.5943603515625 0.28999999165535
			vertex 0 8.5943603515625 1.3137999773026
		endloop
	endfacet
	facet normal 0 1 0
		outer loop
			vertex 1.9045000076294 8.8843603134155 0.28999999165535
			vertex 1.9194999933243 8.8843603134155 1.3137999773026
			vertex 1.9194999933243 8.8843603134155 0.28999999165535
		endloop
	endfacet
	facet normal -1 0 0
		outer loop
			vertex 0 8.8843603134155 0.28999999165535
			vertex 0 8.5943603515625 1.3137999773026
			vertex 0 8.8843603134155 1.3137999773026
		endloop
	endfacet
	facet normal 0 1 0
		outer loop
			vertex 0 8.8843603134155 0.28999999165535
			vertex 0 8.8843603134155 1.3137999773026
			vertex 1.9194999933243 8.8843603134155 1.3137999773026
		endloop
	endfacet
	facet normal 0 0 1
		outer loop
			vertex 0 8.8843603134155 1.3137999773026
			vertex 0 8.5943603515625 1.3137999773026
			vertex 4.0999999046326 8.5943603515625 1.3137999773026
		endloop
	endfacet
	facet normal -0 0 1
		outer loop
			vertex 0 8.8843603134155 1.3137999773026
			vertex 4.0999999046326 8.5943603515625 1.3137999773026
			vertex 1.9194999933243 8.8843603134155 1.3137999773026
		endloop
	endfacet
	facet normal -0 1 0
		outer loop
			vertex 2.2620689868927 8.8843603134155 0.12999999523163
			vertex 2.2825000286102 8.8843603134155 0.12999999523163
			vertex 4.0999999046326 8.8843603134155 0
		endloop
	endfacet
	facet normal 0 1 -0
		outer loop
			vertex 2.2825000286102 8.8843603134155 0.12999999523163
			vertex 2.2741143703461 8.8843603134155 0.14542198181152
			vertex 3.6763014793396 8.8843603134155 0.28999999165535
		endloop
	endfacet
	facet normal 0 -1 0
		outer loop
			vertex 0 8.5943603515625 1.3137999773026
			vertex 2.1954998970032 8.5943603515625 0.28999999165535
			vertex 4.0999999046326 8.5943603515625 0.28999999165535
		endloop
	endfacet
	facet normal 0 1 0
		outer loop
			vertex 2.1805000305176 8.8843603134155 0.28999999165535
			vertex 2.1805000305176 8.8843603134155 1.3137999773026
			vertex 2.1954998970032 8.8843603134155 0.28999999165535
		endloop
	endfacet
	facet normal 0 1 -0
		outer loop
			vertex 2.1954998970032 8.8843603134155 0.28999999165535
			vertex 2.1805000305176 8.8843603134155 1.3137999773026
			vertex 3.6763014793396 8.8843603134155 0.28999999165535
		endloop
	endfacet
	facet normal -0 1 0
		outer loop
			vertex 2.2825000286102 8.8843603134155 0.12999999523163
			vertex 3.6763014793396 8.8843603134155 0.28999999165535
			vertex 4.0999999046326 8.8843603134155 0
		endloop
	endfacet
	facet normal 1 0 0
		outer loop
			vertex 4.0999999046326 8.8843603134155 0
			vertex 4.0999999046326 8.6583728790283 0.28999999165535
			vertex 4.0999999046326 8.5943603515625 0
		endloop
	endfacet
	facet normal 0 1 -0
		outer loop
			vertex 4.0999999046326 8.8843603134155 0
			vertex 3.6763014793396 8.8843603134155 0.28999999165535
			vertex 4.0999999046326 8.8843603134155 1.3137999773026
		endloop
	endfacet
	facet normal 1 0 -0
		outer loop
			vertex 4.0999999046326 8.8843603134155 0
			vertex 4.0999999046326 8.8843603134155 1.3137999773026
			vertex 4.0999999046326 8.6583728790283 0.28999999165535
		endloop
	endfacet
	facet normal 1 0 0
		outer loop
			vertex 4.0999999046326 8.6583728790283 0.28999999165535
			vertex 4.0999999046326 8.5943603515625 1.3137999773026
			vertex 4.0999999046326 8.5943603515625 0.28999999165535
		endloop
	endfacet
	facet normal 0 -1 0
		outer loop
			vertex 0 8.5943603515625 1.3137999773026
			vertex 4.0999999046326 8.5943603515625 0.28999999165535
			vertex 4.0999999046326 8.5943603515625 1.3137999773026
		endloop
	endfacet
	facet normal -0 0 1
		outer loop
			vertex 1.9194999933243 8.8843603134155 1.3137999773026
			vertex 4.0999999046326 8.5943603515625 1.3137999773026
			vertex 2.1805000305176 8.8843603134155 1.3137999773026
		endloop
	endfacet
	facet normal 0 1 -0
		outer loop
			vertex 3.6763014793396 8.8843603134155 0.28999999165535
			vertex 2.1805000305176 8.8843603134155 1.3137999773026
			vertex 4.0999999046326 8.8843603134155 1.3137999773026
		endloop
	endfacet
	facet normal 1 0 -0
		outer loop
			vertex 4.0999999046326 8.6583728790283 0.28999999165535
			vertex 4.0999999046326 8.8843603134155 1.3137999773026
			vertex 4.0999999046326 8.5943603515625 1.3137999773026
		endloop
	endfacet
	facet normal -0 0 1
		outer loop
			vertex 2.1805000305176 8.8843603134155 1.3137999773026
			vertex 4.0999999046326 8.5943603515625 1.3137999773026
			vertex 4.0999999046326 8.8843603134155 1.3137999773026
		endloop
	endfacet
	facet normal 0 0 -1
		outer loop
			vertex 1.8324999809265 9.0293607711792 0
			vertex 2.1805000305176 8.8843603134155 0
			vertex 1.9194999933243 8.8843603134155 0
		endloop
	endfacet
	facet normal -0.85749360994892 -0.51449461503184 0
		outer loop
			vertex 1.8324999809265 9.0293607711792 0
			vertex 1.9194999933243 8.8843603134155 0
			vertex 1.8324999809265 9.0293607711792 1.3137999773026
		endloop
	endfacet
	facet normal -0.85749360994892 -0.51449461503184 0
		outer loop
			vertex 1.9194999933243 8.8843603134155 0
			vertex 1.9194999933243 8.8843603134155 0.12999999523163
			vertex 1.8324999809265 9.0293607711792 1.3137999773026
		endloop
	endfacet
	facet normal -0.85749360994892 -0.51449461503184 0
		outer loop
			vertex 1.9194999933243 8.8843603134155 0.12999999523163
			vertex 1.9194999933243 8.8843603134155 0.28999999165535
			vertex 1.8324999809265 9.0293607711792 1.3137999773026
		endloop
	endfacet
	facet normal 0 1 0
		outer loop
			vertex 1.8324999809265 9.0293607711792 0
			vertex 1.8324999809265 9.0293607711792 1.3137999773026
			vertex 2.2674999237061 9.0293607711792 1.3137999773026
		endloop
	endfacet
	facet normal -0.85749360994892 -0.51449461503184 0
		outer loop
			vertex 1.9194999933243 8.8843603134155 0.28999999165535
			vertex 1.9194999933243 8.8843603134155 1.3137999773026
			vertex 1.8324999809265 9.0293607711792 1.3137999773026
		endloop
	endfacet
	facet normal 0 0 1
		outer loop
			vertex 1.8324999809265 9.0293607711792 1.3137999773026
			vertex 1.9194999933243 8.8843603134155 1.3137999773026
			vertex 2.1805000305176 8.8843603134155 1.3137999773026
		endloop
	endfacet
	facet normal 0 0 -1
		outer loop
			vertex 1.8324999809265 9.0293607711792 0
			vertex 2.2674999237061 9.0293607711792 0
			vertex 2.1805000305176 8.8843603134155 0
		endloop
	endfacet
	facet normal 0.85749392096532 -0.51449409666927 0
		outer loop
			vertex 2.1805000305176 8.8843603134155 0
			vertex 2.2674999237061 9.0293607711792 0
			vertex 2.1805000305176 8.8843603134155 0.12999999523163
		endloop
	endfacet
	facet normal 0.85749392096532 -0.51449409666927 0
		outer loop
			vertex 2.2674999237061 9.0293607711792 0
			vertex 2.1805000305176 8.8843603134155 0.28999999165535
			vertex 2.1805000305176 8.8843603134155 0.12999999523163
		endloop
	endfacet
	facet normal 0 1 0
		outer loop
			vertex 1.8324999809265 9.0293607711792 0
			vertex 2.2674999237061 9.0293607711792 1.3137999773026
			vertex 2.2674999237061 9.0293607711792 0
		endloop
	endfacet
	facet normal 0.85749392096532 -0.51449409666927 0
		outer loop
			vertex 2.2674999237061 9.0293607711792 0
			vertex 2.1805000305176 8.8843603134155 1.3137999773026
			vertex 2.1805000305176 8.8843603134155 0.28999999165535
		endloop
	endfacet
	facet normal 0.85749392096532 -0.51449409666927 0
		outer loop
			vertex 2.2674999237061 9.0293607711792 0
			vertex 2.2674999237061 9.0293607711792 1.3137999773026
			vertex 2.1805000305176 8.8843603134155 1.3137999773026
		endloop
	endfacet
	facet normal -0 0 1
		outer loop
			vertex 1.8324999809265 9.0293607711792 1.3137999773026
			vertex 2.1805000305176 8.8843603134155 1.3137999773026
			vertex 2.2674999237061 9.0293607711792 1.3137999773026
		endloop
	endfacet
	facet normal 0 0 -1
		outer loop
			vertex 0 8.8843603134155 0
			vertex 1.9194999933243 8.8843603134155 0
			vertex 0 8.5943603515625 0
		endloop
	endfacet
	facet normal 0 1 0
		outer loop
			vertex 0 8.8843603134155 0
			vertex 0 8.8843603134155 0.28999999165535
			vertex 1.8174999952316 8.8843603134155 0.12999999523163
		endloop
	endfacet
	facet normal -1 0 0
		outer loop
			vertex 0 8.5943603515625 0
			vertex 0 1.4949604272842 0
			vertex 0 8.5943603515625 0.28999999165535
		endloop
	endfacet
	facet normal 0 0 -1
		outer loop
			vertex 0 8.5943603515625 0
			vertex 1.9194999933243 8.8843603134155 0
			vertex 0 1.4949604272842 0
		endloop
	endfacet
	facet normal -0 0 1
		outer loop
			vertex 0 8.5943603515625 0.28999999165535
			vertex 0 1.5726656913757 0.28999999165535
			vertex 1.9045000076294 8.5943603515625 0.28999999165535
		endloop
	endfacet
	facet normal 0 1 0
		outer loop
			vertex 0 8.8843603134155 0
			vertex 1.8174999952316 8.8843603134155 0.12999999523163
			vertex 1.9194999933243 8.8843603134155 0
		endloop
	endfacet
	facet normal -0 1 0
		outer loop
			vertex 0 8.8843603134155 0.28999999165535
			vertex 1.9045000076294 8.8843603134155 0.28999999165535
			vertex 1.8174999952316 8.8843603134155 0.12999999523163
		endloop
	endfacet
	facet normal 0 1 -0
		outer loop
			vertex 1.9194999933243 8.8843603134155 0
			vertex 1.8174999952316 8.8843603134155 0.12999999523163
			vertex 1.9194999933243 8.8843603134155 0.12999999523163
		endloop
	endfacet
	facet normal 0 -0 -1
		outer loop
			vertex 1.9194999933243 8.8843603134155 0
			vertex 2.1805000305176 8.8843603134155 0
			vertex 0 1.4949604272842 0
		endloop
	endfacet
	facet normal -1 -0 0
		outer loop
			vertex 0 8.5943603515625 0.28999999165535
			vertex 0 1.4949604272842 0
			vertex 0 1.5726656913757 0.28999999165535
		endloop
	endfacet
	facet normal -1 0 0
		outer loop
			vertex 0 1.4949604272842 0
			vertex 0 1.4949604272842 0.28999999165535
			vertex 0 1.5726656913757 0.28999999165535
		endloop
	endfacet
	facet normal 0 0 1
		outer loop
			vertex 1.9045000076294 8.5943603515625 0.28999999165535
			vertex 0 1.5726656913757 0.28999999165535
			vertex 1.9045000076294 1.5726656913757 0.28999999165535
		endloop
	endfacet
	facet normal 0 1 0
		outer loop
			vertex 2.1805000305176 8.8843603134155 0
			vertex 2.1805000305176 8.8843603134155 0.12999999523163
			vertex 2.2620689868927 8.8843603134155 0.12999999523163
		endloop
	endfacet
	facet normal 0 1 0
		outer loop
			vertex 2.1805000305176 8.8843603134155 0
			vertex 2.2620689868927 8.8843603134155 0.12999999523163
			vertex 4.0999999046326 8.8843603134155 0
		endloop
	endfacet
	facet normal 0 1 -0
		outer loop
			vertex 2.2741143703461 8.8843603134155 0.14542198181152
			vertex 2.1954998970032 8.8843603134155 0.28999999165535
			vertex 3.6763014793396 8.8843603134155 0.28999999165535
		endloop
	endfacet
	facet normal 0 0 -1
		outer loop
			vertex 0 1.4949604272842 0
			vertex 2.1805000305176 8.8843603134155 0
			vertex 4.0999999046326 8.8843603134155 0
		endloop
	endfacet
	facet normal 0 0 -1
		outer loop
			vertex 0 1.4949604272842 0
			vertex 4.0999999046326 8.8843603134155 0
			vertex 4.0999999046326 8.5943603515625 0
		endloop
	endfacet
	facet normal -0 0 1
		outer loop
			vertex 2.1954998970032 8.5943603515625 0.28999999165535
			vertex 2.1954998970032 1.5726656913757 0.28999999165535
			vertex 4.0999999046326 8.5943603515625 0.28999999165535
		endloop
	endfacet
	facet normal 1 0 -0
		outer loop
			vertex 4.0999999046326 8.5943603515625 0
			vertex 4.0999999046326 8.6583728790283 0.28999999165535
			vertex 4.0999999046326 1.6399604082108 0.2511473596096
		endloop
	endfacet
	facet normal 1 0 0
		outer loop
			vertex 4.0999999046326 8.6583728790283 0.28999999165535
			vertex 4.0999999046326 8.5943603515625 0.28999999165535
			vertex 4.0999999046326 1.590914607048 0.27946394681931
		endloop
	endfacet
	facet normal 0 0 -1
		outer loop
			vertex 0 1.4949604272842 0
			vertex 4.0999999046326 8.5943603515625 0
			vertex 4.0999999046326 1.4949604272842 0
		endloop
	endfacet
	facet normal 0 0 1
		outer loop
			vertex 4.0999999046326 8.5943603515625 0.28999999165535
			vertex 2.1954998970032 1.5726656913757 0.28999999165535
			vertex 4.0999999046326 1.5726656913757 0.28999999165535
		endloop
	endfacet
	facet normal 1 0 0
		outer loop
			vertex 4.0999999046326 8.5943603515625 0
			vertex 4.0999999046326 1.6399604082108 0.2511473596096
			vertex 4.0999999046326 1.4949604272842 0
		endloop
	endfacet
	facet normal 1 0 0
		outer loop
			vertex 4.0999999046326 8.6583728790283 0.28999999165535
			vertex 4.0999999046326 1.590914607048 0.27946394681931
			vertex 4.0999999046326 1.6399604082108 0.2511473596096
		endloop
	endfacet
	facet normal 1 0 0
		outer loop
			vertex 4.0999999046326 8.5943603515625 0.28999999165535
			vertex 4.0999999046326 1.5726656913757 0.28999999165535
			vertex 4.0999999046326 1.590914607048 0.27946394681931
		endloop
	endfacet
	facet normal 1 0 0
		outer loop
			vertex 4.0999999046326 1.590914607048 0.27946394681931
			vertex 4.0999999046326 1.5726656913757 0.28999999165535
			vertex 4.0999999046326 1.5300070047379 0.28999999165535
		endloop
	endfacet
	facet normal 6.2696741226846e-09 -0.49999997322314 -0.86602541924406
		outer loop
			vertex 0 1.4949604272842 0
			vertex 0.77367228269577 0.92711561918259 0.32784533500671
			vertex 0.54919737577438 0.69023734331131 0.4646070599556
		endloop
	endfacet
	facet normal 7.755936406302e-09 -0.49999986662235 -0.86602548079005
		outer loop
			vertex 0 1.4949604272842 0
			vertex 1.6978619098663 1.354923248291 0.08085048943758
			vertex 1.3592563867569 1.2659695148468 0.13220793008804
		endloop
	endfacet
	facet normal -2.6444644347524e-08 -0.50000001887958 -0.86602539288431
		outer loop
			vertex 0 1.4949604272842 0
			vertex 1.3592563867569 1.2659695148468 0.13220793008804
			vertex 1.0471956729889 1.12151658535 0.21560788154602
		endloop
	endfacet
	facet normal -1.5136418422124e-08 -0.49999999509703 -0.86602540661517
		outer loop
			vertex 0 1.4949604272842 0
			vertex 1.0471956729889 1.12151658535 0.21560788154602
			vertex 0.77367228269577 0.92711561918259 0.32784533500671
		endloop
	endfacet
	facet normal -1 0 0
		outer loop
			vertex 0 1.4949604272842 0
			vertex 0 0.28999999165535 1.0305473804474
			vertex 0 1.4949604272842 0.28999999165535
		endloop
	endfacet
	facet normal 8.6502218306398e-08 -0.49999997303892 -0.86602541935042
		outer loop
			vertex 0 1.4949604272842 0
			vertex 0.38239744305611 0.41998487710953 0.6206374168396
			vertex 0.28607723116875 0.14499999582767 0.77939999103546
		endloop
	endfacet
	facet normal -8.0328673300304e-08 -0.50000001754856 -0.86602539365277
		outer loop
			vertex 0 1.4949604272842 0
			vertex 0.54919737577438 0.69023734331131 0.4646070599556
			vertex 0.38239744305611 0.41998487710953 0.6206374168396
		endloop
	endfacet
	facet normal -1 0 0
		outer loop
			vertex 0 1.5726656913757 0.28999999165535
			vertex 0 1.4949604272842 0.28999999165535
			vertex 0 0.28999999165535 1.0305473804474
		endloop
	endfacet
	facet normal 0 -0.49999998678727 -0.86602541141281
		outer loop
			vertex 0 1.4949604272842 0
			vertex 0.28607723116875 0.14499999582767 0.77939999103546
			vertex 0 0.14499999582767 0.77939999103546
		endloop
	endfacet
	facet normal -1 0 0
		outer loop
			vertex 0 1.4949604272842 0
			vertex 0 0.14499999582767 0.77939999103546
			vertex 0 0.28999999165535 1.0305473804474
		endloop
	endfacet
	facet normal -9.3005101809535e-08 0.49999994050889 0.86602543813164
		outer loop
			vertex 0 1.5726656913757 0.28999999165535
			vertex 0.54919737577438 0.83523732423782 0.71575444936752
			vertex 0.77367228269577 1.0721156597137 0.57899272441864
		endloop
	endfacet
	facet normal -7.9276345299551e-08 0.49999994817723 0.86602543370432
		outer loop
			vertex 0 1.5726656913757 0.28999999165535
			vertex 0.38239744305611 0.56498485803604 0.87178474664688
			vertex 0.54919737577438 0.83523732423782 0.71575444936752
		endloop
	endfacet
	facet normal 8.0062446306801e-08 0.50000014113453 0.86602532230036
		outer loop
			vertex 0 1.5726656913757 0.28999999165535
			vertex 0.77367228269577 1.0721156597137 0.57899272441864
			vertex 1.0471956729889 1.2665165662766 0.46675524115562
		endloop
	endfacet
	facet normal 3.0099167614303e-08 0.50000001295844 0.86602539630288
		outer loop
			vertex 0 1.5726656913757 0.28999999165535
			vertex 1.0471956729889 1.2665165662766 0.46675524115562
			vertex 1.3592563867569 1.4109694957733 0.38335528969765
		endloop
	endfacet
	facet normal 8.2634149102189e-09 0.49999987529105 0.86602547578517
		outer loop
			vertex 0 1.5726656913757 0.28999999165535
			vertex 1.3592563867569 1.4109694957733 0.38335528969765
			vertex 1.6978619098663 1.4999232292175 0.3319978415966
		endloop
	endfacet
	facet normal -1.449273293233e-08 -0.5000000689356 -0.86602536398445
		outer loop
			vertex 0 1.4949604272842 0
			vertex 2.0499999523163 1.3849592208862 0.063509203493595
			vertex 1.6978619098663 1.354923248291 0.08085048943758
		endloop
	endfacet
	facet normal -0 0.49999973063543 0.86602555930209
		outer loop
			vertex 0 1.5726656913757 0.28999999165535
			vertex 1.6978619098663 1.4999232292175 0.3319978415966
			vertex 1.9045000076294 1.5726656913757 0.28999999165535
		endloop
	endfacet
	facet normal -2.6827143680383e-08 0.49999978779096 0.86602552630335
		outer loop
			vertex 1.9045000076294 1.5726656913757 0.28999999165535
			vertex 1.6978619098663 1.4999232292175 0.3319978415966
			vertex 2.0499999523163 1.5299592018127 0.31465658545494
		endloop
	endfacet
	facet normal 1.0596952942187e-07 0.50000000090043 0.86602540326457
		outer loop
			vertex 0 1.5726656913757 0.28999999165535
			vertex 0 0.28999999165535 1.0305473804474
			vertex 0.38239744305611 0.56498485803604 0.87178474664688
		endloop
	endfacet
	facet normal 0 -0.86602542925092 0.49999995589076
		outer loop
			vertex 0 0.14499999582767 0.77939999103546
			vertex 0.28607723116875 0.14499999582767 0.77939999103546
			vertex 0.28607723116875 0.28999999165535 1.0305473804474
		endloop
	endfacet
	facet normal 0 -0.86602542925092 0.49999995589076
		outer loop
			vertex 0 0.14499999582767 0.77939999103546
			vertex 0.28607723116875 0.28999999165535 1.0305473804474
			vertex 0 0.28999999165535 1.0305473804474
		endloop
	endfacet
	facet normal -0 0.50000011142235 0.8660253394547
		outer loop
			vertex 0 0.28999999165535 1.0305473804474
			vertex 0.28607723116875 0.28999999165535 1.0305473804474
			vertex 0.38239744305611 0.56498485803604 0.87178474664688
		endloop
	endfacet
	facet normal 0 -0.49999986636893 -0.86602548093636
		outer loop
			vertex 0 1.4949604272842 0
			vertex 4.0999999046326 1.4949604272842 0
			vertex 2.0499999523163 1.3849592208862 0.063509203493595
		endloop
	endfacet
	facet normal -0 0.49999985634053 0.86602548672626
		outer loop
			vertex 1.9045000076294 1.5726656913757 0.28999999165535
			vertex 2.0499999523163 1.5299592018127 0.31465658545494
			vertex 2.1954998970032 1.5726656913757 0.28999999165535
		endloop
	endfacet
	facet normal 2.6827143680383e-08 0.49999978779096 0.86602552630335
		outer loop
			vertex 2.1954998970032 1.5726656913757 0.28999999165535
			vertex 2.0499999523163 1.5299592018127 0.31465658545494
			vertex 2.4021379947662 1.4999232292175 0.3319978415966
		endloop
	endfacet
	facet normal 1.449273293233e-08 -0.5000000689356 -0.86602536398445
		outer loop
			vertex 4.0999999046326 1.4949604272842 0
			vertex 2.4021379947662 1.354923248291 0.08085048943758
			vertex 2.0499999523163 1.3849592208862 0.063509203493595
		endloop
	endfacet
	facet normal -0 0.49999973063543 0.86602555930209
		outer loop
			vertex 2.1954998970032 1.5726656913757 0.28999999165535
			vertex 2.4021379947662 1.4999232292175 0.3319978415966
			vertex 4.0999999046326 1.5726656913757 0.28999999165535
		endloop
	endfacet
	facet normal -7.7559357538632e-09 -0.49999986662235 -0.86602548079005
		outer loop
			vertex 4.0999999046326 1.4949604272842 0
			vertex 2.740743637085 1.2659695148468 0.13220793008804
			vertex 2.4021379947662 1.354923248291 0.08085048943758
		endloop
	endfacet
	facet normal 2.6444648743449e-08 -0.50000001887958 -0.8660253928843
		outer loop
			vertex 4.0999999046326 1.4949604272842 0
			vertex 3.0528042316437 1.12151658535 0.21560788154602
			vertex 2.740743637085 1.2659695148468 0.13220793008804
		endloop
	endfacet
	facet normal 1.5136415115965e-08 -0.49999999509703 -0.86602540661517
		outer loop
			vertex 4.0999999046326 1.4949604272842 0
			vertex 3.3263278007507 0.92711561918259 0.32784533500671
			vertex 3.0528042316437 1.12151658535 0.21560788154602
		endloop
	endfacet
	facet normal 1 0 0
		outer loop
			vertex 4.0999999046326 1.4949604272842 0
			vertex 4.0999999046326 1.6399604082108 0.2511473596096
			vertex 4.0999999046326 1.5300070047379 0.28999999165535
		endloop
	endfacet
	facet normal 1 0 0
		outer loop
			vertex 4.0999999046326 1.6399604082108 0.2511473596096
			vertex 4.0999999046326 1.590914607048 0.27946394681931
			vertex 4.0999999046326 1.5300070047379 0.28999999165535
		endloop
	endfacet
	facet normal -6.2696749773264e-09 -0.49999997322314 -0.86602541924406
		outer loop
			vertex 4.0999999046326 1.4949604272842 0
			vertex 3.5508027076721 0.69023734331131 0.4646070599556
			vertex 3.3263278007507 0.92711561918259 0.32784533500671
		endloop
	endfacet
	facet normal -8.2634145022948e-09 0.49999987529105 0.86602547578517
		outer loop
			vertex 4.0999999046326 1.5726656913757 0.28999999165535
			vertex 2.4021379947662 1.4999232292175 0.3319978415966
			vertex 2.740743637085 1.4109694957733 0.38335528969765
		endloop
	endfacet
	facet normal -3.0099172065113e-08 0.50000001295846 0.86602539630287
		outer loop
			vertex 4.0999999046326 1.5726656913757 0.28999999165535
			vertex 2.740743637085 1.4109694957733 0.38335528969765
			vertex 3.0528042316437 1.2665165662766 0.46675524115562
		endloop
	endfacet
	facet normal -8.0062431052047e-08 0.50000014113449 0.86602532230038
		outer loop
			vertex 4.0999999046326 1.5726656913757 0.28999999165535
			vertex 3.0528042316437 1.2665165662766 0.46675524115562
			vertex 3.3263278007507 1.0721156597137 0.57899272441864
		endloop
	endfacet
	facet normal 8.0328721113347e-08 -0.50000001754857 -0.86602539365276
		outer loop
			vertex 4.0999999046326 1.4949604272842 0
			vertex 3.7176024913788 0.41998487710953 0.6206374168396
			vertex 3.5508027076721 0.69023734331131 0.4646070599556
		endloop
	endfacet
	facet normal 1 0 -0
		outer loop
			vertex 4.0999999046326 1.4949604272842 0
			vertex 4.0999999046326 1.5300070047379 0.28999999165535
			vertex 4.0999999046326 0.14499999582767 0.77939999103546
		endloop
	endfacet
	facet normal -3.4970682488514e-08 -0.49999998678727 -0.86602541141281
		outer loop
			vertex 4.0999999046326 1.4949604272842 0
			vertex 4.0999999046326 0.14499999582767 0.77939999103546
			vertex 3.7176024913788 0.41998487710953 0.6206374168396
		endloop
	endfacet
	facet normal 9.300511513521e-08 0.4999999405089 0.86602543813163
		outer loop
			vertex 4.0999999046326 1.5726656913757 0.28999999165535
			vertex 3.3263278007507 1.0721156597137 0.57899272441864
			vertex 3.5508027076721 0.83523732423782 0.71575444936752
		endloop
	endfacet
	facet normal 7.9276391508795e-08 0.49999994817722 0.86602543370433
		outer loop
			vertex 4.0999999046326 1.5726656913757 0.28999999165535
			vertex 3.5508027076721 0.83523732423782 0.71575444936752
			vertex 3.7176024913788 0.56498485803604 0.87178474664688
		endloop
	endfacet
	facet normal 1 0 0
		outer loop
			vertex 4.0999999046326 1.5726656913757 0.28999999165535
			vertex 4.0999999046326 0.28999999165535 1.0305473804474
			vertex 4.0999999046326 1.5300070047379 0.28999999165535
		endloop
	endfacet
	facet normal -2.570388977739e-07 0.50000004389657 0.8660253784407
		outer loop
			vertex 4.0999999046326 1.5726656913757 0.28999999165535
			vertex 3.7176024913788 0.56498485803604 0.87178474664688
			vertex 3.8139228820801 0.28999999165535 1.0305473804474
		endloop
	endfacet
	facet normal -0 -0.49999995031427 -0.86602543247051
		outer loop
			vertex 4.0999999046326 0.14499999582767 0.77939999103546
			vertex 3.8139228820801 0.14499999582767 0.77939999103546
			vertex 3.7176024913788 0.41998487710953 0.6206374168396
		endloop
	endfacet
	facet normal 1 0 0
		outer loop
			vertex 4.0999999046326 1.5300070047379 0.28999999165535
			vertex 4.0999999046326 0.28999999165535 1.0305473804474
			vertex 4.0999999046326 0.14499999582767 0.77939999103546
		endloop
	endfacet
	facet normal 0 0.50000000090044 0.86602540326457
		outer loop
			vertex 4.0999999046326 1.5726656913757 0.28999999165535
			vertex 3.8139228820801 0.28999999165535 1.0305473804474
			vertex 4.0999999046326 0.28999999165535 1.0305473804474
		endloop
	endfacet
	facet normal 0 -0.86602542925092 0.49999995589076
		outer loop
			vertex 4.0999999046326 0.14499999582767 0.77939999103546
			vertex 4.0999999046326 0.28999999165535 1.0305473804474
			vertex 3.8139228820801 0.14499999582767 0.77939999103546
		endloop
	endfacet
	facet normal 0 -0.86602542925092 0.49999995589076
		outer loop
			vertex 4.0999999046326 0.28999999165535 1.0305473804474
			vertex 3.8139228820801 0.28999999165535 1.0305473804474
			vertex 3.8139228820801 0.14499999582767 0.77939999103546
		endloop
	endfacet
	facet normal 0.87852429708812 0 -0.47769766529241
		outer loop
			vertex 1.8174999952316 8.8843603134155 0.12999999523163
			vertex 1.9045000076294 8.8843603134155 0.28999999165535
			vertex 1.9045000076294 8.5943603515625 0.28999999165535
		endloop
	endfacet
	facet normal 0 -1 0
		outer loop
			vertex 1.9194999933243 8.8843603134155 0.12999999523163
			vertex 2.1805000305176 8.8843603134155 0.12999999523163
			vertex 1.9194999933243 8.8843603134155 0.28999999165535
		endloop
	endfacet
	facet normal 0 0 -1
		outer loop
			vertex 1.9045000076294 8.8843603134155 0.28999999165535
			vertex 1.9194999933243 8.8843603134155 0.28999999165535
			vertex 2.1954998970032 8.5943603515625 0.28999999165535
		endloop
	endfacet
	facet normal 0 0 -1
		outer loop
			vertex 1.9045000076294 8.8843603134155 0.28999999165535
			vertex 2.1954998970032 8.5943603515625 0.28999999165535
			vertex 1.9045000076294 8.5943603515625 0.28999999165535
		endloop
	endfacet
	facet normal -0 0 1
		outer loop
			vertex 1.8174999952316 8.8843603134155 0.12999999523163
			vertex 2.0499999523163 1.4233477115631 0.12999999523163
			vertex 1.9194999933243 8.8843603134155 0.12999999523163
		endloop
	endfacet
	facet normal 0.87852429708812 0 -0.47769766529241
		outer loop
			vertex 1.8174999952316 8.8843603134155 0.12999999523163
			vertex 1.9045000076294 8.5943603515625 0.28999999165535
			vertex 1.9045000076294 1.5726656913757 0.28999999165535
		endloop
	endfacet
	facet normal 0 0 1
		outer loop
			vertex 1.8174999952316 8.8843603134155 0.12999999523163
			vertex 1.8174999952316 1.3969058990479 0.12999999523163
			vertex 2.0499999523163 1.4233477115631 0.12999999523163
		endloop
	endfacet
	facet normal 0.87852429708812 0 -0.47769766529241
		outer loop
			vertex 1.8174999952316 8.8843603134155 0.12999999523163
			vertex 1.9045000076294 1.5726656913757 0.28999999165535
			vertex 1.8174999952316 1.3969058990479 0.12999999523163
		endloop
	endfacet
	facet normal 0.87852429708812 0 -0.47769766529241
		outer loop
			vertex 1.9045000076294 1.5726656913757 0.28999999165535
			vertex 1.9045000076294 1.4991762638092 0.28999999165535
			vertex 1.8174999952316 1.3969058990479 0.12999999523163
		endloop
	endfacet
	facet normal 0 0 -1
		outer loop
			vertex 1.9045000076294 1.5726656913757 0.28999999165535
			vertex 2.0499999523163 1.5157237052917 0.28999999165535
			vertex 1.9045000076294 1.4991762638092 0.28999999165535
		endloop
	endfacet
	facet normal 0 -1 0
		outer loop
			vertex 1.9194999933243 8.8843603134155 0.28999999165535
			vertex 2.1805000305176 8.8843603134155 0.12999999523163
			vertex 2.1805000305176 8.8843603134155 0.28999999165535
		endloop
	endfacet
	facet normal -0.87852386986758 0 -0.47769845098439
		outer loop
			vertex 2.2741143703461 8.8843603134155 0.14542198181152
			vertex 2.1954998970032 8.5943603515625 0.28999999165535
			vertex 2.1954998970032 8.8843603134155 0.28999999165535
		endloop
	endfacet
	facet normal 0 0 -1
		outer loop
			vertex 1.9194999933243 8.8843603134155 0.28999999165535
			vertex 2.1805000305176 8.8843603134155 0.28999999165535
			vertex 2.1954998970032 8.5943603515625 0.28999999165535
		endloop
	endfacet
	facet normal 0 0 -1
		outer loop
			vertex 2.1805000305176 8.8843603134155 0.28999999165535
			vertex 2.1954998970032 8.8843603134155 0.28999999165535
			vertex 2.1954998970032 8.5943603515625 0.28999999165535
		endloop
	endfacet
	facet normal -0 0 1
		outer loop
			vertex 1.9194999933243 8.8843603134155 0.12999999523163
			vertex 2.0499999523163 1.4233477115631 0.12999999523163
			vertex 2.1805000305176 8.8843603134155 0.12999999523163
		endloop
	endfacet
	facet normal -0 0 1
		outer loop
			vertex 2.1805000305176 8.8843603134155 0.12999999523163
			vertex 2.0499999523163 1.4233477115631 0.12999999523163
			vertex 2.2620689868927 8.8843603134155 0.12999999523163
		endloop
	endfacet
	facet normal -0 0 1
		outer loop
			vertex 2.2620689868927 8.8843603134155 0.12999999523163
			vertex 2.0499999523163 1.4233477115631 0.12999999523163
			vertex 2.2825000286102 8.8843603134155 0.12999999523163
		endloop
	endfacet
	facet normal -0.87852545228659 7.3816990398236e-08 -0.47769554078371
		outer loop
			vertex 2.2825000286102 8.8843603134155 0.12999999523163
			vertex 2.1954998970032 1.4991762638092 0.28999999165535
			vertex 2.2741143703461 8.8843603134155 0.14542198181152
		endloop
	endfacet
	facet normal -0.87852386986758 0 -0.47769845098439
		outer loop
			vertex 2.2741143703461 8.8843603134155 0.14542198181152
			vertex 2.1954998970032 1.5726656913757 0.28999999165535
			vertex 2.1954998970032 8.5943603515625 0.28999999165535
		endloop
	endfacet
	facet normal 0 0 1
		outer loop
			vertex 2.2825000286102 8.8843603134155 0.12999999523163
			vertex 2.0499999523163 1.4233477115631 0.12999999523163
			vertex 2.2825000286102 1.3969058990479 0.12999999523163
		endloop
	endfacet
	facet normal -0.87852402239304 -0 -0.47769817047835
		outer loop
			vertex 2.2825000286102 8.8843603134155 0.12999999523163
			vertex 2.2825000286102 1.3969058990479 0.12999999523163
			vertex 2.1954998970032 1.4991762638092 0.28999999165535
		endloop
	endfacet
	facet normal -0.87852386986758 0 -0.47769845098439
		outer loop
			vertex 2.2741143703461 8.8843603134155 0.14542198181152
			vertex 2.1954998970032 1.4991762638092 0.28999999165535
			vertex 2.1954998970032 1.5726656913757 0.28999999165535
		endloop
	endfacet
	facet normal 0 0 -1
		outer loop
			vertex 1.9045000076294 1.5726656913757 0.28999999165535
			vertex 2.1954998970032 1.5726656913757 0.28999999165535
			vertex 2.0499999523163 1.5157237052917 0.28999999165535
		endloop
	endfacet
	facet normal 0 -0 -1
		outer loop
			vertex 2.1954998970032 1.5726656913757 0.28999999165535
			vertex 2.1954998970032 1.4991762638092 0.28999999165535
			vertex 2.0499999523163 1.5157237052917 0.28999999165535
		endloop
	endfacet
	facet normal 0.88192123570934 -0.40824161824711 0.23569835624351
		outer loop
			vertex 0.54919737577438 0.69023734331131 0.4646070599556
			vertex 0.54919737577438 0.83523732423782 0.71575444936752
			vertex 0.38239744305611 0.41998487710953 0.6206374168396
		endloop
	endfacet
	facet normal 0.77301045506186 -0.54940067209368 0.31719668640778
		outer loop
			vertex 0.77367228269577 0.92711561918259 0.32784533500671
			vertex 0.77367228269577 1.0721156597137 0.57899272441864
			vertex 0.54919737577438 0.69023734331131 0.4646070599556
		endloop
	endfacet
	facet normal 0.63439337998667 -0.669446638924 0.38650515787301
		outer loop
			vertex 0.77367228269577 0.92711561918259 0.32784533500671
			vertex 1.0471956729889 1.12151658535 0.21560788154602
			vertex 1.0471956729889 1.2665165662766 0.46675524115562
		endloop
	endfacet
	facet normal 0.63439331797975 -0.66944663405726 0.38650526807801
		outer loop
			vertex 0.77367228269577 0.92711561918259 0.32784533500671
			vertex 1.0471956729889 1.2665165662766 0.46675524115562
			vertex 0.77367228269577 1.0721156597137 0.57899272441864
		endloop
	endfacet
	facet normal 0.77301051377274 -0.54940066659876 0.3171965528464
		outer loop
			vertex 0.54919737577438 0.69023734331131 0.4646070599556
			vertex 0.77367228269577 1.0721156597137 0.57899272441864
			vertex 0.54919737577438 0.83523732423782 0.71575444936752
		endloop
	endfacet
	facet normal 0.47139663949901 -0.76376628353988 0.44096062454229
		outer loop
			vertex 1.3592563867569 1.2659695148468 0.13220793008804
			vertex 1.3592563867569 1.4109694957733 0.38335528969765
			vertex 1.0471956729889 1.12151658535 0.21560788154602
		endloop
	endfacet
	facet normal 0.29028481826897 -0.82873462468083 0.4784701099731
		outer loop
			vertex 1.3592563867569 1.2659695148468 0.13220793008804
			vertex 1.6978619098663 1.4999232292175 0.3319978415966
			vertex 1.3592563867569 1.4109694957733 0.38335528969765
		endloop
	endfacet
	facet normal 0.098017336522905 -0.86185568867402 0.49759157312115
		outer loop
			vertex 1.8174999952316 1.3969058990479 0.12999999523163
			vertex 1.6978619098663 1.354923248291 0.08085048943758
			vertex 2.0499999523163 1.4233477115631 0.12999999523163
		endloop
	endfacet
	facet normal 0.098017107554978 -0.86185517802924 0.49759250268742
		outer loop
			vertex 2.0499999523163 1.4233477115631 0.12999999523163
			vertex 1.6978619098663 1.354923248291 0.08085048943758
			vertex 2.0499999523163 1.3849592208862 0.063509203493595
		endloop
	endfacet
	facet normal 0.29028480862801 -0.82873462106722 0.47847012208116
		outer loop
			vertex 1.3592563867569 1.2659695148468 0.13220793008804
			vertex 1.6978619098663 1.354923248291 0.08085048943758
			vertex 1.6978619098663 1.4999232292175 0.3319978415966
		endloop
	endfacet
	facet normal 0.098016878655288 -0.86185529260256 0.49759234932988
		outer loop
			vertex 1.8174999952316 1.3969058990479 0.12999999523163
			vertex 1.6978619098663 1.4999232292175 0.3319978415966
			vertex 1.6978619098663 1.354923248291 0.08085048943758
		endloop
	endfacet
	facet normal 0.098016938824916 -0.86185527142132 0.49759237416452
		outer loop
			vertex 1.8174999952316 1.3969058990479 0.12999999523163
			vertex 1.9045000076294 1.4991762638092 0.28999999165535
			vertex 1.6978619098663 1.4999232292175 0.3319978415966
		endloop
	endfacet
	facet normal 0.098017065847017 -0.86185489995999 0.49759299253276
		outer loop
			vertex 1.9045000076294 1.4991762638092 0.28999999165535
			vertex 2.0499999523163 1.5299592018127 0.31465658545494
			vertex 1.6978619098663 1.4999232292175 0.3319978415966
		endloop
	endfacet
	facet normal 0.09801720521439 -0.8618551666795 0.49759250310852
		outer loop
			vertex 1.9045000076294 1.4991762638092 0.28999999165535
			vertex 2.0499999523163 1.5157237052917 0.28999999165535
			vertex 2.0499999523163 1.5299592018127 0.31465658545494
		endloop
	endfacet
	facet normal 0.47139663949901 -0.76376628353988 0.44096062454229
		outer loop
			vertex 1.0471956729889 1.12151658535 0.21560788154602
			vertex 1.3592563867569 1.4109694957733 0.38335528969765
			vertex 1.0471956729889 1.2665165662766 0.46675524115562
		endloop
	endfacet
	facet normal 0.88192121699329 -0.40824162434928 0.23569841570475
		outer loop
			vertex 0.38239744305611 0.41998487710953 0.6206374168396
			vertex 0.54919737577438 0.83523732423782 0.71575444936752
			vertex 0.38239744305611 0.56498485803604 0.87178474664688
		endloop
	endfacet
	facet normal 0.95694033440167 -0.25139390756576 0.14514234266416
		outer loop
			vertex 0.28607723116875 0.14499999582767 0.77939999103546
			vertex 0.38239744305611 0.41998487710953 0.6206374168396
			vertex 0.38239744305611 0.56498485803604 0.87178474664688
		endloop
	endfacet
	facet normal 0.95694033869287 -0.25139390377187 0.14514232094301
		outer loop
			vertex 0.28607723116875 0.14499999582767 0.77939999103546
			vertex 0.38239744305611 0.56498485803604 0.87178474664688
			vertex 0.28607723116875 0.28999999165535 1.0305473804474
		endloop
	endfacet
	facet normal -0.098017227032967 -0.86185516783824 0.49759249680364
		outer loop
			vertex 2.2825000286102 1.3969058990479 0.12999999523163
			vertex 2.0499999523163 1.4233477115631 0.12999999523163
			vertex 2.0499999523163 1.3849592208862 0.063509203493595
		endloop
	endfacet
	facet normal -0.098017107554965 -0.86185539868572 0.49759212049915
		outer loop
			vertex 2.2825000286102 1.3969058990479 0.12999999523163
			vertex 2.0499999523163 1.3849592208862 0.063509203493595
			vertex 2.4021379947662 1.354923248291 0.08085048943758
		endloop
	endfacet
	facet normal -0.09801720521439 -0.8618551666795 0.49759250310852
		outer loop
			vertex 2.1954998970032 1.4991762638092 0.28999999165535
			vertex 2.0499999523163 1.5299592018127 0.31465658545494
			vertex 2.0499999523163 1.5157237052917 0.28999999165535
		endloop
	endfacet
	facet normal -0.09801692879518 -0.86185530075209 0.49759232533781
		outer loop
			vertex 2.2825000286102 1.3969058990479 0.12999999523163
			vertex 2.4021379947662 1.4999232292175 0.3319978415966
			vertex 2.1954998970032 1.4991762638092 0.28999999165535
		endloop
	endfacet
	facet normal -0.098017065847017 -0.86185489995999 0.49759299253276
		outer loop
			vertex 2.1954998970032 1.4991762638092 0.28999999165535
			vertex 2.4021379947662 1.4999232292175 0.3319978415966
			vertex 2.0499999523163 1.5299592018127 0.31465658545494
		endloop
	endfacet
	facet normal -0.098016975382655 -0.86185528435212 0.49759234456648
		outer loop
			vertex 2.2825000286102 1.3969058990479 0.12999999523163
			vertex 2.4021379947662 1.354923248291 0.08085048943758
			vertex 2.4021379947662 1.4999232292175 0.3319978415966
		endloop
	endfacet
	facet normal -0.29028472468318 -0.82873464312004 0.47847013481336
		outer loop
			vertex 2.4021379947662 1.354923248291 0.08085048943758
			vertex 2.740743637085 1.4109694957733 0.38335528969765
			vertex 2.4021379947662 1.4999232292175 0.3319978415966
		endloop
	endfacet
	facet normal -0.29028471504221 -0.82873465179912 0.47847012562986
		outer loop
			vertex 2.4021379947662 1.354923248291 0.08085048943758
			vertex 2.740743637085 1.2659695148468 0.13220793008804
			vertex 2.740743637085 1.4109694957733 0.38335528969765
		endloop
	endfacet
	facet normal -0.47139677956002 -0.76376621870561 0.4409605871102
		outer loop
			vertex 2.740743637085 1.2659695148468 0.13220793008804
			vertex 3.0528042316437 1.2665165662766 0.46675524115562
			vertex 2.740743637085 1.4109694957733 0.38335528969765
		endloop
	endfacet
	facet normal -0.47139677956002 -0.76376621870561 0.4409605871102
		outer loop
			vertex 2.740743637085 1.2659695148468 0.13220793008804
			vertex 3.0528042316437 1.12151658535 0.21560788154602
			vertex 3.0528042316437 1.2665165662766 0.46675524115562
		endloop
	endfacet
	facet normal -0.63439313216684 -0.66944676611979 0.38650534432437
		outer loop
			vertex 3.3263278007507 0.92711561918259 0.32784533500671
			vertex 3.3263278007507 1.0721156597137 0.57899272441864
			vertex 3.0528042316437 1.12151658535 0.21560788154602
		endloop
	endfacet
	facet normal -0.63439307015989 -0.66944685912675 0.38650528500711
		outer loop
			vertex 3.0528042316437 1.12151658535 0.21560788154602
			vertex 3.3263278007507 1.0721156597137 0.57899272441864
			vertex 3.0528042316437 1.2665165662766 0.46675524115562
		endloop
	endfacet
	facet normal -0.77301051377273 -0.54940061013873 0.31719665063807
		outer loop
			vertex 3.3263278007507 0.92711561918259 0.32784533500671
			vertex 3.5508027076721 0.83523732423782 0.71575444936752
			vertex 3.3263278007507 1.0721156597137 0.57899272441864
		endloop
	endfacet
	facet normal -0.77301045506186 -0.54940072855373 0.3171965886161
		outer loop
			vertex 3.3263278007507 0.92711561918259 0.32784533500671
			vertex 3.5508027076721 0.69023734331131 0.4646070599556
			vertex 3.5508027076721 0.83523732423782 0.71575444936752
		endloop
	endfacet
	facet normal -0.88192141078558 -0.40824131036314 0.23569823442477
		outer loop
			vertex 3.5508027076721 0.69023734331131 0.4646070599556
			vertex 3.7176024913788 0.41998487710953 0.6206374168396
			vertex 3.7176024913788 0.56498485803604 0.87178474664688
		endloop
	endfacet
	facet normal -0.88192139206956 -0.40824136490915 0.2356982099788
		outer loop
			vertex 3.5508027076721 0.69023734331131 0.4646070599556
			vertex 3.7176024913788 0.56498485803604 0.87178474664688
			vertex 3.5508027076721 0.83523732423782 0.71575444936752
		endloop
	endfacet
	facet normal -0.95694018470321 -0.25139434339703 0.14514257476068
		outer loop
			vertex 3.8139228820801 0.14499999582767 0.77939999103546
			vertex 3.8139228820801 0.28999999165535 1.0305473804474
			vertex 3.7176024913788 0.41998487710953 0.6206374168396
		endloop
	endfacet
	facet normal -0.95694018899442 -0.25139432268899 0.14514258233567
		outer loop
			vertex 3.8139228820801 0.28999999165535 1.0305473804474
			vertex 3.7176024913788 0.56498485803604 0.87178474664688
			vertex 3.7176024913788 0.41998487710953 0.6206374168396
		endloop
	endfacet
endsolid