solid csg_export
	facet normal 0 -1 0
		outer loop
			vertex 0.33000001311302 0.10999999940395 0
			vertex 4.8965997695923 0.10999999940395 0.065999999642372
			vertex 0.33000001311302 0.10999999940395 0.065999999642372
		endloop
	endfacet
	facet normal 0 0 -1
		outer loop
			vertex 0.33000001311302 0.10999999940395 0
			vertex 0.33000001311302 0.8992999792099 0
			vertex 4.8965997695923 0.10999999940395 0
		endloop
	endfacet
	facet normal 0 -1 0
		outer loop
			vertex 0.33000001311302 0.10999999940395 0.33000001311302
			vertex 0.33000001311302 0.10999999940395 0.26399999856949
			vertex 4.8965997695923 0.10999999940395 0.33000001311302
		endloop
	endfacet
	facet normal 0 0 1
		outer loop
			vertex 0.33000001311302 0.10999999940395 0.33000001311302
			vertex 4.8965997695923 0.10999999940395 0.33000001311302
			vertex 0.33000001311302 0.8992999792099 0.33000001311302
		endloop
	endfacet
	facet normal -1 0 0
		outer loop
			vertex 0.10999999940395 0.8992999792099 0
			vertex 0.10999999940395 0.8992999792099 0.065999999642372
			vertex 0.10999999940395 5.2360768318176 0
		endloop
	endfacet
	facet normal 0 0 -1
		outer loop
			vertex 0.10999999940395 0.8992999792099 0
			vertex 0.10999999940395 5.2360768318176 0
			vertex 0.33000001311302 0.8992999792099 0
		endloop
	endfacet
	facet normal 0 0 -1
		outer loop
			vertex 0.33000001311302 0.8992999792099 0
			vertex 0.10999999940395 5.2360768318176 0
			vertex 4.8965997695923 0.10999999940395 0
		endloop
	endfacet
	facet normal -1 0 0
		outer loop
			vertex 0.10999999940395 0.8992999792099 0.33000001311302
			vertex 0.10999999940395 5.2360768318176 0.26399999856949
			vertex 0.10999999940395 0.8992999792099 0.26399999856949
		endloop
	endfacet
	facet normal 0 0 1
		outer loop
			vertex 0.10999999940395 0.8992999792099 0.33000001311302
			vertex 0.33000001311302 0.8992999792099 0.33000001311302
			vertex 0.10999999940395 5.2360768318176 0.33000001311302
		endloop
	endfacet
	facet normal -0 -0 1
		outer loop
			vertex 0.33000001311302 0.8992999792099 0.33000001311302
			vertex 4.8965997695923 0.10999999940395 0.33000001311302
			vertex 0.10999999940395 5.2360768318176 0.33000001311302
		endloop
	endfacet
	facet normal 0 -1 0
		outer loop
			vertex 0.33000001311302 0.10999999940395 0
			vertex 4.8965997695923 0.10999999940395 0
			vertex 4.8965997695923 0.10999999940395 0.065999999642372
		endloop
	endfacet
	facet normal 0 -1 -0
		outer loop
			vertex 4.8965997695923 0.10999999940395 0.33000001311302
			vertex 0.33000001311302 0.10999999940395 0.26399999856949
			vertex 4.8965997695923 0.10999999940395 0.26399999856949
		endloop
	endfacet
	facet normal 0.73089441209548 0.68249055551531 -0
		outer loop
			vertex 4.8965997695923 0.10999999940395 0
			vertex 0.10999999940395 5.2360768318176 0
			vertex 4.8965997695923 0.10999999940395 0.065999999642372
		endloop
	endfacet
	facet normal 0.73089441209548 0.68249055551531 0
		outer loop
			vertex 0.10999999940395 5.2360768318176 0
			vertex 4.8965997695923 0.10999999940395 0.26399999856949
			vertex 4.8965997695923 0.10999999940395 0.065999999642372
		endloop
	endfacet
	facet normal 0.73089441209548 0.68249055551531 0
		outer loop
			vertex 4.8965997695923 0.10999999940395 0.33000001311302
			vertex 4.8965997695923 0.10999999940395 0.26399999856949
			vertex 0.10999999940395 5.2360768318176 0
		endloop
	endfacet
	facet normal -1 0 0
		outer loop
			vertex 0.10999999940395 5.2360768318176 0
			vertex 0.10999999940395 0.8992999792099 0.065999999642372
			vertex 0.10999999940395 5.2360768318176 0.065999999642372
		endloop
	endfacet
	facet normal 0.73089441209548 0.68249055551531 0
		outer loop
			vertex 4.8965997695923 0.10999999940395 0.33000001311302
			vertex 0.10999999940395 5.2360768318176 0
			vertex 0.10999999940395 5.2360768318176 0.065999999642372
		endloop
	endfacet
	facet normal 0.73089441209548 0.68249055551531 0
		outer loop
			vertex 4.8965997695923 0.10999999940395 0.33000001311302
			vertex 0.10999999940395 5.2360768318176 0.065999999642372
			vertex 0.10999999940395 5.2360768318176 0.26399999856949
		endloop
	endfacet
	facet normal -1 0 0
		outer loop
			vertex 0.10999999940395 0.8992999792099 0.33000001311302
			vertex 0.10999999940395 5.2360768318176 0.33000001311302
			vertex 0.10999999940395 5.2360768318176 0.26399999856949
		endloop
	endfacet
	facet normal 0.73089441209548 0.68249055551531 0
		outer loop
			vertex 4.8965997695923 0.10999999940395 0.33000001311302
			vertex 0.10999999940395 5.2360768318176 0.26399999856949
			vertex 0.10999999940395 5.2360768318176 0.33000001311302
		endloop
	endfacet
	facet normal -1 0 0
		outer loop
			vertex 0.33000001311302 0.10999999940395 0
			vertex 0.33000001311302 0.10999999940395 0.065999999642372
			vertex 0.33000001311302 0.8992999792099 0
		endloop
	endfacet
	facet normal -1 0 0
		outer loop
			vertex 0.33000001311302 0.8992999792099 0
			vertex 0.33000001311302 0.10999999940395 0.065999999642372
			vertex 0.33000001311302 0.10999999940395 0.26399999856949
		endloop
	endfacet
	facet normal -1 0 0
		outer loop
			vertex 0.33000001311302 0.10999999940395 0.33000001311302
			vertex 0.33000001311302 0.8992999792099 0
			vertex 0.33000001311302 0.10999999940395 0.26399999856949
		endloop
	endfacet
	facet normal -1 0 0
		outer loop
			vertex 0.33000001311302 0.10999999940395 0.33000001311302
			vertex 0.33000001311302 0.8992999792099 0.33000001311302
			vertex 0.33000001311302 0.8992999792099 0
		endloop
	endfacet
	facet normal 0 -1 -0
		outer loop
			vertex 0.33000001311302 0.8992999792099 0.33000001311302
			vertex 0.10999999940395 0.8992999792099 0
			vertex 0.33000001311302 0.8992999792099 0
		endloop
	endfacet
	facet normal 0 -1 0
		outer loop
			vertex 0.10999999940395 0.8992999792099 0.065999999642372
			vertex 0.10999999940395 0.8992999792099 0
			vertex 0.33000001311302 0.8992999792099 0.33000001311302
		endloop
	endfacet
	facet normal 0 -1 0
		outer loop
			vertex 0.33000001311302 0.8992999792099 0.33000001311302
			vertex 0.10999999940395 0.8992999792099 0.26399999856949
			vertex 0.10999999940395 0.8992999792099 0.065999999642372
		endloop
	endfacet
	facet normal 0 -1 0
		outer loop
			vertex 0.10999999940395 0.8992999792099 0.33000001311302
			vertex 0.10999999940395 0.8992999792099 0.26399999856949
			vertex 0.33000001311302 0.8992999792099 0.33000001311302
		endloop
	endfacet
	facet normal 0 -1 0
		outer loop
			vertex 0 0.8992999792099 0.33000001311302
			vertex 0 0.8992999792099 0
			vertex 0.10999999940395 0.8992999792099 0.065999999642372
		endloop
	endfacet
	facet normal 0 -1 0
		outer loop
			vertex 0 0.8992999792099 0.33000001311302
			vertex 0.10999999940395 0.8992999792099 0.065999999642372
			vertex 0.10999999940395 0.8992999792099 0.26399999856949
		endloop
	endfacet
	facet normal 0.51449575542753 0 -0.85749292571254
		outer loop
			vertex 0 0.8992999792099 0
			vertex 0.10999999940395 5.2360768318176 0.065999999642372
			vertex 0.10999999940395 0.8992999792099 0.065999999642372
		endloop
	endfacet
	facet normal -1 0 0
		outer loop
			vertex 0 0.8992999792099 0.33000001311302
			vertex 0 5.2360768318176 0
			vertex 0 0.8992999792099 0
		endloop
	endfacet
	facet normal 0.51449584083955 -0 0.85749287446532
		outer loop
			vertex 0 0.8992999792099 0.33000001311302
			vertex 0.10999999940395 0.8992999792099 0.26399999856949
			vertex 0 5.2360768318176 0.33000001311302
		endloop
	endfacet
	facet normal 0.51449575542753 0 -0.85749292571254
		outer loop
			vertex 0 0.8992999792099 0
			vertex 0 5.2360768318176 0
			vertex 0.10999999940395 5.2360768318176 0.065999999642372
		endloop
	endfacet
	facet normal -1 0 0
		outer loop
			vertex 0 0.8992999792099 0.33000001311302
			vertex 0 5.2360768318176 0.33000001311302
			vertex 0 5.2360768318176 0
		endloop
	endfacet
	facet normal 0.51449584083955 0 0.85749287446532
		outer loop
			vertex 0 5.2360768318176 0.33000001311302
			vertex 0.10999999940395 0.8992999792099 0.26399999856949
			vertex 0.10999999940395 5.2360768318176 0.26399999856949
		endloop
	endfacet
	facet normal 0 1 0
		outer loop
			vertex 0 5.2360768318176 0.33000001311302
			vertex 0.10999999940395 5.2360768318176 0.065999999642372
			vertex 0 5.2360768318176 0
		endloop
	endfacet
	facet normal 0 1 0
		outer loop
			vertex 0 5.2360768318176 0.33000001311302
			vertex 0.10999999940395 5.2360768318176 0.26399999856949
			vertex 0.10999999940395 5.2360768318176 0.065999999642372
		endloop
	endfacet
	facet normal -1 0 0
		outer loop
			vertex 0.33000001311302 0 0.33000001311302
			vertex 0.33000001311302 0.10999999940395 0.065999999642372
			vertex 0.33000001311302 0 0
		endloop
	endfacet
	facet normal -1 0 0
		outer loop
			vertex 0.33000001311302 0 0.33000001311302
			vertex 0.33000001311302 0.10999999940395 0.26399999856949
			vertex 0.33000001311302 0.10999999940395 0.065999999642372
		endloop
	endfacet
	facet normal 0 0.51449575542753 -0.85749292571254
		outer loop
			vertex 0.33000001311302 0 0
			vertex 0.33000001311302 0.10999999940395 0.065999999642372
			vertex 4.8965997695923 0 0
		endloop
	endfacet
	facet normal 0 -1 0
		outer loop
			vertex 0.33000001311302 0 0.33000001311302
			vertex 0.33000001311302 0 0
			vertex 4.8965997695923 0 0.33000001311302
		endloop
	endfacet
	facet normal 0 0.51449584083955 0.85749287446532
		outer loop
			vertex 0.33000001311302 0 0.33000001311302
			vertex 4.8965997695923 0.10999999940395 0.26399999856949
			vertex 0.33000001311302 0.10999999940395 0.26399999856949
		endloop
	endfacet
	facet normal 0 0.51449575542753 -0.85749292571254
		outer loop
			vertex 4.8965997695923 0 0
			vertex 0.33000001311302 0.10999999940395 0.065999999642372
			vertex 4.8965997695923 0.10999999940395 0.065999999642372
		endloop
	endfacet
	facet normal 0 -1 -0
		outer loop
			vertex 4.8965997695923 0 0.33000001311302
			vertex 0.33000001311302 0 0
			vertex 4.8965997695923 0 0
		endloop
	endfacet
	facet normal -0 0.51449584083955 0.85749287446532
		outer loop
			vertex 0.33000001311302 0 0.33000001311302
			vertex 4.8965997695923 0 0.33000001311302
			vertex 4.8965997695923 0.10999999940395 0.26399999856949
		endloop
	endfacet
	facet normal 1 0 0
		outer loop
			vertex 4.8965997695923 0 0.33000001311302
			vertex 4.8965997695923 0 0
			vertex 4.8965997695923 0.10999999940395 0.065999999642372
		endloop
	endfacet
	facet normal 1 0 0
		outer loop
			vertex 4.8965997695923 0 0.33000001311302
			vertex 4.8965997695923 0.10999999940395 0.065999999642372
			vertex 4.8965997695923 0.10999999940395 0.26399999856949
		endloop
	endfacet
	facet normal -1 0 0
		outer loop
			vertex 5.1965999603271 6.7665581703186 0
			vertex 5.1965999603271 6.546558380127 0
			vertex 5.1965999603271 6.546558380127 0.18062800168991
		endloop
	endfacet
	facet normal -1 0 0
		outer loop
			vertex 5.1965999603271 6.7665581703186 0.21999999880791
			vertex 5.1965999603271 6.546558380127 0.21999999880791
			vertex 5.1965999603271 6.7665581703186 1.009299993515
		endloop
	endfacet
	facet normal 0 -1 0
		outer loop
			vertex 5.1965999603271 6.546558380127 0.21999999880791
			vertex 6.7451000213623 6.546558380127 0.21999999880791
			vertex 5.1965999603271 6.546558380127 1.009299993515
		endloop
	endfacet
	facet normal 0 -1 0
		outer loop
			vertex 6.7451000213623 6.546558380127 0.21999999880791
			vertex 6.9731001853943 6.546558380127 0.21999999880791
			vertex 5.1965999603271 6.546558380127 1.009299993515
		endloop
	endfacet
	facet normal 0 1 0
		outer loop
			vertex 5.1965999603271 6.7665581703186 0.21999999880791
			vertex 6.7600998878479 6.7665581703186 1.009299993515
			vertex 6.7451000213623 6.7665581703186 0.21999999880791
		endloop
	endfacet
	facet normal 0 1 -0
		outer loop
			vertex 7.0374093055725 6.7665581703186 0.098202094435692
			vertex 7.0309710502625 6.7665581703186 0.11039584875107
			vertex 8.1807994842529 6.7665581703186 0.21999999880791
		endloop
	endfacet
	facet normal -0 1 0
		outer loop
			vertex 7.0374093055725 6.7665581703186 0.098202094435692
			vertex 8.1807994842529 6.7665581703186 0.21999999880791
			vertex 8.5215997695923 6.7665581703186 0
		endloop
	endfacet
	facet normal 1 0 0
		outer loop
			vertex 8.5215997695923 6.7665581703186 0
			vertex 8.5215997695923 6.5929207801819 0.21269816160202
			vertex 8.5215997695923 6.546558380127 0
		endloop
	endfacet
	facet normal 1 0 0
		outer loop
			vertex 8.5215997695923 6.546558380127 0
			vertex 8.5215997695923 6.5929207801819 0.21269816160202
			vertex 8.5215997695923 6.546558380127 0.21999999880791
		endloop
	endfacet
	facet normal 1 0 0
		outer loop
			vertex 8.5215997695923 6.7665581703186 0
			vertex 8.5215997695923 6.6014552116394 0.21999999880791
			vertex 8.5215997695923 6.5929207801819 0.21269816160202
		endloop
	endfacet
	facet normal 0 -1 0
		outer loop
			vertex 5.1965999603271 6.546558380127 1.009299993515
			vertex 6.9731001853943 6.546558380127 0.21999999880791
			vertex 8.5215997695923 6.546558380127 0.21999999880791
		endloop
	endfacet
	facet normal 0 1 0
		outer loop
			vertex 6.7451000213623 6.7665581703186 0.21999999880791
			vertex 6.7600998878479 6.7665581703186 1.009299993515
			vertex 6.7600998878479 6.7665581703186 0.21999999880791
		endloop
	endfacet
	facet normal 0 1 0
		outer loop
			vertex 6.9580998420715 6.7665581703186 0.21999999880791
			vertex 6.9580998420715 6.7665581703186 1.009299993515
			vertex 6.9731001853943 6.7665581703186 0.21999999880791
		endloop
	endfacet
	facet normal 0 1 -0
		outer loop
			vertex 6.9731001853943 6.7665581703186 0.21999999880791
			vertex 6.9580998420715 6.7665581703186 1.009299993515
			vertex 8.1807994842529 6.7665581703186 0.21999999880791
		endloop
	endfacet
	facet normal 0 1 -0
		outer loop
			vertex 8.5215997695923 6.7665581703186 0
			vertex 8.1807994842529 6.7665581703186 0.21999999880791
			vertex 8.5215997695923 6.7665581703186 1.009299993515
		endloop
	endfacet
	facet normal 1 0 -0
		outer loop
			vertex 8.5215997695923 6.7665581703186 0
			vertex 8.5215997695923 6.7665581703186 1.009299993515
			vertex 8.5215997695923 6.6014552116394 0.21999999880791
		endloop
	endfacet
	facet normal 1 0 0
		outer loop
			vertex 8.5215997695923 6.5929207801819 0.21269816160202
			vertex 8.5215997695923 6.546558380127 1.009299993515
			vertex 8.5215997695923 6.546558380127 0.21999999880791
		endloop
	endfacet
	facet normal 1 0 -0
		outer loop
			vertex 8.5215997695923 6.5929207801819 0.21269816160202
			vertex 8.5215997695923 6.594512462616 0.21999999880791
			vertex 8.5215997695923 6.546558380127 1.009299993515
		endloop
	endfacet
	facet normal 1 0 -0
		outer loop
			vertex 8.5215997695923 6.6014552116394 0.21999999880791
			vertex 8.5215997695923 6.7665581703186 1.009299993515
			vertex 8.5215997695923 6.594512462616 0.21999999880791
		endloop
	endfacet
	facet normal -1 0 0
		outer loop
			vertex 5.1965999603271 6.546558380127 0.21999999880791
			vertex 5.1965999603271 6.546558380127 1.009299993515
			vertex 5.1965999603271 6.7665581703186 1.009299993515
		endloop
	endfacet
	facet normal 0 1 0
		outer loop
			vertex 5.1965999603271 6.7665581703186 0.21999999880791
			vertex 5.1965999603271 6.7665581703186 1.009299993515
			vertex 6.7600998878479 6.7665581703186 1.009299993515
		endloop
	endfacet
	facet normal 0 0 1
		outer loop
			vertex 5.1965999603271 6.7665581703186 1.009299993515
			vertex 5.1965999603271 6.546558380127 1.009299993515
			vertex 8.5215997695923 6.546558380127 1.009299993515
		endloop
	endfacet
	facet normal 0 -1 0
		outer loop
			vertex 5.1965999603271 6.546558380127 1.009299993515
			vertex 8.5215997695923 6.546558380127 0.21999999880791
			vertex 8.5215997695923 6.546558380127 1.009299993515
		endloop
	endfacet
	facet normal 0 1 -0
		outer loop
			vertex 8.1807994842529 6.7665581703186 0.21999999880791
			vertex 6.9580998420715 6.7665581703186 1.009299993515
			vertex 8.5215997695923 6.7665581703186 1.009299993515
		endloop
	endfacet
	facet normal 1 0 -0
		outer loop
			vertex 8.5215997695923 6.594512462616 0.21999999880791
			vertex 8.5215997695923 6.7665581703186 1.009299993515
			vertex 8.5215997695923 6.546558380127 1.009299993515
		endloop
	endfacet
	facet normal -0 0 1
		outer loop
			vertex 5.1965999603271 6.7665581703186 1.009299993515
			vertex 8.5215997695923 6.546558380127 1.009299993515
			vertex 6.7600998878479 6.7665581703186 1.009299993515
		endloop
	endfacet
	facet normal -0 0 1
		outer loop
			vertex 6.7600998878479 6.7665581703186 1.009299993515
			vertex 8.5215997695923 6.546558380127 1.009299993515
			vertex 6.9580998420715 6.7665581703186 1.009299993515
		endloop
	endfacet
	facet normal -0 0 1
		outer loop
			vertex 6.9580998420715 6.7665581703186 1.009299993515
			vertex 8.5215997695923 6.546558380127 1.009299993515
			vertex 8.5215997695923 6.7665581703186 1.009299993515
		endloop
	endfacet
	facet normal 0 0 -1
		outer loop
			vertex 6.6940999031067 6.876558303833 0
			vertex 6.9580998420715 6.7665581703186 0
			vertex 6.7600998878479 6.7665581703186 0
		endloop
	endfacet
	facet normal 0 0 -1
		outer loop
			vertex 6.6940999031067 6.876558303833 0
			vertex 7.0240998268127 6.876558303833 0
			vertex 6.9580998420715 6.7665581703186 0
		endloop
	endfacet
	facet normal 0.85749325369431 -0.51449520879086 0
		outer loop
			vertex 6.9580998420715 6.7665581703186 0
			vertex 7.0240998268127 6.876558303833 0
			vertex 6.9580998420715 6.7665581703186 0.094999998807907
		endloop
	endfacet
	facet normal 0.85749325369431 -0.51449520879086 0
		outer loop
			vertex 7.0240998268127 6.876558303833 0
			vertex 6.9580998420715 6.7665581703186 0.21999999880791
			vertex 6.9580998420715 6.7665581703186 0.094999998807907
		endloop
	endfacet
	facet normal -0.85749325369431 -0.51449520879086 0
		outer loop
			vertex 6.6940999031067 6.876558303833 0
			vertex 6.7600998878479 6.7665581703186 0
			vertex 6.6940999031067 6.876558303833 1.009299993515
		endloop
	endfacet
	facet normal 0 1 0
		outer loop
			vertex 6.6940999031067 6.876558303833 0
			vertex 7.0240998268127 6.876558303833 1.009299993515
			vertex 7.0240998268127 6.876558303833 0
		endloop
	endfacet
	facet normal -0.85749325369431 -0.51449520879086 0
		outer loop
			vertex 6.7600998878479 6.7665581703186 0
			vertex 6.7600998878479 6.7665581703186 0.094999998807907
			vertex 6.6940999031067 6.876558303833 1.009299993515
		endloop
	endfacet
	facet normal -0.85749325369431 -0.51449520879086 0
		outer loop
			vertex 6.7600998878479 6.7665581703186 0.094999998807907
			vertex 6.7600998878479 6.7665581703186 0.21999999880791
			vertex 6.6940999031067 6.876558303833 1.009299993515
		endloop
	endfacet
	facet normal 0.85749325369431 -0.51449520879086 0
		outer loop
			vertex 7.0240998268127 6.876558303833 0
			vertex 6.9580998420715 6.7665581703186 1.009299993515
			vertex 6.9580998420715 6.7665581703186 0.21999999880791
		endloop
	endfacet
	facet normal 0 1 0
		outer loop
			vertex 6.6940999031067 6.876558303833 0
			vertex 6.6940999031067 6.876558303833 1.009299993515
			vertex 7.0240998268127 6.876558303833 1.009299993515
		endloop
	endfacet
	facet normal -0.85749325369431 -0.51449520879086 0
		outer loop
			vertex 6.7600998878479 6.7665581703186 0.21999999880791
			vertex 6.7600998878479 6.7665581703186 1.009299993515
			vertex 6.6940999031067 6.876558303833 1.009299993515
		endloop
	endfacet
	facet normal 0.85749325369431 -0.51449520879086 0
		outer loop
			vertex 7.0240998268127 6.876558303833 0
			vertex 7.0240998268127 6.876558303833 1.009299993515
			vertex 6.9580998420715 6.7665581703186 1.009299993515
		endloop
	endfacet
	facet normal 0 0 1
		outer loop
			vertex 6.6940999031067 6.876558303833 1.009299993515
			vertex 6.7600998878479 6.7665581703186 1.009299993515
			vertex 6.9580998420715 6.7665581703186 1.009299993515
		endloop
	endfacet
	facet normal -0 0 1
		outer loop
			vertex 6.6940999031067 6.876558303833 1.009299993515
			vertex 6.9580998420715 6.7665581703186 1.009299993515
			vertex 7.0240998268127 6.876558303833 1.009299993515
		endloop
	endfacet
	facet normal -1 0 0
		outer loop
			vertex 5.1965999603271 6.546558380127 0
			vertex 5.1965999603271 1.5349582433701 0
			vertex 5.1965999603271 1.6449582576752 0.19052559137344
		endloop
	endfacet
	facet normal -1 0 0
		outer loop
			vertex 5.1965999603271 6.546558380127 0.18062800168991
			vertex 5.1965999603271 1.6449582576752 0.19052559137344
			vertex 5.1965999603271 1.5939069986343 0.21999999880791
		endloop
	endfacet
	facet normal 0 0 1
		outer loop
			vertex 6.7451000213623 6.546558380127 0.21999999880791
			vertex 5.1965999603271 1.5939069986343 0.21999999880791
			vertex 6.7451000213623 1.5939069986343 0.21999999880791
		endloop
	endfacet
	facet normal 1 0 0
		outer loop
			vertex 8.5215997695923 1.5349582433701 0
			vertex 8.5215997695923 1.6449582576752 0.19052559137344
			vertex 8.5215997695923 1.5733925104141 0.21999999880791
		endloop
	endfacet
	facet normal 1 0 0
		outer loop
			vertex 8.5215997695923 1.5349582433701 0
			vertex 8.5215997695923 1.5733925104141 0.21999999880791
			vertex 8.5215997695923 1.5349582433701 0.21999999880791
		endloop
	endfacet
	facet normal 0 0 -1
		outer loop
			vertex 5.1965999603271 1.5349582433701 0
			vertex 8.5215997695923 6.546558380127 0
			vertex 8.5215997695923 1.5349582433701 0
		endloop
	endfacet
	facet normal 1 0 0
		outer loop
			vertex 8.5215997695923 6.546558380127 0
			vertex 8.5215997695923 1.6449582576752 0.19052559137344
			vertex 8.5215997695923 1.5349582433701 0
		endloop
	endfacet
	facet normal 0 0 1
		outer loop
			vertex 8.5215997695923 6.546558380127 0.21999999880791
			vertex 6.9731001853943 1.5939069986343 0.21999999880791
			vertex 8.5215997695923 1.5939069986343 0.21999999880791
		endloop
	endfacet
	facet normal 1 0 0
		outer loop
			vertex 8.5215997695923 6.546558380127 0.21999999880791
			vertex 8.5215997695923 1.5939069986343 0.21999999880791
			vertex 8.5215997695923 1.6449582576752 0.19052559137344
		endloop
	endfacet
	facet normal -1 0 0
		outer loop
			vertex 5.1965999603271 6.546558380127 0
			vertex 5.1965999603271 1.6449582576752 0.19052559137344
			vertex 5.1965999603271 6.546558380127 0.18062800168991
		endloop
	endfacet
	facet normal -1 0 0
		outer loop
			vertex 5.1965999603271 6.546558380127 0.18062800168991
			vertex 5.1965999603271 1.5939069986343 0.21999999880791
			vertex 5.1965999603271 6.546558380127 0.21999999880791
		endloop
	endfacet
	facet normal 0 0 -1
		outer loop
			vertex 5.1965999603271 6.546558380127 0
			vertex 8.5215997695923 6.7665581703186 0
			vertex 5.1965999603271 1.5349582433701 0
		endloop
	endfacet
	facet normal -0 0 1
		outer loop
			vertex 5.1965999603271 6.546558380127 0.21999999880791
			vertex 5.1965999603271 1.5939069986343 0.21999999880791
			vertex 6.7451000213623 6.546558380127 0.21999999880791
		endloop
	endfacet
	facet normal -1 0 0
		outer loop
			vertex 5.1965999603271 6.7665581703186 0
			vertex 5.1965999603271 6.546558380127 0.18062800168991
			vertex 5.1965999603271 6.7665581703186 0.21999999880791
		endloop
	endfacet
	facet normal -1 0 0
		outer loop
			vertex 5.1965999603271 6.546558380127 0.18062800168991
			vertex 5.1965999603271 6.546558380127 0.21999999880791
			vertex 5.1965999603271 6.7665581703186 0.21999999880791
		endloop
	endfacet
	facet normal 0 0 -1
		outer loop
			vertex 5.1965999603271 6.7665581703186 0
			vertex 6.7600998878479 6.7665581703186 0
			vertex 5.1965999603271 6.546558380127 0
		endloop
	endfacet
	facet normal 0 1 0
		outer loop
			vertex 5.1965999603271 6.7665581703186 0
			vertex 5.1965999603271 6.7665581703186 0.21999999880791
			vertex 6.6791000366211 6.7665581703186 0.094999998807907
		endloop
	endfacet
	facet normal 0 0 -1
		outer loop
			vertex 5.1965999603271 6.546558380127 0
			vertex 6.7600998878479 6.7665581703186 0
			vertex 6.9580998420715 6.7665581703186 0
		endloop
	endfacet
	facet normal 0 1 0
		outer loop
			vertex 5.1965999603271 6.7665581703186 0
			vertex 6.6791000366211 6.7665581703186 0.094999998807907
			vertex 6.7600998878479 6.7665581703186 0
		endloop
	endfacet
	facet normal -0 1 0
		outer loop
			vertex 5.1965999603271 6.7665581703186 0.21999999880791
			vertex 6.7451000213623 6.7665581703186 0.21999999880791
			vertex 6.6791000366211 6.7665581703186 0.094999998807907
		endloop
	endfacet
	facet normal 0 0 -1
		outer loop
			vertex 5.1965999603271 1.5349582433701 0
			vertex 8.5215997695923 6.7665581703186 0
			vertex 8.5215997695923 6.546558380127 0
		endloop
	endfacet
	facet normal -0 0 1
		outer loop
			vertex 6.9731001853943 6.546558380127 0.21999999880791
			vertex 6.9731001853943 1.5939069986343 0.21999999880791
			vertex 8.5215997695923 6.546558380127 0.21999999880791
		endloop
	endfacet
	facet normal 1 0 -0
		outer loop
			vertex 8.5215997695923 6.546558380127 0
			vertex 8.5215997695923 6.546558380127 0.21999999880791
			vertex 8.5215997695923 1.6449582576752 0.19052559137344
		endloop
	endfacet
	facet normal 0 0 -1
		outer loop
			vertex 5.1965999603271 6.546558380127 0
			vertex 6.9580998420715 6.7665581703186 0
			vertex 8.5215997695923 6.7665581703186 0
		endloop
	endfacet
	facet normal 0 1 -0
		outer loop
			vertex 6.7600998878479 6.7665581703186 0
			vertex 6.6791000366211 6.7665581703186 0.094999998807907
			vertex 6.7600998878479 6.7665581703186 0.094999998807907
		endloop
	endfacet
	facet normal 0 1 0
		outer loop
			vertex 6.9580998420715 6.7665581703186 0
			vertex 6.9580998420715 6.7665581703186 0.094999998807907
			vertex 7.0391001701355 6.7665581703186 0.094999998807907
		endloop
	endfacet
	facet normal 0 1 -0
		outer loop
			vertex 7.0309710502625 6.7665581703186 0.11039584875107
			vertex 6.9731001853943 6.7665581703186 0.21999999880791
			vertex 8.1807994842529 6.7665581703186 0.21999999880791
		endloop
	endfacet
	facet normal 0 1 0
		outer loop
			vertex 6.9580998420715 6.7665581703186 0
			vertex 7.0391001701355 6.7665581703186 0.094999998807907
			vertex 8.5215997695923 6.7665581703186 0
		endloop
	endfacet
	facet normal -0 1 -0
		outer loop
			vertex 7.0391001701355 6.7665581703186 0.094999998807907
			vertex 7.0374093055725 6.7665581703186 0.098202094435692
			vertex 8.5215997695923 6.7665581703186 0
		endloop
	endfacet
	facet normal 1 0 0
		outer loop
			vertex 8.5215997695923 6.5929207801819 0.21269816160202
			vertex 8.5215997695923 6.6014552116394 0.21999999880791
			vertex 8.5215997695923 6.594512462616 0.21999999880791
		endloop
	endfacet
	facet normal -1 0 0
		outer loop
			vertex 5.1965999603271 1.5349582433701 0
			vertex 5.1965999603271 1.5939069986343 0.21999999880791
			vertex 5.1965999603271 1.6449582576752 0.19052559137344
		endloop
	endfacet
	facet normal -7.9880102617358e-08 -0.50000011666088 -0.86602533643023
		outer loop
			vertex 5.1965999603271 1.5349582433701 0
			vertex 6.130087852478 1.325630068779 0.12085562944412
			vertex 5.8007388114929 1.1731742620468 0.2088760882616
		endloop
	endfacet
	facet normal 3.9399582724913e-08 -0.49999971771975 -0.86602556675895
		outer loop
			vertex 5.1965999603271 1.5349582433701 0
			vertex 6.4874529838562 1.4195120334625 0.066652908921242
			vertex 6.130087852478 1.325630068779 0.12085562944412
		endloop
	endfacet
	facet normal -6.0873321245422e-09 -0.50000009917612 -0.86602534652507
		outer loop
			vertex 5.1965999603271 1.5349582433701 0
			vertex 6.8590998649597 1.4512120485306 0.048350889235735
			vertex 6.4874529838562 1.4195120334625 0.066652908921242
		endloop
	endfacet
	facet normal 4.1866896326821e-08 -0.49999996418297 -0.86602542446341
		outer loop
			vertex 5.1965999603271 1.5349582433701 0
			vertex 5.8007388114929 1.1731742620468 0.2088760882616
			vertex 5.5120615959167 0.96800309419632 0.32733169198036
		endloop
	endfacet
	facet normal -0 0.49999975331268 0.86602554620938
		outer loop
			vertex 5.1965999603271 1.5939069986343 0.21999999880791
			vertex 6.4874529838562 1.5295119285583 0.25717848539352
			vertex 6.7451000213623 1.5939069986343 0.21999999880791
		endloop
	endfacet
	facet normal -2.7108183257038e-07 -0.49999999323431 -0.86602540769057
		outer loop
			vertex 5.1965999603271 1.5349582433701 0
			vertex 5.2751502990723 0.71800136566162 0.4716702401638
			vertex 5.1965999603271 0.59073251485825 0.54514896869659
		endloop
	endfacet
	facet normal -1 0 0
		outer loop
			vertex 5.1965999603271 1.5349582433701 0
			vertex 5.1965999603271 0.70073252916336 0.73567456007004
			vertex 5.1965999603271 1.5939069986343 0.21999999880791
		endloop
	endfacet
	facet normal -1 0 0
		outer loop
			vertex 5.1965999603271 1.5349582433701 0
			vertex 5.1965999603271 0.59073251485825 0.54514896869659
			vertex 5.1965999603271 0.70073252916336 0.73567456007004
		endloop
	endfacet
	facet normal 2.3083883670717e-08 -0.49999997202132 -0.86602541993794
		outer loop
			vertex 5.1965999603271 1.5349582433701 0
			vertex 5.5120615959167 0.96800309419632 0.32733169198036
			vertex 5.2751502990723 0.71800136566162 0.4716702401638
		endloop
	endfacet
	facet normal -1.9804982380386e-08 0.4999999214655 0.86602544912635
		outer loop
			vertex 5.1965999603271 1.5939069986343 0.21999999880791
			vertex 5.8007388114929 1.2831741571426 0.39940166473389
			vertex 6.130087852478 1.4356300830841 0.31138122081757
		endloop
	endfacet
	facet normal 2.4103000316431e-08 0.50000011568635 0.86602533699288
		outer loop
			vertex 5.1965999603271 1.5939069986343 0.21999999880791
			vertex 6.130087852478 1.4356300830841 0.31138122081757
			vertex 6.4874529838562 1.5295119285583 0.25717848539352
		endloop
	endfacet
	facet normal 7.0277949154434e-08 0.4999999950727 0.86602540662921
		outer loop
			vertex 5.1965999603271 1.5939069986343 0.21999999880791
			vertex 5.2751502990723 0.82800137996674 0.66219580173492
			vertex 5.5120615959167 1.0780030488968 0.51785725355148
		endloop
	endfacet
	facet normal 1.2503482152926e-08 0.49999996857703 0.8660254219265
		outer loop
			vertex 5.1965999603271 1.5939069986343 0.21999999880791
			vertex 5.5120615959167 1.0780030488968 0.51785725355148
			vertex 5.8007388114929 1.2831741571426 0.39940166473389
		endloop
	endfacet
	facet normal 0 -0.50000000854345 -0.86602539885188
		outer loop
			vertex 5.1965999603271 1.5349582433701 0
			vertex 8.5215997695923 1.5349582433701 0
			vertex 6.8590998649597 1.4512120485306 0.048350889235735
		endloop
	endfacet
	facet normal -2.140500673069e-07 0.50000039562937 0.86602517536757
		outer loop
			vertex 6.7451000213623 1.5939069986343 0.21999999880791
			vertex 6.4874529838562 1.5295119285583 0.25717848539352
			vertex 6.8590998649597 1.5612120628357 0.23887647688389
		endloop
	endfacet
	facet normal -0 0.50000095538689 0.86602485219086
		outer loop
			vertex 6.7451000213623 1.5939069986343 0.21999999880791
			vertex 6.8590998649597 1.5612120628357 0.23887647688389
			vertex 6.9731001853943 1.5939069986343 0.21999999880791
		endloop
	endfacet
	facet normal 2.1404965039039e-07 0.50000039562812 0.86602517536829
		outer loop
			vertex 6.9731001853943 1.5939069986343 0.21999999880791
			vertex 6.8590998649597 1.5612120628357 0.23887647688389
			vertex 7.2307472229004 1.5295119285583 0.25717848539352
		endloop
	endfacet
	facet normal 6.0873292246163e-09 -0.50000009917608 -0.86602534652509
		outer loop
			vertex 8.5215997695923 1.5349582433701 0
			vertex 7.2307472229004 1.4195120334625 0.066652908921242
			vertex 6.8590998649597 1.4512120485306 0.048350889235735
		endloop
	endfacet
	facet normal -3.9399606934385e-08 -0.49999971771967 -0.866025566759
		outer loop
			vertex 8.5215997695923 1.5349582433701 0
			vertex 7.5881118774414 1.325630068779 0.12085562944412
			vertex 7.2307472229004 1.4195120334625 0.066652908921242
		endloop
	endfacet
	facet normal 7.9880064875472e-08 -0.50000011666076 -0.8660253364303
		outer loop
			vertex 8.5215997695923 1.5349582433701 0
			vertex 7.9174613952637 1.1731742620468 0.2088760882616
			vertex 7.5881118774414 1.325630068779 0.12085562944412
		endloop
	endfacet
	facet normal -0 0.49999975331268 0.86602554620938
		outer loop
			vertex 6.9731001853943 1.5939069986343 0.21999999880791
			vertex 7.2307472229004 1.5295119285583 0.25717848539352
			vertex 8.5215997695923 1.5939069986343 0.21999999880791
		endloop
	endfacet
	facet normal -4.1866914260897e-08 -0.49999996418299 -0.8660254244634
		outer loop
			vertex 8.5215997695923 1.5349582433701 0
			vertex 8.2061386108398 0.96800309419632 0.32733169198036
			vertex 7.9174613952637 1.1731742620468 0.2088760882616
		endloop
	endfacet
	facet normal 1 0 0
		outer loop
			vertex 8.5215997695923 1.6449582576752 0.19052559137344
			vertex 8.5215997695923 1.5939069986343 0.21999999880791
			vertex 8.5215997695923 1.5733925104141 0.21999999880791
		endloop
	endfacet
	facet normal -2.4103012931599e-08 0.50000011568641 0.86602533699285
		outer loop
			vertex 8.5215997695923 1.5939069986343 0.21999999880791
			vertex 7.2307472229004 1.5295119285583 0.25717848539352
			vertex 7.5881118774414 1.4356300830841 0.31138122081757
		endloop
	endfacet
	facet normal -2.3083925852431e-08 -0.49999997202131 -0.86602541993794
		outer loop
			vertex 8.5215997695923 1.5349582433701 0
			vertex 8.4430494308472 0.71800136566162 0.4716702401638
			vertex 8.2061386108398 0.96800309419632 0.32733169198036
		endloop
	endfacet
	facet normal 1 0 -0
		outer loop
			vertex 8.5215997695923 1.5349582433701 0
			vertex 8.5215997695923 1.5349582433701 0.21999999880791
			vertex 8.5215997695923 0.59073251485825 0.54514896869659
		endloop
	endfacet
	facet normal 2.7108183257038e-07 -0.49999999323431 -0.86602540769057
		outer loop
			vertex 8.5215997695923 1.5349582433701 0
			vertex 8.5215997695923 0.59073251485825 0.54514896869659
			vertex 8.4430494308472 0.71800136566162 0.4716702401638
		endloop
	endfacet
	facet normal 1 0 0
		outer loop
			vertex 8.5215997695923 1.5733925104141 0.21999999880791
			vertex 8.5215997695923 0.59073251485825 0.54514896869659
			vertex 8.5215997695923 1.5349582433701 0.21999999880791
		endloop
	endfacet
	facet normal 1.9804974693203e-08 0.49999992146554 0.86602544912633
		outer loop
			vertex 8.5215997695923 1.5939069986343 0.21999999880791
			vertex 7.5881118774414 1.4356300830841 0.31138122081757
			vertex 7.9174613952637 1.2831741571426 0.39940166473389
		endloop
	endfacet
	facet normal 1 0 0
		outer loop
			vertex 8.5215997695923 1.5939069986343 0.21999999880791
			vertex 8.5215997695923 0.70073252916336 0.73567456007004
			vertex 8.5215997695923 1.5733925104141 0.21999999880791
		endloop
	endfacet
	facet normal 1 0 0
		outer loop
			vertex 8.5215997695923 1.5733925104141 0.21999999880791
			vertex 8.5215997695923 0.70073252916336 0.73567456007004
			vertex 8.5215997695923 0.59073251485825 0.54514896869659
		endloop
	endfacet
	facet normal -7.0278076791265e-08 0.49999999507271 0.86602540662921
		outer loop
			vertex 8.5215997695923 1.5939069986343 0.21999999880791
			vertex 8.2061386108398 1.0780030488968 0.51785725355148
			vertex 8.4430494308472 0.82800137996674 0.66219580173492
		endloop
	endfacet
	facet normal -1.2503487878352e-08 0.49999996857703 0.8660254219265
		outer loop
			vertex 8.5215997695923 1.5939069986343 0.21999999880791
			vertex 7.9174613952637 1.2831741571426 0.39940166473389
			vertex 8.2061386108398 1.0780030488968 0.51785725355148
		endloop
	endfacet
	facet normal 5.2081863196245e-07 0.50000002972781 0.86602538662092
		outer loop
			vertex 5.1965999603271 1.5939069986343 0.21999999880791
			vertex 5.1965999603271 0.70073252916336 0.73567456007004
			vertex 5.2751502990723 0.82800137996674 0.66219580173492
		endloop
	endfacet
	facet normal -5.2081863196245e-07 0.50000002972781 0.86602538662092
		outer loop
			vertex 8.5215997695923 1.5939069986343 0.21999999880791
			vertex 8.4430494308472 0.82800137996674 0.66219580173492
			vertex 8.5215997695923 0.70073252916336 0.73567456007004
		endloop
	endfacet
	facet normal 0.88430366508141 0 -0.46691222721576
		outer loop
			vertex 6.7451000213623 1.5939069986343 0.21999999880791
			vertex 6.7451000213623 1.5373486280441 0.21999999880791
			vertex 6.6791000366211 1.4576737880707 0.094999998807907
		endloop
	endfacet
	facet normal 0 0 -1
		outer loop
			vertex 6.7451000213623 1.5939069986343 0.21999999880791
			vertex 6.8590998649597 1.5503137111664 0.21999999880791
			vertex 6.7451000213623 1.5373486280441 0.21999999880791
		endloop
	endfacet
	facet normal 0 0 -1
		outer loop
			vertex 6.7451000213623 1.5939069986343 0.21999999880791
			vertex 6.9731001853943 1.5939069986343 0.21999999880791
			vertex 6.8590998649597 1.5503137111664 0.21999999880791
		endloop
	endfacet
	facet normal 0 -0 -1
		outer loop
			vertex 6.9731001853943 1.5939069986343 0.21999999880791
			vertex 6.9731001853943 1.5373486280441 0.21999999880791
			vertex 6.8590998649597 1.5503137111664 0.21999999880791
		endloop
	endfacet
	facet normal 0 0 1
		outer loop
			vertex 6.6791000366211 6.7665581703186 0.094999998807907
			vertex 6.6791000366211 1.4576737880707 0.094999998807907
			vertex 6.8590998649597 1.4781448841095 0.094999998807907
		endloop
	endfacet
	facet normal 0 0 1
		outer loop
			vertex 7.0391001701355 6.7665581703186 0.094999998807907
			vertex 6.8590998649597 1.4781448841095 0.094999998807907
			vertex 7.0391001701355 1.4576737880707 0.094999998807907
		endloop
	endfacet
	facet normal 0.88430366508141 0 -0.46691222721576
		outer loop
			vertex 6.6791000366211 6.7665581703186 0.094999998807907
			vertex 6.7451000213623 1.5939069986343 0.21999999880791
			vertex 6.6791000366211 1.4576737880707 0.094999998807907
		endloop
	endfacet
	facet normal -0.88430366508141 -0 -0.46691222721576
		outer loop
			vertex 7.0391001701355 6.7665581703186 0.094999998807907
			vertex 7.0391001701355 1.4576737880707 0.094999998807907
			vertex 6.9731001853943 1.5373486280441 0.21999999880791
		endloop
	endfacet
	facet normal -0.88430404145737 0 -0.46691151438164
		outer loop
			vertex 7.0309710502625 6.7665581703186 0.11039584875107
			vertex 6.9731001853943 1.5373486280441 0.21999999880791
			vertex 6.9731001853943 1.5939069986343 0.21999999880791
		endloop
	endfacet
	facet normal -0 0 1
		outer loop
			vertex 6.6791000366211 6.7665581703186 0.094999998807907
			vertex 6.8590998649597 1.4781448841095 0.094999998807907
			vertex 6.7600998878479 6.7665581703186 0.094999998807907
		endloop
	endfacet
	facet normal -0 0 1
		outer loop
			vertex 6.7600998878479 6.7665581703186 0.094999998807907
			vertex 6.8590998649597 1.4781448841095 0.094999998807907
			vertex 6.9580998420715 6.7665581703186 0.094999998807907
		endloop
	endfacet
	facet normal -0 0 1
		outer loop
			vertex 6.9580998420715 6.7665581703186 0.094999998807907
			vertex 6.8590998649597 1.4781448841095 0.094999998807907
			vertex 7.0391001701355 6.7665581703186 0.094999998807907
		endloop
	endfacet
	facet normal 0.88430366508141 0 -0.46691222721576
		outer loop
			vertex 6.6791000366211 6.7665581703186 0.094999998807907
			vertex 6.7451000213623 6.546558380127 0.21999999880791
			vertex 6.7451000213623 1.5939069986343 0.21999999880791
		endloop
	endfacet
	facet normal -0.88428559595827 -1.0460644598704e-06 -0.46694644744299
		outer loop
			vertex 7.0391001701355 6.7665581703186 0.094999998807907
			vertex 6.9731001853943 1.5373486280441 0.21999999880791
			vertex 7.0374093055725 6.7665581703186 0.098202094435692
		endloop
	endfacet
	facet normal -0.88430502690309 5.0025142639697e-08 -0.46690964799832
		outer loop
			vertex 7.0374093055725 6.7665581703186 0.098202094435692
			vertex 6.9731001853943 1.5373486280441 0.21999999880791
			vertex 7.0309710502625 6.7665581703186 0.11039584875107
		endloop
	endfacet
	facet normal -0.88430404145737 0 -0.46691151438164
		outer loop
			vertex 7.0309710502625 6.7665581703186 0.11039584875107
			vertex 6.9731001853943 1.5939069986343 0.21999999880791
			vertex 6.9731001853943 6.546558380127 0.21999999880791
		endloop
	endfacet
	facet normal 0 -1 0
		outer loop
			vertex 6.7600998878479 6.7665581703186 0.094999998807907
			vertex 6.9580998420715 6.7665581703186 0.094999998807907
			vertex 6.7600998878479 6.7665581703186 0.21999999880791
		endloop
	endfacet
	facet normal 0.88430366508141 0 -0.46691222721576
		outer loop
			vertex 6.6791000366211 6.7665581703186 0.094999998807907
			vertex 6.7451000213623 6.7665581703186 0.21999999880791
			vertex 6.7451000213623 6.546558380127 0.21999999880791
		endloop
	endfacet
	facet normal 0 -1 0
		outer loop
			vertex 6.7600998878479 6.7665581703186 0.21999999880791
			vertex 6.9580998420715 6.7665581703186 0.094999998807907
			vertex 6.9580998420715 6.7665581703186 0.21999999880791
		endloop
	endfacet
	facet normal 0 0 -1
		outer loop
			vertex 6.7451000213623 6.7665581703186 0.21999999880791
			vertex 6.9731001853943 6.546558380127 0.21999999880791
			vertex 6.7451000213623 6.546558380127 0.21999999880791
		endloop
	endfacet
	facet normal 0 0 -1
		outer loop
			vertex 6.7451000213623 6.7665581703186 0.21999999880791
			vertex 6.7600998878479 6.7665581703186 0.21999999880791
			vertex 6.9731001853943 6.546558380127 0.21999999880791
		endloop
	endfacet
	facet normal 0 0 -1
		outer loop
			vertex 6.7600998878479 6.7665581703186 0.21999999880791
			vertex 6.9580998420715 6.7665581703186 0.21999999880791
			vertex 6.9731001853943 6.546558380127 0.21999999880791
		endloop
	endfacet
	facet normal -0.88430404145737 0 -0.46691151438164
		outer loop
			vertex 7.0309710502625 6.7665581703186 0.11039584875107
			vertex 6.9731001853943 6.546558380127 0.21999999880791
			vertex 6.9731001853943 6.7665581703186 0.21999999880791
		endloop
	endfacet
	facet normal 0 0 -1
		outer loop
			vertex 6.9580998420715 6.7665581703186 0.21999999880791
			vertex 6.9731001853943 6.7665581703186 0.21999999880791
			vertex 6.9731001853943 6.546558380127 0.21999999880791
		endloop
	endfacet
	facet normal 0.29028467527833 -0.82873482531399 0.47846984921763
		outer loop
			vertex 6.130087852478 1.325630068779 0.12085562944412
			vertex 6.4874529838562 1.4195120334625 0.066652908921242
			vertex 6.4874529838562 1.5295119285583 0.25717848539352
		endloop
	endfacet
	facet normal 0.47139694712342 -0.76376609943175 0.44096061456952
		outer loop
			vertex 6.130087852478 1.325630068779 0.12085562944412
			vertex 6.130087852478 1.4356300830841 0.31138122081757
			vertex 5.8007388114929 1.1731742620468 0.2088760882616
		endloop
	endfacet
	facet normal 0.29028444039499 -0.82873467869397 0.47847024567319
		outer loop
			vertex 6.130087852478 1.325630068779 0.12085562944412
			vertex 6.4874529838562 1.5295119285583 0.25717848539352
			vertex 6.130087852478 1.4356300830841 0.31138122081757
		endloop
	endfacet
	facet normal 0.63439324755874 -0.66944686477019 0.38650498405742
		outer loop
			vertex 5.5120615959167 0.96800309419632 0.32733169198036
			vertex 5.8007388114929 1.1731742620468 0.2088760882616
			vertex 5.8007388114929 1.2831741571426 0.39940166473389
		endloop
	endfacet
	facet normal 0.47139714662322 -0.76376619907676 0.44096022870926
		outer loop
			vertex 6.130087852478 1.4356300830841 0.31138122081757
			vertex 5.8007388114929 1.2831741571426 0.39940166473389
			vertex 5.8007388114929 1.1731742620468 0.2088760882616
		endloop
	endfacet
	facet normal 0.77301031491974 -0.5494008830785 0.31719666249861
		outer loop
			vertex 5.2751502990723 0.71800136566162 0.4716702401638
			vertex 5.5120615959167 0.96800309419632 0.32733169198036
			vertex 5.5120615959167 1.0780030488968 0.51785725355148
		endloop
	endfacet
	facet normal 0.63439315304205 -0.66944682816976 0.386505202587
		outer loop
			vertex 5.5120615959167 0.96800309419632 0.32733169198036
			vertex 5.8007388114929 1.2831741571426 0.39940166473389
			vertex 5.5120615959167 1.0780030488968 0.51785725355148
		endloop
	endfacet
	facet normal 0.098017154435322 -0.86185557667463 0.49759180297835
		outer loop
			vertex 6.4874529838562 1.4195120334625 0.066652908921242
			vertex 6.8590998649597 1.4512120485306 0.048350889235735
			vertex 6.8590998649597 1.4781448841095 0.094999998807907
		endloop
	endfacet
	facet normal 0.098017673347509 -0.86185733989264 0.49758864676027
		outer loop
			vertex 6.6791000366211 1.4576737880707 0.094999998807907
			vertex 6.4874529838562 1.4195120334625 0.066652908921242
			vertex 6.8590998649597 1.4781448841095 0.094999998807907
		endloop
	endfacet
	facet normal -0.09801721259811 -0.86185557171357 0.49759180011408
		outer loop
			vertex 7.0391001701355 1.4576737880707 0.094999998807907
			vertex 6.8590998649597 1.4781448841095 0.094999998807907
			vertex 6.8590998649597 1.4512120485306 0.048350889235735
		endloop
	endfacet
	facet normal -0.098017029883852 -0.86185596785587 0.49759114996547
		outer loop
			vertex 7.0391001701355 1.4576737880707 0.094999998807907
			vertex 6.8590998649597 1.4512120485306 0.048350889235735
			vertex 7.2307472229004 1.4195120334625 0.066652908921242
		endloop
	endfacet
	facet normal 0.098016798921638 -0.86185547538124 0.49759204845388
		outer loop
			vertex 6.6791000366211 1.4576737880707 0.094999998807907
			vertex 6.4874529838562 1.5295119285583 0.25717848539352
			vertex 6.4874529838562 1.4195120334625 0.066652908921242
		endloop
	endfacet
	facet normal 0.0980171646316 -0.86185524356627 0.49759237793087
		outer loop
			vertex 6.6791000366211 1.4576737880707 0.094999998807907
			vertex 6.7451000213623 1.5373486280441 0.21999999880791
			vertex 6.4874529838562 1.5295119285583 0.25717848539352
		endloop
	endfacet
	facet normal 0.098017413407621 -0.86185407806996 0.49759434761969
		outer loop
			vertex 6.7451000213623 1.5373486280441 0.21999999880791
			vertex 6.8590998649597 1.5612120628357 0.23887647688389
			vertex 6.4874529838562 1.5295119285583 0.25717848539352
		endloop
	endfacet
	facet normal 0.098017863850787 -0.86185495637609 0.49759273762394
		outer loop
			vertex 6.7451000213623 1.5373486280441 0.21999999880791
			vertex 6.8590998649597 1.5503137111664 0.21999999880791
			vertex 6.8590998649597 1.5612120628357 0.23887647688389
		endloop
	endfacet
	facet normal -0.098017457803493 -0.8618549910105 0.49759275762015
		outer loop
			vertex 6.9731001853943 1.5373486280441 0.21999999880791
			vertex 6.8590998649597 1.5612120628357 0.23887647688389
			vertex 6.8590998649597 1.5503137111664 0.21999999880791
		endloop
	endfacet
	facet normal -0.098016798921638 -0.86185547538124 0.49759204845388
		outer loop
			vertex 7.0391001701355 1.4576737880707 0.094999998807907
			vertex 7.2307472229004 1.4195120334625 0.066652908921242
			vertex 7.2307472229004 1.5295119285583 0.25717848539352
		endloop
	endfacet
	facet normal -0.0980171646316 -0.86185524356627 0.49759237793087
		outer loop
			vertex 7.0391001701355 1.4576737880707 0.094999998807907
			vertex 7.2307472229004 1.5295119285583 0.25717848539352
			vertex 6.9731001853943 1.5373486280441 0.21999999880791
		endloop
	endfacet
	facet normal -0.098017288856305 -0.86185466158407 0.49759336148212
		outer loop
			vertex 6.9731001853943 1.5373486280441 0.21999999880791
			vertex 7.2307472229004 1.5295119285583 0.25717848539352
			vertex 6.8590998649597 1.5612120628357 0.23887647688389
		endloop
	endfacet
	facet normal -0.29028479508741 -0.82873479383942 0.4784698310458
		outer loop
			vertex 7.2307472229004 1.4195120334625 0.066652908921242
			vertex 7.5881118774414 1.4356300830841 0.31138122081757
			vertex 7.2307472229004 1.5295119285583 0.25717848539352
		endloop
	endfacet
	facet normal -0.47139641628834 -0.76376653714906 0.44096042389522
		outer loop
			vertex 7.9174613952637 1.2831741571426 0.39940166473389
			vertex 7.5881118774414 1.325630068779 0.12085562944412
			vertex 7.9174613952637 1.1731742620468 0.2088760882616
		endloop
	endfacet
	facet normal -0.290285029971 -0.82873452380883 0.4784701562502
		outer loop
			vertex 7.2307472229004 1.4195120334625 0.066652908921242
			vertex 7.5881118774414 1.325630068779 0.12085562944412
			vertex 7.5881118774414 1.4356300830841 0.31138122081757
		endloop
	endfacet
	facet normal -0.77301094108228 -0.54940014789236 0.31719640991496
		outer loop
			vertex 8.4430494308472 0.82800137996674 0.66219580173492
			vertex 8.2061386108398 0.96800309419632 0.32733169198036
			vertex 8.4430494308472 0.71800136566162 0.4716702401638
		endloop
	endfacet
	facet normal -0.47139661578813 -0.76376625280695 0.44096070312074
		outer loop
			vertex 7.5881118774414 1.325630068779 0.12085562944412
			vertex 7.9174613952637 1.2831741571426 0.39940166473389
			vertex 7.5881118774414 1.4356300830841 0.31138122081757
		endloop
	endfacet
	facet normal -0.63439324755876 -0.66944676099403 0.38650516380308
		outer loop
			vertex 7.9174613952637 1.1731742620468 0.2088760882616
			vertex 8.2061386108398 0.96800309419632 0.32733169198036
			vertex 8.2061386108398 1.0780030488968 0.51785725355148
		endloop
	endfacet
	facet normal -0.63439315304202 -0.66944693194594 0.38650502284132
		outer loop
			vertex 7.9174613952637 1.2831741571426 0.39940166473389
			vertex 7.9174613952637 1.1731742620468 0.2088760882616
			vertex 8.2061386108398 1.0780030488968 0.51785725355148
		endloop
	endfacet
	facet normal -0.77301088545338 -0.54940028101969 0.31719631489989
		outer loop
			vertex 8.4430494308472 0.82800137996674 0.66219580173492
			vertex 8.2061386108398 1.0780030488968 0.51785725355148
			vertex 8.2061386108398 0.96800309419632 0.32733169198036
		endloop
	endfacet
	facet normal 0.88192136393698 -0.40824137608541 0.2356982958857
		outer loop
			vertex 5.1965999603271 0.70073252916336 0.73567456007004
			vertex 5.1965999603271 0.59073251485825 0.54514896869659
			vertex 5.2751502990723 0.71800136566162 0.4716702401638
		endloop
	endfacet
	facet normal 0.88192138380851 -0.40824132792471 0.23569830494841
		outer loop
			vertex 5.1965999603271 0.70073252916336 0.73567456007004
			vertex 5.2751502990723 0.71800136566162 0.4716702401638
			vertex 5.2751502990723 0.82800137996674 0.66219580173492
		endloop
	endfacet
	facet normal 0.77301025929075 -0.54940086735657 0.31719682529793
		outer loop
			vertex 5.2751502990723 0.71800136566162 0.4716702401638
			vertex 5.5120615959167 1.0780030488968 0.51785725355148
			vertex 5.2751502990723 0.82800137996674 0.66219580173492
		endloop
	endfacet
	facet normal -0.88192136393698 -0.40824137608541 0.2356982958857
		outer loop
			vertex 8.5215997695923 0.59073251485825 0.54514896869659
			vertex 8.5215997695923 0.70073252916336 0.73567456007004
			vertex 8.4430494308472 0.71800136566162 0.4716702401638
		endloop
	endfacet
	facet normal -0.88192138380851 -0.40824132792471 0.23569830494841
		outer loop
			vertex 8.4430494308472 0.82800137996674 0.66219580173492
			vertex 8.4430494308472 0.71800136566162 0.4716702401638
			vertex 8.5215997695923 0.70073252916336 0.73567456007004
		endloop
	endfacet
endsolid