solid csg_export
	facet normal -1 0 0
		outer loop
			vertex 0 6.7665581703186 0
			vertex 0 6.546558380127 0
			vertex 0 6.546558380127 0.18062800168991
		endloop
	endfacet
	facet normal -1 0 0
		outer loop
			vertex 0 6.7665581703186 0.21999999880791
			vertex 0 6.546558380127 0.21999999880791
			vertex 0 6.7665581703186 1.009299993515
		endloop
	endfacet
	facet normal 0 -1 0
		outer loop
			vertex 0 6.546558380127 0.21999999880791
			vertex 1.5484999418259 6.546558380127 0.21999999880791
			vertex 0 6.546558380127 1.009299993515
		endloop
	endfacet
	facet normal 0 1 0
		outer loop
			vertex 0 6.7665581703186 0.21999999880791
			vertex 1.56350004673 6.7665581703186 1.009299993515
			vertex 1.5484999418259 6.7665581703186 0.21999999880791
		endloop
	endfacet
	facet normal 0 -1 0
		outer loop
			vertex 1.5484999418259 6.546558380127 0.21999999880791
			vertex 1.7764999866486 6.546558380127 0.21999999880791
			vertex 0 6.546558380127 1.009299993515
		endloop
	endfacet
	facet normal 0 1 0
		outer loop
			vertex 1.5484999418259 6.7665581703186 0.21999999880791
			vertex 1.56350004673 6.7665581703186 1.009299993515
			vertex 1.56350004673 6.7665581703186 0.21999999880791
		endloop
	endfacet
	facet normal -1 0 0
		outer loop
			vertex 0 6.546558380127 0.21999999880791
			vertex 0 6.546558380127 1.009299993515
			vertex 0 6.7665581703186 1.009299993515
		endloop
	endfacet
	facet normal 0 1 0
		outer loop
			vertex 0 6.7665581703186 0.21999999880791
			vertex 0 6.7665581703186 1.009299993515
			vertex 1.56350004673 6.7665581703186 1.009299993515
		endloop
	endfacet
	facet normal 0 0 1
		outer loop
			vertex 0 6.7665581703186 1.009299993515
			vertex 0 6.546558380127 1.009299993515
			vertex 3.3250000476837 6.546558380127 1.009299993515
		endloop
	endfacet
	facet normal -0 0 1
		outer loop
			vertex 0 6.7665581703186 1.009299993515
			vertex 3.3250000476837 6.546558380127 1.009299993515
			vertex 1.56350004673 6.7665581703186 1.009299993515
		endloop
	endfacet
	facet normal 0 1 -0
		outer loop
			vertex 1.8408093452454 6.7665581703186 0.098202094435692
			vertex 1.834370970726 6.7665581703186 0.11039584875107
			vertex 2.9841995239258 6.7665581703186 0.21999999880791
		endloop
	endfacet
	facet normal 0 -1 0
		outer loop
			vertex 0 6.546558380127 1.009299993515
			vertex 1.7764999866486 6.546558380127 0.21999999880791
			vertex 3.3250000476837 6.546558380127 0.21999999880791
		endloop
	endfacet
	facet normal 0 1 0
		outer loop
			vertex 1.7615000009537 6.7665581703186 0.21999999880791
			vertex 1.7615000009537 6.7665581703186 1.009299993515
			vertex 1.7764999866486 6.7665581703186 0.21999999880791
		endloop
	endfacet
	facet normal 0 1 -0
		outer loop
			vertex 1.7764999866486 6.7665581703186 0.21999999880791
			vertex 1.7615000009537 6.7665581703186 1.009299993515
			vertex 2.9841995239258 6.7665581703186 0.21999999880791
		endloop
	endfacet
	facet normal -0 1 0
		outer loop
			vertex 1.8408093452454 6.7665581703186 0.098202094435692
			vertex 2.9841995239258 6.7665581703186 0.21999999880791
			vertex 3.3250000476837 6.7665581703186 0
		endloop
	endfacet
	facet normal 1 0 0
		outer loop
			vertex 3.3250000476837 6.7665581703186 0
			vertex 3.3250000476837 6.5929207801819 0.21269816160202
			vertex 3.3250000476837 6.546558380127 0
		endloop
	endfacet
	facet normal 1 0 0
		outer loop
			vertex 3.3250000476837 6.7665581703186 0
			vertex 3.3250000476837 6.6014552116394 0.21999999880791
			vertex 3.3250000476837 6.5929207801819 0.21269816160202
		endloop
	endfacet
	facet normal 1 0 0
		outer loop
			vertex 3.3250000476837 6.546558380127 0
			vertex 3.3250000476837 6.5929207801819 0.21269816160202
			vertex 3.3250000476837 6.546558380127 0.21999999880791
		endloop
	endfacet
	facet normal 0 1 -0
		outer loop
			vertex 3.3250000476837 6.7665581703186 0
			vertex 2.9841995239258 6.7665581703186 0.21999999880791
			vertex 3.3250000476837 6.7665581703186 1.009299993515
		endloop
	endfacet
	facet normal 1 0 -0
		outer loop
			vertex 3.3250000476837 6.7665581703186 0
			vertex 3.3250000476837 6.7665581703186 1.009299993515
			vertex 3.3250000476837 6.6014552116394 0.21999999880791
		endloop
	endfacet
	facet normal 1 0 -0
		outer loop
			vertex 3.3250000476837 6.6014552116394 0.21999999880791
			vertex 3.3250000476837 6.7665581703186 1.009299993515
			vertex 3.3250000476837 6.594512462616 0.21999999880791
		endloop
	endfacet
	facet normal 1 0 -0
		outer loop
			vertex 3.3250000476837 6.5929207801819 0.21269816160202
			vertex 3.3250000476837 6.594512462616 0.21999999880791
			vertex 3.3250000476837 6.546558380127 1.009299993515
		endloop
	endfacet
	facet normal 1 0 0
		outer loop
			vertex 3.3250000476837 6.5929207801819 0.21269816160202
			vertex 3.3250000476837 6.546558380127 1.009299993515
			vertex 3.3250000476837 6.546558380127 0.21999999880791
		endloop
	endfacet
	facet normal 0 -1 0
		outer loop
			vertex 0 6.546558380127 1.009299993515
			vertex 3.3250000476837 6.546558380127 0.21999999880791
			vertex 3.3250000476837 6.546558380127 1.009299993515
		endloop
	endfacet
	facet normal -0 0 1
		outer loop
			vertex 1.56350004673 6.7665581703186 1.009299993515
			vertex 3.3250000476837 6.546558380127 1.009299993515
			vertex 1.7615000009537 6.7665581703186 1.009299993515
		endloop
	endfacet
	facet normal 0 1 -0
		outer loop
			vertex 2.9841995239258 6.7665581703186 0.21999999880791
			vertex 1.7615000009537 6.7665581703186 1.009299993515
			vertex 3.3250000476837 6.7665581703186 1.009299993515
		endloop
	endfacet
	facet normal 1 0 -0
		outer loop
			vertex 3.3250000476837 6.594512462616 0.21999999880791
			vertex 3.3250000476837 6.7665581703186 1.009299993515
			vertex 3.3250000476837 6.546558380127 1.009299993515
		endloop
	endfacet
	facet normal -0 0 1
		outer loop
			vertex 1.7615000009537 6.7665581703186 1.009299993515
			vertex 3.3250000476837 6.546558380127 1.009299993515
			vertex 3.3250000476837 6.7665581703186 1.009299993515
		endloop
	endfacet
	facet normal 0 0 -1
		outer loop
			vertex 1.4974999427795 6.876558303833 0
			vertex 1.7615000009537 6.7665581703186 0
			vertex 1.56350004673 6.7665581703186 0
		endloop
	endfacet
	facet normal -0.85749284371709 -0.5144958920866 0
		outer loop
			vertex 1.4974999427795 6.876558303833 0
			vertex 1.56350004673 6.7665581703186 0
			vertex 1.4974999427795 6.876558303833 1.009299993515
		endloop
	endfacet
	facet normal -0.85749284371709 -0.5144958920866 0
		outer loop
			vertex 1.56350004673 6.7665581703186 0
			vertex 1.56350004673 6.7665581703186 0.094999998807907
			vertex 1.4974999427795 6.876558303833 1.009299993515
		endloop
	endfacet
	facet normal -0.85749284371709 -0.5144958920866 0
		outer loop
			vertex 1.56350004673 6.7665581703186 0.094999998807907
			vertex 1.56350004673 6.7665581703186 0.21999999880791
			vertex 1.4974999427795 6.876558303833 1.009299993515
		endloop
	endfacet
	facet normal 0 1 0
		outer loop
			vertex 1.4974999427795 6.876558303833 0
			vertex 1.4974999427795 6.876558303833 1.009299993515
			vertex 1.8274999856949 6.876558303833 1.009299993515
		endloop
	endfacet
	facet normal -0.85749284371709 -0.5144958920866 0
		outer loop
			vertex 1.56350004673 6.7665581703186 0.21999999880791
			vertex 1.56350004673 6.7665581703186 1.009299993515
			vertex 1.4974999427795 6.876558303833 1.009299993515
		endloop
	endfacet
	facet normal 0 0 1
		outer loop
			vertex 1.4974999427795 6.876558303833 1.009299993515
			vertex 1.56350004673 6.7665581703186 1.009299993515
			vertex 1.7615000009537 6.7665581703186 1.009299993515
		endloop
	endfacet
	facet normal 0 0 -1
		outer loop
			vertex 1.4974999427795 6.876558303833 0
			vertex 1.8274999856949 6.876558303833 0
			vertex 1.7615000009537 6.7665581703186 0
		endloop
	endfacet
	facet normal 0.85749325369431 -0.51449520879086 0
		outer loop
			vertex 1.7615000009537 6.7665581703186 0
			vertex 1.8274999856949 6.876558303833 0
			vertex 1.7615000009537 6.7665581703186 0.094999998807907
		endloop
	endfacet
	facet normal 0.85749325369431 -0.51449520879086 0
		outer loop
			vertex 1.8274999856949 6.876558303833 0
			vertex 1.7615000009537 6.7665581703186 0.21999999880791
			vertex 1.7615000009537 6.7665581703186 0.094999998807907
		endloop
	endfacet
	facet normal 0 1 0
		outer loop
			vertex 1.4974999427795 6.876558303833 0
			vertex 1.8274999856949 6.876558303833 1.009299993515
			vertex 1.8274999856949 6.876558303833 0
		endloop
	endfacet
	facet normal 0.85749325369431 -0.51449520879086 0
		outer loop
			vertex 1.8274999856949 6.876558303833 0
			vertex 1.7615000009537 6.7665581703186 1.009299993515
			vertex 1.7615000009537 6.7665581703186 0.21999999880791
		endloop
	endfacet
	facet normal 0.85749325369431 -0.51449520879086 0
		outer loop
			vertex 1.8274999856949 6.876558303833 0
			vertex 1.8274999856949 6.876558303833 1.009299993515
			vertex 1.7615000009537 6.7665581703186 1.009299993515
		endloop
	endfacet
	facet normal -0 0 1
		outer loop
			vertex 1.4974999427795 6.876558303833 1.009299993515
			vertex 1.7615000009537 6.7665581703186 1.009299993515
			vertex 1.8274999856949 6.876558303833 1.009299993515
		endloop
	endfacet
	facet normal -1 0 0
		outer loop
			vertex 0 6.7665581703186 0
			vertex 0 6.546558380127 0.18062800168991
			vertex 0 6.7665581703186 0.21999999880791
		endloop
	endfacet
	facet normal -1 0 0
		outer loop
			vertex 0 6.546558380127 0.18062800168991
			vertex 0 6.546558380127 0.21999999880791
			vertex 0 6.7665581703186 0.21999999880791
		endloop
	endfacet
	facet normal 0 0 -1
		outer loop
			vertex 0 6.7665581703186 0
			vertex 1.56350004673 6.7665581703186 0
			vertex 0 6.546558380127 0
		endloop
	endfacet
	facet normal 0 1 0
		outer loop
			vertex 0 6.7665581703186 0
			vertex 0 6.7665581703186 0.21999999880791
			vertex 1.4824999570847 6.7665581703186 0.094999998807907
		endloop
	endfacet
	facet normal -1 0 0
		outer loop
			vertex 0 6.546558380127 0
			vertex 0 1.6449582576752 0.19052559137344
			vertex 0 6.546558380127 0.18062800168991
		endloop
	endfacet
	facet normal -1 0 0
		outer loop
			vertex 0 6.546558380127 0.18062800168991
			vertex 0 1.5939069986343 0.21999999880791
			vertex 0 6.546558380127 0.21999999880791
		endloop
	endfacet
	facet normal -0 0 1
		outer loop
			vertex 0 6.546558380127 0.21999999880791
			vertex 0 1.5939069986343 0.21999999880791
			vertex 1.5484999418259 6.546558380127 0.21999999880791
		endloop
	endfacet
	facet normal 0 1 0
		outer loop
			vertex 0 6.7665581703186 0
			vertex 1.4824999570847 6.7665581703186 0.094999998807907
			vertex 1.56350004673 6.7665581703186 0
		endloop
	endfacet
	facet normal 0 0 -1
		outer loop
			vertex 0 6.546558380127 0
			vertex 1.56350004673 6.7665581703186 0
			vertex 1.7615000009537 6.7665581703186 0
		endloop
	endfacet
	facet normal -0 1 0
		outer loop
			vertex 0 6.7665581703186 0.21999999880791
			vertex 1.5484999418259 6.7665581703186 0.21999999880791
			vertex 1.4824999570847 6.7665581703186 0.094999998807907
		endloop
	endfacet
	facet normal 0 1 -0
		outer loop
			vertex 1.56350004673 6.7665581703186 0
			vertex 1.4824999570847 6.7665581703186 0.094999998807907
			vertex 1.56350004673 6.7665581703186 0.094999998807907
		endloop
	endfacet
	facet normal 0 0 -1
		outer loop
			vertex 0 6.546558380127 0
			vertex 3.3250000476837 6.7665581703186 0
			vertex 0 1.5349582433701 0
		endloop
	endfacet
	facet normal -1 0 0
		outer loop
			vertex 0 6.546558380127 0
			vertex 0 1.5349582433701 0
			vertex 0 1.6449582576752 0.19052559137344
		endloop
	endfacet
	facet normal -1 0 0
		outer loop
			vertex 0 6.546558380127 0.18062800168991
			vertex 0 1.6449582576752 0.19052559137344
			vertex 0 1.5939069986343 0.21999999880791
		endloop
	endfacet
	facet normal 0 0 1
		outer loop
			vertex 1.5484999418259 6.546558380127 0.21999999880791
			vertex 0 1.5939069986343 0.21999999880791
			vertex 1.5484999418259 1.5939069986343 0.21999999880791
		endloop
	endfacet
	facet normal 0 0 -1
		outer loop
			vertex 0 6.546558380127 0
			vertex 1.7615000009537 6.7665581703186 0
			vertex 3.3250000476837 6.7665581703186 0
		endloop
	endfacet
	facet normal 0 1 0
		outer loop
			vertex 1.7615000009537 6.7665581703186 0
			vertex 1.7615000009537 6.7665581703186 0.094999998807907
			vertex 1.8424999713898 6.7665581703186 0.094999998807907
		endloop
	endfacet
	facet normal 0 1 0
		outer loop
			vertex 1.7615000009537 6.7665581703186 0
			vertex 1.8424999713898 6.7665581703186 0.094999998807907
			vertex 3.3250000476837 6.7665581703186 0
		endloop
	endfacet
	facet normal -0 1 -0
		outer loop
			vertex 1.8424999713898 6.7665581703186 0.094999998807907
			vertex 1.8408093452454 6.7665581703186 0.098202094435692
			vertex 3.3250000476837 6.7665581703186 0
		endloop
	endfacet
	facet normal 0 1 -0
		outer loop
			vertex 1.834370970726 6.7665581703186 0.11039584875107
			vertex 1.7764999866486 6.7665581703186 0.21999999880791
			vertex 2.9841995239258 6.7665581703186 0.21999999880791
		endloop
	endfacet
	facet normal 0 0 -1
		outer loop
			vertex 0 1.5349582433701 0
			vertex 3.3250000476837 6.7665581703186 0
			vertex 3.3250000476837 6.546558380127 0
		endloop
	endfacet
	facet normal -0 0 1
		outer loop
			vertex 1.7764999866486 6.546558380127 0.21999999880791
			vertex 1.7764999866486 1.5939069986343 0.21999999880791
			vertex 3.3250000476837 6.546558380127 0.21999999880791
		endloop
	endfacet
	facet normal 1 0 0
		outer loop
			vertex 3.3250000476837 6.5929207801819 0.21269816160202
			vertex 3.3250000476837 6.6014552116394 0.21999999880791
			vertex 3.3250000476837 6.594512462616 0.21999999880791
		endloop
	endfacet
	facet normal 1 0 -0
		outer loop
			vertex 3.3250000476837 6.546558380127 0
			vertex 3.3250000476837 6.546558380127 0.21999999880791
			vertex 3.3250000476837 1.6449582576752 0.19052559137344
		endloop
	endfacet
	facet normal 0 0 -1
		outer loop
			vertex 0 1.5349582433701 0
			vertex 3.3250000476837 6.546558380127 0
			vertex 3.3250000476837 1.5349582433701 0
		endloop
	endfacet
	facet normal 0 0 1
		outer loop
			vertex 3.3250000476837 6.546558380127 0.21999999880791
			vertex 1.7764999866486 1.5939069986343 0.21999999880791
			vertex 3.3250000476837 1.5939069986343 0.21999999880791
		endloop
	endfacet
	facet normal 1 0 0
		outer loop
			vertex 3.3250000476837 6.546558380127 0
			vertex 3.3250000476837 1.6449582576752 0.19052559137344
			vertex 3.3250000476837 1.5349582433701 0
		endloop
	endfacet
	facet normal 1 0 0
		outer loop
			vertex 3.3250000476837 6.546558380127 0.21999999880791
			vertex 3.3250000476837 1.5939069986343 0.21999999880791
			vertex 3.3250000476837 1.6449582576752 0.19052559137344
		endloop
	endfacet
	facet normal 1 0 0
		outer loop
			vertex 3.3250000476837 1.5349582433701 0
			vertex 3.3250000476837 1.6449582576752 0.19052559137344
			vertex 3.3250000476837 1.5733925104141 0.21999999880791
		endloop
	endfacet
	facet normal 1 0 0
		outer loop
			vertex 3.3250000476837 1.5349582433701 0
			vertex 3.3250000476837 1.5733925104141 0.21999999880791
			vertex 3.3250000476837 1.5349582433701 0.21999999880791
		endloop
	endfacet
	facet normal -1 0 0
		outer loop
			vertex 0 1.5349582433701 0
			vertex 0 1.5939069986343 0.21999999880791
			vertex 0 1.6449582576752 0.19052559137344
		endloop
	endfacet
	facet normal 4.1866904763295e-08 -0.49999996418297 -0.86602542446341
		outer loop
			vertex 0 1.5349582433701 0
			vertex 0.60413873195648 1.1731742620468 0.2088760882616
			vertex 0.31546157598495 0.96800309419632 0.32733169198036
		endloop
	endfacet
	facet normal 3.9399593784174e-08 -0.49999971771969 -0.86602556675899
		outer loop
			vertex 0 1.5349582433701 0
			vertex 1.2908529043198 1.4195120334625 0.066652908921242
			vertex 0.93348807096481 1.325630068779 0.12085562944412
		endloop
	endfacet
	facet normal -7.9880068720752e-08 -0.50000011666082 -0.86602533643027
		outer loop
			vertex 0 1.5349582433701 0
			vertex 0.93348807096481 1.325630068779 0.12085562944412
			vertex 0.60413873195648 1.1731742620468 0.2088760882616
		endloop
	endfacet
	facet normal 2.3083892145201e-08 -0.49999997202131 -0.86602541993794
		outer loop
			vertex 0 1.5349582433701 0
			vertex 0.31546157598495 0.96800309419632 0.32733169198036
			vertex 0.078550390899181 0.71800136566162 0.4716702401638
		endloop
	endfacet
	facet normal -1 0 0
		outer loop
			vertex 0 1.5349582433701 0
			vertex 0 0.70073252916336 0.73567456007004
			vertex 0 1.5939069986343 0.21999999880791
		endloop
	endfacet
	facet normal -2.7108165258376e-07 -0.49999999323431 -0.86602540769057
		outer loop
			vertex 0 1.5349582433701 0
			vertex 0.078550390899181 0.71800136566162 0.4716702401638
			vertex 0 0.59073251485825 0.54514896869659
		endloop
	endfacet
	facet normal -1 0 0
		outer loop
			vertex 0 1.5349582433701 0
			vertex 0 0.59073251485825 0.54514896869659
			vertex 0 0.70073252916336 0.73567456007004
		endloop
	endfacet
	facet normal 7.027797451246e-08 0.49999999507271 0.86602540662921
		outer loop
			vertex 0 1.5939069986343 0.21999999880791
			vertex 0.078550390899181 0.82800137996674 0.66219580173492
			vertex 0.31546157598495 1.0780030488968 0.51785725355148
		endloop
	endfacet
	facet normal 1.2503484668181e-08 0.49999996857703 0.8660254219265
		outer loop
			vertex 0 1.5939069986343 0.21999999880791
			vertex 0.31546157598495 1.0780030488968 0.51785725355148
			vertex 0.60413873195648 1.2831741571426 0.39940166473389
		endloop
	endfacet
	facet normal -1.9804974799221e-08 0.49999992146552 0.86602544912634
		outer loop
			vertex 0 1.5939069986343 0.21999999880791
			vertex 0.60413873195648 1.2831741571426 0.39940166473389
			vertex 0.93348807096481 1.4356300830841 0.31138122081757
		endloop
	endfacet
	facet normal 2.4103005394905e-08 0.5000001156864 0.86602533699286
		outer loop
			vertex 0 1.5939069986343 0.21999999880791
			vertex 0.93348807096481 1.4356300830841 0.31138122081757
			vertex 1.2908529043198 1.5295119285583 0.25717848539352
		endloop
	endfacet
	facet normal -6.0873304001554e-09 -0.5000000991761 -0.86602534652508
		outer loop
			vertex 0 1.5349582433701 0
			vertex 1.6625000238419 1.4512120485306 0.048350889235735
			vertex 1.2908529043198 1.4195120334625 0.066652908921242
		endloop
	endfacet
	facet normal -0 0.49999975331268 0.86602554620938
		outer loop
			vertex 0 1.5939069986343 0.21999999880791
			vertex 1.2908529043198 1.5295119285583 0.25717848539352
			vertex 1.5484999418259 1.5939069986343 0.21999999880791
		endloop
	endfacet
	facet normal -2.1404985884844e-07 0.50000039562875 0.86602517536793
		outer loop
			vertex 1.5484999418259 1.5939069986343 0.21999999880791
			vertex 1.2908529043198 1.5295119285583 0.25717848539352
			vertex 1.6625000238419 1.5612120628357 0.23887647688389
		endloop
	endfacet
	facet normal 5.2081828616139e-07 0.50000002972781 0.86602538662092
		outer loop
			vertex 0 1.5939069986343 0.21999999880791
			vertex 0 0.70073252916336 0.73567456007004
			vertex 0.078550390899181 0.82800137996674 0.66219580173492
		endloop
	endfacet
	facet normal 0 -0.50000000854345 -0.86602539885188
		outer loop
			vertex 0 1.5349582433701 0
			vertex 3.3250000476837 1.5349582433701 0
			vertex 1.6625000238419 1.4512120485306 0.048350889235735
		endloop
	endfacet
	facet normal -0 0.50000095538689 0.86602485219086
		outer loop
			vertex 1.5484999418259 1.5939069986343 0.21999999880791
			vertex 1.6625000238419 1.5612120628357 0.23887647688389
			vertex 1.7764999866486 1.5939069986343 0.21999999880791
		endloop
	endfacet
	facet normal 2.1404996307762e-07 0.50000039562906 0.86602517536775
		outer loop
			vertex 1.7764999866486 1.5939069986343 0.21999999880791
			vertex 1.6625000238419 1.5612120628357 0.23887647688389
			vertex 2.0341470241547 1.5295119285583 0.25717848539352
		endloop
	endfacet
	facet normal 6.0873311251369e-09 -0.50000009917611 -0.86602534652507
		outer loop
			vertex 3.3250000476837 1.5349582433701 0
			vertex 2.0341470241547 1.4195120334625 0.066652908921242
			vertex 1.6625000238419 1.4512120485306 0.048350889235735
		endloop
	endfacet
	facet normal -0 0.49999975331268 0.86602554620938
		outer loop
			vertex 1.7764999866486 1.5939069986343 0.21999999880791
			vertex 2.0341470241547 1.5295119285583 0.25717848539352
			vertex 3.3250000476837 1.5939069986343 0.21999999880791
		endloop
	endfacet
	facet normal -3.9399589400772e-08 -0.49999971771969 -0.86602556675899
		outer loop
			vertex 3.3250000476837 1.5349582433701 0
			vertex 2.3915119171143 1.325630068779 0.12085562944412
			vertex 2.0341470241547 1.4195120334625 0.066652908921242
		endloop
	endfacet
	facet normal 7.9880070002512e-08 -0.50000011666084 -0.86602533643026
		outer loop
			vertex 3.3250000476837 1.5349582433701 0
			vertex 2.7208611965179 1.1731742620468 0.2088760882616
			vertex 2.3915119171143 1.325630068779 0.12085562944412
		endloop
	endfacet
	facet normal 1 0 0
		outer loop
			vertex 3.3250000476837 1.6449582576752 0.19052559137344
			vertex 3.3250000476837 1.5939069986343 0.21999999880791
			vertex 3.3250000476837 1.5733925104141 0.21999999880791
		endloop
	endfacet
	facet normal -4.1866896326821e-08 -0.49999996418297 -0.86602542446341
		outer loop
			vertex 3.3250000476837 1.5349582433701 0
			vertex 3.0095384120941 0.96800309419632 0.32733169198036
			vertex 2.7208611965179 1.1731742620468 0.2088760882616
		endloop
	endfacet
	facet normal -2.4103002882674e-08 0.50000011568639 0.86602533699286
		outer loop
			vertex 3.3250000476837 1.5939069986343 0.21999999880791
			vertex 2.0341470241547 1.5295119285583 0.25717848539352
			vertex 2.3915119171143 1.4356300830841 0.31138122081757
		endloop
	endfacet
	facet normal 1.980497483456e-08 0.49999992146551 0.86602544912634
		outer loop
			vertex 3.3250000476837 1.5939069986343 0.21999999880791
			vertex 2.3915119171143 1.4356300830841 0.31138122081757
			vertex 2.7208611965179 1.2831741571426 0.39940166473389
		endloop
	endfacet
	facet normal -2.3083883670717e-08 -0.49999997202132 -0.86602541993794
		outer loop
			vertex 3.3250000476837 1.5349582433701 0
			vertex 3.2464497089386 0.71800136566162 0.4716702401638
			vertex 3.0095384120941 0.96800309419632 0.32733169198036
		endloop
	endfacet
	facet normal 1 0 -0
		outer loop
			vertex 3.3250000476837 1.5349582433701 0
			vertex 3.3250000476837 1.5349582433701 0.21999999880791
			vertex 3.3250000476837 0.59073251485825 0.54514896869659
		endloop
	endfacet
	facet normal 1 0 0
		outer loop
			vertex 3.3250000476837 1.5733925104141 0.21999999880791
			vertex 3.3250000476837 0.59073251485825 0.54514896869659
			vertex 3.3250000476837 1.5349582433701 0.21999999880791
		endloop
	endfacet
	facet normal 2.7108183257038e-07 -0.49999999323431 -0.86602540769057
		outer loop
			vertex 3.3250000476837 1.5349582433701 0
			vertex 3.3250000476837 0.59073251485825 0.54514896869659
			vertex 3.2464497089386 0.71800136566162 0.4716702401638
		endloop
	endfacet
	facet normal -1.2503482152926e-08 0.49999996857703 0.8660254219265
		outer loop
			vertex 3.3250000476837 1.5939069986343 0.21999999880791
			vertex 2.7208611965179 1.2831741571426 0.39940166473389
			vertex 3.0095384120941 1.0780030488968 0.51785725355148
		endloop
	endfacet
	facet normal 1 0 0
		outer loop
			vertex 3.3250000476837 1.5939069986343 0.21999999880791
			vertex 3.3250000476837 0.70073252916336 0.73567456007004
			vertex 3.3250000476837 1.5733925104141 0.21999999880791
		endloop
	endfacet
	facet normal -7.0277949154434e-08 0.4999999950727 0.86602540662921
		outer loop
			vertex 3.3250000476837 1.5939069986343 0.21999999880791
			vertex 3.0095384120941 1.0780030488968 0.51785725355148
			vertex 3.2464497089386 0.82800137996674 0.66219580173492
		endloop
	endfacet
	facet normal 1 0 0
		outer loop
			vertex 3.3250000476837 1.5733925104141 0.21999999880791
			vertex 3.3250000476837 0.70073252916336 0.73567456007004
			vertex 3.3250000476837 0.59073251485825 0.54514896869659
		endloop
	endfacet
	facet normal -5.2081863196245e-07 0.50000002972781 0.86602538662092
		outer loop
			vertex 3.3250000476837 1.5939069986343 0.21999999880791
			vertex 3.2464497089386 0.82800137996674 0.66219580173492
			vertex 3.3250000476837 0.70073252916336 0.73567456007004
		endloop
	endfacet
	facet normal 0.88430366508141 0 -0.46691222721576
		outer loop
			vertex 1.4824999570847 6.7665581703186 0.094999998807907
			vertex 1.5484999418259 6.7665581703186 0.21999999880791
			vertex 1.5484999418259 6.546558380127 0.21999999880791
		endloop
	endfacet
	facet normal 0 -1 0
		outer loop
			vertex 1.56350004673 6.7665581703186 0.094999998807907
			vertex 1.7615000009537 6.7665581703186 0.094999998807907
			vertex 1.56350004673 6.7665581703186 0.21999999880791
		endloop
	endfacet
	facet normal 0 0 -1
		outer loop
			vertex 1.5484999418259 6.7665581703186 0.21999999880791
			vertex 1.56350004673 6.7665581703186 0.21999999880791
			vertex 1.7764999866486 6.546558380127 0.21999999880791
		endloop
	endfacet
	facet normal 0 0 -1
		outer loop
			vertex 1.5484999418259 6.7665581703186 0.21999999880791
			vertex 1.7764999866486 6.546558380127 0.21999999880791
			vertex 1.5484999418259 6.546558380127 0.21999999880791
		endloop
	endfacet
	facet normal -0 0 1
		outer loop
			vertex 1.4824999570847 6.7665581703186 0.094999998807907
			vertex 1.6625000238419 1.4781448841095 0.094999998807907
			vertex 1.56350004673 6.7665581703186 0.094999998807907
		endloop
	endfacet
	facet normal 0.88430366508141 0 -0.46691222721576
		outer loop
			vertex 1.4824999570847 6.7665581703186 0.094999998807907
			vertex 1.5484999418259 6.546558380127 0.21999999880791
			vertex 1.5484999418259 1.5939069986343 0.21999999880791
		endloop
	endfacet
	facet normal 0 0 1
		outer loop
			vertex 1.4824999570847 6.7665581703186 0.094999998807907
			vertex 1.4824999570847 1.4576737880707 0.094999998807907
			vertex 1.6625000238419 1.4781448841095 0.094999998807907
		endloop
	endfacet
	facet normal 0.88430366508141 0 -0.46691222721576
		outer loop
			vertex 1.4824999570847 6.7665581703186 0.094999998807907
			vertex 1.5484999418259 1.5939069986343 0.21999999880791
			vertex 1.4824999570847 1.4576737880707 0.094999998807907
		endloop
	endfacet
	facet normal 0.88430366508141 0 -0.46691222721576
		outer loop
			vertex 1.5484999418259 1.5939069986343 0.21999999880791
			vertex 1.5484999418259 1.5373486280441 0.21999999880791
			vertex 1.4824999570847 1.4576737880707 0.094999998807907
		endloop
	endfacet
	facet normal 0 0 -1
		outer loop
			vertex 1.5484999418259 1.5939069986343 0.21999999880791
			vertex 1.6625000238419 1.5503137111664 0.21999999880791
			vertex 1.5484999418259 1.5373486280441 0.21999999880791
		endloop
	endfacet
	facet normal 0 -1 0
		outer loop
			vertex 1.56350004673 6.7665581703186 0.21999999880791
			vertex 1.7615000009537 6.7665581703186 0.094999998807907
			vertex 1.7615000009537 6.7665581703186 0.21999999880791
		endloop
	endfacet
	facet normal -0.88430364433801 0 -0.46691226650251
		outer loop
			vertex 1.834370970726 6.7665581703186 0.11039584875107
			vertex 1.7764999866486 6.546558380127 0.21999999880791
			vertex 1.7764999866486 6.7665581703186 0.21999999880791
		endloop
	endfacet
	facet normal 0 0 -1
		outer loop
			vertex 1.56350004673 6.7665581703186 0.21999999880791
			vertex 1.7615000009537 6.7665581703186 0.21999999880791
			vertex 1.7764999866486 6.546558380127 0.21999999880791
		endloop
	endfacet
	facet normal 0 0 -1
		outer loop
			vertex 1.7615000009537 6.7665581703186 0.21999999880791
			vertex 1.7764999866486 6.7665581703186 0.21999999880791
			vertex 1.7764999866486 6.546558380127 0.21999999880791
		endloop
	endfacet
	facet normal -0 0 1
		outer loop
			vertex 1.56350004673 6.7665581703186 0.094999998807907
			vertex 1.6625000238419 1.4781448841095 0.094999998807907
			vertex 1.7615000009537 6.7665581703186 0.094999998807907
		endloop
	endfacet
	facet normal -0 0 1
		outer loop
			vertex 1.7615000009537 6.7665581703186 0.094999998807907
			vertex 1.6625000238419 1.4781448841095 0.094999998807907
			vertex 1.8424999713898 6.7665581703186 0.094999998807907
		endloop
	endfacet
	facet normal -0.88430145737268 -1.1101821151625e-07 -0.46691640845931
		outer loop
			vertex 1.8408093452454 6.7665581703186 0.098202094435692
			vertex 1.7764999866486 1.5373486280441 0.21999999880791
			vertex 1.834370970726 6.7665581703186 0.11039584875107
		endloop
	endfacet
	facet normal -0.88431278208823 5.2783430412497e-07 -0.46689495974481
		outer loop
			vertex 1.8424999713898 6.7665581703186 0.094999998807907
			vertex 1.7764999866486 1.5373486280441 0.21999999880791
			vertex 1.8408093452454 6.7665581703186 0.098202094435692
		endloop
	endfacet
	facet normal -0.88430364433801 0 -0.46691226650251
		outer loop
			vertex 1.834370970726 6.7665581703186 0.11039584875107
			vertex 1.7764999866486 1.5939069986343 0.21999999880791
			vertex 1.7764999866486 6.546558380127 0.21999999880791
		endloop
	endfacet
	facet normal 0 0 1
		outer loop
			vertex 1.8424999713898 6.7665581703186 0.094999998807907
			vertex 1.6625000238419 1.4781448841095 0.094999998807907
			vertex 1.8424999713898 1.4576737880707 0.094999998807907
		endloop
	endfacet
	facet normal -0.88430366508141 -0 -0.46691222721576
		outer loop
			vertex 1.8424999713898 6.7665581703186 0.094999998807907
			vertex 1.8424999713898 1.4576737880707 0.094999998807907
			vertex 1.7764999866486 1.5373486280441 0.21999999880791
		endloop
	endfacet
	facet normal -0.88430364433801 0 -0.46691226650251
		outer loop
			vertex 1.834370970726 6.7665581703186 0.11039584875107
			vertex 1.7764999866486 1.5373486280441 0.21999999880791
			vertex 1.7764999866486 1.5939069986343 0.21999999880791
		endloop
	endfacet
	facet normal 0 0 -1
		outer loop
			vertex 1.5484999418259 1.5939069986343 0.21999999880791
			vertex 1.7764999866486 1.5939069986343 0.21999999880791
			vertex 1.6625000238419 1.5503137111664 0.21999999880791
		endloop
	endfacet
	facet normal 0 -0 -1
		outer loop
			vertex 1.7764999866486 1.5939069986343 0.21999999880791
			vertex 1.7764999866486 1.5373486280441 0.21999999880791
			vertex 1.6625000238419 1.5503137111664 0.21999999880791
		endloop
	endfacet
	facet normal 0.47139661535142 -0.7637662530091 0.44096070323745
		outer loop
			vertex 0.93348807096481 1.325630068779 0.12085562944412
			vertex 0.93348807096481 1.4356300830841 0.31138122081757
			vertex 0.60413873195648 1.1731742620468 0.2088760882616
		endloop
	endfacet
	facet normal 0.63439323131234 -0.66944677254083 0.38650517046962
		outer loop
			vertex 0.31546157598495 0.96800309419632 0.32733169198036
			vertex 0.60413873195648 1.2831741571426 0.39940166473389
			vertex 0.31546157598495 1.0780030488968 0.51785725355148
		endloop
	endfacet
	facet normal 0.77301046167656 -0.54940072821265 0.31719657308679
		outer loop
			vertex 0.078550390899181 0.71800136566162 0.4716702401638
			vertex 0.31546157598495 0.96800309419632 0.32733169198036
			vertex 0.31546157598495 1.0780030488968 0.51785725355148
		endloop
	endfacet
	facet normal 0.63439332582904 -0.66944680914124 0.38650495194006
		outer loop
			vertex 0.31546157598495 0.96800309419632 0.32733169198036
			vertex 0.60413873195648 1.1731742620468 0.2088760882616
			vertex 0.60413873195648 1.2831741571426 0.39940166473389
		endloop
	endfacet
	facet normal 0.47139681485116 -0.76376635265426 0.44096031737719
		outer loop
			vertex 0.93348807096481 1.4356300830841 0.31138122081757
			vertex 0.60413873195648 1.2831741571426 0.39940166473389
			vertex 0.60413873195648 1.1731742620468 0.2088760882616
		endloop
	endfacet
	facet normal 0.29028489696117 -0.82873476707656 0.47846981559427
		outer loop
			vertex 0.93348807096481 1.325630068779 0.12085562944412
			vertex 1.2908529043198 1.4195120334625 0.066652908921242
			vertex 1.2908529043198 1.5295119285583 0.25717848539352
		endloop
	endfacet
	facet normal 0.29028466207768 -0.82873462045664 0.47847021204985
		outer loop
			vertex 0.93348807096481 1.325630068779 0.12085562944412
			vertex 1.2908529043198 1.5295119285583 0.25717848539352
			vertex 0.93348807096481 1.4356300830841 0.31138122081757
		endloop
	endfacet
	facet normal 0.09801750195633 -0.86185697444131 0.49758931350774
		outer loop
			vertex 1.4824999570847 1.4576737880707 0.094999998807907
			vertex 1.2908529043198 1.4195120334625 0.066652908921242
			vertex 1.6625000238419 1.4781448841095 0.094999998807907
		endloop
	endfacet
	facet normal 0.098017092159592 -0.8618555819865 0.49759180604516
		outer loop
			vertex 1.2908529043198 1.4195120334625 0.066652908921242
			vertex 1.6625000238419 1.4512120485306 0.048350889235735
			vertex 1.6625000238419 1.4781448841095 0.094999998807907
		endloop
	endfacet
	facet normal 0.098016798921638 -0.86185547538124 0.49759204845388
		outer loop
			vertex 1.4824999570847 1.4576737880707 0.094999998807907
			vertex 1.2908529043198 1.5295119285583 0.25717848539352
			vertex 1.2908529043198 1.4195120334625 0.066652908921242
		endloop
	endfacet
	facet normal 0.0980171646316 -0.86185524356627 0.49759237793087
		outer loop
			vertex 1.4824999570847 1.4576737880707 0.094999998807907
			vertex 1.5484999418259 1.5373486280441 0.21999999880791
			vertex 1.2908529043198 1.5295119285583 0.25717848539352
		endloop
	endfacet
	facet normal 0.09801735113194 -0.86185436982734 0.49759385455067
		outer loop
			vertex 1.5484999418259 1.5373486280441 0.21999999880791
			vertex 1.6625000238419 1.5612120628357 0.23887647688389
			vertex 1.2908529043198 1.5295119285583 0.25717848539352
		endloop
	endfacet
	facet normal 0.098017660826721 -0.86185497369335 0.49759274762208
		outer loop
			vertex 1.5484999418259 1.5373486280441 0.21999999880791
			vertex 1.6625000238419 1.5503137111664 0.21999999880791
			vertex 1.6625000238419 1.5612120628357 0.23887647688389
		endloop
	endfacet
	facet normal 0.7730104060476 -0.54940071249075 0.31719673588608
		outer loop
			vertex 0.078550390899181 0.71800136566162 0.4716702401638
			vertex 0.31546157598495 1.0780030488968 0.51785725355148
			vertex 0.078550390899181 0.82800137996674 0.66219580173492
		endloop
	endfacet
	facet normal 0.88192123381736 -0.40824158690781 0.23569841760408
		outer loop
			vertex 0 0.70073252916336 0.73567456007004
			vertex 0 0.59073251485825 0.54514896869659
			vertex 0.078550390899181 0.71800136566162 0.4716702401638
		endloop
	endfacet
	facet normal 0.8819212536889 -0.40824153874709 0.2356984266668
		outer loop
			vertex 0 0.70073252916336 0.73567456007004
			vertex 0.078550390899181 0.71800136566162 0.4716702401638
			vertex 0.078550390899181 0.82800137996674 0.66219580173492
		endloop
	endfacet
	facet normal -0.098017405469899 -0.86185555526233 0.49759179061597
		outer loop
			vertex 1.8424999713898 1.4576737880707 0.094999998807907
			vertex 1.6625000238419 1.4781448841095 0.094999998807907
			vertex 1.6625000238419 1.4512120485306 0.048350889235735
		endloop
	endfacet
	facet normal -0.098017123297285 -0.86185616703866 0.49759078656859
		outer loop
			vertex 1.8424999713898 1.4576737880707 0.094999998807907
			vertex 1.6625000238419 1.4512120485306 0.048350889235735
			vertex 2.0341470241547 1.4195120334625 0.066652908921242
		endloop
	endfacet
	facet normal -0.09801776233865 -0.86185496503474 0.49759274262302
		outer loop
			vertex 1.7764999866486 1.5373486280441 0.21999999880791
			vertex 1.6625000238419 1.5612120628357 0.23887647688389
			vertex 1.6625000238419 1.5503137111664 0.21999999880791
		endloop
	endfacet
	facet normal -0.098017382269774 -0.86185422394873 0.49759410108512
		outer loop
			vertex 1.7764999866486 1.5373486280441 0.21999999880791
			vertex 2.0341470241547 1.5295119285583 0.25717848539352
			vertex 1.6625000238419 1.5612120628357 0.23887647688389
		endloop
	endfacet
	facet normal -0.098016798921638 -0.86185547538124 0.49759204845388
		outer loop
			vertex 1.8424999713898 1.4576737880707 0.094999998807907
			vertex 2.0341470241547 1.4195120334625 0.066652908921242
			vertex 2.0341470241547 1.5295119285583 0.25717848539352
		endloop
	endfacet
	facet normal -0.0980171646316 -0.86185524356627 0.49759237793087
		outer loop
			vertex 1.8424999713898 1.4576737880707 0.094999998807907
			vertex 2.0341470241547 1.5295119285583 0.25717848539352
			vertex 1.7764999866486 1.5373486280441 0.21999999880791
		endloop
	endfacet
	facet normal -0.29028485262454 -0.82873457039884 0.47847018314896
		outer loop
			vertex 2.0341470241547 1.4195120334625 0.066652908921242
			vertex 2.3915119171143 1.325630068779 0.12085562944412
			vertex 2.3915119171143 1.4356300830841 0.31138122081757
		endloop
	endfacet
	facet normal -0.29028461774107 -0.82873484042937 0.4784698579445
		outer loop
			vertex 2.0341470241547 1.4195120334625 0.066652908921242
			vertex 2.3915119171143 1.4356300830841 0.31138122081757
			vertex 2.0341470241547 1.5295119285583 0.25717848539352
		endloop
	endfacet
	facet normal -0.47139668170571 -0.76376641428733 0.44096035296103
		outer loop
			vertex 2.7208611965179 1.2831741571426 0.39940166473389
			vertex 2.3915119171143 1.325630068779 0.12085562944412
			vertex 2.7208611965179 1.1731742620468 0.2088760882616
		endloop
	endfacet
	facet normal -0.47139688120555 -0.76376612994516 0.44096063218645
		outer loop
			vertex 2.3915119171143 1.325630068779 0.12085562944412
			vertex 2.7208611965179 1.2831741571426 0.39940166473389
			vertex 2.3915119171143 1.4356300830841 0.31138122081757
		endloop
	endfacet
	facet normal -0.63439315304202 -0.66944693194594 0.38650502284132
		outer loop
			vertex 2.7208611965179 1.2831741571426 0.39940166473389
			vertex 2.7208611965179 1.1731742620468 0.2088760882616
			vertex 3.0095384120941 1.0780030488968 0.51785725355148
		endloop
	endfacet
	facet normal -0.63439324755876 -0.66944676099403 0.38650516380308
		outer loop
			vertex 2.7208611965179 1.1731742620468 0.2088760882616
			vertex 3.0095384120941 0.96800309419632 0.32733169198036
			vertex 3.0095384120941 1.0780030488968 0.51785725355148
		endloop
	endfacet
	facet normal -0.77301025929075 -0.54940094178124 0.31719669639064
		outer loop
			vertex 3.2464497089386 0.82800137996674 0.66219580173492
			vertex 3.0095384120941 1.0780030488968 0.51785725355148
			vertex 3.0095384120941 0.96800309419632 0.32733169198036
		endloop
	endfacet
	facet normal -0.77301031491973 -0.54940080865385 0.31719679140589
		outer loop
			vertex 3.2464497089386 0.82800137996674 0.66219580173492
			vertex 3.0095384120941 0.96800309419632 0.32733169198036
			vertex 3.2464497089386 0.71800136566162 0.4716702401638
		endloop
	endfacet
	facet normal -0.88192136393698 -0.40824137608541 0.2356982958857
		outer loop
			vertex 3.3250000476837 0.59073251485825 0.54514896869659
			vertex 3.3250000476837 0.70073252916336 0.73567456007004
			vertex 3.2464497089386 0.71800136566162 0.4716702401638
		endloop
	endfacet
	facet normal -0.88192138380851 -0.40824132792471 0.23569830494841
		outer loop
			vertex 3.2464497089386 0.82800137996674 0.66219580173492
			vertex 3.2464497089386 0.71800136566162 0.4716702401638
			vertex 3.3250000476837 0.70073252916336 0.73567456007004
		endloop
	endfacet
endsolid