solid csg_export
	facet normal 0 -1 0
		outer loop
			vertex 0.33000001311302 0.10999999940395 0
			vertex 4.8713998794556 0.10999999940395 0.065999999642372
			vertex 0.33000001311302 0.10999999940395 0.065999999642372
		endloop
	endfacet
	facet normal 0 0 -1
		outer loop
			vertex 0.33000001311302 0.10999999940395 0
			vertex 0.33000001311302 0.79850000143051 0
			vertex 4.8713998794556 0.10999999940395 0
		endloop
	endfacet
	facet normal 0 -1 0
		outer loop
			vertex 0.33000001311302 0.10999999940395 0.33000001311302
			vertex 0.33000001311302 0.10999999940395 0.26399999856949
			vertex 4.8713998794556 0.10999999940395 0.33000001311302
		endloop
	endfacet
	facet normal 0 0 1
		outer loop
			vertex 0.33000001311302 0.10999999940395 0.33000001311302
			vertex 4.8713998794556 0.10999999940395 0.33000001311302
			vertex 0.33000001311302 0.79850000143051 0.33000001311302
		endloop
	endfacet
	facet normal -1 0 0
		outer loop
			vertex 0.10999999940395 0.79850000143051 0
			vertex 0.10999999940395 0.79850000143051 0.065999999642372
			vertex 0.10999999940395 4.5823593139648 0
		endloop
	endfacet
	facet normal 0 0 -1
		outer loop
			vertex 0.10999999940395 0.79850000143051 0
			vertex 0.10999999940395 4.5823593139648 0
			vertex 0.33000001311302 0.79850000143051 0
		endloop
	endfacet
	facet normal 0 0 -1
		outer loop
			vertex 0.33000001311302 0.79850000143051 0
			vertex 0.10999999940395 4.5823593139648 0
			vertex 4.8713998794556 0.10999999940395 0
		endloop
	endfacet
	facet normal 0.68463716906157 0.72888404203917 0
		outer loop
			vertex 4.8713998794556 0.10999999940395 0.33000001311302
			vertex 0.10999999940395 4.5823593139648 0
			vertex 0.10999999940395 4.5823593139648 0.065999999642372
		endloop
	endfacet
	facet normal 0.68463716906157 0.72888404203917 0
		outer loop
			vertex 4.8713998794556 0.10999999940395 0.33000001311302
			vertex 0.10999999940395 4.5823593139648 0.065999999642372
			vertex 0.10999999940395 4.5823593139648 0.26399999856949
		endloop
	endfacet
	facet normal -1 0 0
		outer loop
			vertex 0.10999999940395 0.79850000143051 0.33000001311302
			vertex 0.10999999940395 4.5823593139648 0.26399999856949
			vertex 0.10999999940395 0.79850000143051 0.26399999856949
		endloop
	endfacet
	facet normal 0 0 1
		outer loop
			vertex 0.10999999940395 0.79850000143051 0.33000001311302
			vertex 0.33000001311302 0.79850000143051 0.33000001311302
			vertex 0.10999999940395 4.5823593139648 0.33000001311302
		endloop
	endfacet
	facet normal -0 -0 1
		outer loop
			vertex 0.33000001311302 0.79850000143051 0.33000001311302
			vertex 4.8713998794556 0.10999999940395 0.33000001311302
			vertex 0.10999999940395 4.5823593139648 0.33000001311302
		endloop
	endfacet
	facet normal 0.68463716906157 0.72888404203917 0
		outer loop
			vertex 4.8713998794556 0.10999999940395 0.33000001311302
			vertex 0.10999999940395 4.5823593139648 0.26399999856949
			vertex 0.10999999940395 4.5823593139648 0.33000001311302
		endloop
	endfacet
	facet normal 0 -1 0
		outer loop
			vertex 0.33000001311302 0.10999999940395 0
			vertex 4.8713998794556 0.10999999940395 0
			vertex 4.8713998794556 0.10999999940395 0.065999999642372
		endloop
	endfacet
	facet normal 0.68463716906157 0.72888404203917 -0
		outer loop
			vertex 4.8713998794556 0.10999999940395 0
			vertex 0.10999999940395 4.5823593139648 0
			vertex 4.8713998794556 0.10999999940395 0.065999999642372
		endloop
	endfacet
	facet normal 0.68463716906157 0.72888404203917 0
		outer loop
			vertex 0.10999999940395 4.5823593139648 0
			vertex 4.8713998794556 0.10999999940395 0.26399999856949
			vertex 4.8713998794556 0.10999999940395 0.065999999642372
		endloop
	endfacet
	facet normal 0.68463716906157 0.72888404203917 0
		outer loop
			vertex 4.8713998794556 0.10999999940395 0.33000001311302
			vertex 4.8713998794556 0.10999999940395 0.26399999856949
			vertex 0.10999999940395 4.5823593139648 0
		endloop
	endfacet
	facet normal 0 -1 -0
		outer loop
			vertex 4.8713998794556 0.10999999940395 0.33000001311302
			vertex 0.33000001311302 0.10999999940395 0.26399999856949
			vertex 4.8713998794556 0.10999999940395 0.26399999856949
		endloop
	endfacet
	facet normal -1 0 0
		outer loop
			vertex 0.10999999940395 4.5823593139648 0
			vertex 0.10999999940395 0.79850000143051 0.065999999642372
			vertex 0.10999999940395 4.5823593139648 0.065999999642372
		endloop
	endfacet
	facet normal -1 0 0
		outer loop
			vertex 0.10999999940395 0.79850000143051 0.33000001311302
			vertex 0.10999999940395 4.5823593139648 0.33000001311302
			vertex 0.10999999940395 4.5823593139648 0.26399999856949
		endloop
	endfacet
	facet normal -1 0 0
		outer loop
			vertex 0.33000001311302 0.10999999940395 0
			vertex 0.33000001311302 0.10999999940395 0.065999999642372
			vertex 0.33000001311302 0.79850000143051 0
		endloop
	endfacet
	facet normal -1 0 0
		outer loop
			vertex 0.33000001311302 0.79850000143051 0
			vertex 0.33000001311302 0.10999999940395 0.065999999642372
			vertex 0.33000001311302 0.10999999940395 0.26399999856949
		endloop
	endfacet
	facet normal 0 -1 -0
		outer loop
			vertex 0.33000001311302 0.79850000143051 0.33000001311302
			vertex 0.10999999940395 0.79850000143051 0
			vertex 0.33000001311302 0.79850000143051 0
		endloop
	endfacet
	facet normal -1 0 0
		outer loop
			vertex 0.33000001311302 0.10999999940395 0.33000001311302
			vertex 0.33000001311302 0.79850000143051 0
			vertex 0.33000001311302 0.10999999940395 0.26399999856949
		endloop
	endfacet
	facet normal 0 -1 0
		outer loop
			vertex 0.10999999940395 0.79850000143051 0.065999999642372
			vertex 0.10999999940395 0.79850000143051 0
			vertex 0.33000001311302 0.79850000143051 0.33000001311302
		endloop
	endfacet
	facet normal 0 -1 0
		outer loop
			vertex 0.33000001311302 0.79850000143051 0.33000001311302
			vertex 0.10999999940395 0.79850000143051 0.26399999856949
			vertex 0.10999999940395 0.79850000143051 0.065999999642372
		endloop
	endfacet
	facet normal -1 0 0
		outer loop
			vertex 0.33000001311302 0.10999999940395 0.33000001311302
			vertex 0.33000001311302 0.79850000143051 0.33000001311302
			vertex 0.33000001311302 0.79850000143051 0
		endloop
	endfacet
	facet normal 0 -1 0
		outer loop
			vertex 0.10999999940395 0.79850000143051 0.33000001311302
			vertex 0.10999999940395 0.79850000143051 0.26399999856949
			vertex 0.33000001311302 0.79850000143051 0.33000001311302
		endloop
	endfacet
	facet normal 0 -1 0
		outer loop
			vertex 0 0.79850000143051 0.33000001311302
			vertex 0 0.79850000143051 0
			vertex 0.10999999940395 0.79850000143051 0.065999999642372
		endloop
	endfacet
	facet normal 0 -1 0
		outer loop
			vertex 0 0.79850000143051 0.33000001311302
			vertex 0.10999999940395 0.79850000143051 0.065999999642372
			vertex 0.10999999940395 0.79850000143051 0.26399999856949
		endloop
	endfacet
	facet normal 0.51449575542753 0 -0.85749292571254
		outer loop
			vertex 0 0.79850000143051 0
			vertex 0.10999999940395 4.5823593139648 0.065999999642372
			vertex 0.10999999940395 0.79850000143051 0.065999999642372
		endloop
	endfacet
	facet normal -1 0 0
		outer loop
			vertex 0 0.79850000143051 0.33000001311302
			vertex 0 4.5823593139648 0
			vertex 0 0.79850000143051 0
		endloop
	endfacet
	facet normal 0.51449584083955 -0 0.85749287446532
		outer loop
			vertex 0 0.79850000143051 0.33000001311302
			vertex 0.10999999940395 0.79850000143051 0.26399999856949
			vertex 0 4.5823593139648 0.33000001311302
		endloop
	endfacet
	facet normal 0.51449575542753 0 -0.85749292571254
		outer loop
			vertex 0 0.79850000143051 0
			vertex 0 4.5823593139648 0
			vertex 0.10999999940395 4.5823593139648 0.065999999642372
		endloop
	endfacet
	facet normal -1 0 0
		outer loop
			vertex 0 0.79850000143051 0.33000001311302
			vertex 0 4.5823593139648 0.33000001311302
			vertex 0 4.5823593139648 0
		endloop
	endfacet
	facet normal 0 1 0
		outer loop
			vertex 0 4.5823593139648 0.33000001311302
			vertex 0.10999999940395 4.5823593139648 0.065999999642372
			vertex 0 4.5823593139648 0
		endloop
	endfacet
	facet normal 0 1 0
		outer loop
			vertex 0 4.5823593139648 0.33000001311302
			vertex 0.10999999940395 4.5823593139648 0.26399999856949
			vertex 0.10999999940395 4.5823593139648 0.065999999642372
		endloop
	endfacet
	facet normal 0.51449584083955 0 0.85749287446532
		outer loop
			vertex 0 4.5823593139648 0.33000001311302
			vertex 0.10999999940395 0.79850000143051 0.26399999856949
			vertex 0.10999999940395 4.5823593139648 0.26399999856949
		endloop
	endfacet
	facet normal -1 0 0
		outer loop
			vertex 0.33000001311302 0 0.33000001311302
			vertex 0.33000001311302 0.10999999940395 0.065999999642372
			vertex 0.33000001311302 0 0
		endloop
	endfacet
	facet normal -1 0 0
		outer loop
			vertex 0.33000001311302 0 0.33000001311302
			vertex 0.33000001311302 0.10999999940395 0.26399999856949
			vertex 0.33000001311302 0.10999999940395 0.065999999642372
		endloop
	endfacet
	facet normal 0 0.51449575542753 -0.85749292571254
		outer loop
			vertex 0.33000001311302 0 0
			vertex 0.33000001311302 0.10999999940395 0.065999999642372
			vertex 4.8713998794556 0 0
		endloop
	endfacet
	facet normal 0 -1 0
		outer loop
			vertex 0.33000001311302 0 0.33000001311302
			vertex 0.33000001311302 0 0
			vertex 4.8713998794556 0 0.33000001311302
		endloop
	endfacet
	facet normal 0 0.51449584083955 0.85749287446532
		outer loop
			vertex 0.33000001311302 0 0.33000001311302
			vertex 4.8713998794556 0.10999999940395 0.26399999856949
			vertex 0.33000001311302 0.10999999940395 0.26399999856949
		endloop
	endfacet
	facet normal 0 0.51449575542753 -0.85749292571254
		outer loop
			vertex 4.8713998794556 0 0
			vertex 0.33000001311302 0.10999999940395 0.065999999642372
			vertex 4.8713998794556 0.10999999940395 0.065999999642372
		endloop
	endfacet
	facet normal 0 -1 -0
		outer loop
			vertex 4.8713998794556 0 0.33000001311302
			vertex 0.33000001311302 0 0
			vertex 4.8713998794556 0 0
		endloop
	endfacet
	facet normal -0 0.51449584083955 0.85749287446532
		outer loop
			vertex 0.33000001311302 0 0.33000001311302
			vertex 4.8713998794556 0 0.33000001311302
			vertex 4.8713998794556 0.10999999940395 0.26399999856949
		endloop
	endfacet
	facet normal 1 0 0
		outer loop
			vertex 4.8713998794556 0 0.33000001311302
			vertex 4.8713998794556 0 0
			vertex 4.8713998794556 0.10999999940395 0.065999999642372
		endloop
	endfacet
	facet normal 1 0 0
		outer loop
			vertex 4.8713998794556 0 0.33000001311302
			vertex 4.8713998794556 0.10999999940395 0.065999999642372
			vertex 4.8713998794556 0.10999999940395 0.26399999856949
		endloop
	endfacet
	facet normal -1 0 0
		outer loop
			vertex 5.1714000701904 6.2213668823242 0.012266729958355
			vertex 5.1714000701904 6.2213668823242 0.21999999880791
			vertex 5.1714000701904 6.3857417106628 0.21999999880791
		endloop
	endfacet
	facet normal 0 1 0
		outer loop
			vertex 5.1714000701904 6.441367149353 0
			vertex 5.1714000701904 6.441367149353 0.21999999880791
			vertex 6.3468136787415 6.441367149353 0.21999999880791
		endloop
	endfacet
	facet normal 0 1 0
		outer loop
			vertex 5.1714000701904 6.441367149353 0
			vertex 6.3468136787415 6.441367149353 0.21999999880791
			vertex 6.4977736473083 6.441367149353 0.13157507777214
		endloop
	endfacet
	facet normal -1 0 0
		outer loop
			vertex 5.1714000701904 6.3857417106628 0.21999999880791
			vertex 5.1714000701904 6.2213668823242 0.21999999880791
			vertex 5.1714000701904 6.2213668823242 0.90850001573563
		endloop
	endfacet
	facet normal -1 0 0
		outer loop
			vertex 5.1714000701904 6.441367149353 0.21999999880791
			vertex 5.1714000701904 6.3857417106628 0.21999999880791
			vertex 5.1714000701904 6.441367149353 0.90850001573563
		endloop
	endfacet
	facet normal 0 -1 0
		outer loop
			vertex 5.1714000701904 6.2213668823242 0.21999999880791
			vertex 6.7073998451233 6.2213668823242 0.21999999880791
			vertex 5.1714000701904 6.2213668823242 0.90850001573563
		endloop
	endfacet
	facet normal 0 1 0
		outer loop
			vertex 5.1714000701904 6.441367149353 0.21999999880791
			vertex 5.1714000701904 6.441367149353 0.90850001573563
			vertex 6.3468136787415 6.441367149353 0.21999999880791
		endloop
	endfacet
	facet normal 0 -1 0
		outer loop
			vertex 6.7073998451233 6.2213668823242 0.21999999880791
			vertex 6.9354000091553 6.2213668823242 0.21999999880791
			vertex 5.1714000701904 6.2213668823242 0.90850001573563
		endloop
	endfacet
	facet normal 0 0 -1
		outer loop
			vertex 5.1714000701904 6.2213668823242 0
			vertex 8.4714002609253 6.441367149353 0
			vertex 8.331955909729 6.2213668823242 0
		endloop
	endfacet
	facet normal 0 1 -0
		outer loop
			vertex 6.9997582435608 6.441367149353 0.09810945391655
			vertex 6.9931540489197 6.441367149353 0.11061714589596
			vertex 8.0958137512207 6.441367149353 0.21999999880791
		endloop
	endfacet
	facet normal -0 1 0
		outer loop
			vertex 6.9997582435608 6.441367149353 0.09810945391655
			vertex 8.0958137512207 6.441367149353 0.21999999880791
			vertex 8.4714002609253 6.441367149353 0
		endloop
	endfacet
	facet normal 1 0 0
		outer loop
			vertex 8.4714002609253 6.2213668823242 0
			vertex 8.4714002609253 6.2729177474976 0.21288207173347
			vertex 8.4714002609253 6.2213668823242 0.21999999880791
		endloop
	endfacet
	facet normal 0 1 0
		outer loop
			vertex 6.3468136787415 6.441367149353 0.21999999880791
			vertex 6.722400188446 6.441367149353 0.90850001573563
			vertex 6.7073998451233 6.441367149353 0.21999999880791
		endloop
	endfacet
	facet normal 0 -1 0
		outer loop
			vertex 5.1714000701904 6.2213668823242 0.90850001573563
			vertex 6.9354000091553 6.2213668823242 0.21999999880791
			vertex 8.4714002609253 6.2213668823242 0.21999999880791
		endloop
	endfacet
	facet normal 0 1 0
		outer loop
			vertex 6.7073998451233 6.441367149353 0.21999999880791
			vertex 6.722400188446 6.441367149353 0.90850001573563
			vertex 6.722400188446 6.441367149353 0.21999999880791
		endloop
	endfacet
	facet normal 0 1 0
		outer loop
			vertex 6.9204001426697 6.441367149353 0.21999999880791
			vertex 6.9204001426697 6.441367149353 0.90850001573563
			vertex 6.9354000091553 6.441367149353 0.21999999880791
		endloop
	endfacet
	facet normal 0 1 -0
		outer loop
			vertex 6.9354000091553 6.441367149353 0.21999999880791
			vertex 6.9204001426697 6.441367149353 0.90850001573563
			vertex 8.0958137512207 6.441367149353 0.21999999880791
		endloop
	endfacet
	facet normal 1 0 0
		outer loop
			vertex 8.4714002609253 6.2729177474976 0.21288207173347
			vertex 8.4714002609253 6.2213668823242 0.90850001573563
			vertex 8.4714002609253 6.2213668823242 0.21999999880791
		endloop
	endfacet
	facet normal 0 1 0
		outer loop
			vertex 8.0958137512207 6.441367149353 0.21999999880791
			vertex 8.4714002609253 6.441367149353 0.90850001573563
			vertex 8.4714002609253 6.441367149353 0.21999999880791
		endloop
	endfacet
	facet normal 1 0 -0
		outer loop
			vertex 8.4714002609253 6.441367149353 0.21999999880791
			vertex 8.4714002609253 6.441367149353 0.90850001573563
			vertex 8.4714002609253 6.2729177474976 0.21288207173347
		endloop
	endfacet
	facet normal -1 0 0
		outer loop
			vertex 5.1714000701904 6.3857417106628 0.21999999880791
			vertex 5.1714000701904 6.2213668823242 0.90850001573563
			vertex 5.1714000701904 6.441367149353 0.90850001573563
		endloop
	endfacet
	facet normal 0 1 -0
		outer loop
			vertex 6.3468136787415 6.441367149353 0.21999999880791
			vertex 5.1714000701904 6.441367149353 0.90850001573563
			vertex 6.722400188446 6.441367149353 0.90850001573563
		endloop
	endfacet
	facet normal 0 0 1
		outer loop
			vertex 5.1714000701904 6.441367149353 0.90850001573563
			vertex 5.1714000701904 6.2213668823242 0.90850001573563
			vertex 8.4714002609253 6.2213668823242 0.90850001573563
		endloop
	endfacet
	facet normal 0 -1 0
		outer loop
			vertex 5.1714000701904 6.2213668823242 0.90850001573563
			vertex 8.4714002609253 6.2213668823242 0.21999999880791
			vertex 8.4714002609253 6.2213668823242 0.90850001573563
		endloop
	endfacet
	facet normal 0 1 -0
		outer loop
			vertex 8.0958137512207 6.441367149353 0.21999999880791
			vertex 6.9204001426697 6.441367149353 0.90850001573563
			vertex 8.4714002609253 6.441367149353 0.90850001573563
		endloop
	endfacet
	facet normal 1 0 -0
		outer loop
			vertex 8.4714002609253 6.2729177474976 0.21288207173347
			vertex 8.4714002609253 6.441367149353 0.90850001573563
			vertex 8.4714002609253 6.2213668823242 0.90850001573563
		endloop
	endfacet
	facet normal -0 0 1
		outer loop
			vertex 5.1714000701904 6.441367149353 0.90850001573563
			vertex 8.4714002609253 6.2213668823242 0.90850001573563
			vertex 6.722400188446 6.441367149353 0.90850001573563
		endloop
	endfacet
	facet normal -0 0 1
		outer loop
			vertex 6.722400188446 6.441367149353 0.90850001573563
			vertex 8.4714002609253 6.2213668823242 0.90850001573563
			vertex 6.9204001426697 6.441367149353 0.90850001573563
		endloop
	endfacet
	facet normal -0 0 1
		outer loop
			vertex 6.9204001426697 6.441367149353 0.90850001573563
			vertex 8.4714002609253 6.2213668823242 0.90850001573563
			vertex 8.4714002609253 6.441367149353 0.90850001573563
		endloop
	endfacet
	facet normal 0 0 -1
		outer loop
			vertex 6.6564002037048 6.5513668060303 0
			vertex 6.9204001426697 6.441367149353 0
			vertex 6.722400188446 6.441367149353 0
		endloop
	endfacet
	facet normal 0 0 -1
		outer loop
			vertex 6.6564002037048 6.5513668060303 0
			vertex 6.9864001274109 6.5513668060303 0
			vertex 6.9204001426697 6.441367149353 0
		endloop
	endfacet
	facet normal 0.85749226974588 -0.51449684870372 0
		outer loop
			vertex 6.9204001426697 6.441367149353 0
			vertex 6.9864001274109 6.5513668060303 0
			vertex 6.9204001426697 6.441367149353 0.094999998807907
		endloop
	endfacet
	facet normal 0.85749226974588 -0.51449684870372 0
		outer loop
			vertex 6.9864001274109 6.5513668060303 0
			vertex 6.9204001426697 6.441367149353 0.21999999880791
			vertex 6.9204001426697 6.441367149353 0.094999998807907
		endloop
	endfacet
	facet normal -0.85749226974588 -0.51449684870372 0
		outer loop
			vertex 6.6564002037048 6.5513668060303 0
			vertex 6.722400188446 6.441367149353 0
			vertex 6.6564002037048 6.5513668060303 0.90850001573563
		endloop
	endfacet
	facet normal 0 1 0
		outer loop
			vertex 6.6564002037048 6.5513668060303 0
			vertex 6.9864001274109 6.5513668060303 0.90850001573563
			vertex 6.9864001274109 6.5513668060303 0
		endloop
	endfacet
	facet normal -0.85749226974588 -0.51449684870372 0
		outer loop
			vertex 6.722400188446 6.441367149353 0
			vertex 6.722400188446 6.441367149353 0.094999998807907
			vertex 6.6564002037048 6.5513668060303 0.90850001573563
		endloop
	endfacet
	facet normal -0.85749226974588 -0.51449684870372 0
		outer loop
			vertex 6.722400188446 6.441367149353 0.094999998807907
			vertex 6.722400188446 6.441367149353 0.21999999880791
			vertex 6.6564002037048 6.5513668060303 0.90850001573563
		endloop
	endfacet
	facet normal 0.85749226974588 -0.51449684870372 0
		outer loop
			vertex 6.9864001274109 6.5513668060303 0
			vertex 6.9204001426697 6.441367149353 0.90850001573563
			vertex 6.9204001426697 6.441367149353 0.21999999880791
		endloop
	endfacet
	facet normal 0 1 0
		outer loop
			vertex 6.6564002037048 6.5513668060303 0
			vertex 6.6564002037048 6.5513668060303 0.90850001573563
			vertex 6.9864001274109 6.5513668060303 0.90850001573563
		endloop
	endfacet
	facet normal -0.85749226974588 -0.51449684870372 0
		outer loop
			vertex 6.722400188446 6.441367149353 0.21999999880791
			vertex 6.722400188446 6.441367149353 0.90850001573563
			vertex 6.6564002037048 6.5513668060303 0.90850001573563
		endloop
	endfacet
	facet normal 0.85749226974588 -0.51449684870372 0
		outer loop
			vertex 6.9864001274109 6.5513668060303 0
			vertex 6.9864001274109 6.5513668060303 0.90850001573563
			vertex 6.9204001426697 6.441367149353 0.90850001573563
		endloop
	endfacet
	facet normal 0 0 1
		outer loop
			vertex 6.6564002037048 6.5513668060303 0.90850001573563
			vertex 6.722400188446 6.441367149353 0.90850001573563
			vertex 6.9204001426697 6.441367149353 0.90850001573563
		endloop
	endfacet
	facet normal -0 0 1
		outer loop
			vertex 6.6564002037048 6.5513668060303 0.90850001573563
			vertex 6.9204001426697 6.441367149353 0.90850001573563
			vertex 6.9864001274109 6.5513668060303 0.90850001573563
		endloop
	endfacet
	facet normal -1 0 0
		outer loop
			vertex 5.1714000701904 6.2213668823242 0
			vertex 5.1714000701904 1.2349669933319 0
			vertex 5.1714000701904 1.344967007637 0.19052559137344
		endloop
	endfacet
	facet normal -1 -0 0
		outer loop
			vertex 5.1714000701904 6.2213668823242 0.21999999880791
			vertex 5.1714000701904 1.344967007637 0.19052559137344
			vertex 5.1714000701904 1.2939158678055 0.21999999880791
		endloop
	endfacet
	facet normal 0 0 1
		outer loop
			vertex 6.7073998451233 6.2213668823242 0.21999999880791
			vertex 5.1714000701904 1.2939158678055 0.21999999880791
			vertex 6.7073998451233 1.2939158678055 0.21999999880791
		endloop
	endfacet
	facet normal 1 0 0
		outer loop
			vertex 8.4714002609253 1.2349669933319 0
			vertex 8.4714002609253 1.344967007637 0.19052559137344
			vertex 8.4714002609253 1.2656599283218 0.21999999880791
		endloop
	endfacet
	facet normal 1 0 0
		outer loop
			vertex 8.4714002609253 1.2349669933319 0
			vertex 8.4714002609253 1.2656599283218 0.21999999880791
			vertex 8.4714002609253 1.2349669933319 0.21999999880791
		endloop
	endfacet
	facet normal 0 0 -1
		outer loop
			vertex 5.1714000701904 1.2349669933319 0
			vertex 8.331955909729 6.2213668823242 0
			vertex 8.4714002609253 1.2349669933319 0
		endloop
	endfacet
	facet normal 1 0 0
		outer loop
			vertex 8.4714002609253 6.2213668823242 0
			vertex 8.4714002609253 1.344967007637 0.19052559137344
			vertex 8.4714002609253 1.2349669933319 0
		endloop
	endfacet
	facet normal 0 0 1
		outer loop
			vertex 8.4714002609253 6.2213668823242 0.21999999880791
			vertex 6.9354000091553 1.2939158678055 0.21999999880791
			vertex 8.4714002609253 1.2939158678055 0.21999999880791
		endloop
	endfacet
	facet normal 1 0 0
		outer loop
			vertex 8.4714002609253 6.2213668823242 0.21999999880791
			vertex 8.4714002609253 1.2939158678055 0.21999999880791
			vertex 8.4714002609253 1.344967007637 0.19052559137344
		endloop
	endfacet
	facet normal -1 0 0
		outer loop
			vertex 5.1714000701904 6.441367149353 0
			vertex 5.1714000701904 6.2213668823242 0
			vertex 5.1714000701904 1.344967007637 0.19052559137344
		endloop
	endfacet
	facet normal -1 0 0
		outer loop
			vertex 5.1714000701904 6.441367149353 0
			vertex 5.1714000701904 1.344967007637 0.19052559137344
			vertex 5.1714000701904 6.2213668823242 0.012266729958355
		endloop
	endfacet
	facet normal -1 0 0
		outer loop
			vertex 5.1714000701904 6.2213668823242 0.012266729958355
			vertex 5.1714000701904 1.344967007637 0.19052559137344
			vertex 5.1714000701904 6.2213668823242 0.21999999880791
		endloop
	endfacet
	facet normal 0 0 -1
		outer loop
			vertex 5.1714000701904 6.2213668823242 0
			vertex 8.331955909729 6.2213668823242 0
			vertex 5.1714000701904 1.2349669933319 0
		endloop
	endfacet
	facet normal -0 0 1
		outer loop
			vertex 5.1714000701904 6.2213668823242 0.21999999880791
			vertex 5.1714000701904 1.2939158678055 0.21999999880791
			vertex 6.7073998451233 6.2213668823242 0.21999999880791
		endloop
	endfacet
	facet normal -1 0 0
		outer loop
			vertex 5.1714000701904 6.441367149353 0
			vertex 5.1714000701904 6.2213668823242 0.012266729958355
			vertex 5.1714000701904 6.3857417106628 0.21999999880791
		endloop
	endfacet
	facet normal -1 0 0
		outer loop
			vertex 5.1714000701904 6.441367149353 0
			vertex 5.1714000701904 6.3857417106628 0.21999999880791
			vertex 5.1714000701904 6.441367149353 0.21999999880791
		endloop
	endfacet
	facet normal 0 0 -1
		outer loop
			vertex 5.1714000701904 6.441367149353 0
			vertex 6.722400188446 6.441367149353 0
			vertex 5.1714000701904 6.2213668823242 0
		endloop
	endfacet
	facet normal 0 0 -1
		outer loop
			vertex 5.1714000701904 6.2213668823242 0
			vertex 6.722400188446 6.441367149353 0
			vertex 6.9204001426697 6.441367149353 0
		endloop
	endfacet
	facet normal 0 1 0
		outer loop
			vertex 5.1714000701904 6.441367149353 0
			vertex 6.4977736473083 6.441367149353 0.13157507777214
			vertex 6.722400188446 6.441367149353 0
		endloop
	endfacet
	facet normal 0 0 -1
		outer loop
			vertex 8.331955909729 6.2213668823242 0
			vertex 8.4714002609253 6.2213668823242 0
			vertex 8.4714002609253 1.2349669933319 0
		endloop
	endfacet
	facet normal -0 0 1
		outer loop
			vertex 6.9354000091553 6.2213668823242 0.21999999880791
			vertex 6.9354000091553 1.2939158678055 0.21999999880791
			vertex 8.4714002609253 6.2213668823242 0.21999999880791
		endloop
	endfacet
	facet normal 1 0 -0
		outer loop
			vertex 8.4714002609253 6.2213668823242 0
			vertex 8.4714002609253 6.2213668823242 0.21999999880791
			vertex 8.4714002609253 1.344967007637 0.19052559137344
		endloop
	endfacet
	facet normal 0 0 -1
		outer loop
			vertex 5.1714000701904 6.2213668823242 0
			vertex 6.9204001426697 6.441367149353 0
			vertex 8.4714002609253 6.441367149353 0
		endloop
	endfacet
	facet normal 0 1 -0
		outer loop
			vertex 6.722400188446 6.441367149353 0
			vertex 6.6413998603821 6.441367149353 0.094999998807907
			vertex 6.722400188446 6.441367149353 0.094999998807907
		endloop
	endfacet
	facet normal 0 1 0
		outer loop
			vertex 6.722400188446 6.441367149353 0
			vertex 6.4977736473083 6.441367149353 0.13157507777214
			vertex 6.6413998603821 6.441367149353 0.094999998807907
		endloop
	endfacet
	facet normal 0 1 0
		outer loop
			vertex 6.9204001426697 6.441367149353 0
			vertex 6.9204001426697 6.441367149353 0.094999998807907
			vertex 7.0013999938965 6.441367149353 0.094999998807907
		endloop
	endfacet
	facet normal 0 1 -0
		outer loop
			vertex 6.6413998603821 6.441367149353 0.094999998807907
			vertex 6.4977736473083 6.441367149353 0.13157507777214
			vertex 6.7073998451233 6.441367149353 0.21999999880791
		endloop
	endfacet
	facet normal -0 1 0
		outer loop
			vertex 6.3468136787415 6.441367149353 0.21999999880791
			vertex 6.7073998451233 6.441367149353 0.21999999880791
			vertex 6.4977736473083 6.441367149353 0.13157507777214
		endloop
	endfacet
	facet normal 0 1 -0
		outer loop
			vertex 6.9931540489197 6.441367149353 0.11061714589596
			vertex 6.9354000091553 6.441367149353 0.21999999880791
			vertex 8.0958137512207 6.441367149353 0.21999999880791
		endloop
	endfacet
	facet normal 0 1 0
		outer loop
			vertex 6.9204001426697 6.441367149353 0
			vertex 7.0013999938965 6.441367149353 0.094999998807907
			vertex 8.4714002609253 6.441367149353 0
		endloop
	endfacet
	facet normal -0 1 -0
		outer loop
			vertex 7.0013999938965 6.441367149353 0.094999998807907
			vertex 6.9997582435608 6.441367149353 0.09810945391655
			vertex 8.4714002609253 6.441367149353 0
		endloop
	endfacet
	facet normal 0 0 -1
		outer loop
			vertex 8.331955909729 6.2213668823242 0
			vertex 8.4714002609253 6.441367149353 0
			vertex 8.4714002609253 6.2213668823242 0
		endloop
	endfacet
	facet normal 1 0 0
		outer loop
			vertex 8.4714002609253 6.441367149353 0
			vertex 8.4714002609253 6.2729177474976 0.21288207173347
			vertex 8.4714002609253 6.2213668823242 0
		endloop
	endfacet
	facet normal 0 1 -0
		outer loop
			vertex 8.4714002609253 6.441367149353 0
			vertex 8.0958137512207 6.441367149353 0.21999999880791
			vertex 8.4714002609253 6.441367149353 0.21999999880791
		endloop
	endfacet
	facet normal 1 0 -0
		outer loop
			vertex 8.4714002609253 6.441367149353 0
			vertex 8.4714002609253 6.441367149353 0.21999999880791
			vertex 8.4714002609253 6.2729177474976 0.21288207173347
		endloop
	endfacet
	facet normal -1 0 0
		outer loop
			vertex 5.1714000701904 1.2349669933319 0
			vertex 5.1714000701904 1.2939158678055 0.21999999880791
			vertex 5.1714000701904 1.344967007637 0.19052559137344
		endloop
	endfacet
	facet normal 2.1513519049542e-08 -0.50000000873843 -0.8660253987393
		outer loop
			vertex 5.1714000701904 1.2349669933319 0
			vertex 6.2454614639282 1.0519925355911 0.10564038157463
			vertex 5.9852666854858 0.93154835700989 0.17517885565758
		endloop
	endfacet
	facet normal -5.3535168081938e-08 -0.50000033914062 -0.86602520798142
		outer loop
			vertex 5.1714000701904 1.2349669933319 0
			vertex 6.5277891159058 1.1261615753174 0.062818810343742
			vertex 6.2454614639282 1.0519925355911 0.10564038157463
		endloop
	endfacet
	facet normal 8.0179185290317e-08 -0.49999908895882 -0.86602592977367
		outer loop
			vertex 5.1714000701904 1.2349669933319 0
			vertex 6.8214001655579 1.1512055397034 0.048359733074903
			vertex 6.5277891159058 1.1261615753174 0.062818810343742
		endloop
	endfacet
	facet normal 6.0975245276787e-08 -0.49999992935163 -0.86602544457329
		outer loop
			vertex 5.1714000701904 1.2349669933319 0
			vertex 5.9852666854858 0.93154835700989 0.17517885565758
			vertex 5.7572045326233 0.76945775747299 0.26876187324524
		endloop
	endfacet
	facet normal -1.9225623949835e-08 -0.5000000050462 -0.86602540087102
		outer loop
			vertex 5.1714000701904 1.2349669933319 0
			vertex 5.7572045326233 0.76945775747299 0.26876187324524
			vertex 5.570038318634 0.57194983959198 0.38279312849045
		endloop
	endfacet
	facet normal 0 -0.50000000902079 -0.86602539857628
		outer loop
			vertex 5.1714000701904 1.2349669933319 0
			vertex 5.348081111908 0.10999999940395 0.64950001239777
			vertex 5.1714000701904 0.10999999940395 0.64950001239777
		endloop
	endfacet
	facet normal -1 0 0
		outer loop
			vertex 5.1714000701904 1.2349669933319 0
			vertex 5.1714000701904 0.21999999880791 0.84002560377121
			vertex 5.1714000701904 1.2939158678055 0.21999999880791
		endloop
	endfacet
	facet normal -6.5641520791425e-08 -0.50000002597682 -0.86602538878671
		outer loop
			vertex 5.1714000701904 1.2349669933319 0
			vertex 5.570038318634 0.57194983959198 0.38279312849045
			vertex 5.4309611320496 0.34661468863487 0.51289045810699
		endloop
	endfacet
	facet normal 2.5373900797336e-08 -0.50000000603198 -0.86602540030187
		outer loop
			vertex 5.1714000701904 1.2349669933319 0
			vertex 5.4309611320496 0.34661468863487 0.51289045810699
			vertex 5.348081111908 0.10999999940395 0.64950001239777
		endloop
	endfacet
	facet normal 8.1483989252055e-08 0.50000021301514 0.86602528080005
		outer loop
			vertex 5.1714000701904 1.2939158678055 0.21999999880791
			vertex 5.9852666854858 1.041548371315 0.36570444703102
			vertex 6.2454614639282 1.161992430687 0.29616597294807
		endloop
	endfacet
	facet normal 3.3956613267798e-08 0.49999992280518 0.86602544835288
		outer loop
			vertex 5.1714000701904 1.2939158678055 0.21999999880791
			vertex 6.2454614639282 1.161992430687 0.29616597294807
			vertex 6.5277891159058 1.2361615896225 0.25334438681602
		endloop
	endfacet
	facet normal -0 0.49999932468832 0.86602579367547
		outer loop
			vertex 5.1714000701904 1.2939158678055 0.21999999880791
			vertex 6.5277891159058 1.2361615896225 0.25334438681602
			vertex 6.7073998451233 1.2939158678055 0.21999999880791
		endloop
	endfacet
	facet normal -4.3444216956337e-08 0.49999991085195 0.86602545525408
		outer loop
			vertex 5.1714000701904 1.2939158678055 0.21999999880791
			vertex 5.7572045326233 0.87945777177811 0.45928746461868
			vertex 5.9852666854858 1.041548371315 0.36570444703102
		endloop
	endfacet
	facet normal 3.4902193380955e-08 0.4999999939044 0.86602540730373
		outer loop
			vertex 5.1714000701904 1.2939158678055 0.21999999880791
			vertex 5.570038318634 0.68194985389709 0.57331871986389
			vertex 5.7572045326233 0.87945777177811 0.45928746461868
		endloop
	endfacet
	facet normal 0 -0.50000027353414 -0.86602524585937
		outer loop
			vertex 5.1714000701904 1.2349669933319 0
			vertex 8.4714002609253 1.2349669933319 0
			vertex 6.8214001655579 1.1512055397034 0.048359733074903
		endloop
	endfacet
	facet normal -0 0.49999904815635 0.86602595333093
		outer loop
			vertex 6.7073998451233 1.2939158678055 0.21999999880791
			vertex 6.8214001655579 1.2612054347992 0.23888532817364
			vertex 6.9354000091553 1.2939158678055 0.21999999880791
		endloop
	endfacet
	facet normal -8.0179233873594e-08 -0.4999990889581 -0.86602592977408
		outer loop
			vertex 8.4714002609253 1.2349669933319 0
			vertex 7.1150107383728 1.1261615753174 0.062818810343742
			vertex 6.8214001655579 1.1512055397034 0.048359733074903
		endloop
	endfacet
	facet normal 5.3535153664166e-08 -0.50000033914066 -0.8660252079814
		outer loop
			vertex 8.4714002609253 1.2349669933319 0
			vertex 7.3973383903503 1.0519925355911 0.10564038157463
			vertex 7.1150107383728 1.1261615753174 0.062818810343742
		endloop
	endfacet
	facet normal -2.1513512067876e-08 -0.50000000873842 -0.86602539873931
		outer loop
			vertex 8.4714002609253 1.2349669933319 0
			vertex 7.6575331687927 0.93154835700989 0.17517885565758
			vertex 7.3973383903503 1.0519925355911 0.10564038157463
		endloop
	endfacet
	facet normal -6.0975177979182e-08 -0.49999992935169 -0.86602544457325
		outer loop
			vertex 8.4714002609253 1.2349669933319 0
			vertex 7.8855957984924 0.76945775747299 0.26876187324524
			vertex 7.6575331687927 0.93154835700989 0.17517885565758
		endloop
	endfacet
	facet normal 1.9225644990045e-08 -0.50000000504622 -0.866025400871
		outer loop
			vertex 8.4714002609253 1.2349669933319 0
			vertex 8.0727615356445 0.57194983959198 0.38279312849045
			vertex 7.8855957984924 0.76945775747299 0.26876187324524
		endloop
	endfacet
	facet normal 1 0 0
		outer loop
			vertex 8.4714002609253 1.344967007637 0.19052559137344
			vertex 8.4714002609253 1.2939158678055 0.21999999880791
			vertex 8.4714002609253 1.2656599283218 0.21999999880791
		endloop
	endfacet
	facet normal 5.5906926850519e-08 0.49999919428897 0.86602586896142
		outer loop
			vertex 6.7073998451233 1.2939158678055 0.21999999880791
			vertex 6.5277891159058 1.2361615896225 0.25334438681602
			vertex 6.8214001655579 1.2612054347992 0.23888532817364
		endloop
	endfacet
	facet normal -5.5907050426032e-08 0.49999919428868 0.86602586896158
		outer loop
			vertex 6.9354000091553 1.2939158678055 0.21999999880791
			vertex 6.8214001655579 1.2612054347992 0.23888532817364
			vertex 7.1150107383728 1.2361615896225 0.25334438681602
		endloop
	endfacet
	facet normal 6.5641482046403e-08 -0.50000002597684 -0.8660253887867
		outer loop
			vertex 8.4714002609253 1.2349669933319 0
			vertex 8.211838722229 0.34661468863487 0.51289045810699
			vertex 8.0727615356445 0.57194983959198 0.38279312849045
		endloop
	endfacet
	facet normal -1.1734861314148e-08 -0.50000000902079 -0.86602539857628
		outer loop
			vertex 8.4714002609253 1.2349669933319 0
			vertex 8.4714002609253 0.10999999940395 0.64950001239777
			vertex 8.211838722229 0.34661468863487 0.51289045810699
		endloop
	endfacet
	facet normal -8.1483960662643e-08 0.50000021301519 0.86602528080002
		outer loop
			vertex 8.4714002609253 1.2939158678055 0.21999999880791
			vertex 7.3973383903503 1.161992430687 0.29616597294807
			vertex 7.6575331687927 1.041548371315 0.36570444703102
		endloop
	endfacet
	facet normal -0 0.49999932468832 0.86602579367547
		outer loop
			vertex 6.9354000091553 1.2939158678055 0.21999999880791
			vertex 7.1150107383728 1.2361615896225 0.25334438681602
			vertex 8.4714002609253 1.2939158678055 0.21999999880791
		endloop
	endfacet
	facet normal -3.3956602995349e-08 0.49999992280521 0.86602544835286
		outer loop
			vertex 8.4714002609253 1.2939158678055 0.21999999880791
			vertex 7.1150107383728 1.2361615896225 0.25334438681602
			vertex 7.3973383903503 1.161992430687 0.29616597294807
		endloop
	endfacet
	facet normal 1 0 -0
		outer loop
			vertex 8.4714002609253 1.2349669933319 0
			vertex 8.4714002609253 1.2349669933319 0.21999999880791
			vertex 8.4714002609253 0.10999999940395 0.64950001239777
		endloop
	endfacet
	facet normal 4.3444171642697e-08 0.499999910852 0.86602545525405
		outer loop
			vertex 8.4714002609253 1.2939158678055 0.21999999880791
			vertex 7.6575331687927 1.041548371315 0.36570444703102
			vertex 7.8855957984924 0.87945777177811 0.45928746461868
		endloop
	endfacet
	facet normal 1 0 0
		outer loop
			vertex 8.4714002609253 1.2656599283218 0.21999999880791
			vertex 8.4714002609253 0.10999999940395 0.64950001239777
			vertex 8.4714002609253 1.2349669933319 0.21999999880791
		endloop
	endfacet
	facet normal -3.490222906971e-08 0.49999999390444 0.86602540730371
		outer loop
			vertex 8.4714002609253 1.2939158678055 0.21999999880791
			vertex 7.8855957984924 0.87945777177811 0.45928746461868
			vertex 8.0727615356445 0.68194985389709 0.57331871986389
		endloop
	endfacet
	facet normal 1 0 0
		outer loop
			vertex 8.4714002609253 1.2939158678055 0.21999999880791
			vertex 8.4714002609253 0.21999999880791 0.84002560377121
			vertex 8.4714002609253 1.2656599283218 0.21999999880791
		endloop
	endfacet
	facet normal -1 0 0
		outer loop
			vertex 5.1714000701904 1.2349669933319 0
			vertex 5.1714000701904 0.10999999940395 0.64950001239777
			vertex 5.1714000701904 0.21999999880791 0.84002560377121
		endloop
	endfacet
	facet normal 3.6086239394486e-08 0.49999999329294 0.86602540765676
		outer loop
			vertex 5.1714000701904 1.2939158678055 0.21999999880791
			vertex 5.1714000701904 0.21999999880791 0.84002560377121
			vertex 5.4309611320496 0.45661467313766 0.70341604948044
		endloop
	endfacet
	facet normal 3.1439112890308e-08 0.4999999922125 0.86602540828056
		outer loop
			vertex 5.1714000701904 1.2939158678055 0.21999999880791
			vertex 5.4309611320496 0.45661467313766 0.70341604948044
			vertex 5.570038318634 0.68194985389709 0.57331871986389
		endloop
	endfacet
	facet normal 0 -0.86602540784495 0.49999999296699
		outer loop
			vertex 5.1714000701904 0.10999999940395 0.64950001239777
			vertex 5.348081111908 0.10999999940395 0.64950001239777
			vertex 5.348081111908 0.21999999880791 0.84002560377121
		endloop
	endfacet
	facet normal 0 -0.86602540784495 0.49999999296699
		outer loop
			vertex 5.1714000701904 0.10999999940395 0.64950001239777
			vertex 5.348081111908 0.21999999880791 0.84002560377121
			vertex 5.1714000701904 0.21999999880791 0.84002560377121
		endloop
	endfacet
	facet normal -0 0.5000000229823 0.8660253905156
		outer loop
			vertex 5.1714000701904 0.21999999880791 0.84002560377121
			vertex 5.348081111908 0.21999999880791 0.84002560377121
			vertex 5.4309611320496 0.45661467313766 0.70341604948044
		endloop
	endfacet
	facet normal -3.143909358016e-08 0.49999999221251 0.86602540828055
		outer loop
			vertex 8.4714002609253 1.2939158678055 0.21999999880791
			vertex 8.0727615356445 0.68194985389709 0.57331871986389
			vertex 8.211838722229 0.45661467313766 0.70341604948044
		endloop
	endfacet
	facet normal -0 -0.49999999936612 -0.86602540415041
		outer loop
			vertex 8.4714002609253 0.10999999940395 0.64950001239777
			vertex 8.2947187423706 0.10999999940395 0.64950001239777
			vertex 8.211838722229 0.34661468863487 0.51289045810699
		endloop
	endfacet
	facet normal 1 0 0
		outer loop
			vertex 8.4714002609253 1.2656599283218 0.21999999880791
			vertex 8.4714002609253 0.21999999880791 0.84002560377121
			vertex 8.4714002609253 0.10999999940395 0.64950001239777
		endloop
	endfacet
	facet normal -7.6896245952315e-08 0.50000000278122 0.8660254021787
		outer loop
			vertex 8.4714002609253 1.2939158678055 0.21999999880791
			vertex 8.211838722229 0.45661467313766 0.70341604948044
			vertex 8.2947187423706 0.21999999880791 0.84002560377121
		endloop
	endfacet
	facet normal 0 0.49999999329294 0.86602540765676
		outer loop
			vertex 8.4714002609253 1.2939158678055 0.21999999880791
			vertex 8.2947187423706 0.21999999880791 0.84002560377121
			vertex 8.4714002609253 0.21999999880791 0.84002560377121
		endloop
	endfacet
	facet normal 0 -0.86602540784495 0.49999999296699
		outer loop
			vertex 8.4714002609253 0.10999999940395 0.64950001239777
			vertex 8.4714002609253 0.21999999880791 0.84002560377121
			vertex 8.2947187423706 0.10999999940395 0.64950001239777
		endloop
	endfacet
	facet normal 0 -0.86602540784495 0.49999999296699
		outer loop
			vertex 8.4714002609253 0.21999999880791 0.84002560377121
			vertex 8.2947187423706 0.21999999880791 0.84002560377121
			vertex 8.2947187423706 0.10999999940395 0.64950001239777
		endloop
	endfacet
	facet normal 0.88430366508141 0 -0.46691222721576
		outer loop
			vertex 6.7073998451233 1.2939158678055 0.21999999880791
			vertex 6.7073998451233 1.2373369932175 0.21999999880791
			vertex 6.6413998603821 1.157662153244 0.094999998807907
		endloop
	endfacet
	facet normal 0 0 -1
		outer loop
			vertex 6.7073998451233 1.2939158678055 0.21999999880791
			vertex 6.8214001655579 1.2503020763397 0.21999999880791
			vertex 6.7073998451233 1.2373369932175 0.21999999880791
		endloop
	endfacet
	facet normal 0 0 -1
		outer loop
			vertex 6.7073998451233 1.2939158678055 0.21999999880791
			vertex 6.9354000091553 1.2939158678055 0.21999999880791
			vertex 6.8214001655579 1.2503020763397 0.21999999880791
		endloop
	endfacet
	facet normal 0 -0 -1
		outer loop
			vertex 6.9354000091553 1.2939158678055 0.21999999880791
			vertex 6.9354000091553 1.2373369932175 0.21999999880791
			vertex 6.8214001655579 1.2503020763397 0.21999999880791
		endloop
	endfacet
	facet normal 0 0 1
		outer loop
			vertex 6.6413998603821 6.441367149353 0.094999998807907
			vertex 6.6413998603821 1.157662153244 0.094999998807907
			vertex 6.8214001655579 1.1781332492828 0.094999998807907
		endloop
	endfacet
	facet normal 0 0 1
		outer loop
			vertex 7.0013999938965 6.441367149353 0.094999998807907
			vertex 6.8214001655579 1.1781332492828 0.094999998807907
			vertex 7.0013999938965 1.157662153244 0.094999998807907
		endloop
	endfacet
	facet normal 0.88430366508141 0 -0.46691222721576
		outer loop
			vertex 6.6413998603821 6.441367149353 0.094999998807907
			vertex 6.7073998451233 1.2939158678055 0.21999999880791
			vertex 6.6413998603821 1.157662153244 0.094999998807907
		endloop
	endfacet
	facet normal -0.88430366508141 -0 -0.46691222721576
		outer loop
			vertex 7.0013999938965 6.441367149353 0.094999998807907
			vertex 7.0013999938965 1.157662153244 0.094999998807907
			vertex 6.9354000091553 1.2373369932175 0.21999999880791
		endloop
	endfacet
	facet normal -0.88430397625385 0 -0.46691163787342
		outer loop
			vertex 6.9931540489197 6.441367149353 0.11061714589596
			vertex 6.9354000091553 1.2373369932175 0.21999999880791
			vertex 6.9354000091553 1.2939158678055 0.21999999880791
		endloop
	endfacet
	facet normal -0 0 1
		outer loop
			vertex 6.6413998603821 6.441367149353 0.094999998807907
			vertex 6.8214001655579 1.1781332492828 0.094999998807907
			vertex 6.722400188446 6.441367149353 0.094999998807907
		endloop
	endfacet
	facet normal -0 0 1
		outer loop
			vertex 6.722400188446 6.441367149353 0.094999998807907
			vertex 6.8214001655579 1.1781332492828 0.094999998807907
			vertex 6.9204001426697 6.441367149353 0.094999998807907
		endloop
	endfacet
	facet normal -0 0 1
		outer loop
			vertex 6.9204001426697 6.441367149353 0.094999998807907
			vertex 6.8214001655579 1.1781332492828 0.094999998807907
			vertex 7.0013999938965 6.441367149353 0.094999998807907
		endloop
	endfacet
	facet normal 0.88430366508141 0 -0.46691222721576
		outer loop
			vertex 6.6413998603821 6.441367149353 0.094999998807907
			vertex 6.7073998451233 6.2213668823242 0.21999999880791
			vertex 6.7073998451233 1.2939158678055 0.21999999880791
		endloop
	endfacet
	facet normal -0.88430854776178 2.8405087754358e-07 -0.46690297959574
		outer loop
			vertex 7.0013999938965 6.441367149353 0.094999998807907
			vertex 6.9354000091553 1.2373369932175 0.21999999880791
			vertex 6.9997582435608 6.441367149353 0.09810945391655
		endloop
	endfacet
	facet normal -0.88429972993061 -2.1616355442292e-07 -0.46691968007849
		outer loop
			vertex 6.9997582435608 6.441367149353 0.09810945391655
			vertex 6.9354000091553 1.2373369932175 0.21999999880791
			vertex 6.9931540489197 6.441367149353 0.11061714589596
		endloop
	endfacet
	facet normal -0.88430397625385 0 -0.46691163787342
		outer loop
			vertex 6.9931540489197 6.441367149353 0.11061714589596
			vertex 6.9354000091553 1.2939158678055 0.21999999880791
			vertex 6.9354000091553 6.2213668823242 0.21999999880791
		endloop
	endfacet
	facet normal 0 -1 0
		outer loop
			vertex 6.722400188446 6.441367149353 0.094999998807907
			vertex 6.9204001426697 6.441367149353 0.094999998807907
			vertex 6.722400188446 6.441367149353 0.21999999880791
		endloop
	endfacet
	facet normal 0 0 -1
		outer loop
			vertex 6.7073998451233 6.441367149353 0.21999999880791
			vertex 6.9354000091553 6.2213668823242 0.21999999880791
			vertex 6.7073998451233 6.2213668823242 0.21999999880791
		endloop
	endfacet
	facet normal 0.88430366508141 0 -0.46691222721576
		outer loop
			vertex 6.6413998603821 6.441367149353 0.094999998807907
			vertex 6.7073998451233 6.441367149353 0.21999999880791
			vertex 6.7073998451233 6.2213668823242 0.21999999880791
		endloop
	endfacet
	facet normal 0 -1 0
		outer loop
			vertex 6.722400188446 6.441367149353 0.21999999880791
			vertex 6.9204001426697 6.441367149353 0.094999998807907
			vertex 6.9204001426697 6.441367149353 0.21999999880791
		endloop
	endfacet
	facet normal 0 0 -1
		outer loop
			vertex 6.7073998451233 6.441367149353 0.21999999880791
			vertex 6.722400188446 6.441367149353 0.21999999880791
			vertex 6.9354000091553 6.2213668823242 0.21999999880791
		endloop
	endfacet
	facet normal 0 0 -1
		outer loop
			vertex 6.722400188446 6.441367149353 0.21999999880791
			vertex 6.9204001426697 6.441367149353 0.21999999880791
			vertex 6.9354000091553 6.2213668823242 0.21999999880791
		endloop
	endfacet
	facet normal -0.88430397625385 0 -0.46691163787342
		outer loop
			vertex 6.9931540489197 6.441367149353 0.11061714589596
			vertex 6.9354000091553 6.2213668823242 0.21999999880791
			vertex 6.9354000091553 6.441367149353 0.21999999880791
		endloop
	endfacet
	facet normal 0 0 -1
		outer loop
			vertex 6.9204001426697 6.441367149353 0.21999999880791
			vertex 6.9354000091553 6.441367149353 0.21999999880791
			vertex 6.9354000091553 6.2213668823242 0.21999999880791
		endloop
	endfacet
	facet normal 0.47139660194636 -0.76376646614163 0.44096034841123
		outer loop
			vertex 6.2454614639282 1.0519925355911 0.10564038157463
			vertex 6.2454614639282 1.161992430687 0.29616597294807
			vertex 5.9852666854858 0.93154835700989 0.17517885565758
		endloop
	endfacet
	facet normal 0.29028471438738 -0.82873483124379 0.47846981521969
		outer loop
			vertex 6.2454614639282 1.0519925355911 0.10564038157463
			vertex 6.5277891159058 1.2361615896225 0.25334438681602
			vertex 6.2454614639282 1.161992430687 0.29616597294807
		endloop
	endfacet
	facet normal 0.77301019464511 -0.54940095705872 0.31719682747105
		outer loop
			vertex 5.7572045326233 0.76945775747299 0.26876187324524
			vertex 5.7572045326233 0.87945777177811 0.45928746461868
			vertex 5.570038318634 0.57194983959198 0.38279312849045
		endloop
	endfacet
	facet normal 0.63439391984833 -0.6694462186705 0.38650499966654
		outer loop
			vertex 5.9852666854858 1.041548371315 0.36570444703102
			vertex 5.7572045326233 0.76945775747299 0.26876187324524
			vertex 5.9852666854858 0.93154835700989 0.17517885565758
		endloop
	endfacet
	facet normal 0.47139632978168 -0.76376638519929 0.4409607795575
		outer loop
			vertex 5.9852666854858 0.93154835700989 0.17517885565758
			vertex 6.2454614639282 1.161992430687 0.29616597294807
			vertex 5.9852666854858 1.041548371315 0.36570444703102
		endloop
	endfacet
	facet normal 0.63439391984833 -0.6694462186705 0.38650499966654
		outer loop
			vertex 5.7572045326233 0.76945775747299 0.26876187324524
			vertex 5.9852666854858 1.041548371315 0.36570444703102
			vertex 5.7572045326233 0.87945777177811 0.45928746461868
		endloop
	endfacet
	facet normal 0.098017421244504 -0.86185571406116 0.49759151246048
		outer loop
			vertex 6.5277891159058 1.1261615753174 0.062818810343742
			vertex 6.8214001655579 1.1512055397034 0.048359733074903
			vertex 6.8214001655579 1.1781332492828 0.094999998807907
		endloop
	endfacet
	facet normal 0.098017144995251 -0.86185497728837 0.49759284300544
		outer loop
			vertex 6.6413998603821 1.157662153244 0.094999998807907
			vertex 6.5277891159058 1.1261615753174 0.062818810343742
			vertex 6.8214001655579 1.1781332492828 0.094999998807907
		endloop
	endfacet
	facet normal -0.098017487798647 -0.86185570838433 0.49759150918297
		outer loop
			vertex 6.8214001655579 1.1512055397034 0.048359733074903
			vertex 7.0013999938965 1.157662153244 0.094999998807907
			vertex 6.8214001655579 1.1781332492828 0.094999998807907
		endloop
	endfacet
	facet normal -0.098017578899934 -0.86185551082376 0.49759183342305
		outer loop
			vertex 7.0013999938965 1.157662153244 0.094999998807907
			vertex 6.8214001655579 1.1512055397034 0.048359733074903
			vertex 7.1150107383728 1.1261615753174 0.062818810343742
		endloop
	endfacet
	facet normal 0.29028437082543 -0.82873468076628 0.47847028429119
		outer loop
			vertex 6.2454614639282 1.0519925355911 0.10564038157463
			vertex 6.5277891159058 1.1261615753174 0.062818810343742
			vertex 6.5277891159058 1.2361615896225 0.25334438681602
		endloop
	endfacet
	facet normal 0.098017323768992 -0.86185519711125 0.49759242704597
		outer loop
			vertex 6.6413998603821 1.157662153244 0.094999998807907
			vertex 6.5277891159058 1.2361615896225 0.25334438681602
			vertex 6.5277891159058 1.1261615753174 0.062818810343742
		endloop
	endfacet
	facet normal 0.098017198925788 -0.86185524835724 0.4975923628773
		outer loop
			vertex 6.6413998603821 1.157662153244 0.094999998807907
			vertex 6.7073998451233 1.2373369932175 0.21999999880791
			vertex 6.5277891159058 1.2361615896225 0.25334438681602
		endloop
	endfacet
	facet normal 0.098017688196228 -0.86185701682441 0.49758920341101
		outer loop
			vertex 6.8214001655579 1.2612054347992 0.23888532817364
			vertex 6.7073998451233 1.2373369932175 0.21999999880791
			vertex 6.8214001655579 1.2503020763397 0.21999999880791
		endloop
	endfacet
	facet normal -0.098017323768992 -0.86185519711125 0.49759242704597
		outer loop
			vertex 7.0013999938965 1.157662153244 0.094999998807907
			vertex 7.1150107383728 1.1261615753174 0.062818810343742
			vertex 7.1150107383728 1.2361615896225 0.25334438681602
		endloop
	endfacet
	facet normal -0.29028437082533 -0.82873492149956 0.47846986732883
		outer loop
			vertex 7.1150107383728 1.1261615753174 0.062818810343742
			vertex 7.3973383903503 1.0519925355911 0.10564038157463
			vertex 7.3973383903503 1.161992430687 0.29616597294807
		endloop
	endfacet
	facet normal -0.098017198925788 -0.86185524835724 0.4975923628773
		outer loop
			vertex 7.0013999938965 1.157662153244 0.094999998807907
			vertex 7.1150107383728 1.2361615896225 0.25334438681602
			vertex 6.9354000091553 1.2373369932175 0.21999999880791
		endloop
	endfacet
	facet normal -0.29028471438741 -0.82873459051056 0.47847023218202
		outer loop
			vertex 7.1150107383728 1.1261615753174 0.062818810343742
			vertex 7.3973383903503 1.161992430687 0.29616597294807
			vertex 7.1150107383728 1.2361615896225 0.25334438681602
		endloop
	endfacet
	facet normal -0.47139660194638 -0.76376625921429 0.44096070682002
		outer loop
			vertex 7.3973383903503 1.0519925355911 0.10564038157463
			vertex 7.6575331687927 0.93154835700989 0.17517885565758
			vertex 7.6575331687927 1.041548371315 0.36570444703102
		endloop
	endfacet
	facet normal 0.098017043419978 -0.86185576006654 0.49759150720177
		outer loop
			vertex 6.7073998451233 1.2373369932175 0.21999999880791
			vertex 6.8214001655579 1.2612054347992 0.23888532817364
			vertex 6.5277891159058 1.2361615896225 0.25334438681602
		endloop
	endfacet
	facet normal -0.098017201074352 -0.8618570583742 0.49758922739959
		outer loop
			vertex 6.8214001655579 1.2612054347992 0.23888532817364
			vertex 6.8214001655579 1.2503020763397 0.21999999880791
			vertex 7.1150107383728 1.2361615896225 0.25334438681602
		endloop
	endfacet
	facet normal -0.098017706938823 -0.861853576675 0.49759515823504
		outer loop
			vertex 6.9354000091553 1.2373369932175 0.21999999880791
			vertex 7.1150107383728 1.2361615896225 0.25334438681602
			vertex 6.8214001655579 1.2503020763397 0.21999999880791
		endloop
	endfacet
	facet normal -0.77301098722958 -0.54940012067964 0.31719634458731
		outer loop
			vertex 8.0727615356445 0.57194983959198 0.38279312849045
			vertex 8.0727615356445 0.68194985389709 0.57331871986389
			vertex 7.8855957984924 0.76945775747299 0.26876187324524
		endloop
	endfacet
	facet normal -0.77301098722958 -0.54940012067964 0.31719634458731
		outer loop
			vertex 7.8855957984924 0.76945775747299 0.26876187324524
			vertex 8.0727615356445 0.68194985389709 0.57331871986389
			vertex 7.8855957984924 0.87945777177811 0.45928746461868
		endloop
	endfacet
	facet normal -0.47139632978158 -0.7637665921267 0.44096042114867
		outer loop
			vertex 7.3973383903503 1.0519925355911 0.10564038157463
			vertex 7.6575331687927 1.041548371315 0.36570444703102
			vertex 7.3973383903503 1.161992430687 0.29616597294807
		endloop
	endfacet
	facet normal -0.63439312726366 -0.6694467819835 0.38650532489549
		outer loop
			vertex 7.6575331687927 0.93154835700989 0.17517885565758
			vertex 7.8855957984924 0.76945775747299 0.26876187324524
			vertex 7.8855957984924 0.87945777177811 0.45928746461868
		endloop
	endfacet
	facet normal -0.63439312726366 -0.6694467819835 0.38650532489549
		outer loop
			vertex 7.6575331687927 0.93154835700989 0.17517885565758
			vertex 7.8855957984924 0.87945777177811 0.45928746461868
			vertex 7.6575331687927 1.041548371315 0.36570444703102
		endloop
	endfacet
	facet normal 0.88192089884111 -0.40824212964232 0.23569873095203
		outer loop
			vertex 5.570038318634 0.57194983959198 0.38279312849045
			vertex 5.570038318634 0.68194985389709 0.57331871986389
			vertex 5.4309611320496 0.34661468863487 0.51289045810699
		endloop
	endfacet
	facet normal 0.77301019464511 -0.54940095705872 0.31719682747105
		outer loop
			vertex 5.570038318634 0.57194983959198 0.38279312849045
			vertex 5.7572045326233 0.87945777177811 0.45928746461868
			vertex 5.570038318634 0.68194985389709 0.57331871986389
		endloop
	endfacet
	facet normal 0.95694042373377 -0.25139366328813 0.14514217678817
		outer loop
			vertex 5.348081111908 0.10999999940395 0.64950001239777
			vertex 5.4309611320496 0.34661468863487 0.51289045810699
			vertex 5.4309611320496 0.45661467313766 0.70341604948044
		endloop
	endfacet
	facet normal 0.88192091828067 -0.4082421257973 0.23569866487421
		outer loop
			vertex 5.4309611320496 0.34661468863487 0.51289045810699
			vertex 5.570038318634 0.68194985389709 0.57331871986389
			vertex 5.4309611320496 0.45661467313766 0.70341604948044
		endloop
	endfacet
	facet normal 0.95694041992511 -0.25139366564773 0.14514219781218
		outer loop
			vertex 5.348081111908 0.21999999880791 0.84002560377121
			vertex 5.348081111908 0.10999999940395 0.64950001239777
			vertex 5.4309611320496 0.45661467313766 0.70341604948044
		endloop
	endfacet
	facet normal -0.88192089884111 -0.4082421572936 0.23569868305861
		outer loop
			vertex 8.0727615356445 0.57194983959198 0.38279312849045
			vertex 8.211838722229 0.34661468863487 0.51289045810699
			vertex 8.211838722229 0.45661467313766 0.70341604948044
		endloop
	endfacet
	facet normal -0.88192091828067 -0.40824209814602 0.23569871276763
		outer loop
			vertex 8.0727615356445 0.57194983959198 0.38279312849045
			vertex 8.211838722229 0.45661467313766 0.70341604948044
			vertex 8.0727615356445 0.68194985389709 0.57331871986389
		endloop
	endfacet
	facet normal -0.95694042373377 -0.25139365477436 0.14514219153445
		outer loop
			vertex 8.2947187423706 0.10999999940395 0.64950001239777
			vertex 8.2947187423706 0.21999999880791 0.84002560377121
			vertex 8.211838722229 0.34661468863487 0.51289045810699
		endloop
	endfacet
	facet normal -0.95694041992511 -0.25139367416149 0.14514218306591
		outer loop
			vertex 8.2947187423706 0.21999999880791 0.84002560377121
			vertex 8.211838722229 0.45661467313766 0.70341604948044
			vertex 8.211838722229 0.34661468863487 0.51289045810699
		endloop
	endfacet
endsolid