solid csg_export
	facet normal -1 0 0
		outer loop
			vertex 0 6.2213668823242 0.012266729958355
			vertex 0 6.2213668823242 0.21999999880791
			vertex 0 6.3857417106628 0.21999999880791
		endloop
	endfacet
	facet normal 0 1 0
		outer loop
			vertex 0 6.441367149353 0
			vertex 0 6.441367149353 0.21999999880791
			vertex 1.1754138469696 6.441367149353 0.21999999880791
		endloop
	endfacet
	facet normal -1 0 0
		outer loop
			vertex 0 6.441367149353 0.21999999880791
			vertex 0 6.3857417106628 0.21999999880791
			vertex 0 6.441367149353 0.90850001573563
		endloop
	endfacet
	facet normal -1 0 0
		outer loop
			vertex 0 6.3857417106628 0.21999999880791
			vertex 0 6.2213668823242 0.21999999880791
			vertex 0 6.2213668823242 0.90850001573563
		endloop
	endfacet
	facet normal 0 1 0
		outer loop
			vertex 0 6.441367149353 0.21999999880791
			vertex 0 6.441367149353 0.90850001573563
			vertex 1.1754138469696 6.441367149353 0.21999999880791
		endloop
	endfacet
	facet normal 0 -1 0
		outer loop
			vertex 0 6.2213668823242 0.21999999880791
			vertex 1.5360000133514 6.2213668823242 0.21999999880791
			vertex 0 6.2213668823242 0.90850001573563
		endloop
	endfacet
	facet normal 0 1 0
		outer loop
			vertex 0 6.441367149353 0
			vertex 1.1754138469696 6.441367149353 0.21999999880791
			vertex 1.3263736963272 6.441367149353 0.13157507777214
		endloop
	endfacet
	facet normal 0 -1 0
		outer loop
			vertex 1.5360000133514 6.2213668823242 0.21999999880791
			vertex 1.7640000581741 6.2213668823242 0.21999999880791
			vertex 0 6.2213668823242 0.90850001573563
		endloop
	endfacet
	facet normal 0 1 0
		outer loop
			vertex 1.1754138469696 6.441367149353 0.21999999880791
			vertex 1.5509999990463 6.441367149353 0.90850001573563
			vertex 1.5360000133514 6.441367149353 0.21999999880791
		endloop
	endfacet
	facet normal 0 1 0
		outer loop
			vertex 1.5360000133514 6.441367149353 0.21999999880791
			vertex 1.5509999990463 6.441367149353 0.90850001573563
			vertex 1.5509999990463 6.441367149353 0.21999999880791
		endloop
	endfacet
	facet normal -1 0 0
		outer loop
			vertex 0 6.3857417106628 0.21999999880791
			vertex 0 6.2213668823242 0.90850001573563
			vertex 0 6.441367149353 0.90850001573563
		endloop
	endfacet
	facet normal 0 1 -0
		outer loop
			vertex 1.1754138469696 6.441367149353 0.21999999880791
			vertex 0 6.441367149353 0.90850001573563
			vertex 1.5509999990463 6.441367149353 0.90850001573563
		endloop
	endfacet
	facet normal 0 0 1
		outer loop
			vertex 0 6.441367149353 0.90850001573563
			vertex 0 6.2213668823242 0.90850001573563
			vertex 3.2999999523163 6.2213668823242 0.90850001573563
		endloop
	endfacet
	facet normal -0 0 1
		outer loop
			vertex 0 6.441367149353 0.90850001573563
			vertex 3.2999999523163 6.2213668823242 0.90850001573563
			vertex 1.5509999990463 6.441367149353 0.90850001573563
		endloop
	endfacet
	facet normal 0 0 -1
		outer loop
			vertex 0 6.2213668823242 0
			vertex 3.2999999523163 6.441367149353 0
			vertex 3.1605563163757 6.2213668823242 0
		endloop
	endfacet
	facet normal 0 1 -0
		outer loop
			vertex 1.8283581733704 6.441367149353 0.09810945391655
			vertex 1.8217540979385 6.441367149353 0.11061714589596
			vertex 2.9244139194489 6.441367149353 0.21999999880791
		endloop
	endfacet
	facet normal 0 -1 0
		outer loop
			vertex 0 6.2213668823242 0.90850001573563
			vertex 1.7640000581741 6.2213668823242 0.21999999880791
			vertex 3.2999999523163 6.2213668823242 0.21999999880791
		endloop
	endfacet
	facet normal 0 1 0
		outer loop
			vertex 1.74899995327 6.441367149353 0.21999999880791
			vertex 1.74899995327 6.441367149353 0.90850001573563
			vertex 1.7640000581741 6.441367149353 0.21999999880791
		endloop
	endfacet
	facet normal 0 1 -0
		outer loop
			vertex 1.7640000581741 6.441367149353 0.21999999880791
			vertex 1.74899995327 6.441367149353 0.90850001573563
			vertex 2.9244139194489 6.441367149353 0.21999999880791
		endloop
	endfacet
	facet normal -0 1 0
		outer loop
			vertex 1.8283581733704 6.441367149353 0.09810945391655
			vertex 2.9244139194489 6.441367149353 0.21999999880791
			vertex 3.2999999523163 6.441367149353 0
		endloop
	endfacet
	facet normal 1 0 0
		outer loop
			vertex 3.2999999523163 6.2213668823242 0
			vertex 3.2999999523163 6.2729177474976 0.21288207173347
			vertex 3.2999999523163 6.2213668823242 0.21999999880791
		endloop
	endfacet
	facet normal 0 1 0
		outer loop
			vertex 2.9244139194489 6.441367149353 0.21999999880791
			vertex 3.2999999523163 6.441367149353 0.90850001573563
			vertex 3.2999999523163 6.441367149353 0.21999999880791
		endloop
	endfacet
	facet normal 1 0 -0
		outer loop
			vertex 3.2999999523163 6.441367149353 0.21999999880791
			vertex 3.2999999523163 6.441367149353 0.90850001573563
			vertex 3.2999999523163 6.2729177474976 0.21288207173347
		endloop
	endfacet
	facet normal 1 0 0
		outer loop
			vertex 3.2999999523163 6.2729177474976 0.21288207173347
			vertex 3.2999999523163 6.2213668823242 0.90850001573563
			vertex 3.2999999523163 6.2213668823242 0.21999999880791
		endloop
	endfacet
	facet normal 0 -1 0
		outer loop
			vertex 0 6.2213668823242 0.90850001573563
			vertex 3.2999999523163 6.2213668823242 0.21999999880791
			vertex 3.2999999523163 6.2213668823242 0.90850001573563
		endloop
	endfacet
	facet normal -0 0 1
		outer loop
			vertex 1.5509999990463 6.441367149353 0.90850001573563
			vertex 3.2999999523163 6.2213668823242 0.90850001573563
			vertex 1.74899995327 6.441367149353 0.90850001573563
		endloop
	endfacet
	facet normal 0 1 -0
		outer loop
			vertex 2.9244139194489 6.441367149353 0.21999999880791
			vertex 1.74899995327 6.441367149353 0.90850001573563
			vertex 3.2999999523163 6.441367149353 0.90850001573563
		endloop
	endfacet
	facet normal 1 0 -0
		outer loop
			vertex 3.2999999523163 6.2729177474976 0.21288207173347
			vertex 3.2999999523163 6.441367149353 0.90850001573563
			vertex 3.2999999523163 6.2213668823242 0.90850001573563
		endloop
	endfacet
	facet normal -0 0 1
		outer loop
			vertex 1.74899995327 6.441367149353 0.90850001573563
			vertex 3.2999999523163 6.2213668823242 0.90850001573563
			vertex 3.2999999523163 6.441367149353 0.90850001573563
		endloop
	endfacet
	facet normal 0 0 -1
		outer loop
			vertex 1.4850000143051 6.5513668060303 0
			vertex 1.74899995327 6.441367149353 0
			vertex 1.5509999990463 6.441367149353 0
		endloop
	endfacet
	facet normal -0.85749226974588 -0.51449684870372 0
		outer loop
			vertex 1.4850000143051 6.5513668060303 0
			vertex 1.5509999990463 6.441367149353 0
			vertex 1.4850000143051 6.5513668060303 0.90850001573563
		endloop
	endfacet
	facet normal -0.85749226974588 -0.51449684870372 0
		outer loop
			vertex 1.5509999990463 6.441367149353 0
			vertex 1.5509999990463 6.441367149353 0.094999998807907
			vertex 1.4850000143051 6.5513668060303 0.90850001573563
		endloop
	endfacet
	facet normal -0.85749226974588 -0.51449684870372 0
		outer loop
			vertex 1.5509999990463 6.441367149353 0.094999998807907
			vertex 1.5509999990463 6.441367149353 0.21999999880791
			vertex 1.4850000143051 6.5513668060303 0.90850001573563
		endloop
	endfacet
	facet normal 0 1 0
		outer loop
			vertex 1.4850000143051 6.5513668060303 0
			vertex 1.4850000143051 6.5513668060303 0.90850001573563
			vertex 1.8150000572205 6.5513668060303 0.90850001573563
		endloop
	endfacet
	facet normal -0.85749226974588 -0.51449684870372 0
		outer loop
			vertex 1.5509999990463 6.441367149353 0.21999999880791
			vertex 1.5509999990463 6.441367149353 0.90850001573563
			vertex 1.4850000143051 6.5513668060303 0.90850001573563
		endloop
	endfacet
	facet normal 0 0 1
		outer loop
			vertex 1.4850000143051 6.5513668060303 0.90850001573563
			vertex 1.5509999990463 6.441367149353 0.90850001573563
			vertex 1.74899995327 6.441367149353 0.90850001573563
		endloop
	endfacet
	facet normal 0 0 -1
		outer loop
			vertex 1.4850000143051 6.5513668060303 0
			vertex 1.8150000572205 6.5513668060303 0
			vertex 1.74899995327 6.441367149353 0
		endloop
	endfacet
	facet normal 0.85749185976652 -0.51449753200007 0
		outer loop
			vertex 1.74899995327 6.441367149353 0
			vertex 1.8150000572205 6.5513668060303 0
			vertex 1.74899995327 6.441367149353 0.094999998807907
		endloop
	endfacet
	facet normal 0.85749185976652 -0.51449753200007 0
		outer loop
			vertex 1.8150000572205 6.5513668060303 0
			vertex 1.74899995327 6.441367149353 0.21999999880791
			vertex 1.74899995327 6.441367149353 0.094999998807907
		endloop
	endfacet
	facet normal 0 1 0
		outer loop
			vertex 1.4850000143051 6.5513668060303 0
			vertex 1.8150000572205 6.5513668060303 0.90850001573563
			vertex 1.8150000572205 6.5513668060303 0
		endloop
	endfacet
	facet normal 0.85749185976652 -0.51449753200007 0
		outer loop
			vertex 1.8150000572205 6.5513668060303 0
			vertex 1.74899995327 6.441367149353 0.90850001573563
			vertex 1.74899995327 6.441367149353 0.21999999880791
		endloop
	endfacet
	facet normal 0.85749185976652 -0.51449753200007 0
		outer loop
			vertex 1.8150000572205 6.5513668060303 0
			vertex 1.8150000572205 6.5513668060303 0.90850001573563
			vertex 1.74899995327 6.441367149353 0.90850001573563
		endloop
	endfacet
	facet normal -0 0 1
		outer loop
			vertex 1.4850000143051 6.5513668060303 0.90850001573563
			vertex 1.74899995327 6.441367149353 0.90850001573563
			vertex 1.8150000572205 6.5513668060303 0.90850001573563
		endloop
	endfacet
	facet normal -1 0 0
		outer loop
			vertex 0 6.441367149353 0
			vertex 0 6.2213668823242 0.012266729958355
			vertex 0 6.3857417106628 0.21999999880791
		endloop
	endfacet
	facet normal -1 0 0
		outer loop
			vertex 0 6.441367149353 0
			vertex 0 6.3857417106628 0.21999999880791
			vertex 0 6.441367149353 0.21999999880791
		endloop
	endfacet
	facet normal 0 0 -1
		outer loop
			vertex 0 6.441367149353 0
			vertex 1.5509999990463 6.441367149353 0
			vertex 0 6.2213668823242 0
		endloop
	endfacet
	facet normal -1 0 0
		outer loop
			vertex 0 6.441367149353 0
			vertex 0 6.2213668823242 0
			vertex 0 1.344967007637 0.19052559137344
		endloop
	endfacet
	facet normal -1 0 0
		outer loop
			vertex 0 6.441367149353 0
			vertex 0 1.344967007637 0.19052559137344
			vertex 0 6.2213668823242 0.012266729958355
		endloop
	endfacet
	facet normal -1 0 0
		outer loop
			vertex 0 6.2213668823242 0.012266729958355
			vertex 0 1.344967007637 0.19052559137344
			vertex 0 6.2213668823242 0.21999999880791
		endloop
	endfacet
	facet normal -0 0 1
		outer loop
			vertex 0 6.2213668823242 0.21999999880791
			vertex 0 1.2939158678055 0.21999999880791
			vertex 1.5360000133514 6.2213668823242 0.21999999880791
		endloop
	endfacet
	facet normal 0 1 0
		outer loop
			vertex 0 6.441367149353 0
			vertex 1.3263736963272 6.441367149353 0.13157507777214
			vertex 1.5509999990463 6.441367149353 0
		endloop
	endfacet
	facet normal 0 0 -1
		outer loop
			vertex 0 6.2213668823242 0
			vertex 1.5509999990463 6.441367149353 0
			vertex 1.74899995327 6.441367149353 0
		endloop
	endfacet
	facet normal 0 1 0
		outer loop
			vertex 1.5509999990463 6.441367149353 0
			vertex 1.3263736963272 6.441367149353 0.13157507777214
			vertex 1.4700000286102 6.441367149353 0.094999998807907
		endloop
	endfacet
	facet normal 0 1 -0
		outer loop
			vertex 1.5509999990463 6.441367149353 0
			vertex 1.4700000286102 6.441367149353 0.094999998807907
			vertex 1.5509999990463 6.441367149353 0.094999998807907
		endloop
	endfacet
	facet normal -0 1 0
		outer loop
			vertex 1.1754138469696 6.441367149353 0.21999999880791
			vertex 1.5360000133514 6.441367149353 0.21999999880791
			vertex 1.3263736963272 6.441367149353 0.13157507777214
		endloop
	endfacet
	facet normal 0 1 -0
		outer loop
			vertex 1.4700000286102 6.441367149353 0.094999998807907
			vertex 1.3263736963272 6.441367149353 0.13157507777214
			vertex 1.5360000133514 6.441367149353 0.21999999880791
		endloop
	endfacet
	facet normal 0 0 -1
		outer loop
			vertex 0 6.2213668823242 0
			vertex 3.1605563163757 6.2213668823242 0
			vertex 0 1.2349669933319 0
		endloop
	endfacet
	facet normal -1 0 0
		outer loop
			vertex 0 6.2213668823242 0
			vertex 0 1.2349669933319 0
			vertex 0 1.344967007637 0.19052559137344
		endloop
	endfacet
	facet normal -1 -0 0
		outer loop
			vertex 0 6.2213668823242 0.21999999880791
			vertex 0 1.344967007637 0.19052559137344
			vertex 0 1.2939158678055 0.21999999880791
		endloop
	endfacet
	facet normal 0 0 1
		outer loop
			vertex 1.5360000133514 6.2213668823242 0.21999999880791
			vertex 0 1.2939158678055 0.21999999880791
			vertex 1.5360000133514 1.2939158678055 0.21999999880791
		endloop
	endfacet
	facet normal 0 0 -1
		outer loop
			vertex 0 6.2213668823242 0
			vertex 1.74899995327 6.441367149353 0
			vertex 3.2999999523163 6.441367149353 0
		endloop
	endfacet
	facet normal 0 1 0
		outer loop
			vertex 1.74899995327 6.441367149353 0
			vertex 1.74899995327 6.441367149353 0.094999998807907
			vertex 1.8300000429153 6.441367149353 0.094999998807907
		endloop
	endfacet
	facet normal 0 1 0
		outer loop
			vertex 1.74899995327 6.441367149353 0
			vertex 1.8300000429153 6.441367149353 0.094999998807907
			vertex 3.2999999523163 6.441367149353 0
		endloop
	endfacet
	facet normal -0 1 -0
		outer loop
			vertex 1.8300000429153 6.441367149353 0.094999998807907
			vertex 1.8283581733704 6.441367149353 0.09810945391655
			vertex 3.2999999523163 6.441367149353 0
		endloop
	endfacet
	facet normal 0 1 -0
		outer loop
			vertex 1.8217540979385 6.441367149353 0.11061714589596
			vertex 1.7640000581741 6.441367149353 0.21999999880791
			vertex 2.9244139194489 6.441367149353 0.21999999880791
		endloop
	endfacet
	facet normal -0 0 1
		outer loop
			vertex 1.7640000581741 6.2213668823242 0.21999999880791
			vertex 1.7640000581741 1.2939158678055 0.21999999880791
			vertex 3.2999999523163 6.2213668823242 0.21999999880791
		endloop
	endfacet
	facet normal 0 0 -1
		outer loop
			vertex 3.1605563163757 6.2213668823242 0
			vertex 3.2999999523163 6.441367149353 0
			vertex 3.2999999523163 6.2213668823242 0
		endloop
	endfacet
	facet normal 1 0 0
		outer loop
			vertex 3.2999999523163 6.441367149353 0
			vertex 3.2999999523163 6.2729177474976 0.21288207173347
			vertex 3.2999999523163 6.2213668823242 0
		endloop
	endfacet
	facet normal 0 1 -0
		outer loop
			vertex 3.2999999523163 6.441367149353 0
			vertex 2.9244139194489 6.441367149353 0.21999999880791
			vertex 3.2999999523163 6.441367149353 0.21999999880791
		endloop
	endfacet
	facet normal 1 0 -0
		outer loop
			vertex 3.2999999523163 6.441367149353 0
			vertex 3.2999999523163 6.441367149353 0.21999999880791
			vertex 3.2999999523163 6.2729177474976 0.21288207173347
		endloop
	endfacet
	facet normal 0 0 -1
		outer loop
			vertex 3.1605563163757 6.2213668823242 0
			vertex 3.2999999523163 6.2213668823242 0
			vertex 3.2999999523163 1.2349669933319 0
		endloop
	endfacet
	facet normal 1 0 -0
		outer loop
			vertex 3.2999999523163 6.2213668823242 0
			vertex 3.2999999523163 6.2213668823242 0.21999999880791
			vertex 3.2999999523163 1.344967007637 0.19052559137344
		endloop
	endfacet
	facet normal 0 0 -1
		outer loop
			vertex 0 1.2349669933319 0
			vertex 3.1605563163757 6.2213668823242 0
			vertex 3.2999999523163 1.2349669933319 0
		endloop
	endfacet
	facet normal 0 0 1
		outer loop
			vertex 3.2999999523163 6.2213668823242 0.21999999880791
			vertex 1.7640000581741 1.2939158678055 0.21999999880791
			vertex 3.2999999523163 1.2939158678055 0.21999999880791
		endloop
	endfacet
	facet normal 1 0 0
		outer loop
			vertex 3.2999999523163 6.2213668823242 0
			vertex 3.2999999523163 1.344967007637 0.19052559137344
			vertex 3.2999999523163 1.2349669933319 0
		endloop
	endfacet
	facet normal 1 0 0
		outer loop
			vertex 3.2999999523163 6.2213668823242 0.21999999880791
			vertex 3.2999999523163 1.2939158678055 0.21999999880791
			vertex 3.2999999523163 1.344967007637 0.19052559137344
		endloop
	endfacet
	facet normal 1 0 0
		outer loop
			vertex 3.2999999523163 1.2349669933319 0
			vertex 3.2999999523163 1.344967007637 0.19052559137344
			vertex 3.2999999523163 1.2656599283218 0.21999999880791
		endloop
	endfacet
	facet normal 1 0 0
		outer loop
			vertex 3.2999999523163 1.2349669933319 0
			vertex 3.2999999523163 1.2656599283218 0.21999999880791
			vertex 3.2999999523163 1.2349669933319 0.21999999880791
		endloop
	endfacet
	facet normal -1 0 0
		outer loop
			vertex 0 1.2349669933319 0
			vertex 0 1.2939158678055 0.21999999880791
			vertex 0 1.344967007637 0.19052559137344
		endloop
	endfacet
	facet normal -1.9225633872526e-08 -0.5000000050462 -0.86602540087101
		outer loop
			vertex 0 1.2349669933319 0
			vertex 0.58580428361893 0.76945775747299 0.26876187324524
			vertex 0.39863821864128 0.57194983959198 0.38279312849045
		endloop
	endfacet
	facet normal -5.3535168081938e-08 -0.50000033914062 -0.86602520798142
		outer loop
			vertex 0 1.2349669933319 0
			vertex 1.3563890457153 1.1261615753174 0.062818810343742
			vertex 1.0740613937378 1.0519925355911 0.10564038157463
		endloop
	endfacet
	facet normal 2.1513523026906e-08 -0.50000000873841 -0.86602539873931
		outer loop
			vertex 0 1.2349669933319 0
			vertex 1.0740613937378 1.0519925355911 0.10564038157463
			vertex 0.81386679410934 0.93154835700989 0.17517885565758
		endloop
	endfacet
	facet normal 6.0975203590965e-08 -0.49999992935168 -0.86602544457326
		outer loop
			vertex 0 1.2349669933319 0
			vertex 0.81386679410934 0.93154835700989 0.17517885565758
			vertex 0.58580428361893 0.76945775747299 0.26876187324524
		endloop
	endfacet
	facet normal -6.564158733911e-08 -0.50000002597685 -0.86602538878669
		outer loop
			vertex 0 1.2349669933319 0
			vertex 0.39863821864128 0.57194983959198 0.38279312849045
			vertex 0.25956130027771 0.34661468863487 0.51289045810699
		endloop
	endfacet
	facet normal -1 0 0
		outer loop
			vertex 0 1.2349669933319 0
			vertex 0 0.21999999880791 0.84002560377121
			vertex 0 1.2939158678055 0.21999999880791
		endloop
	endfacet
	facet normal 3.4902210911419e-08 0.49999999390441 0.86602540730373
		outer loop
			vertex 0 1.2939158678055 0.21999999880791
			vertex 0.39863821864128 0.68194985389709 0.57331871986389
			vertex 0.58580428361893 0.87945777177811 0.45928746461868
		endloop
	endfacet
	facet normal 2.537387527397e-08 -0.50000000603198 -0.86602540030187
		outer loop
			vertex 0 1.2349669933319 0
			vertex 0.25956130027771 0.34661468863487 0.51289045810699
			vertex 0.17668119072914 0.10999999940395 0.64950001239777
		endloop
	endfacet
	facet normal 0 -0.50000000902079 -0.86602539857628
		outer loop
			vertex 0 1.2349669933319 0
			vertex 0.17668119072914 0.10999999940395 0.64950001239777
			vertex 0 0.10999999940395 0.64950001239777
		endloop
	endfacet
	facet normal 3.3956613267798e-08 0.49999992280518 0.86602544835288
		outer loop
			vertex 0 1.2939158678055 0.21999999880791
			vertex 1.0740613937378 1.161992430687 0.29616597294807
			vertex 1.3563890457153 1.2361615896225 0.25334438681602
		endloop
	endfacet
	facet normal 8.1484000994893e-08 0.50000021301521 0.86602528080001
		outer loop
			vertex 0 1.2939158678055 0.21999999880791
			vertex 0.81386679410934 1.041548371315 0.36570444703102
			vertex 1.0740613937378 1.161992430687 0.29616597294807
		endloop
	endfacet
	facet normal -4.3444189616745e-08 0.49999991085199 0.86602545525406
		outer loop
			vertex 0 1.2939158678055 0.21999999880791
			vertex 0.58580428361893 0.87945777177811 0.45928746461868
			vertex 0.81386679410934 1.041548371315 0.36570444703102
		endloop
	endfacet
	facet normal 8.0179201067622e-08 -0.49999908895867 -0.86602592977375
		outer loop
			vertex 0 1.2349669933319 0
			vertex 1.6499999761581 1.1512055397034 0.048359733074903
			vertex 1.3563890457153 1.1261615753174 0.062818810343742
		endloop
	endfacet
	facet normal 0 -0.50000027353414 -0.86602524585937
		outer loop
			vertex 0 1.2349669933319 0
			vertex 3.2999999523163 1.2349669933319 0
			vertex 1.6499999761581 1.1512055397034 0.048359733074903
		endloop
	endfacet
	facet normal -0 0.49999904815635 0.86602595333093
		outer loop
			vertex 1.5360000133514 1.2939158678055 0.21999999880791
			vertex 1.6499999761581 1.2612054347992 0.23888532817364
			vertex 1.7640000581741 1.2939158678055 0.21999999880791
		endloop
	endfacet
	facet normal -0 0.49999932468832 0.86602579367547
		outer loop
			vertex 0 1.2939158678055 0.21999999880791
			vertex 1.3563890457153 1.2361615896225 0.25334438681602
			vertex 1.5360000133514 1.2939158678055 0.21999999880791
		endloop
	endfacet
	facet normal 5.5906984537208e-08 0.49999919428866 0.86602586896159
		outer loop
			vertex 1.5360000133514 1.2939158678055 0.21999999880791
			vertex 1.3563890457153 1.2361615896225 0.25334438681602
			vertex 1.6499999761581 1.2612054347992 0.23888532817364
		endloop
	endfacet
	facet normal -1 0 0
		outer loop
			vertex 0 1.2349669933319 0
			vertex 0 0.10999999940395 0.64950001239777
			vertex 0 0.21999999880791 0.84002560377121
		endloop
	endfacet
	facet normal 3.1439143596183e-08 0.49999999221251 0.86602540828055
		outer loop
			vertex 0 1.2939158678055 0.21999999880791
			vertex 0.25956130027771 0.45661467313766 0.70341604948044
			vertex 0.39863821864128 0.68194985389709 0.57331871986389
		endloop
	endfacet
	facet normal 3.6086206247673e-08 0.49999999329294 0.86602540765676
		outer loop
			vertex 0 1.2939158678055 0.21999999880791
			vertex 0 0.21999999880791 0.84002560377121
			vertex 0.25956130027771 0.45661467313766 0.70341604948044
		endloop
	endfacet
	facet normal 0 -0.86602540784495 0.49999999296699
		outer loop
			vertex 0 0.10999999940395 0.64950001239777
			vertex 0.17668119072914 0.10999999940395 0.64950001239777
			vertex 0.17668119072914 0.21999999880791 0.84002560377121
		endloop
	endfacet
	facet normal 0 -0.86602540784495 0.49999999296699
		outer loop
			vertex 0 0.10999999940395 0.64950001239777
			vertex 0.17668119072914 0.21999999880791 0.84002560377121
			vertex 0 0.21999999880791 0.84002560377121
		endloop
	endfacet
	facet normal -0 0.5000000229823 0.8660253905156
		outer loop
			vertex 0 0.21999999880791 0.84002560377121
			vertex 0.17668119072914 0.21999999880791 0.84002560377121
			vertex 0.25956130027771 0.45661467313766 0.70341604948044
		endloop
	endfacet
	facet normal -8.0179201067622e-08 -0.49999908895867 -0.86602592977375
		outer loop
			vertex 3.2999999523163 1.2349669933319 0
			vertex 1.943610906601 1.1261615753174 0.062818810343742
			vertex 1.6499999761581 1.1512055397034 0.048359733074903
		endloop
	endfacet
	facet normal -5.5906971140774e-08 0.49999919428878 0.86602586896153
		outer loop
			vertex 1.7640000581741 1.2939158678055 0.21999999880791
			vertex 1.6499999761581 1.2612054347992 0.23888532817364
			vertex 1.943610906601 1.2361615896225 0.25334438681602
		endloop
	endfacet
	facet normal -0 0.49999932468832 0.86602579367547
		outer loop
			vertex 1.7640000581741 1.2939158678055 0.21999999880791
			vertex 1.943610906601 1.2361615896225 0.25334438681602
			vertex 3.2999999523163 1.2939158678055 0.21999999880791
		endloop
	endfacet
	facet normal 5.3535168081938e-08 -0.50000033914062 -0.86602520798142
		outer loop
			vertex 3.2999999523163 1.2349669933319 0
			vertex 2.2259385585785 1.0519925355911 0.10564038157463
			vertex 1.943610906601 1.1261615753174 0.062818810343742
		endloop
	endfacet
	facet normal -2.1513524352694e-08 -0.50000000873841 -0.86602539873932
		outer loop
			vertex 3.2999999523163 1.2349669933319 0
			vertex 2.4861330986023 0.93154835700989 0.17517885565758
			vertex 2.2259385585785 1.0519925355911 0.10564038157463
		endloop
	endfacet
	facet normal -6.0975189695704e-08 -0.4999999293517 -0.86602544457325
		outer loop
			vertex 3.2999999523163 1.2349669933319 0
			vertex 2.714195728302 0.76945775747299 0.26876187324524
			vertex 2.4861330986023 0.93154835700989 0.17517885565758
		endloop
	endfacet
	facet normal 1 0 0
		outer loop
			vertex 3.2999999523163 1.344967007637 0.19052559137344
			vertex 3.2999999523163 1.2939158678055 0.21999999880791
			vertex 3.2999999523163 1.2656599283218 0.21999999880791
		endloop
	endfacet
	facet normal 1.9225638933443e-08 -0.5000000050462 -0.86602540087101
		outer loop
			vertex 3.2999999523163 1.2349669933319 0
			vertex 2.9013617038727 0.57194983959198 0.38279312849045
			vertex 2.714195728302 0.76945775747299 0.26876187324524
		endloop
	endfacet
	facet normal -3.3956613267798e-08 0.49999992280518 0.86602544835288
		outer loop
			vertex 3.2999999523163 1.2939158678055 0.21999999880791
			vertex 1.943610906601 1.2361615896225 0.25334438681602
			vertex 2.2259385585785 1.161992430687 0.29616597294807
		endloop
	endfacet
	facet normal -8.1484004909174e-08 0.50000021301524 0.8660252808
		outer loop
			vertex 3.2999999523163 1.2939158678055 0.21999999880791
			vertex 2.2259385585785 1.161992430687 0.29616597294807
			vertex 2.4861330986023 1.041548371315 0.36570444703102
		endloop
	endfacet
	facet normal 4.3444180503555e-08 0.49999991085201 0.86602545525405
		outer loop
			vertex 3.2999999523163 1.2939158678055 0.21999999880791
			vertex 2.4861330986023 1.041548371315 0.36570444703102
			vertex 2.714195728302 0.87945777177811 0.45928746461868
		endloop
	endfacet
	facet normal 6.564157779241e-08 -0.50000002597685 -0.8660253887867
		outer loop
			vertex 3.2999999523163 1.2349669933319 0
			vertex 3.0404386520386 0.34661468863487 0.51289045810699
			vertex 2.9013617038727 0.57194983959198 0.38279312849045
		endloop
	endfacet
	facet normal 1 0 -0
		outer loop
			vertex 3.2999999523163 1.2349669933319 0
			vertex 3.2999999523163 1.2349669933319 0.21999999880791
			vertex 3.2999999523163 0.10999999940395 0.64950001239777
		endloop
	endfacet
	facet normal -3.4902219728974e-08 0.49999999390441 0.86602540730373
		outer loop
			vertex 3.2999999523163 1.2939158678055 0.21999999880791
			vertex 2.714195728302 0.87945777177811 0.45928746461868
			vertex 2.9013617038727 0.68194985389709 0.57331871986389
		endloop
	endfacet
	facet normal 1 0 0
		outer loop
			vertex 3.2999999523163 1.2939158678055 0.21999999880791
			vertex 3.2999999523163 0.21999999880791 0.84002560377121
			vertex 3.2999999523163 1.2656599283218 0.21999999880791
		endloop
	endfacet
	facet normal 1 0 0
		outer loop
			vertex 3.2999999523163 1.2656599283218 0.21999999880791
			vertex 3.2999999523163 0.10999999940395 0.64950001239777
			vertex 3.2999999523163 1.2349669933319 0.21999999880791
		endloop
	endfacet
	facet normal -1.1734872093139e-08 -0.50000000902079 -0.86602539857628
		outer loop
			vertex 3.2999999523163 1.2349669933319 0
			vertex 3.2999999523163 0.10999999940395 0.64950001239777
			vertex 3.0404386520386 0.34661468863487 0.51289045810699
		endloop
	endfacet
	facet normal -3.1439139111628e-08 0.49999999221251 0.86602540828055
		outer loop
			vertex 3.2999999523163 1.2939158678055 0.21999999880791
			vertex 2.9013617038727 0.68194985389709 0.57331871986389
			vertex 3.0404386520386 0.45661467313766 0.70341604948044
		endloop
	endfacet
	facet normal -7.689616176506e-08 0.50000000278118 0.86602540217872
		outer loop
			vertex 3.2999999523163 1.2939158678055 0.21999999880791
			vertex 3.0404386520386 0.45661467313766 0.70341604948044
			vertex 3.1233189105988 0.21999999880791 0.84002560377121
		endloop
	endfacet
	facet normal 1 0 0
		outer loop
			vertex 3.2999999523163 1.2656599283218 0.21999999880791
			vertex 3.2999999523163 0.21999999880791 0.84002560377121
			vertex 3.2999999523163 0.10999999940395 0.64950001239777
		endloop
	endfacet
	facet normal -0 -0.49999999936612 -0.86602540415041
		outer loop
			vertex 3.2999999523163 0.10999999940395 0.64950001239777
			vertex 3.1233189105988 0.10999999940395 0.64950001239777
			vertex 3.0404386520386 0.34661468863487 0.51289045810699
		endloop
	endfacet
	facet normal 0 0.49999999329294 0.86602540765676
		outer loop
			vertex 3.2999999523163 1.2939158678055 0.21999999880791
			vertex 3.1233189105988 0.21999999880791 0.84002560377121
			vertex 3.2999999523163 0.21999999880791 0.84002560377121
		endloop
	endfacet
	facet normal 0 -0.86602540784495 0.49999999296699
		outer loop
			vertex 3.2999999523163 0.10999999940395 0.64950001239777
			vertex 3.2999999523163 0.21999999880791 0.84002560377121
			vertex 3.1233189105988 0.10999999940395 0.64950001239777
		endloop
	endfacet
	facet normal 0 -0.86602540784495 0.49999999296699
		outer loop
			vertex 3.2999999523163 0.21999999880791 0.84002560377121
			vertex 3.1233189105988 0.21999999880791 0.84002560377121
			vertex 3.1233189105988 0.10999999940395 0.64950001239777
		endloop
	endfacet
	facet normal 0 -1 0
		outer loop
			vertex 1.5509999990463 6.441367149353 0.094999998807907
			vertex 1.74899995327 6.441367149353 0.094999998807907
			vertex 1.5509999990463 6.441367149353 0.21999999880791
		endloop
	endfacet
	facet normal 0.88430366508141 0 -0.46691222721576
		outer loop
			vertex 1.4700000286102 6.441367149353 0.094999998807907
			vertex 1.5360000133514 6.441367149353 0.21999999880791
			vertex 1.5360000133514 6.2213668823242 0.21999999880791
		endloop
	endfacet
	facet normal 0 0 -1
		outer loop
			vertex 1.5360000133514 6.441367149353 0.21999999880791
			vertex 1.5509999990463 6.441367149353 0.21999999880791
			vertex 1.7640000581741 6.2213668823242 0.21999999880791
		endloop
	endfacet
	facet normal 0 0 -1
		outer loop
			vertex 1.5360000133514 6.441367149353 0.21999999880791
			vertex 1.7640000581741 6.2213668823242 0.21999999880791
			vertex 1.5360000133514 6.2213668823242 0.21999999880791
		endloop
	endfacet
	facet normal -0 0 1
		outer loop
			vertex 1.4700000286102 6.441367149353 0.094999998807907
			vertex 1.6499999761581 1.1781332492828 0.094999998807907
			vertex 1.5509999990463 6.441367149353 0.094999998807907
		endloop
	endfacet
	facet normal -0 0 1
		outer loop
			vertex 1.5509999990463 6.441367149353 0.094999998807907
			vertex 1.6499999761581 1.1781332492828 0.094999998807907
			vertex 1.74899995327 6.441367149353 0.094999998807907
		endloop
	endfacet
	facet normal 0.88430366508141 0 -0.46691222721576
		outer loop
			vertex 1.4700000286102 6.441367149353 0.094999998807907
			vertex 1.5360000133514 6.2213668823242 0.21999999880791
			vertex 1.5360000133514 1.2939158678055 0.21999999880791
		endloop
	endfacet
	facet normal 0 0 1
		outer loop
			vertex 1.4700000286102 6.441367149353 0.094999998807907
			vertex 1.4700000286102 1.157662153244 0.094999998807907
			vertex 1.6499999761581 1.1781332492828 0.094999998807907
		endloop
	endfacet
	facet normal 0.88430366508141 0 -0.46691222721576
		outer loop
			vertex 1.4700000286102 6.441367149353 0.094999998807907
			vertex 1.5360000133514 1.2939158678055 0.21999999880791
			vertex 1.4700000286102 1.157662153244 0.094999998807907
		endloop
	endfacet
	facet normal 0.88430366508141 0 -0.46691222721576
		outer loop
			vertex 1.5360000133514 1.2939158678055 0.21999999880791
			vertex 1.5360000133514 1.2373369932175 0.21999999880791
			vertex 1.4700000286102 1.157662153244 0.094999998807907
		endloop
	endfacet
	facet normal 0 0 -1
		outer loop
			vertex 1.5360000133514 1.2939158678055 0.21999999880791
			vertex 1.6499999761581 1.2503020763397 0.21999999880791
			vertex 1.5360000133514 1.2373369932175 0.21999999880791
		endloop
	endfacet
	facet normal 0 0 -1
		outer loop
			vertex 1.5360000133514 1.2939158678055 0.21999999880791
			vertex 1.7640000581741 1.2939158678055 0.21999999880791
			vertex 1.6499999761581 1.2503020763397 0.21999999880791
		endloop
	endfacet
	facet normal 0 -1 0
		outer loop
			vertex 1.5509999990463 6.441367149353 0.21999999880791
			vertex 1.74899995327 6.441367149353 0.094999998807907
			vertex 1.74899995327 6.441367149353 0.21999999880791
		endloop
	endfacet
	facet normal 0 0 -1
		outer loop
			vertex 1.5509999990463 6.441367149353 0.21999999880791
			vertex 1.74899995327 6.441367149353 0.21999999880791
			vertex 1.7640000581741 6.2213668823242 0.21999999880791
		endloop
	endfacet
	facet normal -0.88430397625385 0 -0.46691163787342
		outer loop
			vertex 1.8217540979385 6.441367149353 0.11061714589596
			vertex 1.7640000581741 6.2213668823242 0.21999999880791
			vertex 1.7640000581741 6.441367149353 0.21999999880791
		endloop
	endfacet
	facet normal 0 0 -1
		outer loop
			vertex 1.74899995327 6.441367149353 0.21999999880791
			vertex 1.7640000581741 6.441367149353 0.21999999880791
			vertex 1.7640000581741 6.2213668823242 0.21999999880791
		endloop
	endfacet
	facet normal -0 0 1
		outer loop
			vertex 1.74899995327 6.441367149353 0.094999998807907
			vertex 1.6499999761581 1.1781332492828 0.094999998807907
			vertex 1.8300000429153 6.441367149353 0.094999998807907
		endloop
	endfacet
	facet normal -0.88429454977569 -5.3026961350861e-07 -0.46692949064793
		outer loop
			vertex 1.8300000429153 6.441367149353 0.094999998807907
			vertex 1.7640000581741 1.2373369932175 0.21999999880791
			vertex 1.8283581733704 6.441367149353 0.09810945391655
		endloop
	endfacet
	facet normal -0.88430320987844 -3.9013422514359e-08 -0.46691308934179
		outer loop
			vertex 1.8283581733704 6.441367149353 0.09810945391655
			vertex 1.7640000581741 1.2373369932175 0.21999999880791
			vertex 1.8217540979385 6.441367149353 0.11061714589596
		endloop
	endfacet
	facet normal -0.88430397625385 0 -0.46691163787342
		outer loop
			vertex 1.8217540979385 6.441367149353 0.11061714589596
			vertex 1.7640000581741 1.2939158678055 0.21999999880791
			vertex 1.7640000581741 6.2213668823242 0.21999999880791
		endloop
	endfacet
	facet normal 0 0 1
		outer loop
			vertex 1.8300000429153 6.441367149353 0.094999998807907
			vertex 1.6499999761581 1.1781332492828 0.094999998807907
			vertex 1.8300000429153 1.157662153244 0.094999998807907
		endloop
	endfacet
	facet normal -0.88430366508141 -0 -0.46691222721576
		outer loop
			vertex 1.8300000429153 6.441367149353 0.094999998807907
			vertex 1.8300000429153 1.157662153244 0.094999998807907
			vertex 1.7640000581741 1.2373369932175 0.21999999880791
		endloop
	endfacet
	facet normal -0.88430397625385 0 -0.46691163787342
		outer loop
			vertex 1.8217540979385 6.441367149353 0.11061714589596
			vertex 1.7640000581741 1.2373369932175 0.21999999880791
			vertex 1.7640000581741 1.2939158678055 0.21999999880791
		endloop
	endfacet
	facet normal 0 -0 -1
		outer loop
			vertex 1.7640000581741 1.2939158678055 0.21999999880791
			vertex 1.7640000581741 1.2373369932175 0.21999999880791
			vertex 1.6499999761581 1.2503020763397 0.21999999880791
		endloop
	endfacet
	facet normal 0.6343933254097 -0.66944664115545 0.38650524358837
		outer loop
			vertex 0.81386679410934 1.041548371315 0.36570444703102
			vertex 0.58580428361893 0.76945775747299 0.26876187324524
			vertex 0.81386679410934 0.93154835700989 0.17517885565758
		endloop
	endfacet
	facet normal 0.77301044232771 -0.54940069569053 0.31719667657004
		outer loop
			vertex 0.58580428361893 0.76945775747299 0.26876187324524
			vertex 0.58580428361893 0.87945777177811 0.45928746461868
			vertex 0.39863821864128 0.57194983959198 0.38279312849045
		endloop
	endfacet
	facet normal 0.6343933254097 -0.66944664115545 0.38650524358837
		outer loop
			vertex 0.58580428361893 0.76945775747299 0.26876187324524
			vertex 0.81386679410934 1.041548371315 0.36570444703102
			vertex 0.58580428361893 0.87945777177811 0.45928746461868
		endloop
	endfacet
	facet normal 0.47139685391653 -0.76376634950456 0.44096028107085
		outer loop
			vertex 1.0740613937378 1.0519925355911 0.10564038157463
			vertex 1.0740613937378 1.161992430687 0.29616597294807
			vertex 0.81386679410934 0.93154835700989 0.17517885565758
		endloop
	endfacet
	facet normal 0.29028471438738 -0.82873483124379 0.47846981521969
		outer loop
			vertex 1.0740613937378 1.0519925355911 0.10564038157463
			vertex 1.3563890457153 1.2361615896225 0.25334438681602
			vertex 1.0740613937378 1.161992430687 0.29616597294807
		endloop
	endfacet
	facet normal 0.098017406816071 -0.86185556709906 0.49759176984894
		outer loop
			vertex 1.4700000286102 1.157662153244 0.094999998807907
			vertex 1.3563890457153 1.1261615753174 0.062818810343742
			vertex 1.6499999761581 1.1781332492828 0.094999998807907
		endloop
	endfacet
	facet normal 0.098017460658325 -0.86185571069931 0.49759151051951
		outer loop
			vertex 1.3563890457153 1.1261615753174 0.062818810343742
			vertex 1.6499999761581 1.1512055397034 0.048359733074903
			vertex 1.6499999761581 1.1781332492828 0.094999998807907
		endloop
	endfacet
	facet normal 0.29028437082543 -0.82873468076628 0.47847028429119
		outer loop
			vertex 1.0740613937378 1.0519925355911 0.10564038157463
			vertex 1.3563890457153 1.1261615753174 0.062818810343742
			vertex 1.3563890457153 1.2361615896225 0.25334438681602
		endloop
	endfacet
	facet normal 0.098017120050703 -0.86185521448763 0.49759243707823
		outer loop
			vertex 1.4700000286102 1.157662153244 0.094999998807907
			vertex 1.3563890457153 1.2361615896225 0.25334438681602
			vertex 1.3563890457153 1.1261615753174 0.062818810343742
		endloop
	endfacet
	facet normal 0.09801707851817 -0.86185523153604 0.4975924157307
		outer loop
			vertex 1.4700000286102 1.157662153244 0.094999998807907
			vertex 1.5360000133514 1.2373369932175 0.21999999880791
			vertex 1.3563890457153 1.2361615896225 0.25334438681602
		endloop
	endfacet
	facet normal 0.098017992732087 -0.86185699084846 0.49758918841391
		outer loop
			vertex 1.6499999761581 1.2612054347992 0.23888532817364
			vertex 1.5360000133514 1.2373369932175 0.21999999880791
			vertex 1.6499999761581 1.2503020763397 0.21999999880791
		endloop
	endfacet
	facet normal 0.47139658175179 -0.76376626856237 0.44096071221714
		outer loop
			vertex 0.81386679410934 0.93154835700989 0.17517885565758
			vertex 1.0740613937378 1.161992430687 0.29616597294807
			vertex 0.81386679410934 1.041548371315 0.36570444703102
		endloop
	endfacet
	facet normal 0.098017082833659 -0.86185521733541 0.49759243947685
		outer loop
			vertex 1.5360000133514 1.2373369932175 0.21999999880791
			vertex 1.6499999761581 1.2612054347992 0.23888532817364
			vertex 1.3563890457153 1.2361615896225 0.25334438681602
		endloop
	endfacet
	facet normal 0.88192127679656 -0.40824151727206 0.23569837739985
		outer loop
			vertex 0.39863821864128 0.57194983959198 0.38279312849045
			vertex 0.39863821864128 0.68194985389709 0.57331871986389
			vertex 0.25956130027771 0.34661468863487 0.51289045810699
		endloop
	endfacet
	facet normal 0.88192129623607 -0.40824151342702 0.23569831132212
		outer loop
			vertex 0.25956130027771 0.34661468863487 0.51289045810699
			vertex 0.39863821864128 0.68194985389709 0.57331871986389
			vertex 0.25956130027771 0.45661467313766 0.70341604948044
		endloop
	endfacet
	facet normal 0.95694033674685 -0.25139391162751 0.14514232016695
		outer loop
			vertex 0.17668119072914 0.10999999940395 0.64950001239777
			vertex 0.25956130027771 0.34661468863487 0.51289045810699
			vertex 0.25956130027771 0.45661467313766 0.70341604948044
		endloop
	endfacet
	facet normal 0.77301044232771 -0.54940069569053 0.31719667657004
		outer loop
			vertex 0.39863821864128 0.57194983959198 0.38279312849045
			vertex 0.58580428361893 0.87945777177811 0.45928746461868
			vertex 0.39863821864128 0.68194985389709 0.57331871986389
		endloop
	endfacet
	facet normal 0.95694033293819 -0.2513939139871 0.14514234119099
		outer loop
			vertex 0.17668119072914 0.21999999880791 0.84002560377121
			vertex 0.17668119072914 0.10999999940395 0.64950001239777
			vertex 0.25956130027771 0.45661467313766 0.70341604948044
		endloop
	endfacet
	facet normal -0.098017359217179 -0.86185571935186 0.49759151551506
		outer loop
			vertex 1.6499999761581 1.1512055397034 0.048359733074903
			vertex 1.8300000429153 1.157662153244 0.094999998807907
			vertex 1.6499999761581 1.1781332492828 0.094999998807907
		endloop
	endfacet
	facet normal -0.098017460658279 -0.86185549936829 0.49759187655622
		outer loop
			vertex 1.8300000429153 1.157662153244 0.094999998807907
			vertex 1.6499999761581 1.1512055397034 0.048359733074903
			vertex 1.943610906601 1.1261615753174 0.062818810343742
		endloop
	endfacet
	facet normal -0.098017138721942 -0.86185523994664 0.49759238930402
		outer loop
			vertex 1.8300000429153 1.157662153244 0.094999998807907
			vertex 1.943610906601 1.2361615896225 0.25334438681602
			vertex 1.7640000581741 1.2373369932175 0.21999999880791
		endloop
	endfacet
	facet normal -0.098017221909742 -0.86185520579945 0.4975924320621
		outer loop
			vertex 1.8300000429153 1.157662153244 0.094999998807907
			vertex 1.943610906601 1.1261615753174 0.062818810343742
			vertex 1.943610906601 1.2361615896225 0.25334438681602
		endloop
	endfacet
	facet normal -0.29028471438741 -0.82873459051056 0.47847023218202
		outer loop
			vertex 1.943610906601 1.1261615753174 0.062818810343742
			vertex 2.2259385585785 1.161992430687 0.29616597294807
			vertex 1.943610906601 1.2361615896225 0.25334438681602
		endloop
	endfacet
	facet normal -0.29028437082533 -0.82873492149956 0.47846986732883
		outer loop
			vertex 1.943610906601 1.1261615753174 0.062818810343742
			vertex 2.2259385585785 1.0519925355911 0.10564038157463
			vertex 2.2259385585785 1.161992430687 0.29616597294807
		endloop
	endfacet
	facet normal -0.47139693790666 -0.76376610369819 0.44096061703275
		outer loop
			vertex 2.2259385585785 1.0519925355911 0.10564038157463
			vertex 2.4861330986023 0.93154835700989 0.17517885565758
			vertex 2.4861330986023 1.041548371315 0.36570444703102
		endloop
	endfacet
	facet normal -0.098017082833149 -0.86185706845973 0.49758923322243
		outer loop
			vertex 1.6499999761581 1.2612054347992 0.23888532817364
			vertex 1.6499999761581 1.2503020763397 0.21999999880791
			vertex 1.943610906601 1.2361615896225 0.25334438681602
		endloop
	endfacet
	facet normal -0.098017540679282 -0.86185391725447 0.49759460108838
		outer loop
			vertex 1.7640000581741 1.2373369932175 0.21999999880791
			vertex 1.943610906601 1.2361615896225 0.25334438681602
			vertex 1.6499999761581 1.2503020763397 0.21999999880791
		endloop
	endfacet
	facet normal -0.47139666574178 -0.76376643661072 0.44096033136156
		outer loop
			vertex 2.2259385585785 1.0519925355911 0.10564038157463
			vertex 2.4861330986023 1.041548371315 0.36570444703102
			vertex 2.2259385585785 1.161992430687 0.29616597294807
		endloop
	endfacet
	facet normal -0.63439312726366 -0.6694467819835 0.38650532489549
		outer loop
			vertex 2.4861330986023 0.93154835700989 0.17517885565758
			vertex 2.714195728302 0.87945777177811 0.45928746461868
			vertex 2.4861330986023 1.041548371315 0.36570444703102
		endloop
	endfacet
	facet normal -0.63439312726366 -0.6694467819835 0.38650532489549
		outer loop
			vertex 2.4861330986023 0.93154835700989 0.17517885565758
			vertex 2.714195728302 0.76945775747299 0.26876187324524
			vertex 2.714195728302 0.87945777177811 0.45928746461868
		endloop
	endfacet
	facet normal -0.77301059093729 -0.5494005388695 0.31719658602937
		outer loop
			vertex 2.714195728302 0.76945775747299 0.26876187324524
			vertex 2.9013617038727 0.68194985389709 0.57331871986389
			vertex 2.714195728302 0.87945777177811 0.45928746461868
		endloop
	endfacet
	facet normal -0.77301059093729 -0.5494005388695 0.31719658602937
		outer loop
			vertex 2.9013617038727 0.57194983959198 0.38279312849045
			vertex 2.9013617038727 0.68194985389709 0.57331871986389
			vertex 2.714195728302 0.76945775747299 0.26876187324524
		endloop
	endfacet
	facet normal -0.88192125424104 -0.40824155381696 0.23569839849907
		outer loop
			vertex 2.9013617038727 0.57194983959198 0.38279312849045
			vertex 3.0404386520386 0.45661467313766 0.70341604948044
			vertex 2.9013617038727 0.68194985389709 0.57331871986389
		endloop
	endfacet
	facet normal -0.88192123480152 -0.40824161296449 0.23569836879009
		outer loop
			vertex 2.9013617038727 0.57194983959198 0.38279312849045
			vertex 3.0404386520386 0.34661468863487 0.51289045810699
			vertex 3.0404386520386 0.45661467313766 0.70341604948044
		endloop
	endfacet
	facet normal -0.9569401917685 -0.25139431701253 0.14514257387782
		outer loop
			vertex 3.1233189105988 0.10999999940395 0.64950001239777
			vertex 3.1233189105988 0.21999999880791 0.84002560377121
			vertex 3.0404386520386 0.34661468863487 0.51289045810699
		endloop
	endfacet
	facet normal -0.95694018795982 -0.2513943363997 0.14514256540925
		outer loop
			vertex 3.1233189105988 0.21999999880791 0.84002560377121
			vertex 3.0404386520386 0.45661467313766 0.70341604948044
			vertex 3.0404386520386 0.34661468863487 0.51289045810699
		endloop
	endfacet
endsolid