solid csg_export
	facet normal -1 0 0
		outer loop
			vertex 0 11.048760414124 0
			vertex 0 10.688760757446 0.011131649836898
			vertex 0 10.688760757446 0.017525067552924
		endloop
	endfacet
	facet normal -1 0 0
		outer loop
			vertex 0 11.048760414124 0
			vertex 0 10.688760757446 0.017525067552924
			vertex 0 10.965286254883 0.36000001430511
		endloop
	endfacet
	facet normal -1 0 0
		outer loop
			vertex 0 11.048760414124 0
			vertex 0 10.688760757446 1.6136000156403
			vertex 0 11.048760414124 0.36000001430511
		endloop
	endfacet
	facet normal -1 0 0
		outer loop
			vertex 0 11.048760414124 0
			vertex 0 10.965286254883 0.36000001430511
			vertex 0 10.688760757446 1.6136000156403
		endloop
	endfacet
	facet normal -1 0 0
		outer loop
			vertex 0 10.965286254883 0.36000001430511
			vertex 0 10.688760757446 0.36000001430511
			vertex 0 10.688760757446 1.6136000156403
		endloop
	endfacet
	facet normal 0 -1 0
		outer loop
			vertex 0 10.688760757446 0.36000001430511
			vertex 2.3229999542236 10.688760757446 0.36000001430511
			vertex 0 10.688760757446 1.6136000156403
		endloop
	endfacet
	facet normal 0 1 0
		outer loop
			vertex 0 11.048760414124 0.36000001430511
			vertex 2.3380000591278 11.048760414124 1.6136000156403
			vertex 2.3229999542236 11.048760414124 0.36000001430511
		endloop
	endfacet
	facet normal 0 -1 0
		outer loop
			vertex 2.3229999542236 10.688760757446 0.36000001430511
			vertex 2.6770000457764 10.688760757446 0.36000001430511
			vertex 0 10.688760757446 1.6136000156403
		endloop
	endfacet
	facet normal 0 1 0
		outer loop
			vertex 2.3229999542236 11.048760414124 0.36000001430511
			vertex 2.3380000591278 11.048760414124 1.6136000156403
			vertex 2.3380000591278 11.048760414124 0.36000001430511
		endloop
	endfacet
	facet normal -1 0 0
		outer loop
			vertex 0 11.048760414124 0.36000001430511
			vertex 0 10.688760757446 1.6136000156403
			vertex 0 11.048760414124 1.6136000156403
		endloop
	endfacet
	facet normal 0 1 0
		outer loop
			vertex 0 11.048760414124 0.36000001430511
			vertex 0 11.048760414124 1.6136000156403
			vertex 2.3380000591278 11.048760414124 1.6136000156403
		endloop
	endfacet
	facet normal 0 0 1
		outer loop
			vertex 0 11.048760414124 1.6136000156403
			vertex 0 10.688760757446 1.6136000156403
			vertex 5 10.688760757446 1.6136000156403
		endloop
	endfacet
	facet normal -0 0 1
		outer loop
			vertex 0 11.048760414124 1.6136000156403
			vertex 5 10.688760757446 1.6136000156403
			vertex 2.3380000591278 11.048760414124 1.6136000156403
		endloop
	endfacet
	facet normal -0 1 0
		outer loop
			vertex 2.7083332538605 11.048760414124 0.16500000655651
			vertex 2.7850000858307 11.048760414124 0.16500000655651
			vertex 5 11.048760414124 0
		endloop
	endfacet
	facet normal 0 1 -0
		outer loop
			vertex 2.7850000858307 11.048760414124 0.16500000655651
			vertex 2.7764630317688 11.048760414124 0.18041408061981
			vertex 4.4783835411072 11.048760414124 0.36000001430511
		endloop
	endfacet
	facet normal 0 -1 0
		outer loop
			vertex 0 10.688760757446 1.6136000156403
			vertex 2.6770000457764 10.688760757446 0.36000001430511
			vertex 5 10.688760757446 0.36000001430511
		endloop
	endfacet
	facet normal 0 1 0
		outer loop
			vertex 2.6619999408722 11.048760414124 0.36000001430511
			vertex 2.6619999408722 11.048760414124 1.6136000156403
			vertex 2.6770000457764 11.048760414124 0.36000001430511
		endloop
	endfacet
	facet normal 0 1 -0
		outer loop
			vertex 2.6770000457764 11.048760414124 0.36000001430511
			vertex 2.6619999408722 11.048760414124 1.6136000156403
			vertex 4.4783835411072 11.048760414124 0.36000001430511
		endloop
	endfacet
	facet normal -0 1 0
		outer loop
			vertex 2.7850000858307 11.048760414124 0.16500000655651
			vertex 4.4783835411072 11.048760414124 0.36000001430511
			vertex 5 11.048760414124 0
		endloop
	endfacet
	facet normal 1 0 0
		outer loop
			vertex 5 11.048760414124 0
			vertex 5 10.769077301025 0.36000001430511
			vertex 5 10.688760757446 0
		endloop
	endfacet
	facet normal 0 1 -0
		outer loop
			vertex 5 11.048760414124 0
			vertex 4.4783835411072 11.048760414124 0.36000001430511
			vertex 5 11.048760414124 1.6136000156403
		endloop
	endfacet
	facet normal 1 0 -0
		outer loop
			vertex 5 11.048760414124 0
			vertex 5 11.048760414124 1.6136000156403
			vertex 5 10.769077301025 0.36000001430511
		endloop
	endfacet
	facet normal 1 0 0
		outer loop
			vertex 5 10.769077301025 0.36000001430511
			vertex 5 10.688760757446 1.6136000156403
			vertex 5 10.688760757446 0.36000001430511
		endloop
	endfacet
	facet normal 0 -1 0
		outer loop
			vertex 0 10.688760757446 1.6136000156403
			vertex 5 10.688760757446 0.36000001430511
			vertex 5 10.688760757446 1.6136000156403
		endloop
	endfacet
	facet normal -0 0 1
		outer loop
			vertex 2.3380000591278 11.048760414124 1.6136000156403
			vertex 5 10.688760757446 1.6136000156403
			vertex 2.6619999408722 11.048760414124 1.6136000156403
		endloop
	endfacet
	facet normal 0 1 -0
		outer loop
			vertex 4.4783835411072 11.048760414124 0.36000001430511
			vertex 2.6619999408722 11.048760414124 1.6136000156403
			vertex 5 11.048760414124 1.6136000156403
		endloop
	endfacet
	facet normal 1 0 -0
		outer loop
			vertex 5 10.769077301025 0.36000001430511
			vertex 5 11.048760414124 1.6136000156403
			vertex 5 10.688760757446 1.6136000156403
		endloop
	endfacet
	facet normal -0 0 1
		outer loop
			vertex 2.6619999408722 11.048760414124 1.6136000156403
			vertex 5 10.688760757446 1.6136000156403
			vertex 5 11.048760414124 1.6136000156403
		endloop
	endfacet
	facet normal 0 0 -1
		outer loop
			vertex 2.2300000190735 11.228760719299 0
			vertex 2.6619999408722 11.048760414124 0
			vertex 2.3380000591278 11.048760414124 0
		endloop
	endfacet
	facet normal -0.85749322636235 -0.51449525434418 0
		outer loop
			vertex 2.2300000190735 11.228760719299 0
			vertex 2.3380000591278 11.048760414124 0
			vertex 2.2300000190735 11.228760719299 1.6136000156403
		endloop
	endfacet
	facet normal -0.85749322636235 -0.51449525434418 0
		outer loop
			vertex 2.3380000591278 11.048760414124 0
			vertex 2.3380000591278 11.048760414124 0.16500000655651
			vertex 2.2300000190735 11.228760719299 1.6136000156403
		endloop
	endfacet
	facet normal -0.85749322636235 -0.51449525434418 0
		outer loop
			vertex 2.3380000591278 11.048760414124 0.16500000655651
			vertex 2.3380000591278 11.048760414124 0.36000001430511
			vertex 2.2300000190735 11.228760719299 1.6136000156403
		endloop
	endfacet
	facet normal 0 1 0
		outer loop
			vertex 2.2300000190735 11.228760719299 0
			vertex 2.2300000190735 11.228760719299 1.6136000156403
			vertex 2.7699999809265 11.228760719299 1.6136000156403
		endloop
	endfacet
	facet normal -0.85749322636235 -0.51449525434418 0
		outer loop
			vertex 2.3380000591278 11.048760414124 0.36000001430511
			vertex 2.3380000591278 11.048760414124 1.6136000156403
			vertex 2.2300000190735 11.228760719299 1.6136000156403
		endloop
	endfacet
	facet normal 0 0 1
		outer loop
			vertex 2.2300000190735 11.228760719299 1.6136000156403
			vertex 2.3380000591278 11.048760414124 1.6136000156403
			vertex 2.6619999408722 11.048760414124 1.6136000156403
		endloop
	endfacet
	facet normal 0 0 -1
		outer loop
			vertex 2.2300000190735 11.228760719299 0
			vertex 2.7699999809265 11.228760719299 0
			vertex 2.6619999408722 11.048760414124 0
		endloop
	endfacet
	facet normal 0.85749322636235 -0.51449525434418 0
		outer loop
			vertex 2.6619999408722 11.048760414124 0
			vertex 2.7699999809265 11.228760719299 0
			vertex 2.6619999408722 11.048760414124 0.16500000655651
		endloop
	endfacet
	facet normal 0.85749322636235 -0.51449525434418 0
		outer loop
			vertex 2.7699999809265 11.228760719299 0
			vertex 2.6619999408722 11.048760414124 0.36000001430511
			vertex 2.6619999408722 11.048760414124 0.16500000655651
		endloop
	endfacet
	facet normal 0 1 0
		outer loop
			vertex 2.2300000190735 11.228760719299 0
			vertex 2.7699999809265 11.228760719299 1.6136000156403
			vertex 2.7699999809265 11.228760719299 0
		endloop
	endfacet
	facet normal 0.85749322636235 -0.51449525434418 0
		outer loop
			vertex 2.7699999809265 11.228760719299 0
			vertex 2.6619999408722 11.048760414124 1.6136000156403
			vertex 2.6619999408722 11.048760414124 0.36000001430511
		endloop
	endfacet
	facet normal 0.85749322636235 -0.51449525434418 0
		outer loop
			vertex 2.7699999809265 11.228760719299 0
			vertex 2.7699999809265 11.228760719299 1.6136000156403
			vertex 2.6619999408722 11.048760414124 1.6136000156403
		endloop
	endfacet
	facet normal -0 0 1
		outer loop
			vertex 2.2300000190735 11.228760719299 1.6136000156403
			vertex 2.6619999408722 11.048760414124 1.6136000156403
			vertex 2.7699999809265 11.228760719299 1.6136000156403
		endloop
	endfacet
	facet normal -1 0 0
		outer loop
			vertex 0 10.688760757446 0.017525067552924
			vertex 0 10.688760757446 0.36000001430511
			vertex 0 10.965286254883 0.36000001430511
		endloop
	endfacet
	facet normal 0 1 0
		outer loop
			vertex 0 11.048760414124 0
			vertex 0 11.048760414124 0.36000001430511
			vertex 2.2149999141693 11.048760414124 0.16500000655651
		endloop
	endfacet
	facet normal -1 0 0
		outer loop
			vertex 0 11.048760414124 0
			vertex 0 1.5299603939056 0
			vertex 0 10.688760757446 0.011131649836898
		endloop
	endfacet
	facet normal -1 0 0
		outer loop
			vertex 0 10.688760757446 0.011131649836898
			vertex 0 1.7099603414536 0.31176915764809
			vertex 0 10.688760757446 0.017525067552924
		endloop
	endfacet
	facet normal -1 0 0
		outer loop
			vertex 0 10.688760757446 0.017525067552924
			vertex 0 1.6264221668243 0.36000001430511
			vertex 0 10.688760757446 0.36000001430511
		endloop
	endfacet
	facet normal 0 0 -1
		outer loop
			vertex 0 11.048760414124 0
			vertex 2.3380000591278 11.048760414124 0
			vertex 0 1.5299603939056 0
		endloop
	endfacet
	facet normal -0 0 1
		outer loop
			vertex 0 10.688760757446 0.36000001430511
			vertex 0 1.6264221668243 0.36000001430511
			vertex 2.3229999542236 10.688760757446 0.36000001430511
		endloop
	endfacet
	facet normal 0 1 0
		outer loop
			vertex 0 11.048760414124 0
			vertex 2.2149999141693 11.048760414124 0.16500000655651
			vertex 2.3380000591278 11.048760414124 0
		endloop
	endfacet
	facet normal -0 1 0
		outer loop
			vertex 0 11.048760414124 0.36000001430511
			vertex 2.3229999542236 11.048760414124 0.36000001430511
			vertex 2.2149999141693 11.048760414124 0.16500000655651
		endloop
	endfacet
	facet normal 0 1 -0
		outer loop
			vertex 2.3380000591278 11.048760414124 0
			vertex 2.2149999141693 11.048760414124 0.16500000655651
			vertex 2.3380000591278 11.048760414124 0.16500000655651
		endloop
	endfacet
	facet normal 0 -0 -1
		outer loop
			vertex 2.3380000591278 11.048760414124 0
			vertex 2.6619999408722 11.048760414124 0
			vertex 0 1.5299603939056 0
		endloop
	endfacet
	facet normal -1 -0 0
		outer loop
			vertex 0 10.688760757446 0.011131649836898
			vertex 0 1.5299603939056 0
			vertex 0 1.7099603414536 0.31176915764809
		endloop
	endfacet
	facet normal -1 0 0
		outer loop
			vertex 0 10.688760757446 0.017525067552924
			vertex 0 1.7099603414536 0.31176915764809
			vertex 0 1.6264221668243 0.36000001430511
		endloop
	endfacet
	facet normal 0 0 1
		outer loop
			vertex 2.3229999542236 10.688760757446 0.36000001430511
			vertex 0 1.6264221668243 0.36000001430511
			vertex 2.3229999542236 1.6264221668243 0.36000001430511
		endloop
	endfacet
	facet normal 0 1 0
		outer loop
			vertex 2.6619999408722 11.048760414124 0
			vertex 2.6619999408722 11.048760414124 0.16500000655651
			vertex 2.7083332538605 11.048760414124 0.16500000655651
		endloop
	endfacet
	facet normal 0 1 0
		outer loop
			vertex 2.6619999408722 11.048760414124 0
			vertex 2.7083332538605 11.048760414124 0.16500000655651
			vertex 5 11.048760414124 0
		endloop
	endfacet
	facet normal 0 1 -0
		outer loop
			vertex 2.7764630317688 11.048760414124 0.18041408061981
			vertex 2.6770000457764 11.048760414124 0.36000001430511
			vertex 4.4783835411072 11.048760414124 0.36000001430511
		endloop
	endfacet
	facet normal 0 0 -1
		outer loop
			vertex 0 1.5299603939056 0
			vertex 2.6619999408722 11.048760414124 0
			vertex 5 11.048760414124 0
		endloop
	endfacet
	facet normal 0 0 -1
		outer loop
			vertex 0 1.5299603939056 0
			vertex 5 11.048760414124 0
			vertex 5 10.688760757446 0
		endloop
	endfacet
	facet normal -0 0 1
		outer loop
			vertex 2.6770000457764 10.688760757446 0.36000001430511
			vertex 2.6770000457764 1.6264221668243 0.36000001430511
			vertex 5 10.688760757446 0.36000001430511
		endloop
	endfacet
	facet normal 1 0 0
		outer loop
			vertex 5 10.688760757446 0
			vertex 5 10.769077301025 0.36000001430511
			vertex 5 10.688760757446 0.36000001430511
		endloop
	endfacet
	facet normal 1 0 -0
		outer loop
			vertex 5 10.688760757446 0
			vertex 5 10.688760757446 0.36000001430511
			vertex 5 1.6264221668243 0.36000001430511
		endloop
	endfacet
	facet normal 0 0 -1
		outer loop
			vertex 0 1.5299603939056 0
			vertex 5 10.688760757446 0
			vertex 5 1.5299603939056 0
		endloop
	endfacet
	facet normal 0 0 1
		outer loop
			vertex 5 10.688760757446 0.36000001430511
			vertex 2.6770000457764 1.6264221668243 0.36000001430511
			vertex 5 1.6264221668243 0.36000001430511
		endloop
	endfacet
	facet normal 1 0 0
		outer loop
			vertex 5 10.688760757446 0
			vertex 5 1.5299603939056 0.36000001430511
			vertex 5 1.5299603939056 0
		endloop
	endfacet
	facet normal 1 0 0
		outer loop
			vertex 5 10.688760757446 0
			vertex 5 1.6264221668243 0.36000001430511
			vertex 5 1.5299603939056 0.36000001430511
		endloop
	endfacet
	facet normal -1 0 0
		outer loop
			vertex 0 1.5299603939056 0
			vertex 0 1.6264221668243 0.36000001430511
			vertex 0 1.7099603414536 0.31176915764809
		endloop
	endfacet
	facet normal 4.1304443091163e-08 -0.49999996087285 -0.86602542637451
		outer loop
			vertex 0 1.5299603939056 0
			vertex 0.99919736385345 0.69898319244385 0.47976490855217
			vertex 0.8323974609375 0.42873069643974 0.63579523563385
		endloop
	endfacet
	facet normal -4.4699549040585e-08 -0.50000007887793 -0.86602535824424
		outer loop
			vertex 0 1.5299603939056 0
			vertex 1.4971957206726 1.1302623748779 0.23076573014259
			vertex 1.2236722707748 0.93586146831512 0.34300318360329
		endloop
	endfacet
	facet normal 4.5386283493879e-08 -0.49999982579412 -0.86602550436223
		outer loop
			vertex 0 1.5299603939056 0
			vertex 1.8092564344406 1.274715423584 0.14736577868462
			vertex 1.4971957206726 1.1302623748779 0.23076573014259
		endloop
	endfacet
	facet normal 1.8204158946513e-08 -0.49999998170532 -0.86602541434688
		outer loop
			vertex 0 1.5299603939056 0
			vertex 1.2236722707748 0.93586146831512 0.34300318360329
			vertex 0.99919736385345 0.69898319244385 0.47976490855217
		endloop
	endfacet
	facet normal -1 0 0
		outer loop
			vertex 0 1.5299603939056 0
			vertex 0 0.36000001430511 1.0911691188812
			vertex 0 1.6264221668243 0.36000001430511
		endloop
	endfacet
	facet normal -2.6311970435481e-08 -0.49999999920527 -0.86602540424327
		outer loop
			vertex 0 1.5299603939056 0
			vertex 0.8323974609375 0.42873069643974 0.63579523563385
			vertex 0 0.18000000715256 0.77939999103546
		endloop
	endfacet
	facet normal -1 0 0
		outer loop
			vertex 0 1.5299603939056 0
			vertex 0 0.18000000715256 0.77939999103546
			vertex 0 0.36000001430511 1.0911691188812
		endloop
	endfacet
	facet normal -4.0414309551243e-08 0.49999996610468 0.86602542335391
		outer loop
			vertex 0 1.6264221668243 0.36000001430511
			vertex 0 0.36000001430511 1.0911691188812
			vertex 0.8323974609375 0.60873073339462 0.94756442308426
		endloop
	endfacet
	facet normal 5.9308163383575e-08 0.50000002727897 0.86602538803492
		outer loop
			vertex 0 1.6264221668243 0.36000001430511
			vertex 0.8323974609375 0.60873073339462 0.94756442308426
			vertex 0.99919736385345 0.87898319959641 0.79153406620026
		endloop
	endfacet
	facet normal 0 -0.50000006524663 -0.86602536611428
		outer loop
			vertex 0 0.18000000715256 0.77939999103546
			vertex 0.8323974609375 0.42873069643974 0.63579523563385
			vertex 0.74527341127396 0.18000000715256 0.77939999103546
		endloop
	endfacet
	facet normal 5.5628669983364e-08 0.50000002358983 0.86602539016484
		outer loop
			vertex 0 1.6264221668243 0.36000001430511
			vertex 0.99919736385345 0.87898319959641 0.79153406620026
			vertex 1.2236722707748 1.115861415863 0.65477234125137
		endloop
	endfacet
	facet normal -9.6405982279288e-09 0.49999990626559 0.86602545790202
		outer loop
			vertex 0 1.6264221668243 0.36000001430511
			vertex 1.2236722707748 1.115861415863 0.65477234125137
			vertex 1.4971957206726 1.3102624416351 0.54253488779068
		endloop
	endfacet
	facet normal 2.3438183225001e-08 0.5000000237507 0.86602539007196
		outer loop
			vertex 0 1.6264221668243 0.36000001430511
			vertex 1.4971957206726 1.3102624416351 0.54253488779068
			vertex 1.8092564344406 1.4547153711319 0.4591349363327
		endloop
	endfacet
	facet normal -3.4260779988606e-08 -0.50000024921662 -0.86602525989911
		outer loop
			vertex 0 1.5299603939056 0
			vertex 2.14786195755 1.3636690378189 0.096008338034153
			vertex 1.8092564344406 1.274715423584 0.14736577868462
		endloop
	endfacet
	facet normal -6.3812657654603e-09 -0.49999997914239 -0.86602541582659
		outer loop
			vertex 0 1.5299603939056 0
			vertex 2.5 1.3937050104141 0.078667059540749
			vertex 2.14786195755 1.3636690378189 0.096008338034153
		endloop
	endfacet
	facet normal -0 0.49999977364809 0.86602553446873
		outer loop
			vertex 0 1.6264221668243 0.36000001430511
			vertex 2.14786195755 1.5436691045761 0.40777748823166
			vertex 2.3229999542236 1.6264221668243 0.36000001430511
		endloop
	endfacet
	facet normal 5.8665491632037e-08 0.49999968052864 0.86602558823124
		outer loop
			vertex 2.3229999542236 1.6264221668243 0.36000001430511
			vertex 2.14786195755 1.5436691045761 0.40777748823166
			vertex 2.5 1.5737050771713 0.39043620228767
		endloop
	endfacet
	facet normal 5.6105462750892e-09 0.49999988286473 0.86602547141251
		outer loop
			vertex 0 1.6264221668243 0.36000001430511
			vertex 1.8092564344406 1.4547153711319 0.4591349363327
			vertex 2.14786195755 1.5436691045761 0.40777748823166
		endloop
	endfacet
	facet normal 0 -0.86602538301692 0.5000000359704
		outer loop
			vertex 0 0.18000000715256 0.77939999103546
			vertex 0.74527341127396 0.36000001430511 1.0911691188812
			vertex 0 0.36000001430511 1.0911691188812
		endloop
	endfacet
	facet normal 0 -0.86602538301692 0.5000000359704
		outer loop
			vertex 0 0.18000000715256 0.77939999103546
			vertex 0.74527341127396 0.18000000715256 0.77939999103546
			vertex 0.74527341127396 0.36000001430511 1.0911691188812
		endloop
	endfacet
	facet normal -0 0.49999986466735 0.86602548191877
		outer loop
			vertex 0 0.36000001430511 1.0911691188812
			vertex 0.74527341127396 0.36000001430511 1.0911691188812
			vertex 0.8323974609375 0.60873073339462 0.94756442308426
		endloop
	endfacet
	facet normal 0 -0.49999989133026 -0.86602546652493
		outer loop
			vertex 0 1.5299603939056 0
			vertex 5 1.5299603939056 0
			vertex 2.5 1.3937050104141 0.078667059540749
		endloop
	endfacet
	facet normal -0 0.49999953279949 0.86602567352261
		outer loop
			vertex 2.3229999542236 1.6264221668243 0.36000001430511
			vertex 2.5 1.5737050771713 0.39043620228767
			vertex 2.6770000457764 1.6264221668243 0.36000001430511
		endloop
	endfacet
	facet normal -5.8665491632037e-08 0.49999968052864 0.86602558823124
		outer loop
			vertex 2.6770000457764 1.6264221668243 0.36000001430511
			vertex 2.5 1.5737050771713 0.39043620228767
			vertex 2.85213804245 1.5436691045761 0.40777748823166
		endloop
	endfacet
	facet normal 6.3812657654603e-09 -0.49999997914239 -0.86602541582659
		outer loop
			vertex 5 1.5299603939056 0
			vertex 2.85213804245 1.3636690378189 0.096008338034153
			vertex 2.5 1.3937050104141 0.078667059540749
		endloop
	endfacet
	facet normal 3.4260777243022e-08 -0.50000024921659 -0.86602525989912
		outer loop
			vertex 5 1.5299603939056 0
			vertex 3.1907436847687 1.274715423584 0.14736577868462
			vertex 2.85213804245 1.3636690378189 0.096008338034153
		endloop
	endfacet
	facet normal -0 0.49999977364809 0.86602553446873
		outer loop
			vertex 2.6770000457764 1.6264221668243 0.36000001430511
			vertex 2.85213804245 1.5436691045761 0.40777748823166
			vertex 5 1.6264221668243 0.36000001430511
		endloop
	endfacet
	facet normal -5.6105460224536e-09 0.49999988286473 0.86602547141251
		outer loop
			vertex 5 1.6264221668243 0.36000001430511
			vertex 2.85213804245 1.5436691045761 0.40777748823166
			vertex 3.1907436847687 1.4547153711319 0.4591349363327
		endloop
	endfacet
	facet normal -4.5386289835593e-08 -0.4999998257941 -0.86602550436224
		outer loop
			vertex 5 1.5299603939056 0
			vertex 3.5028042793274 1.1302623748779 0.23076573014259
			vertex 3.1907436847687 1.274715423584 0.14736577868462
		endloop
	endfacet
	facet normal 4.46995437211e-08 -0.50000007887791 -0.86602535824425
		outer loop
			vertex 5 1.5299603939056 0
			vertex 3.7763278484344 0.93586146831512 0.34300318360329
			vertex 3.5028042793274 1.1302623748779 0.23076573014259
		endloop
	endfacet
	facet normal -1.8204166253714e-08 -0.49999998170531 -0.86602541434688
		outer loop
			vertex 5 1.5299603939056 0
			vertex 4.0008025169373 0.69898319244385 0.47976490855217
			vertex 3.7763278484344 0.93586146831512 0.34300318360329
		endloop
	endfacet
	facet normal -4.1304429822074e-08 -0.49999996087286 -0.8660254263745
		outer loop
			vertex 5 1.5299603939056 0
			vertex 4.1676025390625 0.42873069643974 0.63579523563385
			vertex 4.0008025169373 0.69898319244385 0.47976490855217
		endloop
	endfacet
	facet normal 1 0 -0
		outer loop
			vertex 5 1.5299603939056 0
			vertex 5 1.5299603939056 0.36000001430511
			vertex 5 0.18000000715256 0.77939999103546
		endloop
	endfacet
	facet normal -2.3438186029913e-08 0.50000002375071 0.86602539007196
		outer loop
			vertex 5 1.6264221668243 0.36000001430511
			vertex 3.1907436847687 1.4547153711319 0.4591349363327
			vertex 3.5028042793274 1.3102624416351 0.54253488779068
		endloop
	endfacet
	facet normal 9.6405972655078e-09 0.4999999062656 0.86602545790201
		outer loop
			vertex 5 1.6264221668243 0.36000001430511
			vertex 3.5028042793274 1.3102624416351 0.54253488779068
			vertex 3.7763278484344 1.115861415863 0.65477234125137
		endloop
	endfacet
	facet normal -5.5628690608832e-08 0.50000002358986 0.86602539016483
		outer loop
			vertex 5 1.6264221668243 0.36000001430511
			vertex 3.7763278484344 1.115861415863 0.65477234125137
			vertex 4.0008025169373 0.87898319959641 0.79153406620026
		endloop
	endfacet
	facet normal 1 0 0
		outer loop
			vertex 5 1.6264221668243 0.36000001430511
			vertex 5 0.18000000715256 0.77939999103546
			vertex 5 1.5299603939056 0.36000001430511
		endloop
	endfacet
	facet normal 2.6311970435481e-08 -0.49999999920527 -0.86602540424327
		outer loop
			vertex 5 1.5299603939056 0
			vertex 5 0.18000000715256 0.77939999103546
			vertex 4.1676025390625 0.42873069643974 0.63579523563385
		endloop
	endfacet
	facet normal 1.7062044220812e-09 0.49999996610468 0.86602542335391
		outer loop
			vertex 5 1.6264221668243 0.36000001430511
			vertex 4.0008025169373 0.87898319959641 0.79153406620026
			vertex 5 0.36000001430511 1.0911691188812
		endloop
	endfacet
	facet normal -0 -0.50000006524663 -0.86602536611428
		outer loop
			vertex 5 0.18000000715256 0.77939999103546
			vertex 4.2547264099121 0.18000000715256 0.77939999103546
			vertex 4.1676025390625 0.42873069643974 0.63579523563385
		endloop
	endfacet
	facet normal 1 0 0
		outer loop
			vertex 5 1.6264221668243 0.36000001430511
			vertex 5 0.36000001430511 1.0911691188812
			vertex 5 0.18000000715256 0.77939999103546
		endloop
	endfacet
	facet normal 9.2849094103429e-08 0.50000009771262 0.86602534737002
		outer loop
			vertex 5 0.36000001430511 1.0911691188812
			vertex 4.0008025169373 0.87898319959641 0.79153406620026
			vertex 4.1676025390625 0.60873073339462 0.94756442308426
		endloop
	endfacet
	facet normal 0 -0.86602538301692 0.5000000359704
		outer loop
			vertex 5 0.36000001430511 1.0911691188812
			vertex 4.2547264099121 0.36000001430511 1.0911691188812
			vertex 4.2547264099121 0.18000000715256 0.77939999103546
		endloop
	endfacet
	facet normal 0 -0.86602538301692 0.5000000359704
		outer loop
			vertex 5 0.18000000715256 0.77939999103546
			vertex 5 0.36000001430511 1.0911691188812
			vertex 4.2547264099121 0.18000000715256 0.77939999103546
		endloop
	endfacet
	facet normal 0 0.49999986466735 0.86602548191877
		outer loop
			vertex 5 0.36000001430511 1.0911691188812
			vertex 4.1676025390625 0.60873073339462 0.94756442308426
			vertex 4.2547264099121 0.36000001430511 1.0911691188812
		endloop
	endfacet
	facet normal 0.87479128808691 0 -0.48449995076082
		outer loop
			vertex 2.2149999141693 11.048760414124 0.16500000655651
			vertex 2.3229999542236 11.048760414124 0.36000001430511
			vertex 2.3229999542236 10.688760757446 0.36000001430511
		endloop
	endfacet
	facet normal 0 -1 0
		outer loop
			vertex 2.3380000591278 11.048760414124 0.16500000655651
			vertex 2.6619999408722 11.048760414124 0.16500000655651
			vertex 2.3380000591278 11.048760414124 0.36000001430511
		endloop
	endfacet
	facet normal 0 0 -1
		outer loop
			vertex 2.3229999542236 11.048760414124 0.36000001430511
			vertex 2.3380000591278 11.048760414124 0.36000001430511
			vertex 2.6770000457764 10.688760757446 0.36000001430511
		endloop
	endfacet
	facet normal 0 0 -1
		outer loop
			vertex 2.3229999542236 11.048760414124 0.36000001430511
			vertex 2.6770000457764 10.688760757446 0.36000001430511
			vertex 2.3229999542236 10.688760757446 0.36000001430511
		endloop
	endfacet
	facet normal -0 0 1
		outer loop
			vertex 2.2149999141693 11.048760414124 0.16500000655651
			vertex 2.5 1.4435493946075 0.16500000655651
			vertex 2.3380000591278 11.048760414124 0.16500000655651
		endloop
	endfacet
	facet normal 0.87479128808691 0 -0.48449995076082
		outer loop
			vertex 2.2149999141693 11.048760414124 0.16500000655651
			vertex 2.3229999542236 10.688760757446 0.36000001430511
			vertex 2.3229999542236 1.6264221668243 0.36000001430511
		endloop
	endfacet
	facet normal 0 0 1
		outer loop
			vertex 2.2149999141693 11.048760414124 0.16500000655651
			vertex 2.2149999141693 1.4111368656158 0.16500000655651
			vertex 2.5 1.4435493946075 0.16500000655651
		endloop
	endfacet
	facet normal 0.87479128808691 0 -0.48449995076082
		outer loop
			vertex 2.2149999141693 11.048760414124 0.16500000655651
			vertex 2.3229999542236 1.6264221668243 0.36000001430511
			vertex 2.2149999141693 1.4111368656158 0.16500000655651
		endloop
	endfacet
	facet normal 0 0 -1
		outer loop
			vertex 2.3229999542236 1.6264221668243 0.36000001430511
			vertex 2.5 1.5561326742172 0.36000001430511
			vertex 2.3229999542236 1.5360028743744 0.36000001430511
		endloop
	endfacet
	facet normal 0.87479128808691 0 -0.48449995076082
		outer loop
			vertex 2.3229999542236 1.6264221668243 0.36000001430511
			vertex 2.3229999542236 1.5360028743744 0.36000001430511
			vertex 2.2149999141693 1.4111368656158 0.16500000655651
		endloop
	endfacet
	facet normal 0 -1 0
		outer loop
			vertex 2.3380000591278 11.048760414124 0.36000001430511
			vertex 2.6619999408722 11.048760414124 0.16500000655651
			vertex 2.6619999408722 11.048760414124 0.36000001430511
		endloop
	endfacet
	facet normal -0.8747913409398 0 -0.48449985533202
		outer loop
			vertex 2.7764630317688 11.048760414124 0.18041408061981
			vertex 2.6770000457764 10.688760757446 0.36000001430511
			vertex 2.6770000457764 11.048760414124 0.36000001430511
		endloop
	endfacet
	facet normal 0 0 -1
		outer loop
			vertex 2.3380000591278 11.048760414124 0.36000001430511
			vertex 2.6619999408722 11.048760414124 0.36000001430511
			vertex 2.6770000457764 10.688760757446 0.36000001430511
		endloop
	endfacet
	facet normal 0 0 -1
		outer loop
			vertex 2.6619999408722 11.048760414124 0.36000001430511
			vertex 2.6770000457764 11.048760414124 0.36000001430511
			vertex 2.6770000457764 10.688760757446 0.36000001430511
		endloop
	endfacet
	facet normal -0 0 1
		outer loop
			vertex 2.3380000591278 11.048760414124 0.16500000655651
			vertex 2.5 1.4435493946075 0.16500000655651
			vertex 2.6619999408722 11.048760414124 0.16500000655651
		endloop
	endfacet
	facet normal -0 0 1
		outer loop
			vertex 2.6619999408722 11.048760414124 0.16500000655651
			vertex 2.5 1.4435493946075 0.16500000655651
			vertex 2.7083332538605 11.048760414124 0.16500000655651
		endloop
	endfacet
	facet normal -0 0 1
		outer loop
			vertex 2.7083332538605 11.048760414124 0.16500000655651
			vertex 2.5 1.4435493946075 0.16500000655651
			vertex 2.7850000858307 11.048760414124 0.16500000655651
		endloop
	endfacet
	facet normal -0.87479067230949 -2.9781960272442e-08 -0.48450106257914
		outer loop
			vertex 2.7850000858307 11.048760414124 0.16500000655651
			vertex 2.6770000457764 1.5360028743744 0.36000001430511
			vertex 2.7764630317688 11.048760414124 0.18041408061981
		endloop
	endfacet
	facet normal -0.8747913409398 0 -0.48449985533202
		outer loop
			vertex 2.7764630317688 11.048760414124 0.18041408061981
			vertex 2.6770000457764 1.6264221668243 0.36000001430511
			vertex 2.6770000457764 10.688760757446 0.36000001430511
		endloop
	endfacet
	facet normal 0 0 1
		outer loop
			vertex 2.7850000858307 11.048760414124 0.16500000655651
			vertex 2.5 1.4435493946075 0.16500000655651
			vertex 2.7850000858307 1.4111368656158 0.16500000655651
		endloop
	endfacet
	facet normal -0.87479128808691 -0 -0.48449995076082
		outer loop
			vertex 2.7850000858307 11.048760414124 0.16500000655651
			vertex 2.7850000858307 1.4111368656158 0.16500000655651
			vertex 2.6770000457764 1.5360028743744 0.36000001430511
		endloop
	endfacet
	facet normal -0.8747913409398 0 -0.48449985533202
		outer loop
			vertex 2.7764630317688 11.048760414124 0.18041408061981
			vertex 2.6770000457764 1.5360028743744 0.36000001430511
			vertex 2.6770000457764 1.6264221668243 0.36000001430511
		endloop
	endfacet
	facet normal 0 0 -1
		outer loop
			vertex 2.3229999542236 1.6264221668243 0.36000001430511
			vertex 2.6770000457764 1.6264221668243 0.36000001430511
			vertex 2.5 1.5561326742172 0.36000001430511
		endloop
	endfacet
	facet normal 0 -0 -1
		outer loop
			vertex 2.6770000457764 1.6264221668243 0.36000001430511
			vertex 2.6770000457764 1.5360028743744 0.36000001430511
			vertex 2.5 1.5561326742172 0.36000001430511
		endloop
	endfacet
	facet normal 0.77301045506186 -0.54940074371933 0.31719656234851
		outer loop
			vertex 0.99919736385345 0.69898319244385 0.47976490855217
			vertex 1.2236722707748 0.93586146831512 0.34300318360329
			vertex 1.2236722707748 1.115861415863 0.65477234125137
		endloop
	endfacet
	facet normal 0.88192127072459 -0.40824153184588 0.23569837487697
		outer loop
			vertex 0.8323974609375 0.42873069643974 0.63579523563385
			vertex 0.99919736385345 0.87898319959641 0.79153406620026
			vertex 0.8323974609375 0.60873073339462 0.94756442308426
		endloop
	endfacet
	facet normal 0.95694032792991 -0.25139392268782 0.14514235914105
		outer loop
			vertex 0.74527341127396 0.18000000715256 0.77939999103546
			vertex 0.8323974609375 0.42873069643974 0.63579523563385
			vertex 0.8323974609375 0.60873073339462 0.94756442308426
		endloop
	endfacet
	facet normal 0.77301039635096 -0.54940076019258 0.31719667689487
		outer loop
			vertex 0.99919736385345 0.69898319244385 0.47976490855217
			vertex 1.2236722707748 1.115861415863 0.65477234125137
			vertex 0.99919736385345 0.87898319959641 0.79153406620026
		endloop
	endfacet
	facet normal 0.88192127757514 -0.40824152788842 0.23569835609856
		outer loop
			vertex 0.8323974609375 0.42873069643974 0.63579523563385
			vertex 0.99919736385345 0.69898319244385 0.47976490855217
			vertex 0.99919736385345 0.87898319959641 0.79153406620026
		endloop
	endfacet
	facet normal 0.634393210209 -0.66944668708987 0.38650535311315
		outer loop
			vertex 1.2236722707748 0.93586146831512 0.34300318360329
			vertex 1.4971957206726 1.1302623748779 0.23076573014259
			vertex 1.4971957206726 1.3102624416351 0.54253488779068
		endloop
	endfacet
	facet normal 0.47139686642857 -0.76376622223506 0.44096048813256
		outer loop
			vertex 1.8092564344406 1.274715423584 0.14736577868462
			vertex 1.8092564344406 1.4547153711319 0.4591349363327
			vertex 1.4971957206726 1.1302623748779 0.23076573014259
		endloop
	endfacet
	facet normal 0.098017195811825 -0.86185527906223 0.49759231030809
		outer loop
			vertex 2.2149999141693 1.4111368656158 0.16500000655651
			vertex 2.14786195755 1.3636690378189 0.096008338034153
			vertex 2.5 1.4435493946075 0.16500000655651
		endloop
	endfacet
	facet normal 0.098017097127998 -0.8618551114946 0.49759261998269
		outer loop
			vertex 2.14786195755 1.3636690378189 0.096008338034153
			vertex 2.5 1.3937050104141 0.078667059540749
			vertex 2.5 1.4435493946075 0.16500000655651
		endloop
	endfacet
	facet normal 0.29028454144966 -0.82873460270105 0.47847031598762
		outer loop
			vertex 1.8092564344406 1.274715423584 0.14736577868462
			vertex 2.14786195755 1.3636690378189 0.096008338034153
			vertex 2.14786195755 1.5436691045761 0.40777748823166
		endloop
	endfacet
	facet normal 0.098016935702993 -0.86185519564197 0.49759250603313
		outer loop
			vertex 2.2149999141693 1.4111368656158 0.16500000655651
			vertex 2.14786195755 1.5436691045761 0.40777748823166
			vertex 2.14786195755 1.3636690378189 0.096008338034153
		endloop
	endfacet
	facet normal 0.29028481826897 -0.82873467214251 0.47847002776704
		outer loop
			vertex 1.8092564344406 1.274715423584 0.14736577868462
			vertex 2.14786195755 1.5436691045761 0.40777748823166
			vertex 1.8092564344406 1.4547153711319 0.4591349363327
		endloop
	endfacet
	facet normal 0.098017194482198 -0.86185514184883 0.49759254823054
		outer loop
			vertex 2.2149999141693 1.4111368656158 0.16500000655651
			vertex 2.3229999542236 1.5360028743744 0.36000001430511
			vertex 2.14786195755 1.5436691045761 0.40777748823166
		endloop
	endfacet
	facet normal 0.098017107554972 -0.86185531927084 0.49759225804981
		outer loop
			vertex 2.3229999542236 1.5360028743744 0.36000001430511
			vertex 2.5 1.5737050771713 0.39043620228767
			vertex 2.14786195755 1.5436691045761 0.40777748823166
		endloop
	endfacet
	facet normal 0.098016694009846 -0.86185453715609 0.4975936941711
		outer loop
			vertex 2.5 1.5737050771713 0.39043620228767
			vertex 2.3229999542236 1.5360028743744 0.36000001430511
			vertex 2.5 1.5561326742172 0.36000001430511
		endloop
	endfacet
	facet normal 0.63439338455109 -0.66944667401919 0.38650508959451
		outer loop
			vertex 1.2236722707748 0.93586146831512 0.34300318360329
			vertex 1.4971957206726 1.3102624416351 0.54253488779068
			vertex 1.2236722707748 1.115861415863 0.65477234125137
		endloop
	endfacet
	facet normal 0.47139663949901 -0.76376620082522 0.44096076780826
		outer loop
			vertex 1.4971957206726 1.1302623748779 0.23076573014259
			vertex 1.8092564344406 1.4547153711319 0.4591349363327
			vertex 1.4971957206726 1.3102624416351 0.54253488779068
		endloop
	endfacet
	facet normal 0.95694032680891 -0.2513939242784 0.14514236377698
		outer loop
			vertex 0.74527341127396 0.36000001430511 1.0911691188812
			vertex 0.74527341127396 0.18000000715256 0.77939999103546
			vertex 0.8323974609375 0.60873073339462 0.94756442308426
		endloop
	endfacet
	facet normal -0.098017175989668 -0.86185510476801 0.49759261609909
		outer loop
			vertex 2.5 1.3937050104141 0.078667059540749
			vertex 2.7850000858307 1.4111368656158 0.16500000655651
			vertex 2.5 1.4435493946075 0.16500000655651
		endloop
	endfacet
	facet normal -0.098017097128002 -0.86185524741307 0.49759238456508
		outer loop
			vertex 2.7850000858307 1.4111368656158 0.16500000655651
			vertex 2.5 1.3937050104141 0.078667059540749
			vertex 2.85213804245 1.3636690378189 0.096008338034153
		endloop
	endfacet
	facet normal -0.098016694009846 -0.86185453715609 0.4975936941711
		outer loop
			vertex 2.6770000457764 1.5360028743744 0.36000001430511
			vertex 2.5 1.5737050771713 0.39043620228767
			vertex 2.5 1.5561326742172 0.36000001430511
		endloop
	endfacet
	facet normal -0.098017194482198 -0.86185514184883 0.49759254823054
		outer loop
			vertex 2.7850000858307 1.4111368656158 0.16500000655651
			vertex 2.85213804245 1.5436691045761 0.40777748823166
			vertex 2.6770000457764 1.5360028743744 0.36000001430511
		endloop
	endfacet
	facet normal -0.098017107554972 -0.86185531927084 0.49759225804981
		outer loop
			vertex 2.6770000457764 1.5360028743744 0.36000001430511
			vertex 2.85213804245 1.5436691045761 0.40777748823166
			vertex 2.5 1.5737050771713 0.39043620228767
		endloop
	endfacet
	facet normal -0.098016935702993 -0.86185519564197 0.49759250603313
		outer loop
			vertex 2.7850000858307 1.4111368656158 0.16500000655651
			vertex 2.85213804245 1.3636690378189 0.096008338034153
			vertex 2.85213804245 1.5436691045761 0.40777748823166
		endloop
	endfacet
	facet normal -0.29028444786391 -0.82873476945011 0.4784700839476
		outer loop
			vertex 2.85213804245 1.3636690378189 0.096008338034153
			vertex 3.1907436847687 1.274715423584 0.14736577868462
			vertex 3.1907436847687 1.4547153711319 0.4591349363327
		endloop
	endfacet
	facet normal -0.29028472468317 -0.82873455456453 0.47847028819598
		outer loop
			vertex 2.85213804245 1.3636690378189 0.096008338034153
			vertex 3.1907436847687 1.4547153711319 0.4591349363327
			vertex 2.85213804245 1.5436691045761 0.40777748823166
		endloop
	endfacet
	facet normal -0.47139700648959 -0.76376603094517 0.44096066972794
		outer loop
			vertex 3.5028042793274 1.1302623748779 0.23076573014259
			vertex 3.5028042793274 1.3102624416351 0.54253488779068
			vertex 3.1907436847687 1.274715423584 0.14736577868462
		endloop
	endfacet
	facet normal -0.47139677956002 -0.76376626244655 0.44096051134867
		outer loop
			vertex 3.1907436847687 1.274715423584 0.14736577868462
			vertex 3.5028042793274 1.3102624416351 0.54253488779068
			vertex 3.1907436847687 1.4547153711319 0.4591349363327
		endloop
	endfacet
	facet normal -0.63439304499576 -0.66944691535087 0.38650522892738
		outer loop
			vertex 3.5028042793274 1.1302623748779 0.23076573014259
			vertex 3.7763278484344 0.93586146831512 0.34300318360329
			vertex 3.7763278484344 1.115861415863 0.65477234125137
		endloop
	endfacet
	facet normal -0.63439321933787 -0.66944668060172 0.38650534936722
		outer loop
			vertex 3.5028042793274 1.3102624416351 0.54253488779068
			vertex 3.5028042793274 1.1302623748779 0.23076573014259
			vertex 3.7763278484344 1.115861415863 0.65477234125137
		endloop
	endfacet
	facet normal -0.7730107267775 -0.54940045698989 0.31719639680524
		outer loop
			vertex 3.7763278484344 0.93586146831512 0.34300318360329
			vertex 4.0008025169373 0.87898319959641 0.79153406620026
			vertex 3.7763278484344 1.115861415863 0.65477234125137
		endloop
	endfacet
	facet normal -0.77301078548835 -0.54940034955322 0.31719643981212
		outer loop
			vertex 4.0008025169373 0.87898319959641 0.79153406620026
			vertex 3.7763278484344 0.93586146831512 0.34300318360329
			vertex 4.0008025169373 0.69898319244385 0.47976490855217
		endloop
	endfacet
	facet normal -0.88192113066357 -0.40824176591735 0.23569849352463
		outer loop
			vertex 4.0008025169373 0.87898319959641 0.79153406620026
			vertex 4.0008025169373 0.69898319244385 0.47976490855217
			vertex 4.1676025390625 0.60873073339462 0.94756442308426
		endloop
	endfacet
	facet normal -0.88192113751412 -0.40824174767603 0.23569849948657
		outer loop
			vertex 4.1676025390625 0.60873073339462 0.94756442308426
			vertex 4.0008025169373 0.69898319244385 0.47976490855217
			vertex 4.1676025390625 0.42873069643974 0.63579523563385
		endloop
	endfacet
	facet normal -0.9569404923082 -0.2513934534033 0.14514208819948
		outer loop
			vertex 4.2547264099121 0.36000001430511 1.0911691188812
			vertex 4.1676025390625 0.60873073339462 0.94756442308426
			vertex 4.1676025390625 0.42873069643974 0.63579523563385
		endloop
	endfacet
	facet normal -0.9569404934292 -0.25139344859318 0.14514208913996
		outer loop
			vertex 4.2547264099121 0.18000000715256 0.77939999103546
			vertex 4.2547264099121 0.36000001430511 1.0911691188812
			vertex 4.1676025390625 0.42873069643974 0.63579523563385
		endloop
	endfacet
endsolid