solid csg_export
	facet normal 0 -1 0
		outer loop
			vertex 0.54000002145767 0.18000000715256 0
			vertex 8.9737997055054 0.18000000715256 0.10800000280142
			vertex 0.54000002145767 0.18000000715256 0.10800000280142
		endloop
	endfacet
	facet normal 0 0 -1
		outer loop
			vertex 0.54000002145767 0.18000000715256 0
			vertex 0.54000002145767 1.4335999488831 0
			vertex 8.9737997055054 0.18000000715256 0
		endloop
	endfacet
	facet normal 0 -1 0
		outer loop
			vertex 0.54000002145767 0.18000000715256 0.54000002145767
			vertex 0.54000002145767 0.18000000715256 0.43200001120567
			vertex 8.9737997055054 0.18000000715256 0.54000002145767
		endloop
	endfacet
	facet normal 0 0 1
		outer loop
			vertex 0.54000002145767 0.18000000715256 0.54000002145767
			vertex 8.9737997055054 0.18000000715256 0.54000002145767
			vertex 0.54000002145767 1.4335999488831 0.54000002145767
		endloop
	endfacet
	facet normal -1 0 0
		outer loop
			vertex 0.18000000715256 1.4335999488831 0
			vertex 0.18000000715256 1.4335999488831 0.10800000280142
			vertex 0.18000000715256 9.2909593582153 0
		endloop
	endfacet
	facet normal 0 0 -1
		outer loop
			vertex 0.18000000715256 1.4335999488831 0
			vertex 0.18000000715256 9.2909593582153 0
			vertex 0.54000002145767 1.4335999488831 0
		endloop
	endfacet
	facet normal 0 0 -1
		outer loop
			vertex 0.54000002145767 1.4335999488831 0
			vertex 0.18000000715256 9.2909593582153 0
			vertex 8.9737997055054 0.18000000715256 0
		endloop
	endfacet
	facet normal -1 0 0
		outer loop
			vertex 0.18000000715256 1.4335999488831 0.54000002145767
			vertex 0.18000000715256 9.2909593582153 0.43200001120567
			vertex 0.18000000715256 1.4335999488831 0.43200001120567
		endloop
	endfacet
	facet normal 0 0 1
		outer loop
			vertex 0.18000000715256 1.4335999488831 0.54000002145767
			vertex 0.54000002145767 1.4335999488831 0.54000002145767
			vertex 0.18000000715256 9.2909593582153 0.54000002145767
		endloop
	endfacet
	facet normal -0 -0 1
		outer loop
			vertex 0.54000002145767 1.4335999488831 0.54000002145767
			vertex 8.9737997055054 0.18000000715256 0.54000002145767
			vertex 0.18000000715256 9.2909593582153 0.54000002145767
		endloop
	endfacet
	facet normal 0 -1 0
		outer loop
			vertex 0.54000002145767 0.18000000715256 0
			vertex 8.9737997055054 0.18000000715256 0
			vertex 8.9737997055054 0.18000000715256 0.10800000280142
		endloop
	endfacet
	facet normal 0 -1 -0
		outer loop
			vertex 8.9737997055054 0.18000000715256 0.54000002145767
			vertex 0.54000002145767 0.18000000715256 0.43200001120567
			vertex 8.9737997055054 0.18000000715256 0.43200001120567
		endloop
	endfacet
	facet normal 0.71951938851601 0.69447235333708 -0
		outer loop
			vertex 8.9737997055054 0.18000000715256 0
			vertex 0.18000000715256 9.2909593582153 0
			vertex 8.9737997055054 0.18000000715256 0.10800000280142
		endloop
	endfacet
	facet normal 0.71951938851601 0.69447235333708 0
		outer loop
			vertex 0.18000000715256 9.2909593582153 0
			vertex 8.9737997055054 0.18000000715256 0.43200001120567
			vertex 8.9737997055054 0.18000000715256 0.10800000280142
		endloop
	endfacet
	facet normal 0.71951938851601 0.69447235333708 0
		outer loop
			vertex 8.9737997055054 0.18000000715256 0.54000002145767
			vertex 8.9737997055054 0.18000000715256 0.43200001120567
			vertex 0.18000000715256 9.2909593582153 0
		endloop
	endfacet
	facet normal -1 0 0
		outer loop
			vertex 0.18000000715256 9.2909593582153 0
			vertex 0.18000000715256 1.4335999488831 0.10800000280142
			vertex 0.18000000715256 9.2909593582153 0.10800000280142
		endloop
	endfacet
	facet normal 0.71951938851601 0.69447235333708 0
		outer loop
			vertex 8.9737997055054 0.18000000715256 0.54000002145767
			vertex 0.18000000715256 9.2909593582153 0
			vertex 0.18000000715256 9.2909593582153 0.10800000280142
		endloop
	endfacet
	facet normal 0.71951938851601 0.69447235333708 0
		outer loop
			vertex 8.9737997055054 0.18000000715256 0.54000002145767
			vertex 0.18000000715256 9.2909593582153 0.10800000280142
			vertex 0.18000000715256 9.2909593582153 0.43200001120567
		endloop
	endfacet
	facet normal -1 0 0
		outer loop
			vertex 0.18000000715256 1.4335999488831 0.54000002145767
			vertex 0.18000000715256 9.2909593582153 0.54000002145767
			vertex 0.18000000715256 9.2909593582153 0.43200001120567
		endloop
	endfacet
	facet normal 0.71951938851601 0.69447235333708 0
		outer loop
			vertex 8.9737997055054 0.18000000715256 0.54000002145767
			vertex 0.18000000715256 9.2909593582153 0.43200001120567
			vertex 0.18000000715256 9.2909593582153 0.54000002145767
		endloop
	endfacet
	facet normal -1 0 0
		outer loop
			vertex 0.54000002145767 0.18000000715256 0
			vertex 0.54000002145767 0.18000000715256 0.10800000280142
			vertex 0.54000002145767 1.4335999488831 0
		endloop
	endfacet
	facet normal -1 0 0
		outer loop
			vertex 0.54000002145767 1.4335999488831 0
			vertex 0.54000002145767 0.18000000715256 0.10800000280142
			vertex 0.54000002145767 0.18000000715256 0.43200001120567
		endloop
	endfacet
	facet normal -1 0 0
		outer loop
			vertex 0.54000002145767 0.18000000715256 0.54000002145767
			vertex 0.54000002145767 1.4335999488831 0
			vertex 0.54000002145767 0.18000000715256 0.43200001120567
		endloop
	endfacet
	facet normal -1 0 0
		outer loop
			vertex 0.54000002145767 0.18000000715256 0.54000002145767
			vertex 0.54000002145767 1.4335999488831 0.54000002145767
			vertex 0.54000002145767 1.4335999488831 0
		endloop
	endfacet
	facet normal 0 -1 -0
		outer loop
			vertex 0.54000002145767 1.4335999488831 0.54000002145767
			vertex 0.18000000715256 1.4335999488831 0
			vertex 0.54000002145767 1.4335999488831 0
		endloop
	endfacet
	facet normal 0 -1 0
		outer loop
			vertex 0.18000000715256 1.4335999488831 0.10800000280142
			vertex 0.18000000715256 1.4335999488831 0
			vertex 0.54000002145767 1.4335999488831 0.54000002145767
		endloop
	endfacet
	facet normal 0 -1 0
		outer loop
			vertex 0.54000002145767 1.4335999488831 0.54000002145767
			vertex 0.18000000715256 1.4335999488831 0.43200001120567
			vertex 0.18000000715256 1.4335999488831 0.10800000280142
		endloop
	endfacet
	facet normal 0 -1 0
		outer loop
			vertex 0.18000000715256 1.4335999488831 0.54000002145767
			vertex 0.18000000715256 1.4335999488831 0.43200001120567
			vertex 0.54000002145767 1.4335999488831 0.54000002145767
		endloop
	endfacet
	facet normal 0 -1 0
		outer loop
			vertex 0 1.4335999488831 0.54000002145767
			vertex 0 1.4335999488831 0
			vertex 0.18000000715256 1.4335999488831 0.10800000280142
		endloop
	endfacet
	facet normal 0 -1 0
		outer loop
			vertex 0 1.4335999488831 0.54000002145767
			vertex 0.18000000715256 1.4335999488831 0.10800000280142
			vertex 0.18000000715256 1.4335999488831 0.43200001120567
		endloop
	endfacet
	facet normal 0.5144957502079 0 -0.85749292884432
		outer loop
			vertex 0 1.4335999488831 0
			vertex 0.18000000715256 9.2909593582153 0.10800000280142
			vertex 0.18000000715256 1.4335999488831 0.10800000280142
		endloop
	endfacet
	facet normal -1 0 0
		outer loop
			vertex 0 1.4335999488831 0.54000002145767
			vertex 0 9.2909593582153 0
			vertex 0 1.4335999488831 0
		endloop
	endfacet
	facet normal 0.51449577630602 -0 0.85749291318545
		outer loop
			vertex 0 1.4335999488831 0.54000002145767
			vertex 0.18000000715256 1.4335999488831 0.43200001120567
			vertex 0 9.2909593582153 0.54000002145767
		endloop
	endfacet
	facet normal 0.5144957502079 0 -0.85749292884432
		outer loop
			vertex 0 1.4335999488831 0
			vertex 0 9.2909593582153 0
			vertex 0.18000000715256 9.2909593582153 0.10800000280142
		endloop
	endfacet
	facet normal -1 0 0
		outer loop
			vertex 0 1.4335999488831 0.54000002145767
			vertex 0 9.2909593582153 0.54000002145767
			vertex 0 9.2909593582153 0
		endloop
	endfacet
	facet normal 0.51449577630602 0 0.85749291318545
		outer loop
			vertex 0 9.2909593582153 0.54000002145767
			vertex 0.18000000715256 1.4335999488831 0.43200001120567
			vertex 0.18000000715256 9.2909593582153 0.43200001120567
		endloop
	endfacet
	facet normal 0 1 0
		outer loop
			vertex 0 9.2909593582153 0.54000002145767
			vertex 0.18000000715256 9.2909593582153 0.10800000280142
			vertex 0 9.2909593582153 0
		endloop
	endfacet
	facet normal 0 1 0
		outer loop
			vertex 0 9.2909593582153 0.54000002145767
			vertex 0.18000000715256 9.2909593582153 0.43200001120567
			vertex 0.18000000715256 9.2909593582153 0.10800000280142
		endloop
	endfacet
	facet normal -1 0 0
		outer loop
			vertex 0.54000002145767 0 0.54000002145767
			vertex 0.54000002145767 0.18000000715256 0.10800000280142
			vertex 0.54000002145767 0 0
		endloop
	endfacet
	facet normal -1 0 0
		outer loop
			vertex 0.54000002145767 0 0.54000002145767
			vertex 0.54000002145767 0.18000000715256 0.43200001120567
			vertex 0.54000002145767 0.18000000715256 0.10800000280142
		endloop
	endfacet
	facet normal 0 0.5144957502079 -0.85749292884432
		outer loop
			vertex 0.54000002145767 0 0
			vertex 0.54000002145767 0.18000000715256 0.10800000280142
			vertex 8.9737997055054 0 0
		endloop
	endfacet
	facet normal 0 -1 0
		outer loop
			vertex 0.54000002145767 0 0.54000002145767
			vertex 0.54000002145767 0 0
			vertex 8.9737997055054 0 0.54000002145767
		endloop
	endfacet
	facet normal 0 0.51449577630602 0.85749291318545
		outer loop
			vertex 0.54000002145767 0 0.54000002145767
			vertex 8.9737997055054 0.18000000715256 0.43200001120567
			vertex 0.54000002145767 0.18000000715256 0.43200001120567
		endloop
	endfacet
	facet normal 0 0.5144957502079 -0.85749292884432
		outer loop
			vertex 8.9737997055054 0 0
			vertex 0.54000002145767 0.18000000715256 0.10800000280142
			vertex 8.9737997055054 0.18000000715256 0.10800000280142
		endloop
	endfacet
	facet normal 0 -1 -0
		outer loop
			vertex 8.9737997055054 0 0.54000002145767
			vertex 0.54000002145767 0 0
			vertex 8.9737997055054 0 0
		endloop
	endfacet
	facet normal -0 0.51449577630602 0.85749291318545
		outer loop
			vertex 0.54000002145767 0 0.54000002145767
			vertex 8.9737997055054 0 0.54000002145767
			vertex 8.9737997055054 0.18000000715256 0.43200001120567
		endloop
	endfacet
	facet normal 1 0 0
		outer loop
			vertex 8.9737997055054 0 0.54000002145767
			vertex 8.9737997055054 0 0
			vertex 8.9737997055054 0.18000000715256 0.10800000280142
		endloop
	endfacet
	facet normal 1 0 0
		outer loop
			vertex 8.9737997055054 0 0.54000002145767
			vertex 8.9737997055054 0.18000000715256 0.10800000280142
			vertex 8.9737997055054 0.18000000715256 0.43200001120567
		endloop
	endfacet
	facet normal -1 0 0
		outer loop
			vertex 9.2737998962402 11.048760414124 0
			vertex 9.2737998962402 10.688760757446 0.011131649836898
			vertex 9.2737998962402 10.688760757446 0.017525067552924
		endloop
	endfacet
	facet normal -1 0 0
		outer loop
			vertex 9.2737998962402 11.048760414124 0
			vertex 9.2737998962402 10.688760757446 0.017525067552924
			vertex 9.2737998962402 10.965286254883 0.36000001430511
		endloop
	endfacet
	facet normal -1 0 0
		outer loop
			vertex 9.2737998962402 11.048760414124 0
			vertex 9.2737998962402 10.965286254883 0.36000001430511
			vertex 9.2737998962402 10.688760757446 1.6136000156403
		endloop
	endfacet
	facet normal -1 0 0
		outer loop
			vertex 9.2737998962402 11.048760414124 0
			vertex 9.2737998962402 10.688760757446 1.6136000156403
			vertex 9.2737998962402 11.048760414124 0.36000001430511
		endloop
	endfacet
	facet normal -1 0 0
		outer loop
			vertex 9.2737998962402 10.965286254883 0.36000001430511
			vertex 9.2737998962402 10.688760757446 0.36000001430511
			vertex 9.2737998962402 10.688760757446 1.6136000156403
		endloop
	endfacet
	facet normal 0 -1 0
		outer loop
			vertex 9.2737998962402 10.688760757446 0.36000001430511
			vertex 11.596799850464 10.688760757446 0.36000001430511
			vertex 9.2737998962402 10.688760757446 1.6136000156403
		endloop
	endfacet
	facet normal -0 1 0
		outer loop
			vertex 11.982132911682 11.048760414124 0.16500000655651
			vertex 12.058799743652 11.048760414124 0.16500000655651
			vertex 14.27379989624 11.048760414124 0
		endloop
	endfacet
	facet normal -0 1 0
		outer loop
			vertex 12.058799743652 11.048760414124 0.16500000655651
			vertex 13.752183914185 11.048760414124 0.36000001430511
			vertex 14.27379989624 11.048760414124 0
		endloop
	endfacet
	facet normal 1 0 0
		outer loop
			vertex 14.27379989624 11.048760414124 0
			vertex 14.27379989624 10.769077301025 0.36000001430511
			vertex 14.27379989624 10.688760757446 0
		endloop
	endfacet
	facet normal 0 1 -0
		outer loop
			vertex 12.058799743652 11.048760414124 0.16500000655651
			vertex 12.050263404846 11.048760414124 0.18041408061981
			vertex 13.752183914185 11.048760414124 0.36000001430511
		endloop
	endfacet
	facet normal 0 -1 0
		outer loop
			vertex 11.596799850464 10.688760757446 0.36000001430511
			vertex 11.950799942017 10.688760757446 0.36000001430511
			vertex 9.2737998962402 10.688760757446 1.6136000156403
		endloop
	endfacet
	facet normal 0 1 0
		outer loop
			vertex 9.2737998962402 11.048760414124 0.36000001430511
			vertex 11.611800193787 11.048760414124 1.6136000156403
			vertex 11.596799850464 11.048760414124 0.36000001430511
		endloop
	endfacet
	facet normal 0 -1 0
		outer loop
			vertex 9.2737998962402 10.688760757446 1.6136000156403
			vertex 11.950799942017 10.688760757446 0.36000001430511
			vertex 14.27379989624 10.688760757446 0.36000001430511
		endloop
	endfacet
	facet normal 0 1 0
		outer loop
			vertex 11.596799850464 11.048760414124 0.36000001430511
			vertex 11.611800193787 11.048760414124 1.6136000156403
			vertex 11.611800193787 11.048760414124 0.36000001430511
		endloop
	endfacet
	facet normal 0 1 0
		outer loop
			vertex 11.935799598694 11.048760414124 0.36000001430511
			vertex 11.935799598694 11.048760414124 1.6136000156403
			vertex 11.950799942017 11.048760414124 0.36000001430511
		endloop
	endfacet
	facet normal 0 1 -0
		outer loop
			vertex 11.950799942017 11.048760414124 0.36000001430511
			vertex 11.935799598694 11.048760414124 1.6136000156403
			vertex 13.752183914185 11.048760414124 0.36000001430511
		endloop
	endfacet
	facet normal 0 1 -0
		outer loop
			vertex 14.27379989624 11.048760414124 0
			vertex 13.752183914185 11.048760414124 0.36000001430511
			vertex 14.27379989624 11.048760414124 1.6136000156403
		endloop
	endfacet
	facet normal 1 0 -0
		outer loop
			vertex 14.27379989624 11.048760414124 0
			vertex 14.27379989624 11.048760414124 1.6136000156403
			vertex 14.27379989624 10.769077301025 0.36000001430511
		endloop
	endfacet
	facet normal 1 0 0
		outer loop
			vertex 14.27379989624 10.769077301025 0.36000001430511
			vertex 14.27379989624 10.688760757446 1.6136000156403
			vertex 14.27379989624 10.688760757446 0.36000001430511
		endloop
	endfacet
	facet normal -1 0 0
		outer loop
			vertex 9.2737998962402 11.048760414124 0.36000001430511
			vertex 9.2737998962402 10.688760757446 1.6136000156403
			vertex 9.2737998962402 11.048760414124 1.6136000156403
		endloop
	endfacet
	facet normal 0 1 0
		outer loop
			vertex 9.2737998962402 11.048760414124 0.36000001430511
			vertex 9.2737998962402 11.048760414124 1.6136000156403
			vertex 11.611800193787 11.048760414124 1.6136000156403
		endloop
	endfacet
	facet normal 0 -1 0
		outer loop
			vertex 9.2737998962402 10.688760757446 1.6136000156403
			vertex 14.27379989624 10.688760757446 0.36000001430511
			vertex 14.27379989624 10.688760757446 1.6136000156403
		endloop
	endfacet
	facet normal 0 1 -0
		outer loop
			vertex 13.752183914185 11.048760414124 0.36000001430511
			vertex 11.935799598694 11.048760414124 1.6136000156403
			vertex 14.27379989624 11.048760414124 1.6136000156403
		endloop
	endfacet
	facet normal 1 0 -0
		outer loop
			vertex 14.27379989624 10.769077301025 0.36000001430511
			vertex 14.27379989624 11.048760414124 1.6136000156403
			vertex 14.27379989624 10.688760757446 1.6136000156403
		endloop
	endfacet
	facet normal 0 0 1
		outer loop
			vertex 9.2737998962402 11.048760414124 1.6136000156403
			vertex 9.2737998962402 10.688760757446 1.6136000156403
			vertex 14.27379989624 10.688760757446 1.6136000156403
		endloop
	endfacet
	facet normal -0 0 1
		outer loop
			vertex 9.2737998962402 11.048760414124 1.6136000156403
			vertex 14.27379989624 10.688760757446 1.6136000156403
			vertex 11.611800193787 11.048760414124 1.6136000156403
		endloop
	endfacet
	facet normal -0 0 1
		outer loop
			vertex 11.611800193787 11.048760414124 1.6136000156403
			vertex 14.27379989624 10.688760757446 1.6136000156403
			vertex 11.935799598694 11.048760414124 1.6136000156403
		endloop
	endfacet
	facet normal -0 0 1
		outer loop
			vertex 11.935799598694 11.048760414124 1.6136000156403
			vertex 14.27379989624 10.688760757446 1.6136000156403
			vertex 14.27379989624 11.048760414124 1.6136000156403
		endloop
	endfacet
	facet normal 0 0 -1
		outer loop
			vertex 11.503800392151 11.228760719299 0
			vertex 11.935799598694 11.048760414124 0
			vertex 11.611800193787 11.048760414124 0
		endloop
	endfacet
	facet normal 0 0 -1
		outer loop
			vertex 11.503800392151 11.228760719299 0
			vertex 12.043800354004 11.228760719299 0
			vertex 11.935799598694 11.048760414124 0
		endloop
	endfacet
	facet normal 0.85749172311249 -0.51449775975565 0
		outer loop
			vertex 11.935799598694 11.048760414124 0
			vertex 12.043800354004 11.228760719299 0
			vertex 11.935799598694 11.048760414124 0.16500000655651
		endloop
	endfacet
	facet normal 0.85749172311249 -0.51449775975565 0
		outer loop
			vertex 12.043800354004 11.228760719299 0
			vertex 11.935799598694 11.048760414124 0.36000001430511
			vertex 11.935799598694 11.048760414124 0.16500000655651
		endloop
	endfacet
	facet normal -0.85749372744519 -0.51449441920409 0
		outer loop
			vertex 11.503800392151 11.228760719299 0
			vertex 11.611800193787 11.048760414124 0
			vertex 11.503800392151 11.228760719299 1.6136000156403
		endloop
	endfacet
	facet normal -0.85749372744519 -0.51449441920409 0
		outer loop
			vertex 11.611800193787 11.048760414124 0
			vertex 11.611800193787 11.048760414124 0.16500000655651
			vertex 11.503800392151 11.228760719299 1.6136000156403
		endloop
	endfacet
	facet normal 0 1 0
		outer loop
			vertex 11.503800392151 11.228760719299 0
			vertex 12.043800354004 11.228760719299 1.6136000156403
			vertex 12.043800354004 11.228760719299 0
		endloop
	endfacet
	facet normal -0.85749372744519 -0.51449441920409 0
		outer loop
			vertex 11.611800193787 11.048760414124 0.16500000655651
			vertex 11.611800193787 11.048760414124 0.36000001430511
			vertex 11.503800392151 11.228760719299 1.6136000156403
		endloop
	endfacet
	facet normal 0.85749172311249 -0.51449775975565 0
		outer loop
			vertex 12.043800354004 11.228760719299 0
			vertex 11.935799598694 11.048760414124 1.6136000156403
			vertex 11.935799598694 11.048760414124 0.36000001430511
		endloop
	endfacet
	facet normal -0.85749372744519 -0.51449441920409 0
		outer loop
			vertex 11.611800193787 11.048760414124 0.36000001430511
			vertex 11.611800193787 11.048760414124 1.6136000156403
			vertex 11.503800392151 11.228760719299 1.6136000156403
		endloop
	endfacet
	facet normal 0 1 0
		outer loop
			vertex 11.503800392151 11.228760719299 0
			vertex 11.503800392151 11.228760719299 1.6136000156403
			vertex 12.043800354004 11.228760719299 1.6136000156403
		endloop
	endfacet
	facet normal 0.85749172311249 -0.51449775975565 0
		outer loop
			vertex 12.043800354004 11.228760719299 0
			vertex 12.043800354004 11.228760719299 1.6136000156403
			vertex 11.935799598694 11.048760414124 1.6136000156403
		endloop
	endfacet
	facet normal 0 0 1
		outer loop
			vertex 11.503800392151 11.228760719299 1.6136000156403
			vertex 11.611800193787 11.048760414124 1.6136000156403
			vertex 11.935799598694 11.048760414124 1.6136000156403
		endloop
	endfacet
	facet normal -0 0 1
		outer loop
			vertex 11.503800392151 11.228760719299 1.6136000156403
			vertex 11.935799598694 11.048760414124 1.6136000156403
			vertex 12.043800354004 11.228760719299 1.6136000156403
		endloop
	endfacet
	facet normal -1 -0 0
		outer loop
			vertex 9.2737998962402 10.688760757446 0.011131649836898
			vertex 9.2737998962402 1.5299603939056 0
			vertex 9.2737998962402 1.7099603414536 0.31176915764809
		endloop
	endfacet
	facet normal -1 0 0
		outer loop
			vertex 9.2737998962402 10.688760757446 0.017525067552924
			vertex 9.2737998962402 1.7099603414536 0.31176915764809
			vertex 9.2737998962402 1.6264221668243 0.36000001430511
		endloop
	endfacet
	facet normal 0 0 1
		outer loop
			vertex 11.596799850464 10.688760757446 0.36000001430511
			vertex 9.2737998962402 1.6264221668243 0.36000001430511
			vertex 11.596799850464 1.6264221668243 0.36000001430511
		endloop
	endfacet
	facet normal 0 0 -1
		outer loop
			vertex 9.2737998962402 1.5299603939056 0
			vertex 14.27379989624 10.688760757446 0
			vertex 14.27379989624 1.5299603939056 0
		endloop
	endfacet
	facet normal 1 0 0
		outer loop
			vertex 14.27379989624 10.688760757446 0
			vertex 14.27379989624 1.5299603939056 0.36000001430511
			vertex 14.27379989624 1.5299603939056 0
		endloop
	endfacet
	facet normal 1 0 0
		outer loop
			vertex 14.27379989624 10.688760757446 0
			vertex 14.27379989624 1.6264221668243 0.36000001430511
			vertex 14.27379989624 1.5299603939056 0.36000001430511
		endloop
	endfacet
	facet normal 0 0 1
		outer loop
			vertex 14.27379989624 10.688760757446 0.36000001430511
			vertex 11.950799942017 1.6264221668243 0.36000001430511
			vertex 14.27379989624 1.6264221668243 0.36000001430511
		endloop
	endfacet
	facet normal -1 0 0
		outer loop
			vertex 9.2737998962402 10.688760757446 0.011131649836898
			vertex 9.2737998962402 1.7099603414536 0.31176915764809
			vertex 9.2737998962402 10.688760757446 0.017525067552924
		endloop
	endfacet
	facet normal -1 0 0
		outer loop
			vertex 9.2737998962402 11.048760414124 0
			vertex 9.2737998962402 1.5299603939056 0
			vertex 9.2737998962402 10.688760757446 0.011131649836898
		endloop
	endfacet
	facet normal 0 0 -1
		outer loop
			vertex 9.2737998962402 11.048760414124 0
			vertex 11.611800193787 11.048760414124 0
			vertex 9.2737998962402 1.5299603939056 0
		endloop
	endfacet
	facet normal -1 0 0
		outer loop
			vertex 9.2737998962402 10.688760757446 0.017525067552924
			vertex 9.2737998962402 1.6264221668243 0.36000001430511
			vertex 9.2737998962402 10.688760757446 0.36000001430511
		endloop
	endfacet
	facet normal -0 0 1
		outer loop
			vertex 9.2737998962402 10.688760757446 0.36000001430511
			vertex 9.2737998962402 1.6264221668243 0.36000001430511
			vertex 11.596799850464 10.688760757446 0.36000001430511
		endloop
	endfacet
	facet normal 0 1 0
		outer loop
			vertex 9.2737998962402 11.048760414124 0
			vertex 9.2737998962402 11.048760414124 0.36000001430511
			vertex 11.488800048828 11.048760414124 0.16500000655651
		endloop
	endfacet
	facet normal -1 0 0
		outer loop
			vertex 9.2737998962402 10.688760757446 0.017525067552924
			vertex 9.2737998962402 10.688760757446 0.36000001430511
			vertex 9.2737998962402 10.965286254883 0.36000001430511
		endloop
	endfacet
	facet normal 0 -0 -1
		outer loop
			vertex 11.611800193787 11.048760414124 0
			vertex 11.935799598694 11.048760414124 0
			vertex 9.2737998962402 1.5299603939056 0
		endloop
	endfacet
	facet normal 0 0 -1
		outer loop
			vertex 9.2737998962402 1.5299603939056 0
			vertex 11.935799598694 11.048760414124 0
			vertex 14.27379989624 11.048760414124 0
		endloop
	endfacet
	facet normal 0 0 -1
		outer loop
			vertex 9.2737998962402 1.5299603939056 0
			vertex 14.27379989624 11.048760414124 0
			vertex 14.27379989624 10.688760757446 0
		endloop
	endfacet
	facet normal -0 0 1
		outer loop
			vertex 11.950799942017 10.688760757446 0.36000001430511
			vertex 11.950799942017 1.6264221668243 0.36000001430511
			vertex 14.27379989624 10.688760757446 0.36000001430511
		endloop
	endfacet
	facet normal 1 0 -0
		outer loop
			vertex 14.27379989624 10.688760757446 0
			vertex 14.27379989624 10.688760757446 0.36000001430511
			vertex 14.27379989624 1.6264221668243 0.36000001430511
		endloop
	endfacet
	facet normal 0 1 0
		outer loop
			vertex 9.2737998962402 11.048760414124 0
			vertex 11.488800048828 11.048760414124 0.16500000655651
			vertex 11.611800193787 11.048760414124 0
		endloop
	endfacet
	facet normal 0 1 -0
		outer loop
			vertex 11.611800193787 11.048760414124 0
			vertex 11.488800048828 11.048760414124 0.16500000655651
			vertex 11.611800193787 11.048760414124 0.16500000655651
		endloop
	endfacet
	facet normal 0 1 0
		outer loop
			vertex 11.935799598694 11.048760414124 0
			vertex 11.935799598694 11.048760414124 0.16500000655651
			vertex 11.982132911682 11.048760414124 0.16500000655651
		endloop
	endfacet
	facet normal -0 1 0
		outer loop
			vertex 9.2737998962402 11.048760414124 0.36000001430511
			vertex 11.596799850464 11.048760414124 0.36000001430511
			vertex 11.488800048828 11.048760414124 0.16500000655651
		endloop
	endfacet
	facet normal 0 1 0
		outer loop
			vertex 11.935799598694 11.048760414124 0
			vertex 11.982132911682 11.048760414124 0.16500000655651
			vertex 14.27379989624 11.048760414124 0
		endloop
	endfacet
	facet normal 0 1 -0
		outer loop
			vertex 12.050263404846 11.048760414124 0.18041408061981
			vertex 11.950799942017 11.048760414124 0.36000001430511
			vertex 13.752183914185 11.048760414124 0.36000001430511
		endloop
	endfacet
	facet normal 1 0 0
		outer loop
			vertex 14.27379989624 10.688760757446 0
			vertex 14.27379989624 10.769077301025 0.36000001430511
			vertex 14.27379989624 10.688760757446 0.36000001430511
		endloop
	endfacet
	facet normal -3.4260765877119e-08 -0.50000024921655 -0.86602525989915
		outer loop
			vertex 9.2737998962402 1.5299603939056 0
			vertex 11.421662330627 1.3636690378189 0.096008338034153
			vertex 11.08305644989 1.274715423584 0.14736577868462
		endloop
	endfacet
	facet normal -4.4699501455299e-08 -0.50000007887783 -0.86602535824429
		outer loop
			vertex 9.2737998962402 1.5299603939056 0
			vertex 10.77099609375 1.1302623748779 0.23076573014259
			vertex 10.497471809387 0.93586146831512 0.34300318360329
		endloop
	endfacet
	facet normal 4.5386293351303e-08 -0.49999982579405 -0.86602550436227
		outer loop
			vertex 9.2737998962402 1.5299603939056 0
			vertex 11.08305644989 1.274715423584 0.14736577868462
			vertex 10.77099609375 1.1302623748779 0.23076573014259
		endloop
	endfacet
	facet normal 1.8204162590354e-08 -0.49999998170532 -0.86602541434687
		outer loop
			vertex 9.2737998962402 1.5299603939056 0
			vertex 10.497471809387 0.93586146831512 0.34300318360329
			vertex 10.272996902466 0.69898319244385 0.47976490855217
		endloop
	endfacet
	facet normal 4.1304482898483e-08 -0.49999996087283 -0.86602542637452
		outer loop
			vertex 9.2737998962402 1.5299603939056 0
			vertex 10.272996902466 0.69898319244385 0.47976490855217
			vertex 10.106197357178 0.42873069643974 0.63579523563385
		endloop
	endfacet
	facet normal -1 0 0
		outer loop
			vertex 9.2737998962402 1.5299603939056 0
			vertex 9.2737998962402 1.6264221668243 0.36000001430511
			vertex 9.2737998962402 1.7099603414536 0.31176915764809
		endloop
	endfacet
	facet normal -1 0 0
		outer loop
			vertex 9.2737998962402 1.5299603939056 0
			vertex 9.2737998962402 0.36000001430511 1.0911691188812
			vertex 9.2737998962402 1.6264221668243 0.36000001430511
		endloop
	endfacet
	facet normal -2.6311970435481e-08 -0.49999999920527 -0.86602540424327
		outer loop
			vertex 9.2737998962402 1.5299603939056 0
			vertex 10.106197357178 0.42873069643974 0.63579523563385
			vertex 9.2737998962402 0.18000000715256 0.77939999103546
		endloop
	endfacet
	facet normal -9.6405891238863e-09 0.49999990626562 0.866025457902
		outer loop
			vertex 9.2737998962402 1.6264221668243 0.36000001430511
			vertex 10.497471809387 1.115861415863 0.65477234125137
			vertex 10.77099609375 1.3102624416351 0.54253488779068
		endloop
	endfacet
	facet normal 5.5628681634536e-08 0.50000002358982 0.86602539016485
		outer loop
			vertex 9.2737998962402 1.6264221668243 0.36000001430511
			vertex 10.272996902466 0.87898319959641 0.79153406620026
			vertex 10.497471809387 1.115861415863 0.65477234125137
		endloop
	endfacet
	facet normal -1 0 0
		outer loop
			vertex 9.2737998962402 1.5299603939056 0
			vertex 9.2737998962402 0.18000000715256 0.77939999103546
			vertex 9.2737998962402 0.36000001430511 1.0911691188812
		endloop
	endfacet
	facet normal 0 -0.50000006524663 -0.86602536611428
		outer loop
			vertex 9.2737998962402 0.18000000715256 0.77939999103546
			vertex 10.106197357178 0.42873069643974 0.63579523563385
			vertex 10.019073486328 0.18000000715256 0.77939999103546
		endloop
	endfacet
	facet normal -4.0414309551243e-08 0.49999996610468 0.86602542335391
		outer loop
			vertex 9.2737998962402 1.6264221668243 0.36000001430511
			vertex 9.2737998962402 0.36000001430511 1.0911691188812
			vertex 10.106197357178 0.60873073339462 0.94756442308426
		endloop
	endfacet
	facet normal 5.9308218070825e-08 0.500000027279 0.8660253880349
		outer loop
			vertex 9.2737998962402 1.6264221668243 0.36000001430511
			vertex 10.106197357178 0.60873073339462 0.94756442308426
			vertex 10.272996902466 0.87898319959641 0.79153406620026
		endloop
	endfacet
	facet normal 5.6105444309206e-09 0.49999988286472 0.86602547141251
		outer loop
			vertex 9.2737998962402 1.6264221668243 0.36000001430511
			vertex 11.08305644989 1.4547153711319 0.4591349363327
			vertex 11.421662330627 1.5436691045761 0.40777748823166
		endloop
	endfacet
	facet normal 2.3438186513495e-08 0.50000002375074 0.86602539007194
		outer loop
			vertex 9.2737998962402 1.6264221668243 0.36000001430511
			vertex 10.77099609375 1.3102624416351 0.54253488779068
			vertex 11.08305644989 1.4547153711319 0.4591349363327
		endloop
	endfacet
	facet normal -6.3812691342691e-09 -0.49999997914243 -0.86602541582656
		outer loop
			vertex 9.2737998962402 1.5299603939056 0
			vertex 11.77379989624 1.3937050104141 0.078667059540749
			vertex 11.421662330627 1.3636690378189 0.096008338034153
		endloop
	endfacet
	facet normal 0 -0.49999989133026 -0.86602546652493
		outer loop
			vertex 9.2737998962402 1.5299603939056 0
			vertex 14.27379989624 1.5299603939056 0
			vertex 11.77379989624 1.3937050104141 0.078667059540749
		endloop
	endfacet
	facet normal -0 0.49999977364809 0.86602553446873
		outer loop
			vertex 9.2737998962402 1.6264221668243 0.36000001430511
			vertex 11.421662330627 1.5436691045761 0.40777748823166
			vertex 11.596799850464 1.6264221668243 0.36000001430511
		endloop
	endfacet
	facet normal 5.8665553386622e-08 0.49999968052879 0.86602558823115
		outer loop
			vertex 11.596799850464 1.6264221668243 0.36000001430511
			vertex 11.421662330627 1.5436691045761 0.40777748823166
			vertex 11.77379989624 1.5737050771713 0.39043620228767
		endloop
	endfacet
	facet normal -0 0.49999953279949 0.86602567352261
		outer loop
			vertex 11.596799850464 1.6264221668243 0.36000001430511
			vertex 11.77379989624 1.5737050771713 0.39043620228767
			vertex 11.950799942017 1.6264221668243 0.36000001430511
		endloop
	endfacet
	facet normal -5.8665429877581e-08 0.49999968052848 0.86602558823133
		outer loop
			vertex 11.950799942017 1.6264221668243 0.36000001430511
			vertex 11.77379989624 1.5737050771713 0.39043620228767
			vertex 12.125938415527 1.5436691045761 0.40777748823166
		endloop
	endfacet
	facet normal 3.4260799591278e-08 -0.50000024921673 -0.86602525989904
		outer loop
			vertex 14.27379989624 1.5299603939056 0
			vertex 12.46454334259 1.274715423584 0.14736577868462
			vertex 12.125938415527 1.3636690378189 0.096008338034153
		endloop
	endfacet
	facet normal -4.5386260953042e-08 -0.49999982579422 -0.86602550436217
		outer loop
			vertex 14.27379989624 1.5299603939056 0
			vertex 12.776604652405 1.1302623748779 0.23076573014259
			vertex 12.46454334259 1.274715423584 0.14736577868462
		endloop
	endfacet
	facet normal 4.4699564709016e-08 -0.50000007887793 -0.86602535824424
		outer loop
			vertex 14.27379989624 1.5299603939056 0
			vertex 13.050127983093 0.93586146831512 0.34300318360329
			vertex 12.776604652405 1.1302623748779 0.23076573014259
		endloop
	endfacet
	facet normal -1.8204162590354e-08 -0.49999998170532 -0.86602541434687
		outer loop
			vertex 14.27379989624 1.5299603939056 0
			vertex 13.274602890015 0.69898319244385 0.47976490855217
			vertex 13.050127983093 0.93586146831512 0.34300318360329
		endloop
	endfacet
	facet normal -4.1304482898483e-08 -0.49999996087283 -0.86602542637452
		outer loop
			vertex 14.27379989624 1.5299603939056 0
			vertex 13.441402435303 0.42873069643974 0.63579523563385
			vertex 13.274602890015 0.69898319244385 0.47976490855217
		endloop
	endfacet
	facet normal 1 0 -0
		outer loop
			vertex 14.27379989624 1.5299603939056 0
			vertex 14.27379989624 1.5299603939056 0.36000001430511
			vertex 14.27379989624 0.18000000715256 0.77939999103546
		endloop
	endfacet
	facet normal 6.3812623966552e-09 -0.49999997914234 -0.86602541582661
		outer loop
			vertex 14.27379989624 1.5299603939056 0
			vertex 12.125938415527 1.3636690378189 0.096008338034153
			vertex 11.77379989624 1.3937050104141 0.078667059540749
		endloop
	endfacet
	facet normal -0 0.49999977364809 0.86602553446873
		outer loop
			vertex 11.950799942017 1.6264221668243 0.36000001430511
			vertex 12.125938415527 1.5436691045761 0.40777748823166
			vertex 14.27379989624 1.6264221668243 0.36000001430511
		endloop
	endfacet
	facet normal 9.6406015574541e-09 0.49999990626559 0.86602545790202
		outer loop
			vertex 14.27379989624 1.6264221668243 0.36000001430511
			vertex 12.776604652405 1.3102624416351 0.54253488779068
			vertex 13.050127983093 1.115861415863 0.65477234125137
		endloop
	endfacet
	facet normal 2.6311970435481e-08 -0.49999999920527 -0.86602540424327
		outer loop
			vertex 14.27379989624 1.5299603939056 0
			vertex 14.27379989624 0.18000000715256 0.77939999103546
			vertex 13.441402435303 0.42873069643974 0.63579523563385
		endloop
	endfacet
	facet normal 1 0 0
		outer loop
			vertex 14.27379989624 1.6264221668243 0.36000001430511
			vertex 14.27379989624 0.18000000715256 0.77939999103546
			vertex 14.27379989624 1.5299603939056 0.36000001430511
		endloop
	endfacet
	facet normal -5.5628681634536e-08 0.50000002358982 0.86602539016485
		outer loop
			vertex 14.27379989624 1.6264221668243 0.36000001430511
			vertex 13.050127983093 1.115861415863 0.65477234125137
			vertex 13.274602890015 0.87898319959641 0.79153406620026
		endloop
	endfacet
	facet normal -0 -0.50000006524663 -0.86602536611428
		outer loop
			vertex 14.27379989624 0.18000000715256 0.77939999103546
			vertex 13.528526306152 0.18000000715256 0.77939999103546
			vertex 13.441402435303 0.42873069643974 0.63579523563385
		endloop
	endfacet
	facet normal 1.7062052363167e-09 0.49999996610468 0.86602542335391
		outer loop
			vertex 14.27379989624 1.6264221668243 0.36000001430511
			vertex 13.274602890015 0.87898319959641 0.79153406620026
			vertex 14.27379989624 0.36000001430511 1.0911691188812
		endloop
	endfacet
	facet normal 1 0 0
		outer loop
			vertex 14.27379989624 1.6264221668243 0.36000001430511
			vertex 14.27379989624 0.36000001430511 1.0911691188812
			vertex 14.27379989624 0.18000000715256 0.77939999103546
		endloop
	endfacet
	facet normal -5.6105486245308e-09 0.49999988286476 0.86602547141249
		outer loop
			vertex 14.27379989624 1.6264221668243 0.36000001430511
			vertex 12.125938415527 1.5436691045761 0.40777748823166
			vertex 12.46454334259 1.4547153711319 0.4591349363327
		endloop
	endfacet
	facet normal -2.3438174326687e-08 0.50000002375065 0.866025390072
		outer loop
			vertex 14.27379989624 1.6264221668243 0.36000001430511
			vertex 12.46454334259 1.4547153711319 0.4591349363327
			vertex 12.776604652405 1.3102624416351 0.54253488779068
		endloop
	endfacet
	facet normal 0 -0.86602538301692 0.5000000359704
		outer loop
			vertex 9.2737998962402 0.18000000715256 0.77939999103546
			vertex 10.019073486328 0.18000000715256 0.77939999103546
			vertex 10.019073486328 0.36000001430511 1.0911691188812
		endloop
	endfacet
	facet normal 0 -0.86602538301692 0.5000000359704
		outer loop
			vertex 9.2737998962402 0.18000000715256 0.77939999103546
			vertex 10.019073486328 0.36000001430511 1.0911691188812
			vertex 9.2737998962402 0.36000001430511 1.0911691188812
		endloop
	endfacet
	facet normal -0 0.49999986466735 0.86602548191877
		outer loop
			vertex 9.2737998962402 0.36000001430511 1.0911691188812
			vertex 10.019073486328 0.36000001430511 1.0911691188812
			vertex 10.106197357178 0.60873073339462 0.94756442308426
		endloop
	endfacet
	facet normal 0 -0.86602538301692 0.5000000359704
		outer loop
			vertex 14.27379989624 0.18000000715256 0.77939999103546
			vertex 14.27379989624 0.36000001430511 1.0911691188812
			vertex 13.528526306152 0.18000000715256 0.77939999103546
		endloop
	endfacet
	facet normal 0 -0.86602538301692 0.5000000359704
		outer loop
			vertex 14.27379989624 0.36000001430511 1.0911691188812
			vertex 13.528526306152 0.36000001430511 1.0911691188812
			vertex 13.528526306152 0.18000000715256 0.77939999103546
		endloop
	endfacet
	facet normal 9.2849034080978e-08 0.50000009771247 0.86602534737011
		outer loop
			vertex 14.27379989624 0.36000001430511 1.0911691188812
			vertex 13.274602890015 0.87898319959641 0.79153406620026
			vertex 13.441402435303 0.60873073339462 0.94756442308426
		endloop
	endfacet
	facet normal 0 0.49999986466735 0.86602548191877
		outer loop
			vertex 14.27379989624 0.36000001430511 1.0911691188812
			vertex 13.441402435303 0.60873073339462 0.94756442308426
			vertex 13.528526306152 0.36000001430511 1.0911691188812
		endloop
	endfacet
	facet normal 0.87479174141013 0 -0.48449913225994
		outer loop
			vertex 11.596799850464 1.6264221668243 0.36000001430511
			vertex 11.596799850464 1.5360028743744 0.36000001430511
			vertex 11.488800048828 1.4111368656158 0.16500000655651
		endloop
	endfacet
	facet normal 0 0 -1
		outer loop
			vertex 11.596799850464 1.6264221668243 0.36000001430511
			vertex 11.77379989624 1.5561326742172 0.36000001430511
			vertex 11.596799850464 1.5360028743744 0.36000001430511
		endloop
	endfacet
	facet normal 0 0 -1
		outer loop
			vertex 11.596799850464 1.6264221668243 0.36000001430511
			vertex 11.950799942017 1.6264221668243 0.36000001430511
			vertex 11.77379989624 1.5561326742172 0.36000001430511
		endloop
	endfacet
	facet normal 0 -0 -1
		outer loop
			vertex 11.950799942017 1.6264221668243 0.36000001430511
			vertex 11.950799942017 1.5360028743744 0.36000001430511
			vertex 11.77379989624 1.5561326742172 0.36000001430511
		endloop
	endfacet
	facet normal 0 0 1
		outer loop
			vertex 11.488800048828 11.048760414124 0.16500000655651
			vertex 11.488800048828 1.4111368656158 0.16500000655651
			vertex 11.77379989624 1.4435493946075 0.16500000655651
		endloop
	endfacet
	facet normal 0 0 1
		outer loop
			vertex 12.058799743652 11.048760414124 0.16500000655651
			vertex 11.77379989624 1.4435493946075 0.16500000655651
			vertex 12.058799743652 1.4111368656158 0.16500000655651
		endloop
	endfacet
	facet normal 0.87479174141013 0 -0.48449913225994
		outer loop
			vertex 11.488800048828 11.048760414124 0.16500000655651
			vertex 11.596799850464 1.6264221668243 0.36000001430511
			vertex 11.488800048828 1.4111368656158 0.16500000655651
		endloop
	endfacet
	facet normal -0.87479174141013 -0 -0.48449913225994
		outer loop
			vertex 12.058799743652 11.048760414124 0.16500000655651
			vertex 12.058799743652 1.4111368656158 0.16500000655651
			vertex 11.950799942017 1.5360028743744 0.36000001430511
		endloop
	endfacet
	facet normal -0.87479035647388 0 -0.48450163283554
		outer loop
			vertex 12.050263404846 11.048760414124 0.18041408061981
			vertex 11.950799942017 1.5360028743744 0.36000001430511
			vertex 11.950799942017 1.6264221668243 0.36000001430511
		endloop
	endfacet
	facet normal -0 0 1
		outer loop
			vertex 11.488800048828 11.048760414124 0.16500000655651
			vertex 11.77379989624 1.4435493946075 0.16500000655651
			vertex 11.611800193787 11.048760414124 0.16500000655651
		endloop
	endfacet
	facet normal -0 0 1
		outer loop
			vertex 11.611800193787 11.048760414124 0.16500000655651
			vertex 11.77379989624 1.4435493946075 0.16500000655651
			vertex 11.935799598694 11.048760414124 0.16500000655651
		endloop
	endfacet
	facet normal -0 0 1
		outer loop
			vertex 11.935799598694 11.048760414124 0.16500000655651
			vertex 11.77379989624 1.4435493946075 0.16500000655651
			vertex 11.982132911682 11.048760414124 0.16500000655651
		endloop
	endfacet
	facet normal -0 0 1
		outer loop
			vertex 11.982132911682 11.048760414124 0.16500000655651
			vertex 11.77379989624 1.4435493946075 0.16500000655651
			vertex 12.058799743652 11.048760414124 0.16500000655651
		endloop
	endfacet
	facet normal 0.87479174141013 0 -0.48449913225994
		outer loop
			vertex 11.488800048828 11.048760414124 0.16500000655651
			vertex 11.596799850464 10.688760757446 0.36000001430511
			vertex 11.596799850464 1.6264221668243 0.36000001430511
		endloop
	endfacet
	facet normal -0.87480787678911 7.8040987927243e-07 -0.48446999773682
		outer loop
			vertex 12.058799743652 11.048760414124 0.16500000655651
			vertex 11.950799942017 1.5360028743744 0.36000001430511
			vertex 12.050263404846 11.048760414124 0.18041408061981
		endloop
	endfacet
	facet normal -0.87479035647388 0 -0.48450163283554
		outer loop
			vertex 12.050263404846 11.048760414124 0.18041408061981
			vertex 11.950799942017 1.6264221668243 0.36000001430511
			vertex 11.950799942017 10.688760757446 0.36000001430511
		endloop
	endfacet
	facet normal 0.87479174141013 0 -0.48449913225994
		outer loop
			vertex 11.488800048828 11.048760414124 0.16500000655651
			vertex 11.596799850464 11.048760414124 0.36000001430511
			vertex 11.596799850464 10.688760757446 0.36000001430511
		endloop
	endfacet
	facet normal 0 -1 0
		outer loop
			vertex 11.611800193787 11.048760414124 0.16500000655651
			vertex 11.935799598694 11.048760414124 0.16500000655651
			vertex 11.611800193787 11.048760414124 0.36000001430511
		endloop
	endfacet
	facet normal 0 -1 0
		outer loop
			vertex 11.611800193787 11.048760414124 0.36000001430511
			vertex 11.935799598694 11.048760414124 0.16500000655651
			vertex 11.935799598694 11.048760414124 0.36000001430511
		endloop
	endfacet
	facet normal -0.87479035647388 0 -0.48450163283554
		outer loop
			vertex 12.050263404846 11.048760414124 0.18041408061981
			vertex 11.950799942017 10.688760757446 0.36000001430511
			vertex 11.950799942017 11.048760414124 0.36000001430511
		endloop
	endfacet
	facet normal 0 0 -1
		outer loop
			vertex 11.596799850464 11.048760414124 0.36000001430511
			vertex 11.950799942017 10.688760757446 0.36000001430511
			vertex 11.596799850464 10.688760757446 0.36000001430511
		endloop
	endfacet
	facet normal 0 0 -1
		outer loop
			vertex 11.596799850464 11.048760414124 0.36000001430511
			vertex 11.611800193787 11.048760414124 0.36000001430511
			vertex 11.950799942017 10.688760757446 0.36000001430511
		endloop
	endfacet
	facet normal 0 0 -1
		outer loop
			vertex 11.611800193787 11.048760414124 0.36000001430511
			vertex 11.935799598694 11.048760414124 0.36000001430511
			vertex 11.950799942017 10.688760757446 0.36000001430511
		endloop
	endfacet
	facet normal 0 0 -1
		outer loop
			vertex 11.935799598694 11.048760414124 0.36000001430511
			vertex 11.950799942017 11.048760414124 0.36000001430511
			vertex 11.950799942017 10.688760757446 0.36000001430511
		endloop
	endfacet
	facet normal 0.63439205371768 -0.66944750903994 0.3865058276664
		outer loop
			vertex 10.497471809387 0.93586146831512 0.34300318360329
			vertex 10.77099609375 1.1302623748779 0.23076573014259
			vertex 10.77099609375 1.3102624416351 0.54253488779068
		endloop
	endfacet
	facet normal 0.77301045506186 -0.54940074371933 0.31719656234851
		outer loop
			vertex 10.272996902466 0.69898319244385 0.47976490855217
			vertex 10.497471809387 0.93586146831512 0.34300318360329
			vertex 10.497471809387 1.115861415863 0.65477234125137
		endloop
	endfacet
	facet normal 0.63439222805988 -0.6694474959697 0.3865055641477
		outer loop
			vertex 10.497471809387 0.93586146831512 0.34300318360329
			vertex 10.77099609375 1.3102624416351 0.54253488779068
			vertex 10.497471809387 1.115861415863 0.65477234125137
		endloop
	endfacet
	facet normal 0.88192169775799 -0.40824084709916 0.2356979630447
		outer loop
			vertex 10.106197357178 0.42873069643974 0.63579523563385
			vertex 10.272996902466 0.69898319244385 0.47976490855217
			vertex 10.272996902466 0.87898319959641 0.79153406620026
		endloop
	endfacet
	facet normal 0.9569404934292 -0.25139345020295 0.14514208635176
		outer loop
			vertex 10.019073486328 0.18000000715256 0.77939999103546
			vertex 10.106197357178 0.42873069643974 0.63579523563385
			vertex 10.106197357178 0.60873073339462 0.94756442308426
		endloop
	endfacet
	facet normal 0.88192169090746 -0.40824085105663 0.23569798182309
		outer loop
			vertex 10.106197357178 0.42873069643974 0.63579523563385
			vertex 10.272996902466 0.87898319959641 0.79153406620026
			vertex 10.106197357178 0.60873073339462 0.94756442308426
		endloop
	endfacet
	facet normal 0.77301039635096 -0.54940076019258 0.31719667689487
		outer loop
			vertex 10.272996902466 0.69898319244385 0.47976490855217
			vertex 10.497471809387 1.115861415863 0.65477234125137
			vertex 10.272996902466 0.87898319959641 0.79153406620026
		endloop
	endfacet
	facet normal 0.098017228579929 -0.86185510028226 0.49759261350924
		outer loop
			vertex 11.421662330627 1.3636690378189 0.096008338034153
			vertex 11.77379989624 1.3937050104141 0.078667059540749
			vertex 11.77379989624 1.4435493946075 0.16500000655651
		endloop
	endfacet
	facet normal -0.098016965676394 -0.86185562514645 0.49759175620483
		outer loop
			vertex 12.058799743652 1.4111368656158 0.16500000655651
			vertex 11.77379989624 1.3937050104141 0.078667059540749
			vertex 12.125938415527 1.3636690378189 0.096008338034153
		endloop
	endfacet
	facet normal 0.47139728661193 -0.7637660277319 0.44096037583615
		outer loop
			vertex 11.08305644989 1.274715423584 0.14736577868462
			vertex 11.08305644989 1.4547153711319 0.4591349363327
			vertex 10.77099609375 1.1302623748779 0.23076573014259
		endloop
	endfacet
	facet normal 0.29028426069267 -0.8287346764575 0.47847035857094
		outer loop
			vertex 11.08305644989 1.274715423584 0.14736577868462
			vertex 11.421662330627 1.3636690378189 0.096008338034153
			vertex 11.421662330627 1.5436691045761 0.40777748823166
		endloop
	endfacet
	facet normal -0.2902850093791 -0.8287346219367 0.47846999878071
		outer loop
			vertex 12.125938415527 1.3636690378189 0.096008338034153
			vertex 12.46454334259 1.274715423584 0.14736577868462
			vertex 12.46454334259 1.4547153711319 0.4591349363327
		endloop
	endfacet
	facet normal 0.098017264392293 -0.86185516109249 0.49759250112848
		outer loop
			vertex 11.488800048828 1.4111368656158 0.16500000655651
			vertex 11.421662330627 1.3636690378189 0.096008338034153
			vertex 11.77379989624 1.4435493946075 0.16500000655651
		endloop
	endfacet
	facet normal -0.098017257198834 -0.86185509784118 0.49759261209988
		outer loop
			vertex 11.77379989624 1.3937050104141 0.078667059540749
			vertex 12.058799743652 1.4111368656158 0.16500000655651
			vertex 11.77379989624 1.4435493946075 0.16500000655651
		endloop
	endfacet
	facet normal 0.098017280435343 -0.86185516623768 0.49759248905655
		outer loop
			vertex 11.488800048828 1.4111368656158 0.16500000655651
			vertex 11.421662330627 1.5436691045761 0.40777748823166
			vertex 11.421662330627 1.3636690378189 0.096008338034153
		endloop
	endfacet
	facet normal 0.29028453751176 -0.8287347458991 0.47847007035042
		outer loop
			vertex 11.08305644989 1.274715423584 0.14736577868462
			vertex 11.421662330627 1.5436691045761 0.40777748823166
			vertex 11.08305644989 1.4547153711319 0.4591349363327
		endloop
	endfacet
	facet normal 0.098017453406146 -0.86185513028179 0.4975925172616
		outer loop
			vertex 11.488800048828 1.4111368656158 0.16500000655651
			vertex 11.596799850464 1.5360028743744 0.36000001430511
			vertex 11.421662330627 1.5436691045761 0.40777748823166
		endloop
	endfacet
	facet normal 0.098017239006885 -0.86185556787809 0.49759180155526
		outer loop
			vertex 11.596799850464 1.5360028743744 0.36000001430511
			vertex 11.77379989624 1.5737050771713 0.39043620228767
			vertex 11.421662330627 1.5436691045761 0.40777748823166
		endloop
	endfacet
	facet normal -0.098015901520423 -0.86185528385301 0.49759255696181
		outer loop
			vertex 12.058799743652 1.4111368656158 0.16500000655651
			vertex 12.125938415527 1.3636690378189 0.096008338034153
			vertex 12.125938415527 1.5436691045761 0.40777748823166
		endloop
	endfacet
	facet normal 0.098016694009846 -0.86185453715609 0.4975936941711
		outer loop
			vertex 11.77379989624 1.5737050771713 0.39043620228767
			vertex 11.596799850464 1.5360028743744 0.36000001430511
			vertex 11.77379989624 1.5561326742172 0.36000001430511
		endloop
	endfacet
	facet normal -0.098016694009846 -0.86185453715609 0.4975936941711
		outer loop
			vertex 11.950799942017 1.5360028743744 0.36000001430511
			vertex 11.77379989624 1.5737050771713 0.39043620228767
			vertex 11.77379989624 1.5561326742172 0.36000001430511
		endloop
	endfacet
	facet normal -0.098016976103383 -0.86185507066402 0.497592714543
		outer loop
			vertex 11.950799942017 1.5360028743744 0.36000001430511
			vertex 12.125938415527 1.5436691045761 0.40777748823166
			vertex 11.77379989624 1.5737050771713 0.39043620228767
		endloop
	endfacet
	facet normal -0.098016981661134 -0.86185505932039 0.49759273309595
		outer loop
			vertex 12.058799743652 1.4111368656158 0.16500000655651
			vertex 12.125938415527 1.5436691045761 0.40777748823166
			vertex 11.950799942017 1.5360028743744 0.36000001430511
		endloop
	endfacet
	facet normal -0.2902852861988 -0.82873440705087 0.4784702030289
		outer loop
			vertex 12.125938415527 1.3636690378189 0.096008338034153
			vertex 12.46454334259 1.4547153711319 0.4591349363327
			vertex 12.125938415527 1.5436691045761 0.40777748823166
		endloop
	endfacet
	facet normal -0.47139616612439 -0.76376641995022 0.44096089432018
		outer loop
			vertex 12.776604652405 1.1302623748779 0.23076573014259
			vertex 12.776604652405 1.3102624416351 0.54253488779068
			vertex 12.46454334259 1.274715423584 0.14736577868462
		endloop
	endfacet
	facet normal -0.47139593919499 -0.76376665145134 0.44096073594061
		outer loop
			vertex 12.46454334259 1.274715423584 0.14736577868462
			vertex 12.776604652405 1.3102624416351 0.54253488779068
			vertex 12.46454334259 1.4547153711319 0.4591349363327
		endloop
	endfacet
	facet normal 0.47139705968227 -0.76376600632225 0.44096065551188
		outer loop
			vertex 10.77099609375 1.1302623748779 0.23076573014259
			vertex 11.08305644989 1.4547153711319 0.4591349363327
			vertex 10.77099609375 1.3102624416351 0.54253488779068
		endloop
	endfacet
	facet normal -0.63439354976433 -0.66944644575811 0.38650521378015
		outer loop
			vertex 12.776604652405 1.3102624416351 0.54253488779068
			vertex 12.776604652405 1.1302623748779 0.23076573014259
			vertex 13.050127983093 1.115861415863 0.65477234125137
		endloop
	endfacet
	facet normal -0.63439337542225 -0.66944668050732 0.38650509334043
		outer loop
			vertex 12.776604652405 1.1302623748779 0.23076573014259
			vertex 13.050127983093 0.93586146831512 0.34300318360329
			vertex 13.050127983093 1.115861415863 0.65477234125137
		endloop
	endfacet
	facet normal -0.77301045506186 -0.54940069823762 0.31719664112515
		outer loop
			vertex 13.274602890015 0.87898319959641 0.79153406620026
			vertex 13.050127983093 0.93586146831512 0.34300318360329
			vertex 13.274602890015 0.69898319244385 0.47976490855217
		endloop
	endfacet
	facet normal -0.77301039635095 -0.5494008056743 0.31719659811822
		outer loop
			vertex 13.050127983093 0.93586146831512 0.34300318360329
			vertex 13.274602890015 0.87898319959641 0.79153406620026
			vertex 13.050127983093 1.115861415863 0.65477234125137
		endloop
	endfacet
	facet normal -0.88192169090746 -0.40824085819855 0.23569796945293
		outer loop
			vertex 13.274602890015 0.87898319959641 0.79153406620026
			vertex 13.274602890015 0.69898319244385 0.47976490855217
			vertex 13.441402435303 0.60873073339462 0.94756442308426
		endloop
	endfacet
	facet normal -0.88192169775799 -0.40824083995725 0.23569797541486
		outer loop
			vertex 13.441402435303 0.60873073339462 0.94756442308426
			vertex 13.274602890015 0.69898319244385 0.47976490855217
			vertex 13.441402435303 0.42873069643974 0.63579523563385
		endloop
	endfacet
	facet normal 0.9569404923082 -0.25139345179353 0.14514209098769
		outer loop
			vertex 10.019073486328 0.36000001430511 1.0911691188812
			vertex 10.019073486328 0.18000000715256 0.77939999103546
			vertex 10.106197357178 0.60873073339462 0.94756442308426
		endloop
	endfacet
	facet normal -0.9569404934292 -0.25139344859318 0.14514208913996
		outer loop
			vertex 13.528526306152 0.18000000715256 0.77939999103546
			vertex 13.528526306152 0.36000001430511 1.0911691188812
			vertex 13.441402435303 0.42873069643974 0.63579523563385
		endloop
	endfacet
	facet normal -0.9569404923082 -0.2513934534033 0.14514208819948
		outer loop
			vertex 13.528526306152 0.36000001430511 1.0911691188812
			vertex 13.441402435303 0.60873073339462 0.94756442308426
			vertex 13.441402435303 0.42873069643974 0.63579523563385
		endloop
	endfacet
endsolid