solid OpenSCAD_Model
  facet normal 1 -0 0
    outer loop
      vertex 10 11.2953 0.36
      vertex 10 12.9089 0
      vertex 10 12.9089 0.36
    endloop
  endfacet
  facet normal 1 0 0
    outer loop
      vertex 10 12.9089 0
      vertex 10 11.2953 0.36
      vertex 10 11.2953 0
    endloop
  endfacet
  facet normal 0 0 1
    outer loop
      vertex 3.6933 10.6167 0.36
      vertex 6.3066 10.6167 0.36
      vertex 6.3066 12.9089 0.36
    endloop
  endfacet
  facet normal 0 0 1
    outer loop
      vertex 6.3066 10.6167 0.36
      vertex 3.6933 10.6167 0.36
      vertex 5 9.84912 0.36
    endloop
  endfacet
  facet normal 0 0 1
    outer loop
      vertex 3.6933 10.6167 0.36
      vertex 6.3066 12.9089 0.36
      vertex 3.6933 12.9089 0.36
    endloop
  endfacet
  facet normal 0 0 1
    outer loop
      vertex 5 9.84912 0.36
      vertex 3.6933 10.6167 0.36
      vertex 4.64 9.84912 0.36
    endloop
  endfacet
  facet normal -0 0 1
    outer loop
      vertex 3.3333 10.6167 0.36
      vertex 4.64 9.84912 0.36
      vertex 3.6933 10.6167 0.36
    endloop
  endfacet
  facet normal 0 0 1
    outer loop
      vertex 4.64 9.84912 0.36
      vertex 3.3333 10.6167 0.36
      vertex 3.3333 1.6136 0.36
    endloop
  endfacet
  facet normal 0 0 1
    outer loop
      vertex 4.64 9.84912 0.36
      vertex 3.3333 1.6136 0.36
      vertex 4.64 0.36 0.36
    endloop
  endfacet
  facet normal 0 0 1
    outer loop
      vertex 3.3333 1.6136 0.36
      vertex 2.5 0.36 0.36
      vertex 4.64 0.36 0.36
    endloop
  endfacet
  facet normal -0 0 1
    outer loop
      vertex 0 1.6136 0.36
      vertex 2.5 0.36 0.36
      vertex 3.3333 1.6136 0.36
    endloop
  endfacet
  facet normal 0 0 1
    outer loop
      vertex 0 0 0.36
      vertex 2.5 0.36 0.36
      vertex 0 1.6136 0.36
    endloop
  endfacet
  facet normal 0 0 1
    outer loop
      vertex 2.5 0.36 0.36
      vertex 0 0 0.36
      vertex 2.5 0 0.36
    endloop
  endfacet
  facet normal 0 0 1
    outer loop
      vertex 5 9.84912 0.36
      vertex 6.6666 10.6167 0.36
      vertex 6.3066 10.6167 0.36
    endloop
  endfacet
  facet normal 0 0 1
    outer loop
      vertex 10 1.6136 0.36
      vertex 7.5 0.36 0.36
      vertex 10 0 0.36
    endloop
  endfacet
  facet normal -0 0 1
    outer loop
      vertex 6.6666 1.6136 0.36
      vertex 7.5 0.36 0.36
      vertex 10 1.6136 0.36
    endloop
  endfacet
  facet normal 0 0 1
    outer loop
      vertex 6.6666 10.6167 0.36
      vertex 5 9.84912 0.36
      vertex 6.6666 1.6136 0.36
    endloop
  endfacet
  facet normal 0 0 1
    outer loop
      vertex 6.6666 1.6136 0.36
      vertex 5 0.36 0.36
      vertex 7.5 0.36 0.36
    endloop
  endfacet
  facet normal 0 0 1
    outer loop
      vertex 5 0.36 0.36
      vertex 6.6666 1.6136 0.36
      vertex 5 9.84912 0.36
    endloop
  endfacet
  facet normal 0 0 1
    outer loop
      vertex 10 0 0.36
      vertex 7.5 0.36 0.36
      vertex 7.5 0 0.36
    endloop
  endfacet
  facet normal -0 0 1
    outer loop
      vertex 0 12.9089 0.36
      vertex 3.3333 11.2953 0.36
      vertex 3.3333 12.9089 0.36
    endloop
  endfacet
  facet normal 0 0 1
    outer loop
      vertex 3.3333 11.2953 0.36
      vertex 0 12.9089 0.36
      vertex 0 11.2953 0.36
    endloop
  endfacet
  facet normal -0 0 1
    outer loop
      vertex 6.6666 12.9089 0.36
      vertex 10 11.2953 0.36
      vertex 10 12.9089 0.36
    endloop
  endfacet
  facet normal 0 0 1
    outer loop
      vertex 10 11.2953 0.36
      vertex 6.6666 12.9089 0.36
      vertex 6.6666 11.2953 0.36
    endloop
  endfacet
  facet normal 0 0 -1
    outer loop
      vertex 10 0 0
      vertex 6.6666 1.6136 0
      vertex 10 1.6136 0
    endloop
  endfacet
  facet normal 0 0 -1
    outer loop
      vertex 6.6666 1.6136 0
      vertex 3.3333 1.6136 0
      vertex 6.6666 11.2953 0
    endloop
  endfacet
  facet normal 0 0 -1
    outer loop
      vertex 10 0 0
      vertex 3.3333 1.6136 0
      vertex 6.6666 1.6136 0
    endloop
  endfacet
  facet normal 0 0 -1
    outer loop
      vertex 0 0 0
      vertex 3.3333 1.6136 0
      vertex 10 0 0
    endloop
  endfacet
  facet normal -0 0 -1
    outer loop
      vertex 3.3333 1.6136 0
      vertex 0 0 0
      vertex 0 1.6136 0
    endloop
  endfacet
  facet normal 0 0 -1
    outer loop
      vertex 6.6666 11.2953 0
      vertex 10 12.9089 0
      vertex 10 11.2953 0
    endloop
  endfacet
  facet normal 0 0 -1
    outer loop
      vertex 3.3333 11.2953 0
      vertex 6.6666 11.2953 0
      vertex 3.3333 1.6136 0
    endloop
  endfacet
  facet normal 0 0 -1
    outer loop
      vertex 3.3333 11.2953 0
      vertex 10 12.9089 0
      vertex 6.6666 11.2953 0
    endloop
  endfacet
  facet normal 0 0 -1
    outer loop
      vertex 0 12.9089 0
      vertex 3.3333 11.2953 0
      vertex 0 11.2953 0
    endloop
  endfacet
  facet normal 0 0 -1
    outer loop
      vertex 3.3333 11.2953 0
      vertex 0 12.9089 0
      vertex 10 12.9089 0
    endloop
  endfacet
  facet normal -1 0 0
    outer loop
      vertex 0 11.2953 0
      vertex 0 12.9089 0.36
      vertex 0 12.9089 0
    endloop
  endfacet
  facet normal -1 -0 0
    outer loop
      vertex 0 12.9089 0.36
      vertex 0 11.2953 0
      vertex 0 11.2953 0.36
    endloop
  endfacet
  facet normal 0 1 -0
    outer loop
      vertex 10 12.9089 0
      vertex 6.6666 12.9089 0.36
      vertex 10 12.9089 0.36
    endloop
  endfacet
  facet normal 0 1 0
    outer loop
      vertex 6.6666 12.9089 0.36
      vertex 10 12.9089 0
      vertex 6.3066 12.9089 0.36
    endloop
  endfacet
  facet normal 0 1 0
    outer loop
      vertex 6.3066 12.9089 0.36
      vertex 10 12.9089 0
      vertex 3.6933 12.9089 0.36
    endloop
  endfacet
  facet normal 0 1 0
    outer loop
      vertex 0 12.9089 0
      vertex 3.6933 12.9089 0.36
      vertex 10 12.9089 0
    endloop
  endfacet
  facet normal 0 1 0
    outer loop
      vertex 3.6933 12.9089 0.36
      vertex 0 12.9089 0
      vertex 3.3333 12.9089 0.36
    endloop
  endfacet
  facet normal 0 1 0
    outer loop
      vertex 3.3333 12.9089 0.36
      vertex 0 12.9089 0
      vertex 0 12.9089 0.36
    endloop
  endfacet
  facet normal 0 1 -0
    outer loop
      vertex 6.6666 12.9089 0.36
      vertex 6.3066 12.9089 4.33012
      vertex 6.6666 12.9089 4.33012
    endloop
  endfacet
  facet normal 0 1 0
    outer loop
      vertex 6.3066 12.9089 4.33012
      vertex 6.6666 12.9089 0.36
      vertex 6.3066 12.9089 0.36
    endloop
  endfacet
  facet normal 0 1 -0
    outer loop
      vertex 3.6933 12.9089 0.36
      vertex 3.3333 12.9089 4.33012
      vertex 3.6933 12.9089 4.33012
    endloop
  endfacet
  facet normal 0 1 0
    outer loop
      vertex 3.3333 12.9089 4.33012
      vertex 3.6933 12.9089 0.36
      vertex 3.3333 12.9089 0.36
    endloop
  endfacet
  facet normal 0 -1 0
    outer loop
      vertex 0 11.2953 0
      vertex 3.3333 11.2953 0.36
      vertex 0 11.2953 0.36
    endloop
  endfacet
  facet normal 0 -1 -0
    outer loop
      vertex 3.3333 11.2953 0.36
      vertex 0 11.2953 0
      vertex 3.3333 11.2953 0
    endloop
  endfacet
  facet normal 0 -1 0
    outer loop
      vertex 6.6666 11.2953 0
      vertex 10 11.2953 0.36
      vertex 6.6666 11.2953 0.36
    endloop
  endfacet
  facet normal 0 -1 -0
    outer loop
      vertex 10 11.2953 0.36
      vertex 6.6666 11.2953 0
      vertex 10 11.2953 0
    endloop
  endfacet
  facet normal -1 0 0
    outer loop
      vertex 3.3333 11.2953 0
      vertex 3.3333 10.6167 0.36
      vertex 3.3333 11.2953 0.36
    endloop
  endfacet
  facet normal -1 0 0
    outer loop
      vertex 3.3333 1.6136 0
      vertex 3.3333 10.6167 0.36
      vertex 3.3333 11.2953 0
    endloop
  endfacet
  facet normal -1 -0 0
    outer loop
      vertex 3.3333 10.6167 0.36
      vertex 3.3333 1.6136 0
      vertex 3.3333 1.6136 0.36
    endloop
  endfacet
  facet normal -1 0 0
    outer loop
      vertex 3.3333 11.2953 0.36
      vertex 3.3333 12.9089 4.33012
      vertex 3.3333 12.9089 0.36
    endloop
  endfacet
  facet normal -1 0 0
    outer loop
      vertex 3.3333 12.9089 4.33012
      vertex 3.3333 11.2953 0.36
      vertex 3.3333 10.6167 0.36
    endloop
  endfacet
  facet normal 1 0 0
    outer loop
      vertex 3.6933 12.9089 4.33012
      vertex 3.6933 10.6167 0.36
      vertex 3.6933 12.9089 0.36
    endloop
  endfacet
  facet normal 0 -0.866021 0.500008
    outer loop
      vertex 3.3333 10.6167 0.36
      vertex 3.6933 12.9089 4.33012
      vertex 3.3333 12.9089 4.33012
    endloop
  endfacet
  facet normal 0 -0.866021 0.500008
    outer loop
      vertex 3.6933 12.9089 4.33012
      vertex 3.3333 10.6167 0.36
      vertex 3.6933 10.6167 0.36
    endloop
  endfacet
  facet normal -1 0 0
    outer loop
      vertex 6.3066 12.9089 0.36
      vertex 6.3066 10.6167 0.36
      vertex 6.3066 12.9089 4.33012
    endloop
  endfacet
  facet normal 1 0 0
    outer loop
      vertex 6.6666 12.9089 4.33012
      vertex 6.6666 11.2953 0.36
      vertex 6.6666 12.9089 0.36
    endloop
  endfacet
  facet normal 1 0 0
    outer loop
      vertex 6.6666 10.6167 0.36
      vertex 6.6666 11.2953 0.36
      vertex 6.6666 12.9089 4.33012
    endloop
  endfacet
  facet normal 1 -0 0
    outer loop
      vertex 6.6666 10.6167 0.36
      vertex 6.6666 11.2953 0
      vertex 6.6666 11.2953 0.36
    endloop
  endfacet
  facet normal 1 0 0
    outer loop
      vertex 6.6666 1.6136 0
      vertex 6.6666 10.6167 0.36
      vertex 6.6666 1.6136 0.36
    endloop
  endfacet
  facet normal 1 0 0
    outer loop
      vertex 6.6666 10.6167 0.36
      vertex 6.6666 1.6136 0
      vertex 6.6666 11.2953 0
    endloop
  endfacet
  facet normal 0 -0.866021 0.500008
    outer loop
      vertex 6.3066 10.6167 0.36
      vertex 6.6666 12.9089 4.33012
      vertex 6.3066 12.9089 4.33012
    endloop
  endfacet
  facet normal 0 -0.866021 0.500008
    outer loop
      vertex 6.6666 12.9089 4.33012
      vertex 6.3066 10.6167 0.36
      vertex 6.6666 10.6167 0.36
    endloop
  endfacet
  facet normal 1 -0 0
    outer loop
      vertex 10 0 0.36
      vertex 10 1.6136 0
      vertex 10 1.6136 0.36
    endloop
  endfacet
  facet normal 1 0 0
    outer loop
      vertex 10 1.6136 0
      vertex 10 0 0.36
      vertex 10 0 0
    endloop
  endfacet
  facet normal -1 0 0
    outer loop
      vertex 0 0 0
      vertex 0 1.6136 0.36
      vertex 0 1.6136 0
    endloop
  endfacet
  facet normal -1 -0 0
    outer loop
      vertex 0 1.6136 0.36
      vertex 0 0 0
      vertex 0 0 0.36
    endloop
  endfacet
  facet normal 0 1 -0
    outer loop
      vertex 3.3333 1.6136 0
      vertex 0 1.6136 0.36
      vertex 3.3333 1.6136 0.36
    endloop
  endfacet
  facet normal 0 1 0
    outer loop
      vertex 0 1.6136 0.36
      vertex 3.3333 1.6136 0
      vertex 0 1.6136 0
    endloop
  endfacet
  facet normal 0 1 -0
    outer loop
      vertex 10 1.6136 0
      vertex 6.6666 1.6136 0.36
      vertex 10 1.6136 0.36
    endloop
  endfacet
  facet normal 0 1 0
    outer loop
      vertex 6.6666 1.6136 0.36
      vertex 10 1.6136 0
      vertex 6.6666 1.6136 0
    endloop
  endfacet
  facet normal 0 -1 0
    outer loop
      vertex 0 0 0
      vertex 2.5 0 0.36
      vertex 0 0 0.36
    endloop
  endfacet
  facet normal 0 -1 -0
    outer loop
      vertex 2.5 0 0.36
      vertex 0 0 0
      vertex 7.5 0 0.36
    endloop
  endfacet
  facet normal 0 -1 0
    outer loop
      vertex 10 0 0
      vertex 7.5 0 0.36
      vertex 0 0 0
    endloop
  endfacet
  facet normal 0 -1 0
    outer loop
      vertex 7.5 0 0.36
      vertex 10 0 0
      vertex 10 0 0.36
    endloop
  endfacet
  facet normal 0 -1 0
    outer loop
      vertex 2.5 0 0.36
      vertex 7.5 0 9.5213
      vertex 2.5 0 9.5213
    endloop
  endfacet
  facet normal 0 -1 -0
    outer loop
      vertex 7.5 0 9.5213
      vertex 2.5 0 0.36
      vertex 7.5 0 0.36
    endloop
  endfacet
  facet normal 1 0 0
    outer loop
      vertex 7.5 0.7794 10.8713
      vertex 7.5 0.36 9.42484
      vertex 7.5 1.09117 10.6913
    endloop
  endfacet
  facet normal 1 -0 0
    outer loop
      vertex 7.5 0 9.5213
      vertex 7.5 0.36 9.42484
      vertex 7.5 0.7794 10.8713
    endloop
  endfacet
  facet normal 1 0 0
    outer loop
      vertex 7.5 0 0.36
      vertex 7.5 0.36 9.42484
      vertex 7.5 0 9.5213
    endloop
  endfacet
  facet normal 1 0 0
    outer loop
      vertex 7.5 0.36 9.42484
      vertex 7.5 0 0.36
      vertex 7.5 0.36 0.36
    endloop
  endfacet
  facet normal -1 0 0
    outer loop
      vertex 2.5 0.36 0.36
      vertex 2.5 0 0.36
      vertex 2.5 0.36 9.42484
    endloop
  endfacet
  facet normal -1 0 0
    outer loop
      vertex 2.5 0.36 9.42484
      vertex 2.5 0.7794 10.8713
      vertex 2.5 1.09117 10.6913
    endloop
  endfacet
  facet normal -1 0 0
    outer loop
      vertex 2.5 0.36 9.42484
      vertex 2.5 0 9.5213
      vertex 2.5 0.7794 10.8713
    endloop
  endfacet
  facet normal -1 0 0
    outer loop
      vertex 2.5 0 9.5213
      vertex 2.5 0.36 9.42484
      vertex 2.5 0 0.36
    endloop
  endfacet
  facet normal 0 1 -0
    outer loop
      vertex 7.5 0.36 0.36
      vertex 5 0.36 9.42484
      vertex 7.5 0.36 9.42484
    endloop
  endfacet
  facet normal 0 1 0
    outer loop
      vertex 5 0.36 9.42484
      vertex 7.5 0.36 0.36
      vertex 5 0.36 0.36
    endloop
  endfacet
  facet normal 0 1 -0
    outer loop
      vertex 4.64 0.36 0.36
      vertex 2.5 0.36 9.42484
      vertex 4.64 0.36 9.42484
    endloop
  endfacet
  facet normal 0 1 0
    outer loop
      vertex 2.5 0.36 9.42484
      vertex 4.64 0.36 0.36
      vertex 2.5 0.36 0.36
    endloop
  endfacet
  facet normal 0 -1 0
    outer loop
      vertex 4.83175 0.36 9.50475
      vertex 5 0.36 9.52129
      vertex 4.7184 0.36 9.52129
    endloop
  endfacet
  facet normal 0 -1 0
    outer loop
      vertex 4.88666 0.36 9.49674
      vertex 5 0.36 9.52129
      vertex 4.83175 0.36 9.50475
    endloop
  endfacet
  facet normal 0 -1 -0
    outer loop
      vertex 5 0.36 9.52129
      vertex 4.88666 0.36 9.49674
      vertex 5 0.36 9.49674
    endloop
  endfacet
  facet normal -0 0.499999 0.866026
    outer loop
      vertex 2.5 1.09117 10.6913
      vertex 3.17366 0.7794 10.8713
      vertex 3.17366 1.09117 10.6913
    endloop
  endfacet
  facet normal 0 0.499999 0.866026
    outer loop
      vertex 3.17366 0.7794 10.8713
      vertex 2.5 1.09117 10.6913
      vertex 2.5 0.7794 10.8713
    endloop
  endfacet
  facet normal -0 0.499999 0.866026
    outer loop
      vertex 6.82634 1.09117 10.6913
      vertex 7.5 0.7794 10.8713
      vertex 7.5 1.09117 10.6913
    endloop
  endfacet
  facet normal 0 0.499999 0.866026
    outer loop
      vertex 7.5 0.7794 10.8713
      vertex 6.82634 1.09117 10.6913
      vertex 6.82634 0.7794 10.8713
    endloop
  endfacet
  facet normal 0 0.86604 -0.499975
    outer loop
      vertex 3.41827 0.85707 10.2858
      vertex 2.5 1.09117 10.6913
      vertex 3.17366 1.09117 10.6913
    endloop
  endfacet
  facet normal 0.000235678 0.865919 -0.500184
    outer loop
      vertex 2.5 0.36 9.42484
      vertex 3.41827 0.85707 10.2858
      vertex 3.44738 0.83413 10.2461
    endloop
  endfacet
  facet normal -0.000171469 0.866122 -0.499832
    outer loop
      vertex 2.5 0.36 9.42484
      vertex 3.44738 0.83413 10.2461
      vertex 3.53972 0.761377 10.12
    endloop
  endfacet
  facet normal -2.03195e-05 0.866024 -0.500002
    outer loop
      vertex 2.5 0.36 9.42484
      vertex 3.53972 0.761377 10.12
      vertex 3.64957 0.694984 10.005
    endloop
  endfacet
  facet normal 0.000222742 0.865816 -0.500363
    outer loop
      vertex 2.5 0.36 9.42484
      vertex 3.64957 0.694984 10.005
      vertex 3.68421 0.674049 9.96879
    endloop
  endfacet
  facet normal -3.05419e-07 0.866026 -0.499999
    outer loop
      vertex 2.5 0.36 9.42484
      vertex 3.68421 0.674049 9.96879
      vertex 3.84945 0.596465 9.83441
    endloop
  endfacet
  facet normal 0 0.866003 -0.500039
    outer loop
      vertex 4.64 0.395754 9.48677
      vertex 4.66178 0.405339 9.50337
      vertex 4.81353 0.395754 9.48677
    endloop
  endfacet
  facet normal 5.33518e-06 0.866 -0.500044
    outer loop
      vertex 4.64 0.395754 9.48677
      vertex 4.49486 0.426768 9.54048
      vertex 4.66178 0.405339 9.50337
    endloop
  endfacet
  facet normal 3.36913e-05 0.866033 -0.499986
    outer loop
      vertex 4.64 0.36 9.42484
      vertex 4.49486 0.426768 9.54048
      vertex 4.64 0.395754 9.48677
    endloop
  endfacet
  facet normal -9.351e-05 0.865964 -0.500106
    outer loop
      vertex 4.49486 0.426768 9.54048
      vertex 4.64 0.36 9.42484
      vertex 4.44222 0.433525 9.55219
    endloop
  endfacet
  facet normal 2.6242e-05 0.866045 -0.499967
    outer loop
      vertex 4.64 0.36 9.42484
      vertex 4.23147 0.475247 9.62445
      vertex 4.44222 0.433525 9.55219
    endloop
  endfacet
  facet normal 0 0.866021 -0.500007
    outer loop
      vertex 2.5 0.36 9.42484
      vertex 4.23147 0.475247 9.62445
      vertex 4.64 0.36 9.42484
    endloop
  endfacet
  facet normal -8.30248e-06 0.866032 -0.499989
    outer loop
      vertex 3.41827 0.85707 10.2858
      vertex 2.5 0.36 9.42484
      vertex 2.5 1.09117 10.6913
    endloop
  endfacet
  facet normal -3.60974e-06 0.866031 -0.499991
    outer loop
      vertex 4.03283 0.529847 9.71902
      vertex 2.5 0.36 9.42484
      vertex 3.84945 0.596465 9.83441
    endloop
  endfacet
  facet normal -8.63446e-07 0.866025 -0.500001
    outer loop
      vertex 4.23147 0.475247 9.62445
      vertex 2.5 0.36 9.42484
      vertex 4.03283 0.529847 9.71902
    endloop
  endfacet
  facet normal 0 0.86604 -0.499975
    outer loop
      vertex 7.5 1.09117 10.6913
      vertex 6.58173 0.85707 10.2858
      vertex 6.82634 1.09117 10.6913
    endloop
  endfacet
  facet normal 8.30248e-06 0.866032 -0.499989
    outer loop
      vertex 7.5 0.36 9.42484
      vertex 6.58173 0.85707 10.2858
      vertex 7.5 1.09117 10.6913
    endloop
  endfacet
  facet normal -0.000235678 0.865919 -0.500184
    outer loop
      vertex 6.58173 0.85707 10.2858
      vertex 7.5 0.36 9.42484
      vertex 6.55262 0.83413 10.2461
    endloop
  endfacet
  facet normal 0.000171469 0.866122 -0.499832
    outer loop
      vertex 6.55262 0.83413 10.2461
      vertex 7.5 0.36 9.42484
      vertex 6.46028 0.761377 10.12
    endloop
  endfacet
  facet normal 2.03195e-05 0.866024 -0.500002
    outer loop
      vertex 6.46028 0.761377 10.12
      vertex 7.5 0.36 9.42484
      vertex 6.35043 0.694984 10.005
    endloop
  endfacet
  facet normal -0.000222742 0.865816 -0.500363
    outer loop
      vertex 6.35043 0.694984 10.005
      vertex 7.5 0.36 9.42484
      vertex 6.31579 0.674049 9.96879
    endloop
  endfacet
  facet normal 2.05804e-05 0.865989 -0.500064
    outer loop
      vertex 5 0.36 9.42484
      vertex 5.16725 0.394539 9.48466
      vertex 5.33822 0.405339 9.50337
    endloop
  endfacet
  facet normal 3.05419e-07 0.866026 -0.499999
    outer loop
      vertex 6.31579 0.674049 9.96879
      vertex 7.5 0.36 9.42484
      vertex 6.15055 0.596465 9.83441
    endloop
  endfacet
  facet normal 3.60974e-06 0.866031 -0.499991
    outer loop
      vertex 7.5 0.36 9.42484
      vertex 5.96717 0.529847 9.71902
      vertex 6.15055 0.596465 9.83441
    endloop
  endfacet
  facet normal 8.63446e-07 0.866025 -0.500001
    outer loop
      vertex 7.5 0.36 9.42484
      vertex 5.76853 0.475247 9.62445
      vertex 5.96717 0.529847 9.71902
    endloop
  endfacet
  facet normal -1.96944e-06 0.866014 -0.50002
    outer loop
      vertex 7.5 0.36 9.42484
      vertex 5.55778 0.433525 9.55219
      vertex 5.76853 0.475247 9.62445
    endloop
  endfacet
  facet normal 1.39357e-05 0.866119 -0.499838
    outer loop
      vertex 7.5 0.36 9.42484
      vertex 5.50514 0.426768 9.54048
      vertex 5.55778 0.433525 9.55219
    endloop
  endfacet
  facet normal -2.68228e-06 0.865995 -0.500053
    outer loop
      vertex 7.5 0.36 9.42484
      vertex 5.33822 0.405339 9.50337
      vertex 5.50514 0.426768 9.54048
    endloop
  endfacet
  facet normal 0 0.866027 -0.499997
    outer loop
      vertex 5 0.36 9.42484
      vertex 5.33822 0.405339 9.50337
      vertex 7.5 0.36 9.42484
    endloop
  endfacet
  facet normal 3.59834e-05 0.86597 -0.500096
    outer loop
      vertex 5.16725 0.394539 9.48466
      vertex 5 0.36 9.42484
      vertex 5.11334 0.391134 9.47876
    endloop
  endfacet
  facet normal 0 0.866003 -0.500039
    outer loop
      vertex 5.11334 0.391134 9.47876
      vertex 5 0.36 9.42484
      vertex 5 0.391134 9.47876
    endloop
  endfacet
  facet normal 0 -0.866042 0.499972
    outer loop
      vertex 2.5 0.7794 10.8713
      vertex 3.41827 0.545302 10.4658
      vertex 3.17366 0.7794 10.8713
    endloop
  endfacet
  facet normal 1.00599e-05 -0.866032 0.499989
    outer loop
      vertex 2.5 0 9.5213
      vertex 3.41827 0.545302 10.4658
      vertex 2.5 0.7794 10.8713
    endloop
  endfacet
  facet normal 0.000227706 -0.866123 0.49983
    outer loop
      vertex 3.41827 0.545302 10.4658
      vertex 2.5 0 9.5213
      vertex 3.45224 0.518534 10.4194
    endloop
  endfacet
  facet normal 4.73823e-05 -0.866041 0.499974
    outer loop
      vertex 3.45224 0.518534 10.4194
      vertex 2.5 0 9.5213
      vertex 3.53972 0.449608 10.3
    endloop
  endfacet
  facet normal -7.9876e-05 -0.865967 0.500101
    outer loop
      vertex 3.53972 0.449608 10.3
      vertex 2.5 0 9.5213
      vertex 3.64379 0.386708 10.1911
    endloop
  endfacet
  facet normal -3.96665e-05 -0.865997 0.50005
    outer loop
      vertex 3.64379 0.386708 10.1911
      vertex 2.5 0 9.5213
      vertex 3.68421 0.362281 10.1488
    endloop
  endfacet
  facet normal 1.163e-05 -0.866074 0.499915
    outer loop
      vertex 2.5 0 9.5213
      vertex 4.50364 0.113872 9.71853
      vertex 4.44222 0.121756 9.73219
    endloop
  endfacet
  facet normal 0 -0.866017 0.500014
    outer loop
      vertex 4.88666 0.0793655 9.65876
      vertex 2.5 0 9.5213
      vertex 5.11334 0.0793655 9.65876
    endloop
  endfacet
  facet normal 2.22578e-05 -0.866185 0.499724
    outer loop
      vertex 4.82376 0.0833389 9.66565
      vertex 2.5 0 9.5213
      vertex 4.88666 0.0793655 9.65876
    endloop
  endfacet
  facet normal -2.03519e-06 -0.866015 0.500017
    outer loop
      vertex 4.66178 0.0935704 9.68337
      vertex 2.5 0 9.5213
      vertex 4.82376 0.0833389 9.66565
    endloop
  endfacet
  facet normal -2.94e-06 -0.86601 0.500026
    outer loop
      vertex 4.50364 0.113872 9.71853
      vertex 2.5 0 9.5213
      vertex 4.66178 0.0935704 9.68337
    endloop
  endfacet
  facet normal -3.11192e-06 -0.866015 0.500017
    outer loop
      vertex 4.23147 0.163478 9.80445
      vertex 2.5 0 9.5213
      vertex 4.44222 0.121756 9.73219
    endloop
  endfacet
  facet normal -6.24706e-07 -0.866022 0.500006
    outer loop
      vertex 4.03283 0.218079 9.89902
      vertex 2.5 0 9.5213
      vertex 4.23147 0.163478 9.80445
    endloop
  endfacet
  facet normal -2.17529e-06 -0.866019 0.500011
    outer loop
      vertex 3.84945 0.284696 10.0144
      vertex 2.5 0 9.5213
      vertex 4.03283 0.218079 9.89902
    endloop
  endfacet
  facet normal 1.96997e-05 -0.866045 0.499966
    outer loop
      vertex 3.68421 0.362281 10.1488
      vertex 2.5 0 9.5213
      vertex 3.84945 0.284696 10.0144
    endloop
  endfacet
  facet normal 0 -0.866042 0.499972
    outer loop
      vertex 6.58173 0.545302 10.4658
      vertex 7.5 0.7794 10.8713
      vertex 6.82634 0.7794 10.8713
    endloop
  endfacet
  facet normal -0.000227706 -0.866123 0.49983
    outer loop
      vertex 7.5 0 9.5213
      vertex 6.58173 0.545302 10.4658
      vertex 6.54776 0.518534 10.4194
    endloop
  endfacet
  facet normal -4.73823e-05 -0.866041 0.499974
    outer loop
      vertex 7.5 0 9.5213
      vertex 6.54776 0.518534 10.4194
      vertex 6.46028 0.449608 10.3
    endloop
  endfacet
  facet normal 7.98728e-05 -0.865967 0.500101
    outer loop
      vertex 7.5 0 9.5213
      vertex 6.46028 0.449608 10.3
      vertex 6.3562 0.386708 10.1911
    endloop
  endfacet
  facet normal 3.96698e-05 -0.865997 0.50005
    outer loop
      vertex 7.5 0 9.5213
      vertex 6.3562 0.386708 10.1911
      vertex 6.31579 0.362281 10.1488
    endloop
  endfacet
  facet normal -1.96997e-05 -0.866045 0.499966
    outer loop
      vertex 7.5 0 9.5213
      vertex 6.31579 0.362281 10.1488
      vertex 6.15055 0.284696 10.0144
    endloop
  endfacet
  facet normal 2.94e-06 -0.86601 0.500026
    outer loop
      vertex 7.5 0 9.5213
      vertex 5.49636 0.113872 9.71853
      vertex 5.33822 0.0935704 9.68337
    endloop
  endfacet
  facet normal -1.00599e-05 -0.866032 0.499989
    outer loop
      vertex 6.58173 0.545302 10.4658
      vertex 7.5 0 9.5213
      vertex 7.5 0.7794 10.8713
    endloop
  endfacet
  facet normal 2.17529e-06 -0.866019 0.500011
    outer loop
      vertex 5.96717 0.218079 9.89902
      vertex 7.5 0 9.5213
      vertex 6.15055 0.284696 10.0144
    endloop
  endfacet
  facet normal 6.24706e-07 -0.866022 0.500006
    outer loop
      vertex 5.76853 0.163478 9.80445
      vertex 7.5 0 9.5213
      vertex 5.96717 0.218079 9.89902
    endloop
  endfacet
  facet normal 3.11192e-06 -0.866015 0.500017
    outer loop
      vertex 5.55778 0.121756 9.73219
      vertex 7.5 0 9.5213
      vertex 5.76853 0.163478 9.80445
    endloop
  endfacet
  facet normal -1.163e-05 -0.866074 0.499915
    outer loop
      vertex 5.49636 0.113872 9.71853
      vertex 7.5 0 9.5213
      vertex 5.55778 0.121756 9.73219
    endloop
  endfacet
  facet normal 2.03519e-06 -0.866015 0.500017
    outer loop
      vertex 5.17624 0.0833389 9.66565
      vertex 7.5 0 9.5213
      vertex 5.33822 0.0935704 9.68337
    endloop
  endfacet
  facet normal -2.22578e-05 -0.866185 0.499724
    outer loop
      vertex 5.11334 0.0793655 9.65876
      vertex 7.5 0 9.5213
      vertex 5.17624 0.0833389 9.66565
    endloop
  endfacet
  facet normal 0 -0.866017 0.500014
    outer loop
      vertex 7.5 0 9.5213
      vertex 5.11334 0.0793655 9.65876
      vertex 2.5 0 9.5213
    endloop
  endfacet
  facet normal 0.248759 0.484283 0.838802
    outer loop
      vertex 4.44222 0.121756 9.73219
      vertex 4.49486 0.426768 9.54048
      vertex 4.44222 0.433525 9.55219
    endloop
  endfacet
  facet normal 0.248718 0.484294 0.838808
    outer loop
      vertex 4.49486 0.426768 9.54048
      vertex 4.44222 0.121756 9.73219
      vertex 4.50364 0.113872 9.71853
    endloop
  endfacet
  facet normal 0.77043 0.31883 0.552073
    outer loop
      vertex 3.68421 0.362281 10.1488
      vertex 3.64957 0.694984 10.005
      vertex 3.64379 0.386708 10.1911
    endloop
  endfacet
  facet normal 0.770167 0.318935 0.55238
    outer loop
      vertex 3.64957 0.694984 10.005
      vertex 3.68421 0.362281 10.1488
      vertex 3.68421 0.674049 9.96879
    endloop
  endfacet
  facet normal 0.248672 0.484295 0.838821
    outer loop
      vertex 4.66178 0.405339 9.50337
      vertex 4.50364 0.113872 9.71853
      vertex 4.66178 0.0935704 9.68337
    endloop
  endfacet
  facet normal 0.248662 0.484299 0.838821
    outer loop
      vertex 4.50364 0.113872 9.71853
      vertex 4.66178 0.405339 9.50337
      vertex 4.49486 0.426768 9.54048
    endloop
  endfacet
  facet normal 0.125335 0.496067 0.859191
    outer loop
      vertex 4.82376 0.0833389 9.66565
      vertex 4.88666 0.36 9.49674
      vertex 4.83175 0.36 9.50475
    endloop
  endfacet
  facet normal 0.12545 0.49604 0.85919
    outer loop
      vertex 4.88666 0.36 9.49674
      vertex 4.82376 0.0833389 9.66565
      vertex 4.88666 0.0793655 9.65876
    endloop
  endfacet
  facet normal 0.844228 0.267992 0.464175
    outer loop
      vertex 3.41827 0.545302 10.4658
      vertex 3.44738 0.83413 10.2461
      vertex 3.41827 0.85707 10.2858
    endloop
  endfacet
  facet normal 0.844506 0.267706 0.463835
    outer loop
      vertex 3.44738 0.83413 10.2461
      vertex 3.41827 0.545302 10.4658
      vertex 3.45224 0.518534 10.4194
    endloop
  endfacet
  facet normal 0.368118 0.46489 0.805212
    outer loop
      vertex 4.23147 0.163478 9.80445
      vertex 4.44222 0.433525 9.55219
      vertex 4.23147 0.475247 9.62445
    endloop
  endfacet
  facet normal 0.368118 0.46489 0.805212
    outer loop
      vertex 4.44222 0.433525 9.55219
      vertex 4.23147 0.163478 9.80445
      vertex 4.44222 0.121756 9.73219
    endloop
  endfacet
  facet normal 0.844457 0.267742 0.463903
    outer loop
      vertex 3.45224 0.518534 10.4194
      vertex 3.53972 0.761377 10.12
      vertex 3.44738 0.83413 10.2461
    endloop
  endfacet
  facet normal 0.844363 0.267886 0.463992
    outer loop
      vertex 3.53972 0.761377 10.12
      vertex 3.45224 0.518534 10.4194
      vertex 3.53972 0.449608 10.3
    endloop
  endfacet
  facet normal -0.844228 0.267992 0.464175
    outer loop
      vertex 6.55262 0.83413 10.2461
      vertex 6.58173 0.545302 10.4658
      vertex 6.58173 0.85707 10.2858
    endloop
  endfacet
  facet normal -0.844506 0.267706 0.463835
    outer loop
      vertex 6.58173 0.545302 10.4658
      vertex 6.55262 0.83413 10.2461
      vertex 6.54776 0.518534 10.4194
    endloop
  endfacet
  facet normal -0.684542 0.364503 0.6313
    outer loop
      vertex 6.15055 0.596465 9.83441
      vertex 6.31579 0.362281 10.1488
      vertex 6.31579 0.674049 9.96879
    endloop
  endfacet
  facet normal -0.684584 0.364452 0.631284
    outer loop
      vertex 6.31579 0.362281 10.1488
      vertex 6.15055 0.596465 9.83441
      vertex 6.15055 0.284696 10.0144
    endloop
  endfacet
  facet normal -0.125363 0.49607 0.859185
    outer loop
      vertex 5.11334 0.391134 9.47876
      vertex 5.17624 0.0833389 9.66565
      vertex 5.16725 0.394539 9.48466
    endloop
  endfacet
  facet normal -0.12545 0.496051 0.859183
    outer loop
      vertex 5.17624 0.0833389 9.66565
      vertex 5.11334 0.391134 9.47876
      vertex 5.11334 0.0793655 9.65876
    endloop
  endfacet
  facet normal 0.770417 0.318771 0.552127
    outer loop
      vertex 3.64379 0.386708 10.1911
      vertex 3.53972 0.761377 10.12
      vertex 3.53972 0.449608 10.3
    endloop
  endfacet
  facet normal 0.770522 0.318772 0.551979
    outer loop
      vertex 3.53972 0.761377 10.12
      vertex 3.64379 0.386708 10.1911
      vertex 3.64957 0.694984 10.005
    endloop
  endfacet
  facet normal 0.481743 0.438158 0.758908
    outer loop
      vertex 4.03283 0.218079 9.89902
      vertex 4.23147 0.475247 9.62445
      vertex 4.03283 0.529847 9.71902
    endloop
  endfacet
  facet normal 0.481744 0.438156 0.758908
    outer loop
      vertex 4.23147 0.475247 9.62445
      vertex 4.03283 0.218079 9.89902
      vertex 4.23147 0.163478 9.80445
    endloop
  endfacet
  facet normal -0.770522 0.31879 0.551968
    outer loop
      vertex 6.3562 0.386708 10.1911
      vertex 6.46028 0.761377 10.12
      vertex 6.35043 0.694984 10.005
    endloop
  endfacet
  facet normal -0.770386 0.318789 0.552158
    outer loop
      vertex 6.46028 0.761377 10.12
      vertex 6.3562 0.386708 10.1911
      vertex 6.46028 0.449608 10.3
    endloop
  endfacet
  facet normal -0.886337 0.23152 0.401006
    outer loop
      vertex 6.58173 0.85707 10.2858
      vertex 6.82634 0.7794 10.8713
      vertex 6.82634 1.09117 10.6913
    endloop
  endfacet
  facet normal -0.886336 0.231522 0.401006
    outer loop
      vertex 6.82634 0.7794 10.8713
      vertex 6.58173 0.85707 10.2858
      vertex 6.58173 0.545302 10.4658
    endloop
  endfacet
  facet normal -0.248759 0.484283 0.838802
    outer loop
      vertex 5.50514 0.426768 9.54048
      vertex 5.55778 0.121756 9.73219
      vertex 5.55778 0.433525 9.55219
    endloop
  endfacet
  facet normal -0.248718 0.484294 0.838808
    outer loop
      vertex 5.55778 0.121756 9.73219
      vertex 5.50514 0.426768 9.54048
      vertex 5.49636 0.113872 9.71853
    endloop
  endfacet
  facet normal 0.886337 0.23152 0.401006
    outer loop
      vertex 3.17366 0.7794 10.8713
      vertex 3.41827 0.85707 10.2858
      vertex 3.17366 1.09117 10.6913
    endloop
  endfacet
  facet normal 0.886336 0.231522 0.401006
    outer loop
      vertex 3.41827 0.85707 10.2858
      vertex 3.17366 0.7794 10.8713
      vertex 3.41827 0.545302 10.4658
    endloop
  endfacet
  facet normal -0.844457 0.267742 0.463903
    outer loop
      vertex 6.46028 0.761377 10.12
      vertex 6.54776 0.518534 10.4194
      vertex 6.55262 0.83413 10.2461
    endloop
  endfacet
  facet normal -0.844363 0.267886 0.463992
    outer loop
      vertex 6.54776 0.518534 10.4194
      vertex 6.46028 0.761377 10.12
      vertex 6.46028 0.449608 10.3
    endloop
  endfacet
  facet normal 0.587803 0.404485 0.700627
    outer loop
      vertex 3.84945 0.284696 10.0144
      vertex 4.03283 0.529847 9.71902
      vertex 3.84945 0.596465 9.83441
    endloop
  endfacet
  facet normal 0.587777 0.404513 0.700634
    outer loop
      vertex 4.03283 0.529847 9.71902
      vertex 3.84945 0.284696 10.0144
      vertex 4.03283 0.218079 9.89902
    endloop
  endfacet
  facet normal 0.125321 0.496089 0.85918
    outer loop
      vertex 4.81353 0.395754 9.48677
      vertex 4.66178 0.405339 9.50337
      vertex 4.7184 0.36 9.52129
    endloop
  endfacet
  facet normal 0.125372 0.496064 0.859187
    outer loop
      vertex 4.7184 0.36 9.52129
      vertex 4.82376 0.0833389 9.66565
      vertex 4.83175 0.36 9.50475
    endloop
  endfacet
  facet normal 0.125292 0.496061 0.859201
    outer loop
      vertex 4.66178 0.0935704 9.68337
      vertex 4.7184 0.36 9.52129
      vertex 4.66178 0.405339 9.50337
    endloop
  endfacet
  facet normal 0.125327 0.496053 0.8592
    outer loop
      vertex 4.7184 0.36 9.52129
      vertex 4.66178 0.0935704 9.68337
      vertex 4.82376 0.0833389 9.66565
    endloop
  endfacet
  facet normal 0 0.5001 0.865968
    outer loop
      vertex 5 0.36 9.49674
      vertex 5.11334 0.391134 9.47876
      vertex 5 0.391134 9.47876
    endloop
  endfacet
  facet normal 3.62143e-05 0.500001 0.866025
    outer loop
      vertex 5.11334 0.391134 9.47876
      vertex 5 0.36 9.49674
      vertex 5.11334 0.0793655 9.65876
    endloop
  endfacet
  facet normal 0 0.49999 0.866031
    outer loop
      vertex 4.88666 0.0793655 9.65876
      vertex 5 0.36 9.49674
      vertex 4.88666 0.36 9.49674
    endloop
  endfacet
  facet normal 0 0.49999 0.866031
    outer loop
      vertex 5 0.36 9.49674
      vertex 4.88666 0.0793655 9.65876
      vertex 5.11334 0.0793655 9.65876
    endloop
  endfacet
  facet normal -0.770167 0.318935 0.55238
    outer loop
      vertex 6.31579 0.362281 10.1488
      vertex 6.35043 0.694984 10.005
      vertex 6.31579 0.674049 9.96879
    endloop
  endfacet
  facet normal -0.770507 0.318799 0.551983
    outer loop
      vertex 6.35043 0.694984 10.005
      vertex 6.31579 0.362281 10.1488
      vertex 6.3562 0.386708 10.1911
    endloop
  endfacet
  facet normal -0.125361 0.496056 0.859193
    outer loop
      vertex 5.16725 0.394539 9.48466
      vertex 5.33822 0.0935704 9.68337
      vertex 5.33822 0.405339 9.50337
    endloop
  endfacet
  facet normal -0.125327 0.496073 0.859189
    outer loop
      vertex 5.33822 0.0935704 9.68337
      vertex 5.16725 0.394539 9.48466
      vertex 5.17624 0.0833389 9.66565
    endloop
  endfacet
  facet normal -0.248662 0.484299 0.838821
    outer loop
      vertex 5.33822 0.405339 9.50337
      vertex 5.49636 0.113872 9.71853
      vertex 5.50514 0.426768 9.54048
    endloop
  endfacet
  facet normal -0.248672 0.484295 0.838821
    outer loop
      vertex 5.49636 0.113872 9.71853
      vertex 5.33822 0.405339 9.50337
      vertex 5.33822 0.0935704 9.68337
    endloop
  endfacet
  facet normal -0.368118 0.46489 0.805212
    outer loop
      vertex 5.55778 0.433525 9.55219
      vertex 5.76853 0.163478 9.80445
      vertex 5.76853 0.475247 9.62445
    endloop
  endfacet
  facet normal -0.368118 0.46489 0.805212
    outer loop
      vertex 5.76853 0.163478 9.80445
      vertex 5.55778 0.433525 9.55219
      vertex 5.55778 0.121756 9.73219
    endloop
  endfacet
  facet normal 0.684542 0.364503 0.6313
    outer loop
      vertex 3.68421 0.362281 10.1488
      vertex 3.84945 0.596465 9.83441
      vertex 3.68421 0.674049 9.96879
    endloop
  endfacet
  facet normal 0.684584 0.364452 0.631284
    outer loop
      vertex 3.84945 0.596465 9.83441
      vertex 3.68421 0.362281 10.1488
      vertex 3.84945 0.284696 10.0144
    endloop
  endfacet
  facet normal -0.481743 0.438158 0.758908
    outer loop
      vertex 5.76853 0.475247 9.62445
      vertex 5.96717 0.218079 9.89902
      vertex 5.96717 0.529847 9.71902
    endloop
  endfacet
  facet normal -0.481744 0.438156 0.758908
    outer loop
      vertex 5.96717 0.218079 9.89902
      vertex 5.76853 0.475247 9.62445
      vertex 5.76853 0.163478 9.80445
    endloop
  endfacet
  facet normal -0.587803 0.404485 0.700627
    outer loop
      vertex 5.96717 0.529847 9.71902
      vertex 6.15055 0.284696 10.0144
      vertex 6.15055 0.596465 9.83441
    endloop
  endfacet
  facet normal -0.587777 0.404513 0.700634
    outer loop
      vertex 6.15055 0.284696 10.0144
      vertex 5.96717 0.529847 9.71902
      vertex 5.96717 0.218079 9.89902
    endloop
  endfacet
  facet normal 1 0 0
    outer loop
      vertex 5 0.36 9.52129
      vertex 5 0.391134 9.47876
      vertex 5 9.84912 0.36
    endloop
  endfacet
  facet normal 1 0 0
    outer loop
      vertex 5 0.391134 9.47876
      vertex 5 0.36 9.52129
      vertex 5 0.36 9.49674
    endloop
  endfacet
  facet normal 1 -0 0
    outer loop
      vertex 5 0.36 9.42484
      vertex 5 9.84912 0.36
      vertex 5 0.391134 9.47876
    endloop
  endfacet
  facet normal 1 0 0
    outer loop
      vertex 5 9.84912 0.36
      vertex 5 0.36 9.42484
      vertex 5 0.36 0.36
    endloop
  endfacet
  facet normal -4.74067e-06 0.69457 0.719425
    outer loop
      vertex 5 9.84912 0.36
      vertex 4.81353 0.395754 9.48677
      vertex 5 0.36 9.52129
    endloop
  endfacet
  facet normal -0 0.69457 0.719425
    outer loop
      vertex 4.64 9.84912 0.36
      vertex 4.81353 0.395754 9.48677
      vertex 5 9.84912 0.36
    endloop
  endfacet
  facet normal 0 0.69457 0.719425
    outer loop
      vertex 4.81353 0.395754 9.48677
      vertex 4.64 9.84912 0.36
      vertex 4.64 0.395754 9.48677
    endloop
  endfacet
  facet normal 0 0.694583 0.719413
    outer loop
      vertex 5 0.36 9.52129
      vertex 4.81353 0.395754 9.48677
      vertex 4.7184 0.36 9.52129
    endloop
  endfacet
  facet normal -1 0 0
    outer loop
      vertex 4.64 0.36 9.42484
      vertex 4.64 9.84912 0.36
      vertex 4.64 0.36 0.36
    endloop
  endfacet
  facet normal -1 0 0
    outer loop
      vertex 4.64 9.84912 0.36
      vertex 4.64 0.36 9.42484
      vertex 4.64 0.395754 9.48677
    endloop
  endfacet
endsolid OpenSCAD_Model
