solid csg_export
	facet normal 0 -1 0
		outer loop
			vertex 0.40500000119209 0.13500000536442 0
			vertex 6.7231001853943 0.13500000536442 0.081000000238419
			vertex 0.40500000119209 0.13500000536442 0.081000000238419
		endloop
	endfacet
	facet normal 0 0 -1
		outer loop
			vertex 0.40500000119209 0.13500000536442 0
			vertex 0.40500000119209 1.1395000219345 0
			vertex 6.7231001853943 0.13500000536442 0
		endloop
	endfacet
	facet normal 0 -1 0
		outer loop
			vertex 0.40500000119209 0.13500000536442 0.40500000119209
			vertex 0.40500000119209 0.13500000536442 0.32400000095367
			vertex 6.7231001853943 0.13500000536442 0.40500000119209
		endloop
	endfacet
	facet normal 0 0 1
		outer loop
			vertex 0.40500000119209 0.13500000536442 0.40500000119209
			vertex 6.7231001853943 0.13500000536442 0.40500000119209
			vertex 0.40500000119209 1.1395000219345 0.40500000119209
		endloop
	endfacet
	facet normal -1 0 0
		outer loop
			vertex 0.13500000536442 1.1395000219345 0
			vertex 0.13500000536442 1.1395000219345 0.081000000238419
			vertex 0.13500000536442 6.9828886985779 0
		endloop
	endfacet
	facet normal 0 0 -1
		outer loop
			vertex 0.13500000536442 1.1395000219345 0
			vertex 0.13500000536442 6.9828886985779 0
			vertex 0.40500000119209 1.1395000219345 0
		endloop
	endfacet
	facet normal 0 0 -1
		outer loop
			vertex 0.40500000119209 1.1395000219345 0
			vertex 0.13500000536442 6.9828886985779 0
			vertex 6.7231001853943 0.13500000536442 0
		endloop
	endfacet
	facet normal -1 0 0
		outer loop
			vertex 0.13500000536442 1.1395000219345 0.40500000119209
			vertex 0.13500000536442 6.9828886985779 0.32400000095367
			vertex 0.13500000536442 1.1395000219345 0.32400000095367
		endloop
	endfacet
	facet normal 0 0 1
		outer loop
			vertex 0.13500000536442 1.1395000219345 0.40500000119209
			vertex 0.40500000119209 1.1395000219345 0.40500000119209
			vertex 0.13500000536442 6.9828886985779 0.40500000119209
		endloop
	endfacet
	facet normal -0 -0 1
		outer loop
			vertex 0.40500000119209 1.1395000219345 0.40500000119209
			vertex 6.7231001853943 0.13500000536442 0.40500000119209
			vertex 0.13500000536442 6.9828886985779 0.40500000119209
		endloop
	endfacet
	facet normal 0 -1 0
		outer loop
			vertex 0.40500000119209 0.13500000536442 0
			vertex 6.7231001853943 0.13500000536442 0
			vertex 6.7231001853943 0.13500000536442 0.081000000238419
		endloop
	endfacet
	facet normal 0 -1 -0
		outer loop
			vertex 6.7231001853943 0.13500000536442 0.40500000119209
			vertex 0.40500000119209 0.13500000536442 0.32400000095367
			vertex 6.7231001853943 0.13500000536442 0.32400000095367
		endloop
	endfacet
	facet normal 0.72064418902652 0.69330509360765 -0
		outer loop
			vertex 6.7231001853943 0.13500000536442 0
			vertex 0.13500000536442 6.9828886985779 0
			vertex 6.7231001853943 0.13500000536442 0.081000000238419
		endloop
	endfacet
	facet normal 0.72064418902652 0.69330509360765 0
		outer loop
			vertex 0.13500000536442 6.9828886985779 0
			vertex 6.7231001853943 0.13500000536442 0.32400000095367
			vertex 6.7231001853943 0.13500000536442 0.081000000238419
		endloop
	endfacet
	facet normal 0.72064418902652 0.69330509360765 0
		outer loop
			vertex 6.7231001853943 0.13500000536442 0.40500000119209
			vertex 6.7231001853943 0.13500000536442 0.32400000095367
			vertex 0.13500000536442 6.9828886985779 0
		endloop
	endfacet
	facet normal -1 0 0
		outer loop
			vertex 0.13500000536442 6.9828886985779 0
			vertex 0.13500000536442 1.1395000219345 0.081000000238419
			vertex 0.13500000536442 6.9828886985779 0.081000000238419
		endloop
	endfacet
	facet normal 0.72064418902652 0.69330509360765 0
		outer loop
			vertex 6.7231001853943 0.13500000536442 0.40500000119209
			vertex 0.13500000536442 6.9828886985779 0
			vertex 0.13500000536442 6.9828886985779 0.081000000238419
		endloop
	endfacet
	facet normal 0.72064418902652 0.69330509360765 0
		outer loop
			vertex 6.7231001853943 0.13500000536442 0.40500000119209
			vertex 0.13500000536442 6.9828886985779 0.081000000238419
			vertex 0.13500000536442 6.9828886985779 0.32400000095367
		endloop
	endfacet
	facet normal -1 0 0
		outer loop
			vertex 0.13500000536442 1.1395000219345 0.40500000119209
			vertex 0.13500000536442 6.9828886985779 0.40500000119209
			vertex 0.13500000536442 6.9828886985779 0.32400000095367
		endloop
	endfacet
	facet normal 0.72064418902652 0.69330509360765 0
		outer loop
			vertex 6.7231001853943 0.13500000536442 0.40500000119209
			vertex 0.13500000536442 6.9828886985779 0.32400000095367
			vertex 0.13500000536442 6.9828886985779 0.40500000119209
		endloop
	endfacet
	facet normal -1 0 0
		outer loop
			vertex 0.40500000119209 0.13500000536442 0
			vertex 0.40500000119209 0.13500000536442 0.081000000238419
			vertex 0.40500000119209 1.1395000219345 0
		endloop
	endfacet
	facet normal -1 0 0
		outer loop
			vertex 0.40500000119209 1.1395000219345 0
			vertex 0.40500000119209 0.13500000536442 0.081000000238419
			vertex 0.40500000119209 0.13500000536442 0.32400000095367
		endloop
	endfacet
	facet normal -1 0 0
		outer loop
			vertex 0.40500000119209 0.13500000536442 0.40500000119209
			vertex 0.40500000119209 1.1395000219345 0
			vertex 0.40500000119209 0.13500000536442 0.32400000095367
		endloop
	endfacet
	facet normal -1 0 0
		outer loop
			vertex 0.40500000119209 0.13500000536442 0.40500000119209
			vertex 0.40500000119209 1.1395000219345 0.40500000119209
			vertex 0.40500000119209 1.1395000219345 0
		endloop
	endfacet
	facet normal 0 -1 -0
		outer loop
			vertex 0.40500000119209 1.1395000219345 0.40500000119209
			vertex 0.13500000536442 1.1395000219345 0
			vertex 0.40500000119209 1.1395000219345 0
		endloop
	endfacet
	facet normal 0 -1 0
		outer loop
			vertex 0.13500000536442 1.1395000219345 0.081000000238419
			vertex 0.13500000536442 1.1395000219345 0
			vertex 0.40500000119209 1.1395000219345 0.40500000119209
		endloop
	endfacet
	facet normal 0 -1 0
		outer loop
			vertex 0.40500000119209 1.1395000219345 0.40500000119209
			vertex 0.13500000536442 1.1395000219345 0.32400000095367
			vertex 0.13500000536442 1.1395000219345 0.081000000238419
		endloop
	endfacet
	facet normal 0 -1 0
		outer loop
			vertex 0.13500000536442 1.1395000219345 0.40500000119209
			vertex 0.13500000536442 1.1395000219345 0.32400000095367
			vertex 0.40500000119209 1.1395000219345 0.40500000119209
		endloop
	endfacet
	facet normal 0 -1 0
		outer loop
			vertex 0 1.1395000219345 0.40500000119209
			vertex 0 1.1395000219345 0
			vertex 0.13500000536442 1.1395000219345 0.081000000238419
		endloop
	endfacet
	facet normal 0 -1 0
		outer loop
			vertex 0 1.1395000219345 0.40500000119209
			vertex 0.13500000536442 1.1395000219345 0.081000000238419
			vertex 0.13500000536442 1.1395000219345 0.32400000095367
		endloop
	endfacet
	facet normal 0.51449574150853 0 -0.85749293406394
		outer loop
			vertex 0 1.1395000219345 0
			vertex 0.13500000536442 6.9828886985779 0.081000000238419
			vertex 0.13500000536442 1.1395000219345 0.081000000238419
		endloop
	endfacet
	facet normal -1 0 0
		outer loop
			vertex 0 1.1395000219345 0.40500000119209
			vertex 0 6.9828886985779 0
			vertex 0 1.1395000219345 0
		endloop
	endfacet
	facet normal 0.51449574150853 -0 0.85749293406394
		outer loop
			vertex 0 1.1395000219345 0.40500000119209
			vertex 0.13500000536442 1.1395000219345 0.32400000095367
			vertex 0 6.9828886985779 0.40500000119209
		endloop
	endfacet
	facet normal 0.51449574150853 0 -0.85749293406394
		outer loop
			vertex 0 1.1395000219345 0
			vertex 0 6.9828886985779 0
			vertex 0.13500000536442 6.9828886985779 0.081000000238419
		endloop
	endfacet
	facet normal -1 0 0
		outer loop
			vertex 0 1.1395000219345 0.40500000119209
			vertex 0 6.9828886985779 0.40500000119209
			vertex 0 6.9828886985779 0
		endloop
	endfacet
	facet normal 0.51449574150853 0 0.85749293406394
		outer loop
			vertex 0 6.9828886985779 0.40500000119209
			vertex 0.13500000536442 1.1395000219345 0.32400000095367
			vertex 0.13500000536442 6.9828886985779 0.32400000095367
		endloop
	endfacet
	facet normal 0 1 0
		outer loop
			vertex 0 6.9828886985779 0.40500000119209
			vertex 0.13500000536442 6.9828886985779 0.081000000238419
			vertex 0 6.9828886985779 0
		endloop
	endfacet
	facet normal 0 1 0
		outer loop
			vertex 0 6.9828886985779 0.40500000119209
			vertex 0.13500000536442 6.9828886985779 0.32400000095367
			vertex 0.13500000536442 6.9828886985779 0.081000000238419
		endloop
	endfacet
	facet normal -1 0 0
		outer loop
			vertex 0.40500000119209 0 0.40500000119209
			vertex 0.40500000119209 0.13500000536442 0.081000000238419
			vertex 0.40500000119209 0 0
		endloop
	endfacet
	facet normal -1 0 0
		outer loop
			vertex 0.40500000119209 0 0.40500000119209
			vertex 0.40500000119209 0.13500000536442 0.32400000095367
			vertex 0.40500000119209 0.13500000536442 0.081000000238419
		endloop
	endfacet
	facet normal 0 0.51449574150853 -0.85749293406394
		outer loop
			vertex 0.40500000119209 0 0
			vertex 0.40500000119209 0.13500000536442 0.081000000238419
			vertex 6.7231001853943 0 0
		endloop
	endfacet
	facet normal 0 -1 0
		outer loop
			vertex 0.40500000119209 0 0.40500000119209
			vertex 0.40500000119209 0 0
			vertex 6.7231001853943 0 0.40500000119209
		endloop
	endfacet
	facet normal 0 0.51449574150853 0.85749293406394
		outer loop
			vertex 0.40500000119209 0 0.40500000119209
			vertex 6.7231001853943 0.13500000536442 0.32400000095367
			vertex 0.40500000119209 0.13500000536442 0.32400000095367
		endloop
	endfacet
	facet normal 0 0.51449574150853 -0.85749293406394
		outer loop
			vertex 6.7231001853943 0 0
			vertex 0.40500000119209 0.13500000536442 0.081000000238419
			vertex 6.7231001853943 0.13500000536442 0.081000000238419
		endloop
	endfacet
	facet normal 0 -1 -0
		outer loop
			vertex 6.7231001853943 0 0.40500000119209
			vertex 0.40500000119209 0 0
			vertex 6.7231001853943 0 0
		endloop
	endfacet
	facet normal -0 0.51449574150853 0.85749293406394
		outer loop
			vertex 0.40500000119209 0 0.40500000119209
			vertex 6.7231001853943 0 0.40500000119209
			vertex 6.7231001853943 0.13500000536442 0.32400000095367
		endloop
	endfacet
	facet normal 1 0 0
		outer loop
			vertex 6.7231001853943 0 0.40500000119209
			vertex 6.7231001853943 0 0
			vertex 6.7231001853943 0.13500000536442 0.081000000238419
		endloop
	endfacet
	facet normal 1 0 0
		outer loop
			vertex 6.7231001853943 0 0.40500000119209
			vertex 6.7231001853943 0.13500000536442 0.081000000238419
			vertex 6.7231001853943 0.13500000536442 0.32400000095367
		endloop
	endfacet
	facet normal -1 0 0
		outer loop
			vertex 7.023099899292 8.693058013916 0
			vertex 7.023099899292 8.4230585098267 0
			vertex 7.023099899292 8.4230585098267 0.27000001072884
		endloop
	endfacet
	facet normal -1 0 0
		outer loop
			vertex 7.023099899292 8.693058013916 0
			vertex 7.023099899292 8.4230585098267 0.27000001072884
			vertex 7.023099899292 8.4230585098267 1.2745000123978
		endloop
	endfacet
	facet normal -1 0 0
		outer loop
			vertex 7.023099899292 8.693058013916 0
			vertex 7.023099899292 8.4230585098267 1.2745000123978
			vertex 7.023099899292 8.693058013916 0.27000001072884
		endloop
	endfacet
	facet normal 0 -1 0
		outer loop
			vertex 7.023099899292 8.4230585098267 0.27000001072884
			vertex 8.9540996551514 8.4230585098267 0.27000001072884
			vertex 7.023099899292 8.4230585098267 1.2745000123978
		endloop
	endfacet
	facet normal 0 1 0
		outer loop
			vertex 7.023099899292 8.693058013916 0.27000001072884
			vertex 8.9690999984741 8.693058013916 1.2745000123978
			vertex 8.9540996551514 8.693058013916 0.27000001072884
		endloop
	endfacet
	facet normal 0 0 -1
		outer loop
			vertex 7.023099899292 8.4230585098267 0
			vertex 11.158100128174 8.693058013916 0
			vertex 11.158100128174 8.4230585098267 0
		endloop
	endfacet
	facet normal 0 -1 0
		outer loop
			vertex 8.9540996551514 8.4230585098267 0.27000001072884
			vertex 9.2271003723145 8.4230585098267 0.27000001072884
			vertex 7.023099899292 8.4230585098267 1.2745000123978
		endloop
	endfacet
	facet normal 0 1 0
		outer loop
			vertex 8.9540996551514 8.693058013916 0.27000001072884
			vertex 8.9690999984741 8.693058013916 1.2745000123978
			vertex 8.9690999984741 8.693058013916 0.27000001072884
		endloop
	endfacet
	facet normal 0 -1 0
		outer loop
			vertex 7.023099899292 8.4230585098267 1.2745000123978
			vertex 9.2271003723145 8.4230585098267 0.27000001072884
			vertex 11.158100128174 8.4230585098267 0.27000001072884
		endloop
	endfacet
	facet normal 0 1 0
		outer loop
			vertex 9.2121000289917 8.693058013916 0.27000001072884
			vertex 9.2121000289917 8.693058013916 1.2745000123978
			vertex 9.2271003723145 8.693058013916 0.27000001072884
		endloop
	endfacet
	facet normal 0 1 -0
		outer loop
			vertex 9.2271003723145 8.693058013916 0.27000001072884
			vertex 9.2121000289917 8.693058013916 1.2745000123978
			vertex 10.745843887329 8.693058013916 0.27000001072884
		endloop
	endfacet
	facet normal 1 0 -0
		outer loop
			vertex 11.158100128174 8.693058013916 0
			vertex 11.158100128174 8.693058013916 1.2745000123978
			vertex 11.158100128174 8.4230585098267 0
		endloop
	endfacet
	facet normal 1 0 0
		outer loop
			vertex 11.158100128174 8.4230585098267 0
			vertex 11.158100128174 8.693058013916 1.2745000123978
			vertex 11.158100128174 8.4230585098267 0.27000001072884
		endloop
	endfacet
	facet normal 0 1 -0
		outer loop
			vertex 11.158100128174 8.693058013916 0
			vertex 10.745843887329 8.693058013916 0.27000001072884
			vertex 11.158100128174 8.693058013916 1.2745000123978
		endloop
	endfacet
	facet normal -1 0 0
		outer loop
			vertex 7.023099899292 8.693058013916 0.27000001072884
			vertex 7.023099899292 8.4230585098267 1.2745000123978
			vertex 7.023099899292 8.693058013916 1.2745000123978
		endloop
	endfacet
	facet normal 0 1 0
		outer loop
			vertex 7.023099899292 8.693058013916 0.27000001072884
			vertex 7.023099899292 8.693058013916 1.2745000123978
			vertex 8.9690999984741 8.693058013916 1.2745000123978
		endloop
	endfacet
	facet normal 0 -1 0
		outer loop
			vertex 7.023099899292 8.4230585098267 1.2745000123978
			vertex 11.158100128174 8.4230585098267 0.27000001072884
			vertex 11.158100128174 8.4230585098267 1.2745000123978
		endloop
	endfacet
	facet normal 0 1 -0
		outer loop
			vertex 10.745843887329 8.693058013916 0.27000001072884
			vertex 9.2121000289917 8.693058013916 1.2745000123978
			vertex 11.158100128174 8.693058013916 1.2745000123978
		endloop
	endfacet
	facet normal 1 0 0
		outer loop
			vertex 11.158100128174 8.4230585098267 0.27000001072884
			vertex 11.158100128174 8.693058013916 1.2745000123978
			vertex 11.158100128174 8.4230585098267 1.2745000123978
		endloop
	endfacet
	facet normal 0 0 1
		outer loop
			vertex 7.023099899292 8.693058013916 1.2745000123978
			vertex 7.023099899292 8.4230585098267 1.2745000123978
			vertex 11.158100128174 8.4230585098267 1.2745000123978
		endloop
	endfacet
	facet normal -0 0 1
		outer loop
			vertex 7.023099899292 8.693058013916 1.2745000123978
			vertex 11.158100128174 8.4230585098267 1.2745000123978
			vertex 8.9690999984741 8.693058013916 1.2745000123978
		endloop
	endfacet
	facet normal -0 0 1
		outer loop
			vertex 8.9690999984741 8.693058013916 1.2745000123978
			vertex 11.158100128174 8.4230585098267 1.2745000123978
			vertex 9.2121000289917 8.693058013916 1.2745000123978
		endloop
	endfacet
	facet normal -0 0 1
		outer loop
			vertex 9.2121000289917 8.693058013916 1.2745000123978
			vertex 11.158100128174 8.4230585098267 1.2745000123978
			vertex 11.158100128174 8.693058013916 1.2745000123978
		endloop
	endfacet
	facet normal 0 0 -1
		outer loop
			vertex 8.8880996704102 8.8280582427979 0
			vertex 9.2121000289917 8.693058013916 0
			vertex 8.9690999984741 8.693058013916 0
		endloop
	endfacet
	facet normal 0 0 -1
		outer loop
			vertex 8.8880996704102 8.8280582427979 0
			vertex 9.2931003570557 8.8280582427979 0
			vertex 9.2121000289917 8.693058013916 0
		endloop
	endfacet
	facet normal 0.85749239122379 -0.51449664624107 0
		outer loop
			vertex 9.2121000289917 8.693058013916 0
			vertex 9.2931003570557 8.8280582427979 0
			vertex 9.2121000289917 8.693058013916 0.11999999731779
		endloop
	endfacet
	facet normal 0.85749239122379 -0.51449664624107 0
		outer loop
			vertex 9.2931003570557 8.8280582427979 0
			vertex 9.2121000289917 8.693058013916 0.27000001072884
			vertex 9.2121000289917 8.693058013916 0.11999999731779
		endloop
	endfacet
	facet normal -0.85749239122379 -0.51449664624107 0
		outer loop
			vertex 8.8880996704102 8.8280582427979 0
			vertex 8.9690999984741 8.693058013916 0
			vertex 8.8880996704102 8.8280582427979 1.2745000123978
		endloop
	endfacet
	facet normal -0.85749239122379 -0.51449664624107 0
		outer loop
			vertex 8.9690999984741 8.693058013916 0
			vertex 8.9690999984741 8.693058013916 0.11999999731779
			vertex 8.8880996704102 8.8280582427979 1.2745000123978
		endloop
	endfacet
	facet normal 0 1 0
		outer loop
			vertex 8.8880996704102 8.8280582427979 0
			vertex 9.2931003570557 8.8280582427979 1.2745000123978
			vertex 9.2931003570557 8.8280582427979 0
		endloop
	endfacet
	facet normal -0.85749239122379 -0.51449664624107 0
		outer loop
			vertex 8.9690999984741 8.693058013916 0.11999999731779
			vertex 8.9690999984741 8.693058013916 0.27000001072884
			vertex 8.8880996704102 8.8280582427979 1.2745000123978
		endloop
	endfacet
	facet normal 0.85749239122379 -0.51449664624107 0
		outer loop
			vertex 9.2931003570557 8.8280582427979 0
			vertex 9.2121000289917 8.693058013916 1.2745000123978
			vertex 9.2121000289917 8.693058013916 0.27000001072884
		endloop
	endfacet
	facet normal 0 1 0
		outer loop
			vertex 8.8880996704102 8.8280582427979 0
			vertex 8.8880996704102 8.8280582427979 1.2745000123978
			vertex 9.2931003570557 8.8280582427979 1.2745000123978
		endloop
	endfacet
	facet normal -0.85749239122379 -0.51449664624107 0
		outer loop
			vertex 8.9690999984741 8.693058013916 0.27000001072884
			vertex 8.9690999984741 8.693058013916 1.2745000123978
			vertex 8.8880996704102 8.8280582427979 1.2745000123978
		endloop
	endfacet
	facet normal 0.85749239122379 -0.51449664624107 0
		outer loop
			vertex 9.2931003570557 8.8280582427979 0
			vertex 9.2931003570557 8.8280582427979 1.2745000123978
			vertex 9.2121000289917 8.693058013916 1.2745000123978
		endloop
	endfacet
	facet normal 0 0 1
		outer loop
			vertex 8.8880996704102 8.8280582427979 1.2745000123978
			vertex 8.9690999984741 8.693058013916 1.2745000123978
			vertex 9.2121000289917 8.693058013916 1.2745000123978
		endloop
	endfacet
	facet normal -0 0 1
		outer loop
			vertex 8.8880996704102 8.8280582427979 1.2745000123978
			vertex 9.2121000289917 8.693058013916 1.2745000123978
			vertex 9.2931003570557 8.8280582427979 1.2745000123978
		endloop
	endfacet
	facet normal -1 0 0
		outer loop
			vertex 7.023099899292 1.5599582195282 0
			vertex 7.023099899292 1.5599582195282 0.27000001072884
			vertex 7.023099899292 1.6323044300079 0.27000001072884
		endloop
	endfacet
	facet normal -1 -0 0
		outer loop
			vertex 7.023099899292 8.4230585098267 0.27000001072884
			vertex 7.023099899292 1.5599582195282 0
			vertex 7.023099899292 1.6323044300079 0.27000001072884
		endloop
	endfacet
	facet normal 0 0 1
		outer loop
			vertex 8.9540996551514 8.4230585098267 0.27000001072884
			vertex 7.023099899292 1.6323044300079 0.27000001072884
			vertex 8.9540996551514 1.6323044300079 0.27000001072884
		endloop
	endfacet
	facet normal 0 0 -1
		outer loop
			vertex 7.023099899292 8.4230585098267 0
			vertex 11.158100128174 1.5599582195282 0
			vertex 7.023099899292 1.5599582195282 0
		endloop
	endfacet
	facet normal 1 0 0
		outer loop
			vertex 11.158100128174 8.4230585098267 0
			vertex 11.158100128174 1.5599582195282 0.27000001072884
			vertex 11.158100128174 1.5599582195282 0
		endloop
	endfacet
	facet normal 1 0 0
		outer loop
			vertex 11.158100128174 8.4230585098267 0
			vertex 11.158100128174 1.6323044300079 0.27000001072884
			vertex 11.158100128174 1.5599582195282 0.27000001072884
		endloop
	endfacet
	facet normal 0 0 1
		outer loop
			vertex 11.158100128174 8.4230585098267 0.27000001072884
			vertex 9.2271003723145 1.6323044300079 0.27000001072884
			vertex 11.158100128174 1.6323044300079 0.27000001072884
		endloop
	endfacet
	facet normal -1 0 0
		outer loop
			vertex 7.023099899292 8.4230585098267 0
			vertex 7.023099899292 1.5599582195282 0
			vertex 7.023099899292 8.4230585098267 0.27000001072884
		endloop
	endfacet
	facet normal -0 0 1
		outer loop
			vertex 7.023099899292 8.4230585098267 0.27000001072884
			vertex 7.023099899292 1.6323044300079 0.27000001072884
			vertex 8.9540996551514 8.4230585098267 0.27000001072884
		endloop
	endfacet
	facet normal 0 1 0
		outer loop
			vertex 7.023099899292 8.693058013916 0
			vertex 7.023099899292 8.693058013916 0.27000001072884
			vertex 8.8731002807617 8.693058013916 0.11999999731779
		endloop
	endfacet
	facet normal 0 0 -1
		outer loop
			vertex 7.023099899292 8.693058013916 0
			vertex 8.9690999984741 8.693058013916 0
			vertex 7.023099899292 8.4230585098267 0
		endloop
	endfacet
	facet normal 0 1 0
		outer loop
			vertex 7.023099899292 8.693058013916 0
			vertex 8.8731002807617 8.693058013916 0.11999999731779
			vertex 8.9690999984741 8.693058013916 0
		endloop
	endfacet
	facet normal -0 1 0
		outer loop
			vertex 7.023099899292 8.693058013916 0.27000001072884
			vertex 8.9540996551514 8.693058013916 0.27000001072884
			vertex 8.8731002807617 8.693058013916 0.11999999731779
		endloop
	endfacet
	facet normal 0 0 -1
		outer loop
			vertex 7.023099899292 8.4230585098267 0
			vertex 11.158100128174 8.4230585098267 0
			vertex 11.158100128174 1.5599582195282 0
		endloop
	endfacet
	facet normal -0 0 1
		outer loop
			vertex 9.2271003723145 8.4230585098267 0.27000001072884
			vertex 9.2271003723145 1.6323044300079 0.27000001072884
			vertex 11.158100128174 8.4230585098267 0.27000001072884
		endloop
	endfacet
	facet normal 1 0 -0
		outer loop
			vertex 11.158100128174 8.4230585098267 0
			vertex 11.158100128174 8.4230585098267 0.27000001072884
			vertex 11.158100128174 1.6323044300079 0.27000001072884
		endloop
	endfacet
	facet normal 0 0 -1
		outer loop
			vertex 7.023099899292 8.4230585098267 0
			vertex 8.9690999984741 8.693058013916 0
			vertex 9.2121000289917 8.693058013916 0
		endloop
	endfacet
	facet normal 0 1 -0
		outer loop
			vertex 8.9690999984741 8.693058013916 0
			vertex 8.8731002807617 8.693058013916 0.11999999731779
			vertex 8.9690999984741 8.693058013916 0.11999999731779
		endloop
	endfacet
	facet normal 0 0 -1
		outer loop
			vertex 7.023099899292 8.4230585098267 0
			vertex 9.2121000289917 8.693058013916 0
			vertex 11.158100128174 8.693058013916 0
		endloop
	endfacet
	facet normal 0 1 0
		outer loop
			vertex 9.2121000289917 8.693058013916 0
			vertex 9.2121000289917 8.693058013916 0.11999999731779
			vertex 9.3080997467041 8.693058013916 0.11999999731779
		endloop
	endfacet
	facet normal 0 1 0
		outer loop
			vertex 9.2121000289917 8.693058013916 0
			vertex 9.3080997467041 8.693058013916 0.11999999731779
			vertex 10.745843887329 8.693058013916 0.27000001072884
		endloop
	endfacet
	facet normal 0 1 -0
		outer loop
			vertex 9.3080997467041 8.693058013916 0.11999999731779
			vertex 9.2271003723145 8.693058013916 0.27000001072884
			vertex 10.745843887329 8.693058013916 0.27000001072884
		endloop
	endfacet
	facet normal 0 1 0
		outer loop
			vertex 9.2121000289917 8.693058013916 0
			vertex 10.745843887329 8.693058013916 0.27000001072884
			vertex 11.158100128174 8.693058013916 0
		endloop
	endfacet
	facet normal 1.6294929061204e-08 -0.49999996719621 -0.86602542272372
		outer loop
			vertex 7.023099899292 1.5599582195282 0
			vertex 7.7435617446899 0.97423672676086 0.3381664454937
			vertex 7.5066504478455 0.72423499822617 0.48250499367714
		endloop
	endfacet
	facet normal -1.6754176497272e-08 -0.50000003357335 -0.86602538440086
		outer loop
			vertex 7.023099899292 1.5599582195282 0
			vertex 8.7189531326294 1.4257456064224 0.077487662434578
			vertex 8.3615884780884 1.3318637609482 0.13169038295746
		endloop
	endfacet
	facet normal -1.1033232607321e-08 -0.49999997935779 -0.86602541570222
		outer loop
			vertex 7.023099899292 1.5599582195282 0
			vertex 9.0906000137329 1.4574456214905 0.059185646474361
			vertex 8.7189531326294 1.4257456064224 0.077487662434578
		endloop
	endfacet
	facet normal 1.1583705143194e-09 -0.49999995473844 -0.86602542991621
		outer loop
			vertex 7.023099899292 1.5599582195282 0
			vertex 8.3615884780884 1.3318637609482 0.13169038295746
			vertex 8.0322389602661 1.1794078350067 0.21971084177494
		endloop
	endfacet
	facet normal -2.3620273435536e-08 -0.50000000401923 -0.86602540146393
		outer loop
			vertex 7.023099899292 1.5599582195282 0
			vertex 8.0322389602661 1.1794078350067 0.21971084177494
			vertex 7.7435617446899 0.97423672676086 0.3381664454937
		endloop
	endfacet
	facet normal 8.5365674171746e-09 0.50000016012708 0.86602531133501
		outer loop
			vertex 7.023099899292 1.6323044300079 0.27000001072884
			vertex 8.3615884780884 1.4668637514114 0.3655172586441
			vertex 8.7189531326294 1.5607455968857 0.31131452322006
		endloop
	endfacet
	facet normal -0 0.50000000839775 0.86602539893599
		outer loop
			vertex 7.023099899292 1.6323044300079 0.27000001072884
			vertex 8.7189531326294 1.5607455968857 0.31131452322006
			vertex 8.9540996551514 1.6323044300079 0.27000001072884
		endloop
	endfacet
	facet normal -4.2695554673323e-08 -0.49999999279519 -0.86602540794414
		outer loop
			vertex 7.023099899292 1.5599582195282 0
			vertex 7.5066504478455 0.72423499822617 0.48250499367714
			vertex 7.3306093215942 0.43901011347771 0.6471796631813
		endloop
	endfacet
	facet normal -2.2894197582797e-07 -0.50000003111488 -0.86602538582023
		outer loop
			vertex 7.023099899292 1.5599582195282 0
			vertex 7.3306093215942 0.43901011347771 0.6471796631813
			vertex 7.2241225242615 0.13500000536442 0.82270002365112
		endloop
	endfacet
	facet normal 0 -0.5000000068918 -0.86602539980545
		outer loop
			vertex 7.023099899292 1.5599582195282 0
			vertex 7.2241225242615 0.13500000536442 0.82270002365112
			vertex 7.023099899292 0.13500000536442 0.82270002365112
		endloop
	endfacet
	facet normal -1 0 0
		outer loop
			vertex 7.023099899292 1.5599582195282 0
			vertex 7.023099899292 0.13500000536442 0.82270002365112
			vertex 7.023099899292 0.27000001072884 1.0565268993378
		endloop
	endfacet
	facet normal 3.2353414702213e-08 0.50000002626627 0.8660253886196
		outer loop
			vertex 7.023099899292 1.6323044300079 0.27000001072884
			vertex 7.3306093215942 0.57401013374329 0.88100653886795
			vertex 7.5066504478455 0.85923504829407 0.71633183956146
		endloop
	endfacet
	facet normal -1 0 0
		outer loop
			vertex 7.023099899292 1.5599582195282 0
			vertex 7.023099899292 0.27000001072884 1.0565268993378
			vertex 7.023099899292 1.5599582195282 0.27000001072884
		endloop
	endfacet
	facet normal -6.2725964232562e-09 0.49999998839059 0.86602541048713
		outer loop
			vertex 7.023099899292 1.6323044300079 0.27000001072884
			vertex 7.7435617446899 1.1092367172241 0.57199329137802
			vertex 8.0322389602661 1.31440782547 0.45353770256042
		endloop
	endfacet
	facet normal -2.8479448485299e-08 0.49999993552009 0.86602544101193
		outer loop
			vertex 7.023099899292 1.6323044300079 0.27000001072884
			vertex 8.0322389602661 1.31440782547 0.45353770256042
			vertex 8.3615884780884 1.4668637514114 0.3655172586441
		endloop
	endfacet
	facet normal -1 0 0
		outer loop
			vertex 7.023099899292 1.6323044300079 0.27000001072884
			vertex 7.023099899292 1.5599582195282 0.27000001072884
			vertex 7.023099899292 0.27000001072884 1.0565268993378
		endloop
	endfacet
	facet normal 2.8760165519464e-08 0.5000000245806 0.86602538959282
		outer loop
			vertex 7.023099899292 1.6323044300079 0.27000001072884
			vertex 7.5066504478455 0.85923504829407 0.71633183956146
			vertex 7.7435617446899 1.1092367172241 0.57199329137802
		endloop
	endfacet
	facet normal 0 -0.49999981246698 -0.86602551205665
		outer loop
			vertex 7.023099899292 1.5599582195282 0
			vertex 11.158100128174 1.5599582195282 0
			vertex 9.0906000137329 1.4574456214905 0.059185646474361
		endloop
	endfacet
	facet normal 3.4864209448196e-08 0.49999992247337 0.86602544854445
		outer loop
			vertex 8.9540996551514 1.6323044300079 0.27000001072884
			vertex 8.7189531326294 1.5607455968857 0.31131452322006
			vertex 9.0906000137329 1.5924456119537 0.29301249980927
		endloop
	endfacet
	facet normal -0 0.49999983292648 0.86602550024436
		outer loop
			vertex 8.9540996551514 1.6323044300079 0.27000001072884
			vertex 9.0906000137329 1.5924456119537 0.29301249980927
			vertex 9.2271003723145 1.6323044300079 0.27000001072884
		endloop
	endfacet
	facet normal -3.4864209448196e-08 0.49999992247337 0.86602544854445
		outer loop
			vertex 9.2271003723145 1.6323044300079 0.27000001072884
			vertex 9.0906000137329 1.5924456119537 0.29301249980927
			vertex 9.4622468948364 1.5607455968857 0.31131452322006
		endloop
	endfacet
	facet normal -1.6294914789197e-08 -0.49999996719622 -0.86602542272371
		outer loop
			vertex 11.158100128174 1.5599582195282 0
			vertex 10.674550056458 0.72423499822617 0.48250499367714
			vertex 10.437638282776 0.97423672676086 0.3381664454937
		endloop
	endfacet
	facet normal 1.1033232607321e-08 -0.49999997935779 -0.86602541570222
		outer loop
			vertex 11.158100128174 1.5599582195282 0
			vertex 9.4622468948364 1.4257456064224 0.077487662434578
			vertex 9.0906000137329 1.4574456214905 0.059185646474361
		endloop
	endfacet
	facet normal 1.6754176497272e-08 -0.50000003357335 -0.86602538440086
		outer loop
			vertex 11.158100128174 1.5599582195282 0
			vertex 9.8196115493774 1.3318637609482 0.13169038295746
			vertex 9.4622468948364 1.4257456064224 0.077487662434578
		endloop
	endfacet
	facet normal -1.1583705143194e-09 -0.49999995473844 -0.86602542991621
		outer loop
			vertex 11.158100128174 1.5599582195282 0
			vertex 10.1489610672 1.1794078350067 0.21971084177494
			vertex 9.8196115493774 1.3318637609482 0.13169038295746
		endloop
	endfacet
	facet normal -0 0.50000000839775 0.86602539893599
		outer loop
			vertex 9.2271003723145 1.6323044300079 0.27000001072884
			vertex 9.4622468948364 1.5607455968857 0.31131452322006
			vertex 11.158100128174 1.6323044300079 0.27000001072884
		endloop
	endfacet
	facet normal -8.5365674171746e-09 0.50000016012708 0.86602531133501
		outer loop
			vertex 11.158100128174 1.6323044300079 0.27000001072884
			vertex 9.4622468948364 1.5607455968857 0.31131452322006
			vertex 9.8196115493774 1.4668637514114 0.3655172586441
		endloop
	endfacet
	facet normal 2.3620273435536e-08 -0.50000000401923 -0.86602540146393
		outer loop
			vertex 11.158100128174 1.5599582195282 0
			vertex 10.437638282776 0.97423672676086 0.3381664454937
			vertex 10.1489610672 1.1794078350067 0.21971084177494
		endloop
	endfacet
	facet normal 4.2695634735933e-08 -0.4999999927952 -0.86602540794413
		outer loop
			vertex 11.158100128174 1.5599582195282 0
			vertex 10.850590705872 0.43901011347771 0.6471796631813
			vertex 10.674550056458 0.72423499822617 0.48250499367714
		endloop
	endfacet
	facet normal 1 0 -0
		outer loop
			vertex 11.158100128174 1.5599582195282 0
			vertex 11.158100128174 1.5599582195282 0.27000001072884
			vertex 11.158100128174 0.13500000536442 0.82270002365112
		endloop
	endfacet
	facet normal 1.1120976196963e-07 -0.5000000068918 -0.86602539980545
		outer loop
			vertex 11.158100128174 1.5599582195282 0
			vertex 11.158100128174 0.13500000536442 0.82270002365112
			vertex 10.850590705872 0.43901011347771 0.6471796631813
		endloop
	endfacet
	facet normal -3.2353474285825e-08 0.50000002626628 0.86602538861959
		outer loop
			vertex 11.158100128174 1.6323044300079 0.27000001072884
			vertex 10.674550056458 0.85923504829407 0.71633183956146
			vertex 10.850590705872 0.57401013374329 0.88100653886795
		endloop
	endfacet
	facet normal 2.8479448485299e-08 0.49999993552009 0.86602544101193
		outer loop
			vertex 11.158100128174 1.6323044300079 0.27000001072884
			vertex 9.8196115493774 1.4668637514114 0.3655172586441
			vertex 10.1489610672 1.31440782547 0.45353770256042
		endloop
	endfacet
	facet normal 6.2725964232562e-09 0.49999998839059 0.86602541048713
		outer loop
			vertex 11.158100128174 1.6323044300079 0.27000001072884
			vertex 10.1489610672 1.31440782547 0.45353770256042
			vertex 10.437638282776 1.1092367172241 0.57199329137802
		endloop
	endfacet
	facet normal 1 0 0
		outer loop
			vertex 11.158100128174 1.6323044300079 0.27000001072884
			vertex 11.158100128174 0.13500000536442 0.82270002365112
			vertex 11.158100128174 1.5599582195282 0.27000001072884
		endloop
	endfacet
	facet normal -2.8760141925976e-08 0.50000002458058 0.86602538959283
		outer loop
			vertex 11.158100128174 1.6323044300079 0.27000001072884
			vertex 10.437638282776 1.1092367172241 0.57199329137802
			vertex 10.674550056458 0.85923504829407 0.71633183956146
		endloop
	endfacet
	facet normal 5.495086879951e-08 0.50000003119089 0.86602538577637
		outer loop
			vertex 7.023099899292 1.6323044300079 0.27000001072884
			vertex 7.023099899292 0.27000001072884 1.0565268993378
			vertex 7.3306093215942 0.57401013374329 0.88100653886795
		endloop
	endfacet
	facet normal 0 -0.86602541061166 0.4999999881749
		outer loop
			vertex 7.023099899292 0.13500000536442 0.82270002365112
			vertex 7.2241225242615 0.13500000536442 0.82270002365112
			vertex 7.2241225242615 0.27000001072884 1.0565268993378
		endloop
	endfacet
	facet normal 0 -0.86602541061166 0.4999999881749
		outer loop
			vertex 7.023099899292 0.13500000536442 0.82270002365112
			vertex 7.2241225242615 0.27000001072884 1.0565268993378
			vertex 7.023099899292 0.27000001072884 1.0565268993378
		endloop
	endfacet
	facet normal -0 0.50000007287842 0.86602536170806
		outer loop
			vertex 7.023099899292 0.27000001072884 1.0565268993378
			vertex 7.2241225242615 0.27000001072884 1.0565268993378
			vertex 7.3306093215942 0.57401013374329 0.88100653886795
		endloop
	endfacet
	facet normal -0 -0.50000009125918 -0.86602535109592
		outer loop
			vertex 11.158100128174 0.13500000536442 0.82270002365112
			vertex 10.957077980042 0.13500000536442 0.82270002365112
			vertex 10.850590705872 0.43901011347771 0.6471796631813
		endloop
	endfacet
	facet normal 1 0 0
		outer loop
			vertex 11.158100128174 1.6323044300079 0.27000001072884
			vertex 11.158100128174 0.27000001072884 1.0565268993378
			vertex 11.158100128174 0.13500000536442 0.82270002365112
		endloop
	endfacet
	facet normal -1.1165002436859e-07 0.50000004354723 0.86602537864243
		outer loop
			vertex 11.158100128174 1.6323044300079 0.27000001072884
			vertex 10.850590705872 0.57401013374329 0.88100653886795
			vertex 10.957077980042 0.27000001072884 1.0565268993378
		endloop
	endfacet
	facet normal 0 0.50000003119089 0.86602538577637
		outer loop
			vertex 11.158100128174 1.6323044300079 0.27000001072884
			vertex 10.957077980042 0.27000001072884 1.0565268993378
			vertex 11.158100128174 0.27000001072884 1.0565268993378
		endloop
	endfacet
	facet normal 0 -0.86602541061166 0.4999999881749
		outer loop
			vertex 11.158100128174 0.13500000536442 0.82270002365112
			vertex 11.158100128174 0.27000001072884 1.0565268993378
			vertex 10.957077980042 0.13500000536442 0.82270002365112
		endloop
	endfacet
	facet normal 0 -0.86602541061166 0.4999999881749
		outer loop
			vertex 11.158100128174 0.27000001072884 1.0565268993378
			vertex 10.957077980042 0.27000001072884 1.0565268993378
			vertex 10.957077980042 0.13500000536442 0.82270002365112
		endloop
	endfacet
	facet normal 0.87990694973051 0 -0.4751460405138
		outer loop
			vertex 8.9540996551514 1.6323044300079 0.27000001072884
			vertex 8.9540996551514 1.563635468483 0.27000001072884
			vertex 8.8731002807617 1.4678210020065 0.11999999731779
		endloop
	endfacet
	facet normal 0 0 -1
		outer loop
			vertex 8.9540996551514 1.6323044300079 0.27000001072884
			vertex 9.0906000137329 1.5791593790054 0.27000001072884
			vertex 8.9540996551514 1.563635468483 0.27000001072884
		endloop
	endfacet
	facet normal 0 0 -1
		outer loop
			vertex 8.9540996551514 1.6323044300079 0.27000001072884
			vertex 9.2271003723145 1.6323044300079 0.27000001072884
			vertex 9.0906000137329 1.5791593790054 0.27000001072884
		endloop
	endfacet
	facet normal 0 -0 -1
		outer loop
			vertex 9.2271003723145 1.6323044300079 0.27000001072884
			vertex 9.2271003723145 1.563635468483 0.27000001072884
			vertex 9.0906000137329 1.5791593790054 0.27000001072884
		endloop
	endfacet
	facet normal 0 0 1
		outer loop
			vertex 8.8731002807617 8.693058013916 0.11999999731779
			vertex 8.8731002807617 1.4678210020065 0.11999999731779
			vertex 9.0906000137329 1.492556810379 0.11999999731779
		endloop
	endfacet
	facet normal 0 0 1
		outer loop
			vertex 9.3080997467041 8.693058013916 0.11999999731779
			vertex 9.0906000137329 1.492556810379 0.11999999731779
			vertex 9.3080997467041 1.4678210020065 0.11999999731779
		endloop
	endfacet
	facet normal 0.87990694973051 0 -0.4751460405138
		outer loop
			vertex 8.8731002807617 8.693058013916 0.11999999731779
			vertex 8.9540996551514 1.6323044300079 0.27000001072884
			vertex 8.8731002807617 1.4678210020065 0.11999999731779
		endloop
	endfacet
	facet normal -0.87990694973051 -0 -0.4751460405138
		outer loop
			vertex 9.3080997467041 8.693058013916 0.11999999731779
			vertex 9.3080997467041 1.4678210020065 0.11999999731779
			vertex 9.2271003723145 1.563635468483 0.27000001072884
		endloop
	endfacet
	facet normal -0.87990694973051 0 -0.4751460405138
		outer loop
			vertex 9.3080997467041 8.693058013916 0.11999999731779
			vertex 9.2271003723145 1.563635468483 0.27000001072884
			vertex 9.2271003723145 1.6323044300079 0.27000001072884
		endloop
	endfacet
	facet normal -0 0 1
		outer loop
			vertex 8.8731002807617 8.693058013916 0.11999999731779
			vertex 9.0906000137329 1.492556810379 0.11999999731779
			vertex 8.9690999984741 8.693058013916 0.11999999731779
		endloop
	endfacet
	facet normal -0 0 1
		outer loop
			vertex 8.9690999984741 8.693058013916 0.11999999731779
			vertex 9.0906000137329 1.492556810379 0.11999999731779
			vertex 9.2121000289917 8.693058013916 0.11999999731779
		endloop
	endfacet
	facet normal -0 0 1
		outer loop
			vertex 9.2121000289917 8.693058013916 0.11999999731779
			vertex 9.0906000137329 1.492556810379 0.11999999731779
			vertex 9.3080997467041 8.693058013916 0.11999999731779
		endloop
	endfacet
	facet normal 0.87990694973051 0 -0.4751460405138
		outer loop
			vertex 8.8731002807617 8.693058013916 0.11999999731779
			vertex 8.9540996551514 8.4230585098267 0.27000001072884
			vertex 8.9540996551514 1.6323044300079 0.27000001072884
		endloop
	endfacet
	facet normal -0.87990694973051 0 -0.4751460405138
		outer loop
			vertex 9.3080997467041 8.693058013916 0.11999999731779
			vertex 9.2271003723145 1.6323044300079 0.27000001072884
			vertex 9.2271003723145 8.4230585098267 0.27000001072884
		endloop
	endfacet
	facet normal 0 -1 0
		outer loop
			vertex 8.9690999984741 8.693058013916 0.11999999731779
			vertex 9.2121000289917 8.693058013916 0.11999999731779
			vertex 8.9690999984741 8.693058013916 0.27000001072884
		endloop
	endfacet
	facet normal 0.87990694973051 0 -0.4751460405138
		outer loop
			vertex 8.8731002807617 8.693058013916 0.11999999731779
			vertex 8.9540996551514 8.693058013916 0.27000001072884
			vertex 8.9540996551514 8.4230585098267 0.27000001072884
		endloop
	endfacet
	facet normal 0 0 -1
		outer loop
			vertex 8.9540996551514 8.693058013916 0.27000001072884
			vertex 9.2271003723145 8.4230585098267 0.27000001072884
			vertex 8.9540996551514 8.4230585098267 0.27000001072884
		endloop
	endfacet
	facet normal 0 0 -1
		outer loop
			vertex 8.9540996551514 8.693058013916 0.27000001072884
			vertex 8.9690999984741 8.693058013916 0.27000001072884
			vertex 9.2271003723145 8.4230585098267 0.27000001072884
		endloop
	endfacet
	facet normal 0 -1 0
		outer loop
			vertex 8.9690999984741 8.693058013916 0.27000001072884
			vertex 9.2121000289917 8.693058013916 0.11999999731779
			vertex 9.2121000289917 8.693058013916 0.27000001072884
		endloop
	endfacet
	facet normal -0.87990694973051 0 -0.4751460405138
		outer loop
			vertex 9.3080997467041 8.693058013916 0.11999999731779
			vertex 9.2271003723145 8.4230585098267 0.27000001072884
			vertex 9.2271003723145 8.693058013916 0.27000001072884
		endloop
	endfacet
	facet normal 0 0 -1
		outer loop
			vertex 8.9690999984741 8.693058013916 0.27000001072884
			vertex 9.2121000289917 8.693058013916 0.27000001072884
			vertex 9.2271003723145 8.4230585098267 0.27000001072884
		endloop
	endfacet
	facet normal 0 0 -1
		outer loop
			vertex 9.2121000289917 8.693058013916 0.27000001072884
			vertex 9.2271003723145 8.693058013916 0.27000001072884
			vertex 9.2271003723145 8.4230585098267 0.27000001072884
		endloop
	endfacet
	facet normal 0.47139663130566 -0.76376629500575 0.44096061344168
		outer loop
			vertex 8.3615884780884 1.3318637609482 0.13169038295746
			vertex 8.3615884780884 1.4668637514114 0.3655172586441
			vertex 8.0322389602661 1.1794078350067 0.21971084177494
		endloop
	endfacet
	facet normal 0.77301031491974 -0.54940084815439 0.31719672298894
		outer loop
			vertex 7.5066504478455 0.72423499822617 0.48250499367714
			vertex 7.7435617446899 0.97423672676086 0.3381664454937
			vertex 7.7435617446899 1.1092367172241 0.57199329137802
		endloop
	endfacet
	facet normal 0.88192099566184 -0.4082419410975 0.23569869524411
		outer loop
			vertex 7.5066504478455 0.72423499822617 0.48250499367714
			vertex 7.5066504478455 0.85923504829407 0.71633183956146
			vertex 7.3306093215942 0.43901011347771 0.6471796631813
		endloop
	endfacet
	facet normal 0.77301025929075 -0.54940084621481 0.31719686191653
		outer loop
			vertex 7.5066504478455 0.72423499822617 0.48250499367714
			vertex 7.7435617446899 1.1092367172241 0.57199329137802
			vertex 7.5066504478455 0.85923504829407 0.71633183956146
		endloop
	endfacet
	facet normal 0.63439316496363 -0.66944678780713 0.38650525292957
		outer loop
			vertex 7.7435617446899 0.97423672676086 0.3381664454937
			vertex 8.0322389602661 1.1794078350067 0.21971084177494
			vertex 8.0322389602661 1.31440782547 0.45353770256042
		endloop
	endfacet
	facet normal 0.47139661578813 -0.76376629002062 0.44096063866475
		outer loop
			vertex 8.0322389602661 1.1794078350067 0.21971084177494
			vertex 8.3615884780884 1.4668637514114 0.3655172586441
			vertex 8.0322389602661 1.31440782547 0.45353770256042
		endloop
	endfacet
	facet normal 0.63439315304205 -0.66944678561462 0.38650527629467
		outer loop
			vertex 7.7435617446899 0.97423672676086 0.3381664454937
			vertex 8.0322389602661 1.31440782547 0.45353770256042
			vertex 7.7435617446899 1.1092367172241 0.57199329137802
		endloop
	endfacet
	facet normal 0.098017149495538 -0.86185521065925 0.49759243790904
		outer loop
			vertex 8.7189531326294 1.4257456064224 0.077487662434578
			vertex 9.0906000137329 1.4574456214905 0.059185646474361
			vertex 9.0906000137329 1.492556810379 0.11999999731779
		endloop
	endfacet
	facet normal 0.098017028948572 -0.86185489885373 0.4975930017172
		outer loop
			vertex 8.8731002807617 1.4678210020065 0.11999999731779
			vertex 8.7189531326294 1.4257456064224 0.077487662434578
			vertex 9.0906000137329 1.492556810379 0.11999999731779
		endloop
	endfacet
	facet normal -0.09801706522704 -0.86185521784702 0.4975924420589
		outer loop
			vertex 9.3080997467041 1.4678210020065 0.11999999731779
			vertex 9.0906000137329 1.492556810379 0.11999999731779
			vertex 9.0906000137329 1.4574456214905 0.059185646474361
		endloop
	endfacet
	facet normal -0.098017149495533 -0.8618550507219 0.49759271492851
		outer loop
			vertex 9.3080997467041 1.4678210020065 0.11999999731779
			vertex 9.0906000137329 1.4574456214905 0.059185646474361
			vertex 9.4622468948364 1.4257456064224 0.077487662434578
		endloop
	endfacet
	facet normal 0.29028477681768 -0.82873463069295 0.47847012470804
		outer loop
			vertex 8.3615884780884 1.3318637609482 0.13169038295746
			vertex 8.7189531326294 1.4257456064224 0.077487662434578
			vertex 8.7189531326294 1.5607455968857 0.31131452322006
		endloop
	endfacet
	facet normal 0.098017313123006 -0.86185525686387 0.49759232564847
		outer loop
			vertex 8.8731002807617 1.4678210020065 0.11999999731779
			vertex 8.7189531326294 1.5607455968857 0.31131452322006
			vertex 8.7189531326294 1.4257456064224 0.077487662434578
		endloop
	endfacet
	facet normal 0.098017336933591 -0.8618552460985 0.49759233960437
		outer loop
			vertex 8.8731002807617 1.4678210020065 0.11999999731779
			vertex 8.9540996551514 1.563635468483 0.27000001072884
			vertex 8.7189531326294 1.5607455968857 0.31131452322006
		endloop
	endfacet
	facet normal 0.29028479508745 -0.82873463909663 0.47847009906828
		outer loop
			vertex 8.3615884780884 1.3318637609482 0.13169038295746
			vertex 8.7189531326294 1.5607455968857 0.31131452322006
			vertex 8.3615884780884 1.4668637514114 0.3655172586441
		endloop
	endfacet
	facet normal 0.098017122694933 -0.86185580467185 0.4975914143271
		outer loop
			vertex 9.0906000137329 1.5924456119537 0.29301249980927
			vertex 8.9540996551514 1.563635468483 0.27000001072884
			vertex 9.0906000137329 1.5791593790054 0.27000001072884
		endloop
	endfacet
	facet normal 0.098017159375061 -0.86185587516324 0.49759128500673
		outer loop
			vertex 8.9540996551514 1.563635468483 0.27000001072884
			vertex 9.0906000137329 1.5924456119537 0.29301249980927
			vertex 8.7189531326294 1.5607455968857 0.31131452322006
		endloop
	endfacet
	facet normal -0.098017313123006 -0.86185525686387 0.49759232564847
		outer loop
			vertex 9.3080997467041 1.4678210020065 0.11999999731779
			vertex 9.4622468948364 1.4257456064224 0.077487662434578
			vertex 9.4622468948364 1.5607455968857 0.31131452322006
		endloop
	endfacet
	facet normal -0.098017336933591 -0.8618552460985 0.49759233960437
		outer loop
			vertex 9.3080997467041 1.4678210020065 0.11999999731779
			vertex 9.4622468948364 1.5607455968857 0.31131452322006
			vertex 9.2271003723145 1.563635468483 0.27000001072884
		endloop
	endfacet
	facet normal -0.29028477681768 -0.82873464389621 0.47847010183932
		outer loop
			vertex 9.4622468948364 1.4257456064224 0.077487662434578
			vertex 9.8196115493774 1.3318637609482 0.13169038295746
			vertex 9.8196115493774 1.4668637514114 0.3655172586441
		endloop
	endfacet
	facet normal -0.098017122694933 -0.86185580467185 0.4975914143271
		outer loop
			vertex 9.2271003723145 1.563635468483 0.27000001072884
			vertex 9.0906000137329 1.5924456119537 0.29301249980927
			vertex 9.0906000137329 1.5791593790054 0.27000001072884
		endloop
	endfacet
	facet normal -0.098017159375061 -0.86185587516324 0.49759128500673
		outer loop
			vertex 9.2271003723145 1.563635468483 0.27000001072884
			vertex 9.4622468948364 1.5607455968857 0.31131452322006
			vertex 9.0906000137329 1.5924456119537 0.29301249980927
		endloop
	endfacet
	facet normal -0.29028479508745 -0.82873462589337 0.478470121937
		outer loop
			vertex 9.4622468948364 1.4257456064224 0.077487662434578
			vertex 9.8196115493774 1.4668637514114 0.3655172586441
			vertex 9.4622468948364 1.5607455968857 0.31131452322006
		endloop
	endfacet
	facet normal -0.47139663130566 -0.76376628283756 0.44096063451761
		outer loop
			vertex 9.8196115493774 1.3318637609482 0.13169038295746
			vertex 10.1489610672 1.1794078350067 0.21971084177494
			vertex 10.1489610672 1.31440782547 0.45353770256042
		endloop
	endfacet
	facet normal -0.47139661578813 -0.76376630218882 0.44096061758882
		outer loop
			vertex 9.8196115493774 1.3318637609482 0.13169038295746
			vertex 10.1489610672 1.31440782547 0.45353770256042
			vertex 9.8196115493774 1.4668637514114 0.3655172586441
		endloop
	endfacet
	facet normal -0.63439316496363 -0.66944677714161 0.38650527140278
		outer loop
			vertex 10.1489610672 1.1794078350067 0.21971084177494
			vertex 10.437638282776 0.97423672676086 0.3381664454937
			vertex 10.437638282776 1.1092367172241 0.57199329137802
		endloop
	endfacet
	facet normal -0.77300968875745 -0.54940144827195 0.31719720951453
		outer loop
			vertex 10.437638282776 0.97423672676086 0.3381664454937
			vertex 10.674550056458 0.72423499822617 0.48250499367714
			vertex 10.674550056458 0.85923504829407 0.71633183956146
		endloop
	endfacet
	facet normal -0.77300963312838 -0.54940156761703 0.31719713837088
		outer loop
			vertex 10.437638282776 0.97423672676086 0.3381664454937
			vertex 10.674550056458 0.85923504829407 0.71633183956146
			vertex 10.437638282776 1.1092367172241 0.57199329137802
		endloop
	endfacet
	facet normal -0.63439315304205 -0.66944679628013 0.38650525782146
		outer loop
			vertex 10.1489610672 1.1794078350067 0.21971084177494
			vertex 10.437638282776 1.1092367172241 0.57199329137802
			vertex 10.1489610672 1.31440782547 0.45353770256042
		endloop
	endfacet
	facet normal 0.95694050364326 -0.25139342050614 0.1451420704455
		outer loop
			vertex 7.2241225242615 0.13500000536442 0.82270002365112
			vertex 7.3306093215942 0.43901011347771 0.6471796631813
			vertex 7.3306093215942 0.57401013374329 0.88100653886795
		endloop
	endfacet
	facet normal 0.8819210198864 -0.40824193738721 0.23569861102874
		outer loop
			vertex 7.3306093215942 0.43901011347771 0.6471796631813
			vertex 7.5066504478455 0.85923504829407 0.71633183956146
			vertex 7.3306093215942 0.57401013374329 0.88100653886795
		endloop
	endfacet
	facet normal 0.95694050660758 -0.25139341898042 0.145142053544
		outer loop
			vertex 7.2241225242615 0.13500000536442 0.82270002365112
			vertex 7.3306093215942 0.57401013374329 0.88100653886795
			vertex 7.2241225242615 0.27000001072884 1.0565268993378
		endloop
	endfacet
	facet normal -0.88192152649679 -0.40824111656711 0.235698137128
		outer loop
			vertex 10.674550056458 0.72423499822617 0.48250499367714
			vertex 10.850590705872 0.43901011347771 0.6471796631813
			vertex 10.850590705872 0.57401013374329 0.88100653886795
		endloop
	endfacet
	facet normal -0.88192155072126 -0.40824104177943 0.23569817602235
		outer loop
			vertex 10.674550056458 0.72423499822617 0.48250499367714
			vertex 10.850590705872 0.57401013374329 0.88100653886795
			vertex 10.674550056458 0.85923504829407 0.71633183956146
		endloop
	endfacet
	facet normal -0.95694014256066 -0.25139445829897 0.14514265359482
		outer loop
			vertex 10.957077980042 0.27000001072884 1.0565268993378
			vertex 10.850590705872 0.43901011347771 0.6471796631813
			vertex 10.957077980042 0.13500000536442 0.82270002365112
		endloop
	endfacet
	facet normal -0.956940145525 -0.25139444289892 0.14514266072429
		outer loop
			vertex 10.850590705872 0.43901011347771 0.6471796631813
			vertex 10.957077980042 0.27000001072884 1.0565268993378
			vertex 10.850590705872 0.57401013374329 0.88100653886795
		endloop
	endfacet
endsolid