solid csg_export
	facet normal -1 0 0
		outer loop
			vertex 0 8.693058013916 0
			vertex 0 8.4230585098267 0
			vertex 0 8.4230585098267 0.27000001072884
		endloop
	endfacet
	facet normal -1 0 0
		outer loop
			vertex 0 8.693058013916 0
			vertex 0 8.4230585098267 1.2745000123978
			vertex 0 8.693058013916 0.27000001072884
		endloop
	endfacet
	facet normal -1 0 0
		outer loop
			vertex 0 8.693058013916 0
			vertex 0 8.4230585098267 0.27000001072884
			vertex 0 8.4230585098267 1.2745000123978
		endloop
	endfacet
	facet normal 0 -1 0
		outer loop
			vertex 0 8.4230585098267 0.27000001072884
			vertex 1.930999994278 8.4230585098267 0.27000001072884
			vertex 0 8.4230585098267 1.2745000123978
		endloop
	endfacet
	facet normal 0 1 0
		outer loop
			vertex 0 8.693058013916 0.27000001072884
			vertex 1.9459999799728 8.693058013916 1.2745000123978
			vertex 1.930999994278 8.693058013916 0.27000001072884
		endloop
	endfacet
	facet normal 0 -1 0
		outer loop
			vertex 1.930999994278 8.4230585098267 0.27000001072884
			vertex 2.2039999961853 8.4230585098267 0.27000001072884
			vertex 0 8.4230585098267 1.2745000123978
		endloop
	endfacet
	facet normal 0 1 0
		outer loop
			vertex 1.930999994278 8.693058013916 0.27000001072884
			vertex 1.9459999799728 8.693058013916 1.2745000123978
			vertex 1.9459999799728 8.693058013916 0.27000001072884
		endloop
	endfacet
	facet normal -1 0 0
		outer loop
			vertex 0 8.693058013916 0.27000001072884
			vertex 0 8.4230585098267 1.2745000123978
			vertex 0 8.693058013916 1.2745000123978
		endloop
	endfacet
	facet normal 0 1 0
		outer loop
			vertex 0 8.693058013916 0.27000001072884
			vertex 0 8.693058013916 1.2745000123978
			vertex 1.9459999799728 8.693058013916 1.2745000123978
		endloop
	endfacet
	facet normal 0 0 1
		outer loop
			vertex 0 8.693058013916 1.2745000123978
			vertex 0 8.4230585098267 1.2745000123978
			vertex 4.1350002288818 8.4230585098267 1.2745000123978
		endloop
	endfacet
	facet normal -0 0 1
		outer loop
			vertex 0 8.693058013916 1.2745000123978
			vertex 4.1350002288818 8.4230585098267 1.2745000123978
			vertex 1.9459999799728 8.693058013916 1.2745000123978
		endloop
	endfacet
	facet normal 0 0 -1
		outer loop
			vertex 0 8.4230585098267 0
			vertex 4.1350002288818 8.693058013916 0
			vertex 4.1350002288818 8.4230585098267 0
		endloop
	endfacet
	facet normal 0 1 0
		outer loop
			vertex 2.1889998912811 8.693058013916 0.27000001072884
			vertex 2.1889998912811 8.693058013916 1.2745000123978
			vertex 2.2039999961853 8.693058013916 0.27000001072884
		endloop
	endfacet
	facet normal 0 -1 0
		outer loop
			vertex 0 8.4230585098267 1.2745000123978
			vertex 2.2039999961853 8.4230585098267 0.27000001072884
			vertex 4.1350002288818 8.4230585098267 0.27000001072884
		endloop
	endfacet
	facet normal 0 1 -0
		outer loop
			vertex 2.2039999961853 8.693058013916 0.27000001072884
			vertex 2.1889998912811 8.693058013916 1.2745000123978
			vertex 3.7227442264557 8.693058013916 0.27000001072884
		endloop
	endfacet
	facet normal 1 0 -0
		outer loop
			vertex 4.1350002288818 8.693058013916 0
			vertex 4.1350002288818 8.693058013916 1.2745000123978
			vertex 4.1350002288818 8.4230585098267 0
		endloop
	endfacet
	facet normal 0 1 -0
		outer loop
			vertex 4.1350002288818 8.693058013916 0
			vertex 3.7227442264557 8.693058013916 0.27000001072884
			vertex 4.1350002288818 8.693058013916 1.2745000123978
		endloop
	endfacet
	facet normal 1 0 0
		outer loop
			vertex 4.1350002288818 8.4230585098267 0
			vertex 4.1350002288818 8.693058013916 1.2745000123978
			vertex 4.1350002288818 8.4230585098267 0.27000001072884
		endloop
	endfacet
	facet normal 0 -1 0
		outer loop
			vertex 0 8.4230585098267 1.2745000123978
			vertex 4.1350002288818 8.4230585098267 0.27000001072884
			vertex 4.1350002288818 8.4230585098267 1.2745000123978
		endloop
	endfacet
	facet normal -0 0 1
		outer loop
			vertex 1.9459999799728 8.693058013916 1.2745000123978
			vertex 4.1350002288818 8.4230585098267 1.2745000123978
			vertex 2.1889998912811 8.693058013916 1.2745000123978
		endloop
	endfacet
	facet normal 0 1 -0
		outer loop
			vertex 3.7227442264557 8.693058013916 0.27000001072884
			vertex 2.1889998912811 8.693058013916 1.2745000123978
			vertex 4.1350002288818 8.693058013916 1.2745000123978
		endloop
	endfacet
	facet normal 1 0 0
		outer loop
			vertex 4.1350002288818 8.4230585098267 0.27000001072884
			vertex 4.1350002288818 8.693058013916 1.2745000123978
			vertex 4.1350002288818 8.4230585098267 1.2745000123978
		endloop
	endfacet
	facet normal -0 0 1
		outer loop
			vertex 2.1889998912811 8.693058013916 1.2745000123978
			vertex 4.1350002288818 8.4230585098267 1.2745000123978
			vertex 4.1350002288818 8.693058013916 1.2745000123978
		endloop
	endfacet
	facet normal 0 0 -1
		outer loop
			vertex 1.8650000095367 8.8280582427979 0
			vertex 2.1889998912811 8.693058013916 0
			vertex 1.9459999799728 8.693058013916 0
		endloop
	endfacet
	facet normal -0.85749339338999 -0.51449497596431 0
		outer loop
			vertex 1.8650000095367 8.8280582427979 0
			vertex 1.9459999799728 8.693058013916 0
			vertex 1.8650000095367 8.8280582427979 1.2745000123978
		endloop
	endfacet
	facet normal -0.85749339338999 -0.51449497596431 0
		outer loop
			vertex 1.9459999799728 8.693058013916 0
			vertex 1.9459999799728 8.693058013916 0.11999999731779
			vertex 1.8650000095367 8.8280582427979 1.2745000123978
		endloop
	endfacet
	facet normal -0.85749339338999 -0.51449497596431 0
		outer loop
			vertex 1.9459999799728 8.693058013916 0.11999999731779
			vertex 1.9459999799728 8.693058013916 0.27000001072884
			vertex 1.8650000095367 8.8280582427979 1.2745000123978
		endloop
	endfacet
	facet normal 0 1 0
		outer loop
			vertex 1.8650000095367 8.8280582427979 0
			vertex 1.8650000095367 8.8280582427979 1.2745000123978
			vertex 2.2699999809265 8.8280582427979 1.2745000123978
		endloop
	endfacet
	facet normal -0.85749339338999 -0.51449497596431 0
		outer loop
			vertex 1.9459999799728 8.693058013916 0.27000001072884
			vertex 1.9459999799728 8.693058013916 1.2745000123978
			vertex 1.8650000095367 8.8280582427979 1.2745000123978
		endloop
	endfacet
	facet normal 0 0 1
		outer loop
			vertex 1.8650000095367 8.8280582427979 1.2745000123978
			vertex 1.9459999799728 8.693058013916 1.2745000123978
			vertex 2.1889998912811 8.693058013916 1.2745000123978
		endloop
	endfacet
	facet normal 0 0 -1
		outer loop
			vertex 1.8650000095367 8.8280582427979 0
			vertex 2.2699999809265 8.8280582427979 0
			vertex 2.1889998912811 8.693058013916 0
		endloop
	endfacet
	facet normal 0.85749305933469 -0.51449553272388 0
		outer loop
			vertex 2.1889998912811 8.693058013916 0
			vertex 2.2699999809265 8.8280582427979 0
			vertex 2.1889998912811 8.693058013916 0.11999999731779
		endloop
	endfacet
	facet normal 0.85749305933469 -0.51449553272388 0
		outer loop
			vertex 2.2699999809265 8.8280582427979 0
			vertex 2.1889998912811 8.693058013916 0.27000001072884
			vertex 2.1889998912811 8.693058013916 0.11999999731779
		endloop
	endfacet
	facet normal 0 1 0
		outer loop
			vertex 1.8650000095367 8.8280582427979 0
			vertex 2.2699999809265 8.8280582427979 1.2745000123978
			vertex 2.2699999809265 8.8280582427979 0
		endloop
	endfacet
	facet normal 0.85749305933469 -0.51449553272388 0
		outer loop
			vertex 2.2699999809265 8.8280582427979 0
			vertex 2.1889998912811 8.693058013916 1.2745000123978
			vertex 2.1889998912811 8.693058013916 0.27000001072884
		endloop
	endfacet
	facet normal 0.85749305933469 -0.51449553272388 0
		outer loop
			vertex 2.2699999809265 8.8280582427979 0
			vertex 2.2699999809265 8.8280582427979 1.2745000123978
			vertex 2.1889998912811 8.693058013916 1.2745000123978
		endloop
	endfacet
	facet normal -0 0 1
		outer loop
			vertex 1.8650000095367 8.8280582427979 1.2745000123978
			vertex 2.1889998912811 8.693058013916 1.2745000123978
			vertex 2.2699999809265 8.8280582427979 1.2745000123978
		endloop
	endfacet
	facet normal 0 0 -1
		outer loop
			vertex 0 8.693058013916 0
			vertex 1.9459999799728 8.693058013916 0
			vertex 0 8.4230585098267 0
		endloop
	endfacet
	facet normal 0 1 0
		outer loop
			vertex 0 8.693058013916 0
			vertex 0 8.693058013916 0.27000001072884
			vertex 1.8500000238419 8.693058013916 0.11999999731779
		endloop
	endfacet
	facet normal -1 0 0
		outer loop
			vertex 0 8.4230585098267 0
			vertex 0 1.5599582195282 0
			vertex 0 8.4230585098267 0.27000001072884
		endloop
	endfacet
	facet normal -0 0 1
		outer loop
			vertex 0 8.4230585098267 0.27000001072884
			vertex 0 1.6323044300079 0.27000001072884
			vertex 1.930999994278 8.4230585098267 0.27000001072884
		endloop
	endfacet
	facet normal 0 1 0
		outer loop
			vertex 0 8.693058013916 0
			vertex 1.8500000238419 8.693058013916 0.11999999731779
			vertex 1.9459999799728 8.693058013916 0
		endloop
	endfacet
	facet normal 0 0 -1
		outer loop
			vertex 0 8.4230585098267 0
			vertex 1.9459999799728 8.693058013916 0
			vertex 2.1889998912811 8.693058013916 0
		endloop
	endfacet
	facet normal -0 1 0
		outer loop
			vertex 0 8.693058013916 0.27000001072884
			vertex 1.930999994278 8.693058013916 0.27000001072884
			vertex 1.8500000238419 8.693058013916 0.11999999731779
		endloop
	endfacet
	facet normal 0 1 -0
		outer loop
			vertex 1.9459999799728 8.693058013916 0
			vertex 1.8500000238419 8.693058013916 0.11999999731779
			vertex 1.9459999799728 8.693058013916 0.11999999731779
		endloop
	endfacet
	facet normal -1 -0 0
		outer loop
			vertex 0 8.4230585098267 0.27000001072884
			vertex 0 1.5599582195282 0
			vertex 0 1.6323044300079 0.27000001072884
		endloop
	endfacet
	facet normal -1 0 0
		outer loop
			vertex 0 1.5599582195282 0
			vertex 0 1.5599582195282 0.27000001072884
			vertex 0 1.6323044300079 0.27000001072884
		endloop
	endfacet
	facet normal 0 0 -1
		outer loop
			vertex 0 8.4230585098267 0
			vertex 4.1350002288818 1.5599582195282 0
			vertex 0 1.5599582195282 0
		endloop
	endfacet
	facet normal 0 0 1
		outer loop
			vertex 1.930999994278 8.4230585098267 0.27000001072884
			vertex 0 1.6323044300079 0.27000001072884
			vertex 1.930999994278 1.6323044300079 0.27000001072884
		endloop
	endfacet
	facet normal 0 0 -1
		outer loop
			vertex 0 8.4230585098267 0
			vertex 2.1889998912811 8.693058013916 0
			vertex 4.1350002288818 8.693058013916 0
		endloop
	endfacet
	facet normal 0 1 0
		outer loop
			vertex 2.1889998912811 8.693058013916 0
			vertex 2.1889998912811 8.693058013916 0.11999999731779
			vertex 2.2850000858307 8.693058013916 0.11999999731779
		endloop
	endfacet
	facet normal 0 1 0
		outer loop
			vertex 2.1889998912811 8.693058013916 0
			vertex 2.2850000858307 8.693058013916 0.11999999731779
			vertex 3.7227442264557 8.693058013916 0.27000001072884
		endloop
	endfacet
	facet normal 0 1 -0
		outer loop
			vertex 2.2850000858307 8.693058013916 0.11999999731779
			vertex 2.2039999961853 8.693058013916 0.27000001072884
			vertex 3.7227442264557 8.693058013916 0.27000001072884
		endloop
	endfacet
	facet normal 0 0 -1
		outer loop
			vertex 0 8.4230585098267 0
			vertex 4.1350002288818 8.4230585098267 0
			vertex 4.1350002288818 1.5599582195282 0
		endloop
	endfacet
	facet normal -0 0 1
		outer loop
			vertex 2.2039999961853 8.4230585098267 0.27000001072884
			vertex 2.2039999961853 1.6323044300079 0.27000001072884
			vertex 4.1350002288818 8.4230585098267 0.27000001072884
		endloop
	endfacet
	facet normal 0 1 0
		outer loop
			vertex 2.1889998912811 8.693058013916 0
			vertex 3.7227442264557 8.693058013916 0.27000001072884
			vertex 4.1350002288818 8.693058013916 0
		endloop
	endfacet
	facet normal 1 0 -0
		outer loop
			vertex 4.1350002288818 8.4230585098267 0
			vertex 4.1350002288818 8.4230585098267 0.27000001072884
			vertex 4.1350002288818 1.6323044300079 0.27000001072884
		endloop
	endfacet
	facet normal 0 0 1
		outer loop
			vertex 4.1350002288818 8.4230585098267 0.27000001072884
			vertex 2.2039999961853 1.6323044300079 0.27000001072884
			vertex 4.1350002288818 1.6323044300079 0.27000001072884
		endloop
	endfacet
	facet normal 1 0 0
		outer loop
			vertex 4.1350002288818 8.4230585098267 0
			vertex 4.1350002288818 1.5599582195282 0.27000001072884
			vertex 4.1350002288818 1.5599582195282 0
		endloop
	endfacet
	facet normal 1 0 0
		outer loop
			vertex 4.1350002288818 8.4230585098267 0
			vertex 4.1350002288818 1.6323044300079 0.27000001072884
			vertex 4.1350002288818 1.5599582195282 0.27000001072884
		endloop
	endfacet
	facet normal 1.6294934783051e-08 -0.49999996719621 -0.86602542272372
		outer loop
			vertex 0 1.5599582195282 0
			vertex 0.72046160697937 0.97423672676086 0.3381664454937
			vertex 0.48355039954185 0.72423499822617 0.48250499367714
		endloop
	endfacet
	facet normal -1.6754175719653e-08 -0.50000003357332 -0.86602538440087
		outer loop
			vertex 0 1.5599582195282 0
			vertex 1.6958529949188 1.4257456064224 0.077487662434578
			vertex 1.3384881019592 1.3318637609482 0.13169038295746
		endloop
	endfacet
	facet normal 1.1583709287672e-09 -0.49999995473844 -0.86602542991621
		outer loop
			vertex 0 1.5599582195282 0
			vertex 1.3384881019592 1.3318637609482 0.13169038295746
			vertex 1.0091387033463 1.1794078350067 0.21971084177494
		endloop
	endfacet
	facet normal -2.3620282285811e-08 -0.50000000401923 -0.86602540146393
		outer loop
			vertex 0 1.5599582195282 0
			vertex 1.0091387033463 1.1794078350067 0.21971084177494
			vertex 0.72046160697937 0.97423672676086 0.3381664454937
		endloop
	endfacet
	facet normal 8.5365676630503e-09 0.50000016012706 0.86602531133502
		outer loop
			vertex 0 1.6323044300079 0.27000001072884
			vertex 1.3384881019592 1.4668637514114 0.3655172586441
			vertex 1.6958529949188 1.5607455968857 0.31131452322006
		endloop
	endfacet
	facet normal -1 0 0
		outer loop
			vertex 0 1.5599582195282 0
			vertex 0 0.27000001072884 1.0565268993378
			vertex 0 1.5599582195282 0.27000001072884
		endloop
	endfacet
	facet normal -4.269558715419e-08 -0.4999999927952 -0.86602540794413
		outer loop
			vertex 0 1.5599582195282 0
			vertex 0.48355039954185 0.72423499822617 0.48250499367714
			vertex 0.30750948190689 0.43901011347771 0.6471796631813
		endloop
	endfacet
	facet normal -1 0 0
		outer loop
			vertex 0 1.6323044300079 0.27000001072884
			vertex 0 1.5599582195282 0.27000001072884
			vertex 0 0.27000001072884 1.0565268993378
		endloop
	endfacet
	facet normal -2.289417048132e-07 -0.50000003111483 -0.86602538582025
		outer loop
			vertex 0 1.5599582195282 0
			vertex 0.30750948190689 0.43901011347771 0.6471796631813
			vertex 0.20102247595787 0.13500000536442 0.82270002365112
		endloop
	endfacet
	facet normal 0 -0.5000000068918 -0.86602539980545
		outer loop
			vertex 0 1.5599582195282 0
			vertex 0.20102247595787 0.13500000536442 0.82270002365112
			vertex 0 0.13500000536442 0.82270002365112
		endloop
	endfacet
	facet normal -1 0 0
		outer loop
			vertex 0 1.5599582195282 0
			vertex 0 0.13500000536442 0.82270002365112
			vertex 0 0.27000001072884 1.0565268993378
		endloop
	endfacet
	facet normal 2.8760175581541e-08 0.5000000245806 0.86602538959282
		outer loop
			vertex 0 1.6323044300079 0.27000001072884
			vertex 0.48355039954185 0.85923504829407 0.71633183956146
			vertex 0.72046160697937 1.1092367172241 0.57199329137802
		endloop
	endfacet
	facet normal 3.2353438762691e-08 0.50000002626628 0.8660253886196
		outer loop
			vertex 0 1.6323044300079 0.27000001072884
			vertex 0.30750948190689 0.57401013374329 0.88100653886795
			vertex 0.48355039954185 0.85923504829407 0.71633183956146
		endloop
	endfacet
	facet normal -6.2725987590077e-09 0.49999998839059 0.86602541048713
		outer loop
			vertex 0 1.6323044300079 0.27000001072884
			vertex 0.72046160697937 1.1092367172241 0.57199329137802
			vertex 1.0091387033463 1.31440782547 0.45353770256042
		endloop
	endfacet
	facet normal -2.8479458665349e-08 0.49999993552009 0.86602544101193
		outer loop
			vertex 0 1.6323044300079 0.27000001072884
			vertex 1.0091387033463 1.31440782547 0.45353770256042
			vertex 1.3384881019592 1.4668637514114 0.3655172586441
		endloop
	endfacet
	facet normal -1.1033230005366e-08 -0.49999997935775 -0.86602541570225
		outer loop
			vertex 0 1.5599582195282 0
			vertex 2.0675001144409 1.4574456214905 0.059185646474361
			vertex 1.6958529949188 1.4257456064224 0.077487662434578
		endloop
	endfacet
	facet normal -0 0.50000000839775 0.86602539893599
		outer loop
			vertex 0 1.6323044300079 0.27000001072884
			vertex 1.6958529949188 1.5607455968857 0.31131452322006
			vertex 1.930999994278 1.6323044300079 0.27000001072884
		endloop
	endfacet
	facet normal 3.4864205905016e-08 0.49999992247321 0.86602544854455
		outer loop
			vertex 1.930999994278 1.6323044300079 0.27000001072884
			vertex 1.6958529949188 1.5607455968857 0.31131452322006
			vertex 2.0675001144409 1.5924456119537 0.29301249980927
		endloop
	endfacet
	facet normal 5.4950858148368e-08 0.50000003119089 0.86602538577637
		outer loop
			vertex 0 1.6323044300079 0.27000001072884
			vertex 0 0.27000001072884 1.0565268993378
			vertex 0.30750948190689 0.57401013374329 0.88100653886795
		endloop
	endfacet
	facet normal 0 -0.86602541061166 0.4999999881749
		outer loop
			vertex 0 0.13500000536442 0.82270002365112
			vertex 0.20102247595787 0.13500000536442 0.82270002365112
			vertex 0.20102247595787 0.27000001072884 1.0565268993378
		endloop
	endfacet
	facet normal 0 -0.86602541061166 0.4999999881749
		outer loop
			vertex 0 0.13500000536442 0.82270002365112
			vertex 0.20102247595787 0.27000001072884 1.0565268993378
			vertex 0 0.27000001072884 1.0565268993378
		endloop
	endfacet
	facet normal -0 0.50000007287842 0.86602536170806
		outer loop
			vertex 0 0.27000001072884 1.0565268993378
			vertex 0.20102247595787 0.27000001072884 1.0565268993378
			vertex 0.30750948190689 0.57401013374329 0.88100653886795
		endloop
	endfacet
	facet normal 0 -0.49999981246698 -0.86602551205665
		outer loop
			vertex 0 1.5599582195282 0
			vertex 4.1350002288818 1.5599582195282 0
			vertex 2.0675001144409 1.4574456214905 0.059185646474361
		endloop
	endfacet
	facet normal -0 0.49999983292648 0.86602550024436
		outer loop
			vertex 1.930999994278 1.6323044300079 0.27000001072884
			vertex 2.0675001144409 1.5924456119537 0.29301249980927
			vertex 2.2039999961853 1.6323044300079 0.27000001072884
		endloop
	endfacet
	facet normal -3.4864236981431e-08 0.49999992247313 0.86602544854459
		outer loop
			vertex 2.2039999961853 1.6323044300079 0.27000001072884
			vertex 2.0675001144409 1.5924456119537 0.29301249980927
			vertex 2.4391469955444 1.5607455968857 0.31131452322006
		endloop
	endfacet
	facet normal 1.1033232607321e-08 -0.49999997935779 -0.86602541570222
		outer loop
			vertex 4.1350002288818 1.5599582195282 0
			vertex 2.4391469955444 1.4257456064224 0.077487662434578
			vertex 2.0675001144409 1.4574456214905 0.059185646474361
		endloop
	endfacet
	facet normal -0 0.50000000839775 0.86602539893599
		outer loop
			vertex 2.2039999961853 1.6323044300079 0.27000001072884
			vertex 2.4391469955444 1.5607455968857 0.31131452322006
			vertex 4.1350002288818 1.6323044300079 0.27000001072884
		endloop
	endfacet
	facet normal 1.6754173909513e-08 -0.50000003357332 -0.86602538440087
		outer loop
			vertex 4.1350002288818 1.5599582195282 0
			vertex 2.796511888504 1.3318637609482 0.13169038295746
			vertex 2.4391469955444 1.4257456064224 0.077487662434578
		endloop
	endfacet
	facet normal -1.1583706651337e-09 -0.49999995473844 -0.86602542991621
		outer loop
			vertex 4.1350002288818 1.5599582195282 0
			vertex 3.1258614063263 1.1794078350067 0.21971084177494
			vertex 2.796511888504 1.3318637609482 0.13169038295746
		endloop
	endfacet
	facet normal -8.5365666289937e-09 0.50000016012707 0.86602531133501
		outer loop
			vertex 4.1350002288818 1.6323044300079 0.27000001072884
			vertex 2.4391469955444 1.5607455968857 0.31131452322006
			vertex 2.796511888504 1.4668637514114 0.3655172586441
		endloop
	endfacet
	facet normal 2.36202838441e-08 -0.50000000401924 -0.86602540146393
		outer loop
			vertex 4.1350002288818 1.5599582195282 0
			vertex 3.4145383834839 0.97423672676086 0.3381664454937
			vertex 3.1258614063263 1.1794078350067 0.21971084177494
		endloop
	endfacet
	facet normal -1.6294929061204e-08 -0.49999996719621 -0.86602542272372
		outer loop
			vertex 4.1350002288818 1.5599582195282 0
			vertex 3.6514496803284 0.72423499822617 0.48250499367714
			vertex 3.4145383834839 0.97423672676086 0.3381664454937
		endloop
	endfacet
	facet normal 2.8479452489117e-08 0.4999999355201 0.86602544101192
		outer loop
			vertex 4.1350002288818 1.6323044300079 0.27000001072884
			vertex 2.796511888504 1.4668637514114 0.3655172586441
			vertex 3.1258614063263 1.31440782547 0.45353770256042
		endloop
	endfacet
	facet normal 6.2725990410905e-09 0.49999998839059 0.86602541048713
		outer loop
			vertex 4.1350002288818 1.6323044300079 0.27000001072884
			vertex 3.1258614063263 1.31440782547 0.45353770256042
			vertex 3.4145383834839 1.1092367172241 0.57199329137802
		endloop
	endfacet
	facet normal 4.269558451864e-08 -0.4999999927952 -0.86602540794413
		outer loop
			vertex 4.1350002288818 1.5599582195282 0
			vertex 3.827490568161 0.43901011347771 0.6471796631813
			vertex 3.6514496803284 0.72423499822617 0.48250499367714
		endloop
	endfacet
	facet normal 1 0 -0
		outer loop
			vertex 4.1350002288818 1.5599582195282 0
			vertex 4.1350002288818 1.5599582195282 0.27000001072884
			vertex 4.1350002288818 0.13500000536442 0.82270002365112
		endloop
	endfacet
	facet normal 1 0 0
		outer loop
			vertex 4.1350002288818 1.6323044300079 0.27000001072884
			vertex 4.1350002288818 0.13500000536442 0.82270002365112
			vertex 4.1350002288818 1.5599582195282 0.27000001072884
		endloop
	endfacet
	facet normal -2.8760165519464e-08 0.5000000245806 0.86602538959282
		outer loop
			vertex 4.1350002288818 1.6323044300079 0.27000001072884
			vertex 3.4145383834839 1.1092367172241 0.57199329137802
			vertex 3.6514496803284 0.85923504829407 0.71633183956146
		endloop
	endfacet
	facet normal -3.2353436464691e-08 0.50000002626628 0.86602538861959
		outer loop
			vertex 4.1350002288818 1.6323044300079 0.27000001072884
			vertex 3.6514496803284 0.85923504829407 0.71633183956146
			vertex 3.827490568161 0.57401013374329 0.88100653886795
		endloop
	endfacet
	facet normal 1.1120967574641e-07 -0.5000000068918 -0.86602539980545
		outer loop
			vertex 4.1350002288818 1.5599582195282 0
			vertex 4.1350002288818 0.13500000536442 0.82270002365112
			vertex 3.827490568161 0.43901011347771 0.6471796631813
		endloop
	endfacet
	facet normal 1 0 0
		outer loop
			vertex 4.1350002288818 1.6323044300079 0.27000001072884
			vertex 4.1350002288818 0.27000001072884 1.0565268993378
			vertex 4.1350002288818 0.13500000536442 0.82270002365112
		endloop
	endfacet
	facet normal -1.1165012175221e-07 0.50000004354727 0.8660253786424
		outer loop
			vertex 4.1350002288818 1.6323044300079 0.27000001072884
			vertex 3.827490568161 0.57401013374329 0.88100653886795
			vertex 3.9339776039124 0.27000001072884 1.0565268993378
		endloop
	endfacet
	facet normal 0 0.50000003119089 0.86602538577637
		outer loop
			vertex 4.1350002288818 1.6323044300079 0.27000001072884
			vertex 3.9339776039124 0.27000001072884 1.0565268993378
			vertex 4.1350002288818 0.27000001072884 1.0565268993378
		endloop
	endfacet
	facet normal -0 -0.50000009125918 -0.86602535109592
		outer loop
			vertex 4.1350002288818 0.13500000536442 0.82270002365112
			vertex 3.9339776039124 0.13500000536442 0.82270002365112
			vertex 3.827490568161 0.43901011347771 0.6471796631813
		endloop
	endfacet
	facet normal 0 -0.86602541061166 0.4999999881749
		outer loop
			vertex 4.1350002288818 0.13500000536442 0.82270002365112
			vertex 4.1350002288818 0.27000001072884 1.0565268993378
			vertex 3.9339776039124 0.13500000536442 0.82270002365112
		endloop
	endfacet
	facet normal 0 -0.86602541061166 0.4999999881749
		outer loop
			vertex 4.1350002288818 0.27000001072884 1.0565268993378
			vertex 3.9339776039124 0.27000001072884 1.0565268993378
			vertex 3.9339776039124 0.13500000536442 0.82270002365112
		endloop
	endfacet
	facet normal 0.87990548792387 0 -0.47514874757434
		outer loop
			vertex 1.8500000238419 8.693058013916 0.11999999731779
			vertex 1.930999994278 8.693058013916 0.27000001072884
			vertex 1.930999994278 8.4230585098267 0.27000001072884
		endloop
	endfacet
	facet normal 0 -1 0
		outer loop
			vertex 1.9459999799728 8.693058013916 0.11999999731779
			vertex 2.1889998912811 8.693058013916 0.11999999731779
			vertex 1.9459999799728 8.693058013916 0.27000001072884
		endloop
	endfacet
	facet normal 0 0 -1
		outer loop
			vertex 1.930999994278 8.693058013916 0.27000001072884
			vertex 1.9459999799728 8.693058013916 0.27000001072884
			vertex 2.2039999961853 8.4230585098267 0.27000001072884
		endloop
	endfacet
	facet normal 0 0 -1
		outer loop
			vertex 1.930999994278 8.693058013916 0.27000001072884
			vertex 2.2039999961853 8.4230585098267 0.27000001072884
			vertex 1.930999994278 8.4230585098267 0.27000001072884
		endloop
	endfacet
	facet normal -0 0 1
		outer loop
			vertex 1.8500000238419 8.693058013916 0.11999999731779
			vertex 2.0675001144409 1.492556810379 0.11999999731779
			vertex 1.9459999799728 8.693058013916 0.11999999731779
		endloop
	endfacet
	facet normal -0 0 1
		outer loop
			vertex 1.9459999799728 8.693058013916 0.11999999731779
			vertex 2.0675001144409 1.492556810379 0.11999999731779
			vertex 2.1889998912811 8.693058013916 0.11999999731779
		endloop
	endfacet
	facet normal 0.87990548792387 0 -0.47514874757434
		outer loop
			vertex 1.8500000238419 8.693058013916 0.11999999731779
			vertex 1.930999994278 8.4230585098267 0.27000001072884
			vertex 1.930999994278 1.6323044300079 0.27000001072884
		endloop
	endfacet
	facet normal 0 0 1
		outer loop
			vertex 1.8500000238419 8.693058013916 0.11999999731779
			vertex 1.8500000238419 1.4678210020065 0.11999999731779
			vertex 2.0675001144409 1.492556810379 0.11999999731779
		endloop
	endfacet
	facet normal 0.87990548792387 0 -0.47514874757434
		outer loop
			vertex 1.8500000238419 8.693058013916 0.11999999731779
			vertex 1.930999994278 1.6323044300079 0.27000001072884
			vertex 1.8500000238419 1.4678210020065 0.11999999731779
		endloop
	endfacet
	facet normal 0.87990548792387 0 -0.47514874757434
		outer loop
			vertex 1.930999994278 1.6323044300079 0.27000001072884
			vertex 1.930999994278 1.563635468483 0.27000001072884
			vertex 1.8500000238419 1.4678210020065 0.11999999731779
		endloop
	endfacet
	facet normal 0 0 -1
		outer loop
			vertex 1.930999994278 1.6323044300079 0.27000001072884
			vertex 2.0675001144409 1.5791593790054 0.27000001072884
			vertex 1.930999994278 1.563635468483 0.27000001072884
		endloop
	endfacet
	facet normal 0 -1 0
		outer loop
			vertex 1.9459999799728 8.693058013916 0.27000001072884
			vertex 2.1889998912811 8.693058013916 0.11999999731779
			vertex 2.1889998912811 8.693058013916 0.27000001072884
		endloop
	endfacet
	facet normal -0.87990519556212 0 -0.47514928898483
		outer loop
			vertex 2.2850000858307 8.693058013916 0.11999999731779
			vertex 2.2039999961853 8.4230585098267 0.27000001072884
			vertex 2.2039999961853 8.693058013916 0.27000001072884
		endloop
	endfacet
	facet normal 0 0 -1
		outer loop
			vertex 1.9459999799728 8.693058013916 0.27000001072884
			vertex 2.1889998912811 8.693058013916 0.27000001072884
			vertex 2.2039999961853 8.4230585098267 0.27000001072884
		endloop
	endfacet
	facet normal 0 0 -1
		outer loop
			vertex 2.1889998912811 8.693058013916 0.27000001072884
			vertex 2.2039999961853 8.693058013916 0.27000001072884
			vertex 2.2039999961853 8.4230585098267 0.27000001072884
		endloop
	endfacet
	facet normal -0 0 1
		outer loop
			vertex 2.1889998912811 8.693058013916 0.11999999731779
			vertex 2.0675001144409 1.492556810379 0.11999999731779
			vertex 2.2850000858307 8.693058013916 0.11999999731779
		endloop
	endfacet
	facet normal -0.87990519556212 0 -0.47514928898483
		outer loop
			vertex 2.2850000858307 8.693058013916 0.11999999731779
			vertex 2.2039999961853 1.6323044300079 0.27000001072884
			vertex 2.2039999961853 8.4230585098267 0.27000001072884
		endloop
	endfacet
	facet normal 0 0 1
		outer loop
			vertex 2.2850000858307 8.693058013916 0.11999999731779
			vertex 2.0675001144409 1.492556810379 0.11999999731779
			vertex 2.2850000858307 1.4678210020065 0.11999999731779
		endloop
	endfacet
	facet normal -0.87990519556212 0 -0.47514928898483
		outer loop
			vertex 2.2850000858307 8.693058013916 0.11999999731779
			vertex 2.2039999961853 1.563635468483 0.27000001072884
			vertex 2.2039999961853 1.6323044300079 0.27000001072884
		endloop
	endfacet
	facet normal -0.87990519556212 -0 -0.47514928898483
		outer loop
			vertex 2.2850000858307 8.693058013916 0.11999999731779
			vertex 2.2850000858307 1.4678210020065 0.11999999731779
			vertex 2.2039999961853 1.563635468483 0.27000001072884
		endloop
	endfacet
	facet normal 0 0 -1
		outer loop
			vertex 1.930999994278 1.6323044300079 0.27000001072884
			vertex 2.2039999961853 1.6323044300079 0.27000001072884
			vertex 2.0675001144409 1.5791593790054 0.27000001072884
		endloop
	endfacet
	facet normal 0 -0 -1
		outer loop
			vertex 2.2039999961853 1.6323044300079 0.27000001072884
			vertex 2.2039999961853 1.563635468483 0.27000001072884
			vertex 2.0675001144409 1.5791593790054 0.27000001072884
		endloop
	endfacet
	facet normal 0.88192122790219 -0.40824156481747 0.23569847799864
		outer loop
			vertex 0.48355039954185 0.72423499822617 0.48250499367714
			vertex 0.48355039954185 0.85923504829407 0.71633183956146
			vertex 0.30750948190689 0.43901011347771 0.6471796631813
		endloop
	endfacet
	facet normal 0.77301043232519 -0.54940072426173 0.31719665145948
		outer loop
			vertex 0.48355039954185 0.72423499822617 0.48250499367714
			vertex 0.72046160697937 0.97423672676086 0.3381664454937
			vertex 0.72046160697937 1.1092367172241 0.57199329137802
		endloop
	endfacet
	facet normal 0.63439332150423 -0.66944667654924 0.3865051886948
		outer loop
			vertex 0.72046160697937 0.97423672676086 0.3381664454937
			vertex 1.0091387033463 1.1794078350067 0.21971084177494
			vertex 1.0091387033463 1.31440782547 0.45353770256042
		endloop
	endfacet
	facet normal 0.63439330958265 -0.66944667435674 0.3865052120599
		outer loop
			vertex 0.72046160697937 0.97423672676086 0.3381664454937
			vertex 1.0091387033463 1.31440782547 0.45353770256042
			vertex 0.72046160697937 1.1092367172241 0.57199329137802
		endloop
	endfacet
	facet normal 0.77301037669623 -0.54940072232216 0.31719679038704
		outer loop
			vertex 0.48355039954185 0.72423499822617 0.48250499367714
			vertex 0.72046160697937 1.1092367172241 0.57199329137802
			vertex 0.48355039954185 0.85923504829407 0.71633183956146
		endloop
	endfacet
	facet normal 0.47139676401434 -0.76376623357488 0.44096057797455
		outer loop
			vertex 1.3384881019592 1.3318637609482 0.13169038295746
			vertex 1.3384881019592 1.4668637514114 0.3655172586441
			vertex 1.0091387033463 1.1794078350067 0.21971084177494
		endloop
	endfacet
	facet normal 0.29028461774111 -0.82873468568657 0.47847012596699
		outer loop
			vertex 1.3384881019592 1.3318637609482 0.13169038295746
			vertex 1.6958529949188 1.5607455968857 0.31131452322006
			vertex 1.3384881019592 1.4668637514114 0.3655172586441
		endloop
	endfacet
	facet normal 0.098016827424207 -0.86185454398574 0.49759365606168
		outer loop
			vertex 1.8500000238419 1.4678210020065 0.11999999731779
			vertex 1.6958529949188 1.4257456064224 0.077487662434578
			vertex 2.0675001144409 1.492556810379 0.11999999731779
		endloop
	endfacet
	facet normal 0.098017087219812 -0.86185521597113 0.49759244097585
		outer loop
			vertex 1.6958529949188 1.4257456064224 0.077487662434578
			vertex 2.0675001144409 1.4574456214905 0.059185646474361
			vertex 2.0675001144409 1.492556810379 0.11999999731779
		endloop
	endfacet
	facet normal 0.29028459947135 -0.82873467728289 0.47847015160675
		outer loop
			vertex 1.3384881019592 1.3318637609482 0.13169038295746
			vertex 1.6958529949188 1.4257456064224 0.077487662434578
			vertex 1.6958529949188 1.5607455968857 0.31131452322006
		endloop
	endfacet
	facet normal 0.09801738819624 -0.86185525046041 0.49759232195143
		outer loop
			vertex 1.8500000238419 1.4678210020065 0.11999999731779
			vertex 1.6958529949188 1.5607455968857 0.31131452322006
			vertex 1.6958529949188 1.4257456064224 0.077487662434578
		endloop
	endfacet
	facet normal 0.098017107807215 -0.86185537723136 0.49759215760952
		outer loop
			vertex 1.8500000238419 1.4678210020065 0.11999999731779
			vertex 1.930999994278 1.563635468483 0.27000001072884
			vertex 1.6958529949188 1.5607455968857 0.31131452322006
		endloop
	endfacet
	facet normal 0.098017097099424 -0.86185541516766 0.49759209401113
		outer loop
			vertex 1.930999994278 1.563635468483 0.27000001072884
			vertex 2.0675001144409 1.5924456119537 0.29301249980927
			vertex 1.6958529949188 1.5607455968857 0.31131452322006
		endloop
	endfacet
	facet normal 0.098017292252199 -0.86185579020927 0.49759140597714
		outer loop
			vertex 2.0675001144409 1.5924456119537 0.29301249980927
			vertex 1.930999994278 1.563635468483 0.27000001072884
			vertex 2.0675001144409 1.5791593790054 0.27000001072884
		endloop
	endfacet
	facet normal 0.47139674849681 -0.76376622858976 0.44096060319763
		outer loop
			vertex 1.0091387033463 1.1794078350067 0.21971084177494
			vertex 1.3384881019592 1.4668637514114 0.3655172586441
			vertex 1.0091387033463 1.31440782547 0.45353770256042
		endloop
	endfacet
	facet normal 0.88192125212671 -0.40824156110716 0.23569839378334
		outer loop
			vertex 0.30750948190689 0.43901011347771 0.6471796631813
			vertex 0.48355039954185 0.85923504829407 0.71633183956146
			vertex 0.30750948190689 0.57401013374329 0.88100653886795
		endloop
	endfacet
	facet normal 0.95694034566977 -0.25139387150564 0.1451423308302
		outer loop
			vertex 0.20102247595787 0.13500000536442 0.82270002365112
			vertex 0.30750948190689 0.43901011347771 0.6471796631813
			vertex 0.30750948190689 0.57401013374329 0.88100653886795
		endloop
	endfacet
	facet normal 0.9569403486341 -0.25139386997992 0.14514231392867
		outer loop
			vertex 0.20102247595787 0.13500000536442 0.82270002365112
			vertex 0.30750948190689 0.57401013374329 0.88100653886795
			vertex 0.20102247595787 0.27000001072884 1.0565268993378
		endloop
	endfacet
	facet normal -0.098016958815187 -0.86185522692352 0.49759244729922
		outer loop
			vertex 2.2850000858307 1.4678210020065 0.11999999731779
			vertex 2.0675001144409 1.492556810379 0.11999999731779
			vertex 2.0675001144409 1.4574456214905 0.059185646474361
		endloop
	endfacet
	facet normal -0.098017149495512 -0.86185484875706 0.49759306474138
		outer loop
			vertex 2.2850000858307 1.4678210020065 0.11999999731779
			vertex 2.0675001144409 1.4574456214905 0.059185646474361
			vertex 2.4391469955444 1.4257456064224 0.077487662434578
		endloop
	endfacet
	facet normal -0.098017098897068 -0.86185540879884 0.49759210468815
		outer loop
			vertex 2.2850000858307 1.4678210020065 0.11999999731779
			vertex 2.4391469955444 1.5607455968857 0.31131452322006
			vertex 2.2039999961853 1.563635468483 0.27000001072884
		endloop
	endfacet
	facet normal -0.098017461810049 -0.86185577574661 0.49759139762714
		outer loop
			vertex 2.2039999961853 1.563635468483 0.27000001072884
			vertex 2.0675001144409 1.5924456119537 0.29301249980927
			vertex 2.0675001144409 1.5791593790054 0.27000001072884
		endloop
	endfacet
	facet normal -0.098017159375171 -0.8618551945328 0.49759246389476
		outer loop
			vertex 2.2039999961853 1.563635468483 0.27000001072884
			vertex 2.4391469955444 1.5607455968857 0.31131452322006
			vertex 2.0675001144409 1.5924456119537 0.29301249980927
		endloop
	endfacet
	facet normal -0.098017463269587 -0.86185524405693 0.49759231825438
		outer loop
			vertex 2.2850000858307 1.4678210020065 0.11999999731779
			vertex 2.4391469955444 1.4257456064224 0.077487662434578
			vertex 2.4391469955444 1.5607455968857 0.31131452322006
		endloop
	endfacet
	facet normal -0.29028461774111 -0.82873467248332 0.47847014883571
		outer loop
			vertex 2.4391469955444 1.4257456064224 0.077487662434578
			vertex 2.796511888504 1.4668637514114 0.3655172586441
			vertex 2.4391469955444 1.5607455968857 0.31131452322006
		endloop
	endfacet
	facet normal -0.29028459947135 -0.82873469048615 0.47847012873803
		outer loop
			vertex 2.4391469955444 1.4257456064224 0.077487662434578
			vertex 2.796511888504 1.3318637609482 0.13169038295746
			vertex 2.796511888504 1.4668637514114 0.3655172586441
		endloop
	endfacet
	facet normal -0.47139661578813 -0.76376630218882 0.44096061758882
		outer loop
			vertex 2.796511888504 1.3318637609482 0.13169038295746
			vertex 3.1258614063263 1.31440782547 0.45353770256042
			vertex 2.796511888504 1.4668637514114 0.3655172586441
		endloop
	endfacet
	facet normal -0.47139663130566 -0.76376628283756 0.44096063451761
		outer loop
			vertex 2.796511888504 1.3318637609482 0.13169038295746
			vertex 3.1258614063263 1.1794078350067 0.21971084177494
			vertex 3.1258614063263 1.31440782547 0.45353770256042
		endloop
	endfacet
	facet normal -0.63439347804489 -0.66944655462576 0.38650514293319
		outer loop
			vertex 3.1258614063263 1.1794078350067 0.21971084177494
			vertex 3.4145383834839 0.97423672676086 0.3381664454937
			vertex 3.4145383834839 1.1092367172241 0.57199329137802
		endloop
	endfacet
	facet normal -0.63439346612331 -0.66944657376429 0.38650512935188
		outer loop
			vertex 3.1258614063263 1.1794078350067 0.21971084177494
			vertex 3.4145383834839 1.1092367172241 0.57199329137802
			vertex 3.1258614063263 1.31440782547 0.45353770256042
		endloop
	endfacet
	facet normal -0.77301031491973 -0.54940078751209 0.31719682802448
		outer loop
			vertex 3.4145383834839 0.97423672676086 0.3381664454937
			vertex 3.6514496803284 0.72423499822617 0.48250499367714
			vertex 3.6514496803284 0.85923504829407 0.71633183956146
		endloop
	endfacet
	facet normal -0.77301025929075 -0.54940090685712 0.31719675688098
		outer loop
			vertex 3.4145383834839 0.97423672676086 0.3381664454937
			vertex 3.6514496803284 0.85923504829407 0.71633183956146
			vertex 3.4145383834839 1.1092367172241 0.57199329137802
		endloop
	endfacet
	facet normal -0.88192128530389 -0.40824147181414 0.23569842430311
		outer loop
			vertex 3.6514496803284 0.72423499822617 0.48250499367714
			vertex 3.827490568161 0.57401013374329 0.88100653886795
			vertex 3.6514496803284 0.85923504829407 0.71633183956146
		endloop
	endfacet
	facet normal -0.88192126107938 -0.40824154660187 0.23569838540871
		outer loop
			vertex 3.6514496803284 0.72423499822617 0.48250499367714
			vertex 3.827490568161 0.43901011347771 0.6471796631813
			vertex 3.827490568161 0.57401013374329 0.88100653886795
		endloop
	endfacet
	facet normal -0.95694032606644 -0.25139392747125 0.14514236314196
		outer loop
			vertex 3.827490568161 0.43901011347771 0.6471796631813
			vertex 3.9339776039124 0.27000001072884 1.0565268993378
			vertex 3.827490568161 0.57401013374329 0.88100653886795
		endloop
	endfacet
	facet normal -0.95694032310211 -0.25139394287127 0.14514235601251
		outer loop
			vertex 3.9339776039124 0.27000001072884 1.0565268993378
			vertex 3.827490568161 0.43901011347771 0.6471796631813
			vertex 3.9339776039124 0.13500000536442 0.82270002365112
		endloop
	endfacet
endsolid