solid csg_export
	facet normal 0 1 0
		outer loop
			vertex 0 14.472637176514 0
			vertex 0 14.472637176514 0.43999999761581
			vertex 2.4113981723785 14.472637176514 0.43999999761581
		endloop
	endfacet
	facet normal -1 0 0
		outer loop
			vertex 0 14.472637176514 0.43999999761581
			vertex 0 14.032636642456 0.43999999761581
			vertex 0 14.472637176514 2.1159000396729
		endloop
	endfacet
	facet normal 0 1 0
		outer loop
			vertex 0 14.472637176514 0.43999999761581
			vertex 0 14.472637176514 2.1159000396729
			vertex 2.4113981723785 14.472637176514 0.43999999761581
		endloop
	endfacet
	facet normal 0 -1 0
		outer loop
			vertex 0 14.032636642456 0.43999999761581
			vertex 3.0295000076294 14.032636642456 0.43999999761581
			vertex 0 14.032636642456 2.1159000396729
		endloop
	endfacet
	facet normal 0 1 0
		outer loop
			vertex 0 14.472637176514 0
			vertex 2.4113981723785 14.472637176514 0.43999999761581
			vertex 2.6722812652588 14.472637176514 0.25868871808052
		endloop
	endfacet
	facet normal 0 -1 0
		outer loop
			vertex 3.0295000076294 14.032636642456 0.43999999761581
			vertex 3.4554998874664 14.032636642456 0.43999999761581
			vertex 0 14.032636642456 2.1159000396729
		endloop
	endfacet
	facet normal 0 1 0
		outer loop
			vertex 2.4113981723785 14.472637176514 0.43999999761581
			vertex 3.0445001125336 14.472637176514 2.1159000396729
			vertex 3.0295000076294 14.472637176514 0.43999999761581
		endloop
	endfacet
	facet normal 0 1 0
		outer loop
			vertex 3.0295000076294 14.472637176514 0.43999999761581
			vertex 3.0445001125336 14.472637176514 2.1159000396729
			vertex 3.0445001125336 14.472637176514 0.43999999761581
		endloop
	endfacet
	facet normal -1 0 0
		outer loop
			vertex 0 14.032636642456 0.43999999761581
			vertex 0 14.032636642456 2.1159000396729
			vertex 0 14.472637176514 2.1159000396729
		endloop
	endfacet
	facet normal 0 1 -0
		outer loop
			vertex 2.4113981723785 14.472637176514 0.43999999761581
			vertex 0 14.472637176514 2.1159000396729
			vertex 3.0445001125336 14.472637176514 2.1159000396729
		endloop
	endfacet
	facet normal 0 0 1
		outer loop
			vertex 0 14.472637176514 2.1159000396729
			vertex 0 14.032636642456 2.1159000396729
			vertex 6.4850001335144 14.032636642456 2.1159000396729
		endloop
	endfacet
	facet normal -0 0 1
		outer loop
			vertex 0 14.472637176514 2.1159000396729
			vertex 6.4850001335144 14.032636642456 2.1159000396729
			vertex 3.0445001125336 14.472637176514 2.1159000396729
		endloop
	endfacet
	facet normal -0 1 0
		outer loop
			vertex 3.4635796546936 14.472637176514 0.20499999821186
			vertex 3.5875000953674 14.472637176514 0.20499999821186
			vertex 6.4850001335144 14.472637176514 0
		endloop
	endfacet
	facet normal 0 1 -0
		outer loop
			vertex 3.5875000953674 14.472637176514 0.20499999821186
			vertex 3.5790848731995 14.472637176514 0.21998155117035
			vertex 5.8518981933594 14.472637176514 0.43999999761581
		endloop
	endfacet
	facet normal 0 -1 0
		outer loop
			vertex 0 14.032636642456 2.1159000396729
			vertex 3.4554998874664 14.032636642456 0.43999999761581
			vertex 6.4850001335144 14.032636642456 0.43999999761581
		endloop
	endfacet
	facet normal 0 1 0
		outer loop
			vertex 3.4405000209808 14.472637176514 0.43999999761581
			vertex 3.4405000209808 14.472637176514 2.1159000396729
			vertex 3.4554998874664 14.472637176514 0.43999999761581
		endloop
	endfacet
	facet normal 0 1 -0
		outer loop
			vertex 3.4554998874664 14.472637176514 0.43999999761581
			vertex 3.4405000209808 14.472637176514 2.1159000396729
			vertex 5.8518981933594 14.472637176514 0.43999999761581
		endloop
	endfacet
	facet normal -0 1 0
		outer loop
			vertex 3.5875000953674 14.472637176514 0.20499999821186
			vertex 5.8518981933594 14.472637176514 0.43999999761581
			vertex 6.4850001335144 14.472637176514 0
		endloop
	endfacet
	facet normal 1 0 0
		outer loop
			vertex 6.4850001335144 14.121578216553 0.42770674824715
			vertex 6.4850001335144 14.135925292969 0.43999999761581
			vertex 6.4850001335144 14.124135017395 0.43999999761581
		endloop
	endfacet
	facet normal 0 1 0
		outer loop
			vertex 5.8518981933594 14.472637176514 0.43999999761581
			vertex 6.4850001335144 14.472637176514 2.1159000396729
			vertex 6.4850001335144 14.472637176514 0.43999999761581
		endloop
	endfacet
	facet normal 1 0 -0
		outer loop
			vertex 6.4850001335144 14.472637176514 0.43999999761581
			vertex 6.4850001335144 14.472637176514 2.1159000396729
			vertex 6.4850001335144 14.135925292969 0.43999999761581
		endloop
	endfacet
	facet normal 1 0 -0
		outer loop
			vertex 6.4850001335144 14.135925292969 0.43999999761581
			vertex 6.4850001335144 14.472637176514 2.1159000396729
			vertex 6.4850001335144 14.124135017395 0.43999999761581
		endloop
	endfacet
	facet normal 1 0 0
		outer loop
			vertex 6.4850001335144 14.124135017395 0.43999999761581
			vertex 6.4850001335144 14.032636642456 2.1159000396729
			vertex 6.4850001335144 14.032636642456 0.43999999761581
		endloop
	endfacet
	facet normal 0 -1 0
		outer loop
			vertex 0 14.032636642456 2.1159000396729
			vertex 6.4850001335144 14.032636642456 0.43999999761581
			vertex 6.4850001335144 14.032636642456 2.1159000396729
		endloop
	endfacet
	facet normal -0 0 1
		outer loop
			vertex 3.0445001125336 14.472637176514 2.1159000396729
			vertex 6.4850001335144 14.032636642456 2.1159000396729
			vertex 3.4405000209808 14.472637176514 2.1159000396729
		endloop
	endfacet
	facet normal 0 1 -0
		outer loop
			vertex 5.8518981933594 14.472637176514 0.43999999761581
			vertex 3.4405000209808 14.472637176514 2.1159000396729
			vertex 6.4850001335144 14.472637176514 2.1159000396729
		endloop
	endfacet
	facet normal 1 0 -0
		outer loop
			vertex 6.4850001335144 14.124135017395 0.43999999761581
			vertex 6.4850001335144 14.472637176514 2.1159000396729
			vertex 6.4850001335144 14.032636642456 2.1159000396729
		endloop
	endfacet
	facet normal -0 0 1
		outer loop
			vertex 3.4405000209808 14.472637176514 2.1159000396729
			vertex 6.4850001335144 14.032636642456 2.1159000396729
			vertex 6.4850001335144 14.472637176514 2.1159000396729
		endloop
	endfacet
	facet normal 0 0 -1
		outer loop
			vertex 2.9124999046326 14.692637443542 0
			vertex 3.4405000209808 14.472637176514 0
			vertex 3.0445001125336 14.472637176514 0
		endloop
	endfacet
	facet normal -0.85749284371709 -0.5144958920866 0
		outer loop
			vertex 2.9124999046326 14.692637443542 0
			vertex 3.0445001125336 14.472637176514 0
			vertex 2.9124999046326 14.692637443542 2.1159000396729
		endloop
	endfacet
	facet normal -0.85749284371709 -0.5144958920866 0
		outer loop
			vertex 3.0445001125336 14.472637176514 0
			vertex 3.0445001125336 14.472637176514 0.20499999821186
			vertex 2.9124999046326 14.692637443542 2.1159000396729
		endloop
	endfacet
	facet normal -0.85749284371709 -0.5144958920866 0
		outer loop
			vertex 3.0445001125336 14.472637176514 0.20499999821186
			vertex 3.0445001125336 14.472637176514 0.43999999761581
			vertex 2.9124999046326 14.692637443542 2.1159000396729
		endloop
	endfacet
	facet normal 0 1 0
		outer loop
			vertex 2.9124999046326 14.692637443542 0
			vertex 2.9124999046326 14.692637443542 2.1159000396729
			vertex 3.5724999904633 14.692637443542 2.1159000396729
		endloop
	endfacet
	facet normal -0.85749284371709 -0.5144958920866 0
		outer loop
			vertex 3.0445001125336 14.472637176514 0.43999999761581
			vertex 3.0445001125336 14.472637176514 2.1159000396729
			vertex 2.9124999046326 14.692637443542 2.1159000396729
		endloop
	endfacet
	facet normal 0 0 1
		outer loop
			vertex 2.9124999046326 14.692637443542 2.1159000396729
			vertex 3.0445001125336 14.472637176514 2.1159000396729
			vertex 3.4405000209808 14.472637176514 2.1159000396729
		endloop
	endfacet
	facet normal 0 0 -1
		outer loop
			vertex 2.9124999046326 14.692637443542 0
			vertex 3.5724999904633 14.692637443542 0
			vertex 3.4405000209808 14.472637176514 0
		endloop
	endfacet
	facet normal 0.85749325369431 -0.51449520879086 0
		outer loop
			vertex 3.4405000209808 14.472637176514 0
			vertex 3.5724999904633 14.692637443542 0
			vertex 3.4405000209808 14.472637176514 0.20499999821186
		endloop
	endfacet
	facet normal 0.85749325369431 -0.51449520879086 0
		outer loop
			vertex 3.5724999904633 14.692637443542 0
			vertex 3.4405000209808 14.472637176514 0.43999999761581
			vertex 3.4405000209808 14.472637176514 0.20499999821186
		endloop
	endfacet
	facet normal 0 1 0
		outer loop
			vertex 2.9124999046326 14.692637443542 0
			vertex 3.5724999904633 14.692637443542 2.1159000396729
			vertex 3.5724999904633 14.692637443542 0
		endloop
	endfacet
	facet normal 0.85749325369431 -0.51449520879086 0
		outer loop
			vertex 3.5724999904633 14.692637443542 0
			vertex 3.4405000209808 14.472637176514 2.1159000396729
			vertex 3.4405000209808 14.472637176514 0.43999999761581
		endloop
	endfacet
	facet normal 0.85749325369431 -0.51449520879086 0
		outer loop
			vertex 3.5724999904633 14.692637443542 0
			vertex 3.5724999904633 14.692637443542 2.1159000396729
			vertex 3.4405000209808 14.472637176514 2.1159000396729
		endloop
	endfacet
	facet normal -0 0 1
		outer loop
			vertex 2.9124999046326 14.692637443542 2.1159000396729
			vertex 3.4405000209808 14.472637176514 2.1159000396729
			vertex 3.5724999904633 14.692637443542 2.1159000396729
		endloop
	endfacet
	facet normal -1 0 0
		outer loop
			vertex 0 14.472637176514 0
			vertex 0 14.032636642456 0.43999999761581
			vertex 0 14.472637176514 0.43999999761581
		endloop
	endfacet
	facet normal -1 0 0
		outer loop
			vertex 0 14.472637176514 0
			vertex 0 2.0254347324371 0.43999999761581
			vertex 0 14.032636642456 0.43999999761581
		endloop
	endfacet
	facet normal 0 0 -1
		outer loop
			vertex 0 14.472637176514 0
			vertex 3.0445001125336 14.472637176514 0
			vertex 0 1.9075371026993 0
		endloop
	endfacet
	facet normal -0 0 1
		outer loop
			vertex 0 14.032636642456 0.43999999761581
			vertex 0 2.0254347324371 0.43999999761581
			vertex 3.0295000076294 14.032636642456 0.43999999761581
		endloop
	endfacet
	facet normal 0 1 0
		outer loop
			vertex 0 14.472637176514 0
			vertex 2.6722812652588 14.472637176514 0.25868871808052
			vertex 3.0445001125336 14.472637176514 0
		endloop
	endfacet
	facet normal 0 1 0
		outer loop
			vertex 2.6722812652588 14.472637176514 0.25868871808052
			vertex 2.897500038147 14.472637176514 0.20499999821186
			vertex 3.0445001125336 14.472637176514 0
		endloop
	endfacet
	facet normal 0 1 -0
		outer loop
			vertex 3.0445001125336 14.472637176514 0
			vertex 2.897500038147 14.472637176514 0.20499999821186
			vertex 3.0445001125336 14.472637176514 0.20499999821186
		endloop
	endfacet
	facet normal -0 1 0
		outer loop
			vertex 2.4113981723785 14.472637176514 0.43999999761581
			vertex 3.0295000076294 14.472637176514 0.43999999761581
			vertex 2.6722812652588 14.472637176514 0.25868871808052
		endloop
	endfacet
	facet normal -0 1 0
		outer loop
			vertex 2.6722812652588 14.472637176514 0.25868871808052
			vertex 3.0295000076294 14.472637176514 0.43999999761581
			vertex 2.897500038147 14.472637176514 0.20499999821186
		endloop
	endfacet
	facet normal 0 -0 -1
		outer loop
			vertex 3.0445001125336 14.472637176514 0
			vertex 3.4405000209808 14.472637176514 0
			vertex 0 1.9075371026993 0
		endloop
	endfacet
	facet normal -1 0 0
		outer loop
			vertex 0 14.472637176514 0
			vertex 0 1.9075371026993 0
			vertex 0 1.9075371026993 0.43999999761581
		endloop
	endfacet
	facet normal -1 0 0
		outer loop
			vertex 0 14.472637176514 0
			vertex 0 1.9075371026993 0.43999999761581
			vertex 0 2.0254347324371 0.43999999761581
		endloop
	endfacet
	facet normal 0 0 1
		outer loop
			vertex 3.0295000076294 14.032636642456 0.43999999761581
			vertex 0 2.0254347324371 0.43999999761581
			vertex 3.0295000076294 2.0254347324371 0.43999999761581
		endloop
	endfacet
	facet normal 0 1 0
		outer loop
			vertex 3.4405000209808 14.472637176514 0
			vertex 3.4405000209808 14.472637176514 0.20499999821186
			vertex 3.4635796546936 14.472637176514 0.20499999821186
		endloop
	endfacet
	facet normal 0 1 0
		outer loop
			vertex 3.4405000209808 14.472637176514 0
			vertex 3.4635796546936 14.472637176514 0.20499999821186
			vertex 6.4850001335144 14.472637176514 0
		endloop
	endfacet
	facet normal 0 1 -0
		outer loop
			vertex 3.5790848731995 14.472637176514 0.21998155117035
			vertex 3.4554998874664 14.472637176514 0.43999999761581
			vertex 5.8518981933594 14.472637176514 0.43999999761581
		endloop
	endfacet
	facet normal 0 0 -1
		outer loop
			vertex 0 1.9075371026993 0
			vertex 3.4405000209808 14.472637176514 0
			vertex 6.4850001335144 14.472637176514 0
		endloop
	endfacet
	facet normal -0 0 1
		outer loop
			vertex 3.4554998874664 14.032636642456 0.43999999761581
			vertex 3.4554998874664 2.0254347324371 0.43999999761581
			vertex 6.4850001335144 14.032636642456 0.43999999761581
		endloop
	endfacet
	facet normal 0 1 -0
		outer loop
			vertex 6.4850001335144 14.472637176514 0
			vertex 5.8518981933594 14.472637176514 0.43999999761581
			vertex 6.4850001335144 14.472637176514 0.43999999761581
		endloop
	endfacet
	facet normal 1 0 -0
		outer loop
			vertex 6.4850001335144 14.472637176514 0
			vertex 6.4850001335144 14.472637176514 0.43999999761581
			vertex 6.4850001335144 14.121578216553 0.42770674824715
		endloop
	endfacet
	facet normal 1 0 0
		outer loop
			vertex 6.4850001335144 14.472637176514 0.43999999761581
			vertex 6.4850001335144 14.135925292969 0.43999999761581
			vertex 6.4850001335144 14.121578216553 0.42770674824715
		endloop
	endfacet
	facet normal 1 0 0
		outer loop
			vertex 6.4850001335144 14.472637176514 0
			vertex 6.4850001335144 14.121578216553 0.42770674824715
			vertex 6.4850001335144 1.9075371026993 0
		endloop
	endfacet
	facet normal 1 0 -0
		outer loop
			vertex 6.4850001335144 14.121578216553 0.42770674824715
			vertex 6.4850001335144 14.124135017395 0.43999999761581
			vertex 6.4850001335144 2.1275370121002 0.38105118274689
		endloop
	endfacet
	facet normal 1 0 0
		outer loop
			vertex 6.4850001335144 14.124135017395 0.43999999761581
			vertex 6.4850001335144 14.032636642456 0.43999999761581
			vertex 6.4850001335144 2.1275370121002 0.38105118274689
		endloop
	endfacet
	facet normal 0 0 -1
		outer loop
			vertex 0 1.9075371026993 0
			vertex 6.4850001335144 14.472637176514 0
			vertex 6.4850001335144 1.9075371026993 0
		endloop
	endfacet
	facet normal 0 0 1
		outer loop
			vertex 6.4850001335144 14.032636642456 0.43999999761581
			vertex 3.4554998874664 2.0254347324371 0.43999999761581
			vertex 6.4850001335144 2.0254347324371 0.43999999761581
		endloop
	endfacet
	facet normal 1 0 0
		outer loop
			vertex 6.4850001335144 14.121578216553 0.42770674824715
			vertex 6.4850001335144 2.1275370121002 0.38105118274689
			vertex 6.4850001335144 1.9075371026993 0
		endloop
	endfacet
	facet normal 1 0 0
		outer loop
			vertex 6.4850001335144 14.032636642456 0.43999999761581
			vertex 6.4850001335144 2.0254347324371 0.43999999761581
			vertex 6.4850001335144 2.1275370121002 0.38105118274689
		endloop
	endfacet
	facet normal 1 0 0
		outer loop
			vertex 6.4850001335144 2.1275370121002 0.38105118274689
			vertex 6.4850001335144 2.0254347324371 0.43999999761581
			vertex 6.4850001335144 1.9379925727844 0.43999999761581
		endloop
	endfacet
	facet normal -3.5326184322957e-08 -0.5000000801647 -0.86602535750132
		outer loop
			vertex 0 1.9075371026993 0
			vertex 1.9896891117096 1.4120906591415 0.28604611754417
			vertex 1.6479742527008 1.1692241430283 0.42626520991325
		endloop
	endfacet
	facet normal -7.6539341344831e-09 -0.49999999681688 -0.86602540562222
		outer loop
			vertex 0 1.9075371026993 0
			vertex 2.3795487880707 1.5925568342209 0.18185392022133
			vertex 1.9896891117096 1.4120906591415 0.28604611754417
		endloop
	endfacet
	facet normal 3.128677277566e-08 -0.49999996865057 -0.86602542188404
		outer loop
			vertex 0 1.9075371026993 0
			vertex 1.6479742527008 1.1692241430283 0.42626520991325
			vertex 1.3675360679626 0.87329030036926 0.59712266921997
		endloop
	endfacet
	facet normal 3.0724156361751e-08 -0.49999996920851 -0.86602542156191
		outer loop
			vertex 0 1.9075371026993 0
			vertex 1.3675360679626 0.87329030036926 0.59712266921997
			vertex 1.159151673317 0.53566187620163 0.79205250740051
		endloop
	endfacet
	facet normal -1 0 0
		outer loop
			vertex 0 1.9075371026993 0
			vertex 0 0.43999999761581 1.3553512096405
			vertex 0 1.9075371026993 0.43999999761581
		endloop
	endfacet
	facet normal -3.3471472835936e-08 -0.50000000988958 -0.86602539807469
		outer loop
			vertex 0 1.9075371026993 0
			vertex 1.159151673317 0.53566187620163 0.79205250740051
			vertex 0 0.21999999880791 0.97430002689362
		endloop
	endfacet
	facet normal -1 0 0
		outer loop
			vertex 0 2.0254347324371 0.43999999761581
			vertex 0 1.9075371026993 0.43999999761581
			vertex 0 0.43999999761581 1.3553512096405
		endloop
	endfacet
	facet normal -1 0 0
		outer loop
			vertex 0 1.9075371026993 0
			vertex 0 0.21999999880791 0.97430002689362
			vertex 0 0.43999999761581 1.3553512096405
		endloop
	endfacet
	facet normal 0 0.50000001683494 0.86602539406478
		outer loop
			vertex 0 2.0254347324371 0.43999999761581
			vertex 0 0.43999999761581 1.3553512096405
			vertex 1.0485832691193 0.43999999761581 1.3553512096405
		endloop
	endfacet
	facet normal 0 -0.50000010207329 -0.86602534485239
		outer loop
			vertex 0 0.21999999880791 0.97430002689362
			vertex 1.159151673317 0.53566187620163 0.79205250740051
			vertex 1.0485832691193 0.21999999880791 0.97430002689362
		endloop
	endfacet
	facet normal 6.5679225059391e-08 0.50000004941439 0.86602537525502
		outer loop
			vertex 0 2.0254347324371 0.43999999761581
			vertex 1.0485832691193 0.43999999761581 1.3553512096405
			vertex 1.159151673317 0.75566190481186 1.1731036901474
		endloop
	endfacet
	facet normal -7.8787073403272e-09 0.49999994169085 0.86602543744924
		outer loop
			vertex 0 2.0254347324371 0.43999999761581
			vertex 1.6479742527008 1.3892240524292 0.80731636285782
			vertex 1.9896891117096 1.6320906877518 0.66709727048874
		endloop
	endfacet
	facet normal 7.7592063300573e-08 0.50000010773683 0.86602534158254
		outer loop
			vertex 0 2.0254347324371 0.43999999761581
			vertex 1.3675360679626 1.0932903289795 0.97817385196686
			vertex 1.6479742527008 1.3892240524292 0.80731636285782
		endloop
	endfacet
	facet normal -3.2672112779475e-08 0.49999984762973 0.86602549175543
		outer loop
			vertex 0 2.0254347324371 0.43999999761581
			vertex 1.9896891117096 1.6320906877518 0.66709727048874
			vertex 2.3795487880707 1.8125568628311 0.56290513277054
		endloop
	endfacet
	facet normal -4.3100197222429e-08 0.49999997493738 0.86602541825435
		outer loop
			vertex 0 2.0254347324371 0.43999999761581
			vertex 1.159151673317 0.75566190481186 1.1731036901474
			vertex 1.3675360679626 1.0932903289795 0.97817385196686
		endloop
	endfacet
	facet normal 3.0825508402977e-08 -0.49999977879436 -0.86602553149754
		outer loop
			vertex 0 1.9075371026993 0
			vertex 2.8025712966919 1.7036874294281 0.11769269406796
			vertex 2.3795487880707 1.5925568342209 0.18185392022133
		endloop
	endfacet
	facet normal -3.6148960432168e-08 -0.50000046937934 -0.86602513278798
		outer loop
			vertex 0 1.9075371026993 0
			vertex 3.2425000667572 1.7412115335464 0.096028096973896
			vertex 2.8025712966919 1.7036874294281 0.11769269406796
		endloop
	endfacet
	facet normal 2.0713925272236e-08 0.50000029519152 0.86602523335547
		outer loop
			vertex 0 2.0254347324371 0.43999999761581
			vertex 2.3795487880707 1.8125568628311 0.56290513277054
			vertex 2.8025712966919 1.923687338829 0.49874386191368
		endloop
	endfacet
	facet normal -0 0.49999986727696 0.86602548041211
		outer loop
			vertex 0 2.0254347324371 0.43999999761581
			vertex 2.8025712966919 1.923687338829 0.49874386191368
			vertex 3.0295000076294 2.0254347324371 0.43999999761581
		endloop
	endfacet
	facet normal 0 -0.49999994083916 -0.86602543794096
		outer loop
			vertex 0 1.9075371026993 0
			vertex 6.4850001335144 1.9075371026993 0
			vertex 3.2425000667572 1.7412115335464 0.096028096973896
		endloop
	endfacet
	facet normal -5.6225239930076e-08 0.49999996132696 0.86602542611232
		outer loop
			vertex 3.0295000076294 2.0254347324371 0.43999999761581
			vertex 2.8025712966919 1.923687338829 0.49874386191368
			vertex 3.2425000667572 1.9612115621567 0.4770792722702
		endloop
	endfacet
	facet normal -0 0.50000010118278 0.86602534536653
		outer loop
			vertex 3.0295000076294 2.0254347324371 0.43999999761581
			vertex 3.2425000667572 1.9612115621567 0.4770792722702
			vertex 3.4554998874664 2.0254347324371 0.43999999761581
		endloop
	endfacet
	facet normal 0 -0.86602540784495 0.49999999296699
		outer loop
			vertex 0 0.21999999880791 0.97430002689362
			vertex 1.0485832691193 0.43999999761581 1.3553512096405
			vertex 0 0.43999999761581 1.3553512096405
		endloop
	endfacet
	facet normal 0 -0.86602540784495 0.49999999296699
		outer loop
			vertex 0 0.21999999880791 0.97430002689362
			vertex 1.0485832691193 0.21999999880791 0.97430002689362
			vertex 1.0485832691193 0.43999999761581 1.3553512096405
		endloop
	endfacet
	facet normal 5.622527755984e-08 0.49999996132703 0.86602542611229
		outer loop
			vertex 3.4554998874664 2.0254347324371 0.43999999761581
			vertex 3.2425000667572 1.9612115621567 0.4770792722702
			vertex 3.6824285984039 1.923687338829 0.49874386191368
		endloop
	endfacet
	facet normal 3.6148967789314e-08 -0.50000046937945 -0.86602513278792
		outer loop
			vertex 6.4850001335144 1.9075371026993 0
			vertex 3.6824285984039 1.7036874294281 0.11769269406796
			vertex 3.2425000667572 1.7412115335464 0.096028096973896
		endloop
	endfacet
	facet normal -3.0825506349237e-08 -0.49999977879436 -0.86602553149754
		outer loop
			vertex 6.4850001335144 1.9075371026993 0
			vertex 4.1054511070251 1.5925568342209 0.18185392022133
			vertex 3.6824285984039 1.7036874294281 0.11769269406796
		endloop
	endfacet
	facet normal -0 0.49999986727696 0.86602548041211
		outer loop
			vertex 3.4554998874664 2.0254347324371 0.43999999761581
			vertex 3.6824285984039 1.923687338829 0.49874386191368
			vertex 6.4850001335144 2.0254347324371 0.43999999761581
		endloop
	endfacet
	facet normal -2.0713923724031e-08 0.50000029519152 0.86602523335547
		outer loop
			vertex 6.4850001335144 2.0254347324371 0.43999999761581
			vertex 3.6824285984039 1.923687338829 0.49874386191368
			vertex 4.1054511070251 1.8125568628311 0.56290513277054
		endloop
	endfacet
	facet normal 7.6539335381298e-09 -0.49999999681688 -0.86602540562221
		outer loop
			vertex 6.4850001335144 1.9075371026993 0
			vertex 4.4953107833862 1.4120906591415 0.28604611754417
			vertex 4.1054511070251 1.5925568342209 0.18185392022133
		endloop
	endfacet
	facet normal 3.5326181188201e-08 -0.5000000801647 -0.86602535750132
		outer loop
			vertex 6.4850001335144 1.9075371026993 0
			vertex 4.837025642395 1.1692241430283 0.42626520991325
			vertex 4.4953107833862 1.4120906591415 0.28604611754417
		endloop
	endfacet
	facet normal -3.1286761671108e-08 -0.49999996865058 -0.86602542188403
		outer loop
			vertex 6.4850001335144 1.9075371026993 0
			vertex 5.1174640655518 0.87329030036926 0.59712266921997
			vertex 4.837025642395 1.1692241430283 0.42626520991325
		endloop
	endfacet
	facet normal -3.0724150768406e-08 -0.49999996920851 -0.86602542156191
		outer loop
			vertex 6.4850001335144 1.9075371026993 0
			vertex 5.3258485794067 0.53566187620163 0.79205250740051
			vertex 5.1174640655518 0.87329030036926 0.59712266921997
		endloop
	endfacet
	facet normal 1 0 0
		outer loop
			vertex 6.4850001335144 1.9075371026993 0
			vertex 6.4850001335144 2.1275370121002 0.38105118274689
			vertex 6.4850001335144 1.9379925727844 0.43999999761581
		endloop
	endfacet
	facet normal 1 0 -0
		outer loop
			vertex 6.4850001335144 1.9075371026993 0
			vertex 6.4850001335144 1.9379925727844 0.43999999761581
			vertex 6.4850001335144 0.21999999880791 0.97430002689362
		endloop
	endfacet
	facet normal 3.2672110036092e-08 0.49999984762973 0.86602549175544
		outer loop
			vertex 6.4850001335144 2.0254347324371 0.43999999761581
			vertex 4.1054511070251 1.8125568628311 0.56290513277054
			vertex 4.4953107833862 1.6320906877518 0.66709727048874
		endloop
	endfacet
	facet normal 7.8787066016971e-09 0.49999994169085 0.86602543744924
		outer loop
			vertex 6.4850001335144 2.0254347324371 0.43999999761581
			vertex 4.4953107833862 1.6320906877518 0.66709727048874
			vertex 4.837025642395 1.3892240524292 0.80731636285782
		endloop
	endfacet
	facet normal -7.7592037412772e-08 0.5000001077368 0.86602534158256
		outer loop
			vertex 6.4850001335144 2.0254347324371 0.43999999761581
			vertex 4.837025642395 1.3892240524292 0.80731636285782
			vertex 5.1174640655518 1.0932903289795 0.97817385196686
		endloop
	endfacet
	facet normal 1.2649876485946e-07 -0.5000000688414 -0.86602536403883
		outer loop
			vertex 6.4850001335144 1.9075371026993 0
			vertex 5.4364166259766 0.21999999880791 0.97430002689362
			vertex 5.3258485794067 0.53566187620163 0.79205250740051
		endloop
	endfacet
	facet normal 0 -0.50000000988958 -0.86602539807469
		outer loop
			vertex 6.4850001335144 1.9075371026993 0
			vertex 6.4850001335144 0.21999999880791 0.97430002689362
			vertex 5.4364166259766 0.21999999880791 0.97430002689362
		endloop
	endfacet
	facet normal 1 0 0
		outer loop
			vertex 6.4850001335144 2.0254347324371 0.43999999761581
			vertex 6.4850001335144 0.43999999761581 1.3553512096405
			vertex 6.4850001335144 1.9379925727844 0.43999999761581
		endloop
	endfacet
	facet normal 5.0223978623329e-09 0.50000001683494 0.86602539406478
		outer loop
			vertex 6.4850001335144 2.0254347324371 0.43999999761581
			vertex 5.1174640655518 1.0932903289795 0.97817385196686
			vertex 6.4850001335144 0.43999999761581 1.3553512096405
		endloop
	endfacet
	facet normal 1 0 0
		outer loop
			vertex 6.4850001335144 1.9379925727844 0.43999999761581
			vertex 6.4850001335144 0.43999999761581 1.3553512096405
			vertex 6.4850001335144 0.21999999880791 0.97430002689362
		endloop
	endfacet
	facet normal -4.8744149067144e-08 0.49999993242259 0.86602544280027
		outer loop
			vertex 6.4850001335144 0.43999999761581 1.3553512096405
			vertex 5.1174640655518 1.0932903289795 0.97817385196686
			vertex 5.3258485794067 0.75566190481186 1.1731036901474
		endloop
	endfacet
	facet normal 0 -0.86602540784495 0.49999999296699
		outer loop
			vertex 6.4850001335144 0.43999999761581 1.3553512096405
			vertex 5.4364166259766 0.43999999761581 1.3553512096405
			vertex 5.4364166259766 0.21999999880791 0.97430002689362
		endloop
	endfacet
	facet normal 0 0.50000006666873 0.86602536529323
		outer loop
			vertex 6.4850001335144 0.43999999761581 1.3553512096405
			vertex 5.3258485794067 0.75566190481186 1.1731036901474
			vertex 5.4364166259766 0.43999999761581 1.3553512096405
		endloop
	endfacet
	facet normal 0 -0.86602540784495 0.49999999296699
		outer loop
			vertex 6.4850001335144 0.21999999880791 0.97430002689362
			vertex 6.4850001335144 0.43999999761581 1.3553512096405
			vertex 5.4364166259766 0.21999999880791 0.97430002689362
		endloop
	endfacet
	facet normal 0.87187267280999 0 -0.4897326233846
		outer loop
			vertex 2.897500038147 14.472637176514 0.20499999821186
			vertex 3.0295000076294 14.472637176514 0.43999999761581
			vertex 3.0295000076294 14.032636642456 0.43999999761581
		endloop
	endfacet
	facet normal 0 -1 0
		outer loop
			vertex 3.0445001125336 14.472637176514 0.20499999821186
			vertex 3.4405000209808 14.472637176514 0.20499999821186
			vertex 3.0445001125336 14.472637176514 0.43999999761581
		endloop
	endfacet
	facet normal 0 0 -1
		outer loop
			vertex 3.0295000076294 14.472637176514 0.43999999761581
			vertex 3.0445001125336 14.472637176514 0.43999999761581
			vertex 3.4554998874664 14.032636642456 0.43999999761581
		endloop
	endfacet
	facet normal 0 0 -1
		outer loop
			vertex 3.0295000076294 14.472637176514 0.43999999761581
			vertex 3.4554998874664 14.032636642456 0.43999999761581
			vertex 3.0295000076294 14.032636642456 0.43999999761581
		endloop
	endfacet
	facet normal -0 0 1
		outer loop
			vertex 2.897500038147 14.472637176514 0.20499999821186
			vertex 3.2425000667572 1.8041265010834 0.20499999821186
			vertex 3.0445001125336 14.472637176514 0.20499999821186
		endloop
	endfacet
	facet normal -0 0 1
		outer loop
			vertex 3.0445001125336 14.472637176514 0.20499999821186
			vertex 3.2425000667572 1.8041265010834 0.20499999821186
			vertex 3.4405000209808 14.472637176514 0.20499999821186
		endloop
	endfacet
	facet normal 0.87187267280999 0 -0.4897326233846
		outer loop
			vertex 2.897500038147 14.472637176514 0.20499999821186
			vertex 3.0295000076294 14.032636642456 0.43999999761581
			vertex 3.0295000076294 2.0254347324371 0.43999999761581
		endloop
	endfacet
	facet normal 0 0 1
		outer loop
			vertex 2.897500038147 14.472637176514 0.20499999821186
			vertex 2.897500038147 1.7648903131485 0.20499999821186
			vertex 3.2425000667572 1.8041265010834 0.20499999821186
		endloop
	endfacet
	facet normal 0.87187267280999 0 -0.4897326233846
		outer loop
			vertex 2.897500038147 14.472637176514 0.20499999821186
			vertex 3.0295000076294 2.0254347324371 0.43999999761581
			vertex 2.897500038147 1.7648903131485 0.20499999821186
		endloop
	endfacet
	facet normal 0.87187267280999 0 -0.4897326233846
		outer loop
			vertex 3.0295000076294 2.0254347324371 0.43999999761581
			vertex 3.0295000076294 1.9155797958374 0.43999999761581
			vertex 2.897500038147 1.7648903131485 0.20499999821186
		endloop
	endfacet
	facet normal 0 0 -1
		outer loop
			vertex 3.0295000076294 2.0254347324371 0.43999999761581
			vertex 3.2425000667572 1.9398038387299 0.43999999761581
			vertex 3.0295000076294 1.9155797958374 0.43999999761581
		endloop
	endfacet
	facet normal 0 0 -1
		outer loop
			vertex 3.0295000076294 2.0254347324371 0.43999999761581
			vertex 3.4554998874664 2.0254347324371 0.43999999761581
			vertex 3.2425000667572 1.9398038387299 0.43999999761581
		endloop
	endfacet
	facet normal 0 -1 0
		outer loop
			vertex 3.0445001125336 14.472637176514 0.43999999761581
			vertex 3.4405000209808 14.472637176514 0.20499999821186
			vertex 3.4405000209808 14.472637176514 0.43999999761581
		endloop
	endfacet
	facet normal -0.87187236063377 0 -0.48973317915258
		outer loop
			vertex 3.5790848731995 14.472637176514 0.21998155117035
			vertex 3.4554998874664 14.032636642456 0.43999999761581
			vertex 3.4554998874664 14.472637176514 0.43999999761581
		endloop
	endfacet
	facet normal 0 0 -1
		outer loop
			vertex 3.0445001125336 14.472637176514 0.43999999761581
			vertex 3.4405000209808 14.472637176514 0.43999999761581
			vertex 3.4554998874664 14.032636642456 0.43999999761581
		endloop
	endfacet
	facet normal 0 0 -1
		outer loop
			vertex 3.4405000209808 14.472637176514 0.43999999761581
			vertex 3.4554998874664 14.472637176514 0.43999999761581
			vertex 3.4554998874664 14.032636642456 0.43999999761581
		endloop
	endfacet
	facet normal -0 0 1
		outer loop
			vertex 3.4405000209808 14.472637176514 0.20499999821186
			vertex 3.2425000667572 1.8041265010834 0.20499999821186
			vertex 3.4635796546936 14.472637176514 0.20499999821186
		endloop
	endfacet
	facet normal -0 0 1
		outer loop
			vertex 3.4635796546936 14.472637176514 0.20499999821186
			vertex 3.2425000667572 1.8041265010834 0.20499999821186
			vertex 3.5875000953674 14.472637176514 0.20499999821186
		endloop
	endfacet
	facet normal -0.87187133295916 -4.2170970074079e-08 -0.48973500871799
		outer loop
			vertex 3.5875000953674 14.472637176514 0.20499999821186
			vertex 3.4554998874664 1.9155797958374 0.43999999761581
			vertex 3.5790848731995 14.472637176514 0.21998155117035
		endloop
	endfacet
	facet normal -0.87187236063377 0 -0.48973317915258
		outer loop
			vertex 3.5790848731995 14.472637176514 0.21998155117035
			vertex 3.4554998874664 2.0254347324371 0.43999999761581
			vertex 3.4554998874664 14.032636642456 0.43999999761581
		endloop
	endfacet
	facet normal 0 0 1
		outer loop
			vertex 3.5875000953674 14.472637176514 0.20499999821186
			vertex 3.2425000667572 1.8041265010834 0.20499999821186
			vertex 3.5875000953674 1.7648903131485 0.20499999821186
		endloop
	endfacet
	facet normal -0.87187229511823 -0 -0.48973329578993
		outer loop
			vertex 3.5875000953674 14.472637176514 0.20499999821186
			vertex 3.5875000953674 1.7648903131485 0.20499999821186
			vertex 3.4554998874664 1.9155797958374 0.43999999761581
		endloop
	endfacet
	facet normal -0.87187236063377 0 -0.48973317915258
		outer loop
			vertex 3.5790848731995 14.472637176514 0.21998155117035
			vertex 3.4554998874664 1.9155797958374 0.43999999761581
			vertex 3.4554998874664 2.0254347324371 0.43999999761581
		endloop
	endfacet
	facet normal 0 -0 -1
		outer loop
			vertex 3.4554998874664 2.0254347324371 0.43999999761581
			vertex 3.4554998874664 1.9155797958374 0.43999999761581
			vertex 3.2425000667572 1.9398038387299 0.43999999761581
		endloop
	endfacet
	facet normal 0.77301048834323 -0.54940071081477 0.31719653823392
		outer loop
			vertex 1.6479742527008 1.1692241430283 0.42626520991325
			vertex 1.6479742527008 1.3892240524292 0.80731636285782
			vertex 1.3675360679626 0.87329030036926 0.59712266921997
		endloop
	endfacet
	facet normal 0.88192122916386 -0.40824159444749 0.23569842195711
		outer loop
			vertex 1.159151673317 0.53566187620163 0.79205250740051
			vertex 1.3675360679626 0.87329030036926 0.59712266921997
			vertex 1.3675360679626 1.0932903289795 0.97817385196686
		endloop
	endfacet
	facet normal 0.95694028796199 -0.25139403387598 0.14514243007059
		outer loop
			vertex 1.0485832691193 0.21999999880791 0.97430002689362
			vertex 1.159151673317 0.53566187620163 0.79205250740051
			vertex 1.159151673317 0.75566190481186 1.1731036901474
		endloop
	endfacet
	facet normal 0.77301040791995 -0.54940073199949 0.31719669753303
		outer loop
			vertex 1.3675360679626 0.87329030036926 0.59712266921997
			vertex 1.6479742527008 1.3892240524292 0.80731636285782
			vertex 1.3675360679626 1.0932903289795 0.97817385196686
		endloop
	endfacet
	facet normal 0.88192122916386 -0.40824159444749 0.23569842195711
		outer loop
			vertex 1.159151673317 0.53566187620163 0.79205250740051
			vertex 1.3675360679626 1.0932903289795 0.97817385196686
			vertex 1.159151673317 0.75566190481186 1.1731036901474
		endloop
	endfacet
	facet normal 0.63439325924808 -0.66944667508891 0.38650529340876
		outer loop
			vertex 1.9896891117096 1.4120906591415 0.28604611754417
			vertex 1.9896891117096 1.6320906877518 0.66709727048874
			vertex 1.6479742527008 1.1692241430283 0.42626520991325
		endloop
	endfacet
	facet normal 0.47139682890026 -0.76376616909099 0.44096062029942
		outer loop
			vertex 2.3795487880707 1.5925568342209 0.18185392022133
			vertex 2.3795487880707 1.8125568628311 0.56290513277054
			vertex 1.9896891117096 1.4120906591415 0.28604611754417
		endloop
	endfacet
	facet normal 0.47139677646406 -0.76376616349634 0.44096068604512
		outer loop
			vertex 1.9896891117096 1.4120906591415 0.28604611754417
			vertex 2.3795487880707 1.8125568628311 0.56290513277054
			vertex 1.9896891117096 1.6320906877518 0.66709727048874
		endloop
	endfacet
	facet normal 0.098017171992959 -0.86185557062762 0.49759180999353
		outer loop
			vertex 2.897500038147 1.7648903131485 0.20499999821186
			vertex 2.8025712966919 1.7036874294281 0.11769269406796
			vertex 3.2425000667572 1.8041265010834 0.20499999821186
		endloop
	endfacet
	facet normal 0.098016970118065 -0.86185523152418 0.49759243710417
		outer loop
			vertex 2.8025712966919 1.7036874294281 0.11769269406796
			vertex 3.2425000667572 1.7412115335464 0.096028096973896
			vertex 3.2425000667572 1.8041265010834 0.20499999821186
		endloop
	endfacet
	facet normal 0.2902847944664 -0.82873468983995 0.47847001155504
		outer loop
			vertex 2.3795487880707 1.5925568342209 0.18185392022133
			vertex 2.8025712966919 1.7036874294281 0.11769269406796
			vertex 2.8025712966919 1.923687338829 0.49874386191368
		endloop
	endfacet
	facet normal 0.098016650309708 -0.86185537973169 0.49759224339775
		outer loop
			vertex 2.897500038147 1.7648903131485 0.20499999821186
			vertex 2.8025712966919 1.923687338829 0.49874386191368
			vertex 2.8025712966919 1.7036874294281 0.11769269406796
		endloop
	endfacet
	facet normal 0.29028462690756 -0.82873464590004 0.47847018931806
		outer loop
			vertex 2.3795487880707 1.5925568342209 0.18185392022133
			vertex 2.8025712966919 1.923687338829 0.49874386191368
			vertex 2.3795487880707 1.8125568628311 0.56290513277054
		endloop
	endfacet
	facet normal 0.098017445093509 -0.86185519782598 0.49759240190911
		outer loop
			vertex 2.897500038147 1.7648903131485 0.20499999821186
			vertex 3.0295000076294 1.9155797958374 0.43999999761581
			vertex 2.8025712966919 1.923687338829 0.49874386191368
		endloop
	endfacet
	facet normal 0.098017193068592 -0.86185574498365 0.49759150384791
		outer loop
			vertex 3.0295000076294 1.9155797958374 0.43999999761581
			vertex 3.2425000667572 1.9612115621567 0.4770792722702
			vertex 2.8025712966919 1.923687338829 0.49874386191368
		endloop
	endfacet
	facet normal 0.098016970060538 -0.86185532741625 0.49759227102556
		outer loop
			vertex 3.2425000667572 1.9612115621567 0.4770792722702
			vertex 3.0295000076294 1.9155797958374 0.43999999761581
			vertex 3.2425000667572 1.9398038387299 0.43999999761581
		endloop
	endfacet
	facet normal 0.63439339879907 -0.66944666659268 0.38650507907157
		outer loop
			vertex 1.6479742527008 1.1692241430283 0.42626520991325
			vertex 1.9896891117096 1.6320906877518 0.66709727048874
			vertex 1.6479742527008 1.3892240524292 0.80731636285782
		endloop
	endfacet
	facet normal 0.95694029367181 -0.25139402608877 0.14514240591291
		outer loop
			vertex 1.0485832691193 0.43999999761581 1.3553512096405
			vertex 1.0485832691193 0.21999999880791 0.97430002689362
			vertex 1.159151673317 0.75566190481186 1.1731036901474
		endloop
	endfacet
	facet normal -0.098017131858409 -0.86185521772838 0.49759242913916
		outer loop
			vertex 3.2425000667572 1.7412115335464 0.096028096973896
			vertex 3.5875000953674 1.7648903131485 0.20499999821186
			vertex 3.2425000667572 1.8041265010834 0.20499999821186
		endloop
	endfacet
	facet normal -0.09801702272783 -0.86185540599648 0.49759212454602
		outer loop
			vertex 3.5875000953674 1.7648903131485 0.20499999821186
			vertex 3.2425000667572 1.7412115335464 0.096028096973896
			vertex 3.6824285984039 1.7036874294281 0.11769269406796
		endloop
	endfacet
	facet normal -0.098017427069372 -0.86185523695725 0.49759233768222
		outer loop
			vertex 3.5875000953674 1.7648903131485 0.20499999821186
			vertex 3.6824285984039 1.923687338829 0.49874386191368
			vertex 3.4554998874664 1.9155797958374 0.43999999761581
		endloop
	endfacet
	facet normal -0.098017078720498 -0.861855318148 0.49759226567453
		outer loop
			vertex 3.4554998874664 1.9155797958374 0.43999999761581
			vertex 3.2425000667572 1.9612115621567 0.4770792722702
			vertex 3.2425000667572 1.9398038387299 0.43999999761581
		endloop
	endfacet
	facet normal -0.098017245678516 -0.8618556307652 0.49759169131721
		outer loop
			vertex 3.4554998874664 1.9155797958374 0.43999999761581
			vertex 3.6824285984039 1.923687338829 0.49874386191368
			vertex 3.2425000667572 1.9612115621567 0.4770792722702
		endloop
	endfacet
	facet normal -0.098016894119279 -0.86185535893578 0.49759223139122
		outer loop
			vertex 3.5875000953674 1.7648903131485 0.20499999821186
			vertex 3.6824285984039 1.7036874294281 0.11769269406796
			vertex 3.6824285984039 1.923687338829 0.49874386191368
		endloop
	endfacet
	facet normal -0.29028462690754 -0.82873473385867 0.47847003696925
		outer loop
			vertex 3.6824285984039 1.7036874294281 0.11769269406796
			vertex 4.1054511070251 1.8125568628311 0.56290513277054
			vertex 3.6824285984039 1.923687338829 0.49874386191368
		endloop
	endfacet
	facet normal -0.29028479446639 -0.82873460188134 0.47847016390385
		outer loop
			vertex 3.6824285984039 1.7036874294281 0.11769269406796
			vertex 4.1054511070251 1.5925568342209 0.18185392022133
			vertex 4.1054511070251 1.8125568628311 0.56290513277054
		endloop
	endfacet
	facet normal -0.47139682890026 -0.7637661392236 0.44096067203125
		outer loop
			vertex 4.1054511070251 1.5925568342209 0.18185392022133
			vertex 4.4953107833862 1.4120906591415 0.28604611754417
			vertex 4.4953107833862 1.6320906877518 0.66709727048874
		endloop
	endfacet
	facet normal -0.47139677646406 -0.76376619336373 0.44096063431328
		outer loop
			vertex 4.1054511070251 1.5925568342209 0.18185392022133
			vertex 4.4953107833862 1.6320906877518 0.66709727048874
			vertex 4.1054511070251 1.8125568628311 0.56290513277054
		endloop
	endfacet
	facet normal -0.63439325924807 -0.6694467657756 0.38650513633483
		outer loop
			vertex 4.4953107833862 1.4120906591415 0.28604611754417
			vertex 4.837025642395 1.1692241430283 0.42626520991325
			vertex 4.837025642395 1.3892240524292 0.80731636285782
		endloop
	endfacet
	facet normal -0.63439339879906 -0.66944657590603 0.38650523614548
		outer loop
			vertex 4.4953107833862 1.4120906591415 0.28604611754417
			vertex 4.837025642395 1.3892240524292 0.80731636285782
			vertex 4.4953107833862 1.6320906877518 0.66709727048874
		endloop
	endfacet
	facet normal -0.77301014343224 -0.5494010747837 0.31719674837141
		outer loop
			vertex 5.1174640655518 1.0932903289795 0.97817385196686
			vertex 4.837025642395 1.3892240524292 0.80731636285782
			vertex 4.837025642395 1.1692241430283 0.42626520991325
		endloop
	endfacet
	facet normal -0.77301022385558 -0.54940092623424 0.31719680967453
		outer loop
			vertex 4.837025642395 1.1692241430283 0.42626520991325
			vertex 5.1174640655518 0.87329030036926 0.59712266921997
			vertex 5.1174640655518 1.0932903289795 0.97817385196686
		endloop
	endfacet
	facet normal -0.88192111705292 -0.40824177609174 0.23569852682948
		outer loop
			vertex 5.1174640655518 0.87329030036926 0.59712266921997
			vertex 5.3258485794067 0.53566187620163 0.79205250740051
			vertex 5.3258485794067 0.75566190481186 1.1731036901474
		endloop
	endfacet
	facet normal -0.88192111705292 -0.40824177609174 0.23569852682948
		outer loop
			vertex 5.3258485794067 0.75566190481186 1.1731036901474
			vertex 5.1174640655518 1.0932903289795 0.97817385196686
			vertex 5.1174640655518 0.87329030036926 0.59712266921997
		endloop
	endfacet
	facet normal -0.95694054877744 -0.25139329778612 0.14514198542719
		outer loop
			vertex 5.4364166259766 0.21999999880791 0.97430002689362
			vertex 5.4364166259766 0.43999999761581 1.3553512096405
			vertex 5.3258485794067 0.53566187620163 0.79205250740051
		endloop
	endfacet
	facet normal -0.95694055448723 -0.25139327297142 0.14514199076209
		outer loop
			vertex 5.4364166259766 0.43999999761581 1.3553512096405
			vertex 5.3258485794067 0.75566190481186 1.1731036901474
			vertex 5.3258485794067 0.53566187620163 0.79205250740051
		endloop
	endfacet
endsolid