solid csg_export
	facet normal 0 -1 0
		outer loop
			vertex 0.66000002622604 0.21999999880791 0
			vertex 11.900099754333 0.21999999880791 0.13199999928474
			vertex 0.66000002622604 0.21999999880791 0.13199999928474
		endloop
	endfacet
	facet normal 0 0 -1
		outer loop
			vertex 0.66000002622604 0.21999999880791 0
			vertex 0.66000002622604 1.8959000110626 0
			vertex 11.900099754333 0.21999999880791 0
		endloop
	endfacet
	facet normal 0 -1 0
		outer loop
			vertex 0.66000002622604 0.21999999880791 0.66000002622604
			vertex 0.66000002622604 0.21999999880791 0.52799999713898
			vertex 11.900099754333 0.21999999880791 0.66000002622604
		endloop
	endfacet
	facet normal 0 0 1
		outer loop
			vertex 0.66000002622604 0.21999999880791 0.66000002622604
			vertex 11.900099754333 0.21999999880791 0.66000002622604
			vertex 0.66000002622604 1.8959000110626 0.66000002622604
		endloop
	endfacet
	facet normal -1 0 0
		outer loop
			vertex 0.21999999880791 1.8959000110626 0
			vertex 0.21999999880791 1.8959000110626 0.13199999928474
			vertex 0.21999999880791 12.405583381653 0
		endloop
	endfacet
	facet normal 0 0 -1
		outer loop
			vertex 0.21999999880791 1.8959000110626 0
			vertex 0.21999999880791 12.405583381653 0
			vertex 0.66000002622604 1.8959000110626 0
		endloop
	endfacet
	facet normal 0 0 -1
		outer loop
			vertex 0.66000002622604 1.8959000110626 0
			vertex 0.21999999880791 12.405583381653 0
			vertex 11.900099754333 0.21999999880791 0
		endloop
	endfacet
	facet normal -1 0 0
		outer loop
			vertex 0.21999999880791 1.8959000110626 0.66000002622604
			vertex 0.21999999880791 12.405583381653 0.52799999713898
			vertex 0.21999999880791 1.8959000110626 0.52799999713898
		endloop
	endfacet
	facet normal 0 0 1
		outer loop
			vertex 0.21999999880791 1.8959000110626 0.66000002622604
			vertex 0.66000002622604 1.8959000110626 0.66000002622604
			vertex 0.21999999880791 12.405583381653 0.66000002622604
		endloop
	endfacet
	facet normal -0 -0 1
		outer loop
			vertex 0.66000002622604 1.8959000110626 0.66000002622604
			vertex 11.900099754333 0.21999999880791 0.66000002622604
			vertex 0.21999999880791 12.405583381653 0.66000002622604
		endloop
	endfacet
	facet normal 0 -1 0
		outer loop
			vertex 0.66000002622604 0.21999999880791 0
			vertex 11.900099754333 0.21999999880791 0
			vertex 11.900099754333 0.21999999880791 0.13199999928474
		endloop
	endfacet
	facet normal 0 -1 -0
		outer loop
			vertex 11.900099754333 0.21999999880791 0.66000002622604
			vertex 0.66000002622604 0.21999999880791 0.52799999713898
			vertex 11.900099754333 0.21999999880791 0.52799999713898
		endloop
	endfacet
	facet normal 0.72192164188053 0.69197481383684 -0
		outer loop
			vertex 11.900099754333 0.21999999880791 0
			vertex 0.21999999880791 12.405583381653 0
			vertex 11.900099754333 0.21999999880791 0.13199999928474
		endloop
	endfacet
	facet normal 0.72192164188053 0.69197481383684 0
		outer loop
			vertex 0.21999999880791 12.405583381653 0
			vertex 11.900099754333 0.21999999880791 0.52799999713898
			vertex 11.900099754333 0.21999999880791 0.13199999928474
		endloop
	endfacet
	facet normal 0.72192164188053 0.69197481383684 0
		outer loop
			vertex 11.900099754333 0.21999999880791 0.66000002622604
			vertex 11.900099754333 0.21999999880791 0.52799999713898
			vertex 0.21999999880791 12.405583381653 0
		endloop
	endfacet
	facet normal -1 0 0
		outer loop
			vertex 0.21999999880791 12.405583381653 0
			vertex 0.21999999880791 1.8959000110626 0.13199999928474
			vertex 0.21999999880791 12.405583381653 0.13199999928474
		endloop
	endfacet
	facet normal 0.72192164188053 0.69197481383684 0
		outer loop
			vertex 11.900099754333 0.21999999880791 0.66000002622604
			vertex 0.21999999880791 12.405583381653 0
			vertex 0.21999999880791 12.405583381653 0.13199999928474
		endloop
	endfacet
	facet normal 0.72192164188053 0.69197481383684 0
		outer loop
			vertex 11.900099754333 0.21999999880791 0.66000002622604
			vertex 0.21999999880791 12.405583381653 0.13199999928474
			vertex 0.21999999880791 12.405583381653 0.52799999713898
		endloop
	endfacet
	facet normal -1 0 0
		outer loop
			vertex 0.21999999880791 1.8959000110626 0.66000002622604
			vertex 0.21999999880791 12.405583381653 0.66000002622604
			vertex 0.21999999880791 12.405583381653 0.52799999713898
		endloop
	endfacet
	facet normal 0.72192164188053 0.69197481383684 0
		outer loop
			vertex 11.900099754333 0.21999999880791 0.66000002622604
			vertex 0.21999999880791 12.405583381653 0.52799999713898
			vertex 0.21999999880791 12.405583381653 0.66000002622604
		endloop
	endfacet
	facet normal -1 0 0
		outer loop
			vertex 0.66000002622604 0.21999999880791 0
			vertex 0.66000002622604 0.21999999880791 0.13199999928474
			vertex 0.66000002622604 1.8959000110626 0
		endloop
	endfacet
	facet normal -1 0 0
		outer loop
			vertex 0.66000002622604 1.8959000110626 0
			vertex 0.66000002622604 0.21999999880791 0.13199999928474
			vertex 0.66000002622604 0.21999999880791 0.52799999713898
		endloop
	endfacet
	facet normal -1 0 0
		outer loop
			vertex 0.66000002622604 0.21999999880791 0.66000002622604
			vertex 0.66000002622604 1.8959000110626 0
			vertex 0.66000002622604 0.21999999880791 0.52799999713898
		endloop
	endfacet
	facet normal -1 0 0
		outer loop
			vertex 0.66000002622604 0.21999999880791 0.66000002622604
			vertex 0.66000002622604 1.8959000110626 0.66000002622604
			vertex 0.66000002622604 1.8959000110626 0
		endloop
	endfacet
	facet normal 0 -1 -0
		outer loop
			vertex 0.66000002622604 1.8959000110626 0.66000002622604
			vertex 0.21999999880791 1.8959000110626 0
			vertex 0.66000002622604 1.8959000110626 0
		endloop
	endfacet
	facet normal 0 -1 0
		outer loop
			vertex 0.21999999880791 1.8959000110626 0.13199999928474
			vertex 0.21999999880791 1.8959000110626 0
			vertex 0.66000002622604 1.8959000110626 0.66000002622604
		endloop
	endfacet
	facet normal 0 -1 0
		outer loop
			vertex 0.66000002622604 1.8959000110626 0.66000002622604
			vertex 0.21999999880791 1.8959000110626 0.52799999713898
			vertex 0.21999999880791 1.8959000110626 0.13199999928474
		endloop
	endfacet
	facet normal 0 -1 0
		outer loop
			vertex 0.21999999880791 1.8959000110626 0.66000002622604
			vertex 0.21999999880791 1.8959000110626 0.52799999713898
			vertex 0.66000002622604 1.8959000110626 0.66000002622604
		endloop
	endfacet
	facet normal 0 -1 0
		outer loop
			vertex 0 1.8959000110626 0.66000002622604
			vertex 0 1.8959000110626 0
			vertex 0.21999999880791 1.8959000110626 0.13199999928474
		endloop
	endfacet
	facet normal 0 -1 0
		outer loop
			vertex 0 1.8959000110626 0.66000002622604
			vertex 0.21999999880791 1.8959000110626 0.13199999928474
			vertex 0.21999999880791 1.8959000110626 0.52799999713898
		endloop
	endfacet
	facet normal 0.51449575542753 0 -0.85749292571254
		outer loop
			vertex 0 1.8959000110626 0
			vertex 0.21999999880791 12.405583381653 0.13199999928474
			vertex 0.21999999880791 1.8959000110626 0.13199999928474
		endloop
	endfacet
	facet normal -1 0 0
		outer loop
			vertex 0 1.8959000110626 0.66000002622604
			vertex 0 12.405583381653 0
			vertex 0 1.8959000110626 0
		endloop
	endfacet
	facet normal 0.51449584083955 -0 0.85749287446532
		outer loop
			vertex 0 1.8959000110626 0.66000002622604
			vertex 0.21999999880791 1.8959000110626 0.52799999713898
			vertex 0 12.405583381653 0.66000002622604
		endloop
	endfacet
	facet normal 0.51449575542753 0 -0.85749292571254
		outer loop
			vertex 0 1.8959000110626 0
			vertex 0 12.405583381653 0
			vertex 0.21999999880791 12.405583381653 0.13199999928474
		endloop
	endfacet
	facet normal -1 0 0
		outer loop
			vertex 0 1.8959000110626 0.66000002622604
			vertex 0 12.405583381653 0.66000002622604
			vertex 0 12.405583381653 0
		endloop
	endfacet
	facet normal 0.51449584083955 0 0.85749287446532
		outer loop
			vertex 0 12.405583381653 0.66000002622604
			vertex 0.21999999880791 1.8959000110626 0.52799999713898
			vertex 0.21999999880791 12.405583381653 0.52799999713898
		endloop
	endfacet
	facet normal 0 1 0
		outer loop
			vertex 0 12.405583381653 0.66000002622604
			vertex 0.21999999880791 12.405583381653 0.13199999928474
			vertex 0 12.405583381653 0
		endloop
	endfacet
	facet normal 0 1 0
		outer loop
			vertex 0 12.405583381653 0.66000002622604
			vertex 0.21999999880791 12.405583381653 0.52799999713898
			vertex 0.21999999880791 12.405583381653 0.13199999928474
		endloop
	endfacet
	facet normal -1 0 0
		outer loop
			vertex 0.66000002622604 0 0.66000002622604
			vertex 0.66000002622604 0.21999999880791 0.13199999928474
			vertex 0.66000002622604 0 0
		endloop
	endfacet
	facet normal -1 0 0
		outer loop
			vertex 0.66000002622604 0 0.66000002622604
			vertex 0.66000002622604 0.21999999880791 0.52799999713898
			vertex 0.66000002622604 0.21999999880791 0.13199999928474
		endloop
	endfacet
	facet normal 0 0.51449575542753 -0.85749292571254
		outer loop
			vertex 0.66000002622604 0 0
			vertex 0.66000002622604 0.21999999880791 0.13199999928474
			vertex 11.900099754333 0 0
		endloop
	endfacet
	facet normal 0 -1 0
		outer loop
			vertex 0.66000002622604 0 0.66000002622604
			vertex 0.66000002622604 0 0
			vertex 11.900099754333 0 0.66000002622604
		endloop
	endfacet
	facet normal 0 0.51449584083955 0.85749287446532
		outer loop
			vertex 0.66000002622604 0 0.66000002622604
			vertex 11.900099754333 0.21999999880791 0.52799999713898
			vertex 0.66000002622604 0.21999999880791 0.52799999713898
		endloop
	endfacet
	facet normal 0 0.51449575542753 -0.85749292571254
		outer loop
			vertex 11.900099754333 0 0
			vertex 0.66000002622604 0.21999999880791 0.13199999928474
			vertex 11.900099754333 0.21999999880791 0.13199999928474
		endloop
	endfacet
	facet normal 0 -1 -0
		outer loop
			vertex 11.900099754333 0 0.66000002622604
			vertex 0.66000002622604 0 0
			vertex 11.900099754333 0 0
		endloop
	endfacet
	facet normal -0 0.51449584083955 0.85749287446532
		outer loop
			vertex 0.66000002622604 0 0.66000002622604
			vertex 11.900099754333 0 0.66000002622604
			vertex 11.900099754333 0.21999999880791 0.52799999713898
		endloop
	endfacet
	facet normal 1 0 0
		outer loop
			vertex 11.900099754333 0 0.66000002622604
			vertex 11.900099754333 0 0
			vertex 11.900099754333 0.21999999880791 0.13199999928474
		endloop
	endfacet
	facet normal 1 0 0
		outer loop
			vertex 11.900099754333 0 0.66000002622604
			vertex 11.900099754333 0.21999999880791 0.13199999928474
			vertex 11.900099754333 0.21999999880791 0.52799999713898
		endloop
	endfacet
	facet normal 0 1 0
		outer loop
			vertex 12.200099945068 14.472637176514 0
			vertex 14.611497879028 14.472637176514 0.43999999761581
			vertex 14.872381210327 14.472637176514 0.25868871808052
		endloop
	endfacet
	facet normal 0 1 0
		outer loop
			vertex 12.200099945068 14.472637176514 0
			vertex 12.200099945068 14.472637176514 0.43999999761581
			vertex 14.611497879028 14.472637176514 0.43999999761581
		endloop
	endfacet
	facet normal -1 0 0
		outer loop
			vertex 12.200099945068 14.472637176514 0.43999999761581
			vertex 12.200099945068 14.032636642456 0.43999999761581
			vertex 12.200099945068 14.472637176514 2.1159000396729
		endloop
	endfacet
	facet normal 0 -1 0
		outer loop
			vertex 12.200099945068 14.032636642456 0.43999999761581
			vertex 15.229599952698 14.032636642456 0.43999999761581
			vertex 12.200099945068 14.032636642456 2.1159000396729
		endloop
	endfacet
	facet normal 0 1 0
		outer loop
			vertex 12.200099945068 14.472637176514 0.43999999761581
			vertex 12.200099945068 14.472637176514 2.1159000396729
			vertex 14.611497879028 14.472637176514 0.43999999761581
		endloop
	endfacet
	facet normal -0 1 0
		outer loop
			vertex 15.663679122925 14.472637176514 0.20499999821186
			vertex 15.787599563599 14.472637176514 0.20499999821186
			vertex 18.68510055542 14.472637176514 0
		endloop
	endfacet
	facet normal -0 1 0
		outer loop
			vertex 15.787599563599 14.472637176514 0.20499999821186
			vertex 18.051998138428 14.472637176514 0.43999999761581
			vertex 18.68510055542 14.472637176514 0
		endloop
	endfacet
	facet normal 0 1 -0
		outer loop
			vertex 15.787599563599 14.472637176514 0.20499999821186
			vertex 15.779185295105 14.472637176514 0.21998155117035
			vertex 18.051998138428 14.472637176514 0.43999999761581
		endloop
	endfacet
	facet normal 1 0 0
		outer loop
			vertex 18.68510055542 14.121578216553 0.42770674824715
			vertex 18.68510055542 14.135925292969 0.43999999761581
			vertex 18.68510055542 14.124135017395 0.43999999761581
		endloop
	endfacet
	facet normal 0 -1 0
		outer loop
			vertex 15.229599952698 14.032636642456 0.43999999761581
			vertex 15.655599594116 14.032636642456 0.43999999761581
			vertex 12.200099945068 14.032636642456 2.1159000396729
		endloop
	endfacet
	facet normal 0 1 0
		outer loop
			vertex 14.611497879028 14.472637176514 0.43999999761581
			vertex 15.244600296021 14.472637176514 2.1159000396729
			vertex 15.229599952698 14.472637176514 0.43999999761581
		endloop
	endfacet
	facet normal 0 -1 0
		outer loop
			vertex 12.200099945068 14.032636642456 2.1159000396729
			vertex 15.655599594116 14.032636642456 0.43999999761581
			vertex 18.68510055542 14.032636642456 0.43999999761581
		endloop
	endfacet
	facet normal 0 1 0
		outer loop
			vertex 15.229599952698 14.472637176514 0.43999999761581
			vertex 15.244600296021 14.472637176514 2.1159000396729
			vertex 15.244600296021 14.472637176514 0.43999999761581
		endloop
	endfacet
	facet normal 0 1 0
		outer loop
			vertex 15.640600204468 14.472637176514 0.43999999761581
			vertex 15.640600204468 14.472637176514 2.1159000396729
			vertex 15.655599594116 14.472637176514 0.43999999761581
		endloop
	endfacet
	facet normal 0 1 -0
		outer loop
			vertex 15.655599594116 14.472637176514 0.43999999761581
			vertex 15.640600204468 14.472637176514 2.1159000396729
			vertex 18.051998138428 14.472637176514 0.43999999761581
		endloop
	endfacet
	facet normal 1 0 0
		outer loop
			vertex 18.68510055542 14.124135017395 0.43999999761581
			vertex 18.68510055542 14.032636642456 2.1159000396729
			vertex 18.68510055542 14.032636642456 0.43999999761581
		endloop
	endfacet
	facet normal 1 0 -0
		outer loop
			vertex 18.68510055542 14.135925292969 0.43999999761581
			vertex 18.68510055542 14.472637176514 2.1159000396729
			vertex 18.68510055542 14.124135017395 0.43999999761581
		endloop
	endfacet
	facet normal 1 0 -0
		outer loop
			vertex 18.68510055542 14.472637176514 0.43999999761581
			vertex 18.68510055542 14.472637176514 2.1159000396729
			vertex 18.68510055542 14.135925292969 0.43999999761581
		endloop
	endfacet
	facet normal 0 1 0
		outer loop
			vertex 18.051998138428 14.472637176514 0.43999999761581
			vertex 18.68510055542 14.472637176514 2.1159000396729
			vertex 18.68510055542 14.472637176514 0.43999999761581
		endloop
	endfacet
	facet normal -1 0 0
		outer loop
			vertex 12.200099945068 14.032636642456 0.43999999761581
			vertex 12.200099945068 14.032636642456 2.1159000396729
			vertex 12.200099945068 14.472637176514 2.1159000396729
		endloop
	endfacet
	facet normal 0 1 -0
		outer loop
			vertex 14.611497879028 14.472637176514 0.43999999761581
			vertex 12.200099945068 14.472637176514 2.1159000396729
			vertex 15.244600296021 14.472637176514 2.1159000396729
		endloop
	endfacet
	facet normal 0 -1 0
		outer loop
			vertex 12.200099945068 14.032636642456 2.1159000396729
			vertex 18.68510055542 14.032636642456 0.43999999761581
			vertex 18.68510055542 14.032636642456 2.1159000396729
		endloop
	endfacet
	facet normal 0 1 -0
		outer loop
			vertex 18.051998138428 14.472637176514 0.43999999761581
			vertex 15.640600204468 14.472637176514 2.1159000396729
			vertex 18.68510055542 14.472637176514 2.1159000396729
		endloop
	endfacet
	facet normal 1 0 -0
		outer loop
			vertex 18.68510055542 14.124135017395 0.43999999761581
			vertex 18.68510055542 14.472637176514 2.1159000396729
			vertex 18.68510055542 14.032636642456 2.1159000396729
		endloop
	endfacet
	facet normal 0 0 1
		outer loop
			vertex 12.200099945068 14.472637176514 2.1159000396729
			vertex 12.200099945068 14.032636642456 2.1159000396729
			vertex 18.68510055542 14.032636642456 2.1159000396729
		endloop
	endfacet
	facet normal -0 0 1
		outer loop
			vertex 12.200099945068 14.472637176514 2.1159000396729
			vertex 18.68510055542 14.032636642456 2.1159000396729
			vertex 15.244600296021 14.472637176514 2.1159000396729
		endloop
	endfacet
	facet normal -0 0 1
		outer loop
			vertex 15.244600296021 14.472637176514 2.1159000396729
			vertex 18.68510055542 14.032636642456 2.1159000396729
			vertex 15.640600204468 14.472637176514 2.1159000396729
		endloop
	endfacet
	facet normal -0 0 1
		outer loop
			vertex 15.640600204468 14.472637176514 2.1159000396729
			vertex 18.68510055542 14.032636642456 2.1159000396729
			vertex 18.68510055542 14.472637176514 2.1159000396729
		endloop
	endfacet
	facet normal 0 0 -1
		outer loop
			vertex 15.112600326538 14.692637443542 0
			vertex 15.640600204468 14.472637176514 0
			vertex 15.244600296021 14.472637176514 0
		endloop
	endfacet
	facet normal 0 0 -1
		outer loop
			vertex 15.112600326538 14.692637443542 0
			vertex 15.77260017395 14.692637443542 0
			vertex 15.640600204468 14.472637176514 0
		endloop
	endfacet
	facet normal 0.85749325369431 -0.51449520879086 0
		outer loop
			vertex 15.640600204468 14.472637176514 0
			vertex 15.77260017395 14.692637443542 0
			vertex 15.640600204468 14.472637176514 0.20499999821186
		endloop
	endfacet
	facet normal 0.85749325369431 -0.51449520879086 0
		outer loop
			vertex 15.77260017395 14.692637443542 0
			vertex 15.640600204468 14.472637176514 0.43999999761581
			vertex 15.640600204468 14.472637176514 0.20499999821186
		endloop
	endfacet
	facet normal -0.85749325369431 -0.51449520879086 0
		outer loop
			vertex 15.112600326538 14.692637443542 0
			vertex 15.244600296021 14.472637176514 0
			vertex 15.112600326538 14.692637443542 2.1159000396729
		endloop
	endfacet
	facet normal 0 1 0
		outer loop
			vertex 15.112600326538 14.692637443542 0
			vertex 15.77260017395 14.692637443542 2.1159000396729
			vertex 15.77260017395 14.692637443542 0
		endloop
	endfacet
	facet normal -0.85749325369431 -0.51449520879086 0
		outer loop
			vertex 15.244600296021 14.472637176514 0
			vertex 15.244600296021 14.472637176514 0.20499999821186
			vertex 15.112600326538 14.692637443542 2.1159000396729
		endloop
	endfacet
	facet normal 0.85749325369431 -0.51449520879086 0
		outer loop
			vertex 15.77260017395 14.692637443542 0
			vertex 15.640600204468 14.472637176514 2.1159000396729
			vertex 15.640600204468 14.472637176514 0.43999999761581
		endloop
	endfacet
	facet normal -0.85749325369431 -0.51449520879086 0
		outer loop
			vertex 15.244600296021 14.472637176514 0.20499999821186
			vertex 15.244600296021 14.472637176514 0.43999999761581
			vertex 15.112600326538 14.692637443542 2.1159000396729
		endloop
	endfacet
	facet normal 0 1 0
		outer loop
			vertex 15.112600326538 14.692637443542 0
			vertex 15.112600326538 14.692637443542 2.1159000396729
			vertex 15.77260017395 14.692637443542 2.1159000396729
		endloop
	endfacet
	facet normal 0.85749325369431 -0.51449520879086 0
		outer loop
			vertex 15.77260017395 14.692637443542 0
			vertex 15.77260017395 14.692637443542 2.1159000396729
			vertex 15.640600204468 14.472637176514 2.1159000396729
		endloop
	endfacet
	facet normal -0.85749325369431 -0.51449520879086 0
		outer loop
			vertex 15.244600296021 14.472637176514 0.43999999761581
			vertex 15.244600296021 14.472637176514 2.1159000396729
			vertex 15.112600326538 14.692637443542 2.1159000396729
		endloop
	endfacet
	facet normal 0 0 1
		outer loop
			vertex 15.112600326538 14.692637443542 2.1159000396729
			vertex 15.244600296021 14.472637176514 2.1159000396729
			vertex 15.640600204468 14.472637176514 2.1159000396729
		endloop
	endfacet
	facet normal -0 0 1
		outer loop
			vertex 15.112600326538 14.692637443542 2.1159000396729
			vertex 15.640600204468 14.472637176514 2.1159000396729
			vertex 15.77260017395 14.692637443542 2.1159000396729
		endloop
	endfacet
	facet normal -1 0 0
		outer loop
			vertex 12.200099945068 14.472637176514 0
			vertex 12.200099945068 1.9075371026993 0
			vertex 12.200099945068 1.9075371026993 0.43999999761581
		endloop
	endfacet
	facet normal -1 0 0
		outer loop
			vertex 12.200099945068 14.472637176514 0
			vertex 12.200099945068 1.9075371026993 0.43999999761581
			vertex 12.200099945068 2.0254347324371 0.43999999761581
		endloop
	endfacet
	facet normal 1 0 0
		outer loop
			vertex 18.68510055542 2.1275370121002 0.38105118274689
			vertex 18.68510055542 2.0254347324371 0.43999999761581
			vertex 18.68510055542 1.9379925727844 0.43999999761581
		endloop
	endfacet
	facet normal 0 0 1
		outer loop
			vertex 15.229599952698 14.032636642456 0.43999999761581
			vertex 12.200099945068 2.0254347324371 0.43999999761581
			vertex 15.229599952698 2.0254347324371 0.43999999761581
		endloop
	endfacet
	facet normal 0 0 -1
		outer loop
			vertex 12.200099945068 1.9075371026993 0
			vertex 18.68510055542 14.472637176514 0
			vertex 18.68510055542 1.9075371026993 0
		endloop
	endfacet
	facet normal 1 0 0
		outer loop
			vertex 18.68510055542 14.121578216553 0.42770674824715
			vertex 18.68510055542 2.1275370121002 0.38105118274689
			vertex 18.68510055542 1.9075371026993 0
		endloop
	endfacet
	facet normal 0 0 1
		outer loop
			vertex 18.68510055542 14.032636642456 0.43999999761581
			vertex 15.655599594116 2.0254347324371 0.43999999761581
			vertex 18.68510055542 2.0254347324371 0.43999999761581
		endloop
	endfacet
	facet normal 1 0 0
		outer loop
			vertex 18.68510055542 14.032636642456 0.43999999761581
			vertex 18.68510055542 2.0254347324371 0.43999999761581
			vertex 18.68510055542 2.1275370121002 0.38105118274689
		endloop
	endfacet
	facet normal 0 0 -1
		outer loop
			vertex 12.200099945068 14.472637176514 0
			vertex 15.244600296021 14.472637176514 0
			vertex 12.200099945068 1.9075371026993 0
		endloop
	endfacet
	facet normal -1 0 0
		outer loop
			vertex 12.200099945068 14.472637176514 0
			vertex 12.200099945068 2.0254347324371 0.43999999761581
			vertex 12.200099945068 14.032636642456 0.43999999761581
		endloop
	endfacet
	facet normal -0 0 1
		outer loop
			vertex 12.200099945068 14.032636642456 0.43999999761581
			vertex 12.200099945068 2.0254347324371 0.43999999761581
			vertex 15.229599952698 14.032636642456 0.43999999761581
		endloop
	endfacet
	facet normal -1 0 0
		outer loop
			vertex 12.200099945068 14.472637176514 0
			vertex 12.200099945068 14.032636642456 0.43999999761581
			vertex 12.200099945068 14.472637176514 0.43999999761581
		endloop
	endfacet
	facet normal 0 -0 -1
		outer loop
			vertex 15.244600296021 14.472637176514 0
			vertex 15.640600204468 14.472637176514 0
			vertex 12.200099945068 1.9075371026993 0
		endloop
	endfacet
	facet normal 0 0 -1
		outer loop
			vertex 12.200099945068 1.9075371026993 0
			vertex 15.640600204468 14.472637176514 0
			vertex 18.68510055542 14.472637176514 0
		endloop
	endfacet
	facet normal 1 0 0
		outer loop
			vertex 18.68510055542 14.472637176514 0
			vertex 18.68510055542 14.121578216553 0.42770674824715
			vertex 18.68510055542 1.9075371026993 0
		endloop
	endfacet
	facet normal -0 0 1
		outer loop
			vertex 15.655599594116 14.032636642456 0.43999999761581
			vertex 15.655599594116 2.0254347324371 0.43999999761581
			vertex 18.68510055542 14.032636642456 0.43999999761581
		endloop
	endfacet
	facet normal 1 0 0
		outer loop
			vertex 18.68510055542 14.124135017395 0.43999999761581
			vertex 18.68510055542 14.032636642456 0.43999999761581
			vertex 18.68510055542 2.1275370121002 0.38105118274689
		endloop
	endfacet
	facet normal 1 0 -0
		outer loop
			vertex 18.68510055542 14.121578216553 0.42770674824715
			vertex 18.68510055542 14.124135017395 0.43999999761581
			vertex 18.68510055542 2.1275370121002 0.38105118274689
		endloop
	endfacet
	facet normal 0 1 0
		outer loop
			vertex 12.200099945068 14.472637176514 0
			vertex 14.872381210327 14.472637176514 0.25868871808052
			vertex 15.244600296021 14.472637176514 0
		endloop
	endfacet
	facet normal 0 1 0
		outer loop
			vertex 14.872381210327 14.472637176514 0.25868871808052
			vertex 15.097599983215 14.472637176514 0.20499999821186
			vertex 15.244600296021 14.472637176514 0
		endloop
	endfacet
	facet normal 0 1 -0
		outer loop
			vertex 15.244600296021 14.472637176514 0
			vertex 15.097599983215 14.472637176514 0.20499999821186
			vertex 15.244600296021 14.472637176514 0.20499999821186
		endloop
	endfacet
	facet normal 0 1 0
		outer loop
			vertex 15.640600204468 14.472637176514 0
			vertex 15.640600204468 14.472637176514 0.20499999821186
			vertex 15.663679122925 14.472637176514 0.20499999821186
		endloop
	endfacet
	facet normal -0 1 0
		outer loop
			vertex 14.872381210327 14.472637176514 0.25868871808052
			vertex 15.229599952698 14.472637176514 0.43999999761581
			vertex 15.097599983215 14.472637176514 0.20499999821186
		endloop
	endfacet
	facet normal -0 1 0
		outer loop
			vertex 14.611497879028 14.472637176514 0.43999999761581
			vertex 15.229599952698 14.472637176514 0.43999999761581
			vertex 14.872381210327 14.472637176514 0.25868871808052
		endloop
	endfacet
	facet normal 0 1 0
		outer loop
			vertex 15.640600204468 14.472637176514 0
			vertex 15.663679122925 14.472637176514 0.20499999821186
			vertex 18.68510055542 14.472637176514 0
		endloop
	endfacet
	facet normal 0 1 -0
		outer loop
			vertex 15.779185295105 14.472637176514 0.21998155117035
			vertex 15.655599594116 14.472637176514 0.43999999761581
			vertex 18.051998138428 14.472637176514 0.43999999761581
		endloop
	endfacet
	facet normal 1 0 -0
		outer loop
			vertex 18.68510055542 14.472637176514 0
			vertex 18.68510055542 14.472637176514 0.43999999761581
			vertex 18.68510055542 14.121578216553 0.42770674824715
		endloop
	endfacet
	facet normal 0 1 -0
		outer loop
			vertex 18.68510055542 14.472637176514 0
			vertex 18.051998138428 14.472637176514 0.43999999761581
			vertex 18.68510055542 14.472637176514 0.43999999761581
		endloop
	endfacet
	facet normal 1 0 0
		outer loop
			vertex 18.68510055542 14.472637176514 0.43999999761581
			vertex 18.68510055542 14.135925292969 0.43999999761581
			vertex 18.68510055542 14.121578216553 0.42770674824715
		endloop
	endfacet
	facet normal 3.0825512170205e-08 -0.49999977879432 -0.86602553149756
		outer loop
			vertex 12.200099945068 1.9075371026993 0
			vertex 15.00267124176 1.7036874294281 0.11769269406796
			vertex 14.579648971558 1.5925568342209 0.18185392022133
		endloop
	endfacet
	facet normal -3.5326187457714e-08 -0.50000008016469 -0.86602535750133
		outer loop
			vertex 12.200099945068 1.9075371026993 0
			vertex 14.189788818359 1.4120906591415 0.28604611754417
			vertex 13.848073959351 1.1692241430283 0.42626520991325
		endloop
	endfacet
	facet normal -7.6539314564162e-09 -0.49999999681687 -0.86602540562222
		outer loop
			vertex 12.200099945068 1.9075371026993 0
			vertex 14.579648971558 1.5925568342209 0.18185392022133
			vertex 14.189788818359 1.4120906591415 0.28604611754417
		endloop
	endfacet
	facet normal 3.1286799734555e-08 -0.49999996865053 -0.86602542188406
		outer loop
			vertex 12.200099945068 1.9075371026993 0
			vertex 13.848073959351 1.1692241430283 0.42626520991325
			vertex 13.567636489868 0.87329030036926 0.59712266921997
		endloop
	endfacet
	facet normal 3.072414346465e-08 -0.49999996920851 -0.86602542156191
		outer loop
			vertex 12.200099945068 1.9075371026993 0
			vertex 13.567636489868 0.87329030036926 0.59712266921997
			vertex 13.359251976013 0.53566187620163 0.79205250740051
		endloop
	endfacet
	facet normal 2.0713926689722e-08 0.50000029519155 0.86602523335545
		outer loop
			vertex 12.200099945068 2.0254347324371 0.43999999761581
			vertex 14.579648971558 1.8125568628311 0.56290513277054
			vertex 15.00267124176 1.923687338829 0.49874386191368
		endloop
	endfacet
	facet normal -3.3471462509136e-08 -0.50000000988958 -0.86602539807469
		outer loop
			vertex 12.200099945068 1.9075371026993 0
			vertex 13.359251976013 0.53566187620163 0.79205250740051
			vertex 12.200099945068 0.21999999880791 0.97430002689362
		endloop
	endfacet
	facet normal -1 0 0
		outer loop
			vertex 12.200099945068 1.9075371026993 0
			vertex 12.200099945068 0.21999999880791 0.97430002689362
			vertex 12.200099945068 0.43999999761581 1.3553512096405
		endloop
	endfacet
	facet normal -1 0 0
		outer loop
			vertex 12.200099945068 1.9075371026993 0
			vertex 12.200099945068 0.43999999761581 1.3553512096405
			vertex 12.200099945068 1.9075371026993 0.43999999761581
		endloop
	endfacet
	facet normal -1 0 0
		outer loop
			vertex 12.200099945068 2.0254347324371 0.43999999761581
			vertex 12.200099945068 1.9075371026993 0.43999999761581
			vertex 12.200099945068 0.43999999761581 1.3553512096405
		endloop
	endfacet
	facet normal -7.8787080789575e-09 0.49999994169085 0.86602543744924
		outer loop
			vertex 12.200099945068 2.0254347324371 0.43999999761581
			vertex 13.848073959351 1.3892240524292 0.80731636285782
			vertex 14.189788818359 1.6320906877518 0.66709727048874
		endloop
	endfacet
	facet normal -3.2672103563903e-08 0.49999984762978 0.8660254917554
		outer loop
			vertex 12.200099945068 2.0254347324371 0.43999999761581
			vertex 14.189788818359 1.6320906877518 0.66709727048874
			vertex 14.579648971558 1.8125568628311 0.56290513277054
		endloop
	endfacet
	facet normal 7.759212452652e-08 0.50000010773692 0.86602534158248
		outer loop
			vertex 12.200099945068 2.0254347324371 0.43999999761581
			vertex 13.567636489868 1.0932903289795 0.97817385196686
			vertex 13.848073959351 1.3892240524292 0.80731636285782
		endloop
	endfacet
	facet normal 0 0.50000001683494 0.86602539406478
		outer loop
			vertex 12.200099945068 2.0254347324371 0.43999999761581
			vertex 12.200099945068 0.43999999761581 1.3553512096405
			vertex 13.248682975769 0.43999999761581 1.3553512096405
		endloop
	endfacet
	facet normal 0 -0.50000010207329 -0.86602534485239
		outer loop
			vertex 12.200099945068 0.21999999880791 0.97430002689362
			vertex 13.359251976013 0.53566187620163 0.79205250740051
			vertex 13.248682975769 0.21999999880791 0.97430002689362
		endloop
	endfacet
	facet normal -4.3100179343132e-08 0.49999997493739 0.86602541825434
		outer loop
			vertex 12.200099945068 2.0254347324371 0.43999999761581
			vertex 13.359251976013 0.75566190481186 1.1731036901474
			vertex 13.567636489868 1.0932903289795 0.97817385196686
		endloop
	endfacet
	facet normal 6.5679112233679e-08 0.50000004941433 0.86602537525506
		outer loop
			vertex 12.200099945068 2.0254347324371 0.43999999761581
			vertex 13.248682975769 0.43999999761581 1.3553512096405
			vertex 13.359251976013 0.75566190481186 1.1731036901474
		endloop
	endfacet
	facet normal -3.6148951415207e-08 -0.50000046937925 -0.86602513278803
		outer loop
			vertex 12.200099945068 1.9075371026993 0
			vertex 15.442600250244 1.7412115335464 0.096028096973896
			vertex 15.00267124176 1.7036874294281 0.11769269406796
		endloop
	endfacet
	facet normal 0 -0.49999994083916 -0.86602543794096
		outer loop
			vertex 12.200099945068 1.9075371026993 0
			vertex 18.68510055542 1.9075371026993 0
			vertex 15.442600250244 1.7412115335464 0.096028096973896
		endloop
	endfacet
	facet normal -0 0.49999986727696 0.86602548041211
		outer loop
			vertex 12.200099945068 2.0254347324371 0.43999999761581
			vertex 15.00267124176 1.923687338829 0.49874386191368
			vertex 15.229599952698 2.0254347324371 0.43999999761581
		endloop
	endfacet
	facet normal -0 0.50000010118278 0.86602534536653
		outer loop
			vertex 15.229599952698 2.0254347324371 0.43999999761581
			vertex 15.442600250244 1.9612115621567 0.4770792722702
			vertex 15.655599594116 2.0254347324371 0.43999999761581
		endloop
	endfacet
	facet normal -5.6225202300361e-08 0.4999999613269 0.86602542611236
		outer loop
			vertex 15.229599952698 2.0254347324371 0.43999999761581
			vertex 15.00267124176 1.923687338829 0.49874386191368
			vertex 15.442600250244 1.9612115621567 0.4770792722702
		endloop
	endfacet
	facet normal 5.6225352819521e-08 0.49999996132715 0.86602542611222
		outer loop
			vertex 15.655599594116 2.0254347324371 0.43999999761581
			vertex 15.442600250244 1.9612115621567 0.4770792722702
			vertex 15.882528305054 1.923687338829 0.49874386191368
		endloop
	endfacet
	facet normal 3.6148980843793e-08 -0.50000046937968 -0.86602513278779
		outer loop
			vertex 18.68510055542 1.9075371026993 0
			vertex 15.882528305054 1.7036874294281 0.11769269406796
			vertex 15.442600250244 1.7412115335464 0.096028096973896
		endloop
	endfacet
	facet normal -3.0825488886347e-08 -0.49999977879445 -0.86602553149748
		outer loop
			vertex 18.68510055542 1.9075371026993 0
			vertex 16.305551528931 1.5925568342209 0.18185392022133
			vertex 15.882528305054 1.7036874294281 0.11769269406796
		endloop
	endfacet
	facet normal 7.6539314564162e-09 -0.49999999681687 -0.86602540562222
		outer loop
			vertex 18.68510055542 1.9075371026993 0
			vertex 16.695411682129 1.4120906591415 0.28604611754417
			vertex 16.305551528931 1.5925568342209 0.18185392022133
		endloop
	endfacet
	facet normal 3.5326187457714e-08 -0.50000008016469 -0.86602535750133
		outer loop
			vertex 18.68510055542 1.9075371026993 0
			vertex 17.037126541138 1.1692241430283 0.42626520991325
			vertex 16.695411682129 1.4120906591415 0.28604611754417
		endloop
	endfacet
	facet normal -3.1286799734555e-08 -0.49999996865053 -0.86602542188406
		outer loop
			vertex 18.68510055542 1.9075371026993 0
			vertex 17.31756401062 0.87329030036926 0.59712266921997
			vertex 17.037126541138 1.1692241430283 0.42626520991325
		endloop
	endfacet
	facet normal -3.0724188211447e-08 -0.49999996920847 -0.86602542156194
		outer loop
			vertex 18.68510055542 1.9075371026993 0
			vertex 17.525947570801 0.53566187620163 0.79205250740051
			vertex 17.31756401062 0.87329030036926 0.59712266921997
		endloop
	endfacet
	facet normal 1 0 -0
		outer loop
			vertex 18.68510055542 1.9075371026993 0
			vertex 18.68510055542 1.9379925727844 0.43999999761581
			vertex 18.68510055542 0.21999999880791 0.97430002689362
		endloop
	endfacet
	facet normal -0 0.49999986727696 0.86602548041211
		outer loop
			vertex 15.655599594116 2.0254347324371 0.43999999761581
			vertex 15.882528305054 1.923687338829 0.49874386191368
			vertex 18.68510055542 2.0254347324371 0.43999999761581
		endloop
	endfacet
	facet normal -2.0713914826963e-08 0.50000029519145 0.86602523335551
		outer loop
			vertex 18.68510055542 2.0254347324371 0.43999999761581
			vertex 15.882528305054 1.923687338829 0.49874386191368
			vertex 16.305551528931 1.8125568628311 0.56290513277054
		endloop
	endfacet
	facet normal 1 0 0
		outer loop
			vertex 18.68510055542 1.9075371026993 0
			vertex 18.68510055542 2.1275370121002 0.38105118274689
			vertex 18.68510055542 1.9379925727844 0.43999999761581
		endloop
	endfacet
	facet normal 3.2672103563903e-08 0.49999984762978 0.8660254917554
		outer loop
			vertex 18.68510055542 2.0254347324371 0.43999999761581
			vertex 16.305551528931 1.8125568628311 0.56290513277054
			vertex 16.695411682129 1.6320906877518 0.66709727048874
		endloop
	endfacet
	facet normal 7.8787080789575e-09 0.49999994169085 0.86602543744924
		outer loop
			vertex 18.68510055542 2.0254347324371 0.43999999761581
			vertex 16.695411682129 1.6320906877518 0.66709727048874
			vertex 17.037126541138 1.3892240524292 0.80731636285782
		endloop
	endfacet
	facet normal 1.264983347433e-07 -0.50000006884122 -0.86602536403893
		outer loop
			vertex 18.68510055542 1.9075371026993 0
			vertex 17.636516571045 0.21999999880791 0.97430002689362
			vertex 17.525947570801 0.53566187620163 0.79205250740051
		endloop
	endfacet
	facet normal 0 -0.50000000988958 -0.86602539807469
		outer loop
			vertex 18.68510055542 1.9075371026993 0
			vertex 18.68510055542 0.21999999880791 0.97430002689362
			vertex 17.636516571045 0.21999999880791 0.97430002689362
		endloop
	endfacet
	facet normal -7.759212452652e-08 0.50000010773692 0.86602534158248
		outer loop
			vertex 18.68510055542 2.0254347324371 0.43999999761581
			vertex 17.037126541138 1.3892240524292 0.80731636285782
			vertex 17.31756401062 1.0932903289795 0.97817385196686
		endloop
	endfacet
	facet normal 1 0 0
		outer loop
			vertex 18.68510055542 2.0254347324371 0.43999999761581
			vertex 18.68510055542 0.43999999761581 1.3553512096405
			vertex 18.68510055542 1.9379925727844 0.43999999761581
		endloop
	endfacet
	facet normal 1 0 0
		outer loop
			vertex 18.68510055542 1.9379925727844 0.43999999761581
			vertex 18.68510055542 0.43999999761581 1.3553512096405
			vertex 18.68510055542 0.21999999880791 0.97430002689362
		endloop
	endfacet
	facet normal 5.0223961111067e-09 0.50000001683494 0.86602539406478
		outer loop
			vertex 18.68510055542 2.0254347324371 0.43999999761581
			vertex 17.31756401062 1.0932903289795 0.97817385196686
			vertex 18.68510055542 0.43999999761581 1.3553512096405
		endloop
	endfacet
	facet normal 0 -0.86602540784495 0.49999999296699
		outer loop
			vertex 12.200099945068 0.21999999880791 0.97430002689362
			vertex 13.248682975769 0.43999999761581 1.3553512096405
			vertex 12.200099945068 0.43999999761581 1.3553512096405
		endloop
	endfacet
	facet normal 0 -0.86602540784495 0.49999999296699
		outer loop
			vertex 12.200099945068 0.21999999880791 0.97430002689362
			vertex 13.248682975769 0.21999999880791 0.97430002689362
			vertex 13.248682975769 0.43999999761581 1.3553512096405
		endloop
	endfacet
	facet normal -4.8744031689262e-08 0.49999993242275 0.86602544280018
		outer loop
			vertex 18.68510055542 0.43999999761581 1.3553512096405
			vertex 17.31756401062 1.0932903289795 0.97817385196686
			vertex 17.525947570801 0.75566190481186 1.1731036901474
		endloop
	endfacet
	facet normal 0 -0.86602540784495 0.49999999296699
		outer loop
			vertex 18.68510055542 0.21999999880791 0.97430002689362
			vertex 18.68510055542 0.43999999761581 1.3553512096405
			vertex 17.636516571045 0.21999999880791 0.97430002689362
		endloop
	endfacet
	facet normal 0 -0.86602540784495 0.49999999296699
		outer loop
			vertex 18.68510055542 0.43999999761581 1.3553512096405
			vertex 17.636516571045 0.43999999761581 1.3553512096405
			vertex 17.636516571045 0.21999999880791 0.97430002689362
		endloop
	endfacet
	facet normal 0 0.50000006666873 0.86602536529323
		outer loop
			vertex 18.68510055542 0.43999999761581 1.3553512096405
			vertex 17.525947570801 0.75566190481186 1.1731036901474
			vertex 17.636516571045 0.43999999761581 1.3553512096405
		endloop
	endfacet
	facet normal 0.87187267280999 0 -0.4897326233846
		outer loop
			vertex 15.229599952698 2.0254347324371 0.43999999761581
			vertex 15.229599952698 1.9155797958374 0.43999999761581
			vertex 15.097599983215 1.7648903131485 0.20499999821186
		endloop
	endfacet
	facet normal 0 0 -1
		outer loop
			vertex 15.229599952698 2.0254347324371 0.43999999761581
			vertex 15.442600250244 1.9398038387299 0.43999999761581
			vertex 15.229599952698 1.9155797958374 0.43999999761581
		endloop
	endfacet
	facet normal 0 0 -1
		outer loop
			vertex 15.229599952698 2.0254347324371 0.43999999761581
			vertex 15.655599594116 2.0254347324371 0.43999999761581
			vertex 15.442600250244 1.9398038387299 0.43999999761581
		endloop
	endfacet
	facet normal 0 -0 -1
		outer loop
			vertex 15.655599594116 2.0254347324371 0.43999999761581
			vertex 15.655599594116 1.9155797958374 0.43999999761581
			vertex 15.442600250244 1.9398038387299 0.43999999761581
		endloop
	endfacet
	facet normal 0 0 1
		outer loop
			vertex 15.097599983215 14.472637176514 0.20499999821186
			vertex 15.097599983215 1.7648903131485 0.20499999821186
			vertex 15.442600250244 1.8041265010834 0.20499999821186
		endloop
	endfacet
	facet normal 0 0 1
		outer loop
			vertex 15.787599563599 14.472637176514 0.20499999821186
			vertex 15.442600250244 1.8041265010834 0.20499999821186
			vertex 15.787599563599 1.7648903131485 0.20499999821186
		endloop
	endfacet
	facet normal 0.87187267280999 0 -0.4897326233846
		outer loop
			vertex 15.097599983215 14.472637176514 0.20499999821186
			vertex 15.229599952698 2.0254347324371 0.43999999761581
			vertex 15.097599983215 1.7648903131485 0.20499999821186
		endloop
	endfacet
	facet normal -0.87187267280999 -0 -0.4897326233846
		outer loop
			vertex 15.787599563599 14.472637176514 0.20499999821186
			vertex 15.787599563599 1.7648903131485 0.20499999821186
			vertex 15.655599594116 1.9155797958374 0.43999999761581
		endloop
	endfacet
	facet normal -0.87187115040365 0 -0.48973533371997
		outer loop
			vertex 15.779185295105 14.472637176514 0.21998155117035
			vertex 15.655599594116 1.9155797958374 0.43999999761581
			vertex 15.655599594116 2.0254347324371 0.43999999761581
		endloop
	endfacet
	facet normal -0 0 1
		outer loop
			vertex 15.097599983215 14.472637176514 0.20499999821186
			vertex 15.442600250244 1.8041265010834 0.20499999821186
			vertex 15.244600296021 14.472637176514 0.20499999821186
		endloop
	endfacet
	facet normal -0 0 1
		outer loop
			vertex 15.244600296021 14.472637176514 0.20499999821186
			vertex 15.442600250244 1.8041265010834 0.20499999821186
			vertex 15.640600204468 14.472637176514 0.20499999821186
		endloop
	endfacet
	facet normal -0 0 1
		outer loop
			vertex 15.640600204468 14.472637176514 0.20499999821186
			vertex 15.442600250244 1.8041265010834 0.20499999821186
			vertex 15.663679122925 14.472637176514 0.20499999821186
		endloop
	endfacet
	facet normal -0 0 1
		outer loop
			vertex 15.663679122925 14.472637176514 0.20499999821186
			vertex 15.442600250244 1.8041265010834 0.20499999821186
			vertex 15.787599563599 14.472637176514 0.20499999821186
		endloop
	endfacet
	facet normal -0.87189503044591 9.7996692705662e-07 -0.48969281787949
		outer loop
			vertex 15.787599563599 14.472637176514 0.20499999821186
			vertex 15.655599594116 1.9155797958374 0.43999999761581
			vertex 15.779185295105 14.472637176514 0.21998155117035
		endloop
	endfacet
	facet normal 0.87187267280999 0 -0.4897326233846
		outer loop
			vertex 15.097599983215 14.472637176514 0.20499999821186
			vertex 15.229599952698 14.032636642456 0.43999999761581
			vertex 15.229599952698 2.0254347324371 0.43999999761581
		endloop
	endfacet
	facet normal -0.87187115040365 0 -0.48973533371997
		outer loop
			vertex 15.779185295105 14.472637176514 0.21998155117035
			vertex 15.655599594116 2.0254347324371 0.43999999761581
			vertex 15.655599594116 14.032636642456 0.43999999761581
		endloop
	endfacet
	facet normal 0 -1 0
		outer loop
			vertex 15.244600296021 14.472637176514 0.20499999821186
			vertex 15.640600204468 14.472637176514 0.20499999821186
			vertex 15.244600296021 14.472637176514 0.43999999761581
		endloop
	endfacet
	facet normal 0.87187267280999 0 -0.4897326233846
		outer loop
			vertex 15.097599983215 14.472637176514 0.20499999821186
			vertex 15.229599952698 14.472637176514 0.43999999761581
			vertex 15.229599952698 14.032636642456 0.43999999761581
		endloop
	endfacet
	facet normal -0.87187115040365 0 -0.48973533371997
		outer loop
			vertex 15.779185295105 14.472637176514 0.21998155117035
			vertex 15.655599594116 14.032636642456 0.43999999761581
			vertex 15.655599594116 14.472637176514 0.43999999761581
		endloop
	endfacet
	facet normal 0 -1 0
		outer loop
			vertex 15.244600296021 14.472637176514 0.43999999761581
			vertex 15.640600204468 14.472637176514 0.20499999821186
			vertex 15.640600204468 14.472637176514 0.43999999761581
		endloop
	endfacet
	facet normal 0 0 -1
		outer loop
			vertex 15.229599952698 14.472637176514 0.43999999761581
			vertex 15.655599594116 14.032636642456 0.43999999761581
			vertex 15.229599952698 14.032636642456 0.43999999761581
		endloop
	endfacet
	facet normal 0 0 -1
		outer loop
			vertex 15.229599952698 14.472637176514 0.43999999761581
			vertex 15.244600296021 14.472637176514 0.43999999761581
			vertex 15.655599594116 14.032636642456 0.43999999761581
		endloop
	endfacet
	facet normal 0 0 -1
		outer loop
			vertex 15.244600296021 14.472637176514 0.43999999761581
			vertex 15.640600204468 14.472637176514 0.43999999761581
			vertex 15.655599594116 14.032636642456 0.43999999761581
		endloop
	endfacet
	facet normal 0 0 -1
		outer loop
			vertex 15.640600204468 14.472637176514 0.43999999761581
			vertex 15.655599594116 14.472637176514 0.43999999761581
			vertex 15.655599594116 14.032636642456 0.43999999761581
		endloop
	endfacet
	facet normal 0.88192111705292 -0.40824177609174 0.23569852682948
		outer loop
			vertex 13.359251976013 0.53566187620163 0.79205250740051
			vertex 13.567636489868 0.87329030036926 0.59712266921997
			vertex 13.567636489868 1.0932903289795 0.97817385196686
		endloop
	endfacet
	facet normal 0.77301128180645 -0.5493998735075 0.31719605481451
		outer loop
			vertex 13.848073959351 1.1692241430283 0.42626520991325
			vertex 13.848073959351 1.3892240524292 0.80731636285782
			vertex 13.567636489868 0.87329030036926 0.59712266921997
		endloop
	endfacet
	facet normal 0.63439339879907 -0.66944666659268 0.38650507907157
		outer loop
			vertex 13.848073959351 1.1692241430283 0.42626520991325
			vertex 14.189788818359 1.6320906877518 0.66709727048874
			vertex 13.848073959351 1.3892240524292 0.80731636285782
		endloop
	endfacet
	facet normal 0.95693985326816 -0.25139527488063 0.14514314656505
		outer loop
			vertex 13.248682975769 0.21999999880791 0.97430002689362
			vertex 13.359251976013 0.53566187620163 0.79205250740051
			vertex 13.359251976013 0.75566190481186 1.1731036901474
		endloop
	endfacet
	facet normal 0.88192111705292 -0.40824177609174 0.23569852682948
		outer loop
			vertex 13.359251976013 0.53566187620163 0.79205250740051
			vertex 13.567636489868 1.0932903289795 0.97817385196686
			vertex 13.359251976013 0.75566190481186 1.1731036901474
		endloop
	endfacet
	facet normal 0.77301120138333 -0.54939989469236 0.31719621411348
		outer loop
			vertex 13.567636489868 0.87329030036926 0.59712266921997
			vertex 13.848073959351 1.3892240524292 0.80731636285782
			vertex 13.567636489868 1.0932903289795 0.97817385196686
		endloop
	endfacet
	facet normal 0.098017101315143 -0.861855544765 0.49759186871129
		outer loop
			vertex 15.097599983215 1.7648903131485 0.20499999821186
			vertex 15.00267124176 1.7036874294281 0.11769269406796
			vertex 15.442600250244 1.8041265010834 0.20499999821186
		endloop
	endfacet
	facet normal 0.098016917508321 -0.86185523601158 0.49759243969497
		outer loop
			vertex 15.00267124176 1.7036874294281 0.11769269406796
			vertex 15.442600250244 1.7412115335464 0.096028096973896
			vertex 15.442600250244 1.8041265010834 0.20499999821186
		endloop
	endfacet
	facet normal -0.098017127947559 -0.86185555451041 0.4975918465856
		outer loop
			vertex 15.787599563599 1.7648903131485 0.20499999821186
			vertex 15.442600250244 1.7412115335464 0.096028096973896
			vertex 15.882528305054 1.7036874294281 0.11769269406796
		endloop
	endfacet
	facet normal -0.098017333116108 -0.86185520056188 0.49759241922808
		outer loop
			vertex 15.442600250244 1.7412115335464 0.096028096973896
			vertex 15.787599563599 1.7648903131485 0.20499999821186
			vertex 15.442600250244 1.8041265010834 0.20499999821186
		endloop
	endfacet
	facet normal 0.47139638045684 -0.76376637667548 0.44096074014838
		outer loop
			vertex 14.579648971558 1.5925568342209 0.18185392022133
			vertex 14.579648971558 1.8125568628311 0.56290513277054
			vertex 14.189788818359 1.4120906591415 0.28604611754417
		endloop
	endfacet
	facet normal 0.29028494428675 -0.82873465048122 0.47846998883128
		outer loop
			vertex 14.579648971558 1.5925568342209 0.18185392022133
			vertex 15.00267124176 1.7036874294281 0.11769269406796
			vertex 15.00267124176 1.923687338829 0.49874386191368
		endloop
	endfacet
	facet normal 0.098016650309708 -0.86185537973169 0.49759224339775
		outer loop
			vertex 15.097599983215 1.7648903131485 0.20499999821186
			vertex 15.00267124176 1.923687338829 0.49874386191368
			vertex 15.00267124176 1.7036874294281 0.11769269406796
		endloop
	endfacet
	facet normal 0.63439325924808 -0.66944667508891 0.38650529340876
		outer loop
			vertex 14.189788818359 1.4120906591415 0.28604611754417
			vertex 14.189788818359 1.6320906877518 0.66709727048874
			vertex 13.848073959351 1.1692241430283 0.42626520991325
		endloop
	endfacet
	facet normal 0.47139632802066 -0.76376637108077 0.44096080589407
		outer loop
			vertex 14.189788818359 1.4120906591415 0.28604611754417
			vertex 14.579648971558 1.8125568628311 0.56290513277054
			vertex 14.189788818359 1.6320906877518 0.66709727048874
		endloop
	endfacet
	facet normal 0.29028477672784 -0.82873460654136 0.47847016659432
		outer loop
			vertex 14.579648971558 1.5925568342209 0.18185392022133
			vertex 15.00267124176 1.923687338829 0.49874386191368
			vertex 14.579648971558 1.8125568628311 0.56290513277054
		endloop
	endfacet
	facet normal -0.098016650309708 -0.86185537973169 0.49759224339775
		outer loop
			vertex 15.787599563599 1.7648903131485 0.20499999821186
			vertex 15.882528305054 1.7036874294281 0.11769269406796
			vertex 15.882528305054 1.923687338829 0.49874386191368
		endloop
	endfacet
	facet normal -0.29028434500622 -0.82873471995715 0.47847023207495
		outer loop
			vertex 15.882528305054 1.7036874294281 0.11769269406796
			vertex 16.305551528931 1.5925568342209 0.18185392022133
			vertex 16.305551528931 1.8125568628311 0.56290513277054
		endloop
	endfacet
	facet normal -0.29028417744759 -0.82873485193435 0.47847010514025
		outer loop
			vertex 15.882528305054 1.7036874294281 0.11769269406796
			vertex 16.305551528931 1.8125568628311 0.56290513277054
			vertex 15.882528305054 1.923687338829 0.49874386191368
		endloop
	endfacet
	facet normal 0.098017445093509 -0.86185519782598 0.49759240190911
		outer loop
			vertex 15.097599983215 1.7648903131485 0.20499999821186
			vertex 15.229599952698 1.9155797958374 0.43999999761581
			vertex 15.00267124176 1.923687338829 0.49874386191368
		endloop
	endfacet
	facet normal -0.098017445093509 -0.86185519782598 0.49759240190911
		outer loop
			vertex 15.787599563599 1.7648903131485 0.20499999821186
			vertex 15.882528305054 1.923687338829 0.49874386191368
			vertex 15.655599594116 1.9155797958374 0.43999999761581
		endloop
	endfacet
	facet normal 0.098016861400817 -0.86185533668448 0.49759227637657
		outer loop
			vertex 15.442600250244 1.9612115621567 0.4770792722702
			vertex 15.229599952698 1.9155797958374 0.43999999761581
			vertex 15.442600250244 1.9398038387299 0.43999999761581
		endloop
	endfacet
	facet normal -0.098017296041139 -0.86185529961139 0.49759225497242
		outer loop
			vertex 15.655599594116 1.9155797958374 0.43999999761581
			vertex 15.442600250244 1.9612115621567 0.4770792722702
			vertex 15.442600250244 1.9398038387299 0.43999999761581
		endloop
	endfacet
	facet normal 0.09801714045872 -0.86185585920195 0.49759131637879
		outer loop
			vertex 15.229599952698 1.9155797958374 0.43999999761581
			vertex 15.442600250244 1.9612115621567 0.4770792722702
			vertex 15.00267124176 1.923687338829 0.49874386191368
		endloop
	endfacet
	facet normal -0.098017350898518 -0.86185540232778 0.49759206625634
		outer loop
			vertex 15.655599594116 1.9155797958374 0.43999999761581
			vertex 15.882528305054 1.923687338829 0.49874386191368
			vertex 15.442600250244 1.9612115621567 0.4770792722702
		endloop
	endfacet
	facet normal -0.47139638045684 -0.76376634680808 0.44096079188022
		outer loop
			vertex 16.305551528931 1.5925568342209 0.18185392022133
			vertex 16.695411682129 1.4120906591415 0.28604611754417
			vertex 16.695411682129 1.6320906877518 0.66709727048874
		endloop
	endfacet
	facet normal -0.63439325924807 -0.6694467657756 0.38650513633483
		outer loop
			vertex 16.695411682129 1.4120906591415 0.28604611754417
			vertex 17.037126541138 1.1692241430283 0.42626520991325
			vertex 17.037126541138 1.3892240524292 0.80731636285782
		endloop
	endfacet
	facet normal -0.47139632802067 -0.76376640094817 0.44096075416222
		outer loop
			vertex 16.305551528931 1.5925568342209 0.18185392022133
			vertex 16.695411682129 1.6320906877518 0.66709727048874
			vertex 16.305551528931 1.8125568628311 0.56290513277054
		endloop
	endfacet
	facet normal -0.63439339879906 -0.66944657590603 0.38650523614548
		outer loop
			vertex 16.695411682129 1.4120906591415 0.28604611754417
			vertex 17.037126541138 1.3892240524292 0.80731636285782
			vertex 16.695411682129 1.6320906877518 0.66709727048874
		endloop
	endfacet
	facet normal -0.77301128180645 -0.54939980982525 0.31719616511542
		outer loop
			vertex 17.037126541138 1.1692241430283 0.42626520991325
			vertex 17.31756401062 0.87329030036926 0.59712266921997
			vertex 17.31756401062 1.0932903289795 0.97817385196686
		endloop
	endfacet
	facet normal -0.77301120138332 -0.54939995837464 0.31719610381256
		outer loop
			vertex 17.31756401062 1.0932903289795 0.97817385196686
			vertex 17.037126541138 1.3892240524292 0.80731636285782
			vertex 17.037126541138 1.1692241430283 0.42626520991325
		endloop
	endfacet
	facet normal -0.88192201393988 -0.40824032293575 0.23569768784939
		outer loop
			vertex 17.31756401062 0.87329030036926 0.59712266921997
			vertex 17.525947570801 0.53566187620163 0.79205250740051
			vertex 17.525947570801 0.75566190481186 1.1731036901474
		endloop
	endfacet
	facet normal -0.88192201393988 -0.40824032293575 0.23569768784939
		outer loop
			vertex 17.525947570801 0.75566190481186 1.1731036901474
			vertex 17.31756401062 1.0932903289795 0.97817385196686
			vertex 17.31756401062 0.87329030036926 0.59712266921997
		endloop
	endfacet
	facet normal -0.95693985326816 -0.25139528339446 0.14514313181868
		outer loop
			vertex 17.636516571045 0.21999999880791 0.97430002689362
			vertex 17.636516571045 0.43999999761581 1.3553512096405
			vertex 17.525947570801 0.53566187620163 0.79205250740051
		endloop
	endfacet
	facet normal 0.95693985897804 -0.25139526709341 0.14514312240726
		outer loop
			vertex 13.248682975769 0.43999999761581 1.3553512096405
			vertex 13.248682975769 0.21999999880791 0.97430002689362
			vertex 13.359251976013 0.75566190481186 1.1731036901474
		endloop
	endfacet
	facet normal -0.95693985897804 -0.25139525857958 0.14514313715363
		outer loop
			vertex 17.636516571045 0.43999999761581 1.3553512096405
			vertex 17.525947570801 0.75566190481186 1.1731036901474
			vertex 17.525947570801 0.53566187620163 0.79205250740051
		endloop
	endfacet
endsolid