solid csg_export
	facet normal -1 0 0
		outer loop
			vertex 0 11.006537437439 0
			vertex 0 10.656537055969 0
			vertex 0 10.656537055969 0.34999999403954
		endloop
	endfacet
	facet normal -1 0 0
		outer loop
			vertex 0 11.006537437439 0
			vertex 0 10.656537055969 0.34999999403954
			vertex 0 10.656537055969 1.6297999620438
		endloop
	endfacet
	facet normal 0 1 0
		outer loop
			vertex 0 11.006537437439 0
			vertex 0 11.006537437439 1.6297999620438
			vertex 1.8688943386078 11.006537437439 0.34999999403954
		endloop
	endfacet
	facet normal 0 -1 0
		outer loop
			vertex 0 10.656537055969 0.34999999403954
			vertex 2.3650000095367 10.656537055969 0.34999999403954
			vertex 0 10.656537055969 1.6297999620438
		endloop
	endfacet
	facet normal 0 1 0
		outer loop
			vertex 0 11.006537437439 0
			vertex 1.8688943386078 11.006537437439 0.34999999403954
			vertex 2.0781898498535 11.006537437439 0.2066765576601
		endloop
	endfacet
	facet normal 0 -1 0
		outer loop
			vertex 2.3650000095367 10.656537055969 0.34999999403954
			vertex 2.710000038147 10.656537055969 0.34999999403954
			vertex 0 10.656537055969 1.6297999620438
		endloop
	endfacet
	facet normal 0 1 0
		outer loop
			vertex 1.8688943386078 11.006537437439 0.34999999403954
			vertex 2.3800001144409 11.006537437439 1.6297999620438
			vertex 2.3650000095367 11.006537437439 0.34999999403954
		endloop
	endfacet
	facet normal 0 1 0
		outer loop
			vertex 2.3650000095367 11.006537437439 0.34999999403954
			vertex 2.3800001144409 11.006537437439 1.6297999620438
			vertex 2.3800001144409 11.006537437439 0.34999999403954
		endloop
	endfacet
	facet normal -1 0 0
		outer loop
			vertex 0 11.006537437439 0
			vertex 0 10.656537055969 1.6297999620438
			vertex 0 11.006537437439 1.6297999620438
		endloop
	endfacet
	facet normal 0 1 -0
		outer loop
			vertex 1.8688943386078 11.006537437439 0.34999999403954
			vertex 0 11.006537437439 1.6297999620438
			vertex 2.3800001144409 11.006537437439 1.6297999620438
		endloop
	endfacet
	facet normal 0 0 1
		outer loop
			vertex 0 11.006537437439 1.6297999620438
			vertex 0 10.656537055969 1.6297999620438
			vertex 5.0749998092651 10.656537055969 1.6297999620438
		endloop
	endfacet
	facet normal -0 0 1
		outer loop
			vertex 0 11.006537437439 1.6297999620438
			vertex 5.0749998092651 10.656537055969 1.6297999620438
			vertex 2.3800001144409 11.006537437439 1.6297999620438
		endloop
	endfacet
	facet normal 0 0 -1
		outer loop
			vertex 0 10.656537055969 0
			vertex 5.0749998092651 11.006537437439 0
			vertex 5.0749998092651 10.656537055969 0
		endloop
	endfacet
	facet normal -0 1 0
		outer loop
			vertex 2.7550001144409 11.006537437439 0.15999999642372
			vertex 2.8150000572205 11.006537437439 0.15999999642372
			vertex 5.0749998092651 11.006537437439 0
		endloop
	endfacet
	facet normal 0 1 -0
		outer loop
			vertex 2.8150000572205 11.006537437439 0.15999999642372
			vertex 2.8065807819366 11.006537437439 0.17523467540741
			vertex 4.5638942718506 11.006537437439 0.34999999403954
		endloop
	endfacet
	facet normal 0 -1 0
		outer loop
			vertex 0 10.656537055969 1.6297999620438
			vertex 2.710000038147 10.656537055969 0.34999999403954
			vertex 5.0749998092651 10.656537055969 0.34999999403954
		endloop
	endfacet
	facet normal 0 1 0
		outer loop
			vertex 2.6949999332428 11.006537437439 0.34999999403954
			vertex 2.6949999332428 11.006537437439 1.6297999620438
			vertex 2.710000038147 11.006537437439 0.34999999403954
		endloop
	endfacet
	facet normal 0 1 -0
		outer loop
			vertex 2.710000038147 11.006537437439 0.34999999403954
			vertex 2.6949999332428 11.006537437439 1.6297999620438
			vertex 4.5638942718506 11.006537437439 0.34999999403954
		endloop
	endfacet
	facet normal -0 1 0
		outer loop
			vertex 2.8150000572205 11.006537437439 0.15999999642372
			vertex 4.5638942718506 11.006537437439 0.34999999403954
			vertex 5.0749998092651 11.006537437439 0
		endloop
	endfacet
	facet normal 1 0 -0
		outer loop
			vertex 5.0749998092651 11.006537437439 0
			vertex 5.0749998092651 11.006537437439 1.6297999620438
			vertex 5.0749998092651 10.656537055969 0
		endloop
	endfacet
	facet normal 0 1 -0
		outer loop
			vertex 5.0749998092651 11.006537437439 0
			vertex 4.5638942718506 11.006537437439 0.34999999403954
			vertex 5.0749998092651 11.006537437439 1.6297999620438
		endloop
	endfacet
	facet normal 1 0 0
		outer loop
			vertex 5.0749998092651 10.656537055969 0
			vertex 5.0749998092651 11.006537437439 1.6297999620438
			vertex 5.0749998092651 10.656537055969 0.34999999403954
		endloop
	endfacet
	facet normal 0 -1 0
		outer loop
			vertex 0 10.656537055969 1.6297999620438
			vertex 5.0749998092651 10.656537055969 0.34999999403954
			vertex 5.0749998092651 10.656537055969 1.6297999620438
		endloop
	endfacet
	facet normal -0 0 1
		outer loop
			vertex 2.3800001144409 11.006537437439 1.6297999620438
			vertex 5.0749998092651 10.656537055969 1.6297999620438
			vertex 2.6949999332428 11.006537437439 1.6297999620438
		endloop
	endfacet
	facet normal 0 1 -0
		outer loop
			vertex 4.5638942718506 11.006537437439 0.34999999403954
			vertex 2.6949999332428 11.006537437439 1.6297999620438
			vertex 5.0749998092651 11.006537437439 1.6297999620438
		endloop
	endfacet
	facet normal 1 0 0
		outer loop
			vertex 5.0749998092651 10.656537055969 0.34999999403954
			vertex 5.0749998092651 11.006537437439 1.6297999620438
			vertex 5.0749998092651 10.656537055969 1.6297999620438
		endloop
	endfacet
	facet normal -0 0 1
		outer loop
			vertex 2.6949999332428 11.006537437439 1.6297999620438
			vertex 5.0749998092651 10.656537055969 1.6297999620438
			vertex 5.0749998092651 11.006537437439 1.6297999620438
		endloop
	endfacet
	facet normal 0 0 -1
		outer loop
			vertex 2.2750000953674 11.1815366745 0
			vertex 2.6949999332428 11.006537437439 0
			vertex 2.3800001144409 11.006537437439 0
		endloop
	endfacet
	facet normal -0.85749189490633 -0.51449747343398 0
		outer loop
			vertex 2.2750000953674 11.1815366745 0
			vertex 2.3800001144409 11.006537437439 0
			vertex 2.2750000953674 11.1815366745 1.6297999620438
		endloop
	endfacet
	facet normal -0.85749189490633 -0.51449747343398 0
		outer loop
			vertex 2.3800001144409 11.006537437439 0
			vertex 2.3800001144409 11.006537437439 0.15999999642372
			vertex 2.2750000953674 11.1815366745 1.6297999620438
		endloop
	endfacet
	facet normal -0.85749189490633 -0.51449747343398 0
		outer loop
			vertex 2.3800001144409 11.006537437439 0.15999999642372
			vertex 2.3800001144409 11.006537437439 0.34999999403954
			vertex 2.2750000953674 11.1815366745 1.6297999620438
		endloop
	endfacet
	facet normal 0 1 0
		outer loop
			vertex 2.2750000953674 11.1815366745 0
			vertex 2.2750000953674 11.1815366745 1.6297999620438
			vertex 2.7999999523163 11.1815366745 1.6297999620438
		endloop
	endfacet
	facet normal -0.85749189490633 -0.51449747343398 0
		outer loop
			vertex 2.3800001144409 11.006537437439 0.34999999403954
			vertex 2.3800001144409 11.006537437439 1.6297999620438
			vertex 2.2750000953674 11.1815366745 1.6297999620438
		endloop
	endfacet
	facet normal 0 0 1
		outer loop
			vertex 2.2750000953674 11.1815366745 1.6297999620438
			vertex 2.3800001144409 11.006537437439 1.6297999620438
			vertex 2.6949999332428 11.006537437439 1.6297999620438
		endloop
	endfacet
	facet normal 0 0 -1
		outer loop
			vertex 2.2750000953674 11.1815366745 0
			vertex 2.7999999523163 11.1815366745 0
			vertex 2.6949999332428 11.006537437439 0
		endloop
	endfacet
	facet normal 0.85749189490633 -0.51449747343398 0
		outer loop
			vertex 2.6949999332428 11.006537437439 0
			vertex 2.7999999523163 11.1815366745 0
			vertex 2.6949999332428 11.006537437439 0.15999999642372
		endloop
	endfacet
	facet normal 0.85749189490633 -0.51449747343398 0
		outer loop
			vertex 2.7999999523163 11.1815366745 0
			vertex 2.6949999332428 11.006537437439 0.34999999403954
			vertex 2.6949999332428 11.006537437439 0.15999999642372
		endloop
	endfacet
	facet normal 0 1 0
		outer loop
			vertex 2.2750000953674 11.1815366745 0
			vertex 2.7999999523163 11.1815366745 1.6297999620438
			vertex 2.7999999523163 11.1815366745 0
		endloop
	endfacet
	facet normal 0.85749189490633 -0.51449747343398 0
		outer loop
			vertex 2.7999999523163 11.1815366745 0
			vertex 2.6949999332428 11.006537437439 1.6297999620438
			vertex 2.6949999332428 11.006537437439 0.34999999403954
		endloop
	endfacet
	facet normal 0.85749189490633 -0.51449747343398 0
		outer loop
			vertex 2.7999999523163 11.1815366745 0
			vertex 2.7999999523163 11.1815366745 1.6297999620438
			vertex 2.6949999332428 11.006537437439 1.6297999620438
		endloop
	endfacet
	facet normal -0 0 1
		outer loop
			vertex 2.2750000953674 11.1815366745 1.6297999620438
			vertex 2.6949999332428 11.006537437439 1.6297999620438
			vertex 2.7999999523163 11.1815366745 1.6297999620438
		endloop
	endfacet
	facet normal 0 0 -1
		outer loop
			vertex 0 11.006537437439 0
			vertex 2.3800001144409 11.006537437439 0
			vertex 0 10.656537055969 0
		endloop
	endfacet
	facet normal -1 0 0
		outer loop
			vertex 0 10.656537055969 0
			vertex 0 2.0375370979309 0.30310890078545
			vertex 0 10.656537055969 0.34999999403954
		endloop
	endfacet
	facet normal -0 0 1
		outer loop
			vertex 0 10.656537055969 0.34999999403954
			vertex 0 1.9563193321228 0.34999999403954
			vertex 2.3650000095367 10.656537055969 0.34999999403954
		endloop
	endfacet
	facet normal 0 1 0
		outer loop
			vertex 0 11.006537437439 0
			vertex 2.0781898498535 11.006537437439 0.2066765576601
			vertex 2.3800001144409 11.006537437439 0
		endloop
	endfacet
	facet normal 0 0 -1
		outer loop
			vertex 0 10.656537055969 0
			vertex 2.3800001144409 11.006537437439 0
			vertex 2.6949999332428 11.006537437439 0
		endloop
	endfacet
	facet normal 0 1 0
		outer loop
			vertex 2.3800001144409 11.006537437439 0
			vertex 2.0781898498535 11.006537437439 0.2066765576601
			vertex 2.2599999904633 11.006537437439 0.15999999642372
		endloop
	endfacet
	facet normal 0 1 -0
		outer loop
			vertex 2.3800001144409 11.006537437439 0
			vertex 2.2599999904633 11.006537437439 0.15999999642372
			vertex 2.3800001144409 11.006537437439 0.15999999642372
		endloop
	endfacet
	facet normal -0 1 0
		outer loop
			vertex 1.8688943386078 11.006537437439 0.34999999403954
			vertex 2.3650000095367 11.006537437439 0.34999999403954
			vertex 2.0781898498535 11.006537437439 0.2066765576601
		endloop
	endfacet
	facet normal 0 1 -0
		outer loop
			vertex 2.2599999904633 11.006537437439 0.15999999642372
			vertex 2.0781898498535 11.006537437439 0.2066765576601
			vertex 2.3650000095367 11.006537437439 0.34999999403954
		endloop
	endfacet
	facet normal -1 0 0
		outer loop
			vertex 0 10.656537055969 0
			vertex 0 1.8625371456146 0
			vertex 0 2.0375370979309 0.30310890078545
		endloop
	endfacet
	facet normal -1 -0 0
		outer loop
			vertex 0 10.656537055969 0.34999999403954
			vertex 0 2.0375370979309 0.30310890078545
			vertex 0 1.9563193321228 0.34999999403954
		endloop
	endfacet
	facet normal 0 0 -1
		outer loop
			vertex 0 10.656537055969 0
			vertex 5.0749998092651 1.8625371456146 0
			vertex 0 1.8625371456146 0
		endloop
	endfacet
	facet normal 0 0 1
		outer loop
			vertex 2.3650000095367 10.656537055969 0.34999999403954
			vertex 0 1.9563193321228 0.34999999403954
			vertex 2.3650000095367 1.9563193321228 0.34999999403954
		endloop
	endfacet
	facet normal 0 0 -1
		outer loop
			vertex 0 10.656537055969 0
			vertex 2.6949999332428 11.006537437439 0
			vertex 5.0749998092651 11.006537437439 0
		endloop
	endfacet
	facet normal 0 1 0
		outer loop
			vertex 2.6949999332428 11.006537437439 0
			vertex 2.6949999332428 11.006537437439 0.15999999642372
			vertex 2.7550001144409 11.006537437439 0.15999999642372
		endloop
	endfacet
	facet normal 0 1 0
		outer loop
			vertex 2.6949999332428 11.006537437439 0
			vertex 2.7550001144409 11.006537437439 0.15999999642372
			vertex 5.0749998092651 11.006537437439 0
		endloop
	endfacet
	facet normal 0 1 -0
		outer loop
			vertex 2.8065807819366 11.006537437439 0.17523467540741
			vertex 2.710000038147 11.006537437439 0.34999999403954
			vertex 4.5638942718506 11.006537437439 0.34999999403954
		endloop
	endfacet
	facet normal 0 0 -1
		outer loop
			vertex 0 10.656537055969 0
			vertex 5.0749998092651 10.656537055969 0
			vertex 5.0749998092651 1.8625371456146 0
		endloop
	endfacet
	facet normal -0 0 1
		outer loop
			vertex 2.710000038147 10.656537055969 0.34999999403954
			vertex 2.710000038147 1.9563193321228 0.34999999403954
			vertex 5.0749998092651 10.656537055969 0.34999999403954
		endloop
	endfacet
	facet normal 1 0 -0
		outer loop
			vertex 5.0749998092651 10.656537055969 0
			vertex 5.0749998092651 10.656537055969 0.34999999403954
			vertex 5.0749998092651 2.0375370979309 0.30310890078545
		endloop
	endfacet
	facet normal 0 0 1
		outer loop
			vertex 5.0749998092651 10.656537055969 0.34999999403954
			vertex 2.710000038147 1.9563193321228 0.34999999403954
			vertex 5.0749998092651 1.9563193321228 0.34999999403954
		endloop
	endfacet
	facet normal 1 0 0
		outer loop
			vertex 5.0749998092651 10.656537055969 0
			vertex 5.0749998092651 2.0375370979309 0.30310890078545
			vertex 5.0749998092651 1.8625371456146 0
		endloop
	endfacet
	facet normal 1 0 0
		outer loop
			vertex 5.0749998092651 10.656537055969 0.34999999403954
			vertex 5.0749998092651 1.9563193321228 0.34999999403954
			vertex 5.0749998092651 2.0375370979309 0.30310890078545
		endloop
	endfacet
	facet normal 1 0 0
		outer loop
			vertex 5.0749998092651 2.0375370979309 0.30310890078545
			vertex 5.0749998092651 1.9563193321228 0.34999999403954
			vertex 5.0749998092651 1.9076569080353 0.34999999403954
		endloop
	endfacet
	facet normal -1 0 0
		outer loop
			vertex 0 1.8625371456146 0
			vertex 0 1.9563193321228 0.34999999403954
			vertex 0 2.0375370979309 0.30310890078545
		endloop
	endfacet
	facet normal -1.3982563177747e-08 -0.50000000188684 -0.86602540269507
		outer loop
			vertex 0 1.8625371456146 0
			vertex 0.94297420978546 1.1579940319061 0.40676814317703
			vertex 0.6625360250473 0.86206018924713 0.57762563228607
		endloop
	endfacet
	facet normal 2.8116959417687e-08 -0.49999977106172 -0.86602553596198
		outer loop
			vertex 0 1.8625371456146 0
			vertex 2.0975713729858 1.692457318306 0.098195642232895
			vertex 1.6745488643646 1.5813267230988 0.16235686838627
		endloop
	endfacet
	facet normal -9.6860319925169e-09 -0.49999993989339 -0.866025438487
		outer loop
			vertex 0 1.8625371456146 0
			vertex 1.6745488643646 1.5813267230988 0.16235686838627
			vertex 1.2846890687943 1.4008605480194 0.26654905080795
		endloop
	endfacet
	facet normal -4.6345562185816e-09 0.50000001919065 0.86602539270471
		outer loop
			vertex 0 1.9563193321228 0.34999999403954
			vertex 1.6745488643646 1.7563267946243 0.46546575427055
			vertex 2.0975713729858 1.8674572706223 0.40130454301834
		endloop
	endfacet
	facet normal -6.2937108223549e-08 -0.50000005102813 -0.86602537432333
		outer loop
			vertex 0 1.8625371456146 0
			vertex 1.2846890687943 1.4008605480194 0.26654905080795
			vertex 0.94297420978546 1.1579940319061 0.40676814317703
		endloop
	endfacet
	facet normal -1 0 0
		outer loop
			vertex 0 1.8625371456146 0
			vertex 0 0.34999999403954 1.2774088382721
			vertex 0 1.9563193321228 0.34999999403954
		endloop
	endfacet
	facet normal -1.4093607406994e-07 -0.50000002073576 -0.86602539181263
		outer loop
			vertex 0 1.8625371456146 0
			vertex 0.45415166020393 0.5244317650795 0.77255547046661
			vertex 0.33175459504128 0.17499999701977 0.97430002689362
		endloop
	endfacet
	facet normal 4.1639585469509e-08 -0.49999997426126 -0.8660254186447
		outer loop
			vertex 0 1.8625371456146 0
			vertex 0.6625360250473 0.86206018924713 0.57762563228607
			vertex 0.45415166020393 0.5244317650795 0.77255547046661
		endloop
	endfacet
	facet normal 0 -0.49999999995569 -0.86602540381002
		outer loop
			vertex 0 1.8625371456146 0
			vertex 0.33175459504128 0.17499999701977 0.97430002689362
			vertex 0 0.17499999701977 0.97430002689362
		endloop
	endfacet
	facet normal -1 0 0
		outer loop
			vertex 0 1.8625371456146 0
			vertex 0 0.17499999701977 0.97430002689362
			vertex 0 0.34999999403954 1.2774088382721
		endloop
	endfacet
	facet normal 1.0932026203549e-07 0.50000008518668 0.86602535460187
		outer loop
			vertex 0 1.9563193321228 0.34999999403954
			vertex 0.6625360250473 1.0370602607727 0.8807345032692
			vertex 0.94297420978546 1.3329939842224 0.70987701416016
		endloop
	endfacet
	facet normal -2.2566603662977e-08 0.50000001389574 0.86602539576173
		outer loop
			vertex 0 1.9563193321228 0.34999999403954
			vertex 0.45415166020393 0.69943177700043 1.0756644010544
			vertex 0.6625360250473 1.0370602607727 0.8807345032692
		endloop
	endfacet
	facet normal -1.268302670069e-08 0.49999994676063 0.8660254345222
		outer loop
			vertex 0 1.9563193321228 0.34999999403954
			vertex 0.94297420978546 1.3329939842224 0.70987701416016
			vertex 1.2846890687943 1.575860619545 0.56965792179108
		endloop
	endfacet
	facet normal -1.8523877374941e-08 0.4999999319686 0.86602544306238
		outer loop
			vertex 0 1.9563193321228 0.34999999403954
			vertex 1.2846890687943 1.575860619545 0.56965792179108
			vertex 1.6745488643646 1.7563267946243 0.46546575427055
		endloop
	endfacet
	facet normal -4.1906497929767e-08 -0.50000041875399 -0.86602516201657
		outer loop
			vertex 0 1.8625371456146 0
			vertex 2.5374999046326 1.7299814224243 0.076531045138836
			vertex 2.0975713729858 1.692457318306 0.098195642232895
		endloop
	endfacet
	facet normal -0 0.50000010123898 0.86602534533408
		outer loop
			vertex 0 1.9563193321228 0.34999999403954
			vertex 2.0975713729858 1.8674572706223 0.40130454301834
			vertex 2.3650000095367 1.9563193321228 0.34999999403954
		endloop
	endfacet
	facet normal 0 -0.49999981709529 -0.86602550938449
		outer loop
			vertex 0 1.8625371456146 0
			vertex 5.0749998092651 1.8625371456146 0
			vertex 2.5374999046326 1.7299814224243 0.076531045138836
		endloop
	endfacet
	facet normal -1.8121251460703e-08 0.50000014214064 0.86602532171949
		outer loop
			vertex 2.3650000095367 1.9563193321228 0.34999999403954
			vertex 2.0975713729858 1.8674572706223 0.40130454301834
			vertex 2.5374999046326 1.9049814939499 0.37963992357254
		endloop
	endfacet
	facet normal -0 0.50000018780744 0.86602529535373
		outer loop
			vertex 2.3650000095367 1.9563193321228 0.34999999403954
			vertex 2.5374999046326 1.9049814939499 0.37963992357254
			vertex 2.710000038147 1.9563193321228 0.34999999403954
		endloop
	endfacet
	facet normal -1.6040525548597e-07 0.49999997654177 0.86602541732804
		outer loop
			vertex 0 1.9563193321228 0.34999999403954
			vertex 0 0.34999999403954 1.2774088382721
			vertex 0.45415166020393 0.69943177700043 1.0756644010544
		endloop
	endfacet
	facet normal 0 -0.86602535036717 0.50000009252142
		outer loop
			vertex 0 0.17499999701977 0.97430002689362
			vertex 0.33175459504128 0.17499999701977 0.97430002689362
			vertex 0.33175459504128 0.34999999403954 1.2774088382721
		endloop
	endfacet
	facet normal 0 -0.86602535036717 0.50000009252142
		outer loop
			vertex 0 0.17499999701977 0.97430002689362
			vertex 0.33175459504128 0.34999999403954 1.2774088382721
			vertex 0 0.34999999403954 1.2774088382721
		endloop
	endfacet
	facet normal -0 0.49999982018437 0.86602550760101
		outer loop
			vertex 0 0.34999999403954 1.2774088382721
			vertex 0.33175459504128 0.34999999403954 1.2774088382721
			vertex 0.45415166020393 0.69943177700043 1.0756644010544
		endloop
	endfacet
	facet normal 1.8121238248354e-08 0.50000014214061 0.8660253217195
		outer loop
			vertex 2.710000038147 1.9563193321228 0.34999999403954
			vertex 2.5374999046326 1.9049814939499 0.37963992357254
			vertex 2.9774286746979 1.8674572706223 0.40130454301834
		endloop
	endfacet
	facet normal 4.1906489303568e-08 -0.50000041875387 -0.86602516201664
		outer loop
			vertex 5.0749998092651 1.8625371456146 0
			vertex 2.9774286746979 1.692457318306 0.098195642232895
			vertex 2.5374999046326 1.7299814224243 0.076531045138836
		endloop
	endfacet
	facet normal -0 0.50000010123898 0.86602534533408
		outer loop
			vertex 2.710000038147 1.9563193321228 0.34999999403954
			vertex 2.9774286746979 1.8674572706223 0.40130454301834
			vertex 5.0749998092651 1.9563193321228 0.34999999403954
		endloop
	endfacet
	facet normal -2.8116961859814e-08 -0.49999977106173 -0.86602553596197
		outer loop
			vertex 5.0749998092651 1.8625371456146 0
			vertex 3.4004511833191 1.5813267230988 0.16235686838627
			vertex 2.9774286746979 1.692457318306 0.098195642232895
		endloop
	endfacet
	facet normal 9.6860337929107e-09 -0.49999993989339 -0.866025438487
		outer loop
			vertex 5.0749998092651 1.8625371456146 0
			vertex 3.7903108596802 1.4008605480194 0.26654905080795
			vertex 3.4004511833191 1.5813267230988 0.16235686838627
		endloop
	endfacet
	facet normal 4.6345566722115e-09 0.50000001919065 0.86602539270471
		outer loop
			vertex 5.0749998092651 1.9563193321228 0.34999999403954
			vertex 2.9774286746979 1.8674572706223 0.40130454301834
			vertex 3.4004511833191 1.7563267946243 0.46546575427055
		endloop
	endfacet
	facet normal 6.2937112102368e-08 -0.50000005102813 -0.86602537432333
		outer loop
			vertex 5.0749998092651 1.8625371456146 0
			vertex 4.132025718689 1.1579940319061 0.40676814317703
			vertex 3.7903108596802 1.4008605480194 0.26654905080795
		endloop
	endfacet
	facet normal 1.3982559284948e-08 -0.50000000188684 -0.86602540269507
		outer loop
			vertex 5.0749998092651 1.8625371456146 0
			vertex 4.4124641418457 0.86206018924713 0.57762563228607
			vertex 4.132025718689 1.1579940319061 0.40676814317703
		endloop
	endfacet
	facet normal 1.8523880633089e-08 0.49999993196859 0.86602544306239
		outer loop
			vertex 5.0749998092651 1.9563193321228 0.34999999403954
			vertex 3.4004511833191 1.7563267946243 0.46546575427055
			vertex 3.7903108596802 1.575860619545 0.56965792179108
		endloop
	endfacet
	facet normal 1.2683027531424e-08 0.49999994676063 0.8660254345222
		outer loop
			vertex 5.0749998092651 1.9563193321228 0.34999999403954
			vertex 3.7903108596802 1.575860619545 0.56965792179108
			vertex 4.132025718689 1.3329939842224 0.70987701416016
		endloop
	endfacet
	facet normal -4.1639628703955e-08 -0.49999997426125 -0.86602541864471
		outer loop
			vertex 5.0749998092651 1.8625371456146 0
			vertex 4.6208481788635 0.5244317650795 0.77255547046661
			vertex 4.4124641418457 0.86206018924713 0.57762563228607
		endloop
	endfacet
	facet normal 1 0 -0
		outer loop
			vertex 5.0749998092651 1.8625371456146 0
			vertex 5.0749998092651 2.0375370979309 0.30310890078545
			vertex 5.0749998092651 0.17499999701977 0.97430002689362
		endloop
	endfacet
	facet normal 1 0 0
		outer loop
			vertex 5.0749998092651 2.0375370979309 0.30310890078545
			vertex 5.0749998092651 1.9076569080353 0.34999999403954
			vertex 5.0749998092651 0.17499999701977 0.97430002689362
		endloop
	endfacet
	facet normal 5.9301306551788e-08 -0.49999999995569 -0.86602540381002
		outer loop
			vertex 5.0749998092651 1.8625371456146 0
			vertex 5.0749998092651 0.17499999701977 0.97430002689362
			vertex 4.6208481788635 0.5244317650795 0.77255547046661
		endloop
	endfacet
	facet normal -1.0932023473704e-07 0.50000008518664 0.8660253546019
		outer loop
			vertex 5.0749998092651 1.9563193321228 0.34999999403954
			vertex 4.132025718689 1.3329939842224 0.70987701416016
			vertex 4.4124641418457 1.0370602607727 0.8807345032692
		endloop
	endfacet
	facet normal 2.2566626601957e-08 0.50000001389574 0.86602539576173
		outer loop
			vertex 5.0749998092651 1.9563193321228 0.34999999403954
			vertex 4.4124641418457 1.0370602607727 0.8807345032692
			vertex 4.6208481788635 0.69943177700043 1.0756644010544
		endloop
	endfacet
	facet normal 1 0 0
		outer loop
			vertex 5.0749998092651 1.9563193321228 0.34999999403954
			vertex 5.0749998092651 0.34999999403954 1.2774088382721
			vertex 5.0749998092651 1.9076569080353 0.34999999403954
		endloop
	endfacet
	facet normal 3.7441479892448e-07 0.49999991854563 0.86602545081205
		outer loop
			vertex 5.0749998092651 1.9563193321228 0.34999999403954
			vertex 4.6208481788635 0.69943177700043 1.0756644010544
			vertex 4.7432456016541 0.34999999403954 1.2774088382721
		endloop
	endfacet
	facet normal -0 -0.5000000577605 -0.86602537043639
		outer loop
			vertex 5.0749998092651 0.17499999701977 0.97430002689362
			vertex 4.7432456016541 0.17499999701977 0.97430002689362
			vertex 4.6208481788635 0.5244317650795 0.77255547046661
		endloop
	endfacet
	facet normal 1 0 0
		outer loop
			vertex 5.0749998092651 1.9076569080353 0.34999999403954
			vertex 5.0749998092651 0.34999999403954 1.2774088382721
			vertex 5.0749998092651 0.17499999701977 0.97430002689362
		endloop
	endfacet
	facet normal 0 0.49999997654177 0.86602541732805
		outer loop
			vertex 5.0749998092651 1.9563193321228 0.34999999403954
			vertex 4.7432456016541 0.34999999403954 1.2774088382721
			vertex 5.0749998092651 0.34999999403954 1.2774088382721
		endloop
	endfacet
	facet normal 0 -0.86602535036717 0.50000009252142
		outer loop
			vertex 5.0749998092651 0.17499999701977 0.97430002689362
			vertex 5.0749998092651 0.34999999403954 1.2774088382721
			vertex 4.7432456016541 0.17499999701977 0.97430002689362
		endloop
	endfacet
	facet normal 0 -0.86602535036717 0.50000009252142
		outer loop
			vertex 5.0749998092651 0.34999999403954 1.2774088382721
			vertex 4.7432456016541 0.34999999403954 1.2774088382721
			vertex 4.7432456016541 0.17499999701977 0.97430002689362
		endloop
	endfacet
	facet normal 0.87524149567383 0 -0.48368618364662
		outer loop
			vertex 2.2599999904633 11.006537437439 0.15999999642372
			vertex 2.3650000095367 11.006537437439 0.34999999403954
			vertex 2.3650000095367 10.656537055969 0.34999999403954
		endloop
	endfacet
	facet normal 0 -1 0
		outer loop
			vertex 2.3800001144409 11.006537437439 0.15999999642372
			vertex 2.6949999332428 11.006537437439 0.15999999642372
			vertex 2.3800001144409 11.006537437439 0.34999999403954
		endloop
	endfacet
	facet normal 0 0 -1
		outer loop
			vertex 2.3650000095367 11.006537437439 0.34999999403954
			vertex 2.3800001144409 11.006537437439 0.34999999403954
			vertex 2.710000038147 10.656537055969 0.34999999403954
		endloop
	endfacet
	facet normal 0 0 -1
		outer loop
			vertex 2.3650000095367 11.006537437439 0.34999999403954
			vertex 2.710000038147 10.656537055969 0.34999999403954
			vertex 2.3650000095367 10.656537055969 0.34999999403954
		endloop
	endfacet
	facet normal -0 0 1
		outer loop
			vertex 2.2599999904633 11.006537437439 0.15999999642372
			vertex 2.5374999046326 1.7781722545624 0.15999999642372
			vertex 2.3800001144409 11.006537437439 0.15999999642372
		endloop
	endfacet
	facet normal -0 0 1
		outer loop
			vertex 2.3800001144409 11.006537437439 0.15999999642372
			vertex 2.5374999046326 1.7781722545624 0.15999999642372
			vertex 2.6949999332428 11.006537437439 0.15999999642372
		endloop
	endfacet
	facet normal 0.87524149567384 0 -0.48368618364662
		outer loop
			vertex 2.2599999904633 11.006537437439 0.15999999642372
			vertex 2.3650000095367 10.656537055969 0.34999999403954
			vertex 2.3650000095367 1.9563193321228 0.34999999403954
		endloop
	endfacet
	facet normal 0 0 1
		outer loop
			vertex 2.2599999904633 11.006537437439 0.15999999642372
			vertex 2.2599999904633 1.7466127872467 0.15999999642372
			vertex 2.5374999046326 1.7781722545624 0.15999999642372
		endloop
	endfacet
	facet normal 0.87524149567383 0 -0.48368618364662
		outer loop
			vertex 2.2599999904633 11.006537437439 0.15999999642372
			vertex 2.3650000095367 1.9563193321228 0.34999999403954
			vertex 2.2599999904633 1.7466127872467 0.15999999642372
		endloop
	endfacet
	facet normal 0.87524149567384 0 -0.48368618364662
		outer loop
			vertex 2.3650000095367 1.9563193321228 0.34999999403954
			vertex 2.3650000095367 1.8682507276535 0.34999999403954
			vertex 2.2599999904633 1.7466127872467 0.15999999642372
		endloop
	endfacet
	facet normal 0 0 -1
		outer loop
			vertex 2.3650000095367 1.9563193321228 0.34999999403954
			vertex 2.5374999046326 1.8878688812256 0.34999999403954
			vertex 2.3650000095367 1.8682507276535 0.34999999403954
		endloop
	endfacet
	facet normal 0 0 -1
		outer loop
			vertex 2.3650000095367 1.9563193321228 0.34999999403954
			vertex 2.710000038147 1.9563193321228 0.34999999403954
			vertex 2.5374999046326 1.8878688812256 0.34999999403954
		endloop
	endfacet
	facet normal 0 -1 0
		outer loop
			vertex 2.3800001144409 11.006537437439 0.34999999403954
			vertex 2.6949999332428 11.006537437439 0.15999999642372
			vertex 2.6949999332428 11.006537437439 0.34999999403954
		endloop
	endfacet
	facet normal -0.87524172665715 0 -0.48368576567666
		outer loop
			vertex 2.8065807819366 11.006537437439 0.17523467540741
			vertex 2.710000038147 10.656537055969 0.34999999403954
			vertex 2.710000038147 11.006537437439 0.34999999403954
		endloop
	endfacet
	facet normal 0 0 -1
		outer loop
			vertex 2.3800001144409 11.006537437439 0.34999999403954
			vertex 2.6949999332428 11.006537437439 0.34999999403954
			vertex 2.710000038147 10.656537055969 0.34999999403954
		endloop
	endfacet
	facet normal 0 0 -1
		outer loop
			vertex 2.6949999332428 11.006537437439 0.34999999403954
			vertex 2.710000038147 11.006537437439 0.34999999403954
			vertex 2.710000038147 10.656537055969 0.34999999403954
		endloop
	endfacet
	facet normal -0 0 1
		outer loop
			vertex 2.6949999332428 11.006537437439 0.15999999642372
			vertex 2.5374999046326 1.7781722545624 0.15999999642372
			vertex 2.7550001144409 11.006537437439 0.15999999642372
		endloop
	endfacet
	facet normal -0 0 1
		outer loop
			vertex 2.7550001144409 11.006537437439 0.15999999642372
			vertex 2.5374999046326 1.7781722545624 0.15999999642372
			vertex 2.8150000572205 11.006537437439 0.15999999642372
		endloop
	endfacet
	facet normal -0.87523884593261 -1.3013632659846e-07 -0.48369097838449
		outer loop
			vertex 2.8150000572205 11.006537437439 0.15999999642372
			vertex 2.710000038147 1.8682507276535 0.34999999403954
			vertex 2.8065807819366 11.006537437439 0.17523467540741
		endloop
	endfacet
	facet normal -0.87524172665715 0 -0.48368576567666
		outer loop
			vertex 2.8065807819366 11.006537437439 0.17523467540741
			vertex 2.710000038147 1.9563193321228 0.34999999403954
			vertex 2.710000038147 10.656537055969 0.34999999403954
		endloop
	endfacet
	facet normal 0 0 1
		outer loop
			vertex 2.8150000572205 11.006537437439 0.15999999642372
			vertex 2.5374999046326 1.7781722545624 0.15999999642372
			vertex 2.8150000572205 1.7466127872467 0.15999999642372
		endloop
	endfacet
	facet normal -0.87524149567383 -0 -0.48368618364662
		outer loop
			vertex 2.8150000572205 11.006537437439 0.15999999642372
			vertex 2.8150000572205 1.7466127872467 0.15999999642372
			vertex 2.710000038147 1.8682507276535 0.34999999403954
		endloop
	endfacet
	facet normal -0.87524172665715 0 -0.48368576567666
		outer loop
			vertex 2.8065807819366 11.006537437439 0.17523467540741
			vertex 2.710000038147 1.8682507276535 0.34999999403954
			vertex 2.710000038147 1.9563193321228 0.34999999403954
		endloop
	endfacet
	facet normal 0 -0 -1
		outer loop
			vertex 2.710000038147 1.9563193321228 0.34999999403954
			vertex 2.710000038147 1.8682507276535 0.34999999403954
			vertex 2.5374999046326 1.8878688812256 0.34999999403954
		endloop
	endfacet
	facet normal 0.88192125719159 -0.40824151238485 0.23569845922139
		outer loop
			vertex 0.6625360250473 0.86206018924713 0.57762563228607
			vertex 0.6625360250473 1.0370602607727 0.8807345032692
			vertex 0.45415166020393 0.5244317650795 0.77255547046661
		endloop
	endfacet
	facet normal 0.77301050190944 -0.54940067705428 0.31719656364787
		outer loop
			vertex 0.94297420978546 1.1579940319061 0.40676814317703
			vertex 0.94297420978546 1.3329939842224 0.70987701416016
			vertex 0.6625360250473 0.86206018924713 0.57762563228607
		endloop
	endfacet
	facet normal 0.63439325924808 -0.66944662807607 0.38650537483737
		outer loop
			vertex 1.2846890687943 1.575860619545 0.56965792179108
			vertex 0.94297420978546 1.1579940319061 0.40676814317703
			vertex 1.2846890687943 1.4008605480194 0.26654905080795
		endloop
	endfacet
	facet normal 0.63439339879907 -0.66944664289927 0.38650512010977
		outer loop
			vertex 0.94297420978546 1.1579940319061 0.40676814317703
			vertex 1.2846890687943 1.575860619545 0.56965792179108
			vertex 0.94297420978546 1.3329939842224 0.70987701416016
		endloop
	endfacet
	facet normal 0.77301040791995 -0.54940068267476 0.31719678296593
		outer loop
			vertex 0.6625360250473 0.86206018924713 0.57762563228607
			vertex 0.94297420978546 1.3329939842224 0.70987701416016
			vertex 0.6625360250473 1.0370602607727 0.8807345032692
		endloop
	endfacet
	facet normal 0.47139670368028 -0.76376615293829 0.44096078213965
		outer loop
			vertex 1.2846890687943 1.4008605480194 0.26654905080795
			vertex 1.6745488643646 1.5813267230988 0.16235686838627
			vertex 1.6745488643646 1.7563267946243 0.46546575427055
		endloop
	endfacet
	facet normal 0.29028456517117 -0.82873458169685 0.47847033797627
		outer loop
			vertex 1.6745488643646 1.5813267230988 0.16235686838627
			vertex 2.0975713729858 1.8674572706223 0.40130454301834
			vertex 1.6745488643646 1.7563267946243 0.46546575427055
		endloop
	endfacet
	facet normal 0.09801690783637 -0.8618549622422 0.49759291578226
		outer loop
			vertex 2.2599999904633 1.7466127872467 0.15999999642372
			vertex 2.0975713729858 1.692457318306 0.098195642232895
			vertex 2.5374999046326 1.7781722545624 0.15999999642372
		endloop
	endfacet
	facet normal 0.098017022727867 -0.86185521719405 0.49759245156147
		outer loop
			vertex 2.5374999046326 1.7781722545624 0.15999999642372
			vertex 2.0975713729858 1.692457318306 0.098195642232895
			vertex 2.5374999046326 1.7299814224243 0.076531045138836
		endloop
	endfacet
	facet normal 0.2902847944664 -0.82873467277768 0.47847004110778
		outer loop
			vertex 1.6745488643646 1.5813267230988 0.16235686838627
			vertex 2.0975713729858 1.692457318306 0.098195642232895
			vertex 2.0975713729858 1.8674572706223 0.40130454301834
		endloop
	endfacet
	facet normal 0.098017279164705 -0.86185530834876 0.49759224316323
		outer loop
			vertex 2.2599999904633 1.7466127872467 0.15999999642372
			vertex 2.0975713729858 1.8674572706223 0.40130454301834
			vertex 2.0975713729858 1.692457318306 0.098195642232895
		endloop
	endfacet
	facet normal 0.098017128844279 -0.86185536692655 0.49759217131404
		outer loop
			vertex 2.2599999904633 1.7466127872467 0.15999999642372
			vertex 2.3650000095367 1.8682507276535 0.34999999403954
			vertex 2.0975713729858 1.8674572706223 0.40130454301834
		endloop
	endfacet
	facet normal 0.098017279063296 -0.86185489353413 0.49759296166274
		outer loop
			vertex 2.3650000095367 1.8682507276535 0.34999999403954
			vertex 2.5374999046326 1.9049814939499 0.37963992357254
			vertex 2.0975713729858 1.8674572706223 0.40130454301834
		endloop
	endfacet
	facet normal 0.098017510290167 -0.86185533110866 0.49759215821403
		outer loop
			vertex 2.3650000095367 1.8682507276535 0.34999999403954
			vertex 2.5374999046326 1.8878688812256 0.34999999403954
			vertex 2.5374999046326 1.9049814939499 0.37963992357254
		endloop
	endfacet
	facet normal 0.47139669057123 -0.76376614961957 0.4409608019017
		outer loop
			vertex 1.2846890687943 1.4008605480194 0.26654905080795
			vertex 1.6745488643646 1.7563267946243 0.46546575427055
			vertex 1.2846890687943 1.575860619545 0.56965792179108
		endloop
	endfacet
	facet normal 0.88192129812081 -0.40824150090168 0.23569832596445
		outer loop
			vertex 0.45415166020393 0.5244317650795 0.77255547046661
			vertex 0.6625360250473 1.0370602607727 0.8807345032692
			vertex 0.45415166020393 0.69943177700043 1.0756644010544
		endloop
	endfacet
	facet normal 0.95694033899586 -0.25139389937418 0.14514232656234
		outer loop
			vertex 0.33175459504128 0.17499999701977 0.97430002689362
			vertex 0.45415166020393 0.5244317650795 0.77255547046661
			vertex 0.45415166020393 0.69943177700043 1.0756644010544
		endloop
	endfacet
	facet normal 0.95694032966295 -0.25139390665265 0.14514237548861
		outer loop
			vertex 0.33175459504128 0.34999999403954 1.2774088382721
			vertex 0.33175459504128 0.17499999701977 0.97430002689362
			vertex 0.45415166020393 0.69943177700043 1.0756644010544
		endloop
	endfacet
	facet normal -0.098016854253008 -0.86185523156426 0.49759245985812
		outer loop
			vertex 2.8150000572205 1.7466127872467 0.15999999642372
			vertex 2.5374999046326 1.7781722545624 0.15999999642372
			vertex 2.5374999046326 1.7299814224243 0.076531045138836
		endloop
	endfacet
	facet normal -0.098016970118091 -0.86185502029359 0.49759280296604
		outer loop
			vertex 2.8150000572205 1.7466127872467 0.15999999642372
			vertex 2.5374999046326 1.7299814224243 0.076531045138836
			vertex 2.9774286746979 1.692457318306 0.098195642232895
		endloop
	endfacet
	facet normal -0.098017128844279 -0.86185536692655 0.49759217131404
		outer loop
			vertex 2.8150000572205 1.7466127872467 0.15999999642372
			vertex 2.9774286746979 1.8674572706223 0.40130454301834
			vertex 2.710000038147 1.8682507276535 0.34999999403954
		endloop
	endfacet
	facet normal -0.098017376118224 -0.86185534255304 0.49759216482144
		outer loop
			vertex 2.710000038147 1.8682507276535 0.34999999403954
			vertex 2.5374999046326 1.9049814939499 0.37963992357254
			vertex 2.5374999046326 1.8878688812256 0.34999999403954
		endloop
	endfacet
	facet normal -0.098017226453378 -0.86185505932642 0.49759268486569
		outer loop
			vertex 2.710000038147 1.8682507276535 0.34999999403954
			vertex 2.9774286746979 1.8674572706223 0.40130454301834
			vertex 2.5374999046326 1.9049814939499 0.37963992357254
		endloop
	endfacet
	facet normal -0.098017279164705 -0.86185530834876 0.49759224316323
		outer loop
			vertex 2.8150000572205 1.7466127872467 0.15999999642372
			vertex 2.9774286746979 1.692457318306 0.098195642232895
			vertex 2.9774286746979 1.8674572706223 0.40130454301834
		endloop
	endfacet
	facet normal -0.29028456517117 -0.8287347330149 0.47847007588574
		outer loop
			vertex 2.9774286746979 1.692457318306 0.098195642232895
			vertex 3.4004511833191 1.7563267946243 0.46546575427055
			vertex 2.9774286746979 1.8674572706223 0.40130454301834
		endloop
	endfacet
	facet normal -0.29028479446636 -0.82873452145965 0.47847030319829
		outer loop
			vertex 2.9774286746979 1.692457318306 0.098195642232895
			vertex 3.4004511833191 1.5813267230988 0.16235686838627
			vertex 3.4004511833191 1.7563267946243 0.46546575427055
		endloop
	endfacet
	facet normal -0.47139680268215 -0.7637661071103 0.44096075568084
		outer loop
			vertex 3.4004511833191 1.5813267230988 0.16235686838627
			vertex 3.7903108596802 1.575860619545 0.56965792179108
			vertex 3.4004511833191 1.7563267946243 0.46546575427055
		endloop
	endfacet
	facet normal -0.4713968157912 -0.76376609165522 0.44096076843595
		outer loop
			vertex 3.4004511833191 1.5813267230988 0.16235686838627
			vertex 3.7903108596802 1.4008605480194 0.26654905080795
			vertex 3.7903108596802 1.575860619545 0.56965792179108
		endloop
	endfacet
	facet normal -0.63439325924808 -0.66944674208218 0.38650517737304
		outer loop
			vertex 3.7903108596802 1.4008605480194 0.26654905080795
			vertex 4.132025718689 1.1579940319061 0.40676814317703
			vertex 4.132025718689 1.3329939842224 0.70987701416016
		endloop
	endfacet
	facet normal -0.63439339879905 -0.66944652889319 0.38650531757409
		outer loop
			vertex 3.7903108596802 1.4008605480194 0.26654905080795
			vertex 4.132025718689 1.3329939842224 0.70987701416016
			vertex 3.7903108596802 1.575860619545 0.56965792179108
		endloop
	endfacet
	facet normal -0.77301014343224 -0.549401055339 0.31719678205061
		outer loop
			vertex 4.132025718689 1.1579940319061 0.40676814317703
			vertex 4.4124641418457 1.0370602607727 0.8807345032692
			vertex 4.132025718689 1.3329939842224 0.70987701416016
		endloop
	endfacet
	facet normal -0.7730102374218 -0.54940086259369 0.31719688684222
		outer loop
			vertex 4.132025718689 1.1579940319061 0.40676814317703
			vertex 4.4124641418457 0.86206018924713 0.57762563228607
			vertex 4.4124641418457 1.0370602607727 0.8807345032692
		endloop
	endfacet
	facet normal -0.88192156549657 -0.40824106769387 0.23569807585182
		outer loop
			vertex 4.4124641418457 0.86206018924713 0.57762563228607
			vertex 4.6208481788635 0.5244317650795 0.77255547046661
			vertex 4.6208481788635 0.69943177700043 1.0756644010544
		endloop
	endfacet
	facet normal -0.88192160642569 -0.4082409465485 0.23569813253547
		outer loop
			vertex 4.4124641418457 0.86206018924713 0.57762563228607
			vertex 4.6208481788635 0.69943177700043 1.0756644010544
			vertex 4.4124641418457 1.0370602607727 0.8807345032692
		endloop
	endfacet
	facet normal -0.95694010338578 -0.25139455265108 0.14514274845607
		outer loop
			vertex 4.7432456016541 0.34999999403954 1.2774088382721
			vertex 4.6208481788635 0.5244317650795 0.77255547046661
			vertex 4.7432456016541 0.17499999701977 0.97430002689362
		endloop
	endfacet
	facet normal -0.95694009405282 -0.25139459866182 0.14514273029622
		outer loop
			vertex 4.7432456016541 0.34999999403954 1.2774088382721
			vertex 4.6208481788635 0.69943177700043 1.0756644010544
			vertex 4.6208481788635 0.5244317650795 0.77255547046661
		endloop
	endfacet
endsolid