solid csg_export
	facet normal 0 -1 0
		outer loop
			vertex 0.52499997615814 0.17499999701977 0
			vertex 8.6140003204346 0.17499999701977 0.10499999672174
			vertex 0.52499997615814 0.17499999701977 0.10499999672174
		endloop
	endfacet
	facet normal 0 0 -1
		outer loop
			vertex 0.52499997615814 0.17499999701977 0
			vertex 0.52499997615814 1.4548000097275 0
			vertex 8.6140003204346 0.17499999701977 0
		endloop
	endfacet
	facet normal 0 -1 0
		outer loop
			vertex 0.52499997615814 0.17499999701977 0.41999998688698
			vertex 8.6140003204346 0.17499999701977 0.52499997615814
			vertex 0.52499997615814 0.17499999701977 0.52499997615814
		endloop
	endfacet
	facet normal 0 0 1
		outer loop
			vertex 0.52499997615814 0.17499999701977 0.52499997615814
			vertex 8.6140003204346 0.17499999701977 0.52499997615814
			vertex 0.52499997615814 1.4548000097275 0.52499997615814
		endloop
	endfacet
	facet normal -1 0 0
		outer loop
			vertex 0.17499999701977 1.4548000097275 0
			vertex 0.17499999701977 1.4548000097275 0.10499999672174
			vertex 0.17499999701977 9.1550254821777 0
		endloop
	endfacet
	facet normal 0 0 -1
		outer loop
			vertex 0.17499999701977 1.4548000097275 0
			vertex 0.17499999701977 9.1550254821777 0
			vertex 0.52499997615814 1.4548000097275 0
		endloop
	endfacet
	facet normal 0 0 -1
		outer loop
			vertex 0.52499997615814 1.4548000097275 0
			vertex 0.17499999701977 9.1550254821777 0
			vertex 8.6140003204346 0.17499999701977 0
		endloop
	endfacet
	facet normal -1 0 0
		outer loop
			vertex 0.17499999701977 1.4548000097275 0.41999998688698
			vertex 0.17499999701977 1.4548000097275 0.52499997615814
			vertex 0.17499999701977 9.1550254821777 0.41999998688698
		endloop
	endfacet
	facet normal 0 0 1
		outer loop
			vertex 0.17499999701977 1.4548000097275 0.52499997615814
			vertex 0.52499997615814 1.4548000097275 0.52499997615814
			vertex 0.17499999701977 9.1550254821777 0.52499997615814
		endloop
	endfacet
	facet normal -0 -0 1
		outer loop
			vertex 0.52499997615814 1.4548000097275 0.52499997615814
			vertex 8.6140003204346 0.17499999701977 0.52499997615814
			vertex 0.17499999701977 9.1550254821777 0.52499997615814
		endloop
	endfacet
	facet normal 0 -1 0
		outer loop
			vertex 0.52499997615814 0.17499999701977 0
			vertex 8.6140003204346 0.17499999701977 0
			vertex 8.6140003204346 0.17499999701977 0.10499999672174
		endloop
	endfacet
	facet normal 0 -1 0
		outer loop
			vertex 0.52499997615814 0.17499999701977 0.41999998688698
			vertex 8.6140003204346 0.17499999701977 0.41999998688698
			vertex 8.6140003204346 0.17499999701977 0.52499997615814
		endloop
	endfacet
	facet normal 0.72871771265631 0.68481420492054 0
		outer loop
			vertex 0.17499999701977 9.1550254821777 0
			vertex 8.6140003204346 0.17499999701977 0.10499999672174
			vertex 8.6140003204346 0.17499999701977 0
		endloop
	endfacet
	facet normal 0.72871771265631 0.68481420492054 0
		outer loop
			vertex 0.17499999701977 9.1550254821777 0
			vertex 8.6140003204346 0.17499999701977 0.41999998688698
			vertex 8.6140003204346 0.17499999701977 0.10499999672174
		endloop
	endfacet
	facet normal 0.72871771265631 0.68481420492054 0
		outer loop
			vertex 0.17499999701977 9.1550254821777 0
			vertex 8.6140003204346 0.17499999701977 0.52499997615814
			vertex 8.6140003204346 0.17499999701977 0.41999998688698
		endloop
	endfacet
	facet normal -1 0 0
		outer loop
			vertex 0.17499999701977 1.4548000097275 0.10499999672174
			vertex 0.17499999701977 9.1550254821777 0.10499999672174
			vertex 0.17499999701977 9.1550254821777 0
		endloop
	endfacet
	facet normal 0.72871771265631 0.68481420492054 -0
		outer loop
			vertex 0.17499999701977 9.1550254821777 0
			vertex 0.17499999701977 9.1550254821777 0.10499999672174
			vertex 8.6140003204346 0.17499999701977 0.52499997615814
		endloop
	endfacet
	facet normal 0.72871771265631 0.68481420492054 -0
		outer loop
			vertex 0.17499999701977 9.1550254821777 0.10499999672174
			vertex 0.17499999701977 9.1550254821777 0.41999998688698
			vertex 8.6140003204346 0.17499999701977 0.52499997615814
		endloop
	endfacet
	facet normal -1 0 0
		outer loop
			vertex 0.17499999701977 1.4548000097275 0.52499997615814
			vertex 0.17499999701977 9.1550254821777 0.52499997615814
			vertex 0.17499999701977 9.1550254821777 0.41999998688698
		endloop
	endfacet
	facet normal 0.72871771265631 0.68481420492054 -0
		outer loop
			vertex 0.17499999701977 9.1550254821777 0.41999998688698
			vertex 0.17499999701977 9.1550254821777 0.52499997615814
			vertex 8.6140003204346 0.17499999701977 0.52499997615814
		endloop
	endfacet
	facet normal -1 0 0
		outer loop
			vertex 0.52499997615814 0.17499999701977 0
			vertex 0.52499997615814 0.17499999701977 0.10499999672174
			vertex 0.52499997615814 1.4548000097275 0
		endloop
	endfacet
	facet normal -1 0 0
		outer loop
			vertex 0.52499997615814 1.4548000097275 0
			vertex 0.52499997615814 0.17499999701977 0.10499999672174
			vertex 0.52499997615814 0.17499999701977 0.41999998688698
		endloop
	endfacet
	facet normal 0 -1 0
		outer loop
			vertex 0.17499999701977 1.4548000097275 0
			vertex 0.52499997615814 1.4548000097275 0
			vertex 0.52499997615814 1.4548000097275 0.52499997615814
		endloop
	endfacet
	facet normal -1 0 0
		outer loop
			vertex 0.52499997615814 1.4548000097275 0
			vertex 0.52499997615814 0.17499999701977 0.41999998688698
			vertex 0.52499997615814 0.17499999701977 0.52499997615814
		endloop
	endfacet
	facet normal 0 -1 0
		outer loop
			vertex 0.17499999701977 1.4548000097275 0
			vertex 0.52499997615814 1.4548000097275 0.52499997615814
			vertex 0.17499999701977 1.4548000097275 0.10499999672174
		endloop
	endfacet
	facet normal 0 -1 0
		outer loop
			vertex 0.17499999701977 1.4548000097275 0.10499999672174
			vertex 0.52499997615814 1.4548000097275 0.52499997615814
			vertex 0.17499999701977 1.4548000097275 0.41999998688698
		endloop
	endfacet
	facet normal -1 0 0
		outer loop
			vertex 0.52499997615814 1.4548000097275 0
			vertex 0.52499997615814 0.17499999701977 0.52499997615814
			vertex 0.52499997615814 1.4548000097275 0.52499997615814
		endloop
	endfacet
	facet normal 0 -1 0
		outer loop
			vertex 0.17499999701977 1.4548000097275 0.41999998688698
			vertex 0.52499997615814 1.4548000097275 0.52499997615814
			vertex 0.17499999701977 1.4548000097275 0.52499997615814
		endloop
	endfacet
	facet normal 0 -1 0
		outer loop
			vertex 0 1.4548000097275 0
			vertex 0.17499999701977 1.4548000097275 0.10499999672174
			vertex 0 1.4548000097275 0.52499997615814
		endloop
	endfacet
	facet normal 0 -1 0
		outer loop
			vertex 0.17499999701977 1.4548000097275 0.10499999672174
			vertex 0.17499999701977 1.4548000097275 0.41999998688698
			vertex 0 1.4548000097275 0.52499997615814
		endloop
	endfacet
	facet normal 0.51449575005877 0 -0.8574929289338
		outer loop
			vertex 0 1.4548000097275 0
			vertex 0.17499999701977 9.1550254821777 0.10499999672174
			vertex 0.17499999701977 1.4548000097275 0.10499999672174
		endloop
	endfacet
	facet normal -1 0 0
		outer loop
			vertex 0 1.4548000097275 0
			vertex 0 1.4548000097275 0.52499997615814
			vertex 0 9.1550254821777 0
		endloop
	endfacet
	facet normal 0.51449572321499 0 0.85749294504007
		outer loop
			vertex 0.17499999701977 1.4548000097275 0.41999998688698
			vertex 0 9.1550254821777 0.52499997615814
			vertex 0 1.4548000097275 0.52499997615814
		endloop
	endfacet
	facet normal 0.51449575005877 0 -0.8574929289338
		outer loop
			vertex 0 1.4548000097275 0
			vertex 0 9.1550254821777 0
			vertex 0.17499999701977 9.1550254821777 0.10499999672174
		endloop
	endfacet
	facet normal -1 0 0
		outer loop
			vertex 0 1.4548000097275 0.52499997615814
			vertex 0 9.1550254821777 0.52499997615814
			vertex 0 9.1550254821777 0
		endloop
	endfacet
	facet normal 0.51449572321499 -0 0.85749294504007
		outer loop
			vertex 0.17499999701977 1.4548000097275 0.41999998688698
			vertex 0.17499999701977 9.1550254821777 0.41999998688698
			vertex 0 9.1550254821777 0.52499997615814
		endloop
	endfacet
	facet normal 0 1 0
		outer loop
			vertex 0 9.1550254821777 0
			vertex 0 9.1550254821777 0.52499997615814
			vertex 0.17499999701977 9.1550254821777 0.10499999672174
		endloop
	endfacet
	facet normal 0 1 -0
		outer loop
			vertex 0.17499999701977 9.1550254821777 0.10499999672174
			vertex 0 9.1550254821777 0.52499997615814
			vertex 0.17499999701977 9.1550254821777 0.41999998688698
		endloop
	endfacet
	facet normal -1 0 0
		outer loop
			vertex 0.52499997615814 0 0
			vertex 0.52499997615814 0 0.52499997615814
			vertex 0.52499997615814 0.17499999701977 0.10499999672174
		endloop
	endfacet
	facet normal -1 0 0
		outer loop
			vertex 0.52499997615814 0.17499999701977 0.10499999672174
			vertex 0.52499997615814 0 0.52499997615814
			vertex 0.52499997615814 0.17499999701977 0.41999998688698
		endloop
	endfacet
	facet normal 0 0.51449575005877 -0.8574929289338
		outer loop
			vertex 0.52499997615814 0 0
			vertex 0.52499997615814 0.17499999701977 0.10499999672174
			vertex 8.6140003204346 0 0
		endloop
	endfacet
	facet normal 0 -1 0
		outer loop
			vertex 0.52499997615814 0 0
			vertex 8.6140003204346 0 0.52499997615814
			vertex 0.52499997615814 0 0.52499997615814
		endloop
	endfacet
	facet normal -0 0.51449572321499 0.85749294504007
		outer loop
			vertex 0.52499997615814 0.17499999701977 0.41999998688698
			vertex 0.52499997615814 0 0.52499997615814
			vertex 8.6140003204346 0.17499999701977 0.41999998688698
		endloop
	endfacet
	facet normal 0 0.51449575005877 -0.8574929289338
		outer loop
			vertex 0.52499997615814 0.17499999701977 0.10499999672174
			vertex 8.6140003204346 0.17499999701977 0.10499999672174
			vertex 8.6140003204346 0 0
		endloop
	endfacet
	facet normal 0 -1 0
		outer loop
			vertex 0.52499997615814 0 0
			vertex 8.6140003204346 0 0
			vertex 8.6140003204346 0 0.52499997615814
		endloop
	endfacet
	facet normal -0 0.51449572321499 0.85749294504007
		outer loop
			vertex 0.52499997615814 0 0.52499997615814
			vertex 8.6140003204346 0 0.52499997615814
			vertex 8.6140003204346 0.17499999701977 0.41999998688698
		endloop
	endfacet
	facet normal 1 0 0
		outer loop
			vertex 8.6140003204346 0 0
			vertex 8.6140003204346 0.17499999701977 0.10499999672174
			vertex 8.6140003204346 0 0.52499997615814
		endloop
	endfacet
	facet normal 1 0 -0
		outer loop
			vertex 8.6140003204346 0.17499999701977 0.10499999672174
			vertex 8.6140003204346 0.17499999701977 0.41999998688698
			vertex 8.6140003204346 0 0.52499997615814
		endloop
	endfacet
	facet normal -1 0 0
		outer loop
			vertex 8.9139995574951 11.006537437439 0
			vertex 8.9139995574951 10.656537055969 0
			vertex 8.9139995574951 10.656537055969 0.34999999403954
		endloop
	endfacet
	facet normal 0 1 0
		outer loop
			vertex 8.9139995574951 11.006537437439 0
			vertex 10.782894134521 11.006537437439 0.34999999403954
			vertex 10.992189407349 11.006537437439 0.2066765576601
		endloop
	endfacet
	facet normal -1 0 0
		outer loop
			vertex 8.9139995574951 11.006537437439 0
			vertex 8.9139995574951 10.656537055969 0.34999999403954
			vertex 8.9139995574951 10.656537055969 1.6297999620438
		endloop
	endfacet
	facet normal 0 1 0
		outer loop
			vertex 8.9139995574951 11.006537437439 0
			vertex 8.9139995574951 11.006537437439 1.6297999620438
			vertex 10.782894134521 11.006537437439 0.34999999403954
		endloop
	endfacet
	facet normal 0 -1 0
		outer loop
			vertex 8.9139995574951 10.656537055969 0.34999999403954
			vertex 11.279000282288 10.656537055969 0.34999999403954
			vertex 8.9139995574951 10.656537055969 1.6297999620438
		endloop
	endfacet
	facet normal 0 0 -1
		outer loop
			vertex 8.9139995574951 10.656537055969 0
			vertex 13.989000320435 11.006537437439 0
			vertex 13.989000320435 10.656537055969 0
		endloop
	endfacet
	facet normal -0 1 0
		outer loop
			vertex 11.668999671936 11.006537437439 0.15999999642372
			vertex 11.729000091553 11.006537437439 0.15999999642372
			vertex 13.989000320435 11.006537437439 0
		endloop
	endfacet
	facet normal -0 1 0
		outer loop
			vertex 11.729000091553 11.006537437439 0.15999999642372
			vertex 13.47789478302 11.006537437439 0.34999999403954
			vertex 13.989000320435 11.006537437439 0
		endloop
	endfacet
	facet normal 0 1 -0
		outer loop
			vertex 11.729000091553 11.006537437439 0.15999999642372
			vertex 11.720581054688 11.006537437439 0.17523467540741
			vertex 13.47789478302 11.006537437439 0.34999999403954
		endloop
	endfacet
	facet normal 0 -1 0
		outer loop
			vertex 11.279000282288 10.656537055969 0.34999999403954
			vertex 11.623999595642 10.656537055969 0.34999999403954
			vertex 8.9139995574951 10.656537055969 1.6297999620438
		endloop
	endfacet
	facet normal 0 1 0
		outer loop
			vertex 10.782894134521 11.006537437439 0.34999999403954
			vertex 11.293999671936 11.006537437439 1.6297999620438
			vertex 11.279000282288 11.006537437439 0.34999999403954
		endloop
	endfacet
	facet normal 0 1 0
		outer loop
			vertex 11.279000282288 11.006537437439 0.34999999403954
			vertex 11.293999671936 11.006537437439 1.6297999620438
			vertex 11.293999671936 11.006537437439 0.34999999403954
		endloop
	endfacet
	facet normal 0 -1 0
		outer loop
			vertex 8.9139995574951 10.656537055969 1.6297999620438
			vertex 11.623999595642 10.656537055969 0.34999999403954
			vertex 13.989000320435 10.656537055969 0.34999999403954
		endloop
	endfacet
	facet normal 0 1 0
		outer loop
			vertex 11.609000205994 11.006537437439 0.34999999403954
			vertex 11.609000205994 11.006537437439 1.6297999620438
			vertex 11.623999595642 11.006537437439 0.34999999403954
		endloop
	endfacet
	facet normal 0 1 -0
		outer loop
			vertex 11.623999595642 11.006537437439 0.34999999403954
			vertex 11.609000205994 11.006537437439 1.6297999620438
			vertex 13.47789478302 11.006537437439 0.34999999403954
		endloop
	endfacet
	facet normal 1 0 -0
		outer loop
			vertex 13.989000320435 11.006537437439 0
			vertex 13.989000320435 11.006537437439 1.6297999620438
			vertex 13.989000320435 10.656537055969 0
		endloop
	endfacet
	facet normal 1 0 0
		outer loop
			vertex 13.989000320435 10.656537055969 0
			vertex 13.989000320435 11.006537437439 1.6297999620438
			vertex 13.989000320435 10.656537055969 0.34999999403954
		endloop
	endfacet
	facet normal 0 1 -0
		outer loop
			vertex 13.989000320435 11.006537437439 0
			vertex 13.47789478302 11.006537437439 0.34999999403954
			vertex 13.989000320435 11.006537437439 1.6297999620438
		endloop
	endfacet
	facet normal -1 0 0
		outer loop
			vertex 8.9139995574951 11.006537437439 0
			vertex 8.9139995574951 10.656537055969 1.6297999620438
			vertex 8.9139995574951 11.006537437439 1.6297999620438
		endloop
	endfacet
	facet normal 0 1 -0
		outer loop
			vertex 10.782894134521 11.006537437439 0.34999999403954
			vertex 8.9139995574951 11.006537437439 1.6297999620438
			vertex 11.293999671936 11.006537437439 1.6297999620438
		endloop
	endfacet
	facet normal 0 -1 0
		outer loop
			vertex 8.9139995574951 10.656537055969 1.6297999620438
			vertex 13.989000320435 10.656537055969 0.34999999403954
			vertex 13.989000320435 10.656537055969 1.6297999620438
		endloop
	endfacet
	facet normal 0 1 -0
		outer loop
			vertex 13.47789478302 11.006537437439 0.34999999403954
			vertex 11.609000205994 11.006537437439 1.6297999620438
			vertex 13.989000320435 11.006537437439 1.6297999620438
		endloop
	endfacet
	facet normal 1 0 0
		outer loop
			vertex 13.989000320435 10.656537055969 0.34999999403954
			vertex 13.989000320435 11.006537437439 1.6297999620438
			vertex 13.989000320435 10.656537055969 1.6297999620438
		endloop
	endfacet
	facet normal 0 0 1
		outer loop
			vertex 8.9139995574951 11.006537437439 1.6297999620438
			vertex 8.9139995574951 10.656537055969 1.6297999620438
			vertex 13.989000320435 10.656537055969 1.6297999620438
		endloop
	endfacet
	facet normal -0 0 1
		outer loop
			vertex 8.9139995574951 11.006537437439 1.6297999620438
			vertex 13.989000320435 10.656537055969 1.6297999620438
			vertex 11.293999671936 11.006537437439 1.6297999620438
		endloop
	endfacet
	facet normal -0 0 1
		outer loop
			vertex 11.293999671936 11.006537437439 1.6297999620438
			vertex 13.989000320435 10.656537055969 1.6297999620438
			vertex 11.609000205994 11.006537437439 1.6297999620438
		endloop
	endfacet
	facet normal -0 0 1
		outer loop
			vertex 11.609000205994 11.006537437439 1.6297999620438
			vertex 13.989000320435 10.656537055969 1.6297999620438
			vertex 13.989000320435 11.006537437439 1.6297999620438
		endloop
	endfacet
	facet normal 0 0 -1
		outer loop
			vertex 11.1890001297 11.1815366745 0
			vertex 11.609000205994 11.006537437439 0
			vertex 11.293999671936 11.006537437439 0
		endloop
	endfacet
	facet normal 0 0 -1
		outer loop
			vertex 11.1890001297 11.1815366745 0
			vertex 11.71399974823 11.1815366745 0
			vertex 11.609000205994 11.006537437439 0
		endloop
	endfacet
	facet normal 0.85749292571254 -0.51449575542753 0
		outer loop
			vertex 11.609000205994 11.006537437439 0
			vertex 11.71399974823 11.1815366745 0
			vertex 11.609000205994 11.006537437439 0.15999999642372
		endloop
	endfacet
	facet normal 0.85749292571254 -0.51449575542753 0
		outer loop
			vertex 11.71399974823 11.1815366745 0
			vertex 11.609000205994 11.006537437439 0.34999999403954
			vertex 11.609000205994 11.006537437439 0.15999999642372
		endloop
	endfacet
	facet normal -0.85749292571254 -0.51449575542753 0
		outer loop
			vertex 11.1890001297 11.1815366745 0
			vertex 11.293999671936 11.006537437439 0
			vertex 11.1890001297 11.1815366745 1.6297999620438
		endloop
	endfacet
	facet normal -0.85749292571254 -0.51449575542753 0
		outer loop
			vertex 11.293999671936 11.006537437439 0
			vertex 11.293999671936 11.006537437439 0.15999999642372
			vertex 11.1890001297 11.1815366745 1.6297999620438
		endloop
	endfacet
	facet normal 0 1 0
		outer loop
			vertex 11.1890001297 11.1815366745 0
			vertex 11.71399974823 11.1815366745 1.6297999620438
			vertex 11.71399974823 11.1815366745 0
		endloop
	endfacet
	facet normal -0.85749292571254 -0.51449575542753 0
		outer loop
			vertex 11.293999671936 11.006537437439 0.15999999642372
			vertex 11.293999671936 11.006537437439 0.34999999403954
			vertex 11.1890001297 11.1815366745 1.6297999620438
		endloop
	endfacet
	facet normal 0.85749292571254 -0.51449575542753 0
		outer loop
			vertex 11.71399974823 11.1815366745 0
			vertex 11.609000205994 11.006537437439 1.6297999620438
			vertex 11.609000205994 11.006537437439 0.34999999403954
		endloop
	endfacet
	facet normal 0 1 0
		outer loop
			vertex 11.1890001297 11.1815366745 0
			vertex 11.1890001297 11.1815366745 1.6297999620438
			vertex 11.71399974823 11.1815366745 1.6297999620438
		endloop
	endfacet
	facet normal -0.85749292571254 -0.51449575542753 0
		outer loop
			vertex 11.293999671936 11.006537437439 0.34999999403954
			vertex 11.293999671936 11.006537437439 1.6297999620438
			vertex 11.1890001297 11.1815366745 1.6297999620438
		endloop
	endfacet
	facet normal 0.85749292571254 -0.51449575542753 0
		outer loop
			vertex 11.71399974823 11.1815366745 0
			vertex 11.71399974823 11.1815366745 1.6297999620438
			vertex 11.609000205994 11.006537437439 1.6297999620438
		endloop
	endfacet
	facet normal 0 0 1
		outer loop
			vertex 11.1890001297 11.1815366745 1.6297999620438
			vertex 11.293999671936 11.006537437439 1.6297999620438
			vertex 11.609000205994 11.006537437439 1.6297999620438
		endloop
	endfacet
	facet normal -0 0 1
		outer loop
			vertex 11.1890001297 11.1815366745 1.6297999620438
			vertex 11.609000205994 11.006537437439 1.6297999620438
			vertex 11.71399974823 11.1815366745 1.6297999620438
		endloop
	endfacet
	facet normal -1 0 0
		outer loop
			vertex 8.9139995574951 1.8625371456146 0
			vertex 8.9139995574951 2.0375370979309 0.30310890078545
			vertex 8.9139995574951 9.4550247192383 0
		endloop
	endfacet
	facet normal -1 0 0
		outer loop
			vertex 8.9139995574951 2.0375370979309 0.30310890078545
			vertex 8.9139995574951 1.9563193321228 0.34999999403954
			vertex 8.9139995574951 9.4550247192383 0.34999999403954
		endloop
	endfacet
	facet normal 0 0 1
		outer loop
			vertex 11.279000282288 10.656537055969 0.34999999403954
			vertex 8.9139995574951 1.9563193321228 0.34999999403954
			vertex 11.279000282288 1.9563193321228 0.34999999403954
		endloop
	endfacet
	facet normal 1 0 0
		outer loop
			vertex 13.989000320435 2.0375370979309 0.30310890078545
			vertex 13.989000320435 1.9563193321228 0.34999999403954
			vertex 13.989000320435 1.9076569080353 0.34999999403954
		endloop
	endfacet
	facet normal 0 0 -1
		outer loop
			vertex 8.9139995574951 1.8625371456146 0
			vertex 8.9139995574951 9.4550247192383 0
			vertex 13.989000320435 1.8625371456146 0
		endloop
	endfacet
	facet normal 1 0 0
		outer loop
			vertex 13.989000320435 10.656537055969 0
			vertex 13.989000320435 2.0375370979309 0.30310890078545
			vertex 13.989000320435 1.8625371456146 0
		endloop
	endfacet
	facet normal 0 0 1
		outer loop
			vertex 13.989000320435 10.656537055969 0.34999999403954
			vertex 11.623999595642 1.9563193321228 0.34999999403954
			vertex 13.989000320435 1.9563193321228 0.34999999403954
		endloop
	endfacet
	facet normal 1 0 0
		outer loop
			vertex 13.989000320435 10.656537055969 0.34999999403954
			vertex 13.989000320435 1.9563193321228 0.34999999403954
			vertex 13.989000320435 2.0375370979309 0.30310890078545
		endloop
	endfacet
	facet normal -1 0 0
		outer loop
			vertex 8.9139995574951 2.0375370979309 0.30310890078545
			vertex 8.9139995574951 9.4550247192383 0.34999999403954
			vertex 8.9139995574951 9.4550247192383 0
		endloop
	endfacet
	facet normal -0 0 1
		outer loop
			vertex 8.9139995574951 9.4550247192383 0.34999999403954
			vertex 8.9139995574951 1.9563193321228 0.34999999403954
			vertex 11.279000282288 10.656537055969 0.34999999403954
		endloop
	endfacet
	facet normal -1 0 0
		outer loop
			vertex 8.9139995574951 10.656537055969 0
			vertex 8.9139995574951 9.7588024139404 0
			vertex 8.9139995574951 10.656537055969 0.34999999403954
		endloop
	endfacet
	facet normal -1 -0 0
		outer loop
			vertex 8.9139995574951 10.656537055969 0.34999999403954
			vertex 8.9139995574951 9.7588024139404 0
			vertex 8.9139995574951 9.7588024139404 0.34999999403954
		endloop
	endfacet
	facet normal 0 0 1
		outer loop
			vertex 11.279000282288 10.656537055969 0.34999999403954
			vertex 8.9139995574951 9.7588024139404 0.34999999403954
			vertex 8.9139995574951 9.4550247192383 0.34999999403954
		endloop
	endfacet
	facet normal -0 0 1
		outer loop
			vertex 8.9139995574951 10.656537055969 0.34999999403954
			vertex 8.9139995574951 9.7588024139404 0.34999999403954
			vertex 11.279000282288 10.656537055969 0.34999999403954
		endloop
	endfacet
	facet normal 0 0 -1
		outer loop
			vertex 8.9139995574951 11.006537437439 0
			vertex 11.293999671936 11.006537437439 0
			vertex 8.9139995574951 10.656537055969 0
		endloop
	endfacet
	facet normal 0 1 0
		outer loop
			vertex 8.9139995574951 11.006537437439 0
			vertex 10.992189407349 11.006537437439 0.2066765576601
			vertex 11.293999671936 11.006537437439 0
		endloop
	endfacet
	facet normal 0 0 -1
		outer loop
			vertex 13.989000320435 1.8625371456146 0
			vertex 8.9139995574951 9.4550247192383 0
			vertex 8.9139995574951 9.7588024139404 0
		endloop
	endfacet
	facet normal 0 0 -1
		outer loop
			vertex 8.9139995574951 10.656537055969 0
			vertex 13.989000320435 1.8625371456146 0
			vertex 8.9139995574951 9.7588024139404 0
		endloop
	endfacet
	facet normal 0 0 -1
		outer loop
			vertex 8.9139995574951 10.656537055969 0
			vertex 13.989000320435 10.656537055969 0
			vertex 13.989000320435 1.8625371456146 0
		endloop
	endfacet
	facet normal -0 0 1
		outer loop
			vertex 11.623999595642 10.656537055969 0.34999999403954
			vertex 11.623999595642 1.9563193321228 0.34999999403954
			vertex 13.989000320435 10.656537055969 0.34999999403954
		endloop
	endfacet
	facet normal 1 0 -0
		outer loop
			vertex 13.989000320435 10.656537055969 0
			vertex 13.989000320435 10.656537055969 0.34999999403954
			vertex 13.989000320435 2.0375370979309 0.30310890078545
		endloop
	endfacet
	facet normal 0 0 -1
		outer loop
			vertex 8.9139995574951 10.656537055969 0
			vertex 11.293999671936 11.006537437439 0
			vertex 11.609000205994 11.006537437439 0
		endloop
	endfacet
	facet normal 0 1 -0
		outer loop
			vertex 11.293999671936 11.006537437439 0
			vertex 11.173999786377 11.006537437439 0.15999999642372
			vertex 11.293999671936 11.006537437439 0.15999999642372
		endloop
	endfacet
	facet normal 0 1 0
		outer loop
			vertex 11.293999671936 11.006537437439 0
			vertex 10.992189407349 11.006537437439 0.2066765576601
			vertex 11.173999786377 11.006537437439 0.15999999642372
		endloop
	endfacet
	facet normal 0 0 -1
		outer loop
			vertex 8.9139995574951 10.656537055969 0
			vertex 11.609000205994 11.006537437439 0
			vertex 13.989000320435 11.006537437439 0
		endloop
	endfacet
	facet normal 0 1 0
		outer loop
			vertex 11.609000205994 11.006537437439 0
			vertex 11.609000205994 11.006537437439 0.15999999642372
			vertex 11.668999671936 11.006537437439 0.15999999642372
		endloop
	endfacet
	facet normal 0 1 -0
		outer loop
			vertex 11.173999786377 11.006537437439 0.15999999642372
			vertex 10.992189407349 11.006537437439 0.2066765576601
			vertex 11.279000282288 11.006537437439 0.34999999403954
		endloop
	endfacet
	facet normal -0 1 0
		outer loop
			vertex 10.782894134521 11.006537437439 0.34999999403954
			vertex 11.279000282288 11.006537437439 0.34999999403954
			vertex 10.992189407349 11.006537437439 0.2066765576601
		endloop
	endfacet
	facet normal 0 1 0
		outer loop
			vertex 11.609000205994 11.006537437439 0
			vertex 11.668999671936 11.006537437439 0.15999999642372
			vertex 13.989000320435 11.006537437439 0
		endloop
	endfacet
	facet normal 0 1 -0
		outer loop
			vertex 11.720581054688 11.006537437439 0.17523467540741
			vertex 11.623999595642 11.006537437439 0.34999999403954
			vertex 13.47789478302 11.006537437439 0.34999999403954
		endloop
	endfacet
	facet normal -1.3982551005685e-08 -0.50000000188684 -0.86602540269507
		outer loop
			vertex 8.9139995574951 1.8625371456146 0
			vertex 9.8569746017456 1.1579940319061 0.40676814317703
			vertex 9.5765361785889 0.86206018924713 0.57762563228607
		endloop
	endfacet
	facet normal -6.2937081071826e-08 -0.50000005102816 -0.86602537432331
		outer loop
			vertex 8.9139995574951 1.8625371456146 0
			vertex 10.198689460754 1.4008605480194 0.26654905080795
			vertex 9.8569746017456 1.1579940319061 0.40676814317703
		endloop
	endfacet
	facet normal 2.8116963155242e-08 -0.49999977106168 -0.866025535962
		outer loop
			vertex 8.9139995574951 1.8625371456146 0
			vertex 11.011570930481 1.692457318306 0.098195642232895
			vertex 10.588548660278 1.5813267230988 0.16235686838627
		endloop
	endfacet
	facet normal -4.1906475793533e-08 -0.50000041875379 -0.86602516201669
		outer loop
			vertex 8.9139995574951 1.8625371456146 0
			vertex 11.451499938965 1.7299814224243 0.076531045138836
			vertex 11.011570930481 1.692457318306 0.098195642232895
		endloop
	endfacet
	facet normal -9.686034922749e-09 -0.49999993989341 -0.86602543848699
		outer loop
			vertex 8.9139995574951 1.8625371456146 0
			vertex 10.588548660278 1.5813267230988 0.16235686838627
			vertex 10.198689460754 1.4008605480194 0.26654905080795
		endloop
	endfacet
	facet normal -1 0 0
		outer loop
			vertex 8.9139995574951 1.8625371456146 0
			vertex 8.9139995574951 1.9563193321228 0.34999999403954
			vertex 8.9139995574951 2.0375370979309 0.30310890078545
		endloop
	endfacet
	facet normal -4.6345565813128e-09 0.50000001919065 0.86602539270471
		outer loop
			vertex 8.9139995574951 1.9563193321228 0.34999999403954
			vertex 10.588548660278 1.7563267946243 0.46546575427055
			vertex 11.011570930481 1.8674572706223 0.40130454301834
		endloop
	endfacet
	facet normal -0 0.50000010123898 0.86602534533408
		outer loop
			vertex 8.9139995574951 1.9563193321228 0.34999999403954
			vertex 11.011570930481 1.8674572706223 0.40130454301834
			vertex 11.279000282288 1.9563193321228 0.34999999403954
		endloop
	endfacet
	facet normal 4.1639551716098e-08 -0.49999997426126 -0.86602541864471
		outer loop
			vertex 8.9139995574951 1.8625371456146 0
			vertex 9.5765361785889 0.86206018924713 0.57762563228607
			vertex 9.3681516647339 0.5244317650795 0.77255547046661
		endloop
	endfacet
	facet normal -1.4093579665551e-07 -0.50000002073572 -0.86602539181265
		outer loop
			vertex 8.9139995574951 1.8625371456146 0
			vertex 9.3681516647339 0.5244317650795 0.77255547046661
			vertex 9.2457542419434 0.17499999701977 0.97430002689362
		endloop
	endfacet
	facet normal -1 0 0
		outer loop
			vertex 8.9139995574951 1.8625371456146 0
			vertex 8.9139995574951 0.34999999403954 1.2774088382721
			vertex 8.9139995574951 1.9563193321228 0.34999999403954
		endloop
	endfacet
	facet normal 0 -0.49999999995569 -0.86602540381002
		outer loop
			vertex 8.9139995574951 1.8625371456146 0
			vertex 9.2457542419434 0.17499999701977 0.97430002689362
			vertex 8.9139995574951 0.17499999701977 0.97430002689362
		endloop
	endfacet
	facet normal 1.0932016675866e-07 0.50000008518668 0.86602535460187
		outer loop
			vertex 8.9139995574951 1.9563193321228 0.34999999403954
			vertex 9.5765361785889 1.0370602607727 0.8807345032692
			vertex 9.8569746017456 1.3329939842224 0.70987701416016
		endloop
	endfacet
	facet normal -1 0 0
		outer loop
			vertex 8.9139995574951 1.8625371456146 0
			vertex 8.9139995574951 0.17499999701977 0.97430002689362
			vertex 8.9139995574951 0.34999999403954 1.2774088382721
		endloop
	endfacet
	facet normal -2.2566585282428e-08 0.50000001389574 0.86602539576173
		outer loop
			vertex 8.9139995574951 1.9563193321228 0.34999999403954
			vertex 9.3681516647339 0.69943177700043 1.0756644010544
			vertex 9.5765361785889 1.0370602607727 0.8807345032692
		endloop
	endfacet
	facet normal -1.8523881086767e-08 0.49999993196856 0.86602544306241
		outer loop
			vertex 8.9139995574951 1.9563193321228 0.34999999403954
			vertex 10.198689460754 1.575860619545 0.56965792179108
			vertex 10.588548660278 1.7563267946243 0.46546575427055
		endloop
	endfacet
	facet normal -1.2683020885549e-08 0.49999994676063 0.8660254345222
		outer loop
			vertex 8.9139995574951 1.9563193321228 0.34999999403954
			vertex 9.8569746017456 1.3329939842224 0.70987701416016
			vertex 10.198689460754 1.575860619545 0.56965792179108
		endloop
	endfacet
	facet normal 0 -0.49999981709529 -0.86602550938449
		outer loop
			vertex 8.9139995574951 1.8625371456146 0
			vertex 13.989000320435 1.8625371456146 0
			vertex 11.451499938965 1.7299814224243 0.076531045138836
		endloop
	endfacet
	facet normal -1.8121241773734e-08 0.50000014214073 0.86602532171944
		outer loop
			vertex 11.011570930481 1.8674572706223 0.40130454301834
			vertex 11.451499938965 1.9049814939499 0.37963992357254
			vertex 11.279000282288 1.9563193321228 0.34999999403954
		endloop
	endfacet
	facet normal -0 0.50000018780744 0.86602529535373
		outer loop
			vertex 11.279000282288 1.9563193321228 0.34999999403954
			vertex 11.451499938965 1.9049814939499 0.37963992357254
			vertex 11.623999595642 1.9563193321228 0.34999999403954
		endloop
	endfacet
	facet normal 1.8121241773734e-08 0.50000014214073 0.86602532171944
		outer loop
			vertex 11.451499938965 1.9049814939499 0.37963992357254
			vertex 11.891428947449 1.8674572706223 0.40130454301834
			vertex 11.623999595642 1.9563193321228 0.34999999403954
		endloop
	endfacet
	facet normal 6.2937022084474e-08 -0.50000005102804 -0.86602537432338
		outer loop
			vertex 12.704310417175 1.4008605480194 0.26654905080795
			vertex 13.989000320435 1.8625371456146 0
			vertex 13.046026229858 1.1579940319061 0.40676814317703
		endloop
	endfacet
	facet normal 1.3982578995802e-08 -0.50000000188686 -0.86602540269506
		outer loop
			vertex 13.046026229858 1.1579940319061 0.40676814317703
			vertex 13.989000320435 1.8625371456146 0
			vertex 13.326463699341 0.86206018924713 0.57762563228607
		endloop
	endfacet
	facet normal 4.1906475793533e-08 -0.50000041875379 -0.86602516201669
		outer loop
			vertex 11.451499938965 1.7299814224243 0.076531045138836
			vertex 13.989000320435 1.8625371456146 0
			vertex 11.891428947449 1.692457318306 0.098195642232895
		endloop
	endfacet
	facet normal -2.8116963155242e-08 -0.49999977106168 -0.866025535962
		outer loop
			vertex 11.891428947449 1.692457318306 0.098195642232895
			vertex 13.989000320435 1.8625371456146 0
			vertex 12.314451217651 1.5813267230988 0.16235686838627
		endloop
	endfacet
	facet normal 9.686034922749e-09 -0.49999993989341 -0.86602543848699
		outer loop
			vertex 12.314451217651 1.5813267230988 0.16235686838627
			vertex 13.989000320435 1.8625371456146 0
			vertex 12.704310417175 1.4008605480194 0.26654905080795
		endloop
	endfacet
	facet normal -0 0.50000010123898 0.86602534533408
		outer loop
			vertex 11.623999595642 1.9563193321228 0.34999999403954
			vertex 11.891428947449 1.8674572706223 0.40130454301834
			vertex 13.989000320435 1.9563193321228 0.34999999403954
		endloop
	endfacet
	facet normal 4.6345565813128e-09 0.50000001919065 0.86602539270471
		outer loop
			vertex 11.891428947449 1.8674572706223 0.40130454301834
			vertex 12.314451217651 1.7563267946243 0.46546575427055
			vertex 13.989000320435 1.9563193321228 0.34999999403954
		endloop
	endfacet
	facet normal -4.1639551716098e-08 -0.49999997426126 -0.86602541864471
		outer loop
			vertex 13.989000320435 1.8625371456146 0
			vertex 13.534848213196 0.5244317650795 0.77255547046661
			vertex 13.326463699341 0.86206018924713 0.57762563228607
		endloop
	endfacet
	facet normal 1 0 -0
		outer loop
			vertex 13.989000320435 1.8625371456146 0
			vertex 13.989000320435 2.0375370979309 0.30310890078545
			vertex 13.989000320435 0.17499999701977 0.97430002689362
		endloop
	endfacet
	facet normal 5.9301244288361e-08 -0.49999999995569 -0.86602540381002
		outer loop
			vertex 13.989000320435 1.8625371456146 0
			vertex 13.989000320435 0.17499999701977 0.97430002689362
			vertex 13.534848213196 0.5244317650795 0.77255547046661
		endloop
	endfacet
	facet normal 1 0 0
		outer loop
			vertex 13.989000320435 2.0375370979309 0.30310890078545
			vertex 13.989000320435 1.9076569080353 0.34999999403954
			vertex 13.989000320435 0.17499999701977 0.97430002689362
		endloop
	endfacet
	facet normal -1.093203779202e-07 0.5000000851868 0.86602535460181
		outer loop
			vertex 13.989000320435 1.9563193321228 0.34999999403954
			vertex 13.046026229858 1.3329939842224 0.70987701416016
			vertex 13.326463699341 1.0370602607727 0.8807345032692
		endloop
	endfacet
	facet normal 1 0 0
		outer loop
			vertex 13.989000320435 1.9563193321228 0.34999999403954
			vertex 13.989000320435 0.34999999403954 1.2774088382721
			vertex 13.989000320435 1.9076569080353 0.34999999403954
		endloop
	endfacet
	facet normal 2.2566585282428e-08 0.50000001389574 0.86602539576173
		outer loop
			vertex 13.989000320435 1.9563193321228 0.34999999403954
			vertex 13.326463699341 1.0370602607727 0.8807345032692
			vertex 13.534848213196 0.69943177700043 1.0756644010544
		endloop
	endfacet
	facet normal 1.8523881086767e-08 0.49999993196856 0.86602544306241
		outer loop
			vertex 12.314451217651 1.7563267946243 0.46546575427055
			vertex 12.704310417175 1.575860619545 0.56965792179108
			vertex 13.989000320435 1.9563193321228 0.34999999403954
		endloop
	endfacet
	facet normal 1.2683010474577e-08 0.49999994676065 0.86602543452219
		outer loop
			vertex 12.704310417175 1.575860619545 0.56965792179108
			vertex 13.046026229858 1.3329939842224 0.70987701416016
			vertex 13.989000320435 1.9563193321228 0.34999999403954
		endloop
	endfacet
	facet normal -1.6040509759452e-07 0.49999997654177 0.86602541732804
		outer loop
			vertex 8.9139995574951 1.9563193321228 0.34999999403954
			vertex 8.9139995574951 0.34999999403954 1.2774088382721
			vertex 9.3681516647339 0.69943177700043 1.0756644010544
		endloop
	endfacet
	facet normal 0 -0.86602535036717 0.50000009252142
		outer loop
			vertex 8.9139995574951 0.17499999701977 0.97430002689362
			vertex 9.2457542419434 0.17499999701977 0.97430002689362
			vertex 9.2457542419434 0.34999999403954 1.2774088382721
		endloop
	endfacet
	facet normal 0 -0.86602535036717 0.50000009252142
		outer loop
			vertex 8.9139995574951 0.17499999701977 0.97430002689362
			vertex 9.2457542419434 0.34999999403954 1.2774088382721
			vertex 8.9139995574951 0.34999999403954 1.2774088382721
		endloop
	endfacet
	facet normal 0 0.49999982018437 0.86602550760101
		outer loop
			vertex 9.3681516647339 0.69943177700043 1.0756644010544
			vertex 8.9139995574951 0.34999999403954 1.2774088382721
			vertex 9.2457542419434 0.34999999403954 1.2774088382721
		endloop
	endfacet
	facet normal 0 -0.5000000577605 -0.86602537043639
		outer loop
			vertex 13.534848213196 0.5244317650795 0.77255547046661
			vertex 13.989000320435 0.17499999701977 0.97430002689362
			vertex 13.657245635986 0.17499999701977 0.97430002689362
		endloop
	endfacet
	facet normal 3.7441459931238e-07 0.49999991854558 0.86602545081209
		outer loop
			vertex 13.989000320435 1.9563193321228 0.34999999403954
			vertex 13.534848213196 0.69943177700043 1.0756644010544
			vertex 13.657245635986 0.34999999403954 1.2774088382721
		endloop
	endfacet
	facet normal 1 0 0
		outer loop
			vertex 13.989000320435 1.9076569080353 0.34999999403954
			vertex 13.989000320435 0.34999999403954 1.2774088382721
			vertex 13.989000320435 0.17499999701977 0.97430002689362
		endloop
	endfacet
	facet normal 0 0.49999997654177 0.86602541732805
		outer loop
			vertex 13.989000320435 1.9563193321228 0.34999999403954
			vertex 13.657245635986 0.34999999403954 1.2774088382721
			vertex 13.989000320435 0.34999999403954 1.2774088382721
		endloop
	endfacet
	facet normal 0 -0.86602535036717 0.50000009252142
		outer loop
			vertex 13.657245635986 0.17499999701977 0.97430002689362
			vertex 13.989000320435 0.17499999701977 0.97430002689362
			vertex 13.989000320435 0.34999999403954 1.2774088382721
		endloop
	endfacet
	facet normal 0 -0.86602535036717 0.50000009252142
		outer loop
			vertex 13.657245635986 0.17499999701977 0.97430002689362
			vertex 13.989000320435 0.34999999403954 1.2774088382721
			vertex 13.657245635986 0.34999999403954 1.2774088382721
		endloop
	endfacet
	facet normal 0.87524056577379 0 -0.48368786631875
		outer loop
			vertex 11.173999786377 1.7466127872467 0.15999999642372
			vertex 11.279000282288 1.9563193321228 0.34999999403954
			vertex 11.279000282288 1.8682507276535 0.34999999403954
		endloop
	endfacet
	facet normal 0 0 -1
		outer loop
			vertex 11.279000282288 1.9563193321228 0.34999999403954
			vertex 11.451499938965 1.8878688812256 0.34999999403954
			vertex 11.279000282288 1.8682507276535 0.34999999403954
		endloop
	endfacet
	facet normal 0 0 -1
		outer loop
			vertex 11.279000282288 1.9563193321228 0.34999999403954
			vertex 11.623999595642 1.9563193321228 0.34999999403954
			vertex 11.451499938965 1.8878688812256 0.34999999403954
		endloop
	endfacet
	facet normal 0 0 -1
		outer loop
			vertex 11.451499938965 1.8878688812256 0.34999999403954
			vertex 11.623999595642 1.9563193321228 0.34999999403954
			vertex 11.623999595642 1.8682507276535 0.34999999403954
		endloop
	endfacet
	facet normal 0 0 1
		outer loop
			vertex 11.173999786377 11.006537437439 0.15999999642372
			vertex 11.173999786377 1.7466127872467 0.15999999642372
			vertex 11.451499938965 1.7781722545624 0.15999999642372
		endloop
	endfacet
	facet normal -0 0 1
		outer loop
			vertex 11.451499938965 1.7781722545624 0.15999999642372
			vertex 11.729000091553 1.7466127872467 0.15999999642372
			vertex 11.729000091553 11.006537437439 0.15999999642372
		endloop
	endfacet
	facet normal 0.87524056577379 0 -0.48368786631875
		outer loop
			vertex 11.173999786377 11.006537437439 0.15999999642372
			vertex 11.279000282288 1.9563193321228 0.34999999403954
			vertex 11.173999786377 1.7466127872467 0.15999999642372
		endloop
	endfacet
	facet normal -0.87524056577379 -0 -0.48368786631875
		outer loop
			vertex 11.729000091553 11.006537437439 0.15999999642372
			vertex 11.729000091553 1.7466127872467 0.15999999642372
			vertex 11.623999595642 1.8682507276535 0.34999999403954
		endloop
	endfacet
	facet normal -0.87524021021477 0 -0.48368850970764
		outer loop
			vertex 11.720581054688 11.006537437439 0.17523467540741
			vertex 11.623999595642 1.8682507276535 0.34999999403954
			vertex 11.623999595642 1.9563193321228 0.34999999403954
		endloop
	endfacet
	facet normal -0 0 1
		outer loop
			vertex 11.173999786377 11.006537437439 0.15999999642372
			vertex 11.451499938965 1.7781722545624 0.15999999642372
			vertex 11.293999671936 11.006537437439 0.15999999642372
		endloop
	endfacet
	facet normal -0 0 1
		outer loop
			vertex 11.293999671936 11.006537437439 0.15999999642372
			vertex 11.451499938965 1.7781722545624 0.15999999642372
			vertex 11.609000205994 11.006537437439 0.15999999642372
		endloop
	endfacet
	facet normal 0 0 1
		outer loop
			vertex 11.451499938965 1.7781722545624 0.15999999642372
			vertex 11.668999671936 11.006537437439 0.15999999642372
			vertex 11.609000205994 11.006537437439 0.15999999642372
		endloop
	endfacet
	facet normal 0 0 1
		outer loop
			vertex 11.451499938965 1.7781722545624 0.15999999642372
			vertex 11.729000091553 11.006537437439 0.15999999642372
			vertex 11.668999671936 11.006537437439 0.15999999642372
		endloop
	endfacet
	facet normal 0.87524056577379 0 -0.48368786631875
		outer loop
			vertex 11.173999786377 11.006537437439 0.15999999642372
			vertex 11.279000282288 10.656537055969 0.34999999403954
			vertex 11.279000282288 1.9563193321228 0.34999999403954
		endloop
	endfacet
	facet normal -0.87524464457212 2.0032342334597e-07 -0.48368048559745
		outer loop
			vertex 11.729000091553 11.006537437439 0.15999999642372
			vertex 11.623999595642 1.8682507276535 0.34999999403954
			vertex 11.720581054688 11.006537437439 0.17523467540741
		endloop
	endfacet
	facet normal -0.87524021021477 0 -0.48368850970764
		outer loop
			vertex 11.720581054688 11.006537437439 0.17523467540741
			vertex 11.623999595642 1.9563193321228 0.34999999403954
			vertex 11.623999595642 10.656537055969 0.34999999403954
		endloop
	endfacet
	facet normal 0.87524056577379 0 -0.48368786631875
		outer loop
			vertex 11.173999786377 11.006537437439 0.15999999642372
			vertex 11.279000282288 11.006537437439 0.34999999403954
			vertex 11.279000282288 10.656537055969 0.34999999403954
		endloop
	endfacet
	facet normal 0 -1 0
		outer loop
			vertex 11.293999671936 11.006537437439 0.15999999642372
			vertex 11.609000205994 11.006537437439 0.15999999642372
			vertex 11.293999671936 11.006537437439 0.34999999403954
		endloop
	endfacet
	facet normal 0 -1 0
		outer loop
			vertex 11.293999671936 11.006537437439 0.34999999403954
			vertex 11.609000205994 11.006537437439 0.15999999642372
			vertex 11.609000205994 11.006537437439 0.34999999403954
		endloop
	endfacet
	facet normal -0.87524021021477 0 -0.48368850970764
		outer loop
			vertex 11.720581054688 11.006537437439 0.17523467540741
			vertex 11.623999595642 10.656537055969 0.34999999403954
			vertex 11.623999595642 11.006537437439 0.34999999403954
		endloop
	endfacet
	facet normal 0 0 -1
		outer loop
			vertex 11.279000282288 11.006537437439 0.34999999403954
			vertex 11.623999595642 10.656537055969 0.34999999403954
			vertex 11.279000282288 10.656537055969 0.34999999403954
		endloop
	endfacet
	facet normal 0 0 -1
		outer loop
			vertex 11.279000282288 11.006537437439 0.34999999403954
			vertex 11.293999671936 11.006537437439 0.34999999403954
			vertex 11.623999595642 10.656537055969 0.34999999403954
		endloop
	endfacet
	facet normal 0 0 -1
		outer loop
			vertex 11.293999671936 11.006537437439 0.34999999403954
			vertex 11.609000205994 11.006537437439 0.34999999403954
			vertex 11.623999595642 10.656537055969 0.34999999403954
		endloop
	endfacet
	facet normal 0 0 -1
		outer loop
			vertex 11.609000205994 11.006537437439 0.34999999403954
			vertex 11.623999595642 11.006537437439 0.34999999403954
			vertex 11.623999595642 10.656537055969 0.34999999403954
		endloop
	endfacet
	facet normal 0.47139726423535 -0.76376589345708 0.44096063232804
		outer loop
			vertex 10.588548660278 1.5813267230988 0.16235686838627
			vertex 10.588548660278 1.7563267946243 0.46546575427055
			vertex 10.198689460754 1.4008605480194 0.26654905080795
		endloop
	endfacet
	facet normal 0.63439325924808 -0.66944662807607 0.38650537483737
		outer loop
			vertex 9.8569746017456 1.1579940319061 0.40676814317703
			vertex 10.198689460754 1.4008605480194 0.26654905080795
			vertex 10.198689460754 1.575860619545 0.56965792179108
		endloop
	endfacet
	facet normal 0.7730102374218 -0.54940095615612 0.31719672478736
		outer loop
			vertex 9.8569746017456 1.1579940319061 0.40676814317703
			vertex 9.8569746017456 1.3329939842224 0.70987701416016
			vertex 9.5765361785889 0.86206018924713 0.57762563228607
		endloop
	endfacet
	facet normal 0.63439339879907 -0.66944664289927 0.38650512010977
		outer loop
			vertex 9.8569746017456 1.1579940319061 0.40676814317703
			vertex 10.198689460754 1.575860619545 0.56965792179108
			vertex 9.8569746017456 1.3329939842224 0.70987701416016
		endloop
	endfacet
	facet normal 0.88192111705291 -0.40824173944016 0.23569859031189
		outer loop
			vertex 9.3681516647339 0.5244317650795 0.77255547046661
			vertex 9.5765361785889 0.86206018924713 0.57762563228607
			vertex 9.5765361785889 1.0370602607727 0.8807345032692
		endloop
	endfacet
	facet normal 0.77301014343225 -0.54940096177654 0.31719694410549
		outer loop
			vertex 9.5765361785889 0.86206018924713 0.57762563228607
			vertex 9.8569746017456 1.3329939842224 0.70987701416016
			vertex 9.5765361785889 1.0370602607727 0.8807345032692
		endloop
	endfacet
	facet normal 0.47139725112629 -0.76376589013837 0.44096065209009
		outer loop
			vertex 10.198689460754 1.4008605480194 0.26654905080795
			vertex 10.588548660278 1.7563267946243 0.46546575427055
			vertex 10.198689460754 1.575860619545 0.56965792179108
		endloop
	endfacet
	facet normal 0.098016917508323 -0.86185522616885 0.49759245674307
		outer loop
			vertex 11.011570930481 1.692457318306 0.098195642232895
			vertex 11.451499938965 1.7299814224243 0.076531045138836
			vertex 11.451499938965 1.7781722545624 0.15999999642372
		endloop
	endfacet
	facet normal 0.098016832079842 -0.86185503659719 0.49759280191849
		outer loop
			vertex 11.011570930481 1.692457318306 0.098195642232895
			vertex 11.451499938965 1.7781722545624 0.15999999642372
			vertex 11.173999786377 1.7466127872467 0.15999999642372
		endloop
	endfacet
	facet normal -0.098016854253008 -0.86185523156426 0.49759245985812
		outer loop
			vertex 11.451499938965 1.7299814224243 0.076531045138836
			vertex 11.729000091553 1.7466127872467 0.15999999642372
			vertex 11.451499938965 1.7781722545624 0.15999999642372
		endloop
	endfacet
	facet normal -0.098016917508338 -0.86185511622327 0.4975926471743
		outer loop
			vertex 11.451499938965 1.7299814224243 0.076531045138836
			vertex 11.891428947449 1.692457318306 0.098195642232895
			vertex 11.729000091553 1.7466127872467 0.15999999642372
		endloop
	endfacet
	facet normal 0.29028494428675 -0.82873463341895 0.47847001838401
		outer loop
			vertex 10.588548660278 1.5813267230988 0.16235686838627
			vertex 11.011570930481 1.692457318306 0.098195642232895
			vertex 11.011570930481 1.8674572706223 0.40130454301834
		endloop
	endfacet
	facet normal 0.098017136673862 -0.86185532050268 0.49759225018029
		outer loop
			vertex 11.011570930481 1.692457318306 0.098195642232895
			vertex 11.173999786377 1.7466127872467 0.15999999642372
			vertex 11.011570930481 1.8674572706223 0.40130454301834
		endloop
	endfacet
	facet normal 0.098016856298677 -0.86185542976108 0.49759211616812
		outer loop
			vertex 11.173999786377 1.7466127872467 0.15999999642372
			vertex 11.279000282288 1.8682507276535 0.34999999403954
			vertex 11.011570930481 1.8674572706223 0.40130454301834
		endloop
	endfacet
	facet normal 0.29028471499142 -0.82873454233819 0.47847031525253
		outer loop
			vertex 10.588548660278 1.5813267230988 0.16235686838627
			vertex 11.011570930481 1.8674572706223 0.40130454301834
			vertex 10.588548660278 1.7563267946243 0.46546575427055
		endloop
	endfacet
	facet normal 0.098017173843371 -0.8618544290637 0.49759378687342
		outer loop
			vertex 11.011570930481 1.8674572706223 0.40130454301834
			vertex 11.279000282288 1.8682507276535 0.34999999403954
			vertex 11.451499938965 1.9049814939499 0.37963992357254
		endloop
	endfacet
	facet normal -0.098016856298677 -0.86185542976108 0.49759211616812
		outer loop
			vertex 11.729000091553 1.7466127872467 0.15999999642372
			vertex 11.891428947449 1.8674572706223 0.40130454301834
			vertex 11.623999595642 1.8682507276535 0.34999999403954
		endloop
	endfacet
	facet normal -0.098017136673862 -0.86185532050268 0.49759225018029
		outer loop
			vertex 11.729000091553 1.7466127872467 0.15999999642372
			vertex 11.891428947449 1.692457318306 0.098195642232895
			vertex 11.891428947449 1.8674572706223 0.40130454301834
		endloop
	endfacet
	facet normal -0.29028494428672 -0.82873448210093 0.47847028047452
		outer loop
			vertex 11.891428947449 1.692457318306 0.098195642232895
			vertex 12.314451217651 1.5813267230988 0.16235686838627
			vertex 12.314451217651 1.7563267946243 0.46546575427055
		endloop
	endfacet
	facet normal 0.098017644462475 -0.86185531966424 0.49759215160659
		outer loop
			vertex 11.279000282288 1.8682507276535 0.34999999403954
			vertex 11.451499938965 1.8878688812256 0.34999999403954
			vertex 11.451499938965 1.9049814939499 0.37963992357254
		endloop
	endfacet
	facet normal -0.098017644462475 -0.86185531966424 0.49759215160659
		outer loop
			vertex 11.451499938965 1.8878688812256 0.34999999403954
			vertex 11.623999595642 1.8682507276535 0.34999999403954
			vertex 11.451499938965 1.9049814939499 0.37963992357254
		endloop
	endfacet
	facet normal -0.098017173843371 -0.8618544290637 0.49759378687342
		outer loop
			vertex 11.451499938965 1.9049814939499 0.37963992357254
			vertex 11.623999595642 1.8682507276535 0.34999999403954
			vertex 11.891428947449 1.8674572706223 0.40130454301834
		endloop
	endfacet
	facet normal -0.29028471499142 -0.82873469365623 0.47847005316201
		outer loop
			vertex 11.891428947449 1.692457318306 0.098195642232895
			vertex 12.314451217651 1.7563267946243 0.46546575427055
			vertex 11.891428947449 1.8674572706223 0.40130454301834
		endloop
	endfacet
	facet normal -0.47139726423535 -0.76376588407018 0.44096064858661
		outer loop
			vertex 12.314451217651 1.5813267230988 0.16235686838627
			vertex 12.704310417175 1.4008605480194 0.26654905080795
			vertex 12.704310417175 1.575860619545 0.56965792179108
		endloop
	endfacet
	facet normal -0.47139725112629 -0.76376589952527 0.44096063583151
		outer loop
			vertex 12.314451217651 1.5813267230988 0.16235686838627
			vertex 12.704310417175 1.575860619545 0.56965792179108
			vertex 12.314451217651 1.7563267946243 0.46546575427055
		endloop
	endfacet
	facet normal -0.63439220129828 -0.66944749399638 0.38650561149081
		outer loop
			vertex 12.704310417175 1.4008605480194 0.26654905080795
			vertex 13.046026229858 1.1579940319061 0.40676814317703
			vertex 13.046026229858 1.3329939842224 0.70987701416016
		endloop
	endfacet
	facet normal -0.63439234084934 -0.66944728080748 0.38650575169221
		outer loop
			vertex 12.704310417175 1.4008605480194 0.26654905080795
			vertex 13.046026229858 1.3329939842224 0.70987701416016
			vertex 12.704310417175 1.575860619545 0.56965792179108
		endloop
	endfacet
	facet normal -0.88192111705292 -0.40824179427134 0.23569849534149
		outer loop
			vertex 13.326463699341 0.86206018924713 0.57762563228607
			vertex 13.534848213196 0.5244317650795 0.77255547046661
			vertex 13.534848213196 0.69943177700043 1.0756644010544
		endloop
	endfacet
	facet normal -0.77301129537263 -0.54939974618479 0.31719624228294
		outer loop
			vertex 13.046026229858 1.1579940319061 0.40676814317703
			vertex 13.326463699341 0.86206018924713 0.57762563228607
			vertex 13.326463699341 1.0370602607727 0.8807345032692
		endloop
	endfacet
	facet normal -0.77301120138332 -0.54939993892998 0.31719613749169
		outer loop
			vertex 13.046026229858 1.1579940319061 0.40676814317703
			vertex 13.326463699341 1.0370602607727 0.8807345032692
			vertex 13.046026229858 1.3329939842224 0.70987701416016
		endloop
	endfacet
	facet normal 0.95694010338577 -0.25139457201722 0.14514271491295
		outer loop
			vertex 9.3681516647339 0.5244317650795 0.77255547046661
			vertex 9.3681516647339 0.69943177700043 1.0756644010544
			vertex 9.2457542419434 0.17499999701977 0.97430002689362
		endloop
	endfacet
	facet normal 0.88192115798217 -0.40824172795701 0.2356984570549
		outer loop
			vertex 9.3681516647339 0.5244317650795 0.77255547046661
			vertex 9.5765361785889 1.0370602607727 0.8807345032692
			vertex 9.3681516647339 0.69943177700043 1.0756644010544
		endloop
	endfacet
	facet normal 0.95694009405282 -0.25139457929569 0.14514276383935
		outer loop
			vertex 9.2457542419434 0.17499999701977 0.97430002689362
			vertex 9.3681516647339 0.69943177700043 1.0756644010544
			vertex 9.2457542419434 0.34999999403954 1.2774088382721
		endloop
	endfacet
	facet normal -0.95694010338578 -0.25139455265108 0.14514274845607
		outer loop
			vertex 13.534848213196 0.5244317650795 0.77255547046661
			vertex 13.657245635986 0.17499999701977 0.97430002689362
			vertex 13.657245635986 0.34999999403954 1.2774088382721
		endloop
	endfacet
	facet normal -0.88192115798217 -0.40824167312583 0.23569855202528
		outer loop
			vertex 13.326463699341 0.86206018924713 0.57762563228607
			vertex 13.534848213196 0.69943177700043 1.0756644010544
			vertex 13.326463699341 1.0370602607727 0.8807345032692
		endloop
	endfacet
	facet normal -0.95694009405282 -0.25139459866182 0.14514273029622
		outer loop
			vertex 13.534848213196 0.5244317650795 0.77255547046661
			vertex 13.657245635986 0.34999999403954 1.2774088382721
			vertex 13.534848213196 0.69943177700043 1.0756644010544
		endloop
	endfacet
	facet normal -1 0 0
		outer loop
			vertex 0.17499999701977 9.4550247192383 0
			vertex 0.17499999701977 9.4550247192383 0.10499999672174
			vertex 0.17499999701977 10.040601730347 0.08076923340559
		endloop
	endfacet
	facet normal -1 0 0
		outer loop
			vertex 0.17499999701977 9.4550247192383 0.10499999672174
			vertex 0.17499999701977 11.992525100708 0.10499999672174
			vertex 0.17499999701977 10.040601730347 0.08076923340559
		endloop
	endfacet
	facet normal -1 0 0
		outer loop
			vertex 0.17499999701977 10.040601730347 0.08076923340559
			vertex 0.17499999701977 11.992525100708 0.10499999672174
			vertex 0.17499999701977 11.992525100708 0
		endloop
	endfacet
	facet normal 0.49999998517209 -0.86602541234533 0
		outer loop
			vertex 0.52499997615814 9.6570978164673 0
			vertex 4.5700788497925 11.992525100708 0
			vertex 0.52499997615814 9.6570978164673 0.34999999403954
		endloop
	endfacet
	facet normal 0 0 -1
		outer loop
			vertex 0.52499997615814 9.6570978164673 0
			vertex 0.52499997615814 11.992525100708 0
			vertex 4.5700788497925 11.992525100708 0
		endloop
	endfacet
	facet normal 0 1 0
		outer loop
			vertex 0.52499997615814 11.992525100708 0
			vertex 4.5700788497925 11.992525100708 0.34999999403954
			vertex 4.5700788497925 11.992525100708 0
		endloop
	endfacet
	facet normal 0 0 1
		outer loop
			vertex 0.52499997615814 9.6570978164673 0.34999999403954
			vertex 4.5700788497925 11.992525100708 0.34999999403954
			vertex 0.52499997615814 11.992525100708 0.34999999403954
		endloop
	endfacet
	facet normal 0 1 0
		outer loop
			vertex 0.52499997615814 11.992525100708 0
			vertex 0.52499997615814 11.992525100708 0.34999999403954
			vertex 4.5700788497925 11.992525100708 0.34999999403954
		endloop
	endfacet
	facet normal 0.49999998517209 -0.86602541234533 0
		outer loop
			vertex 4.5700788497925 11.992525100708 0
			vertex 4.5700788497925 11.992525100708 0.34999999403954
			vertex 0.52499997615814 9.6570978164673 0.34999999403954
		endloop
	endfacet
	facet normal 0 -1 0
		outer loop
			vertex 0.17499999701977 9.4550247192383 0
			vertex 0.52499997615814 9.4550247192383 0
			vertex 0.52499997615814 9.4550247192383 0.52499997615814
		endloop
	endfacet
	facet normal 1 0 0
		outer loop
			vertex 0.52499997615814 9.4550247192383 0
			vertex 0.52499997615814 9.6570978164673 0
			vertex 0.52499997615814 9.6570978164673 0.34999999403954
		endloop
	endfacet
	facet normal 0 0 -1
		outer loop
			vertex 0.17499999701977 9.4550247192383 0
			vertex 0.17499999701977 11.992525100708 0
			vertex 0.52499997615814 9.4550247192383 0
		endloop
	endfacet
	facet normal 0 0 -1
		outer loop
			vertex 0.52499997615814 9.4550247192383 0
			vertex 0.17499999701977 11.992525100708 0
			vertex 0.52499997615814 9.6570978164673 0
		endloop
	endfacet
	facet normal 0 -1 0
		outer loop
			vertex 0.17499999701977 9.4550247192383 0
			vertex 0.52499997615814 9.4550247192383 0.52499997615814
			vertex 0.17499999701977 9.4550247192383 0.10499999672174
		endloop
	endfacet
	facet normal 1 0 0
		outer loop
			vertex 0.52499997615814 9.4550247192383 0
			vertex 0.52499997615814 9.6570978164673 0.34999999403954
			vertex 0.52499997615814 9.4550247192383 0.52499997615814
		endloop
	endfacet
	facet normal 0 -1 0
		outer loop
			vertex 0.17499999701977 9.4550247192383 0.10499999672174
			vertex 0.52499997615814 9.4550247192383 0.52499997615814
			vertex 0.17499999701977 9.4550247192383 0.34999999403954
		endloop
	endfacet
	facet normal -1 0 0
		outer loop
			vertex 0.17499999701977 9.4550247192383 0
			vertex 0.17499999701977 10.040601730347 0.08076923340559
			vertex 0.17499999701977 11.992525100708 0
		endloop
	endfacet
	facet normal 0 0 -1
		outer loop
			vertex 0.52499997615814 9.6570978164673 0
			vertex 0.17499999701977 11.992525100708 0
			vertex 0.52499997615814 11.992525100708 0
		endloop
	endfacet
	facet normal 0 1 0
		outer loop
			vertex 0.17499999701977 11.992525100708 0
			vertex 0.17499999701977 11.992525100708 0.10499999672174
			vertex 0.52499997615814 11.992525100708 0
		endloop
	endfacet
	facet normal 0 1 0
		outer loop
			vertex 0.52499997615814 11.992525100708 0
			vertex 0.17499999701977 11.992525100708 0.10499999672174
			vertex 0.17499999701977 11.992525100708 0.41999998688698
		endloop
	endfacet
	facet normal 0 1 -0
		outer loop
			vertex 0.52499997615814 11.992525100708 0
			vertex 0.17499999701977 11.992525100708 0.52499997615814
			vertex 0.52499997615814 11.992525100708 0.34999999403954
		endloop
	endfacet
	facet normal 0 1 0
		outer loop
			vertex 0.52499997615814 11.992525100708 0
			vertex 0.17499999701977 11.992525100708 0.41999998688698
			vertex 0.17499999701977 11.992525100708 0.52499997615814
		endloop
	endfacet
	facet normal 0 -1 0
		outer loop
			vertex 0.17499999701977 9.4550247192383 0.34999999403954
			vertex 0.52499997615814 9.4550247192383 0.52499997615814
			vertex 0.17499999701977 9.4550247192383 0.41999998688698
		endloop
	endfacet
	facet normal 0 -1 0
		outer loop
			vertex 0.17499999701977 9.4550247192383 0.41999998688698
			vertex 0.52499997615814 9.4550247192383 0.52499997615814
			vertex 0.17499999701977 9.4550247192383 0.52499997615814
		endloop
	endfacet
	facet normal -1 0 0
		outer loop
			vertex 0.17499999701977 9.4550247192383 0.41999998688698
			vertex 0.17499999701977 9.4550247192383 0.52499997615814
			vertex 0.17499999701977 11.992525100708 0.41999998688698
		endloop
	endfacet
	facet normal 1 0 -0
		outer loop
			vertex 0.52499997615814 9.6570978164673 0.34999999403954
			vertex 0.52499997615814 11.992525100708 0.34999999403954
			vertex 0.52499997615814 9.4550247192383 0.52499997615814
		endloop
	endfacet
	facet normal 0 0 1
		outer loop
			vertex 0.17499999701977 9.4550247192383 0.52499997615814
			vertex 0.52499997615814 9.4550247192383 0.52499997615814
			vertex 0.52499997615814 11.992525100708 0.52499997615814
		endloop
	endfacet
	facet normal -1 0 0
		outer loop
			vertex 0.17499999701977 9.4550247192383 0.52499997615814
			vertex 0.17499999701977 11.992525100708 0.52499997615814
			vertex 0.17499999701977 11.992525100708 0.41999998688698
		endloop
	endfacet
	facet normal 1 0 -0
		outer loop
			vertex 0.52499997615814 11.992525100708 0.34999999403954
			vertex 0.52499997615814 11.992525100708 0.52499997615814
			vertex 0.52499997615814 9.4550247192383 0.52499997615814
		endloop
	endfacet
	facet normal 0 0 1
		outer loop
			vertex 0.17499999701977 9.4550247192383 0.52499997615814
			vertex 0.52499997615814 11.992525100708 0.52499997615814
			vertex 0.17499999701977 11.992525100708 0.52499997615814
		endloop
	endfacet
	facet normal 0 1 -0
		outer loop
			vertex 0.52499997615814 11.992525100708 0.34999999403954
			vertex 0.17499999701977 11.992525100708 0.52499997615814
			vertex 0.52499997615814 11.992525100708 0.52499997615814
		endloop
	endfacet
	facet normal 0.51449575005877 0 -0.8574929289338
		outer loop
			vertex 0 9.4550247192383 0
			vertex 0.17499999701977 11.992525100708 0.10499999672174
			vertex 0.17499999701977 9.4550247192383 0.10499999672174
		endloop
	endfacet
	facet normal -1 0 0
		outer loop
			vertex 0 9.4550247192383 0
			vertex 0 9.4550247192383 0.52499997615814
			vertex 0 11.992525100708 0
		endloop
	endfacet
	facet normal 0 -1 0
		outer loop
			vertex 0 9.4550247192383 0
			vertex 0.17499999701977 9.4550247192383 0.10499999672174
			vertex 0 9.4550247192383 0.52499997615814
		endloop
	endfacet
	facet normal 0 -1 0
		outer loop
			vertex 0.17499999701977 9.4550247192383 0.10499999672174
			vertex 0.17499999701977 9.4550247192383 0.34999999403954
			vertex 0 9.4550247192383 0.52499997615814
		endloop
	endfacet
	facet normal 0.51449575005877 0 -0.8574929289338
		outer loop
			vertex 0 9.4550247192383 0
			vertex 0 11.992525100708 0
			vertex 0.17499999701977 11.992525100708 0.10499999672174
		endloop
	endfacet
	facet normal -1 0 0
		outer loop
			vertex 0 11.992525100708 0
			vertex 0 9.4550247192383 0.52499997615814
			vertex 0 11.992525100708 0.52499997615814
		endloop
	endfacet
	facet normal 0 1 0
		outer loop
			vertex 0 11.992525100708 0
			vertex 0 11.992525100708 0.52499997615814
			vertex 0.17499999701977 11.992525100708 0.10499999672174
		endloop
	endfacet
	facet normal 0 1 -0
		outer loop
			vertex 0.17499999701977 11.992525100708 0.10499999672174
			vertex 0 11.992525100708 0.52499997615814
			vertex 0.17499999701977 11.992525100708 0.41999998688698
		endloop
	endfacet
	facet normal 0 -1 0
		outer loop
			vertex 0.17499999701977 9.4550247192383 0.34999999403954
			vertex 0.17499999701977 9.4550247192383 0.41999998688698
			vertex 0 9.4550247192383 0.52499997615814
		endloop
	endfacet
	facet normal 0.51449572321499 0 0.85749294504007
		outer loop
			vertex 0.17499999701977 9.4550247192383 0.41999998688698
			vertex 0 11.992525100708 0.52499997615814
			vertex 0 9.4550247192383 0.52499997615814
		endloop
	endfacet
	facet normal 0.51449572321499 -0 0.85749294504007
		outer loop
			vertex 0.17499999701977 9.4550247192383 0.41999998688698
			vertex 0.17499999701977 11.992525100708 0.41999998688698
			vertex 0 11.992525100708 0.52499997615814
		endloop
	endfacet
	facet normal -1 0 0
		outer loop
			vertex 5.045078754425 9.4550247192383 0
			vertex 5.045078754425 9.4550247192383 0.10499999672174
			vertex 5.045078754425 11.4069480896 0.08076923340559
		endloop
	endfacet
	facet normal -1 0 0
		outer loop
			vertex 5.045078754425 9.4550247192383 0.10499999672174
			vertex 5.045078754425 11.992525100708 0.10499999672174
			vertex 5.045078754425 11.4069480896 0.08076923340559
		endloop
	endfacet
	facet normal -1 0 0
		outer loop
			vertex 5.045078754425 11.992525100708 0
			vertex 5.045078754425 11.4069480896 0.08076923340559
			vertex 5.045078754425 11.992525100708 0.10499999672174
		endloop
	endfacet
	facet normal 0 0 -1
		outer loop
			vertex 5.3950791358948 9.4550247192383 0
			vertex 5.3950791358948 11.790452957153 0
			vertex 8.9139995574951 9.7588024139404 0
		endloop
	endfacet
	facet normal 0 -1 0
		outer loop
			vertex 5.3950791358948 9.4550247192383 0
			vertex 8.9139995574951 9.4550247192383 0.34999999403954
			vertex 5.3950791358948 9.4550247192383 0.34999999403954
		endloop
	endfacet
	facet normal 0 0 1
		outer loop
			vertex 5.3950791358948 9.4550247192383 0.34999999403954
			vertex 8.9139995574951 9.7588024139404 0.34999999403954
			vertex 5.3950791358948 11.790452957153 0.34999999403954
		endloop
	endfacet
	facet normal 0.50000016437595 0.86602530888192 -0
		outer loop
			vertex 5.3950791358948 11.790452957153 0
			vertex 5.3950791358948 11.790452957153 0.34999999403954
			vertex 8.9139995574951 9.7588024139404 0
		endloop
	endfacet
	facet normal 0 0 -1
		outer loop
			vertex 5.3950791358948 9.4550247192383 0
			vertex 8.9139995574951 9.7588024139404 0
			vertex 8.9139995574951 9.4550247192383 0
		endloop
	endfacet
	facet normal 0 -1 0
		outer loop
			vertex 5.3950791358948 9.4550247192383 0
			vertex 8.9139995574951 9.4550247192383 0
			vertex 8.9139995574951 9.4550247192383 0.34999999403954
		endloop
	endfacet
	facet normal 0 0 1
		outer loop
			vertex 5.3950791358948 9.4550247192383 0.34999999403954
			vertex 8.9139995574951 9.4550247192383 0.34999999403954
			vertex 8.9139995574951 9.7588024139404 0.34999999403954
		endloop
	endfacet
	facet normal 0.50000016437595 0.86602530888192 0
		outer loop
			vertex 5.3950791358948 11.790452957153 0.34999999403954
			vertex 8.9139995574951 9.7588024139404 0.34999999403954
			vertex 8.9139995574951 9.7588024139404 0
		endloop
	endfacet
	facet normal 0 -1 0
		outer loop
			vertex 5.045078754425 9.4550247192383 0
			vertex 5.3950791358948 9.4550247192383 0
			vertex 5.045078754425 9.4550247192383 0.10499999672174
		endloop
	endfacet
	facet normal 0 -1 0
		outer loop
			vertex 5.3950791358948 9.4550247192383 0
			vertex 5.045078754425 9.4550247192383 0.41999998688698
			vertex 5.045078754425 9.4550247192383 0.10499999672174
		endloop
	endfacet
	facet normal 0 -1 0
		outer loop
			vertex 5.3950791358948 9.4550247192383 0
			vertex 5.045078754425 9.4550247192383 0.52499997615814
			vertex 5.045078754425 9.4550247192383 0.41999998688698
		endloop
	endfacet
	facet normal -1 0 0
		outer loop
			vertex 5.045078754425 9.4550247192383 0
			vertex 5.045078754425 11.4069480896 0.08076923340559
			vertex 5.045078754425 11.992525100708 0
		endloop
	endfacet
	facet normal 0 0 -1
		outer loop
			vertex 5.045078754425 9.4550247192383 0
			vertex 5.045078754425 11.992525100708 0
			vertex 5.3950791358948 11.992525100708 0
		endloop
	endfacet
	facet normal 0 1 0
		outer loop
			vertex 5.045078754425 11.992525100708 0
			vertex 5.045078754425 11.992525100708 0.10499999672174
			vertex 5.3950791358948 11.992525100708 0.52499997615814
		endloop
	endfacet
	facet normal 0 1 0
		outer loop
			vertex 5.045078754425 11.992525100708 0.10499999672174
			vertex 5.045078754425 11.992525100708 0.34999999403954
			vertex 5.3950791358948 11.992525100708 0.52499997615814
		endloop
	endfacet
	facet normal 0 0 -1
		outer loop
			vertex 5.045078754425 9.4550247192383 0
			vertex 5.3950791358948 11.790452957153 0
			vertex 5.3950791358948 9.4550247192383 0
		endloop
	endfacet
	facet normal 0 -1 0
		outer loop
			vertex 5.3950791358948 9.4550247192383 0
			vertex 5.3950791358948 9.4550247192383 0.34999999403954
			vertex 5.045078754425 9.4550247192383 0.52499997615814
		endloop
	endfacet
	facet normal 0 0 -1
		outer loop
			vertex 5.045078754425 9.4550247192383 0
			vertex 5.3950791358948 11.992525100708 0
			vertex 5.3950791358948 11.790452957153 0
		endloop
	endfacet
	facet normal 1 0 0
		outer loop
			vertex 5.3950791358948 11.790452957153 0
			vertex 5.3950791358948 11.992525100708 0
			vertex 5.3950791358948 11.790452957153 0.34999999403954
		endloop
	endfacet
	facet normal 0 1 0
		outer loop
			vertex 5.045078754425 11.992525100708 0
			vertex 5.3950791358948 11.992525100708 0.52499997615814
			vertex 5.3950791358948 11.992525100708 0
		endloop
	endfacet
	facet normal 1 0 -0
		outer loop
			vertex 5.3950791358948 11.992525100708 0
			vertex 5.3950791358948 11.992525100708 0.52499997615814
			vertex 5.3950791358948 11.790452957153 0.34999999403954
		endloop
	endfacet
	facet normal -1 0 0
		outer loop
			vertex 5.045078754425 9.4550247192383 0.41999998688698
			vertex 5.045078754425 9.4550247192383 0.52499997615814
			vertex 5.045078754425 11.992525100708 0.52499997615814
		endloop
	endfacet
	facet normal 0 0 1
		outer loop
			vertex 5.045078754425 9.4550247192383 0.52499997615814
			vertex 5.3950791358948 9.4550247192383 0.52499997615814
			vertex 5.045078754425 11.992525100708 0.52499997615814
		endloop
	endfacet
	facet normal -1 0 0
		outer loop
			vertex 5.045078754425 9.4550247192383 0.41999998688698
			vertex 5.045078754425 11.992525100708 0.52499997615814
			vertex 5.045078754425 11.992525100708 0.41999998688698
		endloop
	endfacet
	facet normal 0 1 0
		outer loop
			vertex 5.045078754425 11.992525100708 0.34999999403954
			vertex 5.045078754425 11.992525100708 0.41999998688698
			vertex 5.3950791358948 11.992525100708 0.52499997615814
		endloop
	endfacet
	facet normal 0 1 0
		outer loop
			vertex 5.045078754425 11.992525100708 0.41999998688698
			vertex 5.045078754425 11.992525100708 0.52499997615814
			vertex 5.3950791358948 11.992525100708 0.52499997615814
		endloop
	endfacet
	facet normal 0 -1 0
		outer loop
			vertex 5.3950791358948 9.4550247192383 0.34999999403954
			vertex 5.3950791358948 9.4550247192383 0.52499997615814
			vertex 5.045078754425 9.4550247192383 0.52499997615814
		endloop
	endfacet
	facet normal 1 0 0
		outer loop
			vertex 5.3950791358948 9.4550247192383 0.34999999403954
			vertex 5.3950791358948 11.992525100708 0.52499997615814
			vertex 5.3950791358948 9.4550247192383 0.52499997615814
		endloop
	endfacet
	facet normal 1 0 0
		outer loop
			vertex 5.3950791358948 9.4550247192383 0.34999999403954
			vertex 5.3950791358948 11.790452957153 0.34999999403954
			vertex 5.3950791358948 11.992525100708 0.52499997615814
		endloop
	endfacet
	facet normal 0 -0 1
		outer loop
			vertex 5.3950791358948 9.4550247192383 0.52499997615814
			vertex 5.3950791358948 11.992525100708 0.52499997615814
			vertex 5.045078754425 11.992525100708 0.52499997615814
		endloop
	endfacet
	facet normal 0.51449636209761 0 -0.8574925617102
		outer loop
			vertex 4.8700790405273 9.4550247192383 0
			vertex 4.8700790405273 11.992525100708 0
			vertex 5.045078754425 9.4550247192383 0.10499999672174
		endloop
	endfacet
	facet normal 0 -1 0
		outer loop
			vertex 4.8700790405273 9.4550247192383 0
			vertex 5.045078754425 9.4550247192383 0.10499999672174
			vertex 4.8700790405273 9.4550247192383 0.52499997615814
		endloop
	endfacet
	facet normal 0 -1 0
		outer loop
			vertex 5.045078754425 9.4550247192383 0.10499999672174
			vertex 5.045078754425 9.4550247192383 0.41999998688698
			vertex 4.8700790405273 9.4550247192383 0.52499997615814
		endloop
	endfacet
	facet normal -1 0 0
		outer loop
			vertex 4.8700790405273 9.4550247192383 0
			vertex 4.8700790405273 9.4550247192383 0.52499997615814
			vertex 4.8700790405273 11.992525100708 0.52499997615814
		endloop
	endfacet
	facet normal 0.51449636209761 0 -0.8574925617102
		outer loop
			vertex 5.045078754425 9.4550247192383 0.10499999672174
			vertex 4.8700790405273 11.992525100708 0
			vertex 5.045078754425 11.992525100708 0.10499999672174
		endloop
	endfacet
	facet normal -1 0 0
		outer loop
			vertex 4.8700790405273 9.4550247192383 0
			vertex 4.8700790405273 11.992525100708 0.52499997615814
			vertex 4.8700790405273 11.992525100708 0
		endloop
	endfacet
	facet normal 0 1 0
		outer loop
			vertex 4.8700790405273 11.992525100708 0
			vertex 4.8700790405273 11.992525100708 0.52499997615814
			vertex 5.045078754425 11.992525100708 0.10499999672174
		endloop
	endfacet
	facet normal 0 1 -0
		outer loop
			vertex 5.045078754425 11.992525100708 0.10499999672174
			vertex 4.8700790405273 11.992525100708 0.52499997615814
			vertex 5.045078754425 11.992525100708 0.34999999403954
		endloop
	endfacet
	facet normal 0.51449633525382 -0 0.8574925778165
		outer loop
			vertex 5.045078754425 9.4550247192383 0.41999998688698
			vertex 5.045078754425 11.992525100708 0.41999998688698
			vertex 4.8700790405273 9.4550247192383 0.52499997615814
		endloop
	endfacet
	facet normal 0.51449633525382 -0 0.8574925778165
		outer loop
			vertex 4.8700790405273 9.4550247192383 0.52499997615814
			vertex 5.045078754425 11.992525100708 0.41999998688698
			vertex 4.8700790405273 11.992525100708 0.52499997615814
		endloop
	endfacet
	facet normal 0 1 -0
		outer loop
			vertex 5.045078754425 11.992525100708 0.34999999403954
			vertex 4.8700790405273 11.992525100708 0.52499997615814
			vertex 5.045078754425 11.992525100708 0.41999998688698
		endloop
	endfacet
endsolid