solid csg_export
	facet normal 0 0 1
		outer loop
			vertex 3.3833000659943 1.6297999620438 0.34999999403954
			vertex 3.3833000659943 0.34999999403954 0.34999999403954
			vertex 4.7249999046326 0.34999999403954 0.34999999403954
		endloop
	endfacet
	facet normal 0 0 -1
		outer loop
			vertex 6.7666001319885 0.54327738285065 0
			vertex 3.3833000659943 1.0865386724472 0
			vertex 3.3833000659943 1.6297999620438 0
		endloop
	endfacet
	facet normal -1 -0 0
		outer loop
			vertex 3.3833000659943 10.703172683716 0.34999999403954
			vertex 3.3833000659943 1.6297999620438 0
			vertex 3.3833000659943 1.6297999620438 0.34999999403954
		endloop
	endfacet
	facet normal -0 0 1
		outer loop
			vertex 3.3833000659943 1.6297999620438 0.34999999403954
			vertex 4.7249999046326 0.34999999403954 0.34999999403954
			vertex 3.3833000659943 10.703172683716 0.34999999403954
		endloop
	endfacet
	facet normal 0 0 -1
		outer loop
			vertex 3.3833000659943 10.501099586487 0
			vertex 6.7666001319885 0.54327738285065 0
			vertex 3.3833000659943 1.6297999620438 0
		endloop
	endfacet
	facet normal -1 0 0
		outer loop
			vertex 3.3833000659943 10.501099586487 0
			vertex 3.3833000659943 1.6297999620438 0
			vertex 3.3833000659943 11.408800125122 0.34999999403954
		endloop
	endfacet
	facet normal -1 0 0
		outer loop
			vertex 3.3833000659943 1.6297999620438 0
			vertex 3.3833000659943 10.703172683716 0.34999999403954
			vertex 3.3833000659943 11.408800125122 0.34999999403954
		endloop
	endfacet
	facet normal -0 0 1
		outer loop
			vertex 3.3833000659943 10.703172683716 0.34999999403954
			vertex 4.7249999046326 0.34999999403954 0.34999999403954
			vertex 3.7332999706268 10.703172683716 0.34999999403954
		endloop
	endfacet
	facet normal 0 0 1
		outer loop
			vertex 4.7249999046326 9.70778465271 0.34999999403954
			vertex 3.7332999706268 10.703172683716 0.34999999403954
			vertex 4.7249999046326 0.34999999403954 0.34999999403954
		endloop
	endfacet
	facet normal 0 0 -1
		outer loop
			vertex 6.7666001319885 0.54327738285065 0
			vertex 3.3833000659943 10.501099586487 0
			vertex 3.3833000659943 11.408800125122 0
		endloop
	endfacet
	facet normal 0 0 -1
		outer loop
			vertex 6.7666001319885 0.54327738285065 0
			vertex 3.3833000659943 11.408800125122 0
			vertex 3.5260355472565 12.488523483276 0
		endloop
	endfacet
	facet normal 0 0 -1
		outer loop
			vertex 3.3833000659943 12.495338439941 0
			vertex 3.5260355472565 12.488523483276 0
			vertex 3.3833000659943 11.408800125122 0
		endloop
	endfacet
	facet normal -0 1 0
		outer loop
			vertex 3.3833000659943 13.038599967957 0.34999999403954
			vertex 3.7332999706268 13.038599967957 0.34999999403954
			vertex 3.3833000659943 13.038599967957 0.17499999701977
		endloop
	endfacet
	facet normal 0 -0 1
		outer loop
			vertex 4.7249999046326 9.70778465271 0.34999999403954
			vertex 5.0749998092651 9.70778465271 0.34999999403954
			vertex 3.7332999706268 10.703172683716 0.34999999403954
		endloop
	endfacet
	facet normal 0 -0 1
		outer loop
			vertex 5.0749998092651 9.70778465271 0.34999999403954
			vertex 6.416600227356 10.703172683716 0.34999999403954
			vertex 3.7332999706268 10.703172683716 0.34999999403954
		endloop
	endfacet
	facet normal 0 0 1
		outer loop
			vertex 6.416600227356 10.703172683716 0.34999999403954
			vertex 3.7332999706268 13.038599967957 0.34999999403954
			vertex 3.7332999706268 10.703172683716 0.34999999403954
		endloop
	endfacet
	facet normal 0 1 0
		outer loop
			vertex 6.416600227356 13.038599967957 0.34999999403954
			vertex 3.3833000659943 13.038599967957 0.17499999701977
			vertex 3.7332999706268 13.038599967957 0.34999999403954
		endloop
	endfacet
	facet normal 0 0 1
		outer loop
			vertex 5.0749998092651 0.34999999403954 0.34999999403954
			vertex 6.6757807731628 0.34999999403954 0.34999999403954
			vertex 6.4590268135071 1.1853296756744 0.34999999403954
		endloop
	endfacet
	facet normal 0 0 1
		outer loop
			vertex 5.0749998092651 9.70778465271 0.34999999403954
			vertex 5.0749998092651 0.34999999403954 0.34999999403954
			vertex 6.4590268135071 1.1853296756744 0.34999999403954
		endloop
	endfacet
	facet normal 0 0 -1
		outer loop
			vertex 3.5260355472565 12.488523483276 0
			vertex 6.7666001319885 1.6297999620438 0
			vertex 6.7666001319885 0.54327738285065 0
		endloop
	endfacet
	facet normal 0 0 1
		outer loop
			vertex 5.0749998092651 9.70778465271 0.34999999403954
			vertex 6.4590268135071 1.1853296756744 0.34999999403954
			vertex 6.7666001319885 1.6297999620438 0.34999999403954
		endloop
	endfacet
	facet normal 1 0 0
		outer loop
			vertex 6.7666001319885 1.6297999620438 0
			vertex 6.7666001319885 10.501099586487 0
			vertex 6.7666001319885 1.6297999620438 0.34999999403954
		endloop
	endfacet
	facet normal 0 0 1
		outer loop
			vertex 6.7666001319885 10.703172683716 0.34999999403954
			vertex 5.0749998092651 9.70778465271 0.34999999403954
			vertex 6.7666001319885 1.6297999620438 0.34999999403954
		endloop
	endfacet
	facet normal 0 0 -1
		outer loop
			vertex 6.7666001319885 1.6297999620438 0
			vertex 3.5260355472565 12.488523483276 0
			vertex 6.7666001319885 10.501099586487 0
		endloop
	endfacet
	facet normal 1 -0 0
		outer loop
			vertex 6.7666001319885 1.6297999620438 0.34999999403954
			vertex 6.7666001319885 10.501099586487 0
			vertex 6.7666001319885 10.703172683716 0.34999999403954
		endloop
	endfacet
	facet normal -0 0 1
		outer loop
			vertex 6.416600227356 10.703172683716 0.34999999403954
			vertex 5.0749998092651 9.70778465271 0.34999999403954
			vertex 6.7666001319885 10.703172683716 0.34999999403954
		endloop
	endfacet
	facet normal 0 0 -1
		outer loop
			vertex 3.5260355472565 12.488523483276 0
			vertex 6.7666001319885 11.408800125122 0
			vertex 6.7666001319885 10.501099586487 0
		endloop
	endfacet
	facet normal 0 0 -1
		outer loop
			vertex 3.5260355472565 12.488523483276 0
			vertex 6.7666001319885 12.045042991638 0
			vertex 6.7666001319885 11.408800125122 0
		endloop
	endfacet
	facet normal 0 -0 1
		outer loop
			vertex 6.416600227356 10.703172683716 0.34999999403954
			vertex 6.416600227356 13.038599967957 0.34999999403954
			vertex 3.7332999706268 13.038599967957 0.34999999403954
		endloop
	endfacet
	facet normal 0 1 0
		outer loop
			vertex 3.3833000659943 13.038599967957 0.17499999701977
			vertex 6.416600227356 13.038599967957 0.34999999403954
			vertex 6.7666001319885 13.038599967957 0.34999999403954
		endloop
	endfacet
	facet normal 1 -0 0
		outer loop
			vertex 6.7666001319885 10.703172683716 0.34999999403954
			vertex 6.7666001319885 10.501099586487 0
			vertex 6.7666001319885 11.408800125122 0.34999999403954
		endloop
	endfacet
	facet normal -1 0 0
		outer loop
			vertex 0 11.408800125122 0
			vertex 0 11.408800125122 0.34999999403954
			vertex 0 13.038599967957 0.34999999403954
		endloop
	endfacet
	facet normal -1 0 0
		outer loop
			vertex 0 11.408800125122 0
			vertex 0 13.038599967957 0.34999999403954
			vertex 0 13.038599967957 0
		endloop
	endfacet
	facet normal 0 -1 0
		outer loop
			vertex 0 11.408800125122 0
			vertex 3.3833000659943 11.408800125122 0.34999999403954
			vertex 0 11.408800125122 0.34999999403954
		endloop
	endfacet
	facet normal 0 0 -1
		outer loop
			vertex 0 11.408800125122 0
			vertex 0 13.038599967957 0
			vertex 3.3833000659943 11.408800125122 0
		endloop
	endfacet
	facet normal 0 0 1
		outer loop
			vertex 0 11.408800125122 0.34999999403954
			vertex 3.3833000659943 13.038599967957 0.34999999403954
			vertex 0 13.038599967957 0.34999999403954
		endloop
	endfacet
	facet normal 0 1 0
		outer loop
			vertex 0 13.038599967957 0
			vertex 0 13.038599967957 0.34999999403954
			vertex 3.3833000659943 13.038599967957 0.34999999403954
		endloop
	endfacet
	facet normal 0 -1 0
		outer loop
			vertex 0 11.408800125122 0
			vertex 3.3833000659943 11.408800125122 0
			vertex 3.3833000659943 11.408800125122 0.34999999403954
		endloop
	endfacet
	facet normal 0 0 1
		outer loop
			vertex 0 11.408800125122 0.34999999403954
			vertex 3.3833000659943 11.408800125122 0.34999999403954
			vertex 3.3833000659943 13.038599967957 0.34999999403954
		endloop
	endfacet
	facet normal 0 0 -1
		outer loop
			vertex 0 13.038599967957 0
			vertex 3.3833000659943 12.495338439941 0
			vertex 3.3833000659943 11.408800125122 0
		endloop
	endfacet
	facet normal 0 1 0
		outer loop
			vertex 0 13.038599967957 0
			vertex 3.3833000659943 13.038599967957 0.34999999403954
			vertex 3.3833000659943 13.038599967957 0.17499999701977
		endloop
	endfacet
	facet normal 0 0 -1
		outer loop
			vertex 0 13.038599967957 0
			vertex 10.14999961853 13.038599967957 0
			vertex 3.3833000659943 12.495338439941 0
		endloop
	endfacet
	facet normal 0 1 0
		outer loop
			vertex 0 13.038599967957 0
			vertex 3.3833000659943 13.038599967957 0.17499999701977
			vertex 10.14999961853 13.038599967957 0.34999999403954
		endloop
	endfacet
	facet normal 0 0 -1
		outer loop
			vertex 10.14999961853 13.038599967957 0
			vertex 3.5260355472565 12.488523483276 0
			vertex 3.3833000659943 12.495338439941 0
		endloop
	endfacet
	facet normal 0 0 -1
		outer loop
			vertex 10.14999961853 13.038599967957 0
			vertex 6.7666001319885 12.045042991638 0
			vertex 3.5260355472565 12.488523483276 0
		endloop
	endfacet
	facet normal 0 1 0
		outer loop
			vertex 0 13.038599967957 0
			vertex 10.14999961853 13.038599967957 0.34999999403954
			vertex 10.14999961853 13.038599967957 0
		endloop
	endfacet
	facet normal 0 1 0
		outer loop
			vertex 10.14999961853 13.038599967957 0.34999999403954
			vertex 3.3833000659943 13.038599967957 0.17499999701977
			vertex 6.7666001319885 13.038599967957 0.34999999403954
		endloop
	endfacet
	facet normal 0 -1 0
		outer loop
			vertex 6.7666001319885 11.408800125122 0.34999999403954
			vertex 6.7666001319885 11.408800125122 0
			vertex 10.14999961853 11.408800125122 0.34999999403954
		endloop
	endfacet
	facet normal 0 0 -1
		outer loop
			vertex 10.14999961853 11.408800125122 0
			vertex 6.7666001319885 11.408800125122 0
			vertex 6.7666001319885 12.045042991638 0
		endloop
	endfacet
	facet normal 0 0 1
		outer loop
			vertex 6.7666001319885 11.408800125122 0.34999999403954
			vertex 10.14999961853 13.038599967957 0.34999999403954
			vertex 6.7666001319885 13.038599967957 0.34999999403954
		endloop
	endfacet
	facet normal 0 -1 0
		outer loop
			vertex 10.14999961853 11.408800125122 0
			vertex 10.14999961853 11.408800125122 0.34999999403954
			vertex 6.7666001319885 11.408800125122 0
		endloop
	endfacet
	facet normal 0 0 -1
		outer loop
			vertex 10.14999961853 11.408800125122 0
			vertex 6.7666001319885 12.045042991638 0
			vertex 10.14999961853 13.038599967957 0
		endloop
	endfacet
	facet normal 0 0 1
		outer loop
			vertex 6.7666001319885 11.408800125122 0.34999999403954
			vertex 10.14999961853 11.408800125122 0.34999999403954
			vertex 10.14999961853 13.038599967957 0.34999999403954
		endloop
	endfacet
	facet normal 1 0 0
		outer loop
			vertex 10.14999961853 11.408800125122 0
			vertex 10.14999961853 13.038599967957 0
			vertex 10.14999961853 11.408800125122 0.34999999403954
		endloop
	endfacet
	facet normal 1 -0 0
		outer loop
			vertex 10.14999961853 11.408800125122 0.34999999403954
			vertex 10.14999961853 13.038599967957 0
			vertex 10.14999961853 13.038599967957 0.34999999403954
		endloop
	endfacet
	facet normal -1 0 -0
		outer loop
			vertex 3.3833000659943 11.408800125122 0.34999999403954
			vertex 3.3833000659943 11.408800125122 0
			vertex 3.3833000659943 10.501099586487 0
		endloop
	endfacet
	facet normal -1 0 0
		outer loop
			vertex 3.3833000659943 13.038599967957 4.3950791358948
			vertex 3.3833000659943 11.408800125122 0.34999999403954
			vertex 3.3833000659943 10.703172683716 0.34999999403954
		endloop
	endfacet
	facet normal 0 -0.86602542670143 0.49999996030661
		outer loop
			vertex 3.3833000659943 13.038599967957 4.3950791358948
			vertex 3.3833000659943 10.703172683716 0.34999999403954
			vertex 3.7332999706268 10.703172683716 0.34999999403954
		endloop
	endfacet
	facet normal -1 0 0
		outer loop
			vertex 3.3833000659943 11.408800125122 0.34999999403954
			vertex 3.3833000659943 13.038599967957 4.3950791358948
			vertex 3.3833000659943 13.038599967957 0.34999999403954
		endloop
	endfacet
	facet normal 1 0 0
		outer loop
			vertex 3.7332999706268 13.038599967957 4.3950791358948
			vertex 3.7332999706268 10.703172683716 0.34999999403954
			vertex 3.7332999706268 13.038599967957 0.34999999403954
		endloop
	endfacet
	facet normal 0 1 0
		outer loop
			vertex 3.3833000659943 13.038599967957 4.3950791358948
			vertex 3.7332999706268 13.038599967957 0.34999999403954
			vertex 3.3833000659943 13.038599967957 0.34999999403954
		endloop
	endfacet
	facet normal 0 -0.86602542670143 0.49999996030661
		outer loop
			vertex 3.3833000659943 13.038599967957 4.3950791358948
			vertex 3.7332999706268 10.703172683716 0.34999999403954
			vertex 3.7332999706268 13.038599967957 4.3950791358948
		endloop
	endfacet
	facet normal -0 1 0
		outer loop
			vertex 3.3833000659943 13.038599967957 4.3950791358948
			vertex 3.7332999706268 13.038599967957 4.3950791358948
			vertex 3.7332999706268 13.038599967957 0.34999999403954
		endloop
	endfacet
	facet normal 1 0 0
		outer loop
			vertex 6.7666001319885 11.408800125122 0.34999999403954
			vertex 6.7666001319885 10.501099586487 0
			vertex 6.7666001319885 11.408800125122 0
		endloop
	endfacet
	facet normal 0 -0.86602542670143 0.49999996030661
		outer loop
			vertex 6.416600227356 13.038599967957 4.3950791358948
			vertex 6.416600227356 10.703172683716 0.34999999403954
			vertex 6.7666001319885 10.703172683716 0.34999999403954
		endloop
	endfacet
	facet normal 1 0 -0
		outer loop
			vertex 6.7666001319885 11.408800125122 0.34999999403954
			vertex 6.7666001319885 13.038599967957 4.3950791358948
			vertex 6.7666001319885 10.703172683716 0.34999999403954
		endloop
	endfacet
	facet normal -1 0 -0
		outer loop
			vertex 6.416600227356 13.038599967957 4.3950791358948
			vertex 6.416600227356 13.038599967957 0.34999999403954
			vertex 6.416600227356 10.703172683716 0.34999999403954
		endloop
	endfacet
	facet normal 0 1 0
		outer loop
			vertex 6.416600227356 13.038599967957 4.3950791358948
			vertex 6.7666001319885 13.038599967957 0.34999999403954
			vertex 6.416600227356 13.038599967957 0.34999999403954
		endloop
	endfacet
	facet normal 1 0 0
		outer loop
			vertex 6.7666001319885 13.038599967957 4.3950791358948
			vertex 6.7666001319885 11.408800125122 0.34999999403954
			vertex 6.7666001319885 13.038599967957 0.34999999403954
		endloop
	endfacet
	facet normal 0 -0.86602542670143 0.49999996030661
		outer loop
			vertex 6.416600227356 13.038599967957 4.3950791358948
			vertex 6.7666001319885 10.703172683716 0.34999999403954
			vertex 6.7666001319885 13.038599967957 4.3950791358948
		endloop
	endfacet
	facet normal -0 1 0
		outer loop
			vertex 6.416600227356 13.038599967957 4.3950791358948
			vertex 6.7666001319885 13.038599967957 4.3950791358948
			vertex 6.7666001319885 13.038599967957 0.34999999403954
		endloop
	endfacet
	facet normal -1 0 0
		outer loop
			vertex 0 0 0
			vertex 0 0 0.34999999403954
			vertex 0 1.6297999620438 0.34999999403954
		endloop
	endfacet
	facet normal -1 0 0
		outer loop
			vertex 0 0 0
			vertex 0 1.6297999620438 0.34999999403954
			vertex 0 1.6297999620438 0
		endloop
	endfacet
	facet normal 0 0 1
		outer loop
			vertex 0 0 0.34999999403954
			vertex 2.5374999046326 0.34999999403954 0.34999999403954
			vertex 0 1.6297999620438 0.34999999403954
		endloop
	endfacet
	facet normal 0 0 -1
		outer loop
			vertex 0 0 0
			vertex 0 1.6297999620438 0
			vertex 3.3833000659943 1.0865386724472 0
		endloop
	endfacet
	facet normal 0 1 0
		outer loop
			vertex 0 1.6297999620438 0
			vertex 0 1.6297999620438 0.34999999403954
			vertex 3.3833000659943 1.6297999620438 0
		endloop
	endfacet
	facet normal 0 0 1
		outer loop
			vertex 0 0 0.34999999403954
			vertex 2.5374999046326 0 0.34999999403954
			vertex 2.5374999046326 0.34999999403954 0.34999999403954
		endloop
	endfacet
	facet normal -0 0 1
		outer loop
			vertex 0 1.6297999620438 0.34999999403954
			vertex 2.5374999046326 0.34999999403954 0.34999999403954
			vertex 3.3833000659943 1.6297999620438 0.34999999403954
		endloop
	endfacet
	facet normal 0 0 -1
		outer loop
			vertex 0 1.6297999620438 0
			vertex 3.3833000659943 1.6297999620438 0
			vertex 3.3833000659943 1.0865386724472 0
		endloop
	endfacet
	facet normal -0 1 0
		outer loop
			vertex 0 1.6297999620438 0.34999999403954
			vertex 3.3833000659943 1.6297999620438 0.34999999403954
			vertex 3.3833000659943 1.6297999620438 0
		endloop
	endfacet
	facet normal 0 0 1
		outer loop
			vertex 2.5374999046326 0.34999999403954 0.34999999403954
			vertex 3.3833000659943 0.34999999403954 0.34999999403954
			vertex 3.3833000659943 1.6297999620438 0.34999999403954
		endloop
	endfacet
	facet normal 0 -1 0
		outer loop
			vertex 0 0 0
			vertex 10.14999961853 0 0
			vertex 0 0 0.34999999403954
		endloop
	endfacet
	facet normal 0 0 -1
		outer loop
			vertex 0 0 0
			vertex 3.3833000659943 1.0865386724472 0
			vertex 6.7666001319885 0.54327738285065 0
		endloop
	endfacet
	facet normal 0 -1 0
		outer loop
			vertex 0 0 0.34999999403954
			vertex 10.14999961853 0 0
			vertex 2.5374999046326 0 0.34999999403954
		endloop
	endfacet
	facet normal 0 0 -1
		outer loop
			vertex 0 0 0
			vertex 6.7666001319885 0.54327738285065 0
			vertex 10.14999961853 0 0
		endloop
	endfacet
	facet normal 0 -1 0
		outer loop
			vertex 2.5374999046326 0 0.34999999403954
			vertex 10.14999961853 0 0
			vertex 7.6125001907349 0 0.34999999403954
		endloop
	endfacet
	facet normal 0 0 1
		outer loop
			vertex 7.6125001907349 0.34999999403954 0.34999999403954
			vertex 6.4590268135071 1.1853296756744 0.34999999403954
			vertex 6.6757807731628 0.34999999403954 0.34999999403954
		endloop
	endfacet
	facet normal -0 -0 1
		outer loop
			vertex 7.6125001907349 0.34999999403954 0.34999999403954
			vertex 10.14999961853 0 0.34999999403954
			vertex 6.4590268135071 1.1853296756744 0.34999999403954
		endloop
	endfacet
	facet normal 0 0 1
		outer loop
			vertex 10.14999961853 0 0.34999999403954
			vertex 6.7666001319885 1.6297999620438 0.34999999403954
			vertex 6.4590268135071 1.1853296756744 0.34999999403954
		endloop
	endfacet
	facet normal -0 0 -1
		outer loop
			vertex 10.14999961853 1.6297999620438 0
			vertex 6.7666001319885 0.54327738285065 0
			vertex 6.7666001319885 1.6297999620438 0
		endloop
	endfacet
	facet normal 0 1 0
		outer loop
			vertex 10.14999961853 1.6297999620438 0
			vertex 6.7666001319885 1.6297999620438 0
			vertex 6.7666001319885 1.6297999620438 0.34999999403954
		endloop
	endfacet
	facet normal 0 0 1
		outer loop
			vertex 7.6125001907349 0 0.34999999403954
			vertex 10.14999961853 0 0.34999999403954
			vertex 7.6125001907349 0.34999999403954 0.34999999403954
		endloop
	endfacet
	facet normal 0 0 -1
		outer loop
			vertex 10.14999961853 0 0
			vertex 6.7666001319885 0.54327738285065 0
			vertex 10.14999961853 1.6297999620438 0
		endloop
	endfacet
	facet normal 0 -1 0
		outer loop
			vertex 7.6125001907349 0 0.34999999403954
			vertex 10.14999961853 0 0
			vertex 10.14999961853 0 0.34999999403954
		endloop
	endfacet
	facet normal 0 -0 1
		outer loop
			vertex 10.14999961853 0 0.34999999403954
			vertex 10.14999961853 1.6297999620438 0.34999999403954
			vertex 6.7666001319885 1.6297999620438 0.34999999403954
		endloop
	endfacet
	facet normal 0 1 -0
		outer loop
			vertex 10.14999961853 1.6297999620438 0
			vertex 6.7666001319885 1.6297999620438 0.34999999403954
			vertex 10.14999961853 1.6297999620438 0.34999999403954
		endloop
	endfacet
	facet normal 1 0 0
		outer loop
			vertex 10.14999961853 0 0
			vertex 10.14999961853 1.6297999620438 0
			vertex 10.14999961853 0 0.34999999403954
		endloop
	endfacet
	facet normal 1 -0 0
		outer loop
			vertex 10.14999961853 0 0.34999999403954
			vertex 10.14999961853 1.6297999620438 0
			vertex 10.14999961853 1.6297999620438 0.34999999403954
		endloop
	endfacet
	facet normal -1 0 0
		outer loop
			vertex 2.5374999046326 0 0.34999999403954
			vertex 2.5374999046326 0 9.1464996337891
			vertex 2.5374999046326 0.34999999403954 0.34999999403954
		endloop
	endfacet
	facet normal 0 1 0
		outer loop
			vertex 2.5374999046326 0.34999999403954 0.34999999403954
			vertex 2.5374999046326 0.34999999403954 9.0527181625366
			vertex 3.3833000659943 0.34999999403954 0.34999999403954
		endloop
	endfacet
	facet normal 0 1 0
		outer loop
			vertex 2.5374999046326 0.34999999403954 9.0527181625366
			vertex 4.7249999046326 0.34999999403954 0.34999999403954
			vertex 3.3833000659943 0.34999999403954 0.34999999403954
		endloop
	endfacet
	facet normal -1 0 0
		outer loop
			vertex 2.5374999046326 0.34999999403954 0.34999999403954
			vertex 2.5374999046326 0 9.1464996337891
			vertex 2.5374999046326 0.34999999403954 9.0527181625366
		endloop
	endfacet
	facet normal -0 1 0
		outer loop
			vertex 2.5374999046326 0.34999999403954 9.0527181625366
			vertex 4.7249999046326 0.34999999403954 9.0527181625366
			vertex 4.7249999046326 0.34999999403954 0.34999999403954
		endloop
	endfacet
	facet normal 0 -1 0
		outer loop
			vertex 2.5374999046326 0 0.34999999403954
			vertex 7.6125001907349 0 9.1464996337891
			vertex 2.5374999046326 0 9.1464996337891
		endloop
	endfacet
	facet normal -1 0 0
		outer loop
			vertex 2.5374999046326 0.34999999403954 9.0527181625366
			vertex 2.5374999046326 0 9.1464996337891
			vertex 2.5374999046326 0.34999999403954 9.1464996337891
		endloop
	endfacet
	facet normal 0 1 0
		outer loop
			vertex 5.0749998092651 0.34999999403954 9.0527181625366
			vertex 6.6757807731628 0.34999999403954 0.34999999403954
			vertex 5.0749998092651 0.34999999403954 0.34999999403954
		endloop
	endfacet
	facet normal 0 -1 0
		outer loop
			vertex 2.5374999046326 0 0.34999999403954
			vertex 7.6125001907349 0 0.34999999403954
			vertex 7.6125001907349 0 9.1464996337891
		endloop
	endfacet
	facet normal 0 1 0
		outer loop
			vertex 5.0749998092651 0.34999999403954 9.0527181625366
			vertex 7.6125001907349 0.34999999403954 0.34999999403954
			vertex 6.6757807731628 0.34999999403954 0.34999999403954
		endloop
	endfacet
	facet normal 1 0 0
		outer loop
			vertex 7.6125001907349 0 0.34999999403954
			vertex 7.6125001907349 0.34999999403954 0.34999999403954
			vertex 7.6125001907349 0.30310890078545 8.9715003967285
		endloop
	endfacet
	facet normal 0 1 -0
		outer loop
			vertex 7.6125001907349 0.34999999403954 0.34999999403954
			vertex 5.0749998092651 0.34999999403954 9.0527181625366
			vertex 7.6125001907349 0.34999999403954 9.0527181625366
		endloop
	endfacet
	facet normal 1 0 0
		outer loop
			vertex 7.6125001907349 0 0.34999999403954
			vertex 7.6125001907349 0.30310890078545 8.9715003967285
			vertex 7.6125001907349 0 9.1464996337891
		endloop
	endfacet
	facet normal 1 0 -0
		outer loop
			vertex 7.6125001907349 0.34999999403954 0.34999999403954
			vertex 7.6125001907349 0.34999999403954 9.0527181625366
			vertex 7.6125001907349 0.30310890078545 8.9715003967285
		endloop
	endfacet
	facet normal 1 0 0
		outer loop
			vertex 7.6125001907349 0.30310890078545 8.9715003967285
			vertex 7.6125001907349 0.34999999403954 9.0527181625366
			vertex 7.6125001907349 0.34999999403954 9.1016216278076
		endloop
	endfacet
	facet normal -1.9476102527162e-07 0.8660252173202 -0.50000032296535
		outer loop
			vertex 2.5374999046326 0.34999999403954 9.0527181625366
			vertex 3.4804742336273 0.70879453420639 9.6741676330566
			vertex 3.8221890926361 0.56857544183731 9.4313011169434
		endloop
	endfacet
	facet normal -2.816937429541e-07 -0.86602515183126 0.50000043639538
		outer loop
			vertex 2.5374999046326 0 9.1464996337891
			vertex 4.2120490074158 0.16127434372902 9.425835609436
			vertex 3.8221890926361 0.26546651124954 9.6063013076782
		endloop
	endfacet
	facet normal -2.2064321030905e-08 -0.86602582577818 0.49999926908469
		outer loop
			vertex 2.5374999046326 0 9.1464996337891
			vertex 4.6350712776184 0.097113110125065 9.3147048950195
			vertex 4.2120490074158 0.16127434372902 9.425835609436
		endloop
	endfacet
	facet normal -1.3897616894613e-07 0.86602553519797 -0.499999772385
		outer loop
			vertex 2.5374999046326 0.34999999403954 9.0527181625366
			vertex 4.2120490074158 0.46438324451447 9.2508354187012
			vertex 4.6350712776184 0.40022200345993 9.1397047042847
		endloop
	endfacet
	facet normal 4.3555401621097e-08 0.86602486713974 -0.50000092949473
		outer loop
			vertex 2.5374999046326 0.34999999403954 9.0527181625366
			vertex 3.8221890926361 0.56857544183731 9.4313011169434
			vertex 4.2120490074158 0.46438324451447 9.2508354187012
		endloop
	endfacet
	facet normal -1 0 0
		outer loop
			vertex 2.5374999046326 0 9.1464996337891
			vertex 2.5374999046326 1.2774088382721 10.659036636353
			vertex 2.5374999046326 0.34999999403954 9.1464996337891
		endloop
	endfacet
	facet normal -1 0 0
		outer loop
			vertex 2.5374999046326 0.34999999403954 9.0527181625366
			vertex 2.5374999046326 0.34999999403954 9.1464996337891
			vertex 2.5374999046326 1.2774088382721 10.659036636353
		endloop
	endfacet
	facet normal 1.3487639580223e-07 -0.86602541796619 0.49999997543647
		outer loop
			vertex 2.5374999046326 0 9.1464996337891
			vertex 2.9916515350342 0.7714729309082 10.482729911804
			vertex 2.7808167934418 0.97430002689362 10.834036827087
		endloop
	endfacet
	facet normal -1.298581040751e-07 -0.86602536302936 0.50000007058985
		outer loop
			vertex 2.5374999046326 0 9.1464996337891
			vertex 3.4804742336273 0.40568560361862 9.8491678237915
			vertex 3.2000360488892 0.57654309272766 10.145101547241
		endloop
	endfacet
	facet normal 1.4575510910057e-07 0.86602536430295 -0.50000006838392
		outer loop
			vertex 2.5374999046326 0.34999999403954 9.0527181625366
			vertex 2.9916515350342 1.074581861496 10.307730674744
			vertex 3.2000360488892 0.87965196371078 9.9701023101807
		endloop
	endfacet
	facet normal -9.3090309821646e-07 0.86602570099757 -0.49999948521054
		outer loop
			vertex 2.5374999046326 0.34999999403954 9.0527181625366
			vertex 3.2000360488892 0.87965196371078 9.9701023101807
			vertex 3.4804742336273 0.70879453420639 9.6741676330566
		endloop
	endfacet
	facet normal -1.5841503698665e-08 -0.86602539578499 0.50000001385544
		outer loop
			vertex 2.5374999046326 0 9.1464996337891
			vertex 3.2000360488892 0.57654309272766 10.145101547241
			vertex 2.9916515350342 0.7714729309082 10.482729911804
		endloop
	endfacet
	facet normal -1 0 0
		outer loop
			vertex 2.5374999046326 0 9.1464996337891
			vertex 2.5374999046326 0.97430002689362 10.834036827087
			vertex 2.5374999046326 1.2774088382721 10.659036636353
		endloop
	endfacet
	facet normal 0 -0.86602540954535 0.4999999900218
		outer loop
			vertex 2.5374999046326 0 9.1464996337891
			vertex 2.7808167934418 0.97430002689362 10.834036827087
			vertex 2.5374999046326 0.97430002689362 10.834036827087
		endloop
	endfacet
	facet normal 5.5077580787046e-07 0.86602530083834 -0.50000017830753
		outer loop
			vertex 2.5374999046326 0.34999999403954 9.0527181625366
			vertex 2.5374999046326 1.2774088382721 10.659036636353
			vertex 2.9916515350342 1.074581861496 10.307730674744
		endloop
	endfacet
	facet normal 0 0.50000050762506 0.86602511070678
		outer loop
			vertex 2.5374999046326 0.97430002689362 10.834036827087
			vertex 2.7808167934418 1.2774088382721 10.659036636353
			vertex 2.5374999046326 1.2774088382721 10.659036636353
		endloop
	endfacet
	facet normal 0 0.86602499252604 -0.50000071231976
		outer loop
			vertex 2.5374999046326 1.2774088382721 10.659036636353
			vertex 2.7808167934418 1.2774088382721 10.659036636353
			vertex 2.9916515350342 1.074581861496 10.307730674744
		endloop
	endfacet
	facet normal -0 0.50000050762506 0.86602511070678
		outer loop
			vertex 2.5374999046326 0.97430002689362 10.834036827087
			vertex 2.7808167934418 0.97430002689362 10.834036827087
			vertex 2.7808167934418 1.2774088382721 10.659036636353
		endloop
	endfacet
	facet normal -8.6118312574332e-08 -0.86602538844652 0.50000002656605
		outer loop
			vertex 2.5374999046326 0 9.1464996337891
			vertex 3.8221890926361 0.26546651124954 9.6063013076782
			vertex 3.4804742336273 0.40568560361862 9.8491678237915
		endloop
	endfacet
	facet normal 0 0.86602507703647 -0.50000056594366
		outer loop
			vertex 2.5374999046326 0.34999999403954 9.0527181625366
			vertex 4.7249999046326 0.38509720563889 9.1135082244873
			vertex 4.7249999046326 0.34999999403954 9.0527181625366
		endloop
	endfacet
	facet normal 1.9317627757743e-07 0.86602206699486 -0.50000577944452
		outer loop
			vertex 2.5374999046326 0.34999999403954 9.0527181625366
			vertex 4.6350712776184 0.40022200345993 9.1397047042847
			vertex 4.7249999046326 0.38509720563889 9.1135082244873
		endloop
	endfacet
	facet normal -2.9383695010735e-08 -0.86602578625504 0.4999993375409
		outer loop
			vertex 2.5374999046326 0 9.1464996337891
			vertex 5.0749998092651 0.075448513031006 9.2771806716919
			vertex 4.6350712776184 0.097113110125065 9.3147048950195
		endloop
	endfacet
	facet normal 0 0.86602177984219 -0.50000627679956
		outer loop
			vertex 4.6350712776184 0.40022200345993 9.1397047042847
			vertex 4.9422006607056 0.38509720563889 9.1135082244873
			vertex 4.7249999046326 0.38509720563889 9.1135082244873
		endloop
	endfacet
	facet normal 0 -0.86602603331369 0.49999890962178
		outer loop
			vertex 2.5374999046326 0 9.1464996337891
			vertex 7.6125001907349 0 9.1464996337891
			vertex 5.0749998092651 0.075448513031006 9.2771806716919
		endloop
	endfacet
	facet normal 0 0.86602284939563 -0.50000442430509
		outer loop
			vertex 5.0749998092651 0.34999999403954 9.0527181625366
			vertex 5.0749998092651 0.37855741381645 9.102180480957
			vertex 7.6125001907349 0.34999999403954 9.0527181625366
		endloop
	endfacet
	facet normal 1.0487553568035e-07 0.86602517913471 -0.50000038910453
		outer loop
			vertex 5.0749998092651 0.37855741381645 9.102180480957
			vertex 5.514928817749 0.40022200345993 9.1397047042847
			vertex 7.6125001907349 0.34999999403954 9.0527181625366
		endloop
	endfacet
	facet normal 2.9383679577609e-08 -0.86602578625512 0.49999933754076
		outer loop
			vertex 5.0749998092651 0.075448513031006 9.2771806716919
			vertex 7.6125001907349 0 9.1464996337891
			vertex 5.514928817749 0.097113110125065 9.3147048950195
		endloop
	endfacet
	facet normal 2.2064321030905e-08 -0.86602582577818 0.49999926908469
		outer loop
			vertex 5.514928817749 0.097113110125065 9.3147048950195
			vertex 7.6125001907349 0 9.1464996337891
			vertex 5.9379510879517 0.16127434372902 9.425835609436
		endloop
	endfacet
	facet normal 1.3897616894613e-07 0.86602553519797 -0.499999772385
		outer loop
			vertex 5.514928817749 0.40022200345993 9.1397047042847
			vertex 5.9379510879517 0.46438324451447 9.2508354187012
			vertex 7.6125001907349 0.34999999403954 9.0527181625366
		endloop
	endfacet
	facet normal 2.8169378858886e-07 -0.86602515183114 0.50000043639558
		outer loop
			vertex 5.9379510879517 0.16127434372902 9.425835609436
			vertex 7.6125001907349 0 9.1464996337891
			vertex 6.3278107643127 0.26546651124954 9.6063013076782
		endloop
	endfacet
	facet normal -4.3555407043167e-08 0.86602486713972 -0.50000092949477
		outer loop
			vertex 5.9379510879517 0.46438324451447 9.2508354187012
			vertex 6.3278107643127 0.56857544183731 9.4313011169434
			vertex 7.6125001907349 0.34999999403954 9.0527181625366
		endloop
	endfacet
	facet normal 1.9476099972099e-07 0.86602521732022 -0.50000032296532
		outer loop
			vertex 6.3278107643127 0.56857544183731 9.4313011169434
			vertex 6.6695256233215 0.70879453420639 9.6741676330566
			vertex 7.6125001907349 0.34999999403954 9.0527181625366
		endloop
	endfacet
	facet normal 8.6118301944879e-08 -0.86602538844651 0.50000002656606
		outer loop
			vertex 6.3278107643127 0.26546651124954 9.6063013076782
			vertex 7.6125001907349 0 9.1464996337891
			vertex 6.6695256233215 0.40568560361862 9.8491678237915
		endloop
	endfacet
	facet normal 1.2985803913823e-07 -0.86602536302938 0.50000007058981
		outer loop
			vertex 6.6695256233215 0.40568560361862 9.8491678237915
			vertex 7.6125001907349 0 9.1464996337891
			vertex 6.9499640464783 0.57654309272766 10.145101547241
		endloop
	endfacet
	facet normal 9.3090264908383e-07 0.86602570099742 -0.49999948521079
		outer loop
			vertex 6.6695256233215 0.70879453420639 9.6741676330566
			vertex 6.9499640464783 0.87965196371078 9.9701023101807
			vertex 7.6125001907349 0.34999999403954 9.0527181625366
		endloop
	endfacet
	facet normal -1.4575510910057e-07 0.86602536430295 -0.50000006838392
		outer loop
			vertex 6.9499640464783 0.87965196371078 9.9701023101807
			vertex 7.1583485603333 1.074581861496 10.307730674744
			vertex 7.6125001907349 0.34999999403954 9.0527181625366
		endloop
	endfacet
	facet normal 1.5841503698665e-08 -0.86602539578499 0.50000001385544
		outer loop
			vertex 6.9499640464783 0.57654309272766 10.145101547241
			vertex 7.6125001907349 0 9.1464996337891
			vertex 7.1583485603333 0.7714729309082 10.482729911804
		endloop
	endfacet
	facet normal -7.7658051094847e-08 -0.86602540954535 0.4999999900218
		outer loop
			vertex 7.1583485603333 0.7714729309082 10.482729911804
			vertex 7.6125001907349 0 9.1464996337891
			vertex 7.6125001907349 0.97430002689362 10.834036827087
		endloop
	endfacet
	facet normal -9.4730943677446e-07 0.86602523870346 -0.50000028592764
		outer loop
			vertex 7.1583485603333 1.074581861496 10.307730674744
			vertex 7.3691830635071 1.2774088382721 10.659036636353
			vertex 7.6125001907349 0.34999999403954 9.0527181625366
		endloop
	endfacet
	facet normal 0 0.86602530083847 -0.50000017830761
		outer loop
			vertex 7.3691830635071 1.2774088382721 10.659036636353
			vertex 7.6125001907349 1.2774088382721 10.659036636353
			vertex 7.6125001907349 0.34999999403954 9.0527181625366
		endloop
	endfacet
	facet normal 0 -0.86602545301652 0.49999991472753
		outer loop
			vertex 7.1583485603333 0.7714729309082 10.482729911804
			vertex 7.6125001907349 0.97430002689362 10.834036827087
			vertex 7.3691830635071 0.97430002689362 10.834036827087
		endloop
	endfacet
	facet normal 0 0.50000050762506 0.86602511070678
		outer loop
			vertex 7.3691830635071 0.97430002689362 10.834036827087
			vertex 7.6125001907349 1.2774088382721 10.659036636353
			vertex 7.3691830635071 1.2774088382721 10.659036636353
		endloop
	endfacet
	facet normal -0 0.50000050762506 0.86602511070678
		outer loop
			vertex 7.3691830635071 0.97430002689362 10.834036827087
			vertex 7.6125001907349 0.97430002689362 10.834036827087
			vertex 7.6125001907349 1.2774088382721 10.659036636353
		endloop
	endfacet
	facet normal 1 0 -0
		outer loop
			vertex 7.6125001907349 0.30310890078545 8.9715003967285
			vertex 7.6125001907349 0.34999999403954 9.1016216278076
			vertex 7.6125001907349 0 9.1464996337891
		endloop
	endfacet
	facet normal 1 0 -0
		outer loop
			vertex 7.6125001907349 0.34999999403954 9.1016216278076
			vertex 7.6125001907349 0.97430002689362 10.834036827087
			vertex 7.6125001907349 0 9.1464996337891
		endloop
	endfacet
	facet normal 1 0 0
		outer loop
			vertex 7.6125001907349 0.34999999403954 9.0527181625366
			vertex 7.6125001907349 1.2774088382721 10.659036636353
			vertex 7.6125001907349 0.34999999403954 9.1016216278076
		endloop
	endfacet
	facet normal 1 0 0
		outer loop
			vertex 7.6125001907349 0.34999999403954 9.1016216278076
			vertex 7.6125001907349 1.2774088382721 10.659036636353
			vertex 7.6125001907349 0.97430002689362 10.834036827087
		endloop
	endfacet
	facet normal 0.88192109110446 0.23569777166006 0.4082422681443
		outer loop
			vertex 2.9916515350342 0.7714729309082 10.482729911804
			vertex 3.2000360488892 0.57654309272766 10.145101547241
			vertex 3.2000360488892 0.87965196371078 9.9701023101807
		endloop
	endfacet
	facet normal 0.88731080484958 0.230586191826 0.39938645912998
		outer loop
			vertex 2.7808167934418 0.97430002689362 10.834036827087
			vertex 2.9916515350342 1.074581861496 10.307730674744
			vertex 2.7808167934418 1.2774088382721 10.659036636353
		endloop
	endfacet
	facet normal 0.88192110608553 0.23569772288477 0.40824226394117
		outer loop
			vertex 2.9916515350342 0.7714729309082 10.482729911804
			vertex 3.2000360488892 0.87965196371078 9.9701023101807
			vertex 2.9916515350342 1.074581861496 10.307730674744
		endloop
	endfacet
	facet normal 0.8873112167941 0.23058478506751 0.39938635610989
		outer loop
			vertex 2.9916515350342 0.7714729309082 10.482729911804
			vertex 2.9916515350342 1.074581861496 10.307730674744
			vertex 2.7808167934418 0.97430002689362 10.834036827087
		endloop
	endfacet
	facet normal 0.7730111327024 0.31719520700653 0.54940057277931
		outer loop
			vertex 3.4804742336273 0.70879453420639 9.6741676330566
			vertex 3.2000360488892 0.87965196371078 9.9701023101807
			vertex 3.2000360488892 0.57654309272766 10.145101547241
		endloop
	endfacet
	facet normal 0.77301040791995 0.31719689823945 0.54940061612152
		outer loop
			vertex 3.4804742336273 0.40568560361862 9.8491678237915
			vertex 3.4804742336273 0.70879453420639 9.6741676330566
			vertex 3.2000360488892 0.57654309272766 10.145101547241
		endloop
	endfacet
	facet normal 0.63439325924807 0.38650551529856 0.66944654698072
		outer loop
			vertex 3.4804742336273 0.40568560361862 9.8491678237915
			vertex 3.8221890926361 0.56857544183731 9.4313011169434
			vertex 3.4804742336273 0.70879453420639 9.6741676330566
		endloop
	endfacet
	facet normal 0.63439325924807 0.38650551529856 0.66944654698072
		outer loop
			vertex 3.4804742336273 0.40568560361862 9.8491678237915
			vertex 3.8221890926361 0.26546651124954 9.6063013076782
			vertex 3.8221890926361 0.56857544183731 9.4313011169434
		endloop
	endfacet
	facet normal 0.47139585188292 0.44096121881388 0.76376642655314
		outer loop
			vertex 4.2120490074158 0.16127434372902 9.425835609436
			vertex 4.2120490074158 0.46438324451447 9.2508354187012
			vertex 3.8221890926361 0.26546651124954 9.6063013076782
		endloop
	endfacet
	facet normal 0.47139587810106 0.44096117928977 0.76376643319061
		outer loop
			vertex 3.8221890926361 0.56857544183731 9.4313011169434
			vertex 3.8221890926361 0.26546651124954 9.6063013076782
			vertex 4.2120490074158 0.46438324451447 9.2508354187012
		endloop
	endfacet
	facet normal 0.29028517358189 0.47847047250368 0.82873429091636
		outer loop
			vertex 4.2120490074158 0.16127434372902 9.425835609436
			vertex 4.6350712776184 0.40022200345993 9.1397047042847
			vertex 4.2120490074158 0.46438324451447 9.2508354187012
		endloop
	endfacet
	facet normal 0.29028516586483 0.47847048249495 0.82873428785099
		outer loop
			vertex 4.2120490074158 0.16127434372902 9.425835609436
			vertex 4.6350712776184 0.097113110125065 9.3147048950195
			vertex 4.6350712776184 0.40022200345993 9.1397047042847
		endloop
	endfacet
	facet normal 0.098018261452491 0.49759271239942 0.86185492572058
		outer loop
			vertex 4.6350712776184 0.40022200345993 9.1397047042847
			vertex 4.6350712776184 0.097113110125065 9.3147048950195
			vertex 4.8302783966064 0.34999999403954 9.1464996337891
		endloop
	endfacet
	facet normal 0.098015895015714 0.49758421454372 0.86186010103797
		outer loop
			vertex 4.6350712776184 0.40022200345993 9.1397047042847
			vertex 4.8302783966064 0.34999999403954 9.1464996337891
			vertex 4.9422006607056 0.38509720563889 9.1135082244873
		endloop
	endfacet
	facet normal 0.098017254024592 0.49759332933864 0.86185468410351
		outer loop
			vertex 4.6350712776184 0.097113110125065 9.3147048950195
			vertex 5.0749998092651 0.075448513031006 9.2771806716919
			vertex 4.8302783966064 0.34999999403954 9.1464996337891
		endloop
	endfacet
	facet normal 0.098015024109599 0.49759186486238 0.86185578322105
		outer loop
			vertex 4.8302783966064 0.34999999403954 9.1464996337891
			vertex 5.0749998092651 0.075448513031006 9.2771806716919
			vertex 5.0749998092651 0.34999999403954 9.1186685562134
		endloop
	endfacet
	facet normal -0.098017140451508 0.49760235107876 0.86184948823945
		outer loop
			vertex 5.0749998092651 0.34999999403954 9.1186685562134
			vertex 5.514928817749 0.40022200345993 9.1397047042847
			vertex 5.0749998092651 0.37855741381645 9.102180480957
		endloop
	endfacet
	facet normal -0.098016232636806 0.49759180534861 0.86185568014001
		outer loop
			vertex 5.0749998092651 0.34999999403954 9.1186685562134
			vertex 5.0749998092651 0.075448513031006 9.2771806716919
			vertex 5.514928817749 0.40022200345993 9.1397047042847
		endloop
	endfacet
	facet normal -0.098017148804884 0.4975927671929 0.86185502062556
		outer loop
			vertex 5.0749998092651 0.075448513031006 9.2771806716919
			vertex 5.514928817749 0.097113110125065 9.3147048950195
			vertex 5.514928817749 0.40022200345993 9.1397047042847
		endloop
	endfacet
	facet normal -0.29028517358188 0.47847048132448 0.82873428582367
		outer loop
			vertex 5.514928817749 0.40022200345993 9.1397047042847
			vertex 5.514928817749 0.097113110125065 9.3147048950195
			vertex 5.9379510879517 0.46438324451447 9.2508354187012
		endloop
	endfacet
	facet normal -0.29028516586483 0.47847047367416 0.82873429294368
		outer loop
			vertex 5.514928817749 0.097113110125065 9.3147048950195
			vertex 5.9379510879517 0.16127434372902 9.425835609436
			vertex 5.9379510879517 0.46438324451447 9.2508354187012
		endloop
	endfacet
	facet normal -0.47139610232272 0.44096115188253 0.76376631062477
		outer loop
			vertex 5.9379510879517 0.16127434372902 9.425835609436
			vertex 6.3278107643127 0.56857544183731 9.4313011169434
			vertex 5.9379510879517 0.46438324451447 9.2508354187012
		endloop
	endfacet
	facet normal -0.47139607610456 0.4409611263723 0.76376634153496
		outer loop
			vertex 5.9379510879517 0.16127434372902 9.425835609436
			vertex 6.3278107643127 0.26546651124954 9.6063013076782
			vertex 6.3278107643127 0.56857544183731 9.4313011169434
		endloop
	endfacet
	facet normal -0.63439325924807 0.38650551529856 0.66944654698072
		outer loop
			vertex 6.3278107643127 0.56857544183731 9.4313011169434
			vertex 6.3278107643127 0.26546651124954 9.6063013076782
			vertex 6.6695256233215 0.70879453420639 9.6741676330566
		endloop
	endfacet
	facet normal -0.63439325924807 0.38650551529856 0.66944654698072
		outer loop
			vertex 6.3278107643127 0.26546651124954 9.6063013076782
			vertex 6.6695256233215 0.40568560361862 9.8491678237915
			vertex 6.6695256233215 0.70879453420639 9.6741676330566
		endloop
	endfacet
	facet normal -0.77301086821474 0.31719661780367 0.54940013039297
		outer loop
			vertex 6.6695256233215 0.40568560361862 9.8491678237915
			vertex 6.9499640464783 0.87965196371078 9.9701023101807
			vertex 6.6695256233215 0.70879453420639 9.6741676330566
		endloop
	endfacet
	facet normal -0.7730101434316 0.31719580971992 0.54940161671402
		outer loop
			vertex 6.6695256233215 0.40568560361862 9.8491678237915
			vertex 6.9499640464783 0.57654309272766 10.145101547241
			vertex 6.9499640464783 0.87965196371078 9.9701023101807
		endloop
	endfacet
	facet normal -0.88192109110442 0.23569773689855 0.40824228821385
		outer loop
			vertex 6.9499640464783 0.57654309272766 10.145101547241
			vertex 7.1583485603333 0.7714729309082 10.482729911804
			vertex 7.1583485603333 1.074581861496 10.307730674744
		endloop
	endfacet
	facet normal -0.88192110608556 0.23569775764628 0.40824224387162
		outer loop
			vertex 6.9499640464783 0.57654309272766 10.145101547241
			vertex 7.1583485603333 1.074581861496 10.307730674744
			vertex 6.9499640464783 0.87965196371078 9.9701023101807
		endloop
	endfacet
	facet normal -0.88731101825126 0.23058497606885 0.3993866869354
		outer loop
			vertex 7.1583485603333 0.7714729309082 10.482729911804
			vertex 7.3691830635071 1.2774088382721 10.659036636353
			vertex 7.1583485603333 1.074581861496 10.307730674744
		endloop
	endfacet
	facet normal -0.88731143019615 0.23058559023011 0.39938541713675
		outer loop
			vertex 7.1583485603333 0.7714729309082 10.482729911804
			vertex 7.3691830635071 0.97430002689362 10.834036827087
			vertex 7.3691830635071 1.2774088382721 10.659036636353
		endloop
	endfacet
	facet normal -1 0 -0
		outer loop
			vertex 4.7249999046326 0.38509720563889 9.1135082244873
			vertex 4.7249999046326 9.70778465271 0.34999999403954
			vertex 4.7249999046326 0.34999999403954 0.34999999403954
		endloop
	endfacet
	facet normal -1 0 0
		outer loop
			vertex 4.7249999046326 0.34999999403954 9.0527181625366
			vertex 4.7249999046326 0.38509720563889 9.1135082244873
			vertex 4.7249999046326 0.34999999403954 0.34999999403954
		endloop
	endfacet
	facet normal 0 0.68491034380611 0.72862735396593
		outer loop
			vertex 4.9422006607056 0.38509720563889 9.1135082244873
			vertex 4.8302783966064 0.34999999403954 9.1464996337891
			vertex 5.0749998092651 0.34999999403954 9.1464996337891
		endloop
	endfacet
	facet normal 0 -1 0
		outer loop
			vertex 4.8302783966064 0.34999999403954 9.1464996337891
			vertex 5.0749998092651 0.34999999403954 9.1186685562134
			vertex 5.0749998092651 0.34999999403954 9.1464996337891
		endloop
	endfacet
	facet normal -0 0.68491756165431 0.72862056911503
		outer loop
			vertex 4.7249999046326 0.38509720563889 9.1135082244873
			vertex 4.9422006607056 0.38509720563889 9.1135082244873
			vertex 5.0749998092651 9.70778465271 0.34999999403954
		endloop
	endfacet
	facet normal 3.5796802769706e-06 0.68491753457911 0.72862059455746
		outer loop
			vertex 4.9422006607056 0.38509720563889 9.1135082244873
			vertex 5.0749998092651 0.34999999403954 9.1464996337891
			vertex 5.0749998092651 9.70778465271 0.34999999403954
		endloop
	endfacet
	facet normal 0 0.68491756165431 0.72862056911503
		outer loop
			vertex 4.7249999046326 0.38509720563889 9.1135082244873
			vertex 5.0749998092651 9.70778465271 0.34999999403954
			vertex 4.7249999046326 9.70778465271 0.34999999403954
		endloop
	endfacet
	facet normal 1 0 0
		outer loop
			vertex 5.0749998092651 0.34999999403954 9.0527181625366
			vertex 5.0749998092651 0.34999999403954 0.34999999403954
			vertex 5.0749998092651 9.70778465271 0.34999999403954
		endloop
	endfacet
	facet normal 1 -0 0
		outer loop
			vertex 5.0749998092651 0.34999999403954 9.1186685562134
			vertex 5.0749998092651 0.37855741381645 9.102180480957
			vertex 5.0749998092651 0.34999999403954 9.1464996337891
		endloop
	endfacet
	facet normal 1 -0 0
		outer loop
			vertex 5.0749998092651 0.34999999403954 9.0527181625366
			vertex 5.0749998092651 9.70778465271 0.34999999403954
			vertex 5.0749998092651 0.37855741381645 9.102180480957
		endloop
	endfacet
	facet normal 1 -0 -0
		outer loop
			vertex 5.0749998092651 0.37855741381645 9.102180480957
			vertex 5.0749998092651 9.70778465271 0.34999999403954
			vertex 5.0749998092651 0.34999999403954 9.1464996337891
		endloop
	endfacet
endsolid