solid csg_export
	facet normal 0 -1 0
		outer loop
			vertex 0.81000000238419 0.27000001072884 0
			vertex 15.476499557495 0.27000001072884 0.16200000047684
			vertex 0.81000000238419 0.27000001072884 0.16200000047684
		endloop
	endfacet
	facet normal 0 0 -1
		outer loop
			vertex 0.81000000238419 0.27000001072884 0
			vertex 0.81000000238419 2.3926000595093 0
			vertex 15.476499557495 0.27000001072884 0
		endloop
	endfacet
	facet normal 0 -1 0
		outer loop
			vertex 0.81000000238419 0.27000001072884 0.81000000238419
			vertex 0.81000000238419 0.27000001072884 0.64800000190735
			vertex 15.476499557495 0.27000001072884 0.81000000238419
		endloop
	endfacet
	facet normal 0 0 1
		outer loop
			vertex 0.81000000238419 0.27000001072884 0.81000000238419
			vertex 15.476499557495 0.27000001072884 0.81000000238419
			vertex 0.81000000238419 2.3926000595093 0.81000000238419
		endloop
	endfacet
	facet normal -1 0 0
		outer loop
			vertex 0.27000001072884 2.3926000595093 0
			vertex 0.27000001072884 2.3926000595093 0.16200000047684
			vertex 0.27000001072884 16.150741577148 0
		endloop
	endfacet
	facet normal 0 0 -1
		outer loop
			vertex 0.27000001072884 2.3926000595093 0
			vertex 0.27000001072884 16.150741577148 0
			vertex 0.81000000238419 2.3926000595093 0
		endloop
	endfacet
	facet normal 0 0 -1
		outer loop
			vertex 0.81000000238419 2.3926000595093 0
			vertex 0.27000001072884 16.150741577148 0
			vertex 15.476499557495 0.27000001072884 0
		endloop
	endfacet
	facet normal -1 0 0
		outer loop
			vertex 0.27000001072884 2.3926000595093 0.81000000238419
			vertex 0.27000001072884 16.150741577148 0.64800000190735
			vertex 0.27000001072884 2.3926000595093 0.64800000190735
		endloop
	endfacet
	facet normal 0 0 1
		outer loop
			vertex 0.27000001072884 2.3926000595093 0.81000000238419
			vertex 0.81000000238419 2.3926000595093 0.81000000238419
			vertex 0.27000001072884 16.150741577148 0.81000000238419
		endloop
	endfacet
	facet normal -0 -0 1
		outer loop
			vertex 0.81000000238419 2.3926000595093 0.81000000238419
			vertex 15.476499557495 0.27000001072884 0.81000000238419
			vertex 0.27000001072884 16.150741577148 0.81000000238419
		endloop
	endfacet
	facet normal 0 -1 0
		outer loop
			vertex 0.81000000238419 0.27000001072884 0
			vertex 15.476499557495 0.27000001072884 0
			vertex 15.476499557495 0.27000001072884 0.16200000047684
		endloop
	endfacet
	facet normal 0 -1 -0
		outer loop
			vertex 15.476499557495 0.27000001072884 0.81000000238419
			vertex 0.81000000238419 0.27000001072884 0.64800000190735
			vertex 15.476499557495 0.27000001072884 0.64800000190735
		endloop
	endfacet
	facet normal 0.72227315331962 0.69160790336269 0
		outer loop
			vertex 15.476499557495 0.27000001072884 0.16200000047684
			vertex 15.476499557495 0.27000001072884 0
			vertex 0.27000001072884 16.150741577148 0
		endloop
	endfacet
	facet normal 0.72227315331962 0.69160790336269 0
		outer loop
			vertex 0.27000001072884 16.150741577148 0
			vertex 15.476499557495 0.27000001072884 0.64800000190735
			vertex 15.476499557495 0.27000001072884 0.16200000047684
		endloop
	endfacet
	facet normal 0.72227315331962 0.69160790336269 0
		outer loop
			vertex 15.476499557495 0.27000001072884 0.81000000238419
			vertex 15.476499557495 0.27000001072884 0.64800000190735
			vertex 0.27000001072884 16.150741577148 0
		endloop
	endfacet
	facet normal -1 0 0
		outer loop
			vertex 0.27000001072884 16.150741577148 0
			vertex 0.27000001072884 2.3926000595093 0.16200000047684
			vertex 0.27000001072884 16.150741577148 0.16200000047684
		endloop
	endfacet
	facet normal 0.72227315331962 0.69160790336269 0
		outer loop
			vertex 15.476499557495 0.27000001072884 0.81000000238419
			vertex 0.27000001072884 16.150741577148 0
			vertex 0.27000001072884 16.150741577148 0.16200000047684
		endloop
	endfacet
	facet normal 0.72227315331962 0.69160790336269 0
		outer loop
			vertex 15.476499557495 0.27000001072884 0.81000000238419
			vertex 0.27000001072884 16.150741577148 0.16200000047684
			vertex 0.27000001072884 16.150741577148 0.64800000190735
		endloop
	endfacet
	facet normal -1 0 0
		outer loop
			vertex 0.27000001072884 2.3926000595093 0.81000000238419
			vertex 0.27000001072884 16.150741577148 0.81000000238419
			vertex 0.27000001072884 16.150741577148 0.64800000190735
		endloop
	endfacet
	facet normal 0.72227315331962 0.69160790336269 0
		outer loop
			vertex 15.476499557495 0.27000001072884 0.81000000238419
			vertex 0.27000001072884 16.150741577148 0.64800000190735
			vertex 0.27000001072884 16.150741577148 0.81000000238419
		endloop
	endfacet
	facet normal -1 0 0
		outer loop
			vertex 0.81000000238419 0.27000001072884 0
			vertex 0.81000000238419 0.27000001072884 0.16200000047684
			vertex 0.81000000238419 2.3926000595093 0
		endloop
	endfacet
	facet normal -1 0 0
		outer loop
			vertex 0.81000000238419 2.3926000595093 0
			vertex 0.81000000238419 0.27000001072884 0.16200000047684
			vertex 0.81000000238419 0.27000001072884 0.64800000190735
		endloop
	endfacet
	facet normal 0 -1 -0
		outer loop
			vertex 0.81000000238419 2.3926000595093 0.81000000238419
			vertex 0.27000001072884 2.3926000595093 0
			vertex 0.81000000238419 2.3926000595093 0
		endloop
	endfacet
	facet normal 0 -1 0
		outer loop
			vertex 0.27000001072884 2.3926000595093 0.16200000047684
			vertex 0.27000001072884 2.3926000595093 0
			vertex 0.81000000238419 2.3926000595093 0.81000000238419
		endloop
	endfacet
	facet normal -1 0 0
		outer loop
			vertex 0.81000000238419 0.27000001072884 0.81000000238419
			vertex 0.81000000238419 2.3926000595093 0
			vertex 0.81000000238419 0.27000001072884 0.64800000190735
		endloop
	endfacet
	facet normal 0 -1 0
		outer loop
			vertex 0.81000000238419 2.3926000595093 0.81000000238419
			vertex 0.27000001072884 2.3926000595093 0.64800000190735
			vertex 0.27000001072884 2.3926000595093 0.16200000047684
		endloop
	endfacet
	facet normal -1 0 0
		outer loop
			vertex 0.81000000238419 0.27000001072884 0.81000000238419
			vertex 0.81000000238419 2.3926000595093 0.81000000238419
			vertex 0.81000000238419 2.3926000595093 0
		endloop
	endfacet
	facet normal 0 -1 0
		outer loop
			vertex 0.27000001072884 2.3926000595093 0.81000000238419
			vertex 0.27000001072884 2.3926000595093 0.64800000190735
			vertex 0.81000000238419 2.3926000595093 0.81000000238419
		endloop
	endfacet
	facet normal 0 -1 0
		outer loop
			vertex 0 2.3926000595093 0.81000000238419
			vertex 0 2.3926000595093 0
			vertex 0.27000001072884 2.3926000595093 0.16200000047684
		endloop
	endfacet
	facet normal 0 -1 0
		outer loop
			vertex 0 2.3926000595093 0.81000000238419
			vertex 0.27000001072884 2.3926000595093 0.16200000047684
			vertex 0.27000001072884 2.3926000595093 0.64800000190735
		endloop
	endfacet
	facet normal 0.51449574150853 0 -0.85749293406394
		outer loop
			vertex 0 2.3926000595093 0
			vertex 0.27000001072884 16.150741577148 0.16200000047684
			vertex 0.27000001072884 2.3926000595093 0.16200000047684
		endloop
	endfacet
	facet normal -1 0 0
		outer loop
			vertex 0 2.3926000595093 0.81000000238419
			vertex 0 16.150741577148 0
			vertex 0 2.3926000595093 0
		endloop
	endfacet
	facet normal 0.51449574150853 -0 0.85749293406394
		outer loop
			vertex 0 2.3926000595093 0.81000000238419
			vertex 0.27000001072884 2.3926000595093 0.64800000190735
			vertex 0 16.150741577148 0.81000000238419
		endloop
	endfacet
	facet normal 0.51449574150853 0 -0.85749293406394
		outer loop
			vertex 0 2.3926000595093 0
			vertex 0 16.150741577148 0
			vertex 0.27000001072884 16.150741577148 0.16200000047684
		endloop
	endfacet
	facet normal -1 0 0
		outer loop
			vertex 0 2.3926000595093 0.81000000238419
			vertex 0 16.150741577148 0.81000000238419
			vertex 0 16.150741577148 0
		endloop
	endfacet
	facet normal 0.51449574150853 0 0.85749293406394
		outer loop
			vertex 0 16.150741577148 0.81000000238419
			vertex 0.27000001072884 2.3926000595093 0.64800000190735
			vertex 0.27000001072884 16.150741577148 0.64800000190735
		endloop
	endfacet
	facet normal 0 1 0
		outer loop
			vertex 0 16.150741577148 0.81000000238419
			vertex 0.27000001072884 16.150741577148 0.16200000047684
			vertex 0 16.150741577148 0
		endloop
	endfacet
	facet normal 0 1 0
		outer loop
			vertex 0 16.150741577148 0.81000000238419
			vertex 0.27000001072884 16.150741577148 0.64800000190735
			vertex 0.27000001072884 16.150741577148 0.16200000047684
		endloop
	endfacet
	facet normal -1 0 0
		outer loop
			vertex 0.81000000238419 0 0.81000000238419
			vertex 0.81000000238419 0.27000001072884 0.16200000047684
			vertex 0.81000000238419 0 0
		endloop
	endfacet
	facet normal -1 0 0
		outer loop
			vertex 0.81000000238419 0 0.81000000238419
			vertex 0.81000000238419 0.27000001072884 0.64800000190735
			vertex 0.81000000238419 0.27000001072884 0.16200000047684
		endloop
	endfacet
	facet normal 0 0.51449574150853 -0.85749293406394
		outer loop
			vertex 0.81000000238419 0 0
			vertex 0.81000000238419 0.27000001072884 0.16200000047684
			vertex 15.476499557495 0 0
		endloop
	endfacet
	facet normal 0 -1 0
		outer loop
			vertex 0.81000000238419 0 0.81000000238419
			vertex 0.81000000238419 0 0
			vertex 15.476499557495 0 0.81000000238419
		endloop
	endfacet
	facet normal 0 0.51449574150853 0.85749293406394
		outer loop
			vertex 0.81000000238419 0 0.81000000238419
			vertex 15.476499557495 0.27000001072884 0.64800000190735
			vertex 0.81000000238419 0.27000001072884 0.64800000190735
		endloop
	endfacet
	facet normal 0 0.51449574150853 -0.85749293406394
		outer loop
			vertex 15.476499557495 0 0
			vertex 0.81000000238419 0.27000001072884 0.16200000047684
			vertex 15.476499557495 0.27000001072884 0.16200000047684
		endloop
	endfacet
	facet normal 0 -1 -0
		outer loop
			vertex 15.476499557495 0 0.81000000238419
			vertex 0.81000000238419 0 0
			vertex 15.476499557495 0 0
		endloop
	endfacet
	facet normal -0 0.51449574150853 0.85749293406394
		outer loop
			vertex 0.81000000238419 0 0.81000000238419
			vertex 15.476499557495 0 0.81000000238419
			vertex 15.476499557495 0.27000001072884 0.64800000190735
		endloop
	endfacet
	facet normal 1 0 0
		outer loop
			vertex 15.476499557495 0 0.81000000238419
			vertex 15.476499557495 0 0
			vertex 15.476499557495 0.27000001072884 0.16200000047684
		endloop
	endfacet
	facet normal 1 0 0
		outer loop
			vertex 15.476499557495 0 0.81000000238419
			vertex 15.476499557495 0.27000001072884 0.16200000047684
			vertex 15.476499557495 0.27000001072884 0.64800000190735
		endloop
	endfacet
	facet normal 0 -1 0
		outer loop
			vertex 15.77649974823 17.709037780762 0.54000002145767
			vertex 19.483499526978 17.709037780762 0.54000002145767
			vertex 15.77649974823 17.709037780762 2.6626000404358
		endloop
	endfacet
	facet normal -1 0 0
		outer loop
			vertex 15.77649974823 18.24903678894 0.54000002145767
			vertex 15.77649974823 17.709037780762 0.54000002145767
			vertex 15.77649974823 18.24903678894 2.6626000404358
		endloop
	endfacet
	facet normal -0 1 0
		outer loop
			vertex 19.98450088501 18.24903678894 0.2534527182579
			vertex 20.000522613525 18.24903678894 0.25499999523163
			vertex 23.706499099731 18.24903678894 0
		endloop
	endfacet
	facet normal -0 1 0
		outer loop
			vertex 20.000522613525 18.24903678894 0.25499999523163
			vertex 20.161500930786 18.24903678894 0.25499999523163
			vertex 23.706499099731 18.24903678894 0
		endloop
	endfacet
	facet normal -0 1 0
		outer loop
			vertex 20.161500930786 18.24903678894 0.25499999523163
			vertex 22.951642990112 18.24903678894 0.54000002145767
			vertex 23.706499099731 18.24903678894 0
		endloop
	endfacet
	facet normal 0 1 -0
		outer loop
			vertex 20.161500930786 18.24903678894 0.25499999523163
			vertex 20.153123855591 18.24903678894 0.26973721385002
			vertex 22.951642990112 18.24903678894 0.54000002145767
		endloop
	endfacet
	facet normal 1 0 0
		outer loop
			vertex 23.706499099731 18.24903678894 0.54000002145767
			vertex 23.706499099731 17.709037780762 0.54000002145767
			vertex 23.706499099731 17.709037780762 0.52210110425949
		endloop
	endfacet
	facet normal 0 -1 0
		outer loop
			vertex 19.483499526978 17.709037780762 0.54000002145767
			vertex 19.999500274658 17.709037780762 0.54000002145767
			vertex 15.77649974823 17.709037780762 2.6626000404358
		endloop
	endfacet
	facet normal 0 -1 0
		outer loop
			vertex 15.77649974823 17.709037780762 2.6626000404358
			vertex 19.999500274658 17.709037780762 0.54000002145767
			vertex 23.706499099731 17.709037780762 0.54000002145767
		endloop
	endfacet
	facet normal 0 1 0
		outer loop
			vertex 15.77649974823 18.24903678894 0.54000002145767
			vertex 19.498500823975 18.24903678894 2.6626000404358
			vertex 19.483499526978 18.24903678894 0.54000002145767
		endloop
	endfacet
	facet normal 0 1 0
		outer loop
			vertex 19.483499526978 18.24903678894 0.54000002145767
			vertex 19.498500823975 18.24903678894 2.6626000404358
			vertex 19.498500823975 18.24903678894 0.54000002145767
		endloop
	endfacet
	facet normal 0 1 0
		outer loop
			vertex 19.98450088501 18.24903678894 0.54000002145767
			vertex 19.98450088501 18.24903678894 2.6626000404358
			vertex 19.999500274658 18.24903678894 0.54000002145767
		endloop
	endfacet
	facet normal 0 1 -0
		outer loop
			vertex 19.999500274658 18.24903678894 0.54000002145767
			vertex 19.98450088501 18.24903678894 2.6626000404358
			vertex 22.951642990112 18.24903678894 0.54000002145767
		endloop
	endfacet
	facet normal 1 0 0
		outer loop
			vertex 23.706499099731 18.24903678894 0.54000002145767
			vertex 23.706499099731 17.709037780762 2.6626000404358
			vertex 23.706499099731 17.709037780762 0.54000002145767
		endloop
	endfacet
	facet normal 0 1 0
		outer loop
			vertex 22.951642990112 18.24903678894 0.54000002145767
			vertex 23.706499099731 18.24903678894 2.6626000404358
			vertex 23.706499099731 18.24903678894 0.54000002145767
		endloop
	endfacet
	facet normal -1 0 0
		outer loop
			vertex 15.77649974823 17.709037780762 0.54000002145767
			vertex 15.77649974823 17.709037780762 2.6626000404358
			vertex 15.77649974823 18.24903678894 2.6626000404358
		endloop
	endfacet
	facet normal 0 1 0
		outer loop
			vertex 15.77649974823 18.24903678894 0.54000002145767
			vertex 15.77649974823 18.24903678894 2.6626000404358
			vertex 19.498500823975 18.24903678894 2.6626000404358
		endloop
	endfacet
	facet normal 0 -1 0
		outer loop
			vertex 15.77649974823 17.709037780762 2.6626000404358
			vertex 23.706499099731 17.709037780762 0.54000002145767
			vertex 23.706499099731 17.709037780762 2.6626000404358
		endloop
	endfacet
	facet normal 0 1 -0
		outer loop
			vertex 22.951642990112 18.24903678894 0.54000002145767
			vertex 19.98450088501 18.24903678894 2.6626000404358
			vertex 23.706499099731 18.24903678894 2.6626000404358
		endloop
	endfacet
	facet normal 1 0 -0
		outer loop
			vertex 23.706499099731 18.24903678894 0.54000002145767
			vertex 23.706499099731 18.24903678894 2.6626000404358
			vertex 23.706499099731 17.709037780762 2.6626000404358
		endloop
	endfacet
	facet normal 0 0 1
		outer loop
			vertex 15.77649974823 18.24903678894 2.6626000404358
			vertex 15.77649974823 17.709037780762 2.6626000404358
			vertex 23.706499099731 17.709037780762 2.6626000404358
		endloop
	endfacet
	facet normal -0 0 1
		outer loop
			vertex 15.77649974823 18.24903678894 2.6626000404358
			vertex 23.706499099731 17.709037780762 2.6626000404358
			vertex 19.498500823975 18.24903678894 2.6626000404358
		endloop
	endfacet
	facet normal -0 0 1
		outer loop
			vertex 19.498500823975 18.24903678894 2.6626000404358
			vertex 23.706499099731 17.709037780762 2.6626000404358
			vertex 19.98450088501 18.24903678894 2.6626000404358
		endloop
	endfacet
	facet normal -0 0 1
		outer loop
			vertex 19.98450088501 18.24903678894 2.6626000404358
			vertex 23.706499099731 17.709037780762 2.6626000404358
			vertex 23.706499099731 18.24903678894 2.6626000404358
		endloop
	endfacet
	facet normal 0 0 -1
		outer loop
			vertex 19.336500167847 18.519037246704 0
			vertex 19.98450088501 18.24903678894 0
			vertex 19.498500823975 18.24903678894 0
		endloop
	endfacet
	facet normal 0 0 -1
		outer loop
			vertex 19.336500167847 18.519037246704 0
			vertex 20.146499633789 18.519037246704 0
			vertex 19.98450088501 18.24903678894 0
		endloop
	endfacet
	facet normal 0.85749506366496 -0.51449219215671 0
		outer loop
			vertex 19.98450088501 18.24903678894 0
			vertex 20.146499633789 18.519037246704 0
			vertex 19.98450088501 18.24903678894 0.2534527182579
		endloop
	endfacet
	facet normal 0.85749506366496 -0.51449219215671 0
		outer loop
			vertex 20.146499633789 18.519037246704 0
			vertex 19.98450088501 18.24903678894 0.25499999523163
			vertex 19.98450088501 18.24903678894 0.2534527182579
		endloop
	endfacet
	facet normal 0.85749506366496 -0.51449219215671 0
		outer loop
			vertex 20.146499633789 18.519037246704 0
			vertex 19.98450088501 18.24903678894 0.54000002145767
			vertex 19.98450088501 18.24903678894 0.25499999523163
		endloop
	endfacet
	facet normal -0.85749239122379 -0.51449664624107 0
		outer loop
			vertex 19.336500167847 18.519037246704 0
			vertex 19.498500823975 18.24903678894 0
			vertex 19.336500167847 18.519037246704 2.6626000404358
		endloop
	endfacet
	facet normal -0.85749239122379 -0.51449664624107 0
		outer loop
			vertex 19.498500823975 18.24903678894 0
			vertex 19.498500823975 18.24903678894 0.25499999523163
			vertex 19.336500167847 18.519037246704 2.6626000404358
		endloop
	endfacet
	facet normal 0 1 0
		outer loop
			vertex 19.336500167847 18.519037246704 0
			vertex 20.146499633789 18.519037246704 2.6626000404358
			vertex 20.146499633789 18.519037246704 0
		endloop
	endfacet
	facet normal -0.85749239122379 -0.51449664624107 0
		outer loop
			vertex 19.498500823975 18.24903678894 0.25499999523163
			vertex 19.498500823975 18.24903678894 0.54000002145767
			vertex 19.336500167847 18.519037246704 2.6626000404358
		endloop
	endfacet
	facet normal 0.85749506366496 -0.51449219215671 0
		outer loop
			vertex 20.146499633789 18.519037246704 0
			vertex 19.98450088501 18.24903678894 2.6626000404358
			vertex 19.98450088501 18.24903678894 0.54000002145767
		endloop
	endfacet
	facet normal 0 1 0
		outer loop
			vertex 19.336500167847 18.519037246704 0
			vertex 19.336500167847 18.519037246704 2.6626000404358
			vertex 20.146499633789 18.519037246704 2.6626000404358
		endloop
	endfacet
	facet normal 0.85749506366496 -0.51449219215671 0
		outer loop
			vertex 20.146499633789 18.519037246704 0
			vertex 20.146499633789 18.519037246704 2.6626000404358
			vertex 19.98450088501 18.24903678894 2.6626000404358
		endloop
	endfacet
	facet normal -0.85749239122379 -0.51449664624107 0
		outer loop
			vertex 19.498500823975 18.24903678894 0.54000002145767
			vertex 19.498500823975 18.24903678894 2.6626000404358
			vertex 19.336500167847 18.519037246704 2.6626000404358
		endloop
	endfacet
	facet normal 0 0 1
		outer loop
			vertex 19.336500167847 18.519037246704 2.6626000404358
			vertex 19.498500823975 18.24903678894 2.6626000404358
			vertex 19.98450088501 18.24903678894 2.6626000404358
		endloop
	endfacet
	facet normal -0 0 1
		outer loop
			vertex 19.336500167847 18.519037246704 2.6626000404358
			vertex 19.98450088501 18.24903678894 2.6626000404358
			vertex 20.146499633789 18.519037246704 2.6626000404358
		endloop
	endfacet
	facet normal -1 0 0
		outer loop
			vertex 15.77649974823 18.24903678894 0
			vertex 15.77649974823 1.9575370550156 0
			vertex 15.77649974823 1.9575370550156 0.54000002145767
		endloop
	endfacet
	facet normal -1 0 0
		outer loop
			vertex 15.77649974823 18.24903678894 0
			vertex 15.77649974823 1.9575370550156 0.54000002145767
			vertex 15.77649974823 2.1022295951843 0.54000002145767
		endloop
	endfacet
	facet normal 1 0 0
		outer loop
			vertex 23.706499099731 1.9575370550156 0
			vertex 23.706499099731 2.1035263538361 0.25286063551903
			vertex 23.706499099731 1.9575370550156 0.26938223838806
		endloop
	endfacet
	facet normal 1 0 0
		outer loop
			vertex 23.706499099731 2.2275371551514 0.46765372157097
			vertex 23.706499099731 1.9575370550156 0.54000002145767
			vertex 23.706499099731 1.9575370550156 0.53753465414047
		endloop
	endfacet
	facet normal 1 0 0
		outer loop
			vertex 23.706499099731 2.2275371551514 0.46765372157097
			vertex 23.706499099731 2.1022295951843 0.54000002145767
			vertex 23.706499099731 1.9575370550156 0.54000002145767
		endloop
	endfacet
	facet normal 0 0 1
		outer loop
			vertex 19.483499526978 17.709037780762 0.54000002145767
			vertex 15.77649974823 2.1022295951843 0.54000002145767
			vertex 19.483499526978 2.1022295951843 0.54000002145767
		endloop
	endfacet
	facet normal 0 0 -1
		outer loop
			vertex 15.77649974823 1.9575370550156 0
			vertex 23.706499099731 18.24903678894 0
			vertex 23.706499099731 1.9575370550156 0
		endloop
	endfacet
	facet normal 1 0 0
		outer loop
			vertex 23.706499099731 17.709037780762 0.52210110425949
			vertex 23.706499099731 2.1035263538361 0.25286063551903
			vertex 23.706499099731 1.9575370550156 0
		endloop
	endfacet
	facet normal 1 0 0
		outer loop
			vertex 23.706499099731 17.709037780762 0.52210110425949
			vertex 23.706499099731 2.2275371551514 0.46765372157097
			vertex 23.706499099731 2.1035263538361 0.25286063551903
		endloop
	endfacet
	facet normal 0 0 1
		outer loop
			vertex 23.706499099731 17.709037780762 0.54000002145767
			vertex 19.999500274658 2.1022295951843 0.54000002145767
			vertex 23.706499099731 2.1022295951843 0.54000002145767
		endloop
	endfacet
	facet normal 1 0 0
		outer loop
			vertex 23.706499099731 17.709037780762 0.54000002145767
			vertex 23.706499099731 2.1022295951843 0.54000002145767
			vertex 23.706499099731 2.2275371551514 0.46765372157097
		endloop
	endfacet
	facet normal -1 0 0
		outer loop
			vertex 15.77649974823 18.24903678894 0
			vertex 15.77649974823 2.1022295951843 0.54000002145767
			vertex 15.77649974823 17.709037780762 0.54000002145767
		endloop
	endfacet
	facet normal -0 0 1
		outer loop
			vertex 15.77649974823 17.709037780762 0.54000002145767
			vertex 15.77649974823 2.1022295951843 0.54000002145767
			vertex 19.483499526978 17.709037780762 0.54000002145767
		endloop
	endfacet
	facet normal 0 0 -1
		outer loop
			vertex 15.77649974823 18.24903678894 0
			vertex 19.498500823975 18.24903678894 0
			vertex 15.77649974823 1.9575370550156 0
		endloop
	endfacet
	facet normal 0 1 0
		outer loop
			vertex 15.77649974823 18.24903678894 0
			vertex 15.77649974823 18.24903678894 0.54000002145767
			vertex 19.321500778198 18.24903678894 0.25499999523163
		endloop
	endfacet
	facet normal -1 0 0
		outer loop
			vertex 15.77649974823 18.24903678894 0
			vertex 15.77649974823 17.709037780762 0.54000002145767
			vertex 15.77649974823 18.24903678894 0.54000002145767
		endloop
	endfacet
	facet normal 0 -0 -1
		outer loop
			vertex 19.498500823975 18.24903678894 0
			vertex 19.98450088501 18.24903678894 0
			vertex 15.77649974823 1.9575370550156 0
		endloop
	endfacet
	facet normal 0 0 -1
		outer loop
			vertex 15.77649974823 1.9575370550156 0
			vertex 19.98450088501 18.24903678894 0
			vertex 23.706499099731 18.24903678894 0
		endloop
	endfacet
	facet normal 1 0 0
		outer loop
			vertex 23.706499099731 18.24903678894 0
			vertex 23.706499099731 17.709037780762 0.52210110425949
			vertex 23.706499099731 1.9575370550156 0
		endloop
	endfacet
	facet normal -0 0 1
		outer loop
			vertex 19.999500274658 17.709037780762 0.54000002145767
			vertex 19.999500274658 2.1022295951843 0.54000002145767
			vertex 23.706499099731 17.709037780762 0.54000002145767
		endloop
	endfacet
	facet normal 1 0 -0
		outer loop
			vertex 23.706499099731 17.709037780762 0.52210110425949
			vertex 23.706499099731 17.709037780762 0.54000002145767
			vertex 23.706499099731 2.2275371551514 0.46765372157097
		endloop
	endfacet
	facet normal 0 1 0
		outer loop
			vertex 15.77649974823 18.24903678894 0
			vertex 19.321500778198 18.24903678894 0.25499999523163
			vertex 19.498500823975 18.24903678894 0
		endloop
	endfacet
	facet normal 0 1 -0
		outer loop
			vertex 19.498500823975 18.24903678894 0
			vertex 19.321500778198 18.24903678894 0.25499999523163
			vertex 19.498500823975 18.24903678894 0.25499999523163
		endloop
	endfacet
	facet normal 0 1 0
		outer loop
			vertex 19.98450088501 18.24903678894 0.2534527182579
			vertex 19.98450088501 18.24903678894 0.25499999523163
			vertex 20.000522613525 18.24903678894 0.25499999523163
		endloop
	endfacet
	facet normal -0 1 0
		outer loop
			vertex 15.77649974823 18.24903678894 0.54000002145767
			vertex 19.483499526978 18.24903678894 0.54000002145767
			vertex 19.321500778198 18.24903678894 0.25499999523163
		endloop
	endfacet
	facet normal 0 1 0
		outer loop
			vertex 19.98450088501 18.24903678894 0
			vertex 19.98450088501 18.24903678894 0.2534527182579
			vertex 23.706499099731 18.24903678894 0
		endloop
	endfacet
	facet normal 0 1 -0
		outer loop
			vertex 20.153123855591 18.24903678894 0.26973721385002
			vertex 19.999500274658 18.24903678894 0.54000002145767
			vertex 22.951642990112 18.24903678894 0.54000002145767
		endloop
	endfacet
	facet normal 1 0 -0
		outer loop
			vertex 23.706499099731 18.24903678894 0
			vertex 23.706499099731 18.24903678894 0.54000002145767
			vertex 23.706499099731 17.709037780762 0.52210110425949
		endloop
	endfacet
	facet normal 0 1 -0
		outer loop
			vertex 23.706499099731 18.24903678894 0
			vertex 22.951642990112 18.24903678894 0.54000002145767
			vertex 23.706499099731 18.24903678894 0.54000002145767
		endloop
	endfacet
	facet normal 1.672791717448e-08 -0.49999998268982 -0.86602541377848
		outer loop
			vertex 15.77649974823 1.9575370550156 0
			vertex 18.878549575806 1.6050691604614 0.20349748432636
			vertex 18.488689422607 1.4246029853821 0.30768966674805
		endloop
	endfacet
	facet normal 2.3226266271971e-08 -0.49999995788644 -0.86602542809871
		outer loop
			vertex 15.77649974823 1.9575370550156 0
			vertex 18.488689422607 1.4246029853821 0.30768966674805
			vertex 18.146974563599 1.1817363500595 0.44790875911713
		endloop
	endfacet
	facet normal -1 0 0
		outer loop
			vertex 15.77649974823 1.9575370550156 0
			vertex 15.77649974823 0.54000002145767 1.4419536590576
			vertex 15.77649974823 1.9575370550156 0.54000002145767
		endloop
	endfacet
	facet normal 6.1740292929317e-09 -0.50000002313477 -0.86602539042757
		outer loop
			vertex 15.77649974823 1.9575370550156 0
			vertex 17.866535186768 0.88580256700516 0.61876624822617
			vertex 15.77649974823 0.27000001072884 0.97430002689362
		endloop
	endfacet
	facet normal -2.5393757476233e-08 -0.50000006930604 -0.86602536377058
		outer loop
			vertex 15.77649974823 1.9575370550156 0
			vertex 18.146974563599 1.1817363500595 0.44790875911713
			vertex 17.866535186768 0.88580256700516 0.61876624822617
		endloop
	endfacet
	facet normal -1.1321534626859e-08 0.50000002756132 0.8660253878719
		outer loop
			vertex 15.77649974823 2.1022295951843 0.54000002145767
			vertex 18.488689422607 1.6946029663086 0.77534341812134
			vertex 18.878549575806 1.8750691413879 0.67115122079849
		endloop
	endfacet
	facet normal -1 0 0
		outer loop
			vertex 15.77649974823 1.9575370550156 0
			vertex 15.77649974823 0.27000001072884 0.97430002689362
			vertex 15.77649974823 0.54000002145767 1.4419536590576
		endloop
	endfacet
	facet normal -1 0 0
		outer loop
			vertex 15.77649974823 2.1022295951843 0.54000002145767
			vertex 15.77649974823 1.9575370550156 0.54000002145767
			vertex 15.77649974823 0.54000002145767 1.4419536590576
		endloop
	endfacet
	facet normal -2.5176408624133e-08 -0.49999994333217 -0.86602543650162
		outer loop
			vertex 15.77649974823 0.27000001072884 0.97430002689362
			vertex 17.866535186768 0.88580256700516 0.61876624822617
			vertex 17.658151626587 0.54817414283752 0.81369608640671
		endloop
	endfacet
	facet normal 0 -0.50000007105765 -0.86602536275928
		outer loop
			vertex 15.77649974823 0.27000001072884 0.97430002689362
			vertex 17.658151626587 0.54817414283752 0.81369608640671
			vertex 17.56071472168 0.27000001072884 0.97430002689362
		endloop
	endfacet
	facet normal -2.4924693524813e-08 0.49999995967871 0.86602542706395
		outer loop
			vertex 15.77649974823 2.1022295951843 0.54000002145767
			vertex 18.146974563599 1.451736330986 0.91556251049042
			vertex 18.488689422607 1.6946029663086 0.77534341812134
		endloop
	endfacet
	facet normal 1.2377587477605e-09 0.50000003118302 0.86602538578091
		outer loop
			vertex 15.77649974823 2.1022295951843 0.54000002145767
			vertex 17.866535186768 1.1558026075363 1.0864199399948
			vertex 18.146974563599 1.451736330986 0.91556251049042
		endloop
	endfacet
	facet normal -6.6228674243232e-08 0.49999991944125 0.86602545029505
		outer loop
			vertex 15.77649974823 2.1022295951843 0.54000002145767
			vertex 17.658151626587 0.81817412376404 1.2813497781754
			vertex 17.866535186768 1.1558026075363 1.0864199399948
		endloop
	endfacet
	facet normal 0 -0.86602535542217 0.5000000837659
		outer loop
			vertex 15.77649974823 0.27000001072884 0.97430002689362
			vertex 17.56071472168 0.27000001072884 0.97430002689362
			vertex 17.56071472168 0.54000002145767 1.4419536590576
		endloop
	endfacet
	facet normal 0 0.49999998863836 0.86602541034409
		outer loop
			vertex 15.77649974823 2.1022295951843 0.54000002145767
			vertex 15.77649974823 0.54000002145767 1.4419536590576
			vertex 17.56071472168 0.54000002145767 1.4419536590576
		endloop
	endfacet
	facet normal -1.481134074514e-08 0.49999997595139 0.86602541766891
		outer loop
			vertex 15.77649974823 2.1022295951843 0.54000002145767
			vertex 17.56071472168 0.54000002145767 1.4419536590576
			vertex 17.658151626587 0.81817412376404 1.2813497781754
		endloop
	endfacet
	facet normal 0 -0.86602535542217 0.5000000837659
		outer loop
			vertex 15.77649974823 0.27000001072884 0.97430002689362
			vertex 17.56071472168 0.54000002145767 1.4419536590576
			vertex 15.77649974823 0.54000002145767 1.4419536590576
		endloop
	endfacet
	facet normal 5.7474666279645e-12 -0.50000009306795 -0.86602535005162
		outer loop
			vertex 15.77649974823 1.9575370550156 0
			vertex 19.301570892334 1.7161996364594 0.13933625817299
			vertex 18.878549575806 1.6050691604614 0.20349748432636
		endloop
	endfacet
	facet normal 2.517871062172e-08 -0.49999981730316 -0.86602550926448
		outer loop
			vertex 15.77649974823 1.9575370550156 0
			vertex 19.741500854492 1.753723859787 0.11767166107893
			vertex 19.301570892334 1.7161996364594 0.13933625817299
		endloop
	endfacet
	facet normal 0 -0.50000018467487 -0.86602529716232
		outer loop
			vertex 15.77649974823 1.9575370550156 0
			vertex 23.706499099731 1.9575370550156 0
			vertex 19.741500854492 1.753723859787 0.11767166107893
		endloop
	endfacet
	facet normal -0 0.500000108432 0.86602534118118
		outer loop
			vertex 15.77649974823 2.1022295951843 0.54000002145767
			vertex 19.301570892334 1.9861996173859 0.60698997974396
			vertex 19.483499526978 2.1022295951843 0.54000002145767
		endloop
	endfacet
	facet normal 2.7968206593473e-09 0.500000172159 0.86602530438837
		outer loop
			vertex 15.77649974823 2.1022295951843 0.54000002145767
			vertex 18.878549575806 1.8750691413879 0.67115122079849
			vertex 19.301570892334 1.9861996173859 0.60698997974396
		endloop
	endfacet
	facet normal -1.6493395572114e-08 0.50000012782755 0.86602532998315
		outer loop
			vertex 19.483499526978 2.1022295951843 0.54000002145767
			vertex 19.301570892334 1.9861996173859 0.60698997974396
			vertex 19.741500854492 2.0237238407135 0.58532536029816
		endloop
	endfacet
	facet normal -0 0.50000016848047 0.86602530651217
		outer loop
			vertex 19.483499526978 2.1022295951843 0.54000002145767
			vertex 19.741500854492 2.0237238407135 0.58532536029816
			vertex 19.999500274658 2.1022295951843 0.54000002145767
		endloop
	endfacet
	facet normal 1.6493478120801e-08 0.50000012782765 0.8660253299831
		outer loop
			vertex 19.999500274658 2.1022295951843 0.54000002145767
			vertex 19.741500854492 2.0237238407135 0.58532536029816
			vertex 20.181428909302 1.9861996173859 0.60698997974396
		endloop
	endfacet
	facet normal -4.2712519629611e-08 0.50000005820384 0.86602537018043
		outer loop
			vertex 19.999500274658 2.1022295951843 0.54000002145767
			vertex 20.181428909302 1.9861996173859 0.60698997974396
			vertex 20.60445022583 1.8750691413879 0.67115122079849
		endloop
	endfacet
	facet normal -2.5178763007334e-08 -0.49999981730266 -0.86602550926477
		outer loop
			vertex 23.706499099731 1.9575370550156 0
			vertex 20.181428909302 1.7161996364594 0.13933625817299
			vertex 19.741500854492 1.753723859787 0.11767166107893
		endloop
	endfacet
	facet normal -5.7474678614359e-12 -0.50000009306795 -0.86602535005162
		outer loop
			vertex 23.706499099731 1.9575370550156 0
			vertex 20.60445022583 1.6050691604614 0.20349748432636
			vertex 20.181428909302 1.7161996364594 0.13933625817299
		endloop
	endfacet
	facet normal -1.6727921303651e-08 -0.49999998268982 -0.86602541377847
		outer loop
			vertex 23.706499099731 1.9575370550156 0
			vertex 20.994310379028 1.4246029853821 0.30768966674805
			vertex 20.60445022583 1.6050691604614 0.20349748432636
		endloop
	endfacet
	facet normal -2.3226272670035e-08 -0.49999995788644 -0.86602542809871
		outer loop
			vertex 23.706499099731 1.9575370550156 0
			vertex 21.336025238037 1.1817363500595 0.44790875911713
			vertex 20.994310379028 1.4246029853821 0.30768966674805
		endloop
	endfacet
	facet normal -0 0.50000014351446 0.86602532092631
		outer loop
			vertex 19.999500274658 2.1022295951843 0.54000002145767
			vertex 20.60445022583 1.8750691413879 0.67115122079849
			vertex 23.706499099731 2.1022295951843 0.54000002145767
		endloop
	endfacet
	facet normal 1.1321537632066e-08 0.50000002756132 0.8660253878719
		outer loop
			vertex 23.706499099731 2.1022295951843 0.54000002145767
			vertex 20.60445022583 1.8750691413879 0.67115122079849
			vertex 20.994310379028 1.6946029663086 0.77534341812134
		endloop
	endfacet
	facet normal 5.246063265835e-09 -0.50000002313477 -0.86602539042757
		outer loop
			vertex 23.706499099731 1.9575370550156 0
			vertex 23.706499099731 0.27000001072884 0.97430002689362
			vertex 21.336025238037 1.1817363500595 0.44790875911713
		endloop
	endfacet
	facet normal 1 0 -0
		outer loop
			vertex 23.706499099731 1.9575370550156 0
			vertex 23.706499099731 1.9575370550156 0.26938223838806
			vertex 23.706499099731 0.27000001072884 0.97430002689362
		endloop
	endfacet
	facet normal 1 0 0
		outer loop
			vertex 23.706499099731 2.1035263538361 0.25286063551903
			vertex 23.706499099731 0.27000001072884 0.97430002689362
			vertex 23.706499099731 1.9575370550156 0.26938223838806
		endloop
	endfacet
	facet normal 1 0 -0
		outer loop
			vertex 23.706499099731 2.1035263538361 0.25286063551903
			vertex 23.706499099731 2.2275371551514 0.46765372157097
			vertex 23.706499099731 1.9575370550156 0.53753465414047
		endloop
	endfacet
	facet normal 1 0 0
		outer loop
			vertex 23.706499099731 2.1035263538361 0.25286063551903
			vertex 23.706499099731 1.9575370550156 0.53753465414047
			vertex 23.706499099731 0.27000001072884 0.97430002689362
		endloop
	endfacet
	facet normal -4.3567022088246e-08 -0.50000011831865 -0.86602533547313
		outer loop
			vertex 23.706499099731 0.27000001072884 0.97430002689362
			vertex 21.616464614868 0.88580256700516 0.61876624822617
			vertex 21.336025238037 1.1817363500595 0.44790875911713
		endloop
	endfacet
	facet normal 2.4924700759156e-08 0.49999995967872 0.86602542706394
		outer loop
			vertex 23.706499099731 2.1022295951843 0.54000002145767
			vertex 20.994310379028 1.6946029663086 0.77534341812134
			vertex 21.336025238037 1.451736330986 0.91556251049042
		endloop
	endfacet
	facet normal 2.5176422665432e-08 -0.49999994333216 -0.86602543650163
		outer loop
			vertex 23.706499099731 0.27000001072884 0.97430002689362
			vertex 21.824848175049 0.54817414283752 0.81369608640671
			vertex 21.616464614868 0.88580256700516 0.61876624822617
		endloop
	endfacet
	facet normal -0 -0.50000007105765 -0.86602536275928
		outer loop
			vertex 23.706499099731 0.27000001072884 0.97430002689362
			vertex 21.922285079956 0.27000001072884 0.97430002689362
			vertex 21.824848175049 0.54817414283752 0.81369608640671
		endloop
	endfacet
	facet normal 1 0 0
		outer loop
			vertex 23.706499099731 1.9575370550156 0.54000002145767
			vertex 23.706499099731 0.54000002145767 1.4419536590576
			vertex 23.706499099731 0.27000001072884 0.97430002689362
		endloop
	endfacet
	facet normal 1 0 -0
		outer loop
			vertex 23.706499099731 1.9575370550156 0.53753465414047
			vertex 23.706499099731 1.9575370550156 0.54000002145767
			vertex 23.706499099731 0.27000001072884 0.97430002689362
		endloop
	endfacet
	facet normal 1.4328759454047e-08 0.49999998863836 0.86602541034409
		outer loop
			vertex 23.706499099731 2.1022295951843 0.54000002145767
			vertex 21.336025238037 1.451736330986 0.91556251049042
			vertex 23.706499099731 0.54000002145767 1.4419536590576
		endloop
	endfacet
	facet normal 1 0 0
		outer loop
			vertex 23.706499099731 2.1022295951843 0.54000002145767
			vertex 23.706499099731 0.54000002145767 1.4419536590576
			vertex 23.706499099731 1.9575370550156 0.54000002145767
		endloop
	endfacet
	facet normal 5.7587942728294e-08 0.50000007299232 0.8660253616423
		outer loop
			vertex 23.706499099731 0.54000002145767 1.4419536590576
			vertex 21.336025238037 1.451736330986 0.91556251049042
			vertex 21.616464614868 1.1558026075363 1.0864199399948
		endloop
	endfacet
	facet normal 0 -0.86602535542217 0.5000000837659
		outer loop
			vertex 23.706499099731 0.27000001072884 0.97430002689362
			vertex 23.706499099731 0.54000002145767 1.4419536590576
			vertex 21.922285079956 0.27000001072884 0.97430002689362
		endloop
	endfacet
	facet normal 0 -0.86602535542217 0.5000000837659
		outer loop
			vertex 23.706499099731 0.54000002145767 1.4419536590576
			vertex 21.922285079956 0.54000002145767 1.4419536590576
			vertex 21.922285079956 0.27000001072884 0.97430002689362
		endloop
	endfacet
	facet normal -1.8063008673132e-08 0.49999988042277 0.86602547282238
		outer loop
			vertex 23.706499099731 0.54000002145767 1.4419536590576
			vertex 21.616464614868 1.1558026075363 1.0864199399948
			vertex 21.824848175049 0.81817412376404 1.2813497781754
		endloop
	endfacet
	facet normal 0 0.49999997206038 0.86602541991539
		outer loop
			vertex 23.706499099731 0.54000002145767 1.4419536590576
			vertex 21.824848175049 0.81817412376404 1.2813497781754
			vertex 21.922285079956 0.54000002145767 1.4419536590576
		endloop
	endfacet
	facet normal 0.86936886980665 0 -0.49416370588207
		outer loop
			vertex 19.483499526978 2.1022295951843 0.54000002145767
			vertex 19.483499526978 1.9682133197784 0.54000002145767
			vertex 19.321500778198 1.7852445840836 0.25499999523163
		endloop
	endfacet
	facet normal 0 0 -1
		outer loop
			vertex 19.483499526978 2.1022295951843 0.54000002145767
			vertex 19.741500854492 1.9975551366806 0.54000002145767
			vertex 19.483499526978 1.9682133197784 0.54000002145767
		endloop
	endfacet
	facet normal 0 0 -1
		outer loop
			vertex 19.483499526978 2.1022295951843 0.54000002145767
			vertex 19.999500274658 2.1022295951843 0.54000002145767
			vertex 19.741500854492 1.9975551366806 0.54000002145767
		endloop
	endfacet
	facet normal 0 -0 -1
		outer loop
			vertex 19.999500274658 2.1022295951843 0.54000002145767
			vertex 19.999500274658 1.9682133197784 0.54000002145767
			vertex 19.741500854492 1.9975551366806 0.54000002145767
		endloop
	endfacet
	facet normal 0 0 1
		outer loop
			vertex 19.321500778198 18.24903678894 0.25499999523163
			vertex 19.321500778198 1.7852445840836 0.25499999523163
			vertex 19.741500854492 1.8330103158951 0.25499999523163
		endloop
	endfacet
	facet normal 0 0 1
		outer loop
			vertex 20.161500930786 18.24903678894 0.25499999523163
			vertex 19.741500854492 1.8330103158951 0.25499999523163
			vertex 20.161500930786 1.7852445840836 0.25499999523163
		endloop
	endfacet
	facet normal 0.86936886980665 0 -0.49416370588207
		outer loop
			vertex 19.321500778198 18.24903678894 0.25499999523163
			vertex 19.483499526978 2.1022295951843 0.54000002145767
			vertex 19.321500778198 1.7852445840836 0.25499999523163
		endloop
	endfacet
	facet normal -0.86936637023908 -0 -0.49416810327794
		outer loop
			vertex 20.161500930786 18.24903678894 0.25499999523163
			vertex 20.161500930786 1.7852445840836 0.25499999523163
			vertex 19.999500274658 1.9682133197784 0.54000002145767
		endloop
	endfacet
	facet normal -0.86936650389929 0 -0.49416786813584
		outer loop
			vertex 20.153123855591 18.24903678894 0.26973721385002
			vertex 19.999500274658 1.9682133197784 0.54000002145767
			vertex 19.999500274658 2.1022295951843 0.54000002145767
		endloop
	endfacet
	facet normal 0.86936886980665 0 -0.49416370588207
		outer loop
			vertex 19.321500778198 18.24903678894 0.25499999523163
			vertex 19.483499526978 17.709037780762 0.54000002145767
			vertex 19.483499526978 2.1022295951843 0.54000002145767
		endloop
	endfacet
	facet normal -0.86936650389929 0 -0.49416786813584
		outer loop
			vertex 20.153123855591 18.24903678894 0.26973721385002
			vertex 19.999500274658 2.1022295951843 0.54000002145767
			vertex 19.999500274658 17.709037780762 0.54000002145767
		endloop
	endfacet
	facet normal -0 0 1
		outer loop
			vertex 19.321500778198 18.24903678894 0.25499999523163
			vertex 19.741500854492 1.8330103158951 0.25499999523163
			vertex 19.498500823975 18.24903678894 0.25499999523163
		endloop
	endfacet
	facet normal -0 0 1
		outer loop
			vertex 19.498500823975 18.24903678894 0.25499999523163
			vertex 19.741500854492 1.8330103158951 0.25499999523163
			vertex 19.98450088501 18.24903678894 0.25499999523163
		endloop
	endfacet
	facet normal -0 0 1
		outer loop
			vertex 19.98450088501 18.24903678894 0.25499999523163
			vertex 19.741500854492 1.8330103158951 0.25499999523163
			vertex 20.000522613525 18.24903678894 0.25499999523163
		endloop
	endfacet
	facet normal -0 0 1
		outer loop
			vertex 20.000522613525 18.24903678894 0.25499999523163
			vertex 19.741500854492 1.8330103158951 0.25499999523163
			vertex 20.161500930786 18.24903678894 0.25499999523163
		endloop
	endfacet
	facet normal -0.86936391906813 -9.9876356877728e-08 -0.49417241548117
		outer loop
			vertex 20.161500930786 18.24903678894 0.25499999523163
			vertex 19.999500274658 1.9682133197784 0.54000002145767
			vertex 20.153123855591 18.24903678894 0.26973721385002
		endloop
	endfacet
	facet normal 0 -1 0
		outer loop
			vertex 19.498500823975 18.24903678894 0.25499999523163
			vertex 19.98450088501 18.24903678894 0.25499999523163
			vertex 19.498500823975 18.24903678894 0.54000002145767
		endloop
	endfacet
	facet normal 0.86936886980665 0 -0.49416370588207
		outer loop
			vertex 19.321500778198 18.24903678894 0.25499999523163
			vertex 19.483499526978 18.24903678894 0.54000002145767
			vertex 19.483499526978 17.709037780762 0.54000002145767
		endloop
	endfacet
	facet normal 0 -1 0
		outer loop
			vertex 19.498500823975 18.24903678894 0.54000002145767
			vertex 19.98450088501 18.24903678894 0.25499999523163
			vertex 19.98450088501 18.24903678894 0.54000002145767
		endloop
	endfacet
	facet normal -0.86936650389929 0 -0.49416786813584
		outer loop
			vertex 20.153123855591 18.24903678894 0.26973721385002
			vertex 19.999500274658 17.709037780762 0.54000002145767
			vertex 19.999500274658 18.24903678894 0.54000002145767
		endloop
	endfacet
	facet normal 0 0 -1
		outer loop
			vertex 19.483499526978 18.24903678894 0.54000002145767
			vertex 19.999500274658 17.709037780762 0.54000002145767
			vertex 19.483499526978 17.709037780762 0.54000002145767
		endloop
	endfacet
	facet normal 0 0 -1
		outer loop
			vertex 19.483499526978 18.24903678894 0.54000002145767
			vertex 19.498500823975 18.24903678894 0.54000002145767
			vertex 19.999500274658 17.709037780762 0.54000002145767
		endloop
	endfacet
	facet normal 0 0 -1
		outer loop
			vertex 19.498500823975 18.24903678894 0.54000002145767
			vertex 19.98450088501 18.24903678894 0.54000002145767
			vertex 19.999500274658 17.709037780762 0.54000002145767
		endloop
	endfacet
	facet normal 0 0 -1
		outer loop
			vertex 19.98450088501 18.24903678894 0.54000002145767
			vertex 19.999500274658 18.24903678894 0.54000002145767
			vertex 19.999500274658 17.709037780762 0.54000002145767
		endloop
	endfacet
	facet normal 0.95694068884772 -0.25139289762759 0.1451417550192
		outer loop
			vertex 17.658151626587 0.81817412376404 1.2813497781754
			vertex 17.56071472168 0.27000001072884 0.97430002689362
			vertex 17.658151626587 0.54817414283752 0.81369608640671
		endloop
	endfacet
	facet normal 0.88192203988783 -0.40824029428126 0.23569764038964
		outer loop
			vertex 17.658151626587 0.81817412376404 1.2813497781754
			vertex 17.658151626587 0.54817414283752 0.81369608640671
			vertex 17.866535186768 1.1558026075363 1.0864199399948
		endloop
	endfacet
	facet normal 0.95694067488689 -0.25139292253717 0.14514180392035
		outer loop
			vertex 17.56071472168 0.54000002145767 1.4419536590576
			vertex 17.56071472168 0.27000001072884 0.97430002689362
			vertex 17.658151626587 0.81817412376404 1.2813497781754
		endloop
	endfacet
	facet normal 0.29028532970805 -0.82873448544516 0.47847004084919
		outer loop
			vertex 19.301570892334 1.7161996364594 0.13933625817299
			vertex 19.301570892334 1.9861996173859 0.60698997974396
			vertex 18.878549575806 1.6050691604614 0.20349748432636
		endloop
	endfacet
	facet normal 0.098016938366024 -0.86185552901364 0.49759192809166
		outer loop
			vertex 19.301570892334 1.7161996364594 0.13933625817299
			vertex 19.741500854492 1.753723859787 0.11767166107893
			vertex 19.741500854492 1.8330103158951 0.25499999523163
		endloop
	endfacet
	facet normal 0.09801704606533 -0.86185567067171 0.4975916615174
		outer loop
			vertex 19.321500778198 1.7852445840836 0.25499999523163
			vertex 19.301570892334 1.7161996364594 0.13933625817299
			vertex 19.741500854492 1.8330103158951 0.25499999523163
		endloop
	endfacet
	facet normal -0.098017029074928 -0.86185552127653 0.49759192362465
		outer loop
			vertex 19.741500854492 1.753723859787 0.11767166107893
			vertex 20.161500930786 1.7852445840836 0.25499999523163
			vertex 19.741500854492 1.8330103158951 0.25499999523163
		endloop
	endfacet
	facet normal -0.09801735924468 -0.86185497334183 0.49759280763757
		outer loop
			vertex 20.161500930786 1.7852445840836 0.25499999523163
			vertex 19.741500854492 1.753723859787 0.11767166107893
			vertex 20.181428909302 1.7161996364594 0.13933625817299
		endloop
	endfacet
	facet normal 0.77300913247682 -0.54940211343624 0.31719741307146
		outer loop
			vertex 18.146974563599 1.1817363500595 0.44790875911713
			vertex 18.146974563599 1.451736330986 0.91556251049042
			vertex 17.866535186768 0.88580256700516 0.61876624822617
		endloop
	endfacet
	facet normal 0.4713963673478 -0.76376641110773 0.4409606945238
		outer loop
			vertex 18.488689422607 1.4246029853821 0.30768966674805
			vertex 18.878549575806 1.6050691604614 0.20349748432636
			vertex 18.878549575806 1.8750691413879 0.67115122079849
		endloop
	endfacet
	facet normal 0.29028534514218 -0.82873448799215 0.47847002707388
		outer loop
			vertex 18.878549575806 1.6050691604614 0.20349748432636
			vertex 19.301570892334 1.9861996173859 0.60698997974396
			vertex 18.878549575806 1.8750691413879 0.67115122079849
		endloop
	endfacet
	facet normal 0.63439339879907 -0.66944663227908 0.38650513850447
		outer loop
			vertex 18.146974563599 1.1817363500595 0.44790875911713
			vertex 18.488689422607 1.4246029853821 0.30768966674805
			vertex 18.488689422607 1.6946029663086 0.77534341812134
		endloop
	endfacet
	facet normal 0.47139638045684 -0.76376641112366 0.44096068048237
		outer loop
			vertex 18.488689422607 1.4246029853821 0.30768966674805
			vertex 18.878549575806 1.8750691413879 0.67115122079849
			vertex 18.488689422607 1.6946029663086 0.77534341812134
		endloop
	endfacet
	facet normal 0.098011811530552 -0.86185572611557 0.49759259657104
		outer loop
			vertex 19.321500778198 1.7852445840836 0.25499999523163
			vertex 19.301570892334 1.9861996173859 0.60698997974396
			vertex 19.301570892334 1.7161996364594 0.13933625817299
		endloop
	endfacet
	facet normal 0.098017126556007 -0.8618551408346 0.49759256336753
		outer loop
			vertex 19.483499526978 1.9682133197784 0.54000002145767
			vertex 19.301570892334 1.9861996173859 0.60698997974396
			vertex 19.321500778198 1.7852445840836 0.25499999523163
		endloop
	endfacet
	facet normal -0.098021102317812 -0.86185493365361 0.49759213904295
		outer loop
			vertex 20.161500930786 1.7852445840836 0.25499999523163
			vertex 20.181428909302 1.7161996364594 0.13933625817299
			vertex 20.181428909302 1.9861996173859 0.60698997974396
		endloop
	endfacet
	facet normal -0.29028532970805 -0.82873449204679 0.47847002941484
		outer loop
			vertex 20.181428909302 1.7161996364594 0.13933625817299
			vertex 20.60445022583 1.6050691604614 0.20349748432636
			vertex 20.60445022583 1.8750691413879 0.67115122079849
		endloop
	endfacet
	facet normal -0.098016955193484 -0.86185539033427 0.49759216497686
		outer loop
			vertex 20.161500930786 1.7852445840836 0.25499999523163
			vertex 20.181428909302 1.9861996173859 0.60698997974396
			vertex 19.999500274658 1.9682133197784 0.54000002145767
		endloop
	endfacet
	facet normal -0.29028534514218 -0.82873448139052 0.47847003850824
		outer loop
			vertex 20.60445022583 1.8750691413879 0.67115122079849
			vertex 20.181428909302 1.9861996173859 0.60698997974396
			vertex 20.181428909302 1.7161996364594 0.13933625817299
		endloop
	endfacet
	facet normal 0.09801696340455 -0.86185537837917 0.49759218406628
		outer loop
			vertex 19.483499526978 1.9682133197784 0.54000002145767
			vertex 19.741500854492 2.0237238407135 0.58532536029816
			vertex 19.301570892334 1.9861996173859 0.60698997974396
		endloop
	endfacet
	facet normal 0.098016452422791 -0.86185442870426 0.49759392960255
		outer loop
			vertex 19.483499526978 1.9682133197784 0.54000002145767
			vertex 19.741500854492 1.9975551366806 0.54000002145767
			vertex 19.741500854492 2.0237238407135 0.58532536029816
		endloop
	endfacet
	facet normal -0.098017170081153 -0.8618543674911 0.49759389426098
		outer loop
			vertex 19.999500274658 1.9682133197784 0.54000002145767
			vertex 19.741500854492 2.0237238407135 0.58532536029816
			vertex 19.741500854492 1.9975551366806 0.54000002145767
		endloop
	endfacet
	facet normal -0.098017384283316 -0.86185476558943 0.4975931625425
		outer loop
			vertex 19.999500274658 1.9682133197784 0.54000002145767
			vertex 20.181428909302 1.9861996173859 0.60698997974396
			vertex 19.741500854492 2.0237238407135 0.58532536029816
		endloop
	endfacet
	facet normal -0.47139638045684 -0.76376640503956 0.44096069102034
		outer loop
			vertex 20.60445022583 1.6050691604614 0.20349748432636
			vertex 20.994310379028 1.6946029663086 0.77534341812134
			vertex 20.60445022583 1.8750691413879 0.67115122079849
		endloop
	endfacet
	facet normal -0.4713963673478 -0.76376641719183 0.44096068398583
		outer loop
			vertex 20.60445022583 1.6050691604614 0.20349748432636
			vertex 20.994310379028 1.4246029853821 0.30768966674805
			vertex 20.994310379028 1.6946029663086 0.77534341812134
		endloop
	endfacet
	facet normal -0.63439339879907 -0.66944663227908 0.38650513850447
		outer loop
			vertex 20.994310379028 1.4246029853821 0.30768966674805
			vertex 21.336025238037 1.1817363500595 0.44790875911713
			vertex 21.336025238037 1.451736330986 0.91556251049042
		endloop
	endfacet
	facet normal 0.88192201393987 -0.40824031379223 0.23569770368644
		outer loop
			vertex 17.658151626587 0.54817414283752 0.81369608640671
			vertex 17.866535186768 0.88580256700516 0.61876624822617
			vertex 17.866535186768 1.1558026075363 1.0864199399948
		endloop
	endfacet
	facet normal 0.77300905834938 -0.54940214383206 0.31719754107265
		outer loop
			vertex 17.866535186768 0.88580256700516 0.61876624822617
			vertex 18.146974563599 1.451736330986 0.91556251049042
			vertex 17.866535186768 1.1558026075363 1.0864199399948
		endloop
	endfacet
	facet normal 0.63439339879907 -0.66944663227908 0.38650513850447
		outer loop
			vertex 18.146974563599 1.1817363500595 0.44790875911713
			vertex 18.488689422607 1.6946029663086 0.77534341812134
			vertex 18.146974563599 1.451736330986 0.91556251049042
		endloop
	endfacet
	facet normal -0.77300905834938 -0.54940219165925 0.31719745823353
		outer loop
			vertex 21.616464614868 1.1558026075363 1.0864199399948
			vertex 21.336025238037 1.451736330986 0.91556251049042
			vertex 21.336025238037 1.1817363500595 0.44790875911713
		endloop
	endfacet
	facet normal -0.77300913247683 -0.54940206560905 0.31719749591057
		outer loop
			vertex 21.616464614868 1.1558026075363 1.0864199399948
			vertex 21.336025238037 1.1817363500595 0.44790875911713
			vertex 21.616464614868 0.88580256700516 0.61876624822617
		endloop
	endfacet
	facet normal -0.88192201393988 -0.4082403363228 0.23569766466234
		outer loop
			vertex 21.616464614868 0.88580256700516 0.61876624822617
			vertex 21.824848175049 0.54817414283752 0.81369608640671
			vertex 21.824848175049 0.81817412376404 1.2813497781754
		endloop
	endfacet
	facet normal -0.88192203988782 -0.40824027175069 0.23569767941374
		outer loop
			vertex 21.824848175049 0.81817412376404 1.2813497781754
			vertex 21.616464614868 1.1558026075363 1.0864199399948
			vertex 21.616464614868 0.88580256700516 0.61876624822617
		endloop
	endfacet
	facet normal -0.63439339879907 -0.66944663227908 0.38650513850447
		outer loop
			vertex 21.336025238037 1.451736330986 0.91556251049042
			vertex 20.994310379028 1.6946029663086 0.77534341812134
			vertex 20.994310379028 1.4246029853821 0.30768966674805
		endloop
	endfacet
	facet normal -0.95694068884772 -0.25139288268016 0.1451417809089
		outer loop
			vertex 21.922285079956 0.27000001072884 0.97430002689362
			vertex 21.922285079956 0.54000002145767 1.4419536590576
			vertex 21.824848175049 0.54817414283752 0.81369608640671
		endloop
	endfacet
	facet normal -0.95694067488689 -0.25139293748459 0.14514177803065
		outer loop
			vertex 21.824848175049 0.81817412376404 1.2813497781754
			vertex 21.824848175049 0.54817414283752 0.81369608640671
			vertex 21.922285079956 0.54000002145767 1.4419536590576
		endloop
	endfacet
	facet normal -1 0 0
		outer loop
			vertex 0.27000001072884 16.450740814209 0.16200000047684
			vertex 0.27000001072884 17.365741729736 0.12461538612843
			vertex 0.27000001072884 16.450740814209 0
		endloop
	endfacet
	facet normal -1 -0 0
		outer loop
			vertex 0.27000001072884 20.415740966797 0.16200000047684
			vertex 0.27000001072884 17.365741729736 0.12461538612843
			vertex 0.27000001072884 16.450740814209 0.16200000047684
		endloop
	endfacet
	facet normal -1 0 0
		outer loop
			vertex 0.27000001072884 20.415740966797 0
			vertex 0.27000001072884 17.365741729736 0.12461538612843
			vertex 0.27000001072884 20.415740966797 0.16200000047684
		endloop
	endfacet
	facet normal 0 1 0
		outer loop
			vertex 0.27000001072884 20.415740966797 0.16200000047684
			vertex 0.81000000238419 20.415740966797 0
			vertex 0.27000001072884 20.415740966797 0
		endloop
	endfacet
	facet normal 0 1 0
		outer loop
			vertex 0.81000000238419 20.415740966797 0
			vertex 0.27000001072884 20.415740966797 0.16200000047684
			vertex 0.27000001072884 20.415740966797 0.54000002145767
		endloop
	endfacet
	facet normal 0.49999998703152 -0.8660254112718 0
		outer loop
			vertex 7.1375813484192 20.415740966797 0
			vertex 0.81000000238419 16.762510299683 0.54000002145767
			vertex 0.81000000238419 16.762510299683 0
		endloop
	endfacet
	facet normal -0 0 -1
		outer loop
			vertex 7.1375813484192 20.415740966797 0
			vertex 0.81000000238419 16.762510299683 0
			vertex 0.81000000238419 20.415740966797 0
		endloop
	endfacet
	facet normal 0 1 0
		outer loop
			vertex 7.1375813484192 20.415740966797 0.54000002145767
			vertex 0.81000000238419 20.415740966797 0
			vertex 0.81000000238419 20.415740966797 0.54000002145767
		endloop
	endfacet
	facet normal 0 0 1
		outer loop
			vertex 7.1375813484192 20.415740966797 0.54000002145767
			vertex 0.81000000238419 20.415740966797 0.54000002145767
			vertex 0.81000000238419 16.762510299683 0.54000002145767
		endloop
	endfacet
	facet normal 0 1 0
		outer loop
			vertex 7.1375813484192 20.415740966797 0.54000002145767
			vertex 7.1375813484192 20.415740966797 0
			vertex 0.81000000238419 20.415740966797 0
		endloop
	endfacet
	facet normal 0.49999998703152 -0.8660254112718 0
		outer loop
			vertex 7.1375813484192 20.415740966797 0.54000002145767
			vertex 0.81000000238419 16.762510299683 0.54000002145767
			vertex 7.1375813484192 20.415740966797 0
		endloop
	endfacet
	facet normal 0 -1 -0
		outer loop
			vertex 0.81000000238419 16.450740814209 0.81000000238419
			vertex 0.27000001072884 16.450740814209 0
			vertex 0.81000000238419 16.450740814209 -8.8817841970013e-16
		endloop
	endfacet
	facet normal 0 -1 0
		outer loop
			vertex 0.27000001072884 16.450740814209 0.16200000047684
			vertex 0.27000001072884 16.450740814209 0
			vertex 0.81000000238419 16.450740814209 0.81000000238419
		endloop
	endfacet
	facet normal -1.6447748767133e-15 0 -1
		outer loop
			vertex 0.27000001072884 16.450740814209 0
			vertex 0.27000001072884 20.415740966797 0
			vertex 0.81000000238419 16.450740814209 -8.8817841970013e-16
		endloop
	endfacet
	facet normal 1 0 0
		outer loop
			vertex 0.81000000238419 16.450740814209 -8.8817841970013e-16
			vertex 0.81000000238419 16.762510299683 0
			vertex 0.81000000238419 16.762510299683 0.54000002145767
		endloop
	endfacet
	facet normal 1 0 0
		outer loop
			vertex 0.81000000238419 16.450740814209 0.81000000238419
			vertex 0.81000000238419 16.450740814209 -8.8817841970013e-16
			vertex 0.81000000238419 16.762510299683 0.54000002145767
		endloop
	endfacet
	facet normal 0 -1 0
		outer loop
			vertex 0.27000001072884 16.450740814209 0.16200000047684
			vertex 0.81000000238419 16.450740814209 0.81000000238419
			vertex 0.27000001072884 16.450740814209 0.54000002145767
		endloop
	endfacet
	facet normal -1 0 0
		outer loop
			vertex 0.27000001072884 20.415740966797 0
			vertex 0.27000001072884 16.450740814209 0
			vertex 0.27000001072884 17.365741729736 0.12461538612843
		endloop
	endfacet
	facet normal 1.9273027990471e-14 2.8488305016472e-15 -1
		outer loop
			vertex 0.81000000238419 16.450740814209 -8.8817841970013e-16
			vertex 0.27000001072884 20.415740966797 0
			vertex 0.81000000238419 16.762510299683 0
		endloop
	endfacet
	facet normal 0 0 -1
		outer loop
			vertex 0.27000001072884 20.415740966797 0
			vertex 0.81000000238419 20.415740966797 0
			vertex 0.81000000238419 16.762510299683 0
		endloop
	endfacet
	facet normal 1 0 0
		outer loop
			vertex 0.81000000238419 16.450740814209 0.81000000238419
			vertex 0.81000000238419 16.762510299683 0.54000002145767
			vertex 0.81000000238419 20.415740966797 0.54000002145767
		endloop
	endfacet
	facet normal 0 1 0
		outer loop
			vertex 0.27000001072884 20.415740966797 0.64800000190735
			vertex 0.81000000238419 20.415740966797 0
			vertex 0.27000001072884 20.415740966797 0.54000002145767
		endloop
	endfacet
	facet normal 0 1 0
		outer loop
			vertex 0.27000001072884 20.415740966797 0.81000000238419
			vertex 0.81000000238419 20.415740966797 0.54000002145767
			vertex 0.81000000238419 20.415740966797 0
		endloop
	endfacet
	facet normal 0 1 0
		outer loop
			vertex 0.27000001072884 20.415740966797 0.81000000238419
			vertex 0.81000000238419 20.415740966797 0
			vertex 0.27000001072884 20.415740966797 0.64800000190735
		endloop
	endfacet
	facet normal 0 -1 0
		outer loop
			vertex 0.27000001072884 16.450740814209 0.64800000190735
			vertex 0.27000001072884 16.450740814209 0.54000002145767
			vertex 0.81000000238419 16.450740814209 0.81000000238419
		endloop
	endfacet
	facet normal 0 -1 0
		outer loop
			vertex 0.27000001072884 16.450740814209 0.81000000238419
			vertex 0.27000001072884 16.450740814209 0.64800000190735
			vertex 0.81000000238419 16.450740814209 0.81000000238419
		endloop
	endfacet
	facet normal -1 0 0
		outer loop
			vertex 0.27000001072884 16.450740814209 0.81000000238419
			vertex 0.27000001072884 20.415740966797 0.64800000190735
			vertex 0.27000001072884 16.450740814209 0.64800000190735
		endloop
	endfacet
	facet normal 0 0 1
		outer loop
			vertex 0.27000001072884 16.450740814209 0.81000000238419
			vertex 0.81000000238419 16.450740814209 0.81000000238419
			vertex 0.81000000238419 20.415740966797 0.81000000238419
		endloop
	endfacet
	facet normal -1 0 0
		outer loop
			vertex 0.27000001072884 16.450740814209 0.81000000238419
			vertex 0.27000001072884 20.415740966797 0.81000000238419
			vertex 0.27000001072884 20.415740966797 0.64800000190735
		endloop
	endfacet
	facet normal 0 0 1
		outer loop
			vertex 0.27000001072884 16.450740814209 0.81000000238419
			vertex 0.81000000238419 20.415740966797 0.81000000238419
			vertex 0.27000001072884 20.415740966797 0.81000000238419
		endloop
	endfacet
	facet normal 1 -0 0
		outer loop
			vertex 0.81000000238419 16.450740814209 0.81000000238419
			vertex 0.81000000238419 20.415740966797 0.54000002145767
			vertex 0.81000000238419 20.415740966797 0.81000000238419
		endloop
	endfacet
	facet normal 0 1 0
		outer loop
			vertex 0.81000000238419 20.415740966797 0.81000000238419
			vertex 0.81000000238419 20.415740966797 0.54000002145767
			vertex 0.27000001072884 20.415740966797 0.81000000238419
		endloop
	endfacet
	facet normal 0 -1 0
		outer loop
			vertex 0 16.450740814209 0.81000000238419
			vertex 0 16.450740814209 0
			vertex 0.27000001072884 16.450740814209 0.16200000047684
		endloop
	endfacet
	facet normal 0.51449574150853 0 -0.85749293406394
		outer loop
			vertex 0 16.450740814209 0
			vertex 0.27000001072884 20.415740966797 0.16200000047684
			vertex 0.27000001072884 16.450740814209 0.16200000047684
		endloop
	endfacet
	facet normal -1 0 0
		outer loop
			vertex 0 16.450740814209 0.81000000238419
			vertex 0 20.415740966797 0
			vertex 0 16.450740814209 0
		endloop
	endfacet
	facet normal 0 -1 0
		outer loop
			vertex 0 16.450740814209 0.81000000238419
			vertex 0.27000001072884 16.450740814209 0.16200000047684
			vertex 0.27000001072884 16.450740814209 0.54000002145767
		endloop
	endfacet
	facet normal 0.51449574150853 0 -0.85749293406394
		outer loop
			vertex 0 16.450740814209 0
			vertex 0 20.415740966797 0
			vertex 0.27000001072884 20.415740966797 0.16200000047684
		endloop
	endfacet
	facet normal 0 1 0
		outer loop
			vertex 0 20.415740966797 0.81000000238419
			vertex 0.27000001072884 20.415740966797 0.16200000047684
			vertex 0 20.415740966797 0
		endloop
	endfacet
	facet normal -1 0 0
		outer loop
			vertex 0 16.450740814209 0.81000000238419
			vertex 0 20.415740966797 0.81000000238419
			vertex 0 20.415740966797 0
		endloop
	endfacet
	facet normal 0 1 0
		outer loop
			vertex 0 20.415740966797 0.81000000238419
			vertex 0.27000001072884 20.415740966797 0.54000002145767
			vertex 0.27000001072884 20.415740966797 0.16200000047684
		endloop
	endfacet
	facet normal 0 -1 0
		outer loop
			vertex 0 16.450740814209 0.81000000238419
			vertex 0.27000001072884 16.450740814209 0.54000002145767
			vertex 0.27000001072884 16.450740814209 0.64800000190735
		endloop
	endfacet
	facet normal 0.51449574150853 -0 0.85749293406394
		outer loop
			vertex 0 16.450740814209 0.81000000238419
			vertex 0.27000001072884 16.450740814209 0.64800000190735
			vertex 0 20.415740966797 0.81000000238419
		endloop
	endfacet
	facet normal 0.51449574150853 -0 0.85749293406394
		outer loop
			vertex 0.27000001072884 16.450740814209 0.64800000190735
			vertex 0.27000001072884 20.415740966797 0.64800000190735
			vertex 0 20.415740966797 0.81000000238419
		endloop
	endfacet
	facet normal 0 1 0
		outer loop
			vertex 0 20.415740966797 0.81000000238419
			vertex 0.27000001072884 20.415740966797 0.64800000190735
			vertex 0.27000001072884 20.415740966797 0.54000002145767
		endloop
	endfacet
	facet normal 0 -1 0
		outer loop
			vertex 7.7075815200806 16.450740814209 0.16200000047684
			vertex 7.7075815200806 16.450740814209 0
			vertex 8.2475814819336 16.450740814209 0.54000002145767
		endloop
	endfacet
	facet normal -1 0 0
		outer loop
			vertex 7.7075815200806 16.450740814209 0
			vertex 7.7075815200806 16.450740814209 0.16200000047684
			vertex 7.7075815200806 19.500741958618 0.12461538612843
		endloop
	endfacet
	facet normal 0 -1 0
		outer loop
			vertex 7.7075815200806 16.450740814209 0.16200000047684
			vertex 8.2475814819336 16.450740814209 0.54000002145767
			vertex 7.7075815200806 16.450740814209 0.54000002145767
		endloop
	endfacet
	facet normal -1 0 0
		outer loop
			vertex 7.7075815200806 19.500741958618 0.12461538612843
			vertex 7.7075815200806 16.450740814209 0.16200000047684
			vertex 7.7075815200806 20.415740966797 0.16200000047684
		endloop
	endfacet
	facet normal -1 0 -0
		outer loop
			vertex 7.7075815200806 20.415740966797 0.16200000047684
			vertex 7.7075815200806 20.415740966797 0
			vertex 7.7075815200806 19.500741958618 0.12461538612843
		endloop
	endfacet
	facet normal 0 -1 0
		outer loop
			vertex 7.7075815200806 16.450740814209 0
			vertex 8.2475814819336 16.450740814209 0
			vertex 14.575162887573 16.450740814209 0.54000002145767
		endloop
	endfacet
	facet normal 0 0 -1
		outer loop
			vertex 14.575162887573 16.450740814209 0
			vertex 8.2475814819336 16.450740814209 0
			vertex 8.2475814819336 20.103971481323 0
		endloop
	endfacet
	facet normal 0 -1 0
		outer loop
			vertex 7.7075815200806 16.450740814209 0
			vertex 14.575162887573 16.450740814209 0.54000002145767
			vertex 8.2475814819336 16.450740814209 0.54000002145767
		endloop
	endfacet
	facet normal 0 0 1
		outer loop
			vertex 14.575162887573 16.450740814209 0.54000002145767
			vertex 8.2475814819336 20.103971481323 0.54000002145767
			vertex 8.2475814819336 16.450740814209 0.54000002145767
		endloop
	endfacet
	facet normal 0.49999998349909 0.86602541331125 0
		outer loop
			vertex 14.575162887573 16.450740814209 0
			vertex 8.2475814819336 20.103971481323 0
			vertex 8.2475814819336 20.103971481323 0.54000002145767
		endloop
	endfacet
	facet normal 0 -1 -0
		outer loop
			vertex 14.575162887573 16.450740814209 0.54000002145767
			vertex 8.2475814819336 16.450740814209 0
			vertex 14.575162887573 16.450740814209 0
		endloop
	endfacet
	facet normal 0.49999998349909 0.86602541331125 0
		outer loop
			vertex 14.575162887573 16.450740814209 0.54000002145767
			vertex 14.575162887573 16.450740814209 0
			vertex 8.2475814819336 20.103971481323 0.54000002145767
		endloop
	endfacet
	facet normal 0 0 -1
		outer loop
			vertex 7.7075815200806 16.450740814209 0
			vertex 8.2475814819336 20.103971481323 0
			vertex 8.2475814819336 16.450740814209 0
		endloop
	endfacet
	facet normal 0 -1 -0
		outer loop
			vertex 8.2475814819336 16.450740814209 0.81000000238419
			vertex 7.7075815200806 16.450740814209 0.54000002145767
			vertex 8.2475814819336 16.450740814209 0.54000002145767
		endloop
	endfacet
	facet normal -1 0 0
		outer loop
			vertex 7.7075815200806 20.415740966797 0
			vertex 7.7075815200806 16.450740814209 0
			vertex 7.7075815200806 19.500741958618 0.12461538612843
		endloop
	endfacet
	facet normal 0 0 -1
		outer loop
			vertex 7.7075815200806 20.415740966797 0
			vertex 8.2475814819336 20.415740966797 0
			vertex 7.7075815200806 16.450740814209 0
		endloop
	endfacet
	facet normal 0 -0 -1
		outer loop
			vertex 8.2475814819336 20.415740966797 0
			vertex 8.2475814819336 20.103971481323 0
			vertex 7.7075815200806 16.450740814209 0
		endloop
	endfacet
	facet normal 0 1 0
		outer loop
			vertex 8.2475814819336 20.415740966797 0.81000000238419
			vertex 8.2475814819336 20.415740966797 0
			vertex 7.7075815200806 20.415740966797 0
		endloop
	endfacet
	facet normal -0 1 0
		outer loop
			vertex 7.7075815200806 20.415740966797 0.16200000047684
			vertex 8.2475814819336 20.415740966797 0.81000000238419
			vertex 7.7075815200806 20.415740966797 0
		endloop
	endfacet
	facet normal 1 0 0
		outer loop
			vertex 8.2475814819336 20.415740966797 0
			vertex 8.2475814819336 20.103971481323 0.54000002145767
			vertex 8.2475814819336 20.103971481323 0
		endloop
	endfacet
	facet normal 1 0 0
		outer loop
			vertex 8.2475814819336 20.415740966797 0.81000000238419
			vertex 8.2475814819336 16.450740814209 0.54000002145767
			vertex 8.2475814819336 20.103971481323 0.54000002145767
		endloop
	endfacet
	facet normal 1 0 0
		outer loop
			vertex 8.2475814819336 20.415740966797 0.81000000238419
			vertex 8.2475814819336 20.103971481323 0.54000002145767
			vertex 8.2475814819336 20.415740966797 0
		endloop
	endfacet
	facet normal 0 1 0
		outer loop
			vertex 7.7075815200806 20.415740966797 0.16200000047684
			vertex 7.7075815200806 20.415740966797 0.54000002145767
			vertex 8.2475814819336 20.415740966797 0.81000000238419
		endloop
	endfacet
	facet normal 0 -1 0
		outer loop
			vertex 8.2475814819336 16.450740814209 0.81000000238419
			vertex 7.7075815200806 16.450740814209 0.64800000190735
			vertex 7.7075815200806 16.450740814209 0.54000002145767
		endloop
	endfacet
	facet normal 0 -1 0
		outer loop
			vertex 7.7075815200806 16.450740814209 0.81000000238419
			vertex 7.7075815200806 16.450740814209 0.64800000190735
			vertex 8.2475814819336 16.450740814209 0.81000000238419
		endloop
	endfacet
	facet normal -1 -0 0
		outer loop
			vertex 7.7075815200806 20.415740966797 0.81000000238419
			vertex 7.7075815200806 16.450740814209 0.64800000190735
			vertex 7.7075815200806 16.450740814209 0.81000000238419
		endloop
	endfacet
	facet normal 0 0 1
		outer loop
			vertex 7.7075815200806 20.415740966797 0.81000000238419
			vertex 7.7075815200806 16.450740814209 0.81000000238419
			vertex 8.2475814819336 16.450740814209 0.81000000238419
		endloop
	endfacet
	facet normal 1 0 0
		outer loop
			vertex 8.2475814819336 20.415740966797 0.81000000238419
			vertex 8.2475814819336 16.450740814209 0.81000000238419
			vertex 8.2475814819336 16.450740814209 0.54000002145767
		endloop
	endfacet
	facet normal -1 0 -0
		outer loop
			vertex 7.7075815200806 20.415740966797 0.81000000238419
			vertex 7.7075815200806 20.415740966797 0.64800000190735
			vertex 7.7075815200806 16.450740814209 0.64800000190735
		endloop
	endfacet
	facet normal -0 0 1
		outer loop
			vertex 7.7075815200806 20.415740966797 0.81000000238419
			vertex 8.2475814819336 16.450740814209 0.81000000238419
			vertex 8.2475814819336 20.415740966797 0.81000000238419
		endloop
	endfacet
	facet normal -0 1 0
		outer loop
			vertex 7.7075815200806 20.415740966797 0.64800000190735
			vertex 8.2475814819336 20.415740966797 0.81000000238419
			vertex 7.7075815200806 20.415740966797 0.54000002145767
		endloop
	endfacet
	facet normal -0 1 0
		outer loop
			vertex 7.7075815200806 20.415740966797 0.81000000238419
			vertex 8.2475814819336 20.415740966797 0.81000000238419
			vertex 7.7075815200806 20.415740966797 0.64800000190735
		endloop
	endfacet
	facet normal 0 -1 0
		outer loop
			vertex 7.4375815391541 16.450740814209 0.81000000238419
			vertex 7.4375815391541 16.450740814209 0
			vertex 7.7075815200806 16.450740814209 0.16200000047684
		endloop
	endfacet
	facet normal 0.51449578326552 0 -0.85749290900975
		outer loop
			vertex 7.4375815391541 20.415740966797 0
			vertex 7.7075815200806 16.450740814209 0.16200000047684
			vertex 7.4375815391541 16.450740814209 0
		endloop
	endfacet
	facet normal 0 -1 0
		outer loop
			vertex 7.4375815391541 16.450740814209 0.81000000238419
			vertex 7.7075815200806 16.450740814209 0.16200000047684
			vertex 7.7075815200806 16.450740814209 0.54000002145767
		endloop
	endfacet
	facet normal -1 -0 0
		outer loop
			vertex 7.4375815391541 20.415740966797 0.81000000238419
			vertex 7.4375815391541 16.450740814209 0
			vertex 7.4375815391541 16.450740814209 0.81000000238419
		endloop
	endfacet
	facet normal 0.51449578326552 0 -0.85749290900975
		outer loop
			vertex 7.4375815391541 20.415740966797 0
			vertex 7.7075815200806 20.415740966797 0.16200000047684
			vertex 7.7075815200806 16.450740814209 0.16200000047684
		endloop
	endfacet
	facet normal -1 0 -0
		outer loop
			vertex 7.4375815391541 20.415740966797 0.81000000238419
			vertex 7.4375815391541 20.415740966797 0
			vertex 7.4375815391541 16.450740814209 0
		endloop
	endfacet
	facet normal 0 1 0
		outer loop
			vertex 7.4375815391541 20.415740966797 0.81000000238419
			vertex 7.7075815200806 20.415740966797 0.16200000047684
			vertex 7.4375815391541 20.415740966797 0
		endloop
	endfacet
	facet normal 0 1 0
		outer loop
			vertex 7.4375815391541 20.415740966797 0.81000000238419
			vertex 7.7075815200806 20.415740966797 0.54000002145767
			vertex 7.7075815200806 20.415740966797 0.16200000047684
		endloop
	endfacet
	facet normal 0 -1 0
		outer loop
			vertex 7.4375815391541 16.450740814209 0.81000000238419
			vertex 7.7075815200806 16.450740814209 0.54000002145767
			vertex 7.7075815200806 16.450740814209 0.64800000190735
		endloop
	endfacet
	facet normal 0.51449578326552 0 0.85749290900975
		outer loop
			vertex 7.7075815200806 20.415740966797 0.64800000190735
			vertex 7.4375815391541 16.450740814209 0.81000000238419
			vertex 7.7075815200806 16.450740814209 0.64800000190735
		endloop
	endfacet
	facet normal 0.51449578326552 0 0.85749290900975
		outer loop
			vertex 7.4375815391541 20.415740966797 0.81000000238419
			vertex 7.4375815391541 16.450740814209 0.81000000238419
			vertex 7.7075815200806 20.415740966797 0.64800000190735
		endloop
	endfacet
	facet normal 0 1 0
		outer loop
			vertex 7.4375815391541 20.415740966797 0.81000000238419
			vertex 7.7075815200806 20.415740966797 0.64800000190735
			vertex 7.7075815200806 20.415740966797 0.54000002145767
		endloop
	endfacet
endsolid