solid csg_export
	facet normal -1 0 0
		outer loop
			vertex 0 18.24903678894 0.54000002145767
			vertex 0 17.709037780762 0.54000002145767
			vertex 0 18.24903678894 2.6626000404358
		endloop
	endfacet
	facet normal 0 -1 0
		outer loop
			vertex 0 17.709037780762 0.54000002145767
			vertex 3.7070000171661 17.709037780762 0.54000002145767
			vertex 0 17.709037780762 2.6626000404358
		endloop
	endfacet
	facet normal 0 1 0
		outer loop
			vertex 0 18.24903678894 0.54000002145767
			vertex 3.7219998836517 18.24903678894 2.6626000404358
			vertex 3.7070000171661 18.24903678894 0.54000002145767
		endloop
	endfacet
	facet normal 0 -1 0
		outer loop
			vertex 3.7070000171661 17.709037780762 0.54000002145767
			vertex 4.2230000495911 17.709037780762 0.54000002145767
			vertex 0 17.709037780762 2.6626000404358
		endloop
	endfacet
	facet normal 0 1 0
		outer loop
			vertex 3.7070000171661 18.24903678894 0.54000002145767
			vertex 3.7219998836517 18.24903678894 2.6626000404358
			vertex 3.7219998836517 18.24903678894 0.54000002145767
		endloop
	endfacet
	facet normal -1 0 0
		outer loop
			vertex 0 17.709037780762 0.54000002145767
			vertex 0 17.709037780762 2.6626000404358
			vertex 0 18.24903678894 2.6626000404358
		endloop
	endfacet
	facet normal 0 1 0
		outer loop
			vertex 0 18.24903678894 0.54000002145767
			vertex 0 18.24903678894 2.6626000404358
			vertex 3.7219998836517 18.24903678894 2.6626000404358
		endloop
	endfacet
	facet normal 0 0 1
		outer loop
			vertex 0 18.24903678894 2.6626000404358
			vertex 0 17.709037780762 2.6626000404358
			vertex 7.9299998283386 17.709037780762 2.6626000404358
		endloop
	endfacet
	facet normal -0 0 1
		outer loop
			vertex 0 18.24903678894 2.6626000404358
			vertex 7.9299998283386 17.709037780762 2.6626000404358
			vertex 3.7219998836517 18.24903678894 2.6626000404358
		endloop
	endfacet
	facet normal -0 1 0
		outer loop
			vertex 4.2080001831055 18.24903678894 0.2534527182579
			vertex 4.2240219116211 18.24903678894 0.25499999523163
			vertex 7.9299998283386 18.24903678894 0
		endloop
	endfacet
	facet normal -0 1 0
		outer loop
			vertex 4.2240219116211 18.24903678894 0.25499999523163
			vertex 4.3850002288818 18.24903678894 0.25499999523163
			vertex 7.9299998283386 18.24903678894 0
		endloop
	endfacet
	facet normal 0 1 -0
		outer loop
			vertex 4.3850002288818 18.24903678894 0.25499999523163
			vertex 4.3766231536865 18.24903678894 0.26973721385002
			vertex 7.1751437187195 18.24903678894 0.54000002145767
		endloop
	endfacet
	facet normal 0 -1 0
		outer loop
			vertex 0 17.709037780762 2.6626000404358
			vertex 4.2230000495911 17.709037780762 0.54000002145767
			vertex 7.9299998283386 17.709037780762 0.54000002145767
		endloop
	endfacet
	facet normal 0 1 0
		outer loop
			vertex 4.2080001831055 18.24903678894 0.54000002145767
			vertex 4.2080001831055 18.24903678894 2.6626000404358
			vertex 4.2230000495911 18.24903678894 0.54000002145767
		endloop
	endfacet
	facet normal 0 1 -0
		outer loop
			vertex 4.2230000495911 18.24903678894 0.54000002145767
			vertex 4.2080001831055 18.24903678894 2.6626000404358
			vertex 7.1751437187195 18.24903678894 0.54000002145767
		endloop
	endfacet
	facet normal -0 1 0
		outer loop
			vertex 4.3850002288818 18.24903678894 0.25499999523163
			vertex 7.1751437187195 18.24903678894 0.54000002145767
			vertex 7.9299998283386 18.24903678894 0
		endloop
	endfacet
	facet normal 1 0 0
		outer loop
			vertex 7.9299998283386 18.24903678894 0.54000002145767
			vertex 7.9299998283386 17.709037780762 0.54000002145767
			vertex 7.9299998283386 17.709037780762 0.52210110425949
		endloop
	endfacet
	facet normal 0 1 0
		outer loop
			vertex 7.1751437187195 18.24903678894 0.54000002145767
			vertex 7.9299998283386 18.24903678894 2.6626000404358
			vertex 7.9299998283386 18.24903678894 0.54000002145767
		endloop
	endfacet
	facet normal 1 0 0
		outer loop
			vertex 7.9299998283386 18.24903678894 0.54000002145767
			vertex 7.9299998283386 17.709037780762 2.6626000404358
			vertex 7.9299998283386 17.709037780762 0.54000002145767
		endloop
	endfacet
	facet normal 0 -1 0
		outer loop
			vertex 0 17.709037780762 2.6626000404358
			vertex 7.9299998283386 17.709037780762 0.54000002145767
			vertex 7.9299998283386 17.709037780762 2.6626000404358
		endloop
	endfacet
	facet normal -0 0 1
		outer loop
			vertex 3.7219998836517 18.24903678894 2.6626000404358
			vertex 7.9299998283386 17.709037780762 2.6626000404358
			vertex 4.2080001831055 18.24903678894 2.6626000404358
		endloop
	endfacet
	facet normal 0 1 -0
		outer loop
			vertex 7.1751437187195 18.24903678894 0.54000002145767
			vertex 4.2080001831055 18.24903678894 2.6626000404358
			vertex 7.9299998283386 18.24903678894 2.6626000404358
		endloop
	endfacet
	facet normal 1 0 -0
		outer loop
			vertex 7.9299998283386 18.24903678894 0.54000002145767
			vertex 7.9299998283386 18.24903678894 2.6626000404358
			vertex 7.9299998283386 17.709037780762 2.6626000404358
		endloop
	endfacet
	facet normal -0 0 1
		outer loop
			vertex 4.2080001831055 18.24903678894 2.6626000404358
			vertex 7.9299998283386 17.709037780762 2.6626000404358
			vertex 7.9299998283386 18.24903678894 2.6626000404358
		endloop
	endfacet
	facet normal 0 0 -1
		outer loop
			vertex 3.5599999427795 18.519037246704 0
			vertex 4.2080001831055 18.24903678894 0
			vertex 3.7219998836517 18.24903678894 0
		endloop
	endfacet
	facet normal -0.85749339338999 -0.51449497596431 0
		outer loop
			vertex 3.5599999427795 18.519037246704 0
			vertex 3.7219998836517 18.24903678894 0
			vertex 3.5599999427795 18.519037246704 2.6626000404358
		endloop
	endfacet
	facet normal -0.85749339338999 -0.51449497596431 0
		outer loop
			vertex 3.7219998836517 18.24903678894 0
			vertex 3.7219998836517 18.24903678894 0.25499999523163
			vertex 3.5599999427795 18.519037246704 2.6626000404358
		endloop
	endfacet
	facet normal -0.85749339338999 -0.51449497596431 0
		outer loop
			vertex 3.7219998836517 18.24903678894 0.25499999523163
			vertex 3.7219998836517 18.24903678894 0.54000002145767
			vertex 3.5599999427795 18.519037246704 2.6626000404358
		endloop
	endfacet
	facet normal 0 1 0
		outer loop
			vertex 3.5599999427795 18.519037246704 0
			vertex 3.5599999427795 18.519037246704 2.6626000404358
			vertex 4.3699998855591 18.519037246704 2.6626000404358
		endloop
	endfacet
	facet normal -0.85749339338999 -0.51449497596431 0
		outer loop
			vertex 3.7219998836517 18.24903678894 0.54000002145767
			vertex 3.7219998836517 18.24903678894 2.6626000404358
			vertex 3.5599999427795 18.519037246704 2.6626000404358
		endloop
	endfacet
	facet normal 0 0 1
		outer loop
			vertex 3.5599999427795 18.519037246704 2.6626000404358
			vertex 3.7219998836517 18.24903678894 2.6626000404358
			vertex 4.2080001831055 18.24903678894 2.6626000404358
		endloop
	endfacet
	facet normal 0 0 -1
		outer loop
			vertex 3.5599999427795 18.519037246704 0
			vertex 4.3699998855591 18.519037246704 0
			vertex 4.2080001831055 18.24903678894 0
		endloop
	endfacet
	facet normal 0.85749372744519 -0.51449441920409 0
		outer loop
			vertex 4.2080001831055 18.24903678894 0
			vertex 4.3699998855591 18.519037246704 0
			vertex 4.2080001831055 18.24903678894 0.2534527182579
		endloop
	endfacet
	facet normal 0.85749372744519 -0.51449441920409 0
		outer loop
			vertex 4.3699998855591 18.519037246704 0
			vertex 4.2080001831055 18.24903678894 0.25499999523163
			vertex 4.2080001831055 18.24903678894 0.2534527182579
		endloop
	endfacet
	facet normal 0.85749372744519 -0.51449441920409 0
		outer loop
			vertex 4.3699998855591 18.519037246704 0
			vertex 4.2080001831055 18.24903678894 0.54000002145767
			vertex 4.2080001831055 18.24903678894 0.25499999523163
		endloop
	endfacet
	facet normal 0 1 0
		outer loop
			vertex 3.5599999427795 18.519037246704 0
			vertex 4.3699998855591 18.519037246704 2.6626000404358
			vertex 4.3699998855591 18.519037246704 0
		endloop
	endfacet
	facet normal 0.85749372744519 -0.51449441920409 0
		outer loop
			vertex 4.3699998855591 18.519037246704 0
			vertex 4.2080001831055 18.24903678894 2.6626000404358
			vertex 4.2080001831055 18.24903678894 0.54000002145767
		endloop
	endfacet
	facet normal 0.85749372744519 -0.51449441920409 0
		outer loop
			vertex 4.3699998855591 18.519037246704 0
			vertex 4.3699998855591 18.519037246704 2.6626000404358
			vertex 4.2080001831055 18.24903678894 2.6626000404358
		endloop
	endfacet
	facet normal -0 0 1
		outer loop
			vertex 3.5599999427795 18.519037246704 2.6626000404358
			vertex 4.2080001831055 18.24903678894 2.6626000404358
			vertex 4.3699998855591 18.519037246704 2.6626000404358
		endloop
	endfacet
	facet normal -1 0 0
		outer loop
			vertex 0 18.24903678894 0
			vertex 0 17.709037780762 0.54000002145767
			vertex 0 18.24903678894 0.54000002145767
		endloop
	endfacet
	facet normal 0 1 0
		outer loop
			vertex 0 18.24903678894 0
			vertex 0 18.24903678894 0.54000002145767
			vertex 3.5450000762939 18.24903678894 0.25499999523163
		endloop
	endfacet
	facet normal -1 0 0
		outer loop
			vertex 0 18.24903678894 0
			vertex 0 2.1022295951843 0.54000002145767
			vertex 0 17.709037780762 0.54000002145767
		endloop
	endfacet
	facet normal 0 0 -1
		outer loop
			vertex 0 18.24903678894 0
			vertex 3.7219998836517 18.24903678894 0
			vertex 0 1.9575370550156 0
		endloop
	endfacet
	facet normal -0 0 1
		outer loop
			vertex 0 17.709037780762 0.54000002145767
			vertex 0 2.1022295951843 0.54000002145767
			vertex 3.7070000171661 17.709037780762 0.54000002145767
		endloop
	endfacet
	facet normal 0 1 0
		outer loop
			vertex 0 18.24903678894 0
			vertex 3.5450000762939 18.24903678894 0.25499999523163
			vertex 3.7219998836517 18.24903678894 0
		endloop
	endfacet
	facet normal -0 1 0
		outer loop
			vertex 0 18.24903678894 0.54000002145767
			vertex 3.7070000171661 18.24903678894 0.54000002145767
			vertex 3.5450000762939 18.24903678894 0.25499999523163
		endloop
	endfacet
	facet normal 0 1 -0
		outer loop
			vertex 3.7219998836517 18.24903678894 0
			vertex 3.5450000762939 18.24903678894 0.25499999523163
			vertex 3.7219998836517 18.24903678894 0.25499999523163
		endloop
	endfacet
	facet normal 0 -0 -1
		outer loop
			vertex 3.7219998836517 18.24903678894 0
			vertex 4.2080001831055 18.24903678894 0
			vertex 0 1.9575370550156 0
		endloop
	endfacet
	facet normal -1 0 0
		outer loop
			vertex 0 18.24903678894 0
			vertex 0 1.9575370550156 0
			vertex 0 1.9575370550156 0.54000002145767
		endloop
	endfacet
	facet normal -1 0 0
		outer loop
			vertex 0 18.24903678894 0
			vertex 0 1.9575370550156 0.54000002145767
			vertex 0 2.1022295951843 0.54000002145767
		endloop
	endfacet
	facet normal 0 0 1
		outer loop
			vertex 3.7070000171661 17.709037780762 0.54000002145767
			vertex 0 2.1022295951843 0.54000002145767
			vertex 3.7070000171661 2.1022295951843 0.54000002145767
		endloop
	endfacet
	facet normal 0 1 0
		outer loop
			vertex 4.2080001831055 18.24903678894 0.2534527182579
			vertex 4.2080001831055 18.24903678894 0.25499999523163
			vertex 4.2240219116211 18.24903678894 0.25499999523163
		endloop
	endfacet
	facet normal 0 1 0
		outer loop
			vertex 4.2080001831055 18.24903678894 0
			vertex 4.2080001831055 18.24903678894 0.2534527182579
			vertex 7.9299998283386 18.24903678894 0
		endloop
	endfacet
	facet normal 0 1 -0
		outer loop
			vertex 4.3766231536865 18.24903678894 0.26973721385002
			vertex 4.2230000495911 18.24903678894 0.54000002145767
			vertex 7.1751437187195 18.24903678894 0.54000002145767
		endloop
	endfacet
	facet normal 0 0 -1
		outer loop
			vertex 0 1.9575370550156 0
			vertex 4.2080001831055 18.24903678894 0
			vertex 7.9299998283386 18.24903678894 0
		endloop
	endfacet
	facet normal -0 0 1
		outer loop
			vertex 4.2230000495911 17.709037780762 0.54000002145767
			vertex 4.2230000495911 2.1022295951843 0.54000002145767
			vertex 7.9299998283386 17.709037780762 0.54000002145767
		endloop
	endfacet
	facet normal 0 1 -0
		outer loop
			vertex 7.9299998283386 18.24903678894 0
			vertex 7.1751437187195 18.24903678894 0.54000002145767
			vertex 7.9299998283386 18.24903678894 0.54000002145767
		endloop
	endfacet
	facet normal 1 0 -0
		outer loop
			vertex 7.9299998283386 18.24903678894 0
			vertex 7.9299998283386 18.24903678894 0.54000002145767
			vertex 7.9299998283386 17.709037780762 0.52210110425949
		endloop
	endfacet
	facet normal 1 0 0
		outer loop
			vertex 7.9299998283386 18.24903678894 0
			vertex 7.9299998283386 17.709037780762 0.52210110425949
			vertex 7.9299998283386 1.9575370550156 0
		endloop
	endfacet
	facet normal 1 0 -0
		outer loop
			vertex 7.9299998283386 17.709037780762 0.52210110425949
			vertex 7.9299998283386 17.709037780762 0.54000002145767
			vertex 7.9299998283386 2.2275371551514 0.46765372157097
		endloop
	endfacet
	facet normal 0 0 -1
		outer loop
			vertex 0 1.9575370550156 0
			vertex 7.9299998283386 18.24903678894 0
			vertex 7.9299998283386 1.9575370550156 0
		endloop
	endfacet
	facet normal 0 0 1
		outer loop
			vertex 7.9299998283386 17.709037780762 0.54000002145767
			vertex 4.2230000495911 2.1022295951843 0.54000002145767
			vertex 7.9299998283386 2.1022295951843 0.54000002145767
		endloop
	endfacet
	facet normal 1 0 0
		outer loop
			vertex 7.9299998283386 17.709037780762 0.52210110425949
			vertex 7.9299998283386 2.1035263538361 0.25286063551903
			vertex 7.9299998283386 1.9575370550156 0
		endloop
	endfacet
	facet normal 1 0 0
		outer loop
			vertex 7.9299998283386 17.709037780762 0.52210110425949
			vertex 7.9299998283386 2.2275371551514 0.46765372157097
			vertex 7.9299998283386 2.1035263538361 0.25286063551903
		endloop
	endfacet
	facet normal 1 0 0
		outer loop
			vertex 7.9299998283386 17.709037780762 0.54000002145767
			vertex 7.9299998283386 2.1022295951843 0.54000002145767
			vertex 7.9299998283386 2.2275371551514 0.46765372157097
		endloop
	endfacet
	facet normal 1 0 0
		outer loop
			vertex 7.9299998283386 1.9575370550156 0
			vertex 7.9299998283386 2.1035263538361 0.25286063551903
			vertex 7.9299998283386 1.9575370550156 0.26938223838806
		endloop
	endfacet
	facet normal 1 0 0
		outer loop
			vertex 7.9299998283386 2.2275371551514 0.46765372157097
			vertex 7.9299998283386 2.1022295951843 0.54000002145767
			vertex 7.9299998283386 1.9575370550156 0.54000002145767
		endloop
	endfacet
	facet normal 1 0 0
		outer loop
			vertex 7.9299998283386 2.2275371551514 0.46765372157097
			vertex 7.9299998283386 1.9575370550156 0.54000002145767
			vertex 7.9299998283386 1.9575370550156 0.53753465414047
		endloop
	endfacet
	facet normal -1 0 0
		outer loop
			vertex 0 1.9575370550156 0
			vertex 0 0.54000002145767 1.4419536590576
			vertex 0 1.9575370550156 0.54000002145767
		endloop
	endfacet
	facet normal 6.1740278843404e-09 -0.50000002313477 -0.86602539042757
		outer loop
			vertex 0 1.9575370550156 0
			vertex 2.0900359153748 0.88580256700516 0.61876624822617
			vertex 0 0.27000001072884 0.97430002689362
		endloop
	endfacet
	facet normal 2.3226265961107e-08 -0.49999995788645 -0.86602542809871
		outer loop
			vertex 0 1.9575370550156 0
			vertex 2.7121891975403 1.4246029853821 0.30768966674805
			vertex 2.3704741001129 1.1817363500595 0.44790875911713
		endloop
	endfacet
	facet normal 1.6727925335989e-08 -0.4999999826898 -0.86602541377849
		outer loop
			vertex 0 1.9575370550156 0
			vertex 3.1020488739014 1.6050691604614 0.20349748432636
			vertex 2.7121891975403 1.4246029853821 0.30768966674805
		endloop
	endfacet
	facet normal -2.5393788877488e-08 -0.50000006930609 -0.86602536377054
		outer loop
			vertex 0 1.9575370550156 0
			vertex 2.3704741001129 1.1817363500595 0.44790875911713
			vertex 2.0900359153748 0.88580256700516 0.61876624822617
		endloop
	endfacet
	facet normal -1.1321539523459e-08 0.5000000275613 0.86602538787191
		outer loop
			vertex 0 2.1022295951843 0.54000002145767
			vertex 2.7121891975403 1.6946029663086 0.77534341812134
			vertex 3.1020488739014 1.8750691413879 0.67115122079849
		endloop
	endfacet
	facet normal -1 0 0
		outer loop
			vertex 0 1.9575370550156 0
			vertex 0 0.27000001072884 0.97430002689362
			vertex 0 0.54000002145767 1.4419536590576
		endloop
	endfacet
	facet normal -1 0 0
		outer loop
			vertex 0 2.1022295951843 0.54000002145767
			vertex 0 1.9575370550156 0.54000002145767
			vertex 0 0.54000002145767 1.4419536590576
		endloop
	endfacet
	facet normal 0 0.49999998863836 0.86602541034409
		outer loop
			vertex 0 2.1022295951843 0.54000002145767
			vertex 0 0.54000002145767 1.4419536590576
			vertex 1.7842143774033 0.54000002145767 1.4419536590576
		endloop
	endfacet
	facet normal 0 -0.86602535542217 0.5000000837659
		outer loop
			vertex 0 0.27000001072884 0.97430002689362
			vertex 1.7842143774033 0.54000002145767 1.4419536590576
			vertex 0 0.54000002145767 1.4419536590576
		endloop
	endfacet
	facet normal -2.5176420810992e-08 -0.49999994333212 -0.86602543650165
		outer loop
			vertex 0 0.27000001072884 0.97430002689362
			vertex 2.0900359153748 0.88580256700516 0.61876624822617
			vertex 1.8816516399384 0.54817414283752 0.81369608640671
		endloop
	endfacet
	facet normal 1.2377601300163e-09 0.50000003118303 0.86602538578091
		outer loop
			vertex 0 2.1022295951843 0.54000002145767
			vertex 2.0900359153748 1.1558026075363 1.0864199399948
			vertex 2.3704741001129 1.451736330986 0.91556251049042
		endloop
	endfacet
	facet normal 0 -0.50000007105765 -0.86602536275928
		outer loop
			vertex 0 0.27000001072884 0.97430002689362
			vertex 1.8816516399384 0.54817414283752 0.81369608640671
			vertex 1.7842143774033 0.27000001072884 0.97430002689362
		endloop
	endfacet
	facet normal -6.6228612778466e-08 0.49999991944133 0.866025450295
		outer loop
			vertex 0 2.1022295951843 0.54000002145767
			vertex 1.8816516399384 0.81817412376404 1.2813497781754
			vertex 2.0900359153748 1.1558026075363 1.0864199399948
		endloop
	endfacet
	facet normal -2.4924694106459e-08 0.49999995967873 0.86602542706393
		outer loop
			vertex 0 2.1022295951843 0.54000002145767
			vertex 2.3704741001129 1.451736330986 0.91556251049042
			vertex 2.7121891975403 1.6946029663086 0.77534341812134
		endloop
	endfacet
	facet normal -1.4811331772301e-08 0.4999999759514 0.86602541766891
		outer loop
			vertex 0 2.1022295951843 0.54000002145767
			vertex 1.7842143774033 0.54000002145767 1.4419536590576
			vertex 1.8816516399384 0.81817412376404 1.2813497781754
		endloop
	endfacet
	facet normal 0 -0.86602535542217 0.5000000837659
		outer loop
			vertex 0 0.27000001072884 0.97430002689362
			vertex 1.7842143774033 0.27000001072884 0.97430002689362
			vertex 1.7842143774033 0.54000002145767 1.4419536590576
		endloop
	endfacet
	facet normal 5.7474629712517e-12 -0.50000009306795 -0.86602535005162
		outer loop
			vertex 0 1.9575370550156 0
			vertex 3.5250713825226 1.7161996364594 0.13933625817299
			vertex 3.1020488739014 1.6050691604614 0.20349748432636
		endloop
	endfacet
	facet normal 2.5178746132105e-08 -0.49999981730276 -0.86602550926472
		outer loop
			vertex 0 1.9575370550156 0
			vertex 3.9649999141693 1.753723859787 0.11767166107893
			vertex 3.5250713825226 1.7161996364594 0.13933625817299
		endloop
	endfacet
	facet normal 2.7968196136847e-09 0.50000017215898 0.86602530438838
		outer loop
			vertex 0 2.1022295951843 0.54000002145767
			vertex 3.1020488739014 1.8750691413879 0.67115122079849
			vertex 3.5250713825226 1.9861996173859 0.60698997974396
		endloop
	endfacet
	facet normal -0 0.500000108432 0.86602534118118
		outer loop
			vertex 0 2.1022295951843 0.54000002145767
			vertex 3.5250713825226 1.9861996173859 0.60698997974396
			vertex 3.7070000171661 2.1022295951843 0.54000002145767
		endloop
	endfacet
	facet normal -1.6493457483552e-08 0.50000012782762 0.86602532998311
		outer loop
			vertex 3.7070000171661 2.1022295951843 0.54000002145767
			vertex 3.5250713825226 1.9861996173859 0.60698997974396
			vertex 3.9649999141693 2.0237238407135 0.58532536029816
		endloop
	endfacet
	facet normal 0 -0.50000018467487 -0.86602529716232
		outer loop
			vertex 0 1.9575370550156 0
			vertex 7.9299998283386 1.9575370550156 0
			vertex 3.9649999141693 1.753723859787 0.11767166107893
		endloop
	endfacet
	facet normal -0 0.50000016848047 0.86602530651217
		outer loop
			vertex 3.7070000171661 2.1022295951843 0.54000002145767
			vertex 3.9649999141693 2.0237238407135 0.58532536029816
			vertex 4.2230000495911 2.1022295951843 0.54000002145767
		endloop
	endfacet
	facet normal 1.6493447164946e-08 0.50000012782761 0.86602532998312
		outer loop
			vertex 4.2230000495911 2.1022295951843 0.54000002145767
			vertex 3.9649999141693 2.0237238407135 0.58532536029816
			vertex 4.4049286842346 1.9861996173859 0.60698997974396
		endloop
	endfacet
	facet normal -4.2712355892476e-08 0.50000005820404 0.86602537018032
		outer loop
			vertex 4.2230000495911 2.1022295951843 0.54000002145767
			vertex 4.4049286842346 1.9861996173859 0.60698997974396
			vertex 4.8279509544373 1.8750691413879 0.67115122079849
		endloop
	endfacet
	facet normal -2.5178741000951e-08 -0.49999981730283 -0.86602550926467
		outer loop
			vertex 7.9299998283386 1.9575370550156 0
			vertex 4.4049286842346 1.7161996364594 0.13933625817299
			vertex 3.9649999141693 1.753723859787 0.11767166107893
		endloop
	endfacet
	facet normal -5.7474639492879e-12 -0.50000009306795 -0.86602535005162
		outer loop
			vertex 7.9299998283386 1.9575370550156 0
			vertex 4.8279509544373 1.6050691604614 0.20349748432636
			vertex 4.4049286842346 1.7161996364594 0.13933625817299
		endloop
	endfacet
	facet normal -0 0.50000014351446 0.86602532092631
		outer loop
			vertex 4.2230000495911 2.1022295951843 0.54000002145767
			vertex 4.8279509544373 1.8750691413879 0.67115122079849
			vertex 7.9299998283386 2.1022295951843 0.54000002145767
		endloop
	endfacet
	facet normal -1.6727921303651e-08 -0.49999998268982 -0.86602541377847
		outer loop
			vertex 7.9299998283386 1.9575370550156 0
			vertex 5.2178111076355 1.4246029853821 0.30768966674805
			vertex 4.8279509544373 1.6050691604614 0.20349748432636
		endloop
	endfacet
	facet normal -2.3226272670035e-08 -0.49999995788644 -0.86602542809871
		outer loop
			vertex 7.9299998283386 1.9575370550156 0
			vertex 5.5595259666443 1.1817363500595 0.44790875911713
			vertex 5.2178111076355 1.4246029853821 0.30768966674805
		endloop
	endfacet
	facet normal 1.1321537632066e-08 0.50000002756132 0.8660253878719
		outer loop
			vertex 7.9299998283386 2.1022295951843 0.54000002145767
			vertex 4.8279509544373 1.8750691413879 0.67115122079849
			vertex 5.2178111076355 1.6946029663086 0.77534341812134
		endloop
	endfacet
	facet normal 5.246063265835e-09 -0.50000002313477 -0.86602539042757
		outer loop
			vertex 7.9299998283386 1.9575370550156 0
			vertex 7.9299998283386 0.27000001072884 0.97430002689362
			vertex 5.5595259666443 1.1817363500595 0.44790875911713
		endloop
	endfacet
	facet normal 1 0 -0
		outer loop
			vertex 7.9299998283386 2.1035263538361 0.25286063551903
			vertex 7.9299998283386 2.2275371551514 0.46765372157097
			vertex 7.9299998283386 1.9575370550156 0.53753465414047
		endloop
	endfacet
	facet normal 1 0 0
		outer loop
			vertex 7.9299998283386 2.1035263538361 0.25286063551903
			vertex 7.9299998283386 0.27000001072884 0.97430002689362
			vertex 7.9299998283386 1.9575370550156 0.26938223838806
		endloop
	endfacet
	facet normal 1 0 -0
		outer loop
			vertex 7.9299998283386 1.9575370550156 0
			vertex 7.9299998283386 1.9575370550156 0.26938223838806
			vertex 7.9299998283386 0.27000001072884 0.97430002689362
		endloop
	endfacet
	facet normal 1 0 0
		outer loop
			vertex 7.9299998283386 2.1035263538361 0.25286063551903
			vertex 7.9299998283386 1.9575370550156 0.53753465414047
			vertex 7.9299998283386 0.27000001072884 0.97430002689362
		endloop
	endfacet
	facet normal 2.4924700759156e-08 0.49999995967872 0.86602542706394
		outer loop
			vertex 7.9299998283386 2.1022295951843 0.54000002145767
			vertex 5.2178111076355 1.6946029663086 0.77534341812134
			vertex 5.5595259666443 1.451736330986 0.91556251049042
		endloop
	endfacet
	facet normal -4.3566894632028e-08 -0.5000001183184 -0.86602533547327
		outer loop
			vertex 7.9299998283386 0.27000001072884 0.97430002689362
			vertex 5.8399639129639 0.88580256700516 0.61876624822617
			vertex 5.5595259666443 1.1817363500595 0.44790875911713
		endloop
	endfacet
	facet normal 2.51764272135e-08 -0.4999999433321 -0.86602543650166
		outer loop
			vertex 7.9299998283386 0.27000001072884 0.97430002689362
			vertex 6.0483484268188 0.54817414283752 0.81369608640671
			vertex 5.8399639129639 0.88580256700516 0.61876624822617
		endloop
	endfacet
	facet normal -0 -0.50000007105765 -0.86602536275928
		outer loop
			vertex 7.9299998283386 0.27000001072884 0.97430002689362
			vertex 6.1457858085632 0.27000001072884 0.97430002689362
			vertex 6.0483484268188 0.54817414283752 0.81369608640671
		endloop
	endfacet
	facet normal 5.7587774253543e-08 0.50000007299199 0.86602536164249
		outer loop
			vertex 7.9299998283386 0.54000002145767 1.4419536590576
			vertex 5.5595259666443 1.451736330986 0.91556251049042
			vertex 5.8399639129639 1.1558026075363 1.0864199399948
		endloop
	endfacet
	facet normal -1.8063011936174e-08 0.49999988042273 0.8660254728224
		outer loop
			vertex 7.9299998283386 0.54000002145767 1.4419536590576
			vertex 5.8399639129639 1.1558026075363 1.0864199399948
			vertex 6.0483484268188 0.81817412376404 1.2813497781754
		endloop
	endfacet
	facet normal 0 -0.86602535542217 0.5000000837659
		outer loop
			vertex 7.9299998283386 0.54000002145767 1.4419536590576
			vertex 6.1457858085632 0.54000002145767 1.4419536590576
			vertex 6.1457858085632 0.27000001072884 0.97430002689362
		endloop
	endfacet
	facet normal 1.4328759454047e-08 0.49999998863836 0.86602541034409
		outer loop
			vertex 7.9299998283386 2.1022295951843 0.54000002145767
			vertex 5.5595259666443 1.451736330986 0.91556251049042
			vertex 7.9299998283386 0.54000002145767 1.4419536590576
		endloop
	endfacet
	facet normal 1 0 -0
		outer loop
			vertex 7.9299998283386 1.9575370550156 0.53753465414047
			vertex 7.9299998283386 1.9575370550156 0.54000002145767
			vertex 7.9299998283386 0.27000001072884 0.97430002689362
		endloop
	endfacet
	facet normal 1 0 0
		outer loop
			vertex 7.9299998283386 2.1022295951843 0.54000002145767
			vertex 7.9299998283386 0.54000002145767 1.4419536590576
			vertex 7.9299998283386 1.9575370550156 0.54000002145767
		endloop
	endfacet
	facet normal 1 0 0
		outer loop
			vertex 7.9299998283386 1.9575370550156 0.54000002145767
			vertex 7.9299998283386 0.54000002145767 1.4419536590576
			vertex 7.9299998283386 0.27000001072884 0.97430002689362
		endloop
	endfacet
	facet normal 0 -0.86602535542217 0.5000000837659
		outer loop
			vertex 7.9299998283386 0.27000001072884 0.97430002689362
			vertex 7.9299998283386 0.54000002145767 1.4419536590576
			vertex 6.1457858085632 0.27000001072884 0.97430002689362
		endloop
	endfacet
	facet normal 0 0.49999997206038 0.86602541991539
		outer loop
			vertex 7.9299998283386 0.54000002145767 1.4419536590576
			vertex 6.0483484268188 0.81817412376404 1.2813497781754
			vertex 6.1457858085632 0.54000002145767 1.4419536590576
		endloop
	endfacet
	facet normal 0.86936730757784 0 -0.49416645425894
		outer loop
			vertex 3.5450000762939 18.24903678894 0.25499999523163
			vertex 3.7070000171661 18.24903678894 0.54000002145767
			vertex 3.7070000171661 17.709037780762 0.54000002145767
		endloop
	endfacet
	facet normal 0 -1 0
		outer loop
			vertex 3.7219998836517 18.24903678894 0.25499999523163
			vertex 4.2080001831055 18.24903678894 0.25499999523163
			vertex 3.7219998836517 18.24903678894 0.54000002145767
		endloop
	endfacet
	facet normal 0 0 -1
		outer loop
			vertex 3.7070000171661 18.24903678894 0.54000002145767
			vertex 3.7219998836517 18.24903678894 0.54000002145767
			vertex 4.2230000495911 17.709037780762 0.54000002145767
		endloop
	endfacet
	facet normal 0 0 -1
		outer loop
			vertex 3.7070000171661 18.24903678894 0.54000002145767
			vertex 4.2230000495911 17.709037780762 0.54000002145767
			vertex 3.7070000171661 17.709037780762 0.54000002145767
		endloop
	endfacet
	facet normal -0 0 1
		outer loop
			vertex 3.5450000762939 18.24903678894 0.25499999523163
			vertex 3.9649999141693 1.8330103158951 0.25499999523163
			vertex 3.7219998836517 18.24903678894 0.25499999523163
		endloop
	endfacet
	facet normal 0.86936730757784 0 -0.49416645425894
		outer loop
			vertex 3.5450000762939 18.24903678894 0.25499999523163
			vertex 3.7070000171661 17.709037780762 0.54000002145767
			vertex 3.7070000171661 2.1022295951843 0.54000002145767
		endloop
	endfacet
	facet normal 0 0 1
		outer loop
			vertex 3.5450000762939 18.24903678894 0.25499999523163
			vertex 3.5450000762939 1.7852445840836 0.25499999523163
			vertex 3.9649999141693 1.8330103158951 0.25499999523163
		endloop
	endfacet
	facet normal 0.86936730757784 0 -0.49416645425894
		outer loop
			vertex 3.5450000762939 18.24903678894 0.25499999523163
			vertex 3.7070000171661 2.1022295951843 0.54000002145767
			vertex 3.5450000762939 1.7852445840836 0.25499999523163
		endloop
	endfacet
	facet normal 0.86936730757784 0 -0.49416645425894
		outer loop
			vertex 3.7070000171661 2.1022295951843 0.54000002145767
			vertex 3.7070000171661 1.9682133197784 0.54000002145767
			vertex 3.5450000762939 1.7852445840836 0.25499999523163
		endloop
	endfacet
	facet normal 0 0 -1
		outer loop
			vertex 3.7070000171661 2.1022295951843 0.54000002145767
			vertex 3.9649999141693 1.9975551366806 0.54000002145767
			vertex 3.7070000171661 1.9682133197784 0.54000002145767
		endloop
	endfacet
	facet normal 0 -1 0
		outer loop
			vertex 3.7219998836517 18.24903678894 0.54000002145767
			vertex 4.2080001831055 18.24903678894 0.25499999523163
			vertex 4.2080001831055 18.24903678894 0.54000002145767
		endloop
	endfacet
	facet normal -0.8693671628667 0 -0.49416670884338
		outer loop
			vertex 4.3766231536865 18.24903678894 0.26973721385002
			vertex 4.2230000495911 17.709037780762 0.54000002145767
			vertex 4.2230000495911 18.24903678894 0.54000002145767
		endloop
	endfacet
	facet normal 0 0 -1
		outer loop
			vertex 3.7219998836517 18.24903678894 0.54000002145767
			vertex 4.2080001831055 18.24903678894 0.54000002145767
			vertex 4.2230000495911 17.709037780762 0.54000002145767
		endloop
	endfacet
	facet normal 0 0 -1
		outer loop
			vertex 4.2080001831055 18.24903678894 0.54000002145767
			vertex 4.2230000495911 18.24903678894 0.54000002145767
			vertex 4.2230000495911 17.709037780762 0.54000002145767
		endloop
	endfacet
	facet normal -0 0 1
		outer loop
			vertex 3.7219998836517 18.24903678894 0.25499999523163
			vertex 3.9649999141693 1.8330103158951 0.25499999523163
			vertex 4.2080001831055 18.24903678894 0.25499999523163
		endloop
	endfacet
	facet normal -0 0 1
		outer loop
			vertex 4.2080001831055 18.24903678894 0.25499999523163
			vertex 3.9649999141693 1.8330103158951 0.25499999523163
			vertex 4.2240219116211 18.24903678894 0.25499999523163
		endloop
	endfacet
	facet normal -0 0 1
		outer loop
			vertex 4.2240219116211 18.24903678894 0.25499999523163
			vertex 3.9649999141693 1.8330103158951 0.25499999523163
			vertex 4.3850002288818 18.24903678894 0.25499999523163
		endloop
	endfacet
	facet normal -0.86936391906813 -1.2533852231414e-07 -0.49417241548117
		outer loop
			vertex 4.3850002288818 18.24903678894 0.25499999523163
			vertex 4.2230000495911 1.9682133197784 0.54000002145767
			vertex 4.3766231536865 18.24903678894 0.26973721385002
		endloop
	endfacet
	facet normal -0.8693671628667 0 -0.49416670884338
		outer loop
			vertex 4.3766231536865 18.24903678894 0.26973721385002
			vertex 4.2230000495911 2.1022295951843 0.54000002145767
			vertex 4.2230000495911 17.709037780762 0.54000002145767
		endloop
	endfacet
	facet normal 0 0 1
		outer loop
			vertex 4.3850002288818 18.24903678894 0.25499999523163
			vertex 3.9649999141693 1.8330103158951 0.25499999523163
			vertex 4.3850002288818 1.7852445840836 0.25499999523163
		endloop
	endfacet
	facet normal -0.86936699513171 -0 -0.49416700393253
		outer loop
			vertex 4.3850002288818 18.24903678894 0.25499999523163
			vertex 4.3850002288818 1.7852445840836 0.25499999523163
			vertex 4.2230000495911 1.9682133197784 0.54000002145767
		endloop
	endfacet
	facet normal -0.8693671628667 0 -0.49416670884338
		outer loop
			vertex 4.3766231536865 18.24903678894 0.26973721385002
			vertex 4.2230000495911 1.9682133197784 0.54000002145767
			vertex 4.2230000495911 2.1022295951843 0.54000002145767
		endloop
	endfacet
	facet normal 0 0 -1
		outer loop
			vertex 3.7070000171661 2.1022295951843 0.54000002145767
			vertex 4.2230000495911 2.1022295951843 0.54000002145767
			vertex 3.9649999141693 1.9975551366806 0.54000002145767
		endloop
	endfacet
	facet normal 0 -0 -1
		outer loop
			vertex 4.2230000495911 2.1022295951843 0.54000002145767
			vertex 4.2230000495911 1.9682133197784 0.54000002145767
			vertex 3.9649999141693 1.9975551366806 0.54000002145767
		endloop
	endfacet
	facet normal 0.88192136722286 -0.40824138414866 0.23569826962487
		outer loop
			vertex 1.8816516399384 0.81817412376404 1.2813497781754
			vertex 1.8816516399384 0.54817414283752 0.81369608640671
			vertex 2.0900359153748 1.1558026075363 1.0864199399948
		endloop
	endfacet
	facet normal 0.95694039288417 -0.25139374257702 0.14514224285098
		outer loop
			vertex 1.8816516399384 0.81817412376404 1.2813497781754
			vertex 1.7842143774033 0.27000001072884 0.97430002689362
			vertex 1.8816516399384 0.54817414283752 0.81369608640671
		endloop
	endfacet
	facet normal 0.95694037892324 -0.25139376748666 0.14514229175228
		outer loop
			vertex 1.7842143774033 0.54000002145767 1.4419536590576
			vertex 1.7842143774033 0.27000001072884 0.97430002689362
			vertex 1.8816516399384 0.81817412376404 1.2813497781754
		endloop
	endfacet
	facet normal 0.7730104549147 -0.54940071792996 0.31719660737564
		outer loop
			vertex 2.3704741001129 1.1817363500595 0.44790875911713
			vertex 2.3704741001129 1.451736330986 0.91556251049042
			vertex 2.0900359153748 0.88580256700516 0.61876624822617
		endloop
	endfacet
	facet normal 0.47139681579121 -0.76376620352325 0.44096057467486
		outer loop
			vertex 2.7121891975403 1.4246029853821 0.30768966674805
			vertex 3.1020488739014 1.6050691604614 0.20349748432636
			vertex 3.1020488739014 1.8750691413879 0.67115122079849
		endloop
	endfacet
	facet normal 0.63439313431142 -0.66944682025804 0.38650524703416
		outer loop
			vertex 2.3704741001129 1.1817363500595 0.44790875911713
			vertex 2.7121891975403 1.4246029853821 0.30768966674805
			vertex 2.7121891975403 1.6946029663086 0.77534341812134
		endloop
	endfacet
	facet normal 0.47139682890026 -0.76376620353917 0.44096056063343
		outer loop
			vertex 2.7121891975403 1.4246029853821 0.30768966674805
			vertex 3.1020488739014 1.8750691413879 0.67115122079849
			vertex 2.7121891975403 1.6946029663086 0.77534341812134
		endloop
	endfacet
	facet normal 0.29028458060527 -0.82873468223912 0.47847015446823
		outer loop
			vertex 3.5250713825226 1.7161996364594 0.13933625817299
			vertex 3.5250713825226 1.9861996173859 0.60698997974396
			vertex 3.1020488739014 1.6050691604614 0.20349748432636
		endloop
	endfacet
	facet normal 0.09801705236825 -0.861855236849 0.49759241167947
		outer loop
			vertex 3.5450000762939 1.7852445840836 0.25499999523163
			vertex 3.5250713825226 1.7161996364594 0.13933625817299
			vertex 3.9649999141693 1.8330103158951 0.25499999523163
		endloop
	endfacet
	facet normal 0.098017254024715 -0.8618555020892 0.49759191254685
		outer loop
			vertex 3.5250713825226 1.7161996364594 0.13933625817299
			vertex 3.9649999141693 1.753723859787 0.11767166107893
			vertex 3.9649999141693 1.8330103158951 0.25499999523163
		endloop
	endfacet
	facet normal 0.29028459603936 -0.82873468478612 0.47847014069293
		outer loop
			vertex 3.1020488739014 1.6050691604614 0.20349748432636
			vertex 3.5250713825226 1.9861996173859 0.60698997974396
			vertex 3.1020488739014 1.8750691413879 0.67115122079849
		endloop
	endfacet
	facet normal 0.098017618067185 -0.86185523085325 0.49759231063123
		outer loop
			vertex 3.5450000762939 1.7852445840836 0.25499999523163
			vertex 3.5250713825226 1.9861996173859 0.60698997974396
			vertex 3.5250713825226 1.7161996364594 0.13933625817299
		endloop
	endfacet
	facet normal 0.098017019454363 -0.86185529677203 0.49759231437321
		outer loop
			vertex 3.7070000171661 1.9682133197784 0.54000002145767
			vertex 3.5250713825226 1.9861996173859 0.60698997974396
			vertex 3.5450000762939 1.7852445840836 0.25499999523163
		endloop
	endfacet
	facet normal 0.0980172790633 -0.86185491878748 0.49759291792273
		outer loop
			vertex 3.7070000171661 1.9682133197784 0.54000002145767
			vertex 3.9649999141693 2.0237238407135 0.58532536029816
			vertex 3.5250713825226 1.9861996173859 0.60698997974396
		endloop
	endfacet
	facet normal 0.098016990665582 -0.86185438279451 0.49759390309644
		outer loop
			vertex 3.7070000171661 1.9682133197784 0.54000002145767
			vertex 3.9649999141693 1.9975551366806 0.54000002145767
			vertex 3.9649999141693 2.0237238407135 0.58532536029816
		endloop
	endfacet
	facet normal 0.88192134127479 -0.40824140365961 0.23569833292179
		outer loop
			vertex 1.8816516399384 0.54817414283752 0.81369608640671
			vertex 2.0900359153748 0.88580256700516 0.61876624822617
			vertex 2.0900359153748 1.1558026075363 1.0864199399948
		endloop
	endfacet
	facet normal 0.77301038078751 -0.54940074832597 0.31719673537667
		outer loop
			vertex 2.0900359153748 0.88580256700516 0.61876624822617
			vertex 2.3704741001129 1.451736330986 0.91556251049042
			vertex 2.0900359153748 1.1558026075363 1.0864199399948
		endloop
	endfacet
	facet normal 0.63439313431142 -0.66944682025804 0.38650524703416
		outer loop
			vertex 2.3704741001129 1.1817363500595 0.44790875911713
			vertex 2.7121891975403 1.6946029663086 0.77534341812134
			vertex 2.3704741001129 1.451736330986 0.91556251049042
		endloop
	endfacet
	facet normal -0.098016973968859 -0.86185552597686 0.49759192633838
		outer loop
			vertex 3.9649999141693 1.753723859787 0.11767166107893
			vertex 4.3850002288818 1.7852445840836 0.25499999523163
			vertex 3.9649999141693 1.8330103158951 0.25499999523163
		endloop
	endfacet
	facet normal -0.098017201414771 -0.86185514851791 0.49759253531376
		outer loop
			vertex 4.3850002288818 1.7852445840836 0.25499999523163
			vertex 3.9649999141693 1.753723859787 0.11767166107893
			vertex 4.4049286842346 1.7161996364594 0.13933625817299
		endloop
	endfacet
	facet normal -0.098018779456671 -0.86185513179022 0.49759225343717
		outer loop
			vertex 4.3850002288818 1.7852445840836 0.25499999523163
			vertex 4.4049286842346 1.7161996364594 0.13933625817299
			vertex 4.4049286842346 1.9861996173859 0.60698997974396
		endloop
	endfacet
	facet normal -0.098016998034061 -0.86185532795946 0.4975922645744
		outer loop
			vertex 4.3850002288818 1.7852445840836 0.25499999523163
			vertex 4.4049286842346 1.9861996173859 0.60698997974396
			vertex 4.2230000495911 1.9682133197784 0.54000002145767
		endloop
	endfacet
	facet normal -0.098016900958042 -0.86185439044619 0.49759390751416
		outer loop
			vertex 4.2230000495911 1.9682133197784 0.54000002145767
			vertex 3.9649999141693 2.0237238407135 0.58532536029816
			vertex 3.9649999141693 1.9975551366806 0.54000002145767
		endloop
	endfacet
	facet normal -0.098017226453373 -0.86185499538635 0.49759279561302
		outer loop
			vertex 4.2230000495911 1.9682133197784 0.54000002145767
			vertex 4.4049286842346 1.9861996173859 0.60698997974396
			vertex 3.9649999141693 2.0237238407135 0.58532536029816
		endloop
	endfacet
	facet normal -0.29028473042553 -0.82873464948208 0.47847012031013
		outer loop
			vertex 4.4049286842346 1.7161996364594 0.13933625817299
			vertex 4.8279509544373 1.6050691604614 0.20349748432636
			vertex 4.8279509544373 1.8750691413879 0.67115122079849
		endloop
	endfacet
	facet normal -0.29028474585963 -0.82873463882582 0.47847012940355
		outer loop
			vertex 4.8279509544373 1.8750691413879 0.67115122079849
			vertex 4.4049286842346 1.9861996173859 0.60698997974396
			vertex 4.4049286842346 1.7161996364594 0.13933625817299
		endloop
	endfacet
	facet normal -0.4713963673478 -0.76376641719183 0.44096068398583
		outer loop
			vertex 4.8279509544373 1.6050691604614 0.20349748432636
			vertex 5.2178111076355 1.4246029853821 0.30768966674805
			vertex 5.2178111076355 1.6946029663086 0.77534341812134
		endloop
	endfacet
	facet normal -0.47139638045684 -0.76376640503956 0.44096069102034
		outer loop
			vertex 4.8279509544373 1.6050691604614 0.20349748432636
			vertex 5.2178111076355 1.6946029663086 0.77534341812134
			vertex 4.8279509544373 1.8750691413879 0.67115122079849
		endloop
	endfacet
	facet normal -0.63439339879907 -0.66944663227908 0.38650513850447
		outer loop
			vertex 5.2178111076355 1.4246029853821 0.30768966674805
			vertex 5.5595259666443 1.1817363500595 0.44790875911713
			vertex 5.5595259666443 1.451736330986 0.91556251049042
		endloop
	endfacet
	facet normal -0.63439339879907 -0.66944663227908 0.38650513850447
		outer loop
			vertex 5.5595259666443 1.451736330986 0.91556251049042
			vertex 5.2178111076355 1.6946029663086 0.77534341812134
			vertex 5.2178111076355 1.4246029853821 0.30768966674805
		endloop
	endfacet
	facet normal -0.77301064527527 -0.54940051705094 0.31719649139811
		outer loop
			vertex 5.8399639129639 1.1558026075363 1.0864199399948
			vertex 5.5595259666443 1.451736330986 0.91556251049042
			vertex 5.5595259666443 1.1817363500595 0.44790875911713
		endloop
	endfacet
	facet normal -0.77301071940242 -0.5494003910008 0.31719652907484
		outer loop
			vertex 5.8399639129639 1.1558026075363 1.0864199399948
			vertex 5.5595259666443 1.1817363500595 0.44790875911713
			vertex 5.8399639129639 0.88580256700516 0.61876624822617
		endloop
	endfacet
	facet normal -0.88192114300103 -0.40824172490658 0.23569851839386
		outer loop
			vertex 6.0483484268188 0.81817412376404 1.2813497781754
			vertex 5.8399639129639 1.1558026075363 1.0864199399948
			vertex 5.8399639129639 0.88580256700516 0.61876624822617
		endloop
	endfacet
	facet normal -0.88192111705292 -0.40824178947884 0.23569850364235
		outer loop
			vertex 5.8399639129639 0.88580256700516 0.61876624822617
			vertex 6.0483484268188 0.54817414283752 0.81369608640671
			vertex 6.0483484268188 0.81817412376404 1.2813497781754
		endloop
	endfacet
	facet normal -0.95694029422947 -0.25139400927916 0.14514243135128
		outer loop
			vertex 6.1457858085632 0.27000001072884 0.97430002689362
			vertex 6.1457858085632 0.54000002145767 1.4419536590576
			vertex 6.0483484268188 0.54817414283752 0.81369608640671
		endloop
	endfacet
	facet normal -0.95694028026852 -0.25139406408381 0.145142428473
		outer loop
			vertex 6.0483484268188 0.81817412376404 1.2813497781754
			vertex 6.0483484268188 0.54817414283752 0.81369608640671
			vertex 6.1457858085632 0.54000002145767 1.4419536590576
		endloop
	endfacet
endsolid