solid csg_export
	facet normal -1 0 0
		outer loop
			vertex 2.6433498859406 -10.650250434875 -0.27000001072884
			vertex 2.6433498859406 -10.650250434875 0.27000001072884
			vertex 2.6433498859406 -1.3313000202179 -0.27000001072884
		endloop
	endfacet
	facet normal 0 0 -1
		outer loop
			vertex 2.6433498859406 -10.650250434875 -0.27000001072884
			vertex 2.6433498859406 -1.3313000202179 -0.27000001072884
			vertex 5.6171236038208 -1.3313000202179 -0.27000001072884
		endloop
	endfacet
	facet normal -1 0 0
		outer loop
			vertex 2.6433498859406 -10.650250434875 0.27000001072884
			vertex 2.6433498859406 -1.3313000202179 0.27000001072884
			vertex 2.6433498859406 -1.3313000202179 -0.27000001072884
		endloop
	endfacet
	facet normal 0 0 1
		outer loop
			vertex 2.6433498859406 -10.650250434875 0.27000001072884
			vertex 5.5376572608948 -1.011124253273 0.27000001072884
			vertex 2.6433498859406 -1.3313000202179 0.27000001072884
		endloop
	endfacet
	facet normal 0 -1 0
		outer loop
			vertex 2.6433498859406 -10.650250434875 -0.27000001072884
			vertex 7.9300498962402 -10.650250434875 -0.27000001072884
			vertex 2.6433498859406 -10.650250434875 0.27000001072884
		endloop
	endfacet
	facet normal 0 0 -1
		outer loop
			vertex 2.6433498859406 -10.650250434875 -0.27000001072884
			vertex 5.6171236038208 -1.3313000202179 -0.27000001072884
			vertex 7.9300498962402 -10.650250434875 -0.27000001072884
		endloop
	endfacet
	facet normal 0 0 1
		outer loop
			vertex 2.6433498859406 -10.650250434875 0.27000001072884
			vertex 7.9300498962402 -10.650250434875 0.27000001072884
			vertex 5.5376572608948 -1.011124253273 0.27000001072884
		endloop
	endfacet
	facet normal 0 0 1
		outer loop
			vertex 5.5376572608948 -1.011124253273 0.27000001072884
			vertex 2.6433498859406 -0.62376892566681 0.27000001072884
			vertex 2.6433498859406 -1.3313000202179 0.27000001072884
		endloop
	endfacet
	facet normal 0 0 1
		outer loop
			vertex 2.6433498859406 0.62376552820206 0.27000001072884
			vertex 2.6433498859406 0.27000001072884 0.27000001072884
			vertex 5.173912525177 0.45442846417427 0.27000001072884
		endloop
	endfacet
	facet normal 0 0 -1
		outer loop
			vertex 2.6433498859406 10.650250434875 -0.27000001072884
			vertex 5.0518789291382 0.94611084461212 -0.27000001072884
			vertex 2.6433498859406 1.3313000202179 -0.27000001072884
		endloop
	endfacet
	facet normal -1 0 0
		outer loop
			vertex 2.6433498859406 10.650250434875 -0.27000001072884
			vertex 2.6433498859406 1.3313000202179 -0.27000001072884
			vertex 2.6433498859406 1.3313000202179 0.27000001072884
		endloop
	endfacet
	facet normal 0 0 1
		outer loop
			vertex 2.6433498859406 10.650250434875 0.27000001072884
			vertex 2.6433498859406 1.3313000202179 0.27000001072884
			vertex 5.173912525177 0.45442846417427 0.27000001072884
		endloop
	endfacet
	facet normal -0 0 -1
		outer loop
			vertex 7.9299998283386 -0.27000001072884 -0.27000001072884
			vertex 5.3958020210266 -0.43958035111427 -0.27000001072884
			vertex 2.6433498859406 -0.27000001072884 -0.27000001072884
		endloop
	endfacet
	facet normal 0 0 1
		outer loop
			vertex 2.6433498859406 0.27000001072884 0.27000001072884
			vertex 7.9299998283386 0.27000001072884 0.27000001072884
			vertex 5.173912525177 0.45442846417427 0.27000001072884
		endloop
	endfacet
	facet normal -0 0 1
		outer loop
			vertex 2.6433498859406 -0.27000001072884 0.27000001072884
			vertex 5.5376572608948 -1.011124253273 0.27000001072884
			vertex 7.9299998283386 -0.27000001072884 0.27000001072884
		endloop
	endfacet
	facet normal 0 0 1
		outer loop
			vertex 2.6433498859406 10.650250434875 0.27000001072884
			vertex 5.173912525177 0.45442846417427 0.27000001072884
			vertex 7.9299998283386 0.27000001072884 0.27000001072884
		endloop
	endfacet
	facet normal 0 -1 0
		outer loop
			vertex 2.6433498859406 -10.650250434875 0.27000001072884
			vertex 7.9300498962402 -10.650250434875 -0.27000001072884
			vertex 7.9300498962402 -10.650250434875 0.27000001072884
		endloop
	endfacet
	facet normal 0 0 -1
		outer loop
			vertex 7.9300498962402 -10.650250434875 -0.27000001072884
			vertex 5.6171236038208 -1.3313000202179 -0.27000001072884
			vertex 7.9299998283386 -0.27000001072884 -0.27000001072884
		endloop
	endfacet
	facet normal 0 0 1
		outer loop
			vertex 7.9300498962402 -10.650250434875 0.27000001072884
			vertex 7.9299998283386 -0.27000001072884 0.27000001072884
			vertex 5.5376572608948 -1.011124253273 0.27000001072884
		endloop
	endfacet
	facet normal 1 0 0
		outer loop
			vertex 7.9300498962402 -10.650250434875 -0.27000001072884
			vertex 7.9300498962402 10.650250434875 -0.27000001072884
			vertex 7.9300498962402 -10.650250434875 0.27000001072884
		endloop
	endfacet
	facet normal 0 0 -1
		outer loop
			vertex 5.6171236038208 -1.3313000202179 -0.27000001072884
			vertex 5.3958020210266 -0.43958035111427 -0.27000001072884
			vertex 7.9299998283386 -0.27000001072884 -0.27000001072884
		endloop
	endfacet
	facet normal 0 0 -1
		outer loop
			vertex 5.0518789291382 0.94611084461212 -0.27000001072884
			vertex 7.9299998283386 0.27000001072884 -0.27000001072884
			vertex 5.2196869850159 0.27000001072884 -0.27000001072884
		endloop
	endfacet
	facet normal 0 0 -1
		outer loop
			vertex 7.9300498962402 -10.650250434875 -0.27000001072884
			vertex 7.9299998283386 -0.27000001072884 -0.27000001072884
			vertex 7.9300498962402 10.650250434875 -0.27000001072884
		endloop
	endfacet
	facet normal 0 -0 1
		outer loop
			vertex 7.9300498962402 -10.650250434875 0.27000001072884
			vertex 7.9300498962402 10.650250434875 0.27000001072884
			vertex 7.9299998283386 -0.27000001072884 0.27000001072884
		endloop
	endfacet
	facet normal 0 0 -1
		outer loop
			vertex 7.9300498962402 10.650250434875 -0.27000001072884
			vertex 7.9299998283386 0.27000001072884 -0.27000001072884
			vertex 5.0518789291382 0.94611084461212 -0.27000001072884
		endloop
	endfacet
	facet normal 0 0 -1
		outer loop
			vertex 7.9300498962402 10.650250434875 -0.27000001072884
			vertex 7.9299998283386 -0.27000001072884 -0.27000001072884
			vertex 7.9299998283386 0.27000001072884 -0.27000001072884
		endloop
	endfacet
	facet normal 1 -0 0
		outer loop
			vertex 7.9300498962402 -10.650250434875 0.27000001072884
			vertex 7.9300498962402 10.650250434875 -0.27000001072884
			vertex 7.9300498962402 10.650250434875 0.27000001072884
		endloop
	endfacet
	facet normal 0 0 1
		outer loop
			vertex 7.9300498962402 10.650250434875 0.27000001072884
			vertex 7.9299998283386 0.27000001072884 0.27000001072884
			vertex 7.9299998283386 -0.27000001072884 0.27000001072884
		endloop
	endfacet
	facet normal -1 0 0
		outer loop
			vertex 2.6433498859406 10.650250434875 -0.27000001072884
			vertex 2.6433498859406 1.3313000202179 0.27000001072884
			vertex 2.6433498859406 10.650250434875 0.27000001072884
		endloop
	endfacet
	facet normal 0 0 -1
		outer loop
			vertex 2.6433498859406 10.650250434875 -0.27000001072884
			vertex 7.9300498962402 10.650250434875 -0.27000001072884
			vertex 5.0518789291382 0.94611084461212 -0.27000001072884
		endloop
	endfacet
	facet normal 0 1 0
		outer loop
			vertex 2.6433498859406 10.650250434875 -0.27000001072884
			vertex 2.6433498859406 10.650250434875 0.27000001072884
			vertex 7.9300498962402 10.650250434875 0.27000001072884
		endloop
	endfacet
	facet normal -0 0 1
		outer loop
			vertex 2.6433498859406 10.650250434875 0.27000001072884
			vertex 7.9299998283386 0.27000001072884 0.27000001072884
			vertex 7.9300498962402 10.650250434875 0.27000001072884
		endloop
	endfacet
	facet normal 0 1 0
		outer loop
			vertex 2.6433498859406 10.650250434875 -0.27000001072884
			vertex 7.9300498962402 10.650250434875 0.27000001072884
			vertex 7.9300498962402 10.650250434875 -0.27000001072884
		endloop
	endfacet
	facet normal -1 0 0
		outer loop
			vertex -7.9299998283386 17.306600570679 -0.27000001072884
			vertex -7.9299998283386 17.306600570679 0.27000001072884
			vertex -7.9299998283386 19.969200134277 0.27000001072884
		endloop
	endfacet
	facet normal -1 0 0
		outer loop
			vertex -7.9299998283386 17.306600570679 -0.27000001072884
			vertex -7.9299998283386 19.969200134277 0.27000001072884
			vertex -7.9299998283386 19.969200134277 -0.27000001072884
		endloop
	endfacet
	facet normal 0 0 1
		outer loop
			vertex -7.9299998283386 17.306600570679 0.27000001072884
			vertex 5.2866997718811 19.969200134277 0.27000001072884
			vertex -7.9299998283386 19.969200134277 0.27000001072884
		endloop
	endfacet
	facet normal 0 1 0
		outer loop
			vertex -7.9299998283386 19.969200134277 -0.27000001072884
			vertex -7.9299998283386 19.969200134277 0.27000001072884
			vertex 5.2866997718811 19.969200134277 0
		endloop
	endfacet
	facet normal 0 -1 0
		outer loop
			vertex -7.9299998283386 17.306600570679 -0.27000001072884
			vertex 7.9299998283386 17.306600570679 -0.27000001072884
			vertex -7.9299998283386 17.306600570679 0.27000001072884
		endloop
	endfacet
	facet normal 0 0 -1
		outer loop
			vertex -7.9299998283386 17.306600570679 -0.27000001072884
			vertex -7.9299998283386 19.969200134277 -0.27000001072884
			vertex 7.9299998283386 17.306600570679 -0.27000001072884
		endloop
	endfacet
	facet normal 0 0 1
		outer loop
			vertex -7.9299998283386 17.306600570679 0.27000001072884
			vertex 5.2866997718811 17.491384506226 0.27000001072884
			vertex 5.2866997718811 19.969200134277 0.27000001072884
		endloop
	endfacet
	facet normal 0 0 1
		outer loop
			vertex -7.9299998283386 17.306600570679 0.27000001072884
			vertex 5.8267002105713 17.491384506226 0.27000001072884
			vertex 5.2866997718811 17.491384506226 0.27000001072884
		endloop
	endfacet
	facet normal -0 1 0
		outer loop
			vertex -7.9299998283386 19.969200134277 0.27000001072884
			vertex 5.2866997718811 19.969200134277 0.27000001072884
			vertex 5.2866997718811 19.969200134277 0
		endloop
	endfacet
	facet normal 0 1 0
		outer loop
			vertex -7.9299998283386 19.969200134277 -0.27000001072884
			vertex 5.2866997718811 19.969200134277 0
			vertex 5.8267002105713 19.969200134277 0
		endloop
	endfacet
	facet normal 0 -1 0
		outer loop
			vertex -7.9299998283386 17.306600570679 0.27000001072884
			vertex 7.9299998283386 17.306600570679 -0.27000001072884
			vertex 7.9299998283386 17.306600570679 0.27000001072884
		endloop
	endfacet
	facet normal 0 0 1
		outer loop
			vertex -7.9299998283386 17.306600570679 0.27000001072884
			vertex 7.9299998283386 17.306600570679 0.27000001072884
			vertex 5.8267002105713 17.491384506226 0.27000001072884
		endloop
	endfacet
	facet normal 0 1 0
		outer loop
			vertex -7.9299998283386 19.969200134277 -0.27000001072884
			vertex 5.8267002105713 19.969200134277 0
			vertex 7.9299998283386 19.969200134277 -0.27000001072884
		endloop
	endfacet
	facet normal 0 0 -1
		outer loop
			vertex -7.9299998283386 19.969200134277 -0.27000001072884
			vertex 7.9299998283386 19.969200134277 -0.27000001072884
			vertex 7.9299998283386 17.306600570679 -0.27000001072884
		endloop
	endfacet
	facet normal 0 0 1
		outer loop
			vertex 5.8267002105713 17.491384506226 0.27000001072884
			vertex 7.9299998283386 19.969200134277 0.27000001072884
			vertex 5.8267002105713 19.969200134277 0.27000001072884
		endloop
	endfacet
	facet normal 0 1 0
		outer loop
			vertex 5.8267002105713 19.969200134277 0
			vertex 5.8267002105713 19.969200134277 0.27000001072884
			vertex 7.9299998283386 19.969200134277 0.27000001072884
		endloop
	endfacet
	facet normal -0 0 1
		outer loop
			vertex 5.8267002105713 17.491384506226 0.27000001072884
			vertex 7.9299998283386 17.306600570679 0.27000001072884
			vertex 7.9299998283386 19.969200134277 0.27000001072884
		endloop
	endfacet
	facet normal 1 0 0
		outer loop
			vertex 7.9299998283386 17.306600570679 -0.27000001072884
			vertex 7.9299998283386 19.969200134277 -0.27000001072884
			vertex 7.9299998283386 17.306600570679 0.27000001072884
		endloop
	endfacet
	facet normal 1 -0 0
		outer loop
			vertex 7.9299998283386 17.306600570679 0.27000001072884
			vertex 7.9299998283386 19.969200134277 -0.27000001072884
			vertex 7.9299998283386 19.969200134277 0.27000001072884
		endloop
	endfacet
	facet normal -0 1 0
		outer loop
			vertex 5.8267002105713 19.969200134277 0
			vertex 7.9299998283386 19.969200134277 0.27000001072884
			vertex 7.9299998283386 19.969200134277 -0.27000001072884
		endloop
	endfacet
	facet normal 0 0 -1
		outer loop
			vertex 5.2866997718811 19.969200134277 0
			vertex 5.2866997718811 21.300500869751 0
			vertex 5.8267002105713 19.969200134277 0
		endloop
	endfacet
	facet normal 0 0 -1
		outer loop
			vertex 5.2866997718811 21.300500869751 0
			vertex 5.8267002105713 21.300500869751 0
			vertex 5.8267002105713 19.969200134277 0
		endloop
	endfacet
	facet normal 1 0 0
		outer loop
			vertex 5.8267002105713 19.969200134277 0
			vertex 5.8267002105713 21.300500869751 0
			vertex 5.8267002105713 19.969200134277 0.27000001072884
		endloop
	endfacet
	facet normal 0 -0.86602534744576 0.50000009758144
		outer loop
			vertex 5.2866997718811 17.491384506226 0.27000001072884
			vertex 5.8267002105713 17.491384506226 0.27000001072884
			vertex 5.8267002105713 21.300500869751 6.8675813674927
		endloop
	endfacet
	facet normal -1 0 0
		outer loop
			vertex 5.2866997718811 17.491384506226 0.27000001072884
			vertex 5.2866997718811 21.300500869751 6.8675813674927
			vertex 5.2866997718811 19.969200134277 0.27000001072884
		endloop
	endfacet
	facet normal -1 0 0
		outer loop
			vertex 5.2866997718811 19.969200134277 0
			vertex 5.2866997718811 19.969200134277 0.27000001072884
			vertex 5.2866997718811 21.300500869751 6.8675813674927
		endloop
	endfacet
	facet normal -1 0 0
		outer loop
			vertex 5.2866997718811 19.969200134277 0
			vertex 5.2866997718811 21.300500869751 6.8675813674927
			vertex 5.2866997718811 21.300500869751 0
		endloop
	endfacet
	facet normal 1 0 0
		outer loop
			vertex 5.8267002105713 17.491384506226 0.27000001072884
			vertex 5.8267002105713 19.969200134277 0.27000001072884
			vertex 5.8267002105713 21.300500869751 6.8675813674927
		endloop
	endfacet
	facet normal 0 1 0
		outer loop
			vertex 5.2866997718811 21.300500869751 0
			vertex 5.2866997718811 21.300500869751 6.8675813674927
			vertex 5.8267002105713 21.300500869751 0
		endloop
	endfacet
	facet normal 1 -0 0
		outer loop
			vertex 5.8267002105713 19.969200134277 0.27000001072884
			vertex 5.8267002105713 21.300500869751 0
			vertex 5.8267002105713 21.300500869751 6.8675813674927
		endloop
	endfacet
	facet normal 0 -0.86602534744576 0.50000009758144
		outer loop
			vertex 5.2866997718811 17.491384506226 0.27000001072884
			vertex 5.8267002105713 21.300500869751 6.8675813674927
			vertex 5.2866997718811 21.300500869751 6.8675813674927
		endloop
	endfacet
	facet normal 0 1 -0
		outer loop
			vertex 5.8267002105713 21.300500869751 0
			vertex 5.2866997718811 21.300500869751 6.8675813674927
			vertex 5.8267002105713 21.300500869751 6.8675813674927
		endloop
	endfacet
	facet normal 0 0 -1
		outer loop
			vertex 10.033399581909 17.335500717163 0
			vertex 10.033399581909 21.300500869751 0
			vertex 10.573399543762 17.335500717163 0
		endloop
	endfacet
	facet normal 0 0 -1
		outer loop
			vertex 10.573399543762 17.335500717163 0
			vertex 10.033399581909 21.300500869751 0
			vertex 10.573399543762 21.300500869751 0
		endloop
	endfacet
	facet normal 0 -0.86602539278797 0.50000001904644
		outer loop
			vertex 10.033399581909 17.335500717163 0
			vertex 10.573399543762 17.335500717163 0
			vertex 10.573399543762 21.300500869751 6.8675813674927
		endloop
	endfacet
	facet normal -1 0 0
		outer loop
			vertex 10.033399581909 17.335500717163 0
			vertex 10.033399581909 21.300500869751 6.8675813674927
			vertex 10.033399581909 21.300500869751 0
		endloop
	endfacet
	facet normal 1 0 0
		outer loop
			vertex 10.573399543762 17.335500717163 0
			vertex 10.573399543762 21.300500869751 0
			vertex 10.573399543762 21.300500869751 6.8675813674927
		endloop
	endfacet
	facet normal 0 1 0
		outer loop
			vertex 10.033399581909 21.300500869751 0
			vertex 10.033399581909 21.300500869751 6.8675813674927
			vertex 10.573399543762 21.300500869751 0
		endloop
	endfacet
	facet normal 0 -0.86602539278797 0.50000001904644
		outer loop
			vertex 10.033399581909 17.335500717163 0
			vertex 10.573399543762 21.300500869751 6.8675813674927
			vertex 10.033399581909 21.300500869751 6.8675813674927
		endloop
	endfacet
	facet normal 0 1 -0
		outer loop
			vertex 10.573399543762 21.300500869751 0
			vertex 10.033399581909 21.300500869751 6.8675813674927
			vertex 10.573399543762 21.300500869751 6.8675813674927
		endloop
	endfacet
	facet normal -1 0 0
		outer loop
			vertex -7.9299998283386 -1.3313000202179 -0.27000001072884
			vertex -7.9299998283386 -1.3313000202179 0.27000001072884
			vertex -7.9299998283386 1.3313000202179 0.27000001072884
		endloop
	endfacet
	facet normal -1 0 0
		outer loop
			vertex -7.9299998283386 -1.3313000202179 -0.27000001072884
			vertex -7.9299998283386 1.3313000202179 0.27000001072884
			vertex -7.9299998283386 1.3313000202179 -0.27000001072884
		endloop
	endfacet
	facet normal 0 0 -1
		outer loop
			vertex -7.9299998283386 -1.3313000202179 -0.27000001072884
			vertex -7.9299998283386 1.3313000202179 -0.27000001072884
			vertex 0 -0.27000001072884 -0.27000001072884
		endloop
	endfacet
	facet normal 0 0 1
		outer loop
			vertex -7.9299998283386 -1.3313000202179 0.27000001072884
			vertex 0 0.27000001072884 0.27000001072884
			vertex -7.9299998283386 1.3313000202179 0.27000001072884
		endloop
	endfacet
	facet normal 0 -1 0
		outer loop
			vertex -7.9299998283386 -1.3313000202179 -0.27000001072884
			vertex 2.6433498859406 -1.3313000202179 -0.27000001072884
			vertex -7.9299998283386 -1.3313000202179 0.27000001072884
		endloop
	endfacet
	facet normal 0 1 0
		outer loop
			vertex -7.9299998283386 1.3313000202179 -0.27000001072884
			vertex -7.9299998283386 1.3313000202179 0.27000001072884
			vertex 2.6433498859406 1.3313000202179 0.27000001072884
		endloop
	endfacet
	facet normal 0 0 -1
		outer loop
			vertex -7.9299998283386 1.3313000202179 -0.27000001072884
			vertex 0 0.27000001072884 -0.27000001072884
			vertex 0 -0.27000001072884 -0.27000001072884
		endloop
	endfacet
	facet normal 0 0 1
		outer loop
			vertex -7.9299998283386 -1.3313000202179 0.27000001072884
			vertex 0 -0.27000001072884 0.27000001072884
			vertex 0 0.27000001072884 0.27000001072884
		endloop
	endfacet
	facet normal 0 0 1
		outer loop
			vertex -7.9299998283386 -1.3313000202179 0.27000001072884
			vertex 2.6433498859406 -1.3313000202179 0.27000001072884
			vertex 0 -0.27000001072884 0.27000001072884
		endloop
	endfacet
	facet normal 0 0 -1
		outer loop
			vertex -7.9299998283386 -1.3313000202179 -0.27000001072884
			vertex 0 -0.27000001072884 -0.27000001072884
			vertex 2.6433498859406 -0.27000001072884 -0.27000001072884
		endloop
	endfacet
	facet normal 0 0 -1
		outer loop
			vertex -7.9299998283386 1.3313000202179 -0.27000001072884
			vertex 2.6433498859406 1.3313000202179 -0.27000001072884
			vertex 0 0.27000001072884 -0.27000001072884
		endloop
	endfacet
	facet normal 0 0 1
		outer loop
			vertex -7.9299998283386 1.3313000202179 0.27000001072884
			vertex 0 0.27000001072884 0.27000001072884
			vertex 2.6433498859406 0.62376552820206 0.27000001072884
		endloop
	endfacet
	facet normal 0 0 -1
		outer loop
			vertex -7.9299998283386 -1.3313000202179 -0.27000001072884
			vertex 5.3958020210266 -0.43958035111427 -0.27000001072884
			vertex 2.6433498859406 -1.3313000202179 -0.27000001072884
		endloop
	endfacet
	facet normal 0 0 -1
		outer loop
			vertex -7.9299998283386 -1.3313000202179 -0.27000001072884
			vertex 2.6433498859406 -0.27000001072884 -0.27000001072884
			vertex 5.3958020210266 -0.43958035111427 -0.27000001072884
		endloop
	endfacet
	facet normal 0 -1 0
		outer loop
			vertex -7.9299998283386 -1.3313000202179 0.27000001072884
			vertex 2.6433498859406 -1.3313000202179 -0.27000001072884
			vertex 2.6433498859406 -1.3313000202179 0.27000001072884
		endloop
	endfacet
	facet normal -0 0 1
		outer loop
			vertex -7.9299998283386 1.3313000202179 0.27000001072884
			vertex 2.6433498859406 0.62376552820206 0.27000001072884
			vertex 2.6433498859406 1.3313000202179 0.27000001072884
		endloop
	endfacet
	facet normal 0 1 0
		outer loop
			vertex -7.9299998283386 1.3313000202179 -0.27000001072884
			vertex 2.6433498859406 1.3313000202179 0.27000001072884
			vertex 2.6433498859406 1.3313000202179 -0.27000001072884
		endloop
	endfacet
	facet normal 0 0 1
		outer loop
			vertex 0 -0.27000001072884 0.27000001072884
			vertex 2.6433498859406 -1.3313000202179 0.27000001072884
			vertex 2.6433498859406 -0.62376892566681 0.27000001072884
		endloop
	endfacet
	facet normal -0 0 1
		outer loop
			vertex 0 -0.27000001072884 0.27000001072884
			vertex 2.6433498859406 -0.62376892566681 0.27000001072884
			vertex 2.6433498859406 -0.27000001072884 0.27000001072884
		endloop
	endfacet
	facet normal 0 0 1
		outer loop
			vertex 0 0.27000001072884 0.27000001072884
			vertex 2.6433498859406 0.27000001072884 0.27000001072884
			vertex 2.6433498859406 0.62376552820206 0.27000001072884
		endloop
	endfacet
	facet normal 0 0 -1
		outer loop
			vertex 0 0.27000001072884 -0.27000001072884
			vertex 2.6433498859406 1.3313000202179 -0.27000001072884
			vertex 5.0518789291382 0.94611084461212 -0.27000001072884
		endloop
	endfacet
	facet normal 0 0 -1
		outer loop
			vertex 0 0.27000001072884 -0.27000001072884
			vertex 5.0518789291382 0.94611084461212 -0.27000001072884
			vertex 5.2196869850159 0.27000001072884 -0.27000001072884
		endloop
	endfacet
	facet normal -0 0 1
		outer loop
			vertex 2.6433498859406 -0.62376892566681 0.27000001072884
			vertex 5.5376572608948 -1.011124253273 0.27000001072884
			vertex 2.6433498859406 -0.27000001072884 0.27000001072884
		endloop
	endfacet
	facet normal -0 0 1
		outer loop
			vertex 2.6433498859406 0.62376552820206 0.27000001072884
			vertex 5.173912525177 0.45442846417427 0.27000001072884
			vertex 2.6433498859406 1.3313000202179 0.27000001072884
		endloop
	endfacet
	facet normal 0 0 -1
		outer loop
			vertex 5.6171236038208 -1.3313000202179 -0.27000001072884
			vertex 2.6433498859406 -1.3313000202179 -0.27000001072884
			vertex 5.3958020210266 -0.43958035111427 -0.27000001072884
		endloop
	endfacet
	facet normal -1 0 0
		outer loop
			vertex 0 -0.27000001072884 -8.1470003128052
			vertex 0 -0.27000001072884 -0.27000001072884
			vertex 0 0.27000001072884 -8.1470003128052
		endloop
	endfacet
	facet normal -1 0 0
		outer loop
			vertex 0 -0.27000001072884 -0.27000001072884
			vertex 0 0.27000001072884 -0.27000001072884
			vertex 0 0.27000001072884 -8.1470003128052
		endloop
	endfacet
	facet normal 0 -1 0
		outer loop
			vertex 0 -0.27000001072884 -8.1470003128052
			vertex 2.6433498859406 -0.27000001072884 -0.27000001072884
			vertex 0 -0.27000001072884 -0.27000001072884
		endloop
	endfacet
	facet normal -1 0 0
		outer loop
			vertex 0 -0.27000001072884 0.27000001072884
			vertex 0 -0.27000001072884 8.1470003128052
			vertex 0 0.27000001072884 0.27000001072884
		endloop
	endfacet
	facet normal 0 1 0
		outer loop
			vertex 0 0.27000001072884 0.27000001072884
			vertex 0 0.27000001072884 8.1470003128052
			vertex 2.6433498859406 0.27000001072884 0.27000001072884
		endloop
	endfacet
	facet normal -1 0 0
		outer loop
			vertex 0 -0.27000001072884 8.1470003128052
			vertex 0 0.27000001072884 8.1470003128052
			vertex 0 0.27000001072884 0.27000001072884
		endloop
	endfacet
	facet normal 0 0 -1
		outer loop
			vertex 0 -0.27000001072884 -8.1470003128052
			vertex 0 0.27000001072884 -8.1470003128052
			vertex 7.9299998283386 -0.27000001072884 -8.1470003128052
		endloop
	endfacet
	facet normal 0 1 0
		outer loop
			vertex 0 0.27000001072884 -8.1470003128052
			vertex 0 0.27000001072884 -0.27000001072884
			vertex 7.9299998283386 0.27000001072884 -8.1470003128052
		endloop
	endfacet
	facet normal 0 -1 0
		outer loop
			vertex 0 -0.27000001072884 -8.1470003128052
			vertex 7.9299998283386 -0.27000001072884 -0.27000001072884
			vertex 2.6433498859406 -0.27000001072884 -0.27000001072884
		endloop
	endfacet
	facet normal 0 0 -1
		outer loop
			vertex 7.9299998283386 -0.27000001072884 -8.1470003128052
			vertex 0 0.27000001072884 -8.1470003128052
			vertex 7.9299998283386 0.27000001072884 -8.1470003128052
		endloop
	endfacet
	facet normal 0 -1 0
		outer loop
			vertex 0 -0.27000001072884 -8.1470003128052
			vertex 7.9299998283386 -0.27000001072884 -8.1470003128052
			vertex 7.9299998283386 -0.27000001072884 -0.27000001072884
		endloop
	endfacet
	facet normal -0 1 0
		outer loop
			vertex 0 0.27000001072884 -0.27000001072884
			vertex 5.2196869850159 0.27000001072884 -0.27000001072884
			vertex 7.9299998283386 0.27000001072884 -8.1470003128052
		endloop
	endfacet
	facet normal 0 -1 0
		outer loop
			vertex 0 -0.27000001072884 0.27000001072884
			vertex 2.6433498859406 -0.27000001072884 0.27000001072884
			vertex 7.9299998283386 -0.27000001072884 8.1470003128052
		endloop
	endfacet
	facet normal 0 1 0
		outer loop
			vertex 0 0.27000001072884 8.1470003128052
			vertex 7.9299998283386 0.27000001072884 0.27000001072884
			vertex 2.6433498859406 0.27000001072884 0.27000001072884
		endloop
	endfacet
	facet normal 1 0 0
		outer loop
			vertex 7.9299998283386 -0.27000001072884 -8.1470003128052
			vertex 7.9299998283386 0.27000001072884 -8.1470003128052
			vertex 7.9299998283386 0.27000001072884 -0.27000001072884
		endloop
	endfacet
	facet normal 0 1 -0
		outer loop
			vertex 7.9299998283386 0.27000001072884 -8.1470003128052
			vertex 5.2196869850159 0.27000001072884 -0.27000001072884
			vertex 7.9299998283386 0.27000001072884 -0.27000001072884
		endloop
	endfacet
	facet normal 1 0 0
		outer loop
			vertex 7.9299998283386 -0.27000001072884 -8.1470003128052
			vertex 7.9299998283386 0.27000001072884 -0.27000001072884
			vertex 7.9299998283386 -0.27000001072884 -0.27000001072884
		endloop
	endfacet
	facet normal 0 -1 -0
		outer loop
			vertex 7.9299998283386 -0.27000001072884 8.1470003128052
			vertex 2.6433498859406 -0.27000001072884 0.27000001072884
			vertex 7.9299998283386 -0.27000001072884 0.27000001072884
		endloop
	endfacet
	facet normal 1 0 0
		outer loop
			vertex 7.9299998283386 0.27000001072884 8.1470003128052
			vertex 7.9299998283386 -0.27000001072884 0.27000001072884
			vertex 7.9299998283386 0.27000001072884 0.27000001072884
		endloop
	endfacet
	facet normal 0 -1 0
		outer loop
			vertex 0 -0.27000001072884 0.27000001072884
			vertex 7.9299998283386 -0.27000001072884 8.1470003128052
			vertex 0 -0.27000001072884 8.1470003128052
		endloop
	endfacet
	facet normal 0 0 1
		outer loop
			vertex 0 -0.27000001072884 8.1470003128052
			vertex 7.9299998283386 -0.27000001072884 8.1470003128052
			vertex 0 0.27000001072884 8.1470003128052
		endloop
	endfacet
	facet normal -0 1 0
		outer loop
			vertex 0 0.27000001072884 8.1470003128052
			vertex 7.9299998283386 0.27000001072884 8.1470003128052
			vertex 7.9299998283386 0.27000001072884 0.27000001072884
		endloop
	endfacet
	facet normal 0 -0 1
		outer loop
			vertex 7.9299998283386 -0.27000001072884 8.1470003128052
			vertex 7.9299998283386 0.27000001072884 8.1470003128052
			vertex 0 0.27000001072884 8.1470003128052
		endloop
	endfacet
	facet normal 1 -0 0
		outer loop
			vertex 7.9299998283386 -0.27000001072884 8.1470003128052
			vertex 7.9299998283386 -0.27000001072884 0.27000001072884
			vertex 7.9299998283386 0.27000001072884 8.1470003128052
		endloop
	endfacet
	facet normal -1 0 0
		outer loop
			vertex 0 -0.72097682952881 15.585231781006
			vertex 0 0.72097682952881 17.002769470215
			vertex 0 -0.25332313776016 15.315231323242
		endloop
	endfacet
	facet normal -1 0 0
		outer loop
			vertex 0 -0.72097682952881 15.585231781006
			vertex 0 0.25332313776016 17.27276802063
			vertex 0 0.72097682952881 17.002769470215
		endloop
	endfacet
	facet normal 0 0.86602554514422 -0.49999975515759
		outer loop
			vertex 0 -0.25332313776016 15.315231323242
			vertex 0 0.72097682952881 17.002769470215
			vertex 6.2692885398865 0.72097682952881 17.002769470215
		endloop
	endfacet
	facet normal 0 0.49999800775271 0.86602655400589
		outer loop
			vertex 0 0.25332313776016 17.27276802063
			vertex 6.2692885398865 0.72097682952881 17.002769470215
			vertex 0 0.72097682952881 17.002769470215
		endloop
	endfacet
	facet normal 0 -0.50000065685172 -0.86602502455059
		outer loop
			vertex 0 -0.72097682952881 15.585231781006
			vertex 0 -0.25332313776016 15.315231323242
			vertex 7.9299998283386 -0.72097682952881 15.585231781006
		endloop
	endfacet
	facet normal 0 -0.8660253004367 0.50000017900349
		outer loop
			vertex 0 -0.72097682952881 15.585231781006
			vertex 7.9299998283386 -0.72097682952881 15.585231781006
			vertex 0 0.25332313776016 17.27276802063
		endloop
	endfacet
	facet normal 0 -0.86602099170281 0.50000764187168
		outer loop
			vertex 0 0.25332313776016 17.27276802063
			vertex 6.3354740142822 0.21299937367439 17.202926635742
			vertex 6.2692885398865 0.25332313776016 17.27276802063
		endloop
	endfacet
	facet normal -7.5248801030872e-07 0.86602675564128 -0.49999765850738
		outer loop
			vertex 0 -0.25332313776016 15.315231323242
			vertex 6.2692885398865 0.72097682952881 17.002769470215
			vertex 6.3354740142822 0.68065309524536 16.932926177979
		endloop
	endfacet
	facet normal -0 0.49999800775271 0.86602655400589
		outer loop
			vertex 0 0.25332313776016 17.27276802063
			vertex 6.2692885398865 0.25332313776016 17.27276802063
			vertex 6.2692885398865 0.72097682952881 17.002769470215
		endloop
	endfacet
	facet normal 6.2284706897341e-08 0.86602537392591 -0.50000005171649
		outer loop
			vertex 0 -0.25332313776016 15.315231323242
			vertex 6.3354740142822 0.68065309524536 16.932926177979
			vertex 6.6771893501282 0.54043400287628 16.690059661865
		endloop
	endfacet
	facet normal -5.2978566246132e-07 0.86602661906623 -0.49999789506401
		outer loop
			vertex 0 -0.25332313776016 15.315231323242
			vertex 6.6771893501282 0.54043400287628 16.690059661865
			vertex 7.0670490264893 0.43624180555344 16.509592056274
		endloop
	endfacet
	facet normal -1.5631084818112e-07 -0.86602713152556 0.49999700745264
		outer loop
			vertex 0 0.25332313776016 17.27276802063
			vertex 6.6771893501282 0.072780281305313 16.96005821228
			vertex 6.3354740142822 0.21299937367439 17.202926635742
		endloop
	endfacet
	facet normal 9.974350537004e-08 -0.8660247640565 0.50000110803964
		outer loop
			vertex 7.0670490264893 -0.031411901116371 16.779592514038
			vertex 6.6771893501282 0.072780281305313 16.96005821228
			vertex 0 0.25332313776016 17.27276802063
		endloop
	endfacet
	facet normal 0 -0.50000065685172 -0.86602502455059
		outer loop
			vertex 0 -0.25332313776016 15.315231323242
			vertex 7.9299998283386 -0.25332313776016 15.315231323242
			vertex 7.9299998283386 -0.72097682952881 15.585231781006
		endloop
	endfacet
	facet normal 0 0.86602539041638 -0.50000002315416
		outer loop
			vertex 0 -0.25332313776016 15.315231323242
			vertex 7.4900712966919 0.37208059430122 16.398462295532
			vertex 7.9299998283386 -0.25332313776016 15.315231323242
		endloop
	endfacet
	facet normal 2.9802661023491e-07 0.86602449809507 -0.50000156869664
		outer loop
			vertex 0 -0.25332313776016 15.315231323242
			vertex 7.0670490264893 0.43624180555344 16.509592056274
			vertex 7.4900712966919 0.37208059430122 16.398462295532
		endloop
	endfacet
	facet normal 3.1854997965485e-07 -0.86602340637033 0.50000345960666
		outer loop
			vertex 7.0670490264893 -0.031411901116371 16.779592514038
			vertex 0 0.25332313776016 17.27276802063
			vertex 7.4900712966919 -0.095573134720325 16.668462753296
		endloop
	endfacet
	facet normal -5.5341363472741e-08 -0.86602541304504 0.49999998396016
		outer loop
			vertex 7.9299998283386 -0.72097682952881 15.585231781006
			vertex 7.4900712966919 -0.095573134720325 16.668462753296
			vertex 0 0.25332313776016 17.27276802063
		endloop
	endfacet
	facet normal 1 -0 0
		outer loop
			vertex 7.9299998283386 -0.72097682952881 15.585231781006
			vertex 7.9299998283386 -0.25332313776016 15.315231323242
			vertex 7.9299998283386 -0.11723773181438 16.630937576294
		endloop
	endfacet
	facet normal 1.1704942178826e-06 -0.8660251974716 0.50000035734278
		outer loop
			vertex 7.9299998283386 -0.72097682952881 15.585231781006
			vertex 7.9299998283386 -0.11723773181438 16.630937576294
			vertex 7.4900712966919 -0.095573134720325 16.668462753296
		endloop
	endfacet
	facet normal 1.1180369916082e-06 0.86602558703133 -0.49999968260569
		outer loop
			vertex 7.9299998283386 -0.25332313776016 15.315231323242
			vertex 7.4900712966919 0.37208059430122 16.398462295532
			vertex 7.9299998283386 0.35041597485542 16.360939025879
		endloop
	endfacet
	facet normal 1 0 0
		outer loop
			vertex 7.9299998283386 -0.25332313776016 15.315231323242
			vertex 7.9299998283386 0.35041597485542 16.360939025879
			vertex 7.9299998283386 -0.11723773181438 16.630937576294
		endloop
	endfacet
	facet normal 0.77301314826934 0.31719373633635 0.54939858593894
		outer loop
			vertex 6.2692885398865 0.25332313776016 17.27276802063
			vertex 6.3354740142822 0.68065309524536 16.932926177979
			vertex 6.2692885398865 0.72097682952881 17.002769470215
		endloop
	endfacet
	facet normal 0.77300683376453 0.31719924886012 0.54940428782083
		outer loop
			vertex 6.3354740142822 0.21299937367439 17.202926635742
			vertex 6.3354740142822 0.68065309524536 16.932926177979
			vertex 6.2692885398865 0.25332313776016 17.27276802063
		endloop
	endfacet
	facet normal 0.63439273027283 0.38650594324474 0.6694468011825
		outer loop
			vertex 6.3354740142822 0.21299937367439 17.202926635742
			vertex 6.6771893501282 0.54043400287628 16.690059661865
			vertex 6.3354740142822 0.68065309524536 16.932926177979
		endloop
	endfacet
	facet normal 0.63439496308371 0.38650297925441 0.66944639654082
		outer loop
			vertex 6.6771893501282 0.072780281305313 16.96005821228
			vertex 6.6771893501282 0.54043400287628 16.690059661865
			vertex 6.3354740142822 0.21299937367439 17.202926635742
		endloop
	endfacet
	facet normal 0.4713960892137 0.44096137400577 0.76376619047257
		outer loop
			vertex 7.0670490264893 -0.031411901116371 16.779592514038
			vertex 7.0670490264893 0.43624180555344 16.509592056274
			vertex 6.6771893501282 0.072780281305313 16.96005821228
		endloop
	endfacet
	facet normal 0.47139900862952 0.44095824694145 0.76376619401322
		outer loop
			vertex 6.6771893501282 0.072780281305313 16.96005821228
			vertex 7.0670490264893 0.43624180555344 16.509592056274
			vertex 6.6771893501282 0.54043400287628 16.690059661865
		endloop
	endfacet
	facet normal 0.098015428688876 0.49759307158685 0.86185504050722
		outer loop
			vertex 7.4900712966919 -0.095573134720325 16.668462753296
			vertex 7.9299998283386 0.35041597485542 16.360939025879
			vertex 7.4900712966919 0.37208059430122 16.398462295532
		endloop
	endfacet
	facet normal 0.29028343182372 0.47847097389809 0.82873461152872
		outer loop
			vertex 7.0670490264893 -0.031411901116371 16.779592514038
			vertex 7.4900712966919 0.37208059430122 16.398462295532
			vertex 7.0670490264893 0.43624180555344 16.509592056274
		endloop
	endfacet
	facet normal 0.29028345497493 0.47847095323513 0.82873461534926
		outer loop
			vertex 7.0670490264893 -0.031411901116371 16.779592514038
			vertex 7.4900712966919 -0.095573134720325 16.668462753296
			vertex 7.4900712966919 0.37208059430122 16.398462295532
		endloop
	endfacet
	facet normal 0.098019104401211 0.49759027206802 0.86185623877515
		outer loop
			vertex 7.4900712966919 -0.095573134720325 16.668462753296
			vertex 7.9299998283386 -0.11723773181438 16.630937576294
			vertex 7.9299998283386 0.35041597485542 16.360939025879
		endloop
	endfacet
	facet normal 0 -1 0
		outer loop
			vertex 7.3899998664856 0.54000002145767 0.54000002145767
			vertex 7.9299998283386 0.54000002145767 0.54000002145767
			vertex 7.9299998283386 0.54000002145767 15.748999595642
		endloop
	endfacet
	facet normal 0 -1 0
		outer loop
			vertex 7.3899998664856 0.54000002145767 0.54000002145767
			vertex 7.9299998283386 0.54000002145767 15.748999595642
			vertex 7.3899998664856 0.54000002145767 15.748999595642
		endloop
	endfacet
	facet normal 0 0 -1
		outer loop
			vertex 7.3899998664856 0.54000002145767 0.54000002145767
			vertex 7.3899998664856 16.989906311035 0.54000002145767
			vertex 7.9299998283386 0.54000002145767 0.54000002145767
		endloop
	endfacet
	facet normal 0 0 -1
		outer loop
			vertex 7.9299998283386 0.54000002145767 0.54000002145767
			vertex 7.3899998664856 16.989906311035 0.54000002145767
			vertex 7.9299998283386 16.989906311035 0.54000002145767
		endloop
	endfacet
	facet normal -1 0 0
		outer loop
			vertex 7.3899998664856 0.54000002145767 0.54000002145767
			vertex 7.3899998664856 0.54000002145767 15.748999595642
			vertex 7.3899998664856 16.989906311035 0.54000002145767
		endloop
	endfacet
	facet normal 1 0 0
		outer loop
			vertex 7.9299998283386 0.54000002145767 0.54000002145767
			vertex 7.9299998283386 16.989906311035 0.54000002145767
			vertex 7.9299998283386 0.54000002145767 15.748999595642
		endloop
	endfacet
	facet normal -0 0.67886964295776 0.73425881531678
		outer loop
			vertex 7.3899998664856 0.54000002145767 15.748999595642
			vertex 7.9299998283386 0.54000002145767 15.748999595642
			vertex 7.9299998283386 16.989906311035 0.54000002145767
		endloop
	endfacet
	facet normal 0 0.67886964295776 0.73425881531678
		outer loop
			vertex 7.3899998664856 0.54000002145767 15.748999595642
			vertex 7.9299998283386 16.989906311035 0.54000002145767
			vertex 7.3899998664856 16.989906311035 0.54000002145767
		endloop
	endfacet
endsolid