solid csg_export
	facet normal -1 0 0
		outer loop
			vertex 0 14.341438293457 0.43999999761581
			vertex 0 13.901437759399 0.43999999761581
			vertex 0 14.341438293457 2.0803000926971
		endloop
	endfacet
	facet normal 0 -1 0
		outer loop
			vertex 0 13.901437759399 0.43999999761581
			vertex 3.0369999408722 13.901437759399 0.43999999761581
			vertex 0 13.901437759399 2.0803000926971
		endloop
	endfacet
	facet normal 0 1 0
		outer loop
			vertex 0 14.341438293457 0.43999999761581
			vertex 3.0520000457764 14.341438293457 2.0803000926971
			vertex 3.0369999408722 14.341438293457 0.43999999761581
		endloop
	endfacet
	facet normal 0 -1 0
		outer loop
			vertex 3.0369999408722 13.901437759399 0.43999999761581
			vertex 3.4630000591278 13.901437759399 0.43999999761581
			vertex 0 13.901437759399 2.0803000926971
		endloop
	endfacet
	facet normal 0 1 0
		outer loop
			vertex 3.0369999408722 14.341438293457 0.43999999761581
			vertex 3.0520000457764 14.341438293457 2.0803000926971
			vertex 3.0520000457764 14.341438293457 0.43999999761581
		endloop
	endfacet
	facet normal -1 0 0
		outer loop
			vertex 0 13.901437759399 0.43999999761581
			vertex 0 13.901437759399 2.0803000926971
			vertex 0 14.341438293457 2.0803000926971
		endloop
	endfacet
	facet normal 0 1 0
		outer loop
			vertex 0 14.341438293457 0.43999999761581
			vertex 0 14.341438293457 2.0803000926971
			vertex 3.0520000457764 14.341438293457 2.0803000926971
		endloop
	endfacet
	facet normal 0 0 1
		outer loop
			vertex 0 14.341438293457 2.0803000926971
			vertex 0 13.901437759399 2.0803000926971
			vertex 6.5 13.901437759399 2.0803000926971
		endloop
	endfacet
	facet normal -0 0 1
		outer loop
			vertex 0 14.341438293457 2.0803000926971
			vertex 6.5 13.901437759399 2.0803000926971
			vertex 3.0520000457764 14.341438293457 2.0803000926971
		endloop
	endfacet
	facet normal 0 0 -1
		outer loop
			vertex 0 13.901437759399 0
			vertex 6.5 14.341438293457 0
			vertex 6.5 13.901437759399 0
		endloop
	endfacet
	facet normal -0 1 0
		outer loop
			vertex 3.4715909957886 14.341438293457 0.20499999821186
			vertex 3.5950000286102 14.341438293457 0.20499999821186
			vertex 6.5 14.341438293457 0
		endloop
	endfacet
	facet normal 0 1 -0
		outer loop
			vertex 3.5950000286102 14.341438293457 0.20499999821186
			vertex 3.5865547657013 14.341438293457 0.22003526985645
			vertex 5.8544778823853 14.341438293457 0.43999999761581
		endloop
	endfacet
	facet normal 0 1 0
		outer loop
			vertex 3.4479999542236 14.341438293457 0.43999999761581
			vertex 3.4479999542236 14.341438293457 2.0803000926971
			vertex 3.4630000591278 14.341438293457 0.43999999761581
		endloop
	endfacet
	facet normal 0 -1 0
		outer loop
			vertex 0 13.901437759399 2.0803000926971
			vertex 3.4630000591278 13.901437759399 0.43999999761581
			vertex 6.5 13.901437759399 0.43999999761581
		endloop
	endfacet
	facet normal 0 1 -0
		outer loop
			vertex 3.4630000591278 14.341438293457 0.43999999761581
			vertex 3.4479999542236 14.341438293457 2.0803000926971
			vertex 5.8544778823853 14.341438293457 0.43999999761581
		endloop
	endfacet
	facet normal -0 1 0
		outer loop
			vertex 3.5950000286102 14.341438293457 0.20499999821186
			vertex 5.8544778823853 14.341438293457 0.43999999761581
			vertex 6.5 14.341438293457 0
		endloop
	endfacet
	facet normal 1 0 -0
		outer loop
			vertex 6.5 14.341438293457 0
			vertex 6.5 14.341438293457 2.0803000926971
			vertex 6.5 13.901437759399 0
		endloop
	endfacet
	facet normal 0 1 -0
		outer loop
			vertex 6.5 14.341438293457 0
			vertex 5.8544778823853 14.341438293457 0.43999999761581
			vertex 6.5 14.341438293457 2.0803000926971
		endloop
	endfacet
	facet normal 1 0 0
		outer loop
			vertex 6.5 13.901437759399 0
			vertex 6.5 14.341438293457 2.0803000926971
			vertex 6.5 13.901437759399 0.43999999761581
		endloop
	endfacet
	facet normal 0 -1 0
		outer loop
			vertex 0 13.901437759399 2.0803000926971
			vertex 6.5 13.901437759399 0.43999999761581
			vertex 6.5 13.901437759399 2.0803000926971
		endloop
	endfacet
	facet normal -0 0 1
		outer loop
			vertex 3.0520000457764 14.341438293457 2.0803000926971
			vertex 6.5 13.901437759399 2.0803000926971
			vertex 3.4479999542236 14.341438293457 2.0803000926971
		endloop
	endfacet
	facet normal 0 1 -0
		outer loop
			vertex 5.8544778823853 14.341438293457 0.43999999761581
			vertex 3.4479999542236 14.341438293457 2.0803000926971
			vertex 6.5 14.341438293457 2.0803000926971
		endloop
	endfacet
	facet normal 1 0 0
		outer loop
			vertex 6.5 13.901437759399 0.43999999761581
			vertex 6.5 14.341438293457 2.0803000926971
			vertex 6.5 13.901437759399 2.0803000926971
		endloop
	endfacet
	facet normal -0 0 1
		outer loop
			vertex 3.4479999542236 14.341438293457 2.0803000926971
			vertex 6.5 13.901437759399 2.0803000926971
			vertex 6.5 14.341438293457 2.0803000926971
		endloop
	endfacet
	facet normal 0 0 -1
		outer loop
			vertex 2.9200000762939 14.561438560486 0
			vertex 3.4479999542236 14.341438293457 0
			vertex 3.0520000457764 14.341438293457 0
		endloop
	endfacet
	facet normal -0.85749325369431 -0.51449520879086 0
		outer loop
			vertex 2.9200000762939 14.561438560486 0
			vertex 3.0520000457764 14.341438293457 0
			vertex 2.9200000762939 14.561438560486 2.0803000926971
		endloop
	endfacet
	facet normal -0.85749325369431 -0.51449520879086 0
		outer loop
			vertex 3.0520000457764 14.341438293457 0
			vertex 3.0520000457764 14.341438293457 0.20499999821186
			vertex 2.9200000762939 14.561438560486 2.0803000926971
		endloop
	endfacet
	facet normal -0.85749325369431 -0.51449520879086 0
		outer loop
			vertex 3.0520000457764 14.341438293457 0.20499999821186
			vertex 3.0520000457764 14.341438293457 0.43999999761581
			vertex 2.9200000762939 14.561438560486 2.0803000926971
		endloop
	endfacet
	facet normal 0 1 0
		outer loop
			vertex 2.9200000762939 14.561438560486 0
			vertex 2.9200000762939 14.561438560486 2.0803000926971
			vertex 3.5799999237061 14.561438560486 2.0803000926971
		endloop
	endfacet
	facet normal -0.85749325369431 -0.51449520879086 0
		outer loop
			vertex 3.0520000457764 14.341438293457 0.43999999761581
			vertex 3.0520000457764 14.341438293457 2.0803000926971
			vertex 2.9200000762939 14.561438560486 2.0803000926971
		endloop
	endfacet
	facet normal 0 0 1
		outer loop
			vertex 2.9200000762939 14.561438560486 2.0803000926971
			vertex 3.0520000457764 14.341438293457 2.0803000926971
			vertex 3.4479999542236 14.341438293457 2.0803000926971
		endloop
	endfacet
	facet normal 0 0 -1
		outer loop
			vertex 2.9200000762939 14.561438560486 0
			vertex 3.5799999237061 14.561438560486 0
			vertex 3.4479999542236 14.341438293457 0
		endloop
	endfacet
	facet normal 0.85749325369431 -0.51449520879086 0
		outer loop
			vertex 3.4479999542236 14.341438293457 0
			vertex 3.5799999237061 14.561438560486 0
			vertex 3.4479999542236 14.341438293457 0.20499999821186
		endloop
	endfacet
	facet normal 0.85749325369431 -0.51449520879086 0
		outer loop
			vertex 3.5799999237061 14.561438560486 0
			vertex 3.4479999542236 14.341438293457 0.43999999761581
			vertex 3.4479999542236 14.341438293457 0.20499999821186
		endloop
	endfacet
	facet normal 0 1 0
		outer loop
			vertex 2.9200000762939 14.561438560486 0
			vertex 3.5799999237061 14.561438560486 2.0803000926971
			vertex 3.5799999237061 14.561438560486 0
		endloop
	endfacet
	facet normal 0.85749325369431 -0.51449520879086 0
		outer loop
			vertex 3.5799999237061 14.561438560486 0
			vertex 3.4479999542236 14.341438293457 2.0803000926971
			vertex 3.4479999542236 14.341438293457 0.43999999761581
		endloop
	endfacet
	facet normal 0.85749325369431 -0.51449520879086 0
		outer loop
			vertex 3.5799999237061 14.561438560486 0
			vertex 3.5799999237061 14.561438560486 2.0803000926971
			vertex 3.4479999542236 14.341438293457 2.0803000926971
		endloop
	endfacet
	facet normal -0 0 1
		outer loop
			vertex 2.9200000762939 14.561438560486 2.0803000926971
			vertex 3.4479999542236 14.341438293457 2.0803000926971
			vertex 3.5799999237061 14.561438560486 2.0803000926971
		endloop
	endfacet
	facet normal -1 0 0
		outer loop
			vertex 0 14.341438293457 0
			vertex 0 13.901437759399 0.43999999761581
			vertex 0 14.341438293457 0.43999999761581
		endloop
	endfacet
	facet normal 0 0 -1
		outer loop
			vertex 0 14.341438293457 0
			vertex 3.0520000457764 14.341438293457 0
			vertex 0 13.901437759399 0
		endloop
	endfacet
	facet normal 0 1 0
		outer loop
			vertex 0 14.341438293457 0
			vertex 0 14.341438293457 0.43999999761581
			vertex 2.9049999713898 14.341438293457 0.20499999821186
		endloop
	endfacet
	facet normal -1 0 0
		outer loop
			vertex 0 14.341438293457 0
			vertex 0 13.901437759399 0
			vertex 0 1.870038151741 0.43999999761581
		endloop
	endfacet
	facet normal -1 0 0
		outer loop
			vertex 0 14.341438293457 0
			vertex 0 1.9879359006882 0.43999999761581
			vertex 0 13.901437759399 0.43999999761581
		endloop
	endfacet
	facet normal -0 0 1
		outer loop
			vertex 0 13.901437759399 0.43999999761581
			vertex 0 1.9879359006882 0.43999999761581
			vertex 3.0369999408722 13.901437759399 0.43999999761581
		endloop
	endfacet
	facet normal 0 1 0
		outer loop
			vertex 0 14.341438293457 0
			vertex 2.9049999713898 14.341438293457 0.20499999821186
			vertex 3.0520000457764 14.341438293457 0
		endloop
	endfacet
	facet normal 0 0 -1
		outer loop
			vertex 0 13.901437759399 0
			vertex 3.0520000457764 14.341438293457 0
			vertex 3.4479999542236 14.341438293457 0
		endloop
	endfacet
	facet normal -0 1 0
		outer loop
			vertex 0 14.341438293457 0.43999999761581
			vertex 3.0369999408722 14.341438293457 0.43999999761581
			vertex 2.9049999713898 14.341438293457 0.20499999821186
		endloop
	endfacet
	facet normal 0 1 -0
		outer loop
			vertex 3.0520000457764 14.341438293457 0
			vertex 2.9049999713898 14.341438293457 0.20499999821186
			vertex 3.0520000457764 14.341438293457 0.20499999821186
		endloop
	endfacet
	facet normal -1 0 0
		outer loop
			vertex 0 13.901437759399 0
			vertex 0 1.870038151741 0
			vertex 0 1.870038151741 0.43999999761581
		endloop
	endfacet
	facet normal -1 0 0
		outer loop
			vertex 0 14.341438293457 0
			vertex 0 1.870038151741 0.43999999761581
			vertex 0 1.9879359006882 0.43999999761581
		endloop
	endfacet
	facet normal 0 0 -1
		outer loop
			vertex 0 13.901437759399 0
			vertex 6.5 1.870038151741 0
			vertex 0 1.870038151741 0
		endloop
	endfacet
	facet normal 0 0 1
		outer loop
			vertex 3.0369999408722 13.901437759399 0.43999999761581
			vertex 0 1.9879359006882 0.43999999761581
			vertex 3.0369999408722 1.9879359006882 0.43999999761581
		endloop
	endfacet
	facet normal 0 0 -1
		outer loop
			vertex 0 13.901437759399 0
			vertex 3.4479999542236 14.341438293457 0
			vertex 6.5 14.341438293457 0
		endloop
	endfacet
	facet normal 0 1 0
		outer loop
			vertex 3.4479999542236 14.341438293457 0
			vertex 3.4479999542236 14.341438293457 0.20499999821186
			vertex 3.4715909957886 14.341438293457 0.20499999821186
		endloop
	endfacet
	facet normal 0 1 0
		outer loop
			vertex 3.4479999542236 14.341438293457 0
			vertex 3.4715909957886 14.341438293457 0.20499999821186
			vertex 6.5 14.341438293457 0
		endloop
	endfacet
	facet normal 0 1 -0
		outer loop
			vertex 3.5865547657013 14.341438293457 0.22003526985645
			vertex 3.4630000591278 14.341438293457 0.43999999761581
			vertex 5.8544778823853 14.341438293457 0.43999999761581
		endloop
	endfacet
	facet normal 0 0 -1
		outer loop
			vertex 0 13.901437759399 0
			vertex 6.5 13.901437759399 0
			vertex 6.5 1.870038151741 0
		endloop
	endfacet
	facet normal -0 0 1
		outer loop
			vertex 3.4630000591278 13.901437759399 0.43999999761581
			vertex 3.4630000591278 1.9879359006882 0.43999999761581
			vertex 6.5 13.901437759399 0.43999999761581
		endloop
	endfacet
	facet normal 1 0 -0
		outer loop
			vertex 6.5 13.901437759399 0
			vertex 6.5 13.901437759399 0.43999999761581
			vertex 6.5 2.0900382995605 0.38105118274689
		endloop
	endfacet
	facet normal 0 0 1
		outer loop
			vertex 6.5 13.901437759399 0.43999999761581
			vertex 3.4630000591278 1.9879359006882 0.43999999761581
			vertex 6.5 1.9879359006882 0.43999999761581
		endloop
	endfacet
	facet normal 1 0 0
		outer loop
			vertex 6.5 13.901437759399 0
			vertex 6.5 2.0900382995605 0.38105118274689
			vertex 6.5 1.870038151741 0
		endloop
	endfacet
	facet normal 1 0 0
		outer loop
			vertex 6.5 13.901437759399 0.43999999761581
			vertex 6.5 1.9879359006882 0.43999999761581
			vertex 6.5 2.0900382995605 0.38105118274689
		endloop
	endfacet
	facet normal 1 0 0
		outer loop
			vertex 6.5 2.0900382995605 0.38105118274689
			vertex 6.5 1.9879359006882 0.43999999761581
			vertex 6.5 1.8971817493439 0.43999999761581
		endloop
	endfacet
	facet normal 4.4706562938272e-08 -0.49999994438806 -0.86602543589201
		outer loop
			vertex 0 1.870038151741 0
			vertex 2.0249676704407 1.3818851709366 0.28183531761169
			vertex 1.6908295154572 1.1444035768509 0.41894534230232
		endloop
	endfacet
	facet normal 2.1145464006223e-10 -0.50000008281979 -0.86602535596841
		outer loop
			vertex 0 1.870038151741 0
			vertex 2.4061830043793 1.5583498477936 0.17995336651802
			vertex 2.0249676704407 1.3818851709366 0.28183531761169
		endloop
	endfacet
	facet normal -1.827847247635e-08 -0.50000005446098 -0.86602537234138
		outer loop
			vertex 0 1.870038151741 0
			vertex 1.6908295154572 1.1444035768509 0.41894534230232
			vertex 1.4166095256805 0.85503154993057 0.58601438999176
		endloop
	endfacet
	facet normal 9.5704078722111e-08 -0.49999993514985 -0.86602544122568
		outer loop
			vertex 0 1.870038151741 0
			vertex 1.4166095256805 0.85503154993057 0.58601438999176
			vertex 1.2128456830978 0.52488929033279 0.77662205696106
		endloop
	endfacet
	facet normal -1 0 0
		outer loop
			vertex 0 1.870038151741 0
			vertex 0 0.43999999761581 1.333701133728
			vertex 0 1.870038151741 0.43999999761581
		endloop
	endfacet
	facet normal -2.279040539544e-08 -0.50000001527976 -0.86602539496267
		outer loop
			vertex 0 1.870038151741 0
			vertex 1.2128456830978 0.52488929033279 0.77662205696106
			vertex 0 0.21999999880791 0.95265001058578
		endloop
	endfacet
	facet normal -1 0 0
		outer loop
			vertex 0 1.9879359006882 0.43999999761581
			vertex 0 1.870038151741 0.43999999761581
			vertex 0 0.43999999761581 1.333701133728
		endloop
	endfacet
	facet normal -1 0 0
		outer loop
			vertex 0 1.870038151741 0
			vertex 0 0.21999999880791 0.95265001058578
			vertex 0 0.43999999761581 1.333701133728
		endloop
	endfacet
	facet normal 0 0.49999996885918 0.8660254217636
		outer loop
			vertex 0 1.9879359006882 0.43999999761581
			vertex 0 0.43999999761581 1.333701133728
			vertex 1.1060506105423 0.43999999761581 1.333701133728
		endloop
	endfacet
	facet normal 0 -0.50000008327471 -0.86602535570576
		outer loop
			vertex 0 0.21999999880791 0.95265001058578
			vertex 1.2128456830978 0.52488929033279 0.77662205696106
			vertex 1.1060506105423 0.21999999880791 0.95265001058578
		endloop
	endfacet
	facet normal -6.1630374131414e-08 0.4999999358315 0.86602544083214
		outer loop
			vertex 0 1.9879359006882 0.43999999761581
			vertex 1.1060506105423 0.43999999761581 1.333701133728
			vertex 1.2128456830978 0.74488931894302 1.1576732397079
		endloop
	endfacet
	facet normal 3.6317502054409e-08 0.50000003129162 0.86602538571821
		outer loop
			vertex 0 1.9879359006882 0.43999999761581
			vertex 1.4166095256805 1.0750315189362 0.96706557273865
			vertex 1.6908295154572 1.3644036054611 0.79999649524689
		endloop
	endfacet
	facet normal 1.5056744298928e-08 0.4999999880521 0.86602541068256
		outer loop
			vertex 0 1.9879359006882 0.43999999761581
			vertex 1.6908295154572 1.3644036054611 0.79999649524689
			vertex 2.0249676704407 1.6018850803375 0.66288650035858
		endloop
	endfacet
	facet normal 1.8048522464715e-09 0.49999993591909 0.86602544078157
		outer loop
			vertex 0 1.9879359006882 0.43999999761581
			vertex 2.0249676704407 1.6018850803375 0.66288650035858
			vertex 2.4061830043793 1.7783498764038 0.56100451946259
		endloop
	endfacet
	facet normal -1.8732628543184e-08 0.49999996722313 0.86602542270817
		outer loop
			vertex 0 1.9879359006882 0.43999999761581
			vertex 1.2128456830978 0.74488931894302 1.1576732397079
			vertex 1.4166095256805 1.0750315189362 0.96706557273865
		endloop
	endfacet
	facet normal 1.2720728104834e-08 -0.50000001039263 -0.86602539778425
		outer loop
			vertex 0 1.870038151741 0
			vertex 2.8198258876801 1.6670162677765 0.11721478402615
			vertex 2.4061830043793 1.5583498477936 0.17995336651802
		endloop
	endfacet
	facet normal -1.7932996017684e-09 -0.50000016158455 -0.86602531049354
		outer loop
			vertex 0 1.870038151741 0
			vertex 3.25 1.7037084102631 0.096030555665493
			vertex 2.8198258876801 1.6670162677765 0.11721478402615
		endloop
	endfacet
	facet normal -3.0848700387259e-09 0.4999998938162 0.86602546508967
		outer loop
			vertex 0 1.9879359006882 0.43999999761581
			vertex 2.4061830043793 1.7783498764038 0.56100451946259
			vertex 2.8198258876801 1.8870162963867 0.49826595187187
		endloop
	endfacet
	facet normal -0 0.49999995846269 0.86602542776601
		outer loop
			vertex 0 1.9879359006882 0.43999999761581
			vertex 2.8198258876801 1.8870162963867 0.49826595187187
			vertex 3.0369999408722 1.9879359006882 0.43999999761581
		endloop
	endfacet
	facet normal -2.4624394602619e-08 0.49999999820556 0.86602540482046
		outer loop
			vertex 3.0369999408722 1.9879359006882 0.43999999761581
			vertex 2.8198258876801 1.8870162963867 0.49826595187187
			vertex 3.25 1.9237084388733 0.47708174586296
		endloop
	endfacet
	facet normal 0 -0.86602537397867 0.5000000516251
		outer loop
			vertex 0 0.21999999880791 0.95265001058578
			vertex 1.1060506105423 0.43999999761581 1.333701133728
			vertex 0 0.43999999761581 1.333701133728
		endloop
	endfacet
	facet normal 0 -0.86602537397867 0.5000000516251
		outer loop
			vertex 0 0.21999999880791 0.95265001058578
			vertex 1.1060506105423 0.21999999880791 0.95265001058578
			vertex 1.1060506105423 0.43999999761581 1.333701133728
		endloop
	endfacet
	facet normal 0 -0.50000013530442 -0.86602532566638
		outer loop
			vertex 0 1.870038151741 0
			vertex 6.5 1.870038151741 0
			vertex 3.25 1.7037084102631 0.096030555665493
		endloop
	endfacet
	facet normal -0 0.50000005945269 0.86602536945941
		outer loop
			vertex 3.0369999408722 1.9879359006882 0.43999999761581
			vertex 3.25 1.9237084388733 0.47708174586296
			vertex 3.4630000591278 1.9879359006882 0.43999999761581
		endloop
	endfacet
	facet normal 2.4624394602619e-08 0.49999999820556 0.86602540482046
		outer loop
			vertex 3.4630000591278 1.9879359006882 0.43999999761581
			vertex 3.25 1.9237084388733 0.47708174586296
			vertex 3.6801741123199 1.8870162963867 0.49826595187187
		endloop
	endfacet
	facet normal 1.7932996017684e-09 -0.50000016158455 -0.86602531049354
		outer loop
			vertex 6.5 1.870038151741 0
			vertex 3.6801741123199 1.6670162677765 0.11721478402615
			vertex 3.25 1.7037084102631 0.096030555665493
		endloop
	endfacet
	facet normal -1.2720729682033e-08 -0.50000001039261 -0.86602539778426
		outer loop
			vertex 6.5 1.870038151741 0
			vertex 4.0938167572021 1.5583498477936 0.17995336651802
			vertex 3.6801741123199 1.6670162677765 0.11721478402615
		endloop
	endfacet
	facet normal -0 0.49999995846269 0.86602542776601
		outer loop
			vertex 3.4630000591278 1.9879359006882 0.43999999761581
			vertex 3.6801741123199 1.8870162963867 0.49826595187187
			vertex 6.5 1.9879359006882 0.43999999761581
		endloop
	endfacet
	facet normal 3.0848702519162e-09 0.4999998938162 0.86602546508968
		outer loop
			vertex 6.5 1.9879359006882 0.43999999761581
			vertex 3.6801741123199 1.8870162963867 0.49826595187187
			vertex 4.0938167572021 1.7783498764038 0.56100451946259
		endloop
	endfacet
	facet normal -2.1145459477537e-10 -0.50000008281979 -0.86602535596841
		outer loop
			vertex 6.5 1.870038151741 0
			vertex 4.4750323295593 1.3818851709366 0.28183531761169
			vertex 4.0938167572021 1.5583498477936 0.17995336651802
		endloop
	endfacet
	facet normal -4.4706571017679e-08 -0.49999994438803 -0.86602543589202
		outer loop
			vertex 6.5 1.870038151741 0
			vertex 4.8091702461243 1.1444035768509 0.41894534230232
			vertex 4.4750323295593 1.3818851709366 0.28183531761169
		endloop
	endfacet
	facet normal 1.8278461454995e-08 -0.50000005446096 -0.86602537234139
		outer loop
			vertex 6.5 1.870038151741 0
			vertex 5.083390712738 0.85503154993057 0.58601438999176
			vertex 4.8091702461243 1.1444035768509 0.41894534230232
		endloop
	endfacet
	facet normal -9.5704141395042e-08 -0.49999993514981 -0.86602544122571
		outer loop
			vertex 6.5 1.870038151741 0
			vertex 5.2871541976929 0.52488929033279 0.77662205696106
			vertex 5.083390712738 0.85503154993057 0.58601438999176
		endloop
	endfacet
	facet normal 1 0 0
		outer loop
			vertex 6.5 1.870038151741 0
			vertex 6.5 2.0900382995605 0.38105118274689
			vertex 6.5 1.8971817493439 0.43999999761581
		endloop
	endfacet
	facet normal 1 0 -0
		outer loop
			vertex 6.5 1.870038151741 0
			vertex 6.5 1.8971817493439 0.43999999761581
			vertex 6.5 0.21999999880791 0.95265001058578
		endloop
	endfacet
	facet normal -1.8048519171944e-09 0.49999993591909 0.86602544078157
		outer loop
			vertex 6.5 1.9879359006882 0.43999999761581
			vertex 4.0938167572021 1.7783498764038 0.56100451946259
			vertex 4.4750323295593 1.6018850803375 0.66288650035858
		endloop
	endfacet
	facet normal -1.5056746571233e-08 0.49999998805211 0.86602541068256
		outer loop
			vertex 6.5 1.9879359006882 0.43999999761581
			vertex 4.4750323295593 1.6018850803375 0.66288650035858
			vertex 4.8091702461243 1.3644036054611 0.79999649524689
		endloop
	endfacet
	facet normal -3.6317481905435e-08 0.50000003129159 0.86602538571823
		outer loop
			vertex 6.5 1.9879359006882 0.43999999761581
			vertex 4.8091702461243 1.3644036054611 0.79999649524689
			vertex 5.083390712738 1.0750315189362 0.96706557273865
		endloop
	endfacet
	facet normal 8.8830574891641e-08 -0.50000005993831 -0.86602536917903
		outer loop
			vertex 6.5 1.870038151741 0
			vertex 5.393949508667 0.21999999880791 0.95265001058578
			vertex 5.2871541976929 0.52488929033279 0.77662205696106
		endloop
	endfacet
	facet normal 0 -0.50000001527976 -0.86602539496267
		outer loop
			vertex 6.5 1.870038151741 0
			vertex 6.5 0.21999999880791 0.95265001058578
			vertex 5.393949508667 0.21999999880791 0.95265001058578
		endloop
	endfacet
	facet normal 1 0 0
		outer loop
			vertex 6.5 1.9879359006882 0.43999999761581
			vertex 6.5 0.43999999761581 1.333701133728
			vertex 6.5 1.8971817493439 0.43999999761581
		endloop
	endfacet
	facet normal 1.732687248135e-08 0.49999996885918 0.8660254217636
		outer loop
			vertex 6.5 1.9879359006882 0.43999999761581
			vertex 5.083390712738 1.0750315189362 0.96706557273865
			vertex 6.5 0.43999999761581 1.333701133728
		endloop
	endfacet
	facet normal 1 0 0
		outer loop
			vertex 6.5 1.8971817493439 0.43999999761581
			vertex 6.5 0.43999999761581 1.333701133728
			vertex 6.5 0.21999999880791 0.95265001058578
		endloop
	endfacet
	facet normal 1.5437241354068e-08 0.49999996569768 0.86602542358889
		outer loop
			vertex 6.5 0.43999999761581 1.333701133728
			vertex 5.083390712738 1.0750315189362 0.96706557273865
			vertex 5.2871541976929 0.74488931894302 1.1576732397079
		endloop
	endfacet
	facet normal 0 -0.86602537397867 0.5000000516251
		outer loop
			vertex 6.5 0.43999999761581 1.333701133728
			vertex 5.393949508667 0.43999999761581 1.333701133728
			vertex 5.393949508667 0.21999999880791 0.95265001058578
		endloop
	endfacet
	facet normal 0 0.49999991964082 0.86602545017983
		outer loop
			vertex 6.5 0.43999999761581 1.333701133728
			vertex 5.2871541976929 0.74488931894302 1.1576732397079
			vertex 5.393949508667 0.43999999761581 1.333701133728
		endloop
	endfacet
	facet normal 0 -0.86602537397867 0.5000000516251
		outer loop
			vertex 6.5 0.21999999880791 0.95265001058578
			vertex 6.5 0.43999999761581 1.333701133728
			vertex 5.393949508667 0.21999999880791 0.95265001058578
		endloop
	endfacet
	facet normal 0.87187267280999 0 -0.4897326233846
		outer loop
			vertex 2.9049999713898 14.341438293457 0.20499999821186
			vertex 3.0369999408722 14.341438293457 0.43999999761581
			vertex 3.0369999408722 13.901437759399 0.43999999761581
		endloop
	endfacet
	facet normal 0 -1 0
		outer loop
			vertex 3.0520000457764 14.341438293457 0.20499999821186
			vertex 3.4479999542236 14.341438293457 0.20499999821186
			vertex 3.0520000457764 14.341438293457 0.43999999761581
		endloop
	endfacet
	facet normal 0 0 -1
		outer loop
			vertex 3.0369999408722 14.341438293457 0.43999999761581
			vertex 3.0520000457764 14.341438293457 0.43999999761581
			vertex 3.4630000591278 13.901437759399 0.43999999761581
		endloop
	endfacet
	facet normal 0 0 -1
		outer loop
			vertex 3.0369999408722 14.341438293457 0.43999999761581
			vertex 3.4630000591278 13.901437759399 0.43999999761581
			vertex 3.0369999408722 13.901437759399 0.43999999761581
		endloop
	endfacet
	facet normal -0 0 1
		outer loop
			vertex 2.9049999713898 14.341438293457 0.20499999821186
			vertex 3.25 1.7666219472885 0.20499999821186
			vertex 3.0520000457764 14.341438293457 0.20499999821186
		endloop
	endfacet
	facet normal 0.87187267280999 0 -0.4897326233846
		outer loop
			vertex 2.9049999713898 14.341438293457 0.20499999821186
			vertex 3.0369999408722 13.901437759399 0.43999999761581
			vertex 3.0369999408722 1.9879359006882 0.43999999761581
		endloop
	endfacet
	facet normal 0 0 1
		outer loop
			vertex 2.9049999713898 14.341438293457 0.20499999821186
			vertex 2.9049999713898 1.7273857593536 0.20499999821186
			vertex 3.25 1.7666219472885 0.20499999821186
		endloop
	endfacet
	facet normal 0.87187267280999 0 -0.4897326233846
		outer loop
			vertex 2.9049999713898 14.341438293457 0.20499999821186
			vertex 3.0369999408722 1.9879359006882 0.43999999761581
			vertex 2.9049999713898 1.7273857593536 0.20499999821186
		endloop
	endfacet
	facet normal 0.87187267280999 0 -0.4897326233846
		outer loop
			vertex 3.0369999408722 1.9879359006882 0.43999999761581
			vertex 3.0369999408722 1.8780751228333 0.43999999761581
			vertex 2.9049999713898 1.7273857593536 0.20499999821186
		endloop
	endfacet
	facet normal 0 0 -1
		outer loop
			vertex 3.0369999408722 1.9879359006882 0.43999999761581
			vertex 3.25 1.902299284935 0.43999999761581
			vertex 3.0369999408722 1.8780751228333 0.43999999761581
		endloop
	endfacet
	facet normal 0 -1 0
		outer loop
			vertex 3.0520000457764 14.341438293457 0.43999999761581
			vertex 3.4479999542236 14.341438293457 0.20499999821186
			vertex 3.4479999542236 14.341438293457 0.43999999761581
		endloop
	endfacet
	facet normal -0.87187253871378 0 -0.48973286211647
		outer loop
			vertex 3.5865547657013 14.341438293457 0.22003526985645
			vertex 3.4630000591278 13.901437759399 0.43999999761581
			vertex 3.4630000591278 14.341438293457 0.43999999761581
		endloop
	endfacet
	facet normal 0 0 -1
		outer loop
			vertex 3.0520000457764 14.341438293457 0.43999999761581
			vertex 3.4479999542236 14.341438293457 0.43999999761581
			vertex 3.4630000591278 13.901437759399 0.43999999761581
		endloop
	endfacet
	facet normal 0 0 -1
		outer loop
			vertex 3.4479999542236 14.341438293457 0.43999999761581
			vertex 3.4630000591278 14.341438293457 0.43999999761581
			vertex 3.4630000591278 13.901437759399 0.43999999761581
		endloop
	endfacet
	facet normal -0 0 1
		outer loop
			vertex 3.0520000457764 14.341438293457 0.20499999821186
			vertex 3.25 1.7666219472885 0.20499999821186
			vertex 3.4479999542236 14.341438293457 0.20499999821186
		endloop
	endfacet
	facet normal -0 0 1
		outer loop
			vertex 3.4479999542236 14.341438293457 0.20499999821186
			vertex 3.25 1.7666219472885 0.20499999821186
			vertex 3.4715909957886 14.341438293457 0.20499999821186
		endloop
	endfacet
	facet normal -0 0 1
		outer loop
			vertex 3.4715909957886 14.341438293457 0.20499999821186
			vertex 3.25 1.7666219472885 0.20499999821186
			vertex 3.5950000286102 14.341438293457 0.20499999821186
		endloop
	endfacet
	facet normal -0.87187463462326 8.6632276571904e-08 -0.4897291307453
		outer loop
			vertex 3.5950000286102 14.341438293457 0.20499999821186
			vertex 3.4630000591278 1.8780751228333 0.43999999761581
			vertex 3.5865547657013 14.341438293457 0.22003526985645
		endloop
	endfacet
	facet normal -0.87187253871378 0 -0.48973286211647
		outer loop
			vertex 3.5865547657013 14.341438293457 0.22003526985645
			vertex 3.4630000591278 1.9879359006882 0.43999999761581
			vertex 3.4630000591278 13.901437759399 0.43999999761581
		endloop
	endfacet
	facet normal 0 0 1
		outer loop
			vertex 3.5950000286102 14.341438293457 0.20499999821186
			vertex 3.25 1.7666219472885 0.20499999821186
			vertex 3.5950000286102 1.7273857593536 0.20499999821186
		endloop
	endfacet
	facet normal -0.87187267280999 -0 -0.4897326233846
		outer loop
			vertex 3.5950000286102 14.341438293457 0.20499999821186
			vertex 3.5950000286102 1.7273857593536 0.20499999821186
			vertex 3.4630000591278 1.8780751228333 0.43999999761581
		endloop
	endfacet
	facet normal -0.87187253871378 0 -0.48973286211647
		outer loop
			vertex 3.5865547657013 14.341438293457 0.22003526985645
			vertex 3.4630000591278 1.8780751228333 0.43999999761581
			vertex 3.4630000591278 1.9879359006882 0.43999999761581
		endloop
	endfacet
	facet normal 0 0 -1
		outer loop
			vertex 3.0369999408722 1.9879359006882 0.43999999761581
			vertex 3.4630000591278 1.9879359006882 0.43999999761581
			vertex 3.25 1.902299284935 0.43999999761581
		endloop
	endfacet
	facet normal 0 -0 -1
		outer loop
			vertex 3.4630000591278 1.9879359006882 0.43999999761581
			vertex 3.4630000591278 1.8780751228333 0.43999999761581
			vertex 3.25 1.902299284935 0.43999999761581
		endloop
	endfacet
	facet normal 0.77301047754492 -0.54940064778512 0.31719667372005
		outer loop
			vertex 1.6908295154572 1.1444035768509 0.41894534230232
			vertex 1.6908295154572 1.3644036054611 0.79999649524689
			vertex 1.4166095256805 0.85503154993057 0.58601438999176
		endloop
	endfacet
	facet normal 0.88192130578662 -0.40824149795303 0.23569830238821
		outer loop
			vertex 1.2128456830978 0.52488929033279 0.77662205696106
			vertex 1.4166095256805 0.85503154993057 0.58601438999176
			vertex 1.4166095256805 1.0750315189362 0.96706557273865
		endloop
	endfacet
	facet normal 0.95694026140871 -0.25139410968296 0.14514247383778
		outer loop
			vertex 1.2128456830978 0.74488931894302 1.1576732397079
			vertex 1.1060506105423 0.21999999880791 0.95265001058578
			vertex 1.2128456830978 0.52488929033279 0.77662205696106
		endloop
	endfacet
	facet normal 0.77301053947914 -0.54940063038329 0.31719655292675
		outer loop
			vertex 1.4166095256805 0.85503154993057 0.58601438999176
			vertex 1.6908295154572 1.3644036054611 0.79999649524689
			vertex 1.4166095256805 1.0750315189362 0.96706557273865
		endloop
	endfacet
	facet normal 0.88192127925015 -0.40824151329672 0.23569837510469
		outer loop
			vertex 1.2128456830978 0.52488929033279 0.77662205696106
			vertex 1.4166095256805 1.0750315189362 0.96706557273865
			vertex 1.2128456830978 0.74488931894302 1.1576732397079
		endloop
	endfacet
	facet normal 0.6343932962639 -0.66944675255687 0.38650509847412
		outer loop
			vertex 2.0249676704407 1.3818851709366 0.28183531761169
			vertex 2.0249676704407 1.6018850803375 0.66288650035858
			vertex 1.6908295154572 1.1444035768509 0.41894534230232
		endloop
	endfacet
	facet normal 0.47139678611099 -0.76376615903077 0.44096068346692
		outer loop
			vertex 2.4061830043793 1.5583498477936 0.17995336651802
			vertex 2.4061830043793 1.7783498764038 0.56100451946259
			vertex 2.0249676704407 1.3818851709366 0.28183531761169
		endloop
	endfacet
	facet normal 0.4713969986868 -0.76376617902669 0.44096042158459
		outer loop
			vertex 2.0249676704407 1.3818851709366 0.28183531761169
			vertex 2.4061830043793 1.7783498764038 0.56100451946259
			vertex 2.0249676704407 1.6018850803375 0.66288650035858
		endloop
	endfacet
	facet normal 0.098017140778789 -0.86185529616443 0.49759229152679
		outer loop
			vertex 2.9049999713898 1.7273857593536 0.20499999821186
			vertex 2.8198258876801 1.6670162677765 0.11721478402615
			vertex 3.25 1.7666219472885 0.20499999821186
		endloop
	endfacet
	facet normal 0.098017116690268 -0.86185525664306 0.49759236472483
		outer loop
			vertex 2.8198258876801 1.6670162677765 0.11721478402615
			vertex 3.25 1.7037084102631 0.096030555665493
			vertex 3.25 1.7666219472885 0.20499999821186
		endloop
	endfacet
	facet normal 0.29028462353426 -0.82873462248022 0.47847023192894
		outer loop
			vertex 2.4061830043793 1.5583498477936 0.17995336651802
			vertex 2.8198258876801 1.6670162677765 0.11721478402615
			vertex 2.8198258876801 1.8870162963867 0.49826595187187
		endloop
	endfacet
	facet normal 0.29028460775018 -0.82873461852479 0.47847024835604
		outer loop
			vertex 2.4061830043793 1.5583498477936 0.17995336651802
			vertex 2.8198258876801 1.8870162963867 0.49826595187187
			vertex 2.4061830043793 1.7783498764038 0.56100451946259
		endloop
	endfacet
	facet normal 0.098016955484286 -0.86185523695028 0.49759243058849
		outer loop
			vertex 2.9049999713898 1.7273857593536 0.20499999821186
			vertex 2.8198258876801 1.8870162963867 0.49826595187187
			vertex 2.8198258876801 1.6670162677765 0.11721478402615
		endloop
	endfacet
	facet normal 0.098016765569864 -0.86185527761465 0.49759239756552
		outer loop
			vertex 2.9049999713898 1.7273857593536 0.20499999821186
			vertex 3.0369999408722 1.8780751228333 0.43999999761581
			vertex 2.8198258876801 1.8870162963867 0.49826595187187
		endloop
	endfacet
	facet normal 0.098017091083769 -0.86185460012695 0.49759350688639
		outer loop
			vertex 3.0369999408722 1.8780751228333 0.43999999761581
			vertex 3.25 1.9237084388733 0.47708174586296
			vertex 2.8198258876801 1.8870162963867 0.49826595187187
		endloop
	endfacet
	facet normal 0.098017445078468 -0.86185526292221 0.49759228916209
		outer loop
			vertex 3.25 1.9237084388733 0.47708174586296
			vertex 3.0369999408722 1.8780751228333 0.43999999761581
			vertex 3.25 1.902299284935 0.43999999761581
		endloop
	endfacet
	facet normal 0.6343931329493 -0.66944676485306 0.38650534523412
		outer loop
			vertex 1.6908295154572 1.1444035768509 0.41894534230232
			vertex 2.0249676704407 1.6018850803375 0.66288650035858
			vertex 1.6908295154572 1.3644036054611 0.79999649524689
		endloop
	endfacet
	facet normal 0.95694026049418 -0.25139411097675 0.14514247762643
		outer loop
			vertex 1.1060506105423 0.43999999761581 1.333701133728
			vertex 1.1060506105423 0.21999999880791 0.95265001058578
			vertex 1.2128456830978 0.74488931894302 1.1576732397079
		endloop
	endfacet
	facet normal -0.098017136095856 -0.86185525498784 0.49759236376919
		outer loop
			vertex 3.25 1.7037084102631 0.096030555665493
			vertex 3.5950000286102 1.7273857593536 0.20499999821186
			vertex 3.25 1.7666219472885 0.20499999821186
		endloop
	endfacet
	facet normal -0.098017116690267 -0.86185528846652 0.49759230960499
		outer loop
			vertex 3.5950000286102 1.7273857593536 0.20499999821186
			vertex 3.25 1.7037084102631 0.096030555665493
			vertex 3.6801741123199 1.6670162677765 0.11721478402615
		endloop
	endfacet
	facet normal -0.098016955484286 -0.86185523695028 0.49759243058849
		outer loop
			vertex 3.5950000286102 1.7273857593536 0.20499999821186
			vertex 3.6801741123199 1.6670162677765 0.11721478402615
			vertex 3.6801741123199 1.8870162963867 0.49826595187187
		endloop
	endfacet
	facet normal -0.098016765569864 -0.86185527761465 0.49759239756552
		outer loop
			vertex 3.5950000286102 1.7273857593536 0.20499999821186
			vertex 3.6801741123199 1.8870162963867 0.49826595187187
			vertex 3.4630000591278 1.8780751228333 0.43999999761581
		endloop
	endfacet
	facet normal -0.098017445078468 -0.86185526292221 0.49759228916209
		outer loop
			vertex 3.4630000591278 1.8780751228333 0.43999999761581
			vertex 3.25 1.9237084388733 0.47708174586296
			vertex 3.25 1.902299284935 0.43999999761581
		endloop
	endfacet
	facet normal -0.098017091083769 -0.86185460012695 0.49759350688639
		outer loop
			vertex 3.4630000591278 1.8780751228333 0.43999999761581
			vertex 3.6801741123199 1.8870162963867 0.49826595187187
			vertex 3.25 1.9237084388733 0.47708174586296
		endloop
	endfacet
	facet normal -0.29028477675182 -0.82873457412706 0.47847022272299
		outer loop
			vertex 3.6801741123199 1.6670162677765 0.11721478402615
			vertex 4.0938167572021 1.5583498477936 0.17995336651802
			vertex 4.0938167572021 1.7783498764038 0.56100451946259
		endloop
	endfacet
	facet normal -0.29028476096773 -0.82873458637564 0.47847021108394
		outer loop
			vertex 3.6801741123199 1.6670162677765 0.11721478402615
			vertex 4.0938167572021 1.7783498764038 0.56100451946259
			vertex 3.6801741123199 1.8870162963867 0.49826595187187
		endloop
	endfacet
	facet normal -0.47139655680479 -0.76376638357401 0.44096053967999
		outer loop
			vertex 4.0938167572021 1.5583498477936 0.17995336651802
			vertex 4.4750323295593 1.3818851709366 0.28183531761169
			vertex 4.4750323295593 1.6018850803375 0.66288650035858
		endloop
	endfacet
	facet normal -0.47139676938056 -0.76376616677529 0.44096068793822
		outer loop
			vertex 4.0938167572021 1.5583498477936 0.17995336651802
			vertex 4.4750323295593 1.6018850803375 0.66288650035858
			vertex 4.0938167572021 1.7783498764038 0.56100451946259
		endloop
	endfacet
	facet normal -0.63439356674906 -0.66944645653908 0.38650516722893
		outer loop
			vertex 4.4750323295593 1.3818851709366 0.28183531761169
			vertex 4.8091702461243 1.1444035768509 0.41894534230232
			vertex 4.8091702461243 1.3644036054611 0.79999649524689
		endloop
	endfacet
	facet normal -0.63439340343449 -0.66944667638764 0.38650505449781
		outer loop
			vertex 4.4750323295593 1.3818851709366 0.28183531761169
			vertex 4.8091702461243 1.3644036054611 0.79999649524689
			vertex 4.4750323295593 1.6018850803375 0.66288650035858
		endloop
	endfacet
	facet normal -0.77300999850896 -0.54940115328984 0.31719696557339
		outer loop
			vertex 4.8091702461243 1.1444035768509 0.41894534230232
			vertex 5.083390712738 1.0750315189362 0.96706557273865
			vertex 4.8091702461243 1.3644036054611 0.79999649524689
		endloop
	endfacet
	facet normal -0.77300993657465 -0.54940126660086 0.31719692024707
		outer loop
			vertex 5.083390712738 1.0750315189362 0.96706557273865
			vertex 4.8091702461243 1.1444035768509 0.41894534230232
			vertex 5.083390712738 0.85503154993057 0.58601438999176
		endloop
	endfacet
	facet normal -0.88192164974583 -0.40824091301177 0.23569802852997
		outer loop
			vertex 5.083390712738 0.85503154993057 0.58601438999176
			vertex 5.2871541976929 0.52488929033279 0.77662205696106
			vertex 5.2871541976929 0.74488931894302 1.1576732397079
		endloop
	endfacet
	facet normal -0.88192162320942 -0.40824098365786 0.2356980054598
		outer loop
			vertex 5.2871541976929 0.74488931894302 1.1576732397079
			vertex 5.083390712738 1.0750315189362 0.96706557273865
			vertex 5.083390712738 0.85503154993057 0.58601438999176
		endloop
	endfacet
	facet normal -0.95694008138776 -0.25139462230716 0.14514277284322
		outer loop
			vertex 5.393949508667 0.21999999880791 0.95265001058578
			vertex 5.393949508667 0.43999999761581 1.333701133728
			vertex 5.2871541976929 0.52488929033279 0.77662205696106
		endloop
	endfacet
	facet normal -0.95694008047324 -0.25139462623513 0.14514277206935
		outer loop
			vertex 5.393949508667 0.43999999761581 1.333701133728
			vertex 5.2871541976929 0.74488931894302 1.1576732397079
			vertex 5.2871541976929 0.52488929033279 0.77662205696106
		endloop
	endfacet
endsolid