solid csg_export
	facet normal 0 -1 0
		outer loop
			vertex 6.5 8.3211498260498 0.43999999761581
			vertex 6.521999835968 8.3211498260498 0.43999999761581
			vertex 6.5 8.3211498260498 0.66000002622604
		endloop
	endfacet
	facet normal 0 -1 0
		outer loop
			vertex 6.521999835968 8.3211498260498 0.43999999761581
			vertex 6.9180002212524 8.3211498260498 0.43999999761581
			vertex 6.5 8.3211498260498 0.66000002622604
		endloop
	endfacet
	facet normal 0 0 1
		outer loop
			vertex 6.5 8.3211498260498 0.66000002622604
			vertex 10.833250045776 8.3211498260498 0.66000002622604
			vertex 6.5 12.097793579102 0.66000002622604
		endloop
	endfacet
	facet normal 0 -1 0
		outer loop
			vertex 7.0500001907349 8.3211498260498 0.21999999880791
			vertex 10.833250045776 8.3211498260498 0.21999999880791
			vertex 6.9180002212524 8.3211498260498 0.43999999761581
		endloop
	endfacet
	facet normal 0 0 -1
		outer loop
			vertex 7.0500001907349 8.3211498260498 0.21999999880791
			vertex 6.8365745544434 9.0110912322998 0.21999999880791
			vertex 10.833250045776 8.3211498260498 0.21999999880791
		endloop
	endfacet
	facet normal 0 -1 0
		outer loop
			vertex 6.9180002212524 8.3211498260498 0.43999999761581
			vertex 10.833250045776 8.3211498260498 0.21999999880791
			vertex 6.5 8.3211498260498 0.66000002622604
		endloop
	endfacet
	facet normal 0 -1 0
		outer loop
			vertex 6.5 8.3211498260498 0.66000002622604
			vertex 10.833250045776 8.3211498260498 0.21999999880791
			vertex 10.833250045776 8.3211498260498 0.66000002622604
		endloop
	endfacet
	facet normal 0 0 -1
		outer loop
			vertex 6.8365745544434 9.0110912322998 0.21999999880791
			vertex 6.8365745544434 12.323433876038 0.21999999880791
			vertex 10.833250045776 8.3211498260498 0.21999999880791
		endloop
	endfacet
	facet normal 0 0 -1
		outer loop
			vertex 6.8365745544434 12.323433876038 0.21999999880791
			vertex 6.8365745544434 14.562000274658 0.21999999880791
			vertex 10.833250045776 8.3211498260498 0.21999999880791
		endloop
	endfacet
	facet normal -0 0 1
		outer loop
			vertex 6.5 12.097793579102 0.66000002622604
			vertex 10.833250045776 8.3211498260498 0.66000002622604
			vertex 8.2265996932983 13.773350715637 0.66000002622604
		endloop
	endfacet
	facet normal 0 0 -1
		outer loop
			vertex 10.833250045776 8.3211498260498 0.21999999880791
			vertex 6.8365745544434 14.562000274658 0.21999999880791
			vertex 8.2265996932983 13.519316673279 0.21999999880791
		endloop
	endfacet
	facet normal 0 0 -1
		outer loop
			vertex 10.833250045776 8.3211498260498 0.21999999880791
			vertex 8.2265996932983 13.519316673279 0.21999999880791
			vertex 8.666600227356 13.519316673279 0.21999999880791
		endloop
	endfacet
	facet normal 0 0 1
		outer loop
			vertex 10.833250045776 8.3211498260498 0.66000002622604
			vertex 8.666600227356 13.773350715637 0.66000002622604
			vertex 8.2265996932983 13.773350715637 0.66000002622604
		endloop
	endfacet
	facet normal 1 0 0
		outer loop
			vertex 10.833250045776 8.3211498260498 0.21999999880791
			vertex 10.833250045776 15.602149963379 0.66000002622604
			vertex 10.833250045776 8.3211498260498 0.66000002622604
		endloop
	endfacet
	facet normal -1 0 0
		outer loop
			vertex 6.4999499320984 12.323433876038 0.43999999761581
			vertex 6.4999499320984 12.097793579102 0.66000002622604
			vertex 6.4999499320984 14.562000274658 0.43999999761581
		endloop
	endfacet
	facet normal 0 0 1
		outer loop
			vertex 6.4999499320984 12.097793579102 0.66000002622604
			vertex 6.5 12.097793579102 0.66000002622604
			vertex 8.2265996932983 16.6422996521 0.66000002622604
		endloop
	endfacet
	facet normal 0 0 -1
		outer loop
			vertex 6.4999499320984 14.562000274658 0.21999999880791
			vertex 8.3957672119141 17.68244934082 0.21999999880791
			vertex 6.8365745544434 14.562000274658 0.21999999880791
		endloop
	endfacet
	facet normal 0 0 -1
		outer loop
			vertex 6.8365745544434 14.562000274658 0.21999999880791
			vertex 7.8900256156921 16.6422996521 0.21999999880791
			vertex 7.8900256156921 14.562000274658 0.21999999880791
		endloop
	endfacet
	facet normal 0 0 -1
		outer loop
			vertex 6.8365745544434 14.562000274658 0.21999999880791
			vertex 7.8900256156921 14.562000274658 0.21999999880791
			vertex 8.2265996932983 13.519316673279 0.21999999880791
		endloop
	endfacet
	facet normal 0 0 1
		outer loop
			vertex 6.5 12.097793579102 0.66000002622604
			vertex 8.2265996932983 13.773350715637 0.66000002622604
			vertex 8.2265996932983 16.6422996521 0.66000002622604
		endloop
	endfacet
	facet normal -1 0 0
		outer loop
			vertex 6.4999499320984 12.097793579102 0.66000002622604
			vertex 6.4999499320984 24.963449478149 0.66000002622604
			vertex 6.4999499320984 14.562000274658 0.43999999761581
		endloop
	endfacet
	facet normal -1 0 0
		outer loop
			vertex 6.4999499320984 14.562000274658 0.21999999880791
			vertex 6.4999499320984 14.562000274658 0.43999999761581
			vertex 6.4999499320984 24.963449478149 0.21999999880791
		endloop
	endfacet
	facet normal 0 0 1
		outer loop
			vertex 6.4999499320984 12.097793579102 0.66000002622604
			vertex 8.2265996932983 16.6422996521 0.66000002622604
			vertex 6.4999499320984 24.963449478149 0.66000002622604
		endloop
	endfacet
	facet normal 0 0 -1
		outer loop
			vertex 6.8365745544434 14.562000274658 0.21999999880791
			vertex 8.3957672119141 17.68244934082 0.21999999880791
			vertex 7.8900256156921 16.6422996521 0.21999999880791
		endloop
	endfacet
	facet normal -1 0 0
		outer loop
			vertex 6.4999499320984 14.562000274658 0.43999999761581
			vertex 6.4999499320984 24.963449478149 0.66000002622604
			vertex 6.4999499320984 24.963449478149 0.21999999880791
		endloop
	endfacet
	facet normal 0 0 -1
		outer loop
			vertex 6.4999499320984 14.562000274658 0.21999999880791
			vertex 6.4999499320984 24.963449478149 0.21999999880791
			vertex 8.3957672119141 17.68244934082 0.21999999880791
		endloop
	endfacet
	facet normal 0 0 1
		outer loop
			vertex 6.4999499320984 24.963449478149 0.66000002622604
			vertex 8.2265996932983 16.6422996521 0.66000002622604
			vertex 8.666600227356 16.6422996521 0.66000002622604
		endloop
	endfacet
	facet normal 0 1 0
		outer loop
			vertex 6.4999499320984 24.963449478149 0.21999999880791
			vertex 6.4999499320984 24.963449478149 0.66000002622604
			vertex 10.833250045776 24.963449478149 0.66000002622604
		endloop
	endfacet
	facet normal 0 0 -1
		outer loop
			vertex 7.8900256156921 14.562000274658 0.21999999880791
			vertex 8.2265996932983 14.562000274658 0.21999999880791
			vertex 8.2265996932983 13.519316673279 0.21999999880791
		endloop
	endfacet
	facet normal 0 0 -1
		outer loop
			vertex 10.833250045776 8.3211498260498 0.21999999880791
			vertex 8.666600227356 13.519316673279 0.21999999880791
			vertex 8.666600227356 16.354856491089 0.21999999880791
		endloop
	endfacet
	facet normal 0 0 1
		outer loop
			vertex 10.833250045776 8.3211498260498 0.66000002622604
			vertex 8.666600227356 16.6422996521 0.66000002622604
			vertex 8.666600227356 13.773350715637 0.66000002622604
		endloop
	endfacet
	facet normal 0 0 -1
		outer loop
			vertex 10.833250045776 8.3211498260498 0.21999999880791
			vertex 8.9374332427979 15.602149963379 0.21999999880791
			vertex 9.3266000747681 15.602149963379 0.21999999880791
		endloop
	endfacet
	facet normal 0 0 -1
		outer loop
			vertex 10.833250045776 8.3211498260498 0.21999999880791
			vertex 8.666600227356 16.354856491089 0.21999999880791
			vertex 8.9374332427979 15.602149963379 0.21999999880791
		endloop
	endfacet
	facet normal 0 0 -1
		outer loop
			vertex 7.8900256156921 16.6422996521 0.21999999880791
			vertex 8.3957672119141 17.68244934082 0.21999999880791
			vertex 8.2265996932983 16.6422996521 0.21999999880791
		endloop
	endfacet
	facet normal 0 0 -1
		outer loop
			vertex 8.2265996932983 16.6422996521 0.21999999880791
			vertex 8.3957672119141 17.68244934082 0.21999999880791
			vertex 8.666600227356 16.6422996521 0.21999999880791
		endloop
	endfacet
	facet normal 0 0 -1
		outer loop
			vertex 10.833250045776 8.3211498260498 0.21999999880791
			vertex 9.3266000747681 15.602149963379 0.21999999880791
			vertex 10.833250045776 15.602149963379 0.21999999880791
		endloop
	endfacet
	facet normal 0 -0 1
		outer loop
			vertex 10.833250045776 8.3211498260498 0.66000002622604
			vertex 10.833250045776 15.602149963379 0.66000002622604
			vertex 8.666600227356 16.6422996521 0.66000002622604
		endloop
	endfacet
	facet normal 1 0 0
		outer loop
			vertex 10.833250045776 8.3211498260498 0.21999999880791
			vertex 10.833250045776 15.602149963379 0.21999999880791
			vertex 10.833250045776 15.602149963379 0.66000002622604
		endloop
	endfacet
	facet normal 0 0 1
		outer loop
			vertex 6.4999499320984 24.963449478149 0.66000002622604
			vertex 8.666600227356 16.6422996521 0.66000002622604
			vertex 10.833250045776 15.602149963379 0.66000002622604
		endloop
	endfacet
	facet normal 0 0 1
		outer loop
			vertex 6.4999499320984 24.963449478149 0.66000002622604
			vertex 10.833250045776 15.602149963379 0.66000002622604
			vertex 10.833250045776 16.989030838013 0.66000002622604
		endloop
	endfacet
	facet normal 0 0 1
		outer loop
			vertex 6.4999499320984 24.963449478149 0.66000002622604
			vertex 10.833250045776 16.989030838013 0.66000002622604
			vertex 10.833250045776 17.68244934082 0.66000002622604
		endloop
	endfacet
	facet normal 0 0 -1
		outer loop
			vertex 6.4999499320984 24.963449478149 0.21999999880791
			vertex 10.833250045776 24.963449478149 0.21999999880791
			vertex 8.3957672119141 17.68244934082 0.21999999880791
		endloop
	endfacet
	facet normal -0 0 1
		outer loop
			vertex 6.4999499320984 24.963449478149 0.66000002622604
			vertex 10.833250045776 17.68244934082 0.66000002622604
			vertex 10.833250045776 24.963449478149 0.66000002622604
		endloop
	endfacet
	facet normal 0 1 0
		outer loop
			vertex 6.4999499320984 24.963449478149 0.21999999880791
			vertex 10.833250045776 24.963449478149 0.66000002622604
			vertex 10.833250045776 24.963449478149 0.21999999880791
		endloop
	endfacet
	facet normal 0 0 -1
		outer loop
			vertex 8.3957672119141 17.68244934082 0.21999999880791
			vertex 10.833250045776 24.963449478149 0.21999999880791
			vertex 10.833250045776 17.68244934082 0.21999999880791
		endloop
	endfacet
	facet normal 1 0 0
		outer loop
			vertex 10.833250045776 17.68244934082 0.21999999880791
			vertex 10.833250045776 24.963449478149 0.66000002622604
			vertex 10.833250045776 17.68244934082 0.66000002622604
		endloop
	endfacet
	facet normal 1 0 0
		outer loop
			vertex 10.833250045776 17.68244934082 0.21999999880791
			vertex 10.833250045776 24.963449478149 0.21999999880791
			vertex 10.833250045776 24.963449478149 0.66000002622604
		endloop
	endfacet
	facet normal 0 -0 1
		outer loop
			vertex 13 1.0401500463486 0.66000002622604
			vertex 13 2.0803000926971 0.66000002622604
			vertex 6.5 3.1204500198364 0.66000002622604
		endloop
	endfacet
	facet normal 0 -0 -1
		outer loop
			vertex 13 1.2611302137375 0.21999999880791
			vertex 13 1.0401500463486 0.21999999880791
			vertex 12.618499755859 1.1622476577759 0.21999999880791
		endloop
	endfacet
	facet normal 0 0 -1
		outer loop
			vertex 19.5 1.0401500463486 0.21999999880791
			vertex 13 1.0401500463486 0.21999999880791
			vertex 13 1.2611302137375 0.21999999880791
		endloop
	endfacet
	facet normal -0 -1 0
		outer loop
			vertex 19.5 1.0401500463486 0.66000002622604
			vertex 13 1.0401500463486 0.66000002622604
			vertex 13 1.0401500463486 0.21999999880791
		endloop
	endfacet
	facet normal 0 0 1
		outer loop
			vertex 19.5 1.0401500463486 0.66000002622604
			vertex 13 2.0803000926971 0.66000002622604
			vertex 13 1.0401500463486 0.66000002622604
		endloop
	endfacet
	facet normal 0 0 -1
		outer loop
			vertex 19.5 1.0401500463486 0.21999999880791
			vertex 13 1.2611302137375 0.21999999880791
			vertex 13 3.1204500198364 0.21999999880791
		endloop
	endfacet
	facet normal 0 0 1
		outer loop
			vertex 19.5 3.1204500198364 0.66000002622604
			vertex 13 3.1204500198364 0.66000002622604
			vertex 13 2.0803000926971 0.66000002622604
		endloop
	endfacet
	facet normal 0 1 0
		outer loop
			vertex 19.5 3.1204500198364 0.21999999880791
			vertex 13 3.1204500198364 0.21999999880791
			vertex 13 3.1204500198364 0.66000002622604
		endloop
	endfacet
	facet normal 0 -1 0
		outer loop
			vertex 19.5 1.0401500463486 0.21999999880791
			vertex 19.5 1.0401500463486 0.66000002622604
			vertex 13 1.0401500463486 0.21999999880791
		endloop
	endfacet
	facet normal 0 -0 1
		outer loop
			vertex 19.5 1.0401500463486 0.66000002622604
			vertex 19.5 3.1204500198364 0.66000002622604
			vertex 13 2.0803000926971 0.66000002622604
		endloop
	endfacet
	facet normal 0 0 -1
		outer loop
			vertex 19.5 1.0401500463486 0.21999999880791
			vertex 13 3.1204500198364 0.21999999880791
			vertex 19.5 3.1204500198364 0.21999999880791
		endloop
	endfacet
	facet normal 0 1 -0
		outer loop
			vertex 19.5 3.1204500198364 0.21999999880791
			vertex 13 3.1204500198364 0.66000002622604
			vertex 19.5 3.1204500198364 0.66000002622604
		endloop
	endfacet
	facet normal 1 0 0
		outer loop
			vertex 19.5 1.0401500463486 0.21999999880791
			vertex 19.5 3.1204500198364 0.21999999880791
			vertex 19.5 1.0401500463486 0.66000002622604
		endloop
	endfacet
	facet normal 1 -0 0
		outer loop
			vertex 19.5 1.0401500463486 0.66000002622604
			vertex 19.5 3.1204500198364 0.21999999880791
			vertex 19.5 3.1204500198364 0.66000002622604
		endloop
	endfacet
	facet normal 0 0 -1
		outer loop
			vertex 8.666600227356 16.6422996521 0.21999999880791
			vertex 9.2032251358032 15.89380645752 0.21999999880791
			vertex 9.1668577194214 15.853900909424 0.21999999880791
		endloop
	endfacet
	facet normal 0 0 -1
		outer loop
			vertex 9.3266000747681 15.602149963379 0.21999999880791
			vertex 9.2032251358032 15.89380645752 0.21999999880791
			vertex 10.833250045776 15.602149963379 0.21999999880791
		endloop
	endfacet
	facet normal 0 0 -1
		outer loop
			vertex 8.666600227356 16.6422996521 0.21999999880791
			vertex 10.833250045776 17.68244934082 0.21999999880791
			vertex 9.2032251358032 15.89380645752 0.21999999880791
		endloop
	endfacet
	facet normal 0 0 -1
		outer loop
			vertex 8.666600227356 16.6422996521 0.21999999880791
			vertex 8.3957672119141 17.68244934082 0.21999999880791
			vertex 10.833250045776 17.68244934082 0.21999999880791
		endloop
	endfacet
	facet normal 0 -1 0
		outer loop
			vertex 10.833250045776 15.602149963379 0.21999999880791
			vertex 19.5 15.602149963379 0.21999999880791
			vertex 10.833250045776 15.602149963379 0.66000002622604
		endloop
	endfacet
	facet normal 0 0 -1
		outer loop
			vertex 9.2032251358032 15.89380645752 0.21999999880791
			vertex 19.5 17.68244934082 0.21999999880791
			vertex 10.833250045776 15.602149963379 0.21999999880791
		endloop
	endfacet
	facet normal 0 0 -1
		outer loop
			vertex 9.2032251358032 15.89380645752 0.21999999880791
			vertex 10.833250045776 17.68244934082 0.21999999880791
			vertex 19.5 17.68244934082 0.21999999880791
		endloop
	endfacet
	facet normal 0 0 1
		outer loop
			vertex 10.833250045776 15.602149963379 0.66000002622604
			vertex 19.5 15.602149963379 0.66000002622604
			vertex 10.833250045776 16.989030838013 0.66000002622604
		endloop
	endfacet
	facet normal 0 0 1
		outer loop
			vertex 10.833250045776 16.989030838013 0.66000002622604
			vertex 19.5 17.68244934082 0.66000002622604
			vertex 10.833250045776 17.68244934082 0.66000002622604
		endloop
	endfacet
	facet normal 0 1 0
		outer loop
			vertex 10.833250045776 17.68244934082 0.21999999880791
			vertex 10.833250045776 17.68244934082 0.66000002622604
			vertex 19.5 17.68244934082 0.66000002622604
		endloop
	endfacet
	facet normal 0 -1 0
		outer loop
			vertex 10.833250045776 15.602149963379 0.66000002622604
			vertex 19.5 15.602149963379 0.21999999880791
			vertex 19.5 15.602149963379 0.66000002622604
		endloop
	endfacet
	facet normal 0 0 -1
		outer loop
			vertex 10.833250045776 15.602149963379 0.21999999880791
			vertex 19.5 17.68244934082 0.21999999880791
			vertex 19.5 15.602149963379 0.21999999880791
		endloop
	endfacet
	facet normal -0 0 1
		outer loop
			vertex 10.833250045776 16.989030838013 0.66000002622604
			vertex 19.5 15.602149963379 0.66000002622604
			vertex 19.5 17.68244934082 0.66000002622604
		endloop
	endfacet
	facet normal 0 1 0
		outer loop
			vertex 10.833250045776 17.68244934082 0.21999999880791
			vertex 19.5 17.68244934082 0.66000002622604
			vertex 19.5 17.68244934082 0.21999999880791
		endloop
	endfacet
	facet normal 1 0 0
		outer loop
			vertex 19.5 15.602149963379 0.21999999880791
			vertex 19.5 17.68244934082 0.21999999880791
			vertex 19.5 15.602149963379 0.66000002622604
		endloop
	endfacet
	facet normal 1 -0 0
		outer loop
			vertex 19.5 15.602149963379 0.66000002622604
			vertex 19.5 17.68244934082 0.21999999880791
			vertex 19.5 17.68244934082 0.66000002622604
		endloop
	endfacet
	facet normal 0 0 -1
		outer loop
			vertex 6.5 8.3226146697998 0.43999999761581
			vertex 6.521999835968 8.3211498260498 0.43999999761581
			vertex 6.5 8.3211498260498 0.43999999761581
		endloop
	endfacet
	facet normal 0 0 -1
		outer loop
			vertex 6.5 8.3226146697998 0.43999999761581
			vertex 6.4999499320984 12.323433876038 0.43999999761581
			vertex 6.521999835968 8.3211498260498 0.43999999761581
		endloop
	endfacet
	facet normal 0 0 -1
		outer loop
			vertex 6.521999835968 8.3211498260498 0.43999999761581
			vertex 6.4999499320984 12.323433876038 0.43999999761581
			vertex 6.521999835968 12.323433876038 0.43999999761581
		endloop
	endfacet
	facet normal 0 0 -1
		outer loop
			vertex 6.4999499320984 12.323433876038 0.43999999761581
			vertex 6.4999499320984 14.562000274658 0.43999999761581
			vertex 6.521999835968 12.323433876038 0.43999999761581
		endloop
	endfacet
	facet normal 0 0 -1
		outer loop
			vertex 6.521999835968 12.323433876038 0.43999999761581
			vertex 6.4999499320984 14.562000274658 0.43999999761581
			vertex 6.7129998207092 14.562000274658 0.43999999761581
		endloop
	endfacet
	facet normal -0.87187217434084 0 -0.48973351080989
		outer loop
			vertex 6.8365745544434 12.323433876038 0.21999999880791
			vertex 6.7129998207092 12.323433876038 0.43999999761581
			vertex 6.8365745544434 14.562000274658 0.21999999880791
		endloop
	endfacet
	facet normal 0 0 -1
		outer loop
			vertex 6.521999835968 12.323433876038 0.43999999761581
			vertex 6.7129998207092 14.562000274658 0.43999999761581
			vertex 6.7129998207092 12.323433876038 0.43999999761581
		endloop
	endfacet
	facet normal -0.87187217434084 0 -0.48973351080989
		outer loop
			vertex 6.7129998207092 12.323433876038 0.43999999761581
			vertex 6.7129998207092 14.562000274658 0.43999999761581
			vertex 6.8365745544434 14.562000274658 0.21999999880791
		endloop
	endfacet
	facet normal 0 -1 0
		outer loop
			vertex 6.4999499320984 14.562000274658 0.21999999880791
			vertex 6.7129998207092 14.562000274658 0.43999999761581
			vertex 6.4999499320984 14.562000274658 0.43999999761581
		endloop
	endfacet
	facet normal 0 -1 0
		outer loop
			vertex 6.4999499320984 14.562000274658 0.21999999880791
			vertex 6.8365745544434 14.562000274658 0.21999999880791
			vertex 6.7129998207092 14.562000274658 0.43999999761581
		endloop
	endfacet
	facet normal 0 0 0
		outer loop
			vertex 7.8900256156921 14.562000274658 0.21999999880791
			vertex 8.0136003494263 14.562000274658 0.43999999761581
			vertex 8.0136003494263 14.562000274658 0.43999999761581
		endloop
	endfacet
	facet normal 0.87187217434084 0 -0.48973351080989
		outer loop
			vertex 7.8900256156921 14.562000274658 0.21999999880791
			vertex 8.0136003494263 16.6422996521 0.43999999761581
			vertex 8.0136003494263 14.562000274658 0.43999999761581
		endloop
	endfacet
	facet normal 0 0 0
		outer loop
			vertex 8.0136003494263 14.562000274658 0.43999999761581
			vertex 8.0136003494263 14.562000274658 0.43999999761581
			vertex 8.0136003494263 16.6422996521 0.43999999761581
		endloop
	endfacet
	facet normal 0.87187217434084 0 -0.48973351080989
		outer loop
			vertex 7.8900256156921 14.562000274658 0.21999999880791
			vertex 7.8900256156921 16.6422996521 0.21999999880791
			vertex 8.0136003494263 16.6422996521 0.43999999761581
		endloop
	endfacet
	facet normal 0 0 0
		outer loop
			vertex 8.0136003494263 14.562000274658 0.43999999761581
			vertex 8.0136003494263 16.6422996521 0.43999999761581
			vertex 8.0136003494263 16.6422996521 0.43999999761581
		endloop
	endfacet
	facet normal 0 0 0
		outer loop
			vertex 7.8900256156921 16.6422996521 0.21999999880791
			vertex 8.0136003494263 16.6422996521 0.43999999761581
			vertex 8.0136003494263 16.6422996521 0.43999999761581
		endloop
	endfacet
	facet normal 0 1 0
		outer loop
			vertex 7.8900256156921 14.562000274658 0.21999999880791
			vertex 8.0136003494263 14.562000274658 0.43999999761581
			vertex 8.2265996932983 14.562000274658 0.21999999880791
		endloop
	endfacet
	facet normal -0 1 0
		outer loop
			vertex 8.0136003494263 14.562000274658 0.43999999761581
			vertex 8.2265996932983 14.562000274658 0.43999999761581
			vertex 8.2265996932983 14.562000274658 0.21999999880791
		endloop
	endfacet
	facet normal 0 0 -1
		outer loop
			vertex 8.0136003494263 14.562000274658 0.43999999761581
			vertex 8.0136003494263 16.6422996521 0.43999999761581
			vertex 8.2265996932983 14.562000274658 0.43999999761581
		endloop
	endfacet
	facet normal 0 0 -1
		outer loop
			vertex 8.0136003494263 16.6422996521 0.43999999761581
			vertex 8.2265996932983 16.6422996521 0.43999999761581
			vertex 8.2265996932983 14.562000274658 0.43999999761581
		endloop
	endfacet
	facet normal 0 -1 0
		outer loop
			vertex 7.8900256156921 16.6422996521 0.21999999880791
			vertex 8.2265996932983 16.6422996521 0.43999999761581
			vertex 8.0136003494263 16.6422996521 0.43999999761581
		endloop
	endfacet
	facet normal 0 -1 0
		outer loop
			vertex 7.8900256156921 16.6422996521 0.21999999880791
			vertex 8.2265996932983 16.6422996521 0.21999999880791
			vertex 8.2265996932983 16.6422996521 0.43999999761581
		endloop
	endfacet
	facet normal -1 0 0
		outer loop
			vertex 6.5 1.0401500463486 0.21999999880791
			vertex 6.5 1.0401500463486 0.43999999761581
			vertex 6.5 2.0803000926971 0.40333333611488
		endloop
	endfacet
	facet normal -1 0 0
		outer loop
			vertex 6.5 1.0401500463486 0.21999999880791
			vertex 6.5 2.0803000926971 0.40333333611488
			vertex 6.5 2.0803000926971 0.21999999880791
		endloop
	endfacet
	facet normal -1 0 0
		outer loop
			vertex 6.5 2.0803000926971 0.40333333611488
			vertex 6.5 1.0401500463486 0.43999999761581
			vertex 6.5 3.1204500198364 0.40333333611488
		endloop
	endfacet
	facet normal -1 0 0
		outer loop
			vertex 6.5 1.0401500463486 0.43999999761581
			vertex 6.5 3.1204500198364 0.43999999761581
			vertex 6.5 3.1204500198364 0.40333333611488
		endloop
	endfacet
	facet normal -0 1 0
		outer loop
			vertex 6.5 3.1204500198364 0.43999999761581
			vertex 6.521999835968 3.1204500198364 0.43999999761581
			vertex 6.5 3.1204500198364 0.40333333611488
		endloop
	endfacet
	facet normal 0 1 0
		outer loop
			vertex 6.5 3.1204500198364 0.43999999761581
			vertex 6.5 3.1204500198364 0.66000002622604
			vertex 6.521999835968 3.1204500198364 0.43999999761581
		endloop
	endfacet
	facet normal 0 1 0
		outer loop
			vertex 6.9180002212524 3.1204500198364 0.43999999761581
			vertex 6.521999835968 3.1204500198364 0.43999999761581
			vertex 6.5 3.1204500198364 0.66000002622604
		endloop
	endfacet
	facet normal 0 -1 0
		outer loop
			vertex 6.5 1.0401500463486 0.21999999880791
			vertex 13 1.0401500463486 0.21999999880791
			vertex 6.5 1.0401500463486 0.43999999761581
		endloop
	endfacet
	facet normal 0 0 -1
		outer loop
			vertex 6.5 1.0401500463486 0.21999999880791
			vertex 6.5 2.0803000926971 0.21999999880791
			vertex 12.618499755859 1.1622476577759 0.21999999880791
		endloop
	endfacet
	facet normal 0 -1 0
		outer loop
			vertex 6.5 1.0401500463486 0.43999999761581
			vertex 13 1.0401500463486 0.21999999880791
			vertex 6.5 1.0401500463486 0.66000002622604
		endloop
	endfacet
	facet normal 0 0 -1
		outer loop
			vertex 6.5 2.2072968482971 0.21999999880791
			vertex 12.618499755859 1.1622476577759 0.21999999880791
			vertex 6.5 2.0803000926971 0.21999999880791
		endloop
	endfacet
	facet normal 0 0 -1
		outer loop
			vertex 6.5 2.2072968482971 0.21999999880791
			vertex 7.0464262962341 2.9455683231354 0.21999999880791
			vertex 12.618499755859 1.1622476577759 0.21999999880791
		endloop
	endfacet
	facet normal 0 0 1
		outer loop
			vertex 6.5 3.1204500198364 0.66000002622604
			vertex 6.5 1.0401500463486 0.66000002622604
			vertex 13 1.0401500463486 0.66000002622604
		endloop
	endfacet
	facet normal 0 0 -1
		outer loop
			vertex 7.0464262962341 2.9455683231354 0.21999999880791
			vertex 7.0500001907349 3.1204500198364 0.21999999880791
			vertex 13 3.1204500198364 0.21999999880791
		endloop
	endfacet
	facet normal 0 1 -0
		outer loop
			vertex 6.9180002212524 3.1204500198364 0.43999999761581
			vertex 6.5 3.1204500198364 0.66000002622604
			vertex 13 3.1204500198364 0.66000002622604
		endloop
	endfacet
	facet normal -0 1 0
		outer loop
			vertex 6.9180002212524 3.1204500198364 0.43999999761581
			vertex 13 3.1204500198364 0.66000002622604
			vertex 7.0500001907349 3.1204500198364 0.21999999880791
		endloop
	endfacet
	facet normal 0 0 -1
		outer loop
			vertex 6.5 1.0401500463486 0.21999999880791
			vertex 12.618499755859 1.1622476577759 0.21999999880791
			vertex 13 1.0401500463486 0.21999999880791
		endloop
	endfacet
	facet normal 0 -1 0
		outer loop
			vertex 13 1.0401500463486 0.21999999880791
			vertex 13 1.0401500463486 0.66000002622604
			vertex 6.5 1.0401500463486 0.66000002622604
		endloop
	endfacet
	facet normal 0 0 -1
		outer loop
			vertex 7.0464262962341 2.9455683231354 0.21999999880791
			vertex 13 3.1204500198364 0.21999999880791
			vertex 12.618499755859 1.1622476577759 0.21999999880791
		endloop
	endfacet
	facet normal 0 -0 1
		outer loop
			vertex 13 2.0803000926971 0.66000002622604
			vertex 13 3.1204500198364 0.66000002622604
			vertex 6.5 3.1204500198364 0.66000002622604
		endloop
	endfacet
	facet normal 0 1 0
		outer loop
			vertex 7.0500001907349 3.1204500198364 0.21999999880791
			vertex 13 3.1204500198364 0.66000002622604
			vertex 13 3.1204500198364 0.21999999880791
		endloop
	endfacet
	facet normal -0 0 -1
		outer loop
			vertex 13 1.2611302137375 0.21999999880791
			vertex 12.618499755859 1.1622476577759 0.21999999880791
			vertex 13 3.1204500198364 0.21999999880791
		endloop
	endfacet
	facet normal -0.85749297695976 0 0.51449567001548
		outer loop
			vertex 6.1700000762939 0 -0.21999999880791
			vertex 6.3020000457764 0 0
			vertex 6.1700000762939 2.0803000926971 -0.21999999880791
		endloop
	endfacet
	facet normal 0 -1 0
		outer loop
			vertex 6.1700000762939 0 -0.21999999880791
			vertex 6.6979999542236 0 0
			vertex 6.3020000457764 0 0
		endloop
	endfacet
	facet normal 0 -1 0
		outer loop
			vertex 6.1700000762939 0 -0.21999999880791
			vertex 6.8299999237061 0 -0.21999999880791
			vertex 6.6979999542236 0 0
		endloop
	endfacet
	facet normal 0 0 1
		outer loop
			vertex 6.3020000457764 0 0
			vertex 6.6979999542236 0 0
			vertex 6.3020000457764 2.0803000926971 0
		endloop
	endfacet
	facet normal 0 0 -1
		outer loop
			vertex 6.1700000762939 0 -0.21999999880791
			vertex 6.8299999237061 2.0803000926971 -0.21999999880791
			vertex 6.8299999237061 0 -0.21999999880791
		endloop
	endfacet
	facet normal -0.85749297695976 0 0.51449567001548
		outer loop
			vertex 6.3020000457764 0 0
			vertex 6.3020000457764 2.0803000926971 0
			vertex 6.1700000762939 2.0803000926971 -0.21999999880791
		endloop
	endfacet
	facet normal 0 0 -1
		outer loop
			vertex 6.1700000762939 0 -0.21999999880791
			vertex 6.1700000762939 2.0803000926971 -0.21999999880791
			vertex 6.8299999237061 2.0803000926971 -0.21999999880791
		endloop
	endfacet
	facet normal 0 -0 1
		outer loop
			vertex 6.6979999542236 0 0
			vertex 6.6979999542236 2.0803000926971 0
			vertex 6.3020000457764 2.0803000926971 0
		endloop
	endfacet
	facet normal 0.85749297695976 -0 0.51449567001548
		outer loop
			vertex 6.6979999542236 0 0
			vertex 6.8299999237061 0 -0.21999999880791
			vertex 6.6979999542236 2.0803000926971 0
		endloop
	endfacet
	facet normal 0.85749297695976 -0 0.51449567001548
		outer loop
			vertex 6.8299999237061 0 -0.21999999880791
			vertex 6.8299999237061 2.0803000926971 -0.21999999880791
			vertex 6.6979999542236 2.0803000926971 0
		endloop
	endfacet
	facet normal 0 1 0
		outer loop
			vertex 6.1700000762939 2.0803000926971 -0.21999999880791
			vertex 6.3020000457764 2.0803000926971 0
			vertex 6.6979999542236 2.0803000926971 0
		endloop
	endfacet
	facet normal 0 1 0
		outer loop
			vertex 6.1700000762939 2.0803000926971 -0.21999999880791
			vertex 6.6979999542236 2.0803000926971 0
			vertex 6.8299999237061 2.0803000926971 -0.21999999880791
		endloop
	endfacet
	facet normal 0 0 -1
		outer loop
			vertex 6.7071213722229 0.21999999880791 6.2357001304626
			vertex 6.5 0.21999999880791 6.2357001304626
			vertex 6.5 0.40333333611488 6.2357001304626
		endloop
	endfacet
	facet normal 0 0 -1
		outer loop
			vertex 6.5 0.40333333611488 6.2357001304626
			vertex 6.7129998207092 0.43999999761581 6.2357001304626
			vertex 6.5 0.21999999880791 6.2357001304626
		endloop
	endfacet
	facet normal 0 0 -1
		outer loop
			vertex 6.7071213722229 0.21999999880791 6.2357001304626
			vertex 6.5 0.40333333611488 6.2357001304626
			vertex 6.521999835968 0.43999999761581 6.2357001304626
		endloop
	endfacet
	facet normal 0 0 -1
		outer loop
			vertex 6.5 0.21999999880791 6.2357001304626
			vertex 6.5 0.43999999761581 6.2357001304626
			vertex 6.7129998207092 0.43999999761581 6.2357001304626
		endloop
	endfacet
	facet normal 0 -0 -1
		outer loop
			vertex 6.521999835968 0.43999999761581 6.2357001304626
			vertex 6.7129998207092 0.43999999761581 6.2357001304626
			vertex 6.5 0.40333333611488 6.2357001304626
		endloop
	endfacet
	facet normal 0 0 -1
		outer loop
			vertex 6.7071213722229 0.21999999880791 6.2357001304626
			vertex 6.521999835968 0.43999999761581 6.2357001304626
			vertex 6.7129998207092 0.43999999761581 6.2357001304626
		endloop
	endfacet
	facet normal 0 0 -1
		outer loop
			vertex 6.5 0.21999999880791 6.2357001304626
			vertex 6.7129998207092 0.43999999761581 6.2357001304626
			vertex 6.8365745544434 0.21999999880791 6.2357001304626
		endloop
	endfacet
	facet normal 0 0 -1
		outer loop
			vertex 6.8365745544434 0.21999999880791 6.2357001304626
			vertex 6.5 0.21999999880791 6.2357001304626
			vertex 6.7129998207092 0.43999999761581 6.2357001304626
		endloop
	endfacet
	facet normal -0 0 -1
		outer loop
			vertex 6.9180002212524 0.43999999761581 6.2357001304626
			vertex 6.7071213722229 0.21999999880791 6.2357001304626
			vertex 6.7129998207092 0.43999999761581 6.2357001304626
		endloop
	endfacet
	facet normal 0 0 -1
		outer loop
			vertex 6.7071213722229 0.21999999880791 6.2357001304626
			vertex 6.9180002212524 0.43999999761581 6.2357001304626
			vertex 6.8365745544434 0.21999999880791 6.2357001304626
		endloop
	endfacet
	facet normal 0 -0 -1
		outer loop
			vertex 6.9180002212524 0.43999999761581 6.2357001304626
			vertex 7.0500001907349 0.21999999880791 6.2357001304626
			vertex 6.8365745544434 0.21999999880791 6.2357001304626
		endloop
	endfacet
	facet normal -1 0 0
		outer loop
			vertex 6.5 0.40333333611488 6.2357001304626
			vertex 6.5 0.21999999880791 6.2357001304626
			vertex 6.5 0.40333333611488 12.026399612427
		endloop
	endfacet
	facet normal -1 0 0
		outer loop
			vertex 6.5 0.40333333611488 6.2357001304626
			vertex 6.5 0.21999999880791 6.2357001304626
			vertex 6.5 0.40333333611488 12.026399612427
		endloop
	endfacet
	facet normal -1 0 0
		outer loop
			vertex 6.5 0.21999999880791 6.2357001304626
			vertex 6.5 0.43999999761581 12.026399612427
			vertex 6.5 0.43999999761581 6.2357001304626
		endloop
	endfacet
	facet normal -1 0 0
		outer loop
			vertex 6.5 0.21999999880791 6.2357001304626
			vertex 6.5 0.43999999761581 12.471400260925
			vertex 6.5 0.43999999761581 6.2357001304626
		endloop
	endfacet
	facet normal 0 -1 0
		outer loop
			vertex 6.5 0.21999999880791 6.2357001304626
			vertex 6.8365745544434 0.21999999880791 6.2357001304626
			vertex 6.5 0.21999999880791 12.471400260925
		endloop
	endfacet
	facet normal -0.20133935258272 -0.97903100447857 0.030996086385954
		outer loop
			vertex 6.8365745544434 0.21999999880791 8.4219665527344
			vertex 6.5 0.40333333611488 12.026399612427
			vertex 6.5 0.21999999880791 6.2357001304626
		endloop
	endfacet
	facet normal 0 0 -1
		outer loop
			vertex 6.5 0.21999999880791 6.2357001304626
			vertex 6.5 0.43999999761581 6.2357001304626
			vertex 13 0.21999999880791 6.2357001304626
		endloop
	endfacet
	facet normal 0 0 -1
		outer loop
			vertex 13 0.21999999880791 6.2357001304626
			vertex 6.5 0.43999999761581 6.2357001304626
			vertex 6.5 0.66000002622604 6.2357001304626
		endloop
	endfacet
	facet normal 0 0 -1
		outer loop
			vertex 13 0.21999999880791 6.2357001304626
			vertex 6.5 0.66000002622604 6.2357001304626
			vertex 13 0.66000002622604 6.2357001304626
		endloop
	endfacet
	facet normal -1 0 0
		outer loop
			vertex 6.5 0.21999999880791 12.026399612427
			vertex 6.5 0.40333333611488 12.026399612427
			vertex 6.5 0.21999999880791 6.2357001304626
		endloop
	endfacet
	facet normal -1 0 0
		outer loop
			vertex 6.5 0.21999999880791 6.2357001304626
			vertex 6.5 0.21999999880791 12.471400260925
			vertex 6.5 0.43999999761581 12.471400260925
		endloop
	endfacet
	facet normal 0 -1 0
		outer loop
			vertex 6.8365745544434 0.21999999880791 6.2357001304626
			vertex 6.8365745544434 0.21999999880791 12.471400260925
			vertex 6.5 0.21999999880791 12.471400260925
		endloop
	endfacet
	facet normal -0.99566858477663 0 -0.092973487021297
		outer loop
			vertex 6.5 0.21999999880791 12.026399612427
			vertex 6.5 0.26583334803581 12.026399612427
			vertex 6.8365745544434 0.21999999880791 8.4219665527344
		endloop
	endfacet
	facet normal -0.99566858477663 0 -0.092973487021297
		outer loop
			vertex 6.5 0.26583334803581 12.026399612427
			vertex 6.5 0.40333333611488 12.026399612427
			vertex 6.8365745544434 0.21999999880791 8.4219665527344
		endloop
	endfacet
	facet normal -1 0 0
		outer loop
			vertex 6.5 0.21999999880791 6.2357001304626
			vertex 6.5 0.6393284201622 17.416286468506
			vertex 6.5 0.43999999761581 12.026399612427
		endloop
	endfacet
	facet normal 0 1 0
		outer loop
			vertex 6.946825504303 0.66000002622604 17.877880096436
			vertex 6.5 0.66000002622604 6.2357001304626
			vertex 6.5 0.66000002622604 11.811899185181
		endloop
	endfacet
	facet normal -1 0 0
		outer loop
			vertex 6.5 0.21999999880791 6.2357001304626
			vertex 6.5 0.21999999880791 16.689987182617
			vertex 6.5 0.6393284201622 17.416286468506
		endloop
	endfacet
	facet normal -1 0 -0
		outer loop
			vertex 6.5 0.6393284201622 17.416286468506
			vertex 6.5 0.66000002622604 11.811899185181
			vertex 6.5 0.43999999761581 12.026399612427
		endloop
	endfacet
	facet normal -0 1 0
		outer loop
			vertex 6.946825504303 0.66000002622604 17.877880096436
			vertex 7.4304656982422 0.66000002622604 18.581644058228
			vertex 6.5 0.66000002622604 6.2357001304626
		endloop
	endfacet
	facet normal -1 0 0
		outer loop
			vertex 6.5 0.6393284201622 17.416286468506
			vertex 6.5 0.66000002622604 17.658336639404
			vertex 6.5 0.66000002622604 11.811899185181
		endloop
	endfacet
	facet normal -0 1 0
		outer loop
			vertex 6.5 0.66000002622604 17.658336639404
			vertex 6.946825504303 0.66000002622604 17.877880096436
			vertex 6.5 0.66000002622604 11.811899185181
		endloop
	endfacet
	facet normal -0 1 0
		outer loop
			vertex 7.4304656982422 0.66000002622604 18.581644058228
			vertex 7.4835567474365 0.66000002622604 18.707099914551
			vertex 6.5 0.66000002622604 6.2357001304626
		endloop
	endfacet
	facet normal 0 -1 0
		outer loop
			vertex 6.5 0.21999999880791 6.2357001304626
			vertex 13 0.21999999880791 6.2357001304626
			vertex 6.5 0.21999999880791 16.689987182617
		endloop
	endfacet
	facet normal 0 -1 0
		outer loop
			vertex 6.5 0.21999999880791 16.689987182617
			vertex 13 0.21999999880791 6.2357001304626
			vertex 8.2174196243286 0.21999999880791 16.689987182617
		endloop
	endfacet
	facet normal 0 -1 0
		outer loop
			vertex 8.2174196243286 0.21999999880791 16.689987182617
			vertex 13 0.21999999880791 6.2357001304626
			vertex 8.5448770523071 0.21999999880791 17.958868026733
		endloop
	endfacet
	facet normal 0 1 -0
		outer loop
			vertex 13 0.66000002622604 6.2357001304626
			vertex 6.5 0.66000002622604 6.2357001304626
			vertex 13 0.66000002622604 18.707099914551
		endloop
	endfacet
	facet normal -0 1 0
		outer loop
			vertex 7.4835567474365 0.66000002622604 18.707099914551
			vertex 13 0.66000002622604 18.707099914551
			vertex 6.5 0.66000002622604 6.2357001304626
		endloop
	endfacet
	facet normal -0 0 1
		outer loop
			vertex 7.4835567474365 0.66000002622604 18.707099914551
			vertex 7.8819732666016 0.57096284627914 18.707099914551
			vertex 13 0.66000002622604 18.707099914551
		endloop
	endfacet
	facet normal -0 0 1
		outer loop
			vertex 7.8819732666016 0.57096284627914 18.707099914551
			vertex 8.2927398681641 0.43319845199585 18.707099914551
			vertex 13 0.66000002622604 18.707099914551
		endloop
	endfacet
	facet normal 0 -1 0
		outer loop
			vertex 8.5448770523071 0.21999999880791 17.958868026733
			vertex 13 0.21999999880791 6.2357001304626
			vertex 13 0.21999999880791 18.707099914551
		endloop
	endfacet
	facet normal -0 -0 1
		outer loop
			vertex 8.6586170196533 0.25799915194511 18.707099914551
			vertex 13 0.21999999880791 18.707099914551
			vertex 8.2927398681641 0.43319845199585 18.707099914551
		endloop
	endfacet
	facet normal 0 -1 0
		outer loop
			vertex 8.5448770523071 0.21999999880791 17.958868026733
			vertex 13 0.21999999880791 18.707099914551
			vertex 8.7141256332397 0.21999999880791 18.707099914551
		endloop
	endfacet
	facet normal 0 -0 1
		outer loop
			vertex 8.7141256332397 0.21999999880791 18.707099914551
			vertex 13 0.21999999880791 18.707099914551
			vertex 8.6586170196533 0.25799915194511 18.707099914551
		endloop
	endfacet
	facet normal -0 0 1
		outer loop
			vertex 8.2927398681641 0.43319845199585 18.707099914551
			vertex 13 0.21999999880791 18.707099914551
			vertex 13 0.66000002622604 18.707099914551
		endloop
	endfacet
	facet normal 1 0 0
		outer loop
			vertex 13 0.21999999880791 6.2357001304626
			vertex 13 0.66000002622604 6.2357001304626
			vertex 13 0.21999999880791 18.707099914551
		endloop
	endfacet
	facet normal 1 0 -0
		outer loop
			vertex 13 0.66000002622604 6.2357001304626
			vertex 13 0.66000002622604 18.707099914551
			vertex 13 0.21999999880791 18.707099914551
		endloop
	endfacet
	facet normal -1 0 0
		outer loop
			vertex 6.5 0.66685056686401 13.186419487
			vertex 6.5 2.000551700592 14.616456985474
			vertex 6.5 1.0479017496109 12.966419219971
		endloop
	endfacet
	facet normal -1 0 0
		outer loop
			vertex 6.5 0.66685056686401 13.186419487
			vertex 6.5 1.6195006370544 14.836457252502
			vertex 6.5 2.000551700592 14.616456985474
		endloop
	endfacet
	facet normal 0 -0.5000004501615 -0.86602514388342
		outer loop
			vertex 6.5 0.66685056686401 13.186419487
			vertex 6.5 1.0479017496109 12.966419219971
			vertex 13 0.66685056686401 13.186419487
		endloop
	endfacet
	facet normal 0 -0.8660253305806 0.50000012679275
		outer loop
			vertex 6.5 0.66685056686401 13.186419487
			vertex 13 0.66685056686401 13.186419487
			vertex 6.5 1.6195006370544 14.836457252502
		endloop
	endfacet
	facet normal 0 -0.5000004501615 -0.86602514388342
		outer loop
			vertex 6.5 1.0479017496109 12.966419219971
			vertex 13 1.0479017496109 12.966419219971
			vertex 13 0.66685056686401 13.186419487
		endloop
	endfacet
	facet normal 0 0.866025357673 -0.50000007986735
		outer loop
			vertex 6.5 1.0479017496109 12.966419219971
			vertex 13 2.000551700592 14.616456985474
			vertex 13 1.0479017496109 12.966419219971
		endloop
	endfacet
	facet normal 0 0.866025357673 -0.50000007986735
		outer loop
			vertex 6.5 1.0479017496109 12.966419219971
			vertex 6.5 2.000551700592 14.616456985474
			vertex 13 2.000551700592 14.616456985474
		endloop
	endfacet
	facet normal -0 0.50000056747777 0.86602507615075
		outer loop
			vertex 6.5 1.6195006370544 14.836457252502
			vertex 13 1.6195006370544 14.836457252502
			vertex 6.5 2.000551700592 14.616456985474
		endloop
	endfacet
	facet normal 0 -0.8660253305806 0.50000012679275
		outer loop
			vertex 6.5 1.6195006370544 14.836457252502
			vertex 13 0.66685056686401 13.186419487
			vertex 13 1.6195006370544 14.836457252502
		endloop
	endfacet
	facet normal -0 0.50000056747777 0.86602507615075
		outer loop
			vertex 6.5 2.000551700592 14.616456985474
			vertex 13 1.6195006370544 14.836457252502
			vertex 13 2.000551700592 14.616456985474
		endloop
	endfacet
	facet normal 1 -0 0
		outer loop
			vertex 13 0.66685056686401 13.186419487
			vertex 13 1.0479017496109 12.966419219971
			vertex 13 1.6195006370544 14.836457252502
		endloop
	endfacet
	facet normal 1 0 0
		outer loop
			vertex 13 1.0479017496109 12.966419219971
			vertex 13 2.000551700592 14.616456985474
			vertex 13 1.6195006370544 14.836457252502
		endloop
	endfacet
	facet normal 0.87187217434084 0.48973351080989 0
		outer loop
			vertex 6.7129998207092 0.43999999761581 6.6502323150635
			vertex 6.8365745544434 0.21999999880791 6.2357001304626
			vertex 6.7129998207092 0.43999999761581 6.2357001304626
		endloop
	endfacet
	facet normal 0.87187217434084 0.48973351080989 0
		outer loop
			vertex 6.8365745544434 0.21999999880791 6.2357001304626
			vertex 6.7129998207092 0.43999999761581 6.2357001304626
			vertex 6.7129998207092 0.43999999761581 12.471400260925
		endloop
	endfacet
	facet normal 0.87187217434084 0.48973351080989 -0
		outer loop
			vertex 6.7129998207092 0.43999999761581 6.6502323150635
			vertex 6.7129998207092 0.43999999761581 12.026399612427
			vertex 6.8365745544434 0.21999999880791 6.2357001304626
		endloop
	endfacet
	facet normal 0 1 -0
		outer loop
			vertex 6.7129998207092 0.43999999761581 6.2357001304626
			vertex 6.5 0.43999999761581 6.2357001304626
			vertex 6.7129998207092 0.43999999761581 12.471400260925
		endloop
	endfacet
	facet normal 0.87187217434084 0.48973351080989 0
		outer loop
			vertex 6.8365745544434 0.21999999880791 8.4219665527344
			vertex 6.8365745544434 0.21999999880791 6.2357001304626
			vertex 6.7129998207092 0.43999999761581 12.026399612427
		endloop
	endfacet
	facet normal -0 1 0
		outer loop
			vertex 6.5 0.43999999761581 12.471400260925
			vertex 6.7129998207092 0.43999999761581 12.471400260925
			vertex 6.5 0.43999999761581 6.2357001304626
		endloop
	endfacet
	facet normal 0.87187217434084 0.48973351080989 -0
		outer loop
			vertex 6.8365745544434 0.21999999880791 6.2357001304626
			vertex 6.7129998207092 0.43999999761581 12.471400260925
			vertex 6.8365745544434 0.21999999880791 12.471400260925
		endloop
	endfacet
	facet normal 0.87187212025675 0.48973360709573 -7.7311219558024e-09
		outer loop
			vertex 6.8365745544434 0.21999999880791 8.4219665527344
			vertex 6.7129998207092 0.43999999761581 12.026399612427
			vertex 6.7518792152405 0.37078306078911 12.026399612427
		endloop
	endfacet
	facet normal 0.87187219916813 0.48973346660988 -0
		outer loop
			vertex 6.8365745544434 0.21999999880791 8.4219665527344
			vertex 6.7518792152405 0.37078306078911 12.026399612427
			vertex 6.8365745544434 0.21999999880791 12.026399612427
		endloop
	endfacet
	facet normal 0 0 1
		outer loop
			vertex 6.5 0.21999999880791 12.471400260925
			vertex 6.7129998207092 0.43999999761581 12.471400260925
			vertex 6.5 0.43999999761581 12.471400260925
		endloop
	endfacet
	facet normal 0 0 1
		outer loop
			vertex 6.5 0.21999999880791 12.471400260925
			vertex 6.8365745544434 0.21999999880791 12.471400260925
			vertex 6.7129998207092 0.43999999761581 12.471400260925
		endloop
	endfacet
	facet normal -0.041772715797448 -0.99550336884351 0.08501813239618
		outer loop
			vertex 6.5 0.6393284201622 17.416286468506
			vertex 6.9301743507385 0.61814415454865 17.379594802856
			vertex 6.5 0.66000002622604 17.658336639404
		endloop
	endfacet
	facet normal -1.6114259421631e-07 -0.86602574809788 0.49999940363113
		outer loop
			vertex 6.5 0.21999999880791 16.689987182617
			vertex 8.0591707229614 0.31641364097595 16.856981277466
			vertex 6.5 0.6393284201622 17.416286468506
		endloop
	endfacet
	facet normal -0.12694488429906 -0.98806592552066 0.087239458820567
		outer loop
			vertex 6.9301743507385 0.61814415454865 17.379594802856
			vertex 7.3438167572021 0.55540555715561 17.270927429199
			vertex 6.946825504303 0.66000002622604 17.877880096436
		endloop
	endfacet
	facet normal -0.041772792318506 -0.9955033756309 0.085018015322603
		outer loop
			vertex 6.5 0.66000002622604 17.658336639404
			vertex 6.9301743507385 0.61814415454865 17.379594802856
			vertex 6.946825504303 0.66000002622604 17.877880096436
		endloop
	endfacet
	facet normal -8.9069932086959e-07 -0.8660266287477 0.49999787829459
		outer loop
			vertex 6.5 0.6393284201622 17.416286468506
			vertex 8.0591707229614 0.31641364097595 16.856981277466
			vertex 6.9301743507385 0.61814415454865 17.379594802856
		endloop
	endfacet
	facet normal 2.0647887908516e-06 -0.86602386408328 0.50000266682688
		outer loop
			vertex 6.9301743507385 0.61814415454865 17.379594802856
			vertex 8.0591707229614 0.31641364097595 16.856981277466
			vertex 7.3438167572021 0.55540555715561 17.270927429199
		endloop
	endfacet
	facet normal 0 -0.86602639958081 0.49999827522613
		outer loop
			vertex 6.5 0.21999999880791 16.689987182617
			vertex 8.2174196243286 0.21999999880791 16.689987182617
			vertex 8.0591707229614 0.31641364097595 16.856981277466
		endloop
	endfacet
	facet normal -3.8527398486169e-06 -0.86602829217577 0.49999499711125
		outer loop
			vertex 7.3438167572021 0.55540555715561 17.270927429199
			vertex 8.0591707229614 0.31641364097595 16.856981277466
			vertex 7.7250323295593 0.45352363586426 17.094463348389
		endloop
	endfacet
	facet normal -0.12694523992836 -0.98806590074459 0.087239221943508
		outer loop
			vertex 6.946825504303 0.66000002622604 17.877880096436
			vertex 7.3438167572021 0.55540555715561 17.270927429199
			vertex 7.4304656982422 0.66000002622604 18.581644058228
		endloop
	endfacet
	facet normal -0.21717482591928 -0.97179649278317 0.091905775668699
		outer loop
			vertex 7.3438167572021 0.55540555715561 17.270927429199
			vertex 7.7250323295593 0.45352363586426 17.094463348389
			vertex 7.4835567474365 0.66000002622604 18.707099914551
		endloop
	endfacet
	facet normal -0.21717664984953 -0.97179607129294 0.091905922441075
		outer loop
			vertex 7.3438167572021 0.55540555715561 17.270927429199
			vertex 7.4835567474365 0.66000002622604 18.707099914551
			vertex 7.4304656982422 0.66000002622604 18.581644058228
		endloop
	endfacet
	facet normal -0.31639839264581 -0.94339444140908 0.09949364326224
		outer loop
			vertex 7.7250323295593 0.45352363586426 17.094463348389
			vertex 8.0591707229614 0.31641364097595 16.856981277466
			vertex 8.2927398681641 0.43319845199585 18.707099914551
		endloop
	endfacet
	facet normal -0.2171747803532 -0.97179650220678 0.091905783698313
		outer loop
			vertex 7.7250323295593 0.45352363586426 17.094463348389
			vertex 7.8819732666016 0.57096284627914 18.707099914551
			vertex 7.4835567474365 0.66000002622604 18.707099914551
		endloop
	endfacet
	facet normal -0.31639897968875 -0.94339422243845 0.099493852682842
		outer loop
			vertex 7.7250323295593 0.45352363586426 17.094463348389
			vertex 8.2927398681641 0.43319845199585 18.707099914551
			vertex 7.8819732666016 0.57096284627914 18.707099914551
		endloop
	endfacet
	facet normal -0.42922914171074 -0.89637732857156 0.11077016172762
		outer loop
			vertex 8.0591707229614 0.31641364097595 16.856981277466
			vertex 8.2174196243286 0.21999999880791 16.689987182617
			vertex 8.2927398681641 0.43319845199585 18.707099914551
		endloop
	endfacet
	facet normal -0.42923158131105 -0.89637606947344 0.11077089726354
		outer loop
			vertex 8.2174196243286 0.21999999880791 16.689987182617
			vertex 8.5448770523071 0.21999999880791 17.958868026733
			vertex 8.6586170196533 0.25799915194511 18.707099914551
		endloop
	endfacet
	facet normal -0.42922812909449 -0.8963778118216 0.11077017499295
		outer loop
			vertex 8.2174196243286 0.21999999880791 16.689987182617
			vertex 8.6586170196533 0.25799915194511 18.707099914551
			vertex 8.2927398681641 0.43319845199585 18.707099914551
		endloop
	endfacet
	facet normal -0.56032654082315 -0.81851691074443 0.12674476113259
		outer loop
			vertex 8.5448770523071 0.21999999880791 17.958868026733
			vertex 8.7141256332397 0.21999999880791 18.707099914551
			vertex 8.6586170196533 0.25799915194511 18.707099914551
		endloop
	endfacet
	facet normal 0 0 -1
		outer loop
			vertex 4.333300113678 13.3922996521 0
			vertex 4.7512998580933 14.562000274658 0
			vertex 4.7733001708984 13.3922996521 0
		endloop
	endfacet
	facet normal 0 0 -1
		outer loop
			vertex 4.333300113678 13.3922996521 0
			vertex 4.355299949646 14.562000274658 0
			vertex 4.7512998580933 14.562000274658 0
		endloop
	endfacet
	facet normal 0 0 -1
		outer loop
			vertex 4.333300113678 13.3922996521 0
			vertex 4.333300113678 16.6422996521 0
			vertex 4.355299949646 14.562000274658 0
		endloop
	endfacet
	facet normal 0 0 -1
		outer loop
			vertex 4.7733001708984 13.3922996521 0
			vertex 4.7512998580933 14.562000274658 0
			vertex 4.7733001708984 16.6422996521 0
		endloop
	endfacet
	facet normal 1 0 0
		outer loop
			vertex 4.7733001708984 13.3922996521 0
			vertex 4.7733001708984 15.602149963379 0.21999999880791
			vertex 4.7733001708984 15.602149963379 0.66000002622604
		endloop
	endfacet
	facet normal 1 0 0
		outer loop
			vertex 4.7733001708984 13.3922996521 0
			vertex 4.7733001708984 16.6422996521 0
			vertex 4.7733001708984 15.602149963379 0.21999999880791
		endloop
	endfacet
	facet normal 0 -0.86602540562975 0.49999999680383
		outer loop
			vertex 4.333300113678 13.3922996521 0
			vertex 4.7733001708984 13.3922996521 0
			vertex 4.7733001708984 16.6422996521 5.6291651725769
		endloop
	endfacet
	facet normal -1 0 0
		outer loop
			vertex 4.333300113678 13.3922996521 0
			vertex 4.333300113678 16.6422996521 5.6291651725769
			vertex 4.333300113678 16.6422996521 0
		endloop
	endfacet
	facet normal 1 0 0
		outer loop
			vertex 4.7733001708984 13.3922996521 0
			vertex 4.7733001708984 15.602149963379 0.66000002622604
			vertex 4.7733001708984 16.6422996521 5.6291651725769
		endloop
	endfacet
	facet normal 0 -0.86602540562975 0.49999999680383
		outer loop
			vertex 4.333300113678 13.3922996521 0
			vertex 4.7733001708984 16.6422996521 5.6291651725769
			vertex 4.333300113678 16.6422996521 5.6291651725769
		endloop
	endfacet
	facet normal 0 0 -1
		outer loop
			vertex 4.355299949646 14.562000274658 0
			vertex 4.333300113678 16.6422996521 0
			vertex 4.355299949646 16.6422996521 0
		endloop
	endfacet
	facet normal 0 1 0
		outer loop
			vertex 4.355299949646 16.6422996521 0
			vertex 4.5532999038696 16.6422996521 0.21999999880791
			vertex 4.7512998580933 16.6422996521 0
		endloop
	endfacet
	facet normal -0 1 0
		outer loop
			vertex 4.5532999038696 16.6422996521 0.21999999880791
			vertex 4.7733001708984 16.6422996521 0.21999999880791
			vertex 4.7512998580933 16.6422996521 0
		endloop
	endfacet
	facet normal 0 0 -1
		outer loop
			vertex 4.7512998580933 14.562000274658 0
			vertex 4.7512998580933 16.6422996521 0
			vertex 4.7733001708984 16.6422996521 0
		endloop
	endfacet
	facet normal 1 -0 0
		outer loop
			vertex 4.7733001708984 15.602149963379 0.21999999880791
			vertex 4.7733001708984 16.6422996521 0
			vertex 4.7733001708984 16.6422996521 0.21999999880791
		endloop
	endfacet
	facet normal 0 1 0
		outer loop
			vertex 4.7512998580933 16.6422996521 0
			vertex 4.7733001708984 16.6422996521 0.21999999880791
			vertex 4.7733001708984 16.6422996521 0
		endloop
	endfacet
	facet normal 0 1 0
		outer loop
			vertex 4.333300113678 16.6422996521 0
			vertex 4.333300113678 16.6422996521 5.6291651725769
			vertex 4.355299949646 16.6422996521 0
		endloop
	endfacet
	facet normal 0 1 -0
		outer loop
			vertex 4.355299949646 16.6422996521 0
			vertex 4.333300113678 16.6422996521 5.6291651725769
			vertex 4.5532999038696 16.6422996521 0.21999999880791
		endloop
	endfacet
	facet normal 0 1 -0
		outer loop
			vertex 4.5532999038696 16.6422996521 0.21999999880791
			vertex 4.333300113678 16.6422996521 5.6291651725769
			vertex 4.5532999038696 16.6422996521 0.66000002622604
		endloop
	endfacet
	facet normal 0 1 0
		outer loop
			vertex 4.5532999038696 16.6422996521 0.66000002622604
			vertex 4.7733001708984 16.6422996521 5.6291651725769
			vertex 4.7733001708984 16.6422996521 0.66000002622604
		endloop
	endfacet
	facet normal 1 0 0
		outer loop
			vertex 4.7733001708984 15.602149963379 0.66000002622604
			vertex 4.7733001708984 16.6422996521 0.66000002622604
			vertex 4.7733001708984 16.6422996521 5.6291651725769
		endloop
	endfacet
	facet normal 0 1 -0
		outer loop
			vertex 4.5532999038696 16.6422996521 0.66000002622604
			vertex 4.333300113678 16.6422996521 5.6291651725769
			vertex 4.7733001708984 16.6422996521 5.6291651725769
		endloop
	endfacet
	facet normal 0 -1 0
		outer loop
			vertex 4.7733001708984 15.602149963379 0.21999999880791
			vertex 5.4333000183105 15.602149963379 0.21999999880791
			vertex 4.7733001708984 15.602149963379 0.66000002622604
		endloop
	endfacet
	facet normal 0 -1 0
		outer loop
			vertex 4.7733001708984 15.602149963379 0.66000002622604
			vertex 5.4333000183105 15.602149963379 0.21999999880791
			vertex 5.4333000183105 15.602149963379 0.66000002622604
		endloop
	endfacet
	facet normal 0 0 -1
		outer loop
			vertex 4.5532999038696 16.6422996521 0.21999999880791
			vertex 4.5532999038696 17.68244934082 0.21999999880791
			vertex 4.7733001708984 16.6422996521 0.21999999880791
		endloop
	endfacet
	facet normal -1 0 0
		outer loop
			vertex 4.5532999038696 16.6422996521 0.21999999880791
			vertex 4.5532999038696 16.6422996521 0.66000002622604
			vertex 4.5532999038696 17.68244934082 0.66000002622604
		endloop
	endfacet
	facet normal 0 0 1
		outer loop
			vertex 4.5532999038696 16.6422996521 0.66000002622604
			vertex 4.7733001708984 16.6422996521 0.66000002622604
			vertex 4.5532999038696 17.68244934082 0.66000002622604
		endloop
	endfacet
	facet normal 0 0 -1
		outer loop
			vertex 4.7733001708984 15.602149963379 0.21999999880791
			vertex 4.7733001708984 16.6422996521 0.21999999880791
			vertex 5.4333000183105 15.602149963379 0.21999999880791
		endloop
	endfacet
	facet normal 0 0 1
		outer loop
			vertex 4.7733001708984 15.602149963379 0.66000002622604
			vertex 5.4333000183105 15.602149963379 0.66000002622604
			vertex 4.7733001708984 16.6422996521 0.66000002622604
		endloop
	endfacet
	facet normal 0 0 -1
		outer loop
			vertex 5.4333000183105 15.602149963379 0.21999999880791
			vertex 4.7733001708984 16.6422996521 0.21999999880791
			vertex 4.5532999038696 17.68244934082 0.21999999880791
		endloop
	endfacet
	facet normal 0 0 -1
		outer loop
			vertex 5.4333000183105 15.602149963379 0.21999999880791
			vertex 4.5532999038696 17.68244934082 0.21999999880791
			vertex 5.4333000183105 17.68244934082 0.21999999880791
		endloop
	endfacet
	facet normal 0 0 1
		outer loop
			vertex 5.4333000183105 15.602149963379 0.66000002622604
			vertex 4.5532999038696 17.68244934082 0.66000002622604
			vertex 4.7733001708984 16.6422996521 0.66000002622604
		endloop
	endfacet
	facet normal 0 -0 1
		outer loop
			vertex 5.4333000183105 15.602149963379 0.66000002622604
			vertex 5.4333000183105 17.68244934082 0.66000002622604
			vertex 4.5532999038696 17.68244934082 0.66000002622604
		endloop
	endfacet
	facet normal -1 0 0
		outer loop
			vertex 4.5532999038696 16.6422996521 0.21999999880791
			vertex 4.5532999038696 17.68244934082 0.66000002622604
			vertex 4.5532999038696 17.68244934082 0.21999999880791
		endloop
	endfacet
	facet normal 0 1 0
		outer loop
			vertex 4.5532999038696 17.68244934082 0.21999999880791
			vertex 5.4333000183105 17.68244934082 0.66000002622604
			vertex 5.4333000183105 17.68244934082 0.21999999880791
		endloop
	endfacet
	facet normal 0 1 0
		outer loop
			vertex 4.5532999038696 17.68244934082 0.21999999880791
			vertex 4.5532999038696 17.68244934082 0.66000002622604
			vertex 5.4333000183105 17.68244934082 0.66000002622604
		endloop
	endfacet
	facet normal 1 0 0
		outer loop
			vertex 5.4333000183105 15.602149963379 0.21999999880791
			vertex 5.4333000183105 17.68244934082 0.21999999880791
			vertex 5.4333000183105 15.602149963379 0.66000002622604
		endloop
	endfacet
	facet normal 1 -0 0
		outer loop
			vertex 5.4333000183105 15.602149963379 0.66000002622604
			vertex 5.4333000183105 17.68244934082 0.21999999880791
			vertex 5.4333000183105 17.68244934082 0.66000002622604
		endloop
	endfacet
	facet normal 0 -1 0
		outer loop
			vertex 4.2232999801636 14.562000274658 -0.21999999880791
			vertex 4.7512998580933 14.562000274658 0
			vertex 4.355299949646 14.562000274658 0
		endloop
	endfacet
	facet normal 0 -1 0
		outer loop
			vertex 4.2232999801636 14.562000274658 -0.21999999880791
			vertex 4.8832998275757 14.562000274658 -0.21999999880791
			vertex 4.7512998580933 14.562000274658 0
		endloop
	endfacet
	facet normal -0.85749297695976 0 0.51449567001548
		outer loop
			vertex 4.2232999801636 14.562000274658 -0.21999999880791
			vertex 4.355299949646 14.562000274658 0
			vertex 4.2232999801636 16.6422996521 -0.21999999880791
		endloop
	endfacet
	facet normal 0 0 -1
		outer loop
			vertex 4.2232999801636 14.562000274658 -0.21999999880791
			vertex 4.8832998275757 16.6422996521 -0.21999999880791
			vertex 4.8832998275757 14.562000274658 -0.21999999880791
		endloop
	endfacet
	facet normal 0.85749297695976 0 0.51449567001548
		outer loop
			vertex 4.8832998275757 14.562000274658 -0.21999999880791
			vertex 4.7512998580933 16.6422996521 0
			vertex 4.7512998580933 14.562000274658 0
		endloop
	endfacet
	facet normal -0.85749297695976 0 0.51449567001548
		outer loop
			vertex 4.355299949646 14.562000274658 0
			vertex 4.355299949646 16.6422996521 0
			vertex 4.2232999801636 16.6422996521 -0.21999999880791
		endloop
	endfacet
	facet normal 0 0 -1
		outer loop
			vertex 4.2232999801636 14.562000274658 -0.21999999880791
			vertex 4.2232999801636 16.6422996521 -0.21999999880791
			vertex 4.8832998275757 16.6422996521 -0.21999999880791
		endloop
	endfacet
	facet normal 0 1 0
		outer loop
			vertex 4.2232999801636 16.6422996521 -0.21999999880791
			vertex 4.355299949646 16.6422996521 0
			vertex 4.7512998580933 16.6422996521 0
		endloop
	endfacet
	facet normal 0 1 0
		outer loop
			vertex 4.2232999801636 16.6422996521 -0.21999999880791
			vertex 4.7512998580933 16.6422996521 0
			vertex 4.8832998275757 16.6422996521 -0.21999999880791
		endloop
	endfacet
	facet normal 0.85749297695976 -0 0.51449567001548
		outer loop
			vertex 4.8832998275757 14.562000274658 -0.21999999880791
			vertex 4.8832998275757 16.6422996521 -0.21999999880791
			vertex 4.7512998580933 16.6422996521 0
		endloop
	endfacet
	facet normal 0 -0.86602546745648 0.49999988971678
		outer loop
			vertex 8.2265996932983 13.3922996521 0
			vertex 8.666600227356 13.519316673279 0.21999999880791
			vertex 8.2265996932983 13.519316673279 0.21999999880791
		endloop
	endfacet
	facet normal 0 0 -1
		outer loop
			vertex 8.2265996932983 13.3922996521 0
			vertex 8.6445999145508 14.562000274658 0
			vertex 8.666600227356 13.3922996521 0
		endloop
	endfacet
	facet normal 0 -0.86602546745648 0.49999988971678
		outer loop
			vertex 8.2265996932983 13.3922996521 0
			vertex 8.666600227356 13.3922996521 0
			vertex 8.666600227356 13.519316673279 0.21999999880791
		endloop
	endfacet
	facet normal -1 0 0
		outer loop
			vertex 8.2265996932983 13.3922996521 0
			vertex 8.2265996932983 13.519316673279 0.21999999880791
			vertex 8.2265996932983 16.6422996521 0
		endloop
	endfacet
	facet normal 0 0 -1
		outer loop
			vertex 8.2265996932983 13.3922996521 0
			vertex 8.2486000061035 14.562000274658 0
			vertex 8.6445999145508 14.562000274658 0
		endloop
	endfacet
	facet normal 0 0 -1
		outer loop
			vertex 8.2265996932983 13.3922996521 0
			vertex 8.2265996932983 16.6422996521 0
			vertex 8.2486000061035 14.562000274658 0
		endloop
	endfacet
	facet normal -1 0 0
		outer loop
			vertex 8.2265996932983 13.519316673279 0.21999999880791
			vertex 8.2265996932983 14.562000274658 0.21999999880791
			vertex 8.2265996932983 16.6422996521 0
		endloop
	endfacet
	facet normal -1 0 0
		outer loop
			vertex 8.2265996932983 14.562000274658 0.21999999880791
			vertex 8.2265996932983 14.562000274658 0.43999999761581
			vertex 8.2265996932983 16.6422996521 0
		endloop
	endfacet
	facet normal 1 0 0
		outer loop
			vertex 8.666600227356 13.3922996521 0
			vertex 8.666600227356 16.354856491089 0.21999999880791
			vertex 8.666600227356 13.519316673279 0.21999999880791
		endloop
	endfacet
	facet normal 0 0 -1
		outer loop
			vertex 8.666600227356 13.3922996521 0
			vertex 8.6445999145508 14.562000274658 0
			vertex 8.666600227356 16.6422996521 0
		endloop
	endfacet
	facet normal 1 0 0
		outer loop
			vertex 8.666600227356 13.3922996521 0
			vertex 8.666600227356 16.6422996521 0
			vertex 8.666600227356 16.354856491089 0.21999999880791
		endloop
	endfacet
	facet normal 0 -0.86602539611949 0.50000001327608
		outer loop
			vertex 8.2265996932983 13.773350715637 0.66000002622604
			vertex 8.666600227356 13.773350715637 0.66000002622604
			vertex 8.666600227356 16.6422996521 5.6291651725769
		endloop
	endfacet
	facet normal 0 0 -1
		outer loop
			vertex 8.2486000061035 14.562000274658 0
			vertex 8.2265996932983 16.6422996521 0
			vertex 8.2486000061035 16.6422996521 0
		endloop
	endfacet
	facet normal -1 0 0
		outer loop
			vertex 8.2265996932983 14.562000274658 0.43999999761581
			vertex 8.2265996932983 16.6422996521 0.21999999880791
			vertex 8.2265996932983 16.6422996521 0
		endloop
	endfacet
	facet normal -1 0 0
		outer loop
			vertex 8.2265996932983 14.562000274658 0.43999999761581
			vertex 8.2265996932983 16.6422996521 0.43999999761581
			vertex 8.2265996932983 16.6422996521 0.21999999880791
		endloop
	endfacet
	facet normal 0 1 0
		outer loop
			vertex 8.2265996932983 16.6422996521 0
			vertex 8.2265996932983 16.6422996521 0.21999999880791
			vertex 8.2486000061035 16.6422996521 0
		endloop
	endfacet
	facet normal 0 1 -0
		outer loop
			vertex 8.2486000061035 16.6422996521 0
			vertex 8.2265996932983 16.6422996521 0.21999999880791
			vertex 8.6445999145508 16.6422996521 0
		endloop
	endfacet
	facet normal -0 1 0
		outer loop
			vertex 8.2265996932983 16.6422996521 0.21999999880791
			vertex 8.666600227356 16.6422996521 0.21999999880791
			vertex 8.6445999145508 16.6422996521 0
		endloop
	endfacet
	facet normal 0 0 -1
		outer loop
			vertex 8.6445999145508 14.562000274658 0
			vertex 8.6445999145508 16.6422996521 0
			vertex 8.666600227356 16.6422996521 0
		endloop
	endfacet
	facet normal 0 1 0
		outer loop
			vertex 8.6445999145508 16.6422996521 0
			vertex 8.666600227356 16.6422996521 0.21999999880791
			vertex 8.666600227356 16.6422996521 0
		endloop
	endfacet
	facet normal 1 -0 0
		outer loop
			vertex 8.666600227356 16.354856491089 0.21999999880791
			vertex 8.666600227356 16.6422996521 0
			vertex 8.666600227356 16.6422996521 0.21999999880791
		endloop
	endfacet
	facet normal -1 0 0
		outer loop
			vertex 8.2265996932983 13.773350715637 0.66000002622604
			vertex 8.2265996932983 16.6422996521 5.6291651725769
			vertex 8.2265996932983 16.6422996521 0.66000002622604
		endloop
	endfacet
	facet normal 0 1 0
		outer loop
			vertex 8.2265996932983 16.6422996521 0.66000002622604
			vertex 8.2265996932983 16.6422996521 5.6291651725769
			vertex 8.666600227356 16.6422996521 0.66000002622604
		endloop
	endfacet
	facet normal 1 0 0
		outer loop
			vertex 8.666600227356 13.773350715637 0.66000002622604
			vertex 8.666600227356 16.6422996521 0.66000002622604
			vertex 8.666600227356 16.6422996521 5.6291651725769
		endloop
	endfacet
	facet normal 0 -0.86602539611949 0.50000001327608
		outer loop
			vertex 8.2265996932983 13.773350715637 0.66000002622604
			vertex 8.666600227356 16.6422996521 5.6291651725769
			vertex 8.2265996932983 16.6422996521 5.6291651725769
		endloop
	endfacet
	facet normal 0 1 -0
		outer loop
			vertex 8.666600227356 16.6422996521 0.66000002622604
			vertex 8.2265996932983 16.6422996521 5.6291651725769
			vertex 8.666600227356 16.6422996521 5.6291651725769
		endloop
	endfacet
	facet normal 0 0 -1
		outer loop
			vertex 8.9374332427979 15.602149963379 0.21999999880791
			vertex 8.666600227356 16.354856491089 0.21999999880791
			vertex 9.1668577194214 15.853900909424 0.21999999880791
		endloop
	endfacet
	facet normal 0 0 -1
		outer loop
			vertex 8.666600227356 16.354856491089 0.21999999880791
			vertex 8.666600227356 16.6422996521 0.21999999880791
			vertex 9.1668577194214 15.853900909424 0.21999999880791
		endloop
	endfacet
	facet normal 0 0 -1
		outer loop
			vertex 8.9374332427979 15.602149963379 0.21999999880791
			vertex 9.1668577194214 15.853900909424 0.21999999880791
			vertex 9.3266000747681 15.602149963379 0.21999999880791
		endloop
	endfacet
	facet normal 0 0 -1
		outer loop
			vertex 9.3266000747681 15.602149963379 0.21999999880791
			vertex 9.1668577194214 15.853900909424 0.21999999880791
			vertex 9.2032251358032 15.89380645752 0.21999999880791
		endloop
	endfacet
	facet normal 0 -1 0
		outer loop
			vertex 8.1166000366211 14.562000274658 -0.21999999880791
			vertex 8.6445999145508 14.562000274658 0
			vertex 8.2486000061035 14.562000274658 0
		endloop
	endfacet
	facet normal 0 -1 0
		outer loop
			vertex 8.1166000366211 14.562000274658 -0.21999999880791
			vertex 8.7765998840332 14.562000274658 -0.21999999880791
			vertex 8.6445999145508 14.562000274658 0
		endloop
	endfacet
	facet normal -0.85749297695976 0 0.51449567001548
		outer loop
			vertex 8.1166000366211 14.562000274658 -0.21999999880791
			vertex 8.2486000061035 14.562000274658 0
			vertex 8.1166000366211 16.6422996521 -0.21999999880791
		endloop
	endfacet
	facet normal 0 0 -1
		outer loop
			vertex 8.1166000366211 14.562000274658 -0.21999999880791
			vertex 8.7765998840332 16.6422996521 -0.21999999880791
			vertex 8.7765998840332 14.562000274658 -0.21999999880791
		endloop
	endfacet
	facet normal 0.85749297695976 -0 0.51449567001548
		outer loop
			vertex 8.6445999145508 14.562000274658 0
			vertex 8.7765998840332 14.562000274658 -0.21999999880791
			vertex 8.6445999145508 16.6422996521 0
		endloop
	endfacet
	facet normal -0.85749297695976 0 0.51449567001548
		outer loop
			vertex 8.2486000061035 14.562000274658 0
			vertex 8.2486000061035 16.6422996521 0
			vertex 8.1166000366211 16.6422996521 -0.21999999880791
		endloop
	endfacet
	facet normal 0 0 -1
		outer loop
			vertex 8.1166000366211 14.562000274658 -0.21999999880791
			vertex 8.1166000366211 16.6422996521 -0.21999999880791
			vertex 8.7765998840332 16.6422996521 -0.21999999880791
		endloop
	endfacet
	facet normal 0 1 0
		outer loop
			vertex 8.1166000366211 16.6422996521 -0.21999999880791
			vertex 8.2486000061035 16.6422996521 0
			vertex 8.6445999145508 16.6422996521 0
		endloop
	endfacet
	facet normal 0 1 0
		outer loop
			vertex 8.1166000366211 16.6422996521 -0.21999999880791
			vertex 8.6445999145508 16.6422996521 0
			vertex 8.7765998840332 16.6422996521 -0.21999999880791
		endloop
	endfacet
	facet normal 0.85749297695976 -0 0.51449567001548
		outer loop
			vertex 8.7765998840332 14.562000274658 -0.21999999880791
			vertex 8.7765998840332 16.6422996521 -0.21999999880791
			vertex 8.6445999145508 16.6422996521 0
		endloop
	endfacet
	facet normal -1 0 0
		outer loop
			vertex 6.0599999427795 0.43999999761581 0.43999999761581
			vertex 6.0599999427795 0.43999999761581 12.026399612427
			vertex 6.0599999427795 12.323433876038 0.43999999761581
		endloop
	endfacet
	facet normal 1 0 0
		outer loop
			vertex 6.5 0.43999999761581 0.43999999761581
			vertex 6.5 1.0401500463486 0.43999999761581
			vertex 6.5 1.0401500463486 0.66000002622604
		endloop
	endfacet
	facet normal 0 -1 0
		outer loop
			vertex 6.0599999427795 0.43999999761581 0.43999999761581
			vertex 6.5 0.43999999761581 0.43999999761581
			vertex 6.5 0.43999999761581 6.2357001304626
		endloop
	endfacet
	facet normal 1 0 0
		outer loop
			vertex 6.5 0.43999999761581 0.43999999761581
			vertex 6.5 1.0401500463486 0.66000002622604
			vertex 6.5 0.43999999761581 6.2357001304626
		endloop
	endfacet
	facet normal 1 -0 0
		outer loop
			vertex 6.5 0.43999999761581 6.2357001304626
			vertex 6.5 1.0401500463486 0.66000002622604
			vertex 6.5 0.66000002622604 6.2357001304626
		endloop
	endfacet
	facet normal 1 0 0
		outer loop
			vertex 6.5 0.66000002622604 6.2357001304626
			vertex 6.5 1.0401500463486 0.66000002622604
			vertex 6.5 3.1204500198364 0.66000002622604
		endloop
	endfacet
	facet normal 0 0 -1
		outer loop
			vertex 6.0599999427795 0.43999999761581 0.43999999761581
			vertex 6.0599999427795 12.323433876038 0.43999999761581
			vertex 6.5 0.43999999761581 0.43999999761581
		endloop
	endfacet
	facet normal 0 0 -1
		outer loop
			vertex 6.5 0.43999999761581 0.43999999761581
			vertex 6.0599999427795 12.323433876038 0.43999999761581
			vertex 6.5 1.0401500463486 0.43999999761581
		endloop
	endfacet
	facet normal 1 0 0
		outer loop
			vertex 6.5 8.3211498260498 0.66000002622604
			vertex 6.5 3.1204500198364 0.66000002622604
			vertex 6.5 3.1204500198364 0.43999999761581
		endloop
	endfacet
	facet normal 0 0 -1
		outer loop
			vertex 6.0599999427795 12.323433876038 0.43999999761581
			vertex 6.5 3.1204500198364 0.43999999761581
			vertex 6.5 1.0401500463486 0.43999999761581
		endloop
	endfacet
	facet normal 1 0 0
		outer loop
			vertex 6.5 8.3211498260498 0.66000002622604
			vertex 6.5 0.66000002622604 6.2357001304626
			vertex 6.5 3.1204500198364 0.66000002622604
		endloop
	endfacet
	facet normal 0 -1 0
		outer loop
			vertex 6.0599999427795 0.43999999761581 0.43999999761581
			vertex 6.5 0.43999999761581 6.2357001304626
			vertex 6.5 0.43999999761581 12.026399612427
		endloop
	endfacet
	facet normal 0 -1 0
		outer loop
			vertex 6.0599999427795 0.43999999761581 0.43999999761581
			vertex 6.5 0.43999999761581 12.026399612427
			vertex 6.0599999427795 0.43999999761581 12.026399612427
		endloop
	endfacet
	facet normal 1 0 0
		outer loop
			vertex 6.5 8.3211498260498 0.66000002622604
			vertex 6.5 0.66000002622604 11.811899185181
			vertex 6.5 0.66000002622604 6.2357001304626
		endloop
	endfacet
	facet normal 0 0.69810173702659 0.71599857874193
		outer loop
			vertex 6.4999499320984 12.097793579102 0.66000002622604
			vertex 6.0599999427795 0.43999999761581 12.026399612427
			vertex 6.5 0.43999999761581 12.026399612427
		endloop
	endfacet
	facet normal -0.39073423554056 0.64260425613192 0.65908006128063
		outer loop
			vertex 6.4999499320984 12.097793579102 0.66000002622604
			vertex 6.5 0.43999999761581 12.026399612427
			vertex 6.5 0.66000002622604 11.811899185181
		endloop
	endfacet
	facet normal 1 0 -0
		outer loop
			vertex 6.5 8.3211498260498 0.43999999761581
			vertex 6.5 8.3211498260498 0.66000002622604
			vertex 6.5 3.1204500198364 0.43999999761581
		endloop
	endfacet
	facet normal 0 0 -1
		outer loop
			vertex 6.0599999427795 12.323433876038 0.43999999761581
			vertex 6.5 8.3211498260498 0.43999999761581
			vertex 6.5 3.1204500198364 0.43999999761581
		endloop
	endfacet
	facet normal 1 0 -0
		outer loop
			vertex 6.5 8.3211498260498 0.66000002622604
			vertex 6.5 12.097793579102 0.66000002622604
			vertex 6.5 0.66000002622604 11.811899185181
		endloop
	endfacet
	facet normal 3.9116986352233e-07 0.69810172945861 0.71599858612063
		outer loop
			vertex 6.0599999427795 12.323433876038 0.43999999761581
			vertex 6.0599999427795 0.43999999761581 12.026399612427
			vertex 6.4999499320984 12.097793579102 0.66000002622604
		endloop
	endfacet
	facet normal -0 0.69810175500301 0.71599856121484
		outer loop
			vertex 6.4999499320984 12.097793579102 0.66000002622604
			vertex 6.5 0.66000002622604 11.811899185181
			vertex 6.5 12.097793579102 0.66000002622604
		endloop
	endfacet
	facet normal 0 0 -1
		outer loop
			vertex 6.0599999427795 12.323433876038 0.43999999761581
			vertex 6.5 8.3226146697998 0.43999999761581
			vertex 6.5 8.3211498260498 0.43999999761581
		endloop
	endfacet
	facet normal 0 0 -1
		outer loop
			vertex 6.0599999427795 12.323433876038 0.43999999761581
			vertex 6.4999499320984 12.323433876038 0.43999999761581
			vertex 6.5 8.3226146697998 0.43999999761581
		endloop
	endfacet
	facet normal -0 0.6981013384587 0.71599896734714
		outer loop
			vertex 6.0599999427795 12.323433876038 0.43999999761581
			vertex 6.4999499320984 12.097793579102 0.66000002622604
			vertex 6.4999499320984 12.323433876038 0.43999999761581
		endloop
	endfacet
	facet normal 0 0 -1
		outer loop
			vertex 6.3899998664856 2.0803000926971 0.21999999880791
			vertex 6.5 2.2072968482971 0.21999999880791
			vertex 6.5 2.0803000926971 0.21999999880791
		endloop
	endfacet
	facet normal 0 -1 0
		outer loop
			vertex 6.3899998664856 2.0803000926971 0.21999999880791
			vertex 6.5 2.0803000926971 0.21999999880791
			vertex 6.5 2.0803000926971 0.40333333611488
		endloop
	endfacet
	facet normal -0.85749265512719 0 0.51449620640284
		outer loop
			vertex 6.3899998664856 2.0803000926971 0.21999999880791
			vertex 6.5 2.0803000926971 0.40333333611488
			vertex 6.5 3.1204500198364 0.40333333611488
		endloop
	endfacet
	facet normal 0 0 -1
		outer loop
			vertex 6.3899998664856 2.0803000926971 0.21999999880791
			vertex 6.8365745544434 9.0110912322998 0.21999999880791
			vertex 6.5 2.2072968482971 0.21999999880791
		endloop
	endfacet
	facet normal -0.85749265512719 0 0.51449620640284
		outer loop
			vertex 6.3899998664856 2.0803000926971 0.21999999880791
			vertex 6.5 3.1204500198364 0.40333333611488
			vertex 6.3899998664856 12.323433876038 0.21999999880791
		endloop
	endfacet
	facet normal -0.85749458612147 -8.7193185371515e-08 0.51449298806919
		outer loop
			vertex 6.3899998664856 12.323433876038 0.21999999880791
			vertex 6.5 3.1204500198364 0.40333333611488
			vertex 6.521999835968 3.1204500198364 0.43999999761581
		endloop
	endfacet
	facet normal 0 -0 -1
		outer loop
			vertex 6.8365745544434 9.0110912322998 0.21999999880791
			vertex 7.0464262962341 2.9455683231354 0.21999999880791
			vertex 6.5 2.2072968482971 0.21999999880791
		endloop
	endfacet
	facet normal 0.85749297695976 0 0.51449567001548
		outer loop
			vertex 7.0500001907349 8.3211498260498 0.21999999880791
			vertex 6.9180002212524 3.1204500198364 0.43999999761581
			vertex 7.0500001907349 3.1204500198364 0.21999999880791
		endloop
	endfacet
	facet normal 0 0 -1
		outer loop
			vertex 6.8365745544434 9.0110912322998 0.21999999880791
			vertex 7.0500001907349 3.1204500198364 0.21999999880791
			vertex 7.0464262962341 2.9455683231354 0.21999999880791
		endloop
	endfacet
	facet normal 0 0 1
		outer loop
			vertex 6.9180002212524 8.3211498260498 0.43999999761581
			vertex 6.521999835968 3.1204500198364 0.43999999761581
			vertex 6.9180002212524 3.1204500198364 0.43999999761581
		endloop
	endfacet
	facet normal 0.85749297695976 0 0.51449567001548
		outer loop
			vertex 7.0500001907349 8.3211498260498 0.21999999880791
			vertex 6.9180002212524 8.3211498260498 0.43999999761581
			vertex 6.9180002212524 3.1204500198364 0.43999999761581
		endloop
	endfacet
	facet normal -0 -0 -1
		outer loop
			vertex 7.0500001907349 8.3211498260498 0.21999999880791
			vertex 7.0500001907349 3.1204500198364 0.21999999880791
			vertex 6.8365745544434 9.0110912322998 0.21999999880791
		endloop
	endfacet
	facet normal -0 0 1
		outer loop
			vertex 6.521999835968 8.3211498260498 0.43999999761581
			vertex 6.521999835968 3.1204500198364 0.43999999761581
			vertex 6.9180002212524 8.3211498260498 0.43999999761581
		endloop
	endfacet
	facet normal -0.85749297695976 0 0.51449567001548
		outer loop
			vertex 6.521999835968 8.3211498260498 0.43999999761581
			vertex 6.3899998664856 12.323433876038 0.21999999880791
			vertex 6.521999835968 3.1204500198364 0.43999999761581
		endloop
	endfacet
	facet normal 0 0 -1
		outer loop
			vertex 6.3899998664856 2.0803000926971 0.21999999880791
			vertex 6.3899998664856 12.323433876038 0.21999999880791
			vertex 6.8365745544434 9.0110912322998 0.21999999880791
		endloop
	endfacet
	facet normal -0.85749297695976 0 0.51449567001548
		outer loop
			vertex 6.521999835968 8.3211498260498 0.43999999761581
			vertex 6.521999835968 12.323433876038 0.43999999761581
			vertex 6.3899998664856 12.323433876038 0.21999999880791
		endloop
	endfacet
	facet normal 0 1 0
		outer loop
			vertex 6.3899998664856 12.323433876038 0.21999999880791
			vertex 6.521999835968 12.323433876038 0.43999999761581
			vertex 6.7129998207092 12.323433876038 0.43999999761581
		endloop
	endfacet
	facet normal 0 0 -1
		outer loop
			vertex 6.8365745544434 9.0110912322998 0.21999999880791
			vertex 6.3899998664856 12.323433876038 0.21999999880791
			vertex 6.8365745544434 12.323433876038 0.21999999880791
		endloop
	endfacet
	facet normal 0 1 0
		outer loop
			vertex 6.3899998664856 12.323433876038 0.21999999880791
			vertex 6.7129998207092 12.323433876038 0.43999999761581
			vertex 6.8365745544434 12.323433876038 0.21999999880791
		endloop
	endfacet
	facet normal 0 0 1
		outer loop
			vertex 6.3899998664856 0.21999999880791 0.87999999523163
			vertex 6.9180002212524 0.43999999761581 0.87999999523163
			vertex 6.521999835968 0.43999999761581 0.87999999523163
		endloop
	endfacet
	facet normal 0 0 1
		outer loop
			vertex 6.3899998664856 0.21999999880791 0.87999999523163
			vertex 7.0500001907349 0.21999999880791 0.87999999523163
			vertex 6.9180002212524 0.43999999761581 0.87999999523163
		endloop
	endfacet
	facet normal 0 1 0
		outer loop
			vertex 6.3899998664856 0.21999999880791 0.87999999523163
			vertex 7.0500001907349 0.21999999880791 6.2357001304626
			vertex 7.0500001907349 0.21999999880791 0.87999999523163
		endloop
	endfacet
	facet normal 0 -1 0
		outer loop
			vertex 6.521999835968 0.43999999761581 0.87999999523163
			vertex 6.9180002212524 0.43999999761581 0.87999999523163
			vertex 6.7129998207092 0.43999999761581 6.2357001304626
		endloop
	endfacet
	facet normal -0.85749297695976 -0.51449567001548 0
		outer loop
			vertex 6.9180002212524 0.43999999761581 0.87999999523163
			vertex 7.0500001907349 0.21999999880791 0.87999999523163
			vertex 6.9180002212524 0.43999999761581 6.2357001304626
		endloop
	endfacet
	facet normal 0 1 0
		outer loop
			vertex 6.3899998664856 0.21999999880791 0.87999999523163
			vertex 6.5 0.21999999880791 6.2357001304626
			vertex 6.8365745544434 0.21999999880791 6.2357001304626
		endloop
	endfacet
	facet normal 0.85749458612147 -0.51449298806919 0
		outer loop
			vertex 6.521999835968 0.43999999761581 0.87999999523163
			vertex 6.521999835968 0.43999999761581 6.2357001304626
			vertex 6.5 0.40333333611488 6.2357001304626
		endloop
	endfacet
	facet normal 0 -1 0
		outer loop
			vertex 6.521999835968 0.43999999761581 0.87999999523163
			vertex 6.7129998207092 0.43999999761581 6.2357001304626
			vertex 6.521999835968 0.43999999761581 6.2357001304626
		endloop
	endfacet
	facet normal 0 1 0
		outer loop
			vertex 6.3899998664856 0.21999999880791 0.87999999523163
			vertex 6.8365745544434 0.21999999880791 6.2357001304626
			vertex 7.0500001907349 0.21999999880791 6.2357001304626
		endloop
	endfacet
	facet normal -0.85749297695976 -0.51449567001548 0
		outer loop
			vertex 7.0500001907349 0.21999999880791 0.87999999523163
			vertex 7.0500001907349 0.21999999880791 6.2357001304626
			vertex 6.9180002212524 0.43999999761581 6.2357001304626
		endloop
	endfacet
	facet normal 0 -1 0
		outer loop
			vertex 6.9180002212524 0.43999999761581 0.87999999523163
			vertex 6.9180002212524 0.43999999761581 6.2357001304626
			vertex 6.7129998207092 0.43999999761581 6.2357001304626
		endloop
	endfacet
	facet normal 0.85749297695976 -0.51449567001548 0
		outer loop
			vertex 6.3899998664856 0.21999999880791 0.87999999523163
			vertex 6.521999835968 0.43999999761581 0.87999999523163
			vertex 6.3899998664856 0.21999999880791 12.026399612427
		endloop
	endfacet
	facet normal 0 1 0
		outer loop
			vertex 6.3899998664856 0.21999999880791 0.87999999523163
			vertex 6.3899998664856 0.21999999880791 12.026399612427
			vertex 6.5 0.21999999880791 6.2357001304626
		endloop
	endfacet
	facet normal 0.85749212235019 -0.51449709436241 -3.8233400340882e-08
		outer loop
			vertex 6.521999835968 0.43999999761581 0.87999999523163
			vertex 6.5 0.40333333611488 6.2357001304626
			vertex 6.3899998664856 0.21999999880791 12.026399612427
		endloop
	endfacet
	facet normal 0 1 0
		outer loop
			vertex 6.7129998207092 0.43999999761581 6.6502323150635
			vertex 6.7129998207092 0.43999999761581 6.2357001304626
			vertex 6.521999835968 0.43999999761581 6.2357001304626
		endloop
	endfacet
	facet normal 0 -1 0
		outer loop
			vertex 6.7071213722229 0.21999999880791 6.2357001304626
			vertex 6.8365745544434 0.21999999880791 8.4219665527344
			vertex 6.5 0.21999999880791 6.2357001304626
		endloop
	endfacet
	facet normal 0 -1 0
		outer loop
			vertex 6.7071213722229 0.21999999880791 6.2357001304626
			vertex 6.8365745544434 0.21999999880791 6.2357001304626
			vertex 6.8365745544434 0.21999999880791 8.4219665527344
		endloop
	endfacet
	facet normal -0.85749458612147 0.51449298806919 0
		outer loop
			vertex 6.521999835968 0.43999999761581 6.2357001304626
			vertex 6.5 0.40333333611488 6.2357001304626
			vertex 6.5 0.40333333611488 12.026399612427
		endloop
	endfacet
	facet normal 0 1 0
		outer loop
			vertex 6.521999835968 0.43999999761581 12.026399612427
			vertex 6.7129998207092 0.43999999761581 6.6502323150635
			vertex 6.521999835968 0.43999999761581 6.2357001304626
		endloop
	endfacet
	facet normal -0 1 0
		outer loop
			vertex 6.3899998664856 0.21999999880791 12.026399612427
			vertex 6.5 0.21999999880791 12.026399612427
			vertex 6.5 0.21999999880791 6.2357001304626
		endloop
	endfacet
	facet normal 0.85749265512719 -0.51449620640284 0
		outer loop
			vertex 6.3899998664856 0.21999999880791 12.026399612427
			vertex 6.5 0.40333333611488 6.2357001304626
			vertex 6.5 0.40333333611488 12.026399612427
		endloop
	endfacet
	facet normal -0.85749458612147 0.51449298806919 0
		outer loop
			vertex 6.521999835968 0.43999999761581 12.026399612427
			vertex 6.521999835968 0.43999999761581 6.2357001304626
			vertex 6.5 0.40333333611488 12.026399612427
		endloop
	endfacet
	facet normal -0 1 0
		outer loop
			vertex 6.521999835968 0.43999999761581 12.026399612427
			vertex 6.7129998207092 0.43999999761581 12.026399612427
			vertex 6.7129998207092 0.43999999761581 6.6502323150635
		endloop
	endfacet
	facet normal 0 -1 0
		outer loop
			vertex 6.8365745544434 0.21999999880791 8.4219665527344
			vertex 6.8365745544434 0.21999999880791 12.026399612427
			vertex 6.5 0.21999999880791 12.026399612427
		endloop
	endfacet
	facet normal 0 0 -1
		outer loop
			vertex 6.3899998664856 0.21999999880791 12.026399612427
			vertex 6.5 0.40333333611488 12.026399612427
			vertex 6.5 0.21999999880791 12.026399612427
		endloop
	endfacet
	facet normal 0 0 1
		outer loop
			vertex 6.5 0.21999999880791 12.026399612427
			vertex 6.7518792152405 0.37078306078911 12.026399612427
			vertex 6.5 0.26583334803581 12.026399612427
		endloop
	endfacet
	facet normal 0 0 1
		outer loop
			vertex 6.5 0.40333333611488 12.026399612427
			vertex 6.5 0.26583334803581 12.026399612427
			vertex 6.7518792152405 0.37078306078911 12.026399612427
		endloop
	endfacet
	facet normal 0 0 1
		outer loop
			vertex 6.521999835968 0.43999999761581 12.026399612427
			vertex 6.5 0.40333333611488 12.026399612427
			vertex 6.7518792152405 0.37078306078911 12.026399612427
		endloop
	endfacet
	facet normal 0 0 1
		outer loop
			vertex 6.8365745544434 0.21999999880791 12.026399612427
			vertex 6.7518792152405 0.37078306078911 12.026399612427
			vertex 6.5 0.21999999880791 12.026399612427
		endloop
	endfacet
	facet normal -0 0 1
		outer loop
			vertex 6.521999835968 0.43999999761581 12.026399612427
			vertex 6.7518792152405 0.37078306078911 12.026399612427
			vertex 6.7129998207092 0.43999999761581 12.026399612427
		endloop
	endfacet
endsolid