solid csg_export
	facet normal 0 -1 0
		outer loop
			vertex 0.66000002622604 0.21999999880791 0
			vertex 11.806400299072 0.21999999880791 0.13199999928474
			vertex 0.66000002622604 0.21999999880791 0.13199999928474
		endloop
	endfacet
	facet normal 0 0 -1
		outer loop
			vertex 0.66000002622604 0.21999999880791 0
			vertex 0.66000002622604 1.8602999448776 0
			vertex 11.806400299072 0.21999999880791 0
		endloop
	endfacet
	facet normal 0 -1 0
		outer loop
			vertex 0.66000002622604 0.21999999880791 0.66000002622604
			vertex 0.66000002622604 0.21999999880791 0.52799999713898
			vertex 11.806400299072 0.21999999880791 0.66000002622604
		endloop
	endfacet
	facet normal 0 0 1
		outer loop
			vertex 0.66000002622604 0.21999999880791 0.66000002622604
			vertex 11.806400299072 0.21999999880791 0.66000002622604
			vertex 0.66000002622604 1.8602999448776 0.66000002622604
		endloop
	endfacet
	facet normal -1 0 0
		outer loop
			vertex 0.21999999880791 1.8602999448776 0
			vertex 0.21999999880791 1.8602999448776 0.13199999928474
			vertex 0.21999999880791 12.103433609009 0
		endloop
	endfacet
	facet normal 0 0 -1
		outer loop
			vertex 0.21999999880791 1.8602999448776 0
			vertex 0.21999999880791 12.103433609009 0
			vertex 0.66000002622604 1.8602999448776 0
		endloop
	endfacet
	facet normal 0 0 -1
		outer loop
			vertex 0.66000002622604 1.8602999448776 0
			vertex 0.21999999880791 12.103433609009 0
			vertex 11.806400299072 0.21999999880791 0
		endloop
	endfacet
	facet normal -1 0 0
		outer loop
			vertex 0.21999999880791 1.8602999448776 0.66000002622604
			vertex 0.21999999880791 12.103433609009 0.52799999713898
			vertex 0.21999999880791 1.8602999448776 0.52799999713898
		endloop
	endfacet
	facet normal 0 0 1
		outer loop
			vertex 0.21999999880791 1.8602999448776 0.66000002622604
			vertex 0.66000002622604 1.8602999448776 0.66000002622604
			vertex 0.21999999880791 12.103433609009 0.66000002622604
		endloop
	endfacet
	facet normal -0 -0 1
		outer loop
			vertex 0.66000002622604 1.8602999448776 0.66000002622604
			vertex 11.806400299072 0.21999999880791 0.66000002622604
			vertex 0.21999999880791 12.103433609009 0.66000002622604
		endloop
	endfacet
	facet normal 0 -1 0
		outer loop
			vertex 0.66000002622604 0.21999999880791 0
			vertex 11.806400299072 0.21999999880791 0
			vertex 11.806400299072 0.21999999880791 0.13199999928474
		endloop
	endfacet
	facet normal 0 -1 -0
		outer loop
			vertex 11.806400299072 0.21999999880791 0.66000002622604
			vertex 0.66000002622604 0.21999999880791 0.52799999713898
			vertex 11.806400299072 0.21999999880791 0.52799999713898
		endloop
	endfacet
	facet normal 0.71599855760149 0.69810175870899 -0
		outer loop
			vertex 11.806400299072 0.21999999880791 0
			vertex 0.21999999880791 12.103433609009 0
			vertex 11.806400299072 0.21999999880791 0.13199999928474
		endloop
	endfacet
	facet normal 0.71599855760149 0.69810175870899 0
		outer loop
			vertex 0.21999999880791 12.103433609009 0
			vertex 11.806400299072 0.21999999880791 0.52799999713898
			vertex 11.806400299072 0.21999999880791 0.13199999928474
		endloop
	endfacet
	facet normal 0.71599855760149 0.69810175870899 0
		outer loop
			vertex 11.806400299072 0.21999999880791 0.66000002622604
			vertex 11.806400299072 0.21999999880791 0.52799999713898
			vertex 0.21999999880791 12.103433609009 0
		endloop
	endfacet
	facet normal -1 0 0
		outer loop
			vertex 0.21999999880791 12.103433609009 0
			vertex 0.21999999880791 1.8602999448776 0.13199999928474
			vertex 0.21999999880791 12.103433609009 0.13199999928474
		endloop
	endfacet
	facet normal 0.71599855760149 0.69810175870899 0
		outer loop
			vertex 11.806400299072 0.21999999880791 0.66000002622604
			vertex 0.21999999880791 12.103433609009 0
			vertex 0.21999999880791 12.103433609009 0.13199999928474
		endloop
	endfacet
	facet normal 0.71599855760149 0.69810175870899 0
		outer loop
			vertex 11.806400299072 0.21999999880791 0.66000002622604
			vertex 0.21999999880791 12.103433609009 0.13199999928474
			vertex 0.21999999880791 12.103433609009 0.52799999713898
		endloop
	endfacet
	facet normal -1 0 0
		outer loop
			vertex 0.21999999880791 1.8602999448776 0.66000002622604
			vertex 0.21999999880791 12.103433609009 0.66000002622604
			vertex 0.21999999880791 12.103433609009 0.52799999713898
		endloop
	endfacet
	facet normal 0.71599855760149 0.69810175870899 0
		outer loop
			vertex 11.806400299072 0.21999999880791 0.66000002622604
			vertex 0.21999999880791 12.103433609009 0.52799999713898
			vertex 0.21999999880791 12.103433609009 0.66000002622604
		endloop
	endfacet
	facet normal -1 0 0
		outer loop
			vertex 0.66000002622604 0.21999999880791 0
			vertex 0.66000002622604 0.21999999880791 0.13199999928474
			vertex 0.66000002622604 1.8602999448776 0
		endloop
	endfacet
	facet normal -1 0 0
		outer loop
			vertex 0.66000002622604 1.8602999448776 0
			vertex 0.66000002622604 0.21999999880791 0.13199999928474
			vertex 0.66000002622604 0.21999999880791 0.52799999713898
		endloop
	endfacet
	facet normal -1 0 0
		outer loop
			vertex 0.66000002622604 0.21999999880791 0.66000002622604
			vertex 0.66000002622604 1.8602999448776 0
			vertex 0.66000002622604 0.21999999880791 0.52799999713898
		endloop
	endfacet
	facet normal -1 0 0
		outer loop
			vertex 0.66000002622604 0.21999999880791 0.66000002622604
			vertex 0.66000002622604 1.8602999448776 0.66000002622604
			vertex 0.66000002622604 1.8602999448776 0
		endloop
	endfacet
	facet normal 0 -1 -0
		outer loop
			vertex 0.66000002622604 1.8602999448776 0.66000002622604
			vertex 0.21999999880791 1.8602999448776 0
			vertex 0.66000002622604 1.8602999448776 0
		endloop
	endfacet
	facet normal 0 -1 0
		outer loop
			vertex 0.21999999880791 1.8602999448776 0.13199999928474
			vertex 0.21999999880791 1.8602999448776 0
			vertex 0.66000002622604 1.8602999448776 0.66000002622604
		endloop
	endfacet
	facet normal 0 -1 0
		outer loop
			vertex 0.66000002622604 1.8602999448776 0.66000002622604
			vertex 0.21999999880791 1.8602999448776 0.52799999713898
			vertex 0.21999999880791 1.8602999448776 0.13199999928474
		endloop
	endfacet
	facet normal 0 -1 0
		outer loop
			vertex 0.21999999880791 1.8602999448776 0.66000002622604
			vertex 0.21999999880791 1.8602999448776 0.52799999713898
			vertex 0.66000002622604 1.8602999448776 0.66000002622604
		endloop
	endfacet
	facet normal 0 -1 0
		outer loop
			vertex 0 1.8602999448776 0.66000002622604
			vertex 0 1.8602999448776 0
			vertex 0.21999999880791 1.8602999448776 0.13199999928474
		endloop
	endfacet
	facet normal 0 -1 0
		outer loop
			vertex 0 1.8602999448776 0.66000002622604
			vertex 0.21999999880791 1.8602999448776 0.13199999928474
			vertex 0.21999999880791 1.8602999448776 0.52799999713898
		endloop
	endfacet
	facet normal 0.51449575542753 0 -0.85749292571254
		outer loop
			vertex 0 1.8602999448776 0
			vertex 0.21999999880791 12.103433609009 0.13199999928474
			vertex 0.21999999880791 1.8602999448776 0.13199999928474
		endloop
	endfacet
	facet normal -1 0 0
		outer loop
			vertex 0 1.8602999448776 0.66000002622604
			vertex 0 12.103433609009 0
			vertex 0 1.8602999448776 0
		endloop
	endfacet
	facet normal 0.51449584083955 -0 0.85749287446532
		outer loop
			vertex 0 1.8602999448776 0.66000002622604
			vertex 0.21999999880791 1.8602999448776 0.52799999713898
			vertex 0 12.103433609009 0.66000002622604
		endloop
	endfacet
	facet normal 0.51449575542753 0 -0.85749292571254
		outer loop
			vertex 0 1.8602999448776 0
			vertex 0 12.103433609009 0
			vertex 0.21999999880791 12.103433609009 0.13199999928474
		endloop
	endfacet
	facet normal -1 0 0
		outer loop
			vertex 0 1.8602999448776 0.66000002622604
			vertex 0 12.103433609009 0.66000002622604
			vertex 0 12.103433609009 0
		endloop
	endfacet
	facet normal 0.51449584083955 0 0.85749287446532
		outer loop
			vertex 0 12.103433609009 0.66000002622604
			vertex 0.21999999880791 1.8602999448776 0.52799999713898
			vertex 0.21999999880791 12.103433609009 0.52799999713898
		endloop
	endfacet
	facet normal 0 1 0
		outer loop
			vertex 0 12.103433609009 0.66000002622604
			vertex 0.21999999880791 12.103433609009 0.13199999928474
			vertex 0 12.103433609009 0
		endloop
	endfacet
	facet normal 0 1 0
		outer loop
			vertex 0 12.103433609009 0.66000002622604
			vertex 0.21999999880791 12.103433609009 0.52799999713898
			vertex 0.21999999880791 12.103433609009 0.13199999928474
		endloop
	endfacet
	facet normal -1 0 0
		outer loop
			vertex 0.66000002622604 0 0.66000002622604
			vertex 0.66000002622604 0.21999999880791 0.13199999928474
			vertex 0.66000002622604 0 0
		endloop
	endfacet
	facet normal -1 0 0
		outer loop
			vertex 0.66000002622604 0 0.66000002622604
			vertex 0.66000002622604 0.21999999880791 0.52799999713898
			vertex 0.66000002622604 0.21999999880791 0.13199999928474
		endloop
	endfacet
	facet normal 0 0.51449575542753 -0.85749292571254
		outer loop
			vertex 0.66000002622604 0 0
			vertex 0.66000002622604 0.21999999880791 0.13199999928474
			vertex 11.806400299072 0 0
		endloop
	endfacet
	facet normal 0 -1 0
		outer loop
			vertex 0.66000002622604 0 0.66000002622604
			vertex 0.66000002622604 0 0
			vertex 11.806400299072 0 0.66000002622604
		endloop
	endfacet
	facet normal 0 0.51449584083955 0.85749287446532
		outer loop
			vertex 0.66000002622604 0 0.66000002622604
			vertex 11.806400299072 0.21999999880791 0.52799999713898
			vertex 0.66000002622604 0.21999999880791 0.52799999713898
		endloop
	endfacet
	facet normal 0 0.51449575542753 -0.85749292571254
		outer loop
			vertex 11.806400299072 0 0
			vertex 0.66000002622604 0.21999999880791 0.13199999928474
			vertex 11.806400299072 0.21999999880791 0.13199999928474
		endloop
	endfacet
	facet normal 0 -1 -0
		outer loop
			vertex 11.806400299072 0 0.66000002622604
			vertex 0.66000002622604 0 0
			vertex 11.806400299072 0 0
		endloop
	endfacet
	facet normal -0 0.51449584083955 0.85749287446532
		outer loop
			vertex 0.66000002622604 0 0.66000002622604
			vertex 11.806400299072 0 0.66000002622604
			vertex 11.806400299072 0.21999999880791 0.52799999713898
		endloop
	endfacet
	facet normal 1 0 0
		outer loop
			vertex 11.806400299072 0 0.66000002622604
			vertex 11.806400299072 0 0
			vertex 11.806400299072 0.21999999880791 0.13199999928474
		endloop
	endfacet
	facet normal 1 0 0
		outer loop
			vertex 11.806400299072 0 0.66000002622604
			vertex 11.806400299072 0.21999999880791 0.13199999928474
			vertex 11.806400299072 0.21999999880791 0.52799999713898
		endloop
	endfacet
	facet normal -1 0 0
		outer loop
			vertex 12.106399536133 14.341438293457 0.43999999761581
			vertex 12.106399536133 13.901437759399 0.43999999761581
			vertex 12.106399536133 14.341438293457 2.0803000926971
		endloop
	endfacet
	facet normal 0 -1 0
		outer loop
			vertex 12.106399536133 13.901437759399 0.43999999761581
			vertex 15.143400192261 13.901437759399 0.43999999761581
			vertex 12.106399536133 13.901437759399 2.0803000926971
		endloop
	endfacet
	facet normal 0 0 -1
		outer loop
			vertex 12.106399536133 13.901437759399 0
			vertex 18.606399536133 14.341438293457 0
			vertex 18.606399536133 13.901437759399 0
		endloop
	endfacet
	facet normal -0 1 0
		outer loop
			vertex 15.577990531921 14.341438293457 0.20499999821186
			vertex 15.701399803162 14.341438293457 0.20499999821186
			vertex 18.606399536133 14.341438293457 0
		endloop
	endfacet
	facet normal -0 1 0
		outer loop
			vertex 15.701399803162 14.341438293457 0.20499999821186
			vertex 17.960878372192 14.341438293457 0.43999999761581
			vertex 18.606399536133 14.341438293457 0
		endloop
	endfacet
	facet normal 0 1 -0
		outer loop
			vertex 15.701399803162 14.341438293457 0.20499999821186
			vertex 15.69295501709 14.341438293457 0.22003526985645
			vertex 17.960878372192 14.341438293457 0.43999999761581
		endloop
	endfacet
	facet normal 0 -1 0
		outer loop
			vertex 15.143400192261 13.901437759399 0.43999999761581
			vertex 15.569399833679 13.901437759399 0.43999999761581
			vertex 12.106399536133 13.901437759399 2.0803000926971
		endloop
	endfacet
	facet normal 0 1 0
		outer loop
			vertex 12.106399536133 14.341438293457 0.43999999761581
			vertex 15.158399581909 14.341438293457 2.0803000926971
			vertex 15.143400192261 14.341438293457 0.43999999761581
		endloop
	endfacet
	facet normal 0 -1 0
		outer loop
			vertex 12.106399536133 13.901437759399 2.0803000926971
			vertex 15.569399833679 13.901437759399 0.43999999761581
			vertex 18.606399536133 13.901437759399 0.43999999761581
		endloop
	endfacet
	facet normal 0 1 0
		outer loop
			vertex 15.143400192261 14.341438293457 0.43999999761581
			vertex 15.158399581909 14.341438293457 2.0803000926971
			vertex 15.158399581909 14.341438293457 0.43999999761581
		endloop
	endfacet
	facet normal 0 1 0
		outer loop
			vertex 15.554400444031 14.341438293457 0.43999999761581
			vertex 15.554400444031 14.341438293457 2.0803000926971
			vertex 15.569399833679 14.341438293457 0.43999999761581
		endloop
	endfacet
	facet normal 1 0 -0
		outer loop
			vertex 18.606399536133 14.341438293457 0
			vertex 18.606399536133 14.341438293457 2.0803000926971
			vertex 18.606399536133 13.901437759399 0
		endloop
	endfacet
	facet normal 0 1 -0
		outer loop
			vertex 15.569399833679 14.341438293457 0.43999999761581
			vertex 15.554400444031 14.341438293457 2.0803000926971
			vertex 17.960878372192 14.341438293457 0.43999999761581
		endloop
	endfacet
	facet normal 1 0 0
		outer loop
			vertex 18.606399536133 13.901437759399 0
			vertex 18.606399536133 14.341438293457 2.0803000926971
			vertex 18.606399536133 13.901437759399 0.43999999761581
		endloop
	endfacet
	facet normal 0 1 -0
		outer loop
			vertex 18.606399536133 14.341438293457 0
			vertex 17.960878372192 14.341438293457 0.43999999761581
			vertex 18.606399536133 14.341438293457 2.0803000926971
		endloop
	endfacet
	facet normal -1 0 0
		outer loop
			vertex 12.106399536133 13.901437759399 0.43999999761581
			vertex 12.106399536133 13.901437759399 2.0803000926971
			vertex 12.106399536133 14.341438293457 2.0803000926971
		endloop
	endfacet
	facet normal 0 1 0
		outer loop
			vertex 12.106399536133 14.341438293457 0.43999999761581
			vertex 12.106399536133 14.341438293457 2.0803000926971
			vertex 15.158399581909 14.341438293457 2.0803000926971
		endloop
	endfacet
	facet normal 0 -1 0
		outer loop
			vertex 12.106399536133 13.901437759399 2.0803000926971
			vertex 18.606399536133 13.901437759399 0.43999999761581
			vertex 18.606399536133 13.901437759399 2.0803000926971
		endloop
	endfacet
	facet normal 0 1 -0
		outer loop
			vertex 17.960878372192 14.341438293457 0.43999999761581
			vertex 15.554400444031 14.341438293457 2.0803000926971
			vertex 18.606399536133 14.341438293457 2.0803000926971
		endloop
	endfacet
	facet normal 1 0 0
		outer loop
			vertex 18.606399536133 13.901437759399 0.43999999761581
			vertex 18.606399536133 14.341438293457 2.0803000926971
			vertex 18.606399536133 13.901437759399 2.0803000926971
		endloop
	endfacet
	facet normal 0 0 1
		outer loop
			vertex 12.106399536133 14.341438293457 2.0803000926971
			vertex 12.106399536133 13.901437759399 2.0803000926971
			vertex 18.606399536133 13.901437759399 2.0803000926971
		endloop
	endfacet
	facet normal -0 0 1
		outer loop
			vertex 12.106399536133 14.341438293457 2.0803000926971
			vertex 18.606399536133 13.901437759399 2.0803000926971
			vertex 15.158399581909 14.341438293457 2.0803000926971
		endloop
	endfacet
	facet normal -0 0 1
		outer loop
			vertex 15.158399581909 14.341438293457 2.0803000926971
			vertex 18.606399536133 13.901437759399 2.0803000926971
			vertex 15.554400444031 14.341438293457 2.0803000926971
		endloop
	endfacet
	facet normal -0 0 1
		outer loop
			vertex 15.554400444031 14.341438293457 2.0803000926971
			vertex 18.606399536133 13.901437759399 2.0803000926971
			vertex 18.606399536133 14.341438293457 2.0803000926971
		endloop
	endfacet
	facet normal 0 0 -1
		outer loop
			vertex 15.026399612427 14.561438560486 0
			vertex 15.554400444031 14.341438293457 0
			vertex 15.158399581909 14.341438293457 0
		endloop
	endfacet
	facet normal 0 0 -1
		outer loop
			vertex 15.026399612427 14.561438560486 0
			vertex 15.686400413513 14.561438560486 0
			vertex 15.554400444031 14.341438293457 0
		endloop
	endfacet
	facet normal 0.85749325369431 -0.51449520879086 0
		outer loop
			vertex 15.554400444031 14.341438293457 0
			vertex 15.686400413513 14.561438560486 0
			vertex 15.554400444031 14.341438293457 0.20499999821186
		endloop
	endfacet
	facet normal 0.85749325369431 -0.51449520879086 0
		outer loop
			vertex 15.686400413513 14.561438560486 0
			vertex 15.554400444031 14.341438293457 0.43999999761581
			vertex 15.554400444031 14.341438293457 0.20499999821186
		endloop
	endfacet
	facet normal -0.85749325369431 -0.51449520879086 0
		outer loop
			vertex 15.026399612427 14.561438560486 0
			vertex 15.158399581909 14.341438293457 0
			vertex 15.026399612427 14.561438560486 2.0803000926971
		endloop
	endfacet
	facet normal -0.85749325369431 -0.51449520879086 0
		outer loop
			vertex 15.158399581909 14.341438293457 0
			vertex 15.158399581909 14.341438293457 0.20499999821186
			vertex 15.026399612427 14.561438560486 2.0803000926971
		endloop
	endfacet
	facet normal 0 1 0
		outer loop
			vertex 15.026399612427 14.561438560486 0
			vertex 15.686400413513 14.561438560486 2.0803000926971
			vertex 15.686400413513 14.561438560486 0
		endloop
	endfacet
	facet normal -0.85749325369431 -0.51449520879086 0
		outer loop
			vertex 15.158399581909 14.341438293457 0.20499999821186
			vertex 15.158399581909 14.341438293457 0.43999999761581
			vertex 15.026399612427 14.561438560486 2.0803000926971
		endloop
	endfacet
	facet normal 0.85749325369431 -0.51449520879086 0
		outer loop
			vertex 15.686400413513 14.561438560486 0
			vertex 15.554400444031 14.341438293457 2.0803000926971
			vertex 15.554400444031 14.341438293457 0.43999999761581
		endloop
	endfacet
	facet normal -0.85749325369431 -0.51449520879086 0
		outer loop
			vertex 15.158399581909 14.341438293457 0.43999999761581
			vertex 15.158399581909 14.341438293457 2.0803000926971
			vertex 15.026399612427 14.561438560486 2.0803000926971
		endloop
	endfacet
	facet normal 0 1 0
		outer loop
			vertex 15.026399612427 14.561438560486 0
			vertex 15.026399612427 14.561438560486 2.0803000926971
			vertex 15.686400413513 14.561438560486 2.0803000926971
		endloop
	endfacet
	facet normal 0.85749325369431 -0.51449520879086 0
		outer loop
			vertex 15.686400413513 14.561438560486 0
			vertex 15.686400413513 14.561438560486 2.0803000926971
			vertex 15.554400444031 14.341438293457 2.0803000926971
		endloop
	endfacet
	facet normal 0 0 1
		outer loop
			vertex 15.026399612427 14.561438560486 2.0803000926971
			vertex 15.158399581909 14.341438293457 2.0803000926971
			vertex 15.554400444031 14.341438293457 2.0803000926971
		endloop
	endfacet
	facet normal -0 0 1
		outer loop
			vertex 15.026399612427 14.561438560486 2.0803000926971
			vertex 15.554400444031 14.341438293457 2.0803000926971
			vertex 15.686400413513 14.561438560486 2.0803000926971
		endloop
	endfacet
	facet normal -1 0 0
		outer loop
			vertex 12.106399536133 13.901437759399 0
			vertex 12.106399536133 1.870038151741 0
			vertex 12.106399536133 1.870038151741 0.43999999761581
		endloop
	endfacet
	facet normal -1 0 0
		outer loop
			vertex 12.106399536133 14.341438293457 0
			vertex 12.106399536133 1.870038151741 0.43999999761581
			vertex 12.106399536133 1.9879359006882 0.43999999761581
		endloop
	endfacet
	facet normal 1 0 0
		outer loop
			vertex 18.606399536133 2.0900382995605 0.38105118274689
			vertex 18.606399536133 1.9879359006882 0.43999999761581
			vertex 18.606399536133 1.8971817493439 0.43999999761581
		endloop
	endfacet
	facet normal 0 0 -1
		outer loop
			vertex 12.106399536133 13.901437759399 0
			vertex 18.606399536133 1.870038151741 0
			vertex 12.106399536133 1.870038151741 0
		endloop
	endfacet
	facet normal 0 0 1
		outer loop
			vertex 15.143400192261 13.901437759399 0.43999999761581
			vertex 12.106399536133 1.9879359006882 0.43999999761581
			vertex 15.143400192261 1.9879359006882 0.43999999761581
		endloop
	endfacet
	facet normal 1 0 0
		outer loop
			vertex 18.606399536133 13.901437759399 0
			vertex 18.606399536133 2.0900382995605 0.38105118274689
			vertex 18.606399536133 1.870038151741 0
		endloop
	endfacet
	facet normal 0 0 1
		outer loop
			vertex 18.606399536133 13.901437759399 0.43999999761581
			vertex 15.569399833679 1.9879359006882 0.43999999761581
			vertex 18.606399536133 1.9879359006882 0.43999999761581
		endloop
	endfacet
	facet normal 1 0 0
		outer loop
			vertex 18.606399536133 13.901437759399 0.43999999761581
			vertex 18.606399536133 1.9879359006882 0.43999999761581
			vertex 18.606399536133 2.0900382995605 0.38105118274689
		endloop
	endfacet
	facet normal -1 0 0
		outer loop
			vertex 12.106399536133 14.341438293457 0
			vertex 12.106399536133 13.901437759399 0
			vertex 12.106399536133 1.870038151741 0.43999999761581
		endloop
	endfacet
	facet normal -1 0 0
		outer loop
			vertex 12.106399536133 14.341438293457 0
			vertex 12.106399536133 1.9879359006882 0.43999999761581
			vertex 12.106399536133 13.901437759399 0.43999999761581
		endloop
	endfacet
	facet normal -0 0 1
		outer loop
			vertex 12.106399536133 13.901437759399 0.43999999761581
			vertex 12.106399536133 1.9879359006882 0.43999999761581
			vertex 15.143400192261 13.901437759399 0.43999999761581
		endloop
	endfacet
	facet normal 0 0 -1
		outer loop
			vertex 12.106399536133 14.341438293457 0
			vertex 15.158399581909 14.341438293457 0
			vertex 12.106399536133 13.901437759399 0
		endloop
	endfacet
	facet normal 0 1 0
		outer loop
			vertex 12.106399536133 14.341438293457 0
			vertex 12.106399536133 14.341438293457 0.43999999761581
			vertex 15.011400222778 14.341438293457 0.20499999821186
		endloop
	endfacet
	facet normal -1 0 0
		outer loop
			vertex 12.106399536133 14.341438293457 0
			vertex 12.106399536133 13.901437759399 0.43999999761581
			vertex 12.106399536133 14.341438293457 0.43999999761581
		endloop
	endfacet
	facet normal 0 0 -1
		outer loop
			vertex 12.106399536133 13.901437759399 0
			vertex 18.606399536133 13.901437759399 0
			vertex 18.606399536133 1.870038151741 0
		endloop
	endfacet
	facet normal -0 0 1
		outer loop
			vertex 15.569399833679 13.901437759399 0.43999999761581
			vertex 15.569399833679 1.9879359006882 0.43999999761581
			vertex 18.606399536133 13.901437759399 0.43999999761581
		endloop
	endfacet
	facet normal 1 0 -0
		outer loop
			vertex 18.606399536133 13.901437759399 0
			vertex 18.606399536133 13.901437759399 0.43999999761581
			vertex 18.606399536133 2.0900382995605 0.38105118274689
		endloop
	endfacet
	facet normal 0 0 -1
		outer loop
			vertex 12.106399536133 13.901437759399 0
			vertex 15.158399581909 14.341438293457 0
			vertex 15.554400444031 14.341438293457 0
		endloop
	endfacet
	facet normal 0 1 0
		outer loop
			vertex 12.106399536133 14.341438293457 0
			vertex 15.011400222778 14.341438293457 0.20499999821186
			vertex 15.158399581909 14.341438293457 0
		endloop
	endfacet
	facet normal 0 1 -0
		outer loop
			vertex 15.158399581909 14.341438293457 0
			vertex 15.011400222778 14.341438293457 0.20499999821186
			vertex 15.158399581909 14.341438293457 0.20499999821186
		endloop
	endfacet
	facet normal 0 0 -1
		outer loop
			vertex 12.106399536133 13.901437759399 0
			vertex 15.554400444031 14.341438293457 0
			vertex 18.606399536133 14.341438293457 0
		endloop
	endfacet
	facet normal 0 1 0
		outer loop
			vertex 15.554400444031 14.341438293457 0
			vertex 15.554400444031 14.341438293457 0.20499999821186
			vertex 15.577990531921 14.341438293457 0.20499999821186
		endloop
	endfacet
	facet normal -0 1 0
		outer loop
			vertex 12.106399536133 14.341438293457 0.43999999761581
			vertex 15.143400192261 14.341438293457 0.43999999761581
			vertex 15.011400222778 14.341438293457 0.20499999821186
		endloop
	endfacet
	facet normal 0 1 0
		outer loop
			vertex 15.554400444031 14.341438293457 0
			vertex 15.577990531921 14.341438293457 0.20499999821186
			vertex 18.606399536133 14.341438293457 0
		endloop
	endfacet
	facet normal 0 1 -0
		outer loop
			vertex 15.69295501709 14.341438293457 0.22003526985645
			vertex 15.569399833679 14.341438293457 0.43999999761581
			vertex 17.960878372192 14.341438293457 0.43999999761581
		endloop
	endfacet
	facet normal 1.2720727260647e-08 -0.50000001039262 -0.86602539778425
		outer loop
			vertex 12.106399536133 1.870038151741 0
			vertex 14.926225662231 1.6670162677765 0.11721478402615
			vertex 14.512582778931 1.5583498477936 0.17995336651802
		endloop
	endfacet
	facet normal 4.4706563156576e-08 -0.49999994438802 -0.86602543589203
		outer loop
			vertex 12.106399536133 1.870038151741 0
			vertex 14.131367683411 1.3818851709366 0.28183531761169
			vertex 13.797229766846 1.1444035768509 0.41894534230232
		endloop
	endfacet
	facet normal 2.1145465260718e-10 -0.50000008281979 -0.86602535596841
		outer loop
			vertex 12.106399536133 1.870038151741 0
			vertex 14.512582778931 1.5583498477936 0.17995336651802
			vertex 14.131367683411 1.3818851709366 0.28183531761169
		endloop
	endfacet
	facet normal -1.8278457790518e-08 -0.50000005446096 -0.86602537234138
		outer loop
			vertex 12.106399536133 1.870038151741 0
			vertex 13.797229766846 1.1444035768509 0.41894534230232
			vertex 13.523009300232 0.85503154993057 0.58601438999176
		endloop
	endfacet
	facet normal 9.5704050385625e-08 -0.49999993514987 -0.86602544122567
		outer loop
			vertex 12.106399536133 1.870038151741 0
			vertex 13.523009300232 0.85503154993057 0.58601438999176
			vertex 13.31924533844 0.52488929033279 0.77662205696106
		endloop
	endfacet
	facet normal -3.0848698091707e-09 0.4999998938162 0.86602546508967
		outer loop
			vertex 12.106399536133 1.9879359006882 0.43999999761581
			vertex 14.512582778931 1.7783498764038 0.56100451946259
			vertex 14.926225662231 1.8870162963867 0.49826595187187
		endloop
	endfacet
	facet normal -2.2790403155396e-08 -0.50000001527976 -0.86602539496267
		outer loop
			vertex 12.106399536133 1.870038151741 0
			vertex 13.31924533844 0.52488929033279 0.77662205696106
			vertex 12.106399536133 0.21999999880791 0.95265001058578
		endloop
	endfacet
	facet normal -1 0 0
		outer loop
			vertex 12.106399536133 1.870038151741 0
			vertex 12.106399536133 0.21999999880791 0.95265001058578
			vertex 12.106399536133 0.43999999761581 1.333701133728
		endloop
	endfacet
	facet normal -1 0 0
		outer loop
			vertex 12.106399536133 1.870038151741 0
			vertex 12.106399536133 0.43999999761581 1.333701133728
			vertex 12.106399536133 1.870038151741 0.43999999761581
		endloop
	endfacet
	facet normal -1 0 0
		outer loop
			vertex 12.106399536133 1.9879359006882 0.43999999761581
			vertex 12.106399536133 1.870038151741 0.43999999761581
			vertex 12.106399536133 0.43999999761581 1.333701133728
		endloop
	endfacet
	facet normal 1.5056743775589e-08 0.49999998805211 0.86602541068256
		outer loop
			vertex 12.106399536133 1.9879359006882 0.43999999761581
			vertex 13.797229766846 1.3644036054611 0.79999649524689
			vertex 14.131367683411 1.6018850803375 0.66288650035858
		endloop
	endfacet
	facet normal 1.8048522747218e-09 0.49999993591909 0.86602544078157
		outer loop
			vertex 12.106399536133 1.9879359006882 0.43999999761581
			vertex 14.131367683411 1.6018850803375 0.66288650035858
			vertex 14.512582778931 1.7783498764038 0.56100451946259
		endloop
	endfacet
	facet normal 3.6317474315735e-08 0.50000003129159 0.86602538571823
		outer loop
			vertex 12.106399536133 1.9879359006882 0.43999999761581
			vertex 13.523009300232 1.0750315189362 0.96706557273865
			vertex 13.797229766846 1.3644036054611 0.79999649524689
		endloop
	endfacet
	facet normal 0 0.49999996885918 0.8660254217636
		outer loop
			vertex 12.106399536133 1.9879359006882 0.43999999761581
			vertex 12.106399536133 0.43999999761581 1.333701133728
			vertex 13.21245098114 0.43999999761581 1.333701133728
		endloop
	endfacet
	facet normal 0 -0.50000008327471 -0.86602535570576
		outer loop
			vertex 12.106399536133 0.21999999880791 0.95265001058578
			vertex 13.31924533844 0.52488929033279 0.77662205696106
			vertex 13.21245098114 0.21999999880791 0.95265001058578
		endloop
	endfacet
	facet normal -1.8732623169014e-08 0.49999996722313 0.86602542270817
		outer loop
			vertex 12.106399536133 1.9879359006882 0.43999999761581
			vertex 13.31924533844 0.74488931894302 1.1576732397079
			vertex 13.523009300232 1.0750315189362 0.96706557273865
		endloop
	endfacet
	facet normal -6.1630478712055e-08 0.49999993583142 0.86602544083218
		outer loop
			vertex 12.106399536133 1.9879359006882 0.43999999761581
			vertex 13.21245098114 0.43999999761581 1.333701133728
			vertex 13.31924533844 0.74488931894302 1.1576732397079
		endloop
	endfacet
	facet normal -1.7932999744896e-09 -0.50000016158455 -0.86602531049353
		outer loop
			vertex 12.106399536133 1.870038151741 0
			vertex 15.356399536133 1.7037084102631 0.096030555665493
			vertex 14.926225662231 1.6670162677765 0.11721478402615
		endloop
	endfacet
	facet normal 0 -0.50000013530442 -0.86602532566638
		outer loop
			vertex 12.106399536133 1.870038151741 0
			vertex 18.606399536133 1.870038151741 0
			vertex 15.356399536133 1.7037084102631 0.096030555665493
		endloop
	endfacet
	facet normal -0 0.49999995846269 0.86602542776601
		outer loop
			vertex 12.106399536133 1.9879359006882 0.43999999761581
			vertex 14.926225662231 1.8870162963867 0.49826595187187
			vertex 15.143400192261 1.9879359006882 0.43999999761581
		endloop
	endfacet
	facet normal -0 0.50000005945269 0.86602536945941
		outer loop
			vertex 15.143400192261 1.9879359006882 0.43999999761581
			vertex 15.356399536133 1.9237084388733 0.47708174586296
			vertex 15.569399833679 1.9879359006882 0.43999999761581
		endloop
	endfacet
	facet normal -2.4624423473853e-08 0.4999999982057 0.86602540482038
		outer loop
			vertex 15.143400192261 1.9879359006882 0.43999999761581
			vertex 14.926225662231 1.8870162963867 0.49826595187187
			vertex 15.356399536133 1.9237084388733 0.47708174586296
		endloop
	endfacet
	facet normal 2.4624356609731e-08 0.49999999820559 0.86602540482044
		outer loop
			vertex 15.569399833679 1.9879359006882 0.43999999761581
			vertex 15.356399536133 1.9237084388733 0.47708174586296
			vertex 15.786574363708 1.8870162963867 0.49826595187187
		endloop
	endfacet
	facet normal 1.7932984836057e-09 -0.50000016158453 -0.86602531049355
		outer loop
			vertex 18.606399536133 1.870038151741 0
			vertex 15.786574363708 1.6670162677765 0.11721478402615
			vertex 15.356399536133 1.7037084102631 0.096030555665493
		endloop
	endfacet
	facet normal -1.2720736946196e-08 -0.50000001039257 -0.86602539778429
		outer loop
			vertex 18.606399536133 1.870038151741 0
			vertex 16.200216293335 1.5583498477936 0.17995336651802
			vertex 15.786574363708 1.6670162677765 0.11721478402615
		endloop
	endfacet
	facet normal -2.1145453694358e-10 -0.50000008281979 -0.86602535596841
		outer loop
			vertex 18.606399536133 1.870038151741 0
			vertex 16.581432342529 1.3818851709366 0.28183531761169
			vertex 16.200216293335 1.5583498477936 0.17995336651802
		endloop
	endfacet
	facet normal -4.4706546561161e-08 -0.49999994438814 -0.86602543589196
		outer loop
			vertex 18.606399536133 1.870038151741 0
			vertex 16.915571212769 1.1444035768509 0.41894534230232
			vertex 16.581432342529 1.3818851709366 0.28183531761169
		endloop
	endfacet
	facet normal 1.8278490826695e-08 -0.50000005446099 -0.86602537234137
		outer loop
			vertex 18.606399536133 1.870038151741 0
			vertex 17.189790725708 0.85503154993057 0.58601438999176
			vertex 16.915571212769 1.1444035768509 0.41894534230232
		endloop
	endfacet
	facet normal -9.5704095058804e-08 -0.49999993514989 -0.86602544122566
		outer loop
			vertex 18.606399536133 1.870038151741 0
			vertex 17.3935546875 0.52488929033279 0.77662205696106
			vertex 17.189790725708 0.85503154993057 0.58601438999176
		endloop
	endfacet
	facet normal 1 0 -0
		outer loop
			vertex 18.606399536133 1.870038151741 0
			vertex 18.606399536133 1.8971817493439 0.43999999761581
			vertex 18.606399536133 0.21999999880791 0.95265001058578
		endloop
	endfacet
	facet normal -0 0.49999995846269 0.86602542776601
		outer loop
			vertex 15.569399833679 1.9879359006882 0.43999999761581
			vertex 15.786574363708 1.8870162963867 0.49826595187187
			vertex 18.606399536133 1.9879359006882 0.43999999761581
		endloop
	endfacet
	facet normal 3.0848715801533e-09 0.49999989381619 0.86602546508968
		outer loop
			vertex 18.606399536133 1.9879359006882 0.43999999761581
			vertex 15.786574363708 1.8870162963867 0.49826595187187
			vertex 16.200216293335 1.7783498764038 0.56100451946259
		endloop
	endfacet
	facet normal 1 0 0
		outer loop
			vertex 18.606399536133 1.870038151741 0
			vertex 18.606399536133 2.0900382995605 0.38105118274689
			vertex 18.606399536133 1.8971817493439 0.43999999761581
		endloop
	endfacet
	facet normal -1.8048515596671e-09 0.49999993591908 0.86602544078157
		outer loop
			vertex 18.606399536133 1.9879359006882 0.43999999761581
			vertex 16.200216293335 1.7783498764038 0.56100451946259
			vertex 16.581432342529 1.6018850803375 0.66288650035858
		endloop
	endfacet
	facet normal -1.505674027766e-08 0.49999998805207 0.86602541068258
		outer loop
			vertex 18.606399536133 1.9879359006882 0.43999999761581
			vertex 16.581432342529 1.6018850803375 0.66288650035858
			vertex 16.915571212769 1.3644036054611 0.79999649524689
		endloop
	endfacet
	facet normal 8.8830847142191e-08 -0.50000005993845 -0.86602536917895
		outer loop
			vertex 18.606399536133 1.870038151741 0
			vertex 17.5003490448 0.21999999880791 0.95265001058578
			vertex 17.3935546875 0.52488929033279 0.77662205696106
		endloop
	endfacet
	facet normal 0 -0.50000001527976 -0.86602539496267
		outer loop
			vertex 18.606399536133 1.870038151741 0
			vertex 18.606399536133 0.21999999880791 0.95265001058578
			vertex 17.5003490448 0.21999999880791 0.95265001058578
		endloop
	endfacet
	facet normal -3.6317537382847e-08 0.50000003129164 0.8660253857182
		outer loop
			vertex 18.606399536133 1.9879359006882 0.43999999761581
			vertex 16.915571212769 1.3644036054611 0.79999649524689
			vertex 17.189790725708 1.0750315189362 0.96706557273865
		endloop
	endfacet
	facet normal 1 0 0
		outer loop
			vertex 18.606399536133 1.9879359006882 0.43999999761581
			vertex 18.606399536133 0.43999999761581 1.333701133728
			vertex 18.606399536133 1.8971817493439 0.43999999761581
		endloop
	endfacet
	facet normal 1 0 0
		outer loop
			vertex 18.606399536133 1.8971817493439 0.43999999761581
			vertex 18.606399536133 0.43999999761581 1.333701133728
			vertex 18.606399536133 0.21999999880791 0.95265001058578
		endloop
	endfacet
	facet normal 1.7326878313657e-08 0.49999996885918 0.8660254217636
		outer loop
			vertex 18.606399536133 1.9879359006882 0.43999999761581
			vertex 17.189790725708 1.0750315189362 0.96706557273865
			vertex 18.606399536133 0.43999999761581 1.333701133728
		endloop
	endfacet
	facet normal 0 -0.86602537397867 0.5000000516251
		outer loop
			vertex 12.106399536133 0.21999999880791 0.95265001058578
			vertex 13.21245098114 0.43999999761581 1.333701133728
			vertex 12.106399536133 0.43999999761581 1.333701133728
		endloop
	endfacet
	facet normal 0 -0.86602537397867 0.5000000516251
		outer loop
			vertex 12.106399536133 0.21999999880791 0.95265001058578
			vertex 13.21245098114 0.21999999880791 0.95265001058578
			vertex 13.21245098114 0.43999999761581 1.333701133728
		endloop
	endfacet
	facet normal 1.5437262356108e-08 0.49999996569771 0.86602542358888
		outer loop
			vertex 18.606399536133 0.43999999761581 1.333701133728
			vertex 17.189790725708 1.0750315189362 0.96706557273865
			vertex 17.3935546875 0.74488931894302 1.1576732397079
		endloop
	endfacet
	facet normal 0 -0.86602537397867 0.5000000516251
		outer loop
			vertex 18.606399536133 0.21999999880791 0.95265001058578
			vertex 18.606399536133 0.43999999761581 1.333701133728
			vertex 17.5003490448 0.21999999880791 0.95265001058578
		endloop
	endfacet
	facet normal 0 -0.86602537397867 0.5000000516251
		outer loop
			vertex 18.606399536133 0.43999999761581 1.333701133728
			vertex 17.5003490448 0.43999999761581 1.333701133728
			vertex 17.5003490448 0.21999999880791 0.95265001058578
		endloop
	endfacet
	facet normal 0 0.49999991964082 0.86602545017983
		outer loop
			vertex 18.606399536133 0.43999999761581 1.333701133728
			vertex 17.3935546875 0.74488931894302 1.1576732397079
			vertex 17.5003490448 0.43999999761581 1.333701133728
		endloop
	endfacet
	facet normal 0.87187267280999 0 -0.4897326233846
		outer loop
			vertex 15.143400192261 1.9879359006882 0.43999999761581
			vertex 15.143400192261 1.8780751228333 0.43999999761581
			vertex 15.011400222778 1.7273857593536 0.20499999821186
		endloop
	endfacet
	facet normal 0 0 -1
		outer loop
			vertex 15.143400192261 1.9879359006882 0.43999999761581
			vertex 15.356399536133 1.902299284935 0.43999999761581
			vertex 15.143400192261 1.8780751228333 0.43999999761581
		endloop
	endfacet
	facet normal 0 0 -1
		outer loop
			vertex 15.143400192261 1.9879359006882 0.43999999761581
			vertex 15.569399833679 1.9879359006882 0.43999999761581
			vertex 15.356399536133 1.902299284935 0.43999999761581
		endloop
	endfacet
	facet normal 0 -0 -1
		outer loop
			vertex 15.569399833679 1.9879359006882 0.43999999761581
			vertex 15.569399833679 1.8780751228333 0.43999999761581
			vertex 15.356399536133 1.902299284935 0.43999999761581
		endloop
	endfacet
	facet normal 0 0 1
		outer loop
			vertex 15.011400222778 14.341438293457 0.20499999821186
			vertex 15.011400222778 1.7273857593536 0.20499999821186
			vertex 15.356399536133 1.7666219472885 0.20499999821186
		endloop
	endfacet
	facet normal 0 0 1
		outer loop
			vertex 15.701399803162 14.341438293457 0.20499999821186
			vertex 15.356399536133 1.7666219472885 0.20499999821186
			vertex 15.701399803162 1.7273857593536 0.20499999821186
		endloop
	endfacet
	facet normal 0.87187267280999 0 -0.4897326233846
		outer loop
			vertex 15.011400222778 14.341438293457 0.20499999821186
			vertex 15.143400192261 1.9879359006882 0.43999999761581
			vertex 15.011400222778 1.7273857593536 0.20499999821186
		endloop
	endfacet
	facet normal -0.87187267280999 -0 -0.4897326233846
		outer loop
			vertex 15.701399803162 14.341438293457 0.20499999821186
			vertex 15.701399803162 1.7273857593536 0.20499999821186
			vertex 15.569399833679 1.8780751228333 0.43999999761581
		endloop
	endfacet
	facet normal -0.87187173169707 0 -0.48973429884739
		outer loop
			vertex 15.69295501709 14.341438293457 0.22003526985645
			vertex 15.569399833679 1.8780751228333 0.43999999761581
			vertex 15.569399833679 1.9879359006882 0.43999999761581
		endloop
	endfacet
	facet normal -0 0 1
		outer loop
			vertex 15.011400222778 14.341438293457 0.20499999821186
			vertex 15.356399536133 1.7666219472885 0.20499999821186
			vertex 15.158399581909 14.341438293457 0.20499999821186
		endloop
	endfacet
	facet normal -0 0 1
		outer loop
			vertex 15.158399581909 14.341438293457 0.20499999821186
			vertex 15.356399536133 1.7666219472885 0.20499999821186
			vertex 15.554400444031 14.341438293457 0.20499999821186
		endloop
	endfacet
	facet normal -0 0 1
		outer loop
			vertex 15.554400444031 14.341438293457 0.20499999821186
			vertex 15.356399536133 1.7666219472885 0.20499999821186
			vertex 15.577990531921 14.341438293457 0.20499999821186
		endloop
	endfacet
	facet normal -0 0 1
		outer loop
			vertex 15.577990531921 14.341438293457 0.20499999821186
			vertex 15.356399536133 1.7666219472885 0.20499999821186
			vertex 15.701399803162 14.341438293457 0.20499999821186
		endloop
	endfacet
	facet normal 0.87187267280999 0 -0.4897326233846
		outer loop
			vertex 15.011400222778 14.341438293457 0.20499999821186
			vertex 15.143400192261 13.901437759399 0.43999999761581
			vertex 15.143400192261 1.9879359006882 0.43999999761581
		endloop
	endfacet
	facet normal -0.87188644107486 6.0800982327187e-07 -0.48970811088795
		outer loop
			vertex 15.701399803162 14.341438293457 0.20499999821186
			vertex 15.569399833679 1.8780751228333 0.43999999761581
			vertex 15.69295501709 14.341438293457 0.22003526985645
		endloop
	endfacet
	facet normal -0.87187173169707 0 -0.48973429884739
		outer loop
			vertex 15.69295501709 14.341438293457 0.22003526985645
			vertex 15.569399833679 1.9879359006882 0.43999999761581
			vertex 15.569399833679 13.901437759399 0.43999999761581
		endloop
	endfacet
	facet normal 0.87187267280999 0 -0.4897326233846
		outer loop
			vertex 15.011400222778 14.341438293457 0.20499999821186
			vertex 15.143400192261 14.341438293457 0.43999999761581
			vertex 15.143400192261 13.901437759399 0.43999999761581
		endloop
	endfacet
	facet normal 0 -1 0
		outer loop
			vertex 15.158399581909 14.341438293457 0.20499999821186
			vertex 15.554400444031 14.341438293457 0.20499999821186
			vertex 15.158399581909 14.341438293457 0.43999999761581
		endloop
	endfacet
	facet normal -0.87187173169707 0 -0.48973429884739
		outer loop
			vertex 15.69295501709 14.341438293457 0.22003526985645
			vertex 15.569399833679 13.901437759399 0.43999999761581
			vertex 15.569399833679 14.341438293457 0.43999999761581
		endloop
	endfacet
	facet normal 0 -1 0
		outer loop
			vertex 15.158399581909 14.341438293457 0.43999999761581
			vertex 15.554400444031 14.341438293457 0.20499999821186
			vertex 15.554400444031 14.341438293457 0.43999999761581
		endloop
	endfacet
	facet normal 0 0 -1
		outer loop
			vertex 15.143400192261 14.341438293457 0.43999999761581
			vertex 15.569399833679 13.901437759399 0.43999999761581
			vertex 15.143400192261 13.901437759399 0.43999999761581
		endloop
	endfacet
	facet normal 0 0 -1
		outer loop
			vertex 15.143400192261 14.341438293457 0.43999999761581
			vertex 15.158399581909 14.341438293457 0.43999999761581
			vertex 15.569399833679 13.901437759399 0.43999999761581
		endloop
	endfacet
	facet normal 0 0 -1
		outer loop
			vertex 15.158399581909 14.341438293457 0.43999999761581
			vertex 15.554400444031 14.341438293457 0.43999999761581
			vertex 15.569399833679 13.901437759399 0.43999999761581
		endloop
	endfacet
	facet normal 0 0 -1
		outer loop
			vertex 15.554400444031 14.341438293457 0.43999999761581
			vertex 15.569399833679 14.341438293457 0.43999999761581
			vertex 15.569399833679 13.901437759399 0.43999999761581
		endloop
	endfacet
	facet normal 0.88192119113351 -0.40824168371624 0.23569840963863
		outer loop
			vertex 13.31924533844 0.52488929033279 0.77662205696106
			vertex 13.523009300232 0.85503154993057 0.58601438999176
			vertex 13.523009300232 1.0750315189362 0.96706557273865
		endloop
	endfacet
	facet normal 0.77300993657465 -0.54940121864622 0.31719700330692
		outer loop
			vertex 13.797229766846 1.1444035768509 0.41894534230232
			vertex 13.797229766846 1.3644036054611 0.79999649524689
			vertex 13.523009300232 0.85503154993057 0.58601438999176
		endloop
	endfacet
	facet normal 0.63439340343449 -0.66944657261149 0.38650523424338
		outer loop
			vertex 13.797229766846 1.1444035768509 0.41894534230232
			vertex 14.131367683411 1.6018850803375 0.66288650035858
			vertex 13.797229766846 1.3644036054611 0.79999649524689
		endloop
	endfacet
	facet normal 0.95694080146973 -0.25139256785735 0.14514158366424
		outer loop
			vertex 13.31924533844 0.74488931894302 1.1576732397079
			vertex 13.21245098114 0.21999999880791 0.95265001058578
			vertex 13.31924533844 0.52488929033279 0.77662205696106
		endloop
	endfacet
	facet normal 0.88192116459701 -0.40824169905992 0.23569848235514
		outer loop
			vertex 13.31924533844 0.52488929033279 0.77662205696106
			vertex 13.523009300232 1.0750315189362 0.96706557273865
			vertex 13.31924533844 0.74488931894302 1.1576732397079
		endloop
	endfacet
	facet normal 0.77300999850896 -0.54940120124447 0.31719688251355
		outer loop
			vertex 13.523009300232 0.85503154993057 0.58601438999176
			vertex 13.797229766846 1.3644036054611 0.79999649524689
			vertex 13.523009300232 1.0750315189362 0.96706557273865
		endloop
	endfacet
	facet normal 0.098017377620178 -0.86185559188108 0.49759173267627
		outer loop
			vertex 15.011400222778 1.7273857593536 0.20499999821186
			vertex 14.926225662231 1.6670162677765 0.11721478402615
			vertex 15.356399536133 1.7666219472885 0.20499999821186
		endloop
	endfacet
	facet normal 0.098017170493132 -0.86185525205389 0.49759236207527
		outer loop
			vertex 14.926225662231 1.6670162677765 0.11721478402615
			vertex 15.356399536133 1.7037084102631 0.096030555665493
			vertex 15.356399536133 1.7666219472885 0.20499999821186
		endloop
	endfacet
	facet normal -0.098016955282016 -0.86185545691468 0.49759204963869
		outer loop
			vertex 15.701399803162 1.7273857593536 0.20499999821186
			vertex 15.356399536133 1.7037084102631 0.096030555665493
			vertex 15.786574363708 1.6670162677765 0.11721478402615
		endloop
	endfacet
	facet normal -0.098017069010136 -0.86185526070999 0.49759236707287
		outer loop
			vertex 15.356399536133 1.7037084102631 0.096030555665493
			vertex 15.701399803162 1.7273857593536 0.20499999821186
			vertex 15.356399536133 1.7666219472885 0.20499999821186
		endloop
	endfacet
	facet normal 0.47139701541737 -0.76376605288475 0.44096062218348
		outer loop
			vertex 14.512582778931 1.5583498477936 0.17995336651802
			vertex 14.512582778931 1.7783498764038 0.56100451946259
			vertex 14.131367683411 1.3818851709366 0.28183531761169
		endloop
	endfacet
	facet normal 0.29028462353426 -0.82873462248022 0.47847023192894
		outer loop
			vertex 14.512582778931 1.5583498477936 0.17995336651802
			vertex 14.926225662231 1.6670162677765 0.11721478402615
			vertex 14.926225662231 1.8870162963867 0.49826595187187
		endloop
	endfacet
	facet normal 0.098016412022698 -0.86185528330519 0.49759245735152
		outer loop
			vertex 15.011400222778 1.7273857593536 0.20499999821186
			vertex 14.926225662231 1.8870162963867 0.49826595187187
			vertex 14.926225662231 1.6670162677765 0.11721478402615
		endloop
	endfacet
	facet normal 0.63439356674907 -0.6694465603152 0.38650498748339
		outer loop
			vertex 14.131367683411 1.3818851709366 0.28183531761169
			vertex 14.131367683411 1.6018850803375 0.66288650035858
			vertex 13.797229766846 1.1444035768509 0.41894534230232
		endloop
	endfacet
	facet normal 0.47139722799322 -0.76376607288057 0.44096036030113
		outer loop
			vertex 14.131367683411 1.3818851709366 0.28183531761169
			vertex 14.512582778931 1.7783498764038 0.56100451946259
			vertex 14.131367683411 1.6018850803375 0.66288650035858
		endloop
	endfacet
	facet normal 0.29028460775018 -0.82873461852479 0.47847024835604
		outer loop
			vertex 14.512582778931 1.5583498477936 0.17995336651802
			vertex 14.926225662231 1.8870162963867 0.49826595187187
			vertex 14.512582778931 1.7783498764038 0.56100451946259
		endloop
	endfacet
	facet normal -0.098016412022698 -0.86185528330519 0.49759245735152
		outer loop
			vertex 15.701399803162 1.7273857593536 0.20499999821186
			vertex 15.786574363708 1.6670162677765 0.11721478402615
			vertex 15.786574363708 1.8870162963867 0.49826595187187
		endloop
	endfacet
	facet normal -0.29028523640541 -0.82873445337319 0.4784701530057
		outer loop
			vertex 15.786574363708 1.6670162677765 0.11721478402615
			vertex 16.200216293335 1.5583498477936 0.17995336651802
			vertex 16.200216293335 1.7783498764038 0.56100451946259
		endloop
	endfacet
	facet normal -0.2902852206213 -0.82873446562178 0.47847014136666
		outer loop
			vertex 15.786574363708 1.6670162677765 0.11721478402615
			vertex 16.200216293335 1.7783498764038 0.56100451946259
			vertex 15.786574363708 1.8870162963867 0.49826595187187
		endloop
	endfacet
	facet normal 0.098016575218034 -0.86185524836184 0.49759248572871
		outer loop
			vertex 15.011400222778 1.7273857593536 0.20499999821186
			vertex 15.143400192261 1.8780751228333 0.43999999761581
			vertex 14.926225662231 1.8870162963867 0.49826595187187
		endloop
	endfacet
	facet normal -0.098016575218034 -0.86185524836184 0.49759248572871
		outer loop
			vertex 15.701399803162 1.7273857593536 0.20499999821186
			vertex 15.786574363708 1.8870162963867 0.49826595187187
			vertex 15.569399833679 1.8780751228333 0.43999999761581
		endloop
	endfacet
	facet normal 0.098017771060618 -0.86185523511709 0.4975922731088
		outer loop
			vertex 15.356399536133 1.9237084388733 0.47708174586296
			vertex 15.143400192261 1.8780751228333 0.43999999761581
			vertex 15.356399536133 1.902299284935 0.43999999761581
		endloop
	endfacet
	facet normal -0.098017336418231 -0.86185527219053 0.49759229451315
		outer loop
			vertex 15.569399833679 1.8780751228333 0.43999999761581
			vertex 15.356399536133 1.9237084388733 0.47708174586296
			vertex 15.356399536133 1.902299284935 0.43999999761581
		endloop
	endfacet
	facet normal 0.098017144886399 -0.86185406271492 0.49759442710916
		outer loop
			vertex 15.143400192261 1.8780751228333 0.43999999761581
			vertex 15.356399536133 1.9237084388733 0.47708174586296
			vertex 14.926225662231 1.8870162963867 0.49826595187187
		endloop
	endfacet
	facet normal -0.098016929675538 -0.86185451063252 0.49759369368929
		outer loop
			vertex 15.569399833679 1.8780751228333 0.43999999761581
			vertex 15.786574363708 1.8870162963867 0.49826595187187
			vertex 15.356399536133 1.9237084388733 0.47708174586296
		endloop
	endfacet
	facet normal -0.47139609819299 -0.7637665958653 0.44096066224637
		outer loop
			vertex 16.200216293335 1.5583498477936 0.17995336651802
			vertex 16.581432342529 1.3818851709366 0.28183531761169
			vertex 16.581432342529 1.6018850803375 0.66288650035858
		endloop
	endfacet
	facet normal -0.63439248480931 -0.66944722550414 0.3865056111912
		outer loop
			vertex 16.581432342529 1.3818851709366 0.28183531761169
			vertex 16.915571212769 1.1444035768509 0.41894534230232
			vertex 16.915571212769 1.3644036054611 0.79999649524689
		endloop
	endfacet
	facet normal -0.47139631076867 -0.76376637906671 0.44096081050476
		outer loop
			vertex 16.200216293335 1.5583498477936 0.17995336651802
			vertex 16.581432342529 1.6018850803375 0.66288650035858
			vertex 16.200216293335 1.7783498764038 0.56100451946259
		endloop
	endfacet
	facet normal -0.63439232149464 -0.66944744535255 0.38650549845972
		outer loop
			vertex 16.581432342529 1.3818851709366 0.28183531761169
			vertex 16.915571212769 1.3644036054611 0.79999649524689
			vertex 16.581432342529 1.6018850803375 0.66288650035858
		endloop
	endfacet
	facet normal -0.77301101851538 -0.54940012487735 0.3171962610728
		outer loop
			vertex 17.189790725708 1.0750315189362 0.96706557273865
			vertex 16.915571212769 1.1444035768509 0.41894534230232
			vertex 17.189790725708 0.85503154993057 0.58601438999176
		endloop
	endfacet
	facet normal -0.77301108044952 -0.54940001156639 0.31719630639892
		outer loop
			vertex 16.915571212769 1.1444035768509 0.41894534230232
			vertex 17.189790725708 1.0750315189362 0.96706557273865
			vertex 16.915571212769 1.3644036054611 0.79999649524689
		endloop
	endfacet
	facet normal -0.88192119113351 -0.408241656065 0.235698457532
		outer loop
			vertex 17.189790725708 0.85503154993057 0.58601438999176
			vertex 17.3935546875 0.52488929033279 0.77662205696106
			vertex 17.3935546875 0.74488931894302 1.1576732397079
		endloop
	endfacet
	facet normal -0.88192116459701 -0.40824172671117 0.23569843446176
		outer loop
			vertex 17.3935546875 0.74488931894302 1.1576732397079
			vertex 17.189790725708 1.0750315189362 0.96706557273865
			vertex 17.189790725708 0.85503154993057 0.58601438999176
		endloop
	endfacet
	facet normal -0.95694080146973 -0.25139256654027 0.14514158594549
		outer loop
			vertex 17.5003490448 0.21999999880791 0.95265001058578
			vertex 17.5003490448 0.43999999761581 1.333701133728
			vertex 17.3935546875 0.52488929033279 0.77662205696106
		endloop
	endfacet
	facet normal 0.95694080055521 -0.25139256915114 0.14514158745288
		outer loop
			vertex 13.21245098114 0.43999999761581 1.333701133728
			vertex 13.21245098114 0.21999999880791 0.95265001058578
			vertex 13.31924533844 0.74488931894302 1.1576732397079
		endloop
	endfacet
	facet normal -0.95694080055521 -0.25139257046822 0.14514158517163
		outer loop
			vertex 17.5003490448 0.43999999761581 1.333701133728
			vertex 17.3935546875 0.74488931894302 1.1576732397079
			vertex 17.3935546875 0.52488929033279 0.77662205696106
		endloop
	endfacet
endsolid